# https://github.com/mikedh/trimesh
v 0.43362582 -0.05670391 -0.32693586
v 0.20492768 0.17219239 0.01588790
v -0.62426776 -0.25842929 -0.32774761
v 0.67045456 -0.33408150 -0.43964547
v 0.14235590 -0.01529442 0.06705704
v -0.59563380 -0.32078809 -0.38218534
v 0.20101397 0.26960200 -0.13309084
v 0.30599159 0.03688988 0.86550689
v -0.22079161 -0.08736362 -0.15805505
v -0.01971023 0.32389471 -0.10483223
v 0.21116023 0.29063424 -0.18939054
v 0.27485183 0.14762986 -0.17243680
v 0.11085028 0.20597537 0.27305359
v -0.20478494 0.14853391 0.64037597
v -0.28867710 0.23074293 0.81166279
v 0.65760356 -0.31930709 -0.47606492
v -0.38920990 0.10837150 0.63912362
v 0.02153193 0.26920620 0.30675545
v 0.24665689 -0.04805344 -0.38538188
v -0.52160066 -0.39740002 -0.29935667
v 0.48591605 -0.03982482 -0.32641253
v -0.06472071 -0.08514453 -0.58711767
v 0.57544345 -0.44205928 -0.50684094
v -0.48183441 -0.27501950 -0.20550108
v 0.05752539 -0.32593930 -0.46130419
v -0.02285294 0.33414817 -0.14491953
v 0.10777581 -0.31457007 -0.43522429
v 0.16422389 0.14789233 0.55053937
v 0.05186267 0.28507635 0.21522179
v 0.05912165 0.13506329 0.27859557
v 0.14022170 -0.07811802 -0.55036962
v -0.61002725 -0.31472808 -0.32662469
v -0.00564213 0.18199183 -0.58844340
v 0.19521946 -0.01872074 -0.04260431
v 0.52448267 -0.17809704 -0.46035191
v 0.07242152 0.36130431 -0.37351695
v 0.23330329 -0.26428026 -0.61954403
v 0.27127644 0.07029466 -0.42195261
v -0.31367645 -0.04963055 0.34000745
v 0.36973673 0.05286500 0.26906925
v -0.53390729 -0.34505296 -0.24233083
v -0.07295519 -0.30336225 -0.45010784
v -0.05655842 -0.33603933 -0.31521639
v -0.23243210 0.12518749 0.76358014
v -0.39941069 -0.11436822 0.85496771
v 0.64454621 -0.21113034 -0.40635315
v 0.63341886 -0.16262861 -0.26753417
v -0.25568441 0.01925140 0.65091777
v -0.17737392 -0.14855660 -0.24514869
v 0.26384535 0.26121634 0.83713847
v 0.24616110 0.03975011 0.86666542
v -0.21729082 0.10957525 -0.09662513
v -0.07837782 0.22558399 0.23107460
v -0.07962018 -0.11026186 -0.54401314
v 0.01971667 0.49285960 0.38116398
v 0.47968438 -0.11263485 -0.18133174
v 0.26701701 -0.01868713 -0.41475773
v 0.37730667 0.10674977 0.34821919
v 0.61518526 -0.34946695 -0.37220073
v 0.18077303 0.29168013 -0.13177504
v 0.33431762 -0.06629882 -0.15527561
v 0.19333120 -0.22209010 -0.54051471
v 0.13818592 0.27762678 -0.00752273
v 0.20006767 0.29090875 -0.16292962
v 0.18020046 -0.12693329 -0.32926714
v -0.36844367 -0.05776486 0.40827245
v -0.27748415 0.10705197 -0.35575145
v 0.16403355 0.05638303 -0.55014205
v -0.14608687 0.23815840 0.06051049
v 0.26204687 0.24446614 0.55553383
v -0.62251192 -0.26033702 -0.30293149
v 0.05683788 -0.11895023 -0.55443627
v 0.20114915 0.30918136 -0.25947812
v 0.59671837 -0.38379517 -0.44394174
v 0.00364106 0.19475892 -0.58256072
v 0.29430065 0.16029666 -0.31327954
v 0.02908569 -0.29207247 -0.50347978
v 0.09017526 -0.06830004 0.05498901
v -0.27365819 -0.13474929 -0.26270741
v -0.60061359 -0.36268067 -0.35245878
v -0.18910438 -0.00292663 -0.46600118
v 0.65281850 -0.33778775 -0.37809038
v 0.10239864 -0.36974204 -0.28107518
v -0.26983586 0.16453768 -0.26149011
v 0.61169159 -0.35531163 -0.52998012
v -0.32345247 -0.03587668 0.27572185
v 0.12819628 -0.03352818 0.16352554
v 0.23689304 0.24572913 0.57097870
v 0.24389470 0.20379168 -0.11962173
v -0.17758748 0.14762501 -0.03124868
v -0.12601990 0.17876340 0.33378640
v 0.18492103 -0.16087018 -0.41049808
v 0.23030312 0.22308908 -0.08659324
v -0.14583610 -0.24928725 -0.54764396
v -0.28830945 -0.06596676 -0.35671511
v 0.25014758 -0.09673239 -0.20850801
v -0.18255736 0.29433408 -0.35572469
v 0.02144469 0.30887157 0.34105182
v -0.51724780 0.00959784 0.82180876
v -0.04575992 -0.34252194 -0.28547183
v -0.33456179 0.17747851 0.27899897
v 0.11905596 -0.29271436 -0.45130551
v 0.05023295 -0.46623376 -0.32650259
v -0.27005455 0.02078225 0.17454176
v -0.34878716 0.11565889 0.22200654
v 0.42870730 -0.12073664 -0.32330137
v 0.06059147 -0.13309430 -0.06154209
v 0.31995523 -0.06722212 -0.31791508
v 0.42067277 0.07413869 0.82874823
v -0.16228290 -0.16920185 -0.38554582
v -0.10524739 -0.16682328 -0.22663888
v -0.06228241 -0.11684455 -0.54170245
v -0.11379027 0.34296986 -0.18598856
v -0.24306419 -0.03675064 0.37945738
v -0.27121478 0.06995779 0.84422034
v 0.25508022 -0.02680963 -0.12911302
v 0.06743522 -0.08568013 0.07278391
v 0.05532803 0.37422580 -0.33078405
v 0.25772068 0.02183592 0.86618161
v 0.56438512 -0.21066383 -0.47815189
v 0.65559131 -0.41977346 -0.42275807
v 0.36449748 -0.02912218 0.46138886
v 0.53719974 -0.17120002 -0.46193287
v 0.40043381 0.08183607 -0.20168398
v -0.31237188 -0.01133919 0.84140503
v -0.06243755 -0.29386088 -0.31342041
v -0.02732536 0.35806787 -0.37973556
v -0.20116743 0.05465500 0.51110089
v -0.17262667 0.26423061 -0.10214829
v -0.35760868 0.17450900 0.71699613
v -0.16858827 -0.15207745 -0.38891014
v -0.27575096 0.09366183 0.86547500
v 0.37530285 0.10985348 0.33767280
v 0.32547131 -0.08421849 -0.28223076
v 0.33402020 0.18485372 0.82759267
v 0.57202733 -0.35465276 -0.48134136
v 0.00636993 0.35832566 -0.41015461
v -0.09928814 -0.23350847 -0.61569792
v -0.24729323 0.22616705 0.20365816
v -0.28665686 -0.02459833 0.45788202
v 0.29330447 0.20612429 0.31997681
v -0.19207284 0.11265875 0.61574471
v -0.29609925 0.20852938 0.25081465
v 0.13127671 -0.00728720 -0.56165302
v 0.58764637 -0.34601194 -0.40365809
v -0.16026656 -0.02553651 -0.48177752
v 0.57834738 -0.07102159 -0.37947014
v -0.05404353 -0.27768850 -0.59593022
v 0.16231768 -0.25739020 -0.55413061
v 0.27114850 0.16654417 -0.40479934
v 0.30908027 -0.00751606 -0.35625902
v -0.39256901 0.04709230 0.38704351
v -0.01137476 -0.15594020 -0.56829333
v -0.42363352 0.09168171 0.77214760
v 0.15630488 -0.22746500 -0.61403954
v -0.16012390 0.00546599 -0.49376217
v -0.58617151 -0.28838405 -0.26389635
v 0.11887515 -0.19064733 -0.33881563
v 0.40492961 -0.06574494 -0.15020423
v 0.01471996 0.28259093 0.17449825
v -0.22806002 -0.00793663 0.18127747
v -0.37060624 -0.12409451 -0.17423159
v 0.30595505 -0.00200520 -0.36292133
v 0.54082346 -0.04595115 -0.29661489
v -0.32360482 0.04770263 0.75918752
v -0.01239220 0.37103361 -0.35604858
v -0.50842565 -0.12622632 -0.27706611
v -0.05739246 -0.32006779 -0.30609506
v -0.52804929 -0.35994765 -0.24880028
v 0.27449074 0.07980094 -0.12157929
v -0.52006131 -0.13244878 -0.27804086
v 0.19295739 0.09878467 -0.52606642
v -0.07989325 0.03019334 -0.58486879
v 0.23545621 0.20895188 -0.45280823
v -0.47121975 0.01880397 0.84227246
v 0.41896054 0.08370952 0.85104811
v 0.63048458 -0.34124053 -0.36683100
v 0.12866183 -0.29926968 -0.36190778
v 0.14330858 -0.09496072 -0.52965641
v 0.53644359 -0.23172060 -0.49298659
v -0.04836214 -0.10220978 0.01879847
v -0.05152180 -0.34371138 -0.36263552
v 0.50980479 -0.07881021 -0.38322696
v 0.37955362 0.14441670 0.85029900
v -0.49326116 -0.41452092 -0.43226236
v 0.05311130 0.15514928 0.27272797
v 0.34329724 0.03273112 -0.14107333
v -0.07500847 0.26145044 0.18593080
v 0.06582595 0.34052476 -0.14516041
v 0.30657607 0.09524308 -0.16999827
v 0.18240604 0.15369315 0.83921582
v 0.60186368 -0.44533819 -0.49488160
v 0.02964241 0.02993055 -0.60194212
v 0.10359041 0.36522225 -0.28611675
v 0.15753040 0.22470315 0.85654628
v -0.24119349 -0.07306989 -0.38405862
v 0.17676650 -0.13120890 -0.08946016
v 0.57168287 -0.47191119 -0.52492833
v -0.32137558 -0.05115621 0.34872779
v -0.38860679 0.10119829 0.63256294
v 0.04235918 -0.10951096 -0.59141082
v 0.28271300 -0.04933112 0.40359631
v 0.60617137 -0.08643352 -0.40335345
v 0.66791052 -0.33033431 -0.39216632
v 0.12587605 -0.21388076 -0.34843141
v -0.44982511 -0.33067343 -0.37864974
v 0.18950726 -0.01268212 0.38256240
v -0.54216290 -0.54389530 -0.42610407
v -0.35907444 0.13882524 0.27647749
v 0.17102748 0.22655754 0.70069402
v 0.35480994 0.20370074 0.60079771
v -0.06417672 -0.17478316 -0.10172859
v 0.34837878 -0.09610067 -0.28433233
v 0.43199366 0.05132741 0.83090550
v -0.42515475 -0.18403049 -0.39492249
v 0.15439907 -0.31717953 -0.59534466
v 0.04953583 0.23936866 -0.55590767
v -0.46200949 0.01695940 0.82237965
v 0.13430263 0.31297886 -0.10790612
v -0.37374619 -0.11325940 -0.36135510
v 0.22128899 0.08516756 0.79755723
v -0.26247549 0.10012685 -0.41117522
v 0.36586696 0.10372028 0.24879409
v 0.21328497 -0.01643459 0.18778910
v 0.10710180 -0.15425043 -0.07209661
v -0.16576815 0.05579790 0.37849033
v -0.22818911 0.23472369 -0.20302083
v 0.15263695 0.16890225 0.34588644
v 0.23445135 0.06932478 -0.07240313
v 0.06704034 -0.01919336 -0.59191006
v 0.19923033 0.19050637 0.04560897
v -0.24984206 0.23965080 0.82914615
v 0.38239622 -0.03079741 0.82352626
v -0.34601349 0.03557144 -0.33604926
v 0.28180006 -0.04634920 0.41270694
v 0.29282939 0.15337937 -0.33218560
v -0.51032233 -0.37873447 -0.46657538
v -0.56784022 -0.28200227 -0.42898279
v 0.21871759 0.25665024 -0.42976943
v 0.16219023 -0.14457744 -0.36558002
v -0.27166423 0.12432573 -0.37834358
v 0.23271105 0.04110701 -0.45368576
v -0.50827289 -0.42072266 -0.49363458
v 0.44621342 -0.19345878 -0.22484368
v -0.51651484 -0.45792651 -0.53429174
v -0.24231587 -0.10556922 -0.19179192
v 0.09560783 -0.08538178 0.02374380
v -0.28010556 0.10753118 -0.32865080
v -0.09318808 0.32385099 -0.43108380
v 0.29760459 0.00556382 0.20416977
v -0.25211251 0.11678591 0.86281556
v -0.33257556 -0.04969914 0.35244989
v 0.23405130 0.01541193 -0.07422937
v 0.17813063 0.32495150 -0.35745701
v -0.26477671 0.01044429 0.18183237
v 0.25020087 -0.08158849 -0.17313544
v 0.33783028 -0.08908570 -0.17722009
v 0.19630225 0.01379514 0.41779247
v 0.11990959 0.28059191 0.07672570
v -0.34736845 0.01409335 0.61842018
v 0.28386992 0.05732985 -0.40863186
v -0.22067890 0.22251256 0.83359271
v 0.17459594 0.22010417 0.62852478
v -0.03321979 0.37105036 -0.23828244
v 0.34573516 0.07256513 -0.33838391
v -0.39840919 0.14404632 0.59103447
v 0.35608792 0.06169093 0.86627346
v -0.05599777 0.13929990 -0.58888292
v 0.60024357 -0.13137119 -0.43091327
v -0.02208284 -0.08962160 0.06560882
v 0.67049927 -0.18705079 -0.34276205
v -0.35318655 -0.05535671 0.84069401
v 0.17662200 -0.08368577 -0.47912043
v -0.04698482 -0.34399995 -0.28857991
v 0.06367029 0.34045601 -0.45015860
v 0.15098855 -0.01112292 0.08600896
v 0.01240887 0.43447885 0.31182364
v 0.18413095 -0.13434760 -0.26236469
v -0.11210293 -0.07863001 -0.54004681
v -0.52049422 -0.39901498 -0.30219728
v 0.52645546 -0.26986760 -0.30212891
v -0.50742888 -0.20896754 -0.41772017
v -0.33672699 0.07612078 -0.28464708
v 0.11160415 -0.34368467 -0.29395401
v -0.31398726 0.11477526 0.16960676
v 0.20179045 -0.06619612 -0.43775758
v -0.11921092 0.01912789 -0.54543543
v -0.10498614 0.35192728 -0.27362302
v 0.27654698 0.18475431 -0.36327609
v -0.39385015 0.02626894 0.57570535
v 0.19048758 0.10145507 0.67784232
v 0.18614604 0.25475940 0.70007229
v -0.17475481 0.20703821 -0.48197767
v -0.62251586 -0.27768978 -0.34424937
v 0.14884576 0.33658320 -0.20751099
v 0.23352122 0.22532599 0.29530716
v 0.25512463 0.16820578 -0.09140704
v 0.34031132 0.04483764 -0.35190538
v -0.19918986 -0.13976645 -0.23886728
v -0.32900694 0.06145955 -0.31273916
v -0.40066066 -0.26600388 -0.35430017
v 0.34363240 -0.02408621 -0.14287123
v -0.60361797 -0.40659267 -0.41097093
v -0.36557567 -0.16446358 -0.34327155
v 0.03336398 -0.15287618 -0.12880762
v 0.37608200 0.07807392 0.53935111
v -0.54030478 -0.53859633 -0.42079768
v -0.20579255 0.24680308 -0.40072912
v 0.33466119 -0.04031644 0.34988555
v -0.08837099 0.29608646 -0.05295138
v -0.13251594 0.25034463 0.14098009
v -0.17352052 0.23456375 0.27212161
v -0.27490073 -0.00189939 0.19457132
v -0.40495703 -0.06712871 -0.18138953
v -0.17381513 0.21983255 0.31967363
v 0.17210306 0.24469188 -0.00849351
v -0.17625959 0.15807468 -0.04092321
v -0.55669910 -0.16501205 -0.37976691
v 0.49216723 -0.12277874 -0.41321924
v 0.36792690 -0.10701407 -0.20138514
v 0.62934601 -0.14120306 -0.41677061
v -0.57606244 -0.50587410 -0.43822595
v 0.52789247 -0.34053406 -0.58556914
v -0.54627442 -0.51053041 -0.46422794
v 0.11003064 -0.41582948 -0.29558131
v -0.05387561 -0.29962346 -0.58240825
v 0.20569198 0.22699791 0.56005478
v 0.02610979 0.03772281 0.25668561
v 0.06151085 0.32734984 -0.13956226
v 0.11040423 0.30436578 -0.09367513
v 0.18886705 0.14214702 -0.52061659
v -0.37230381 0.03524742 -0.31450710
v -0.34762973 0.19555078 0.51860845
v -0.21080843 0.22178690 -0.13564157
v -0.05897075 0.36637273 -0.23419568
v 0.34176883 0.19092906 0.51629090
v 0.23481850 0.08584132 -0.47341719
v -0.11790606 -0.03454998 -0.54147679
v 0.38312802 -0.11901086 -0.23385474
v -0.29307187 0.08693071 -0.31317228
v -0.54190272 -0.15043953 -0.27274650
v 0.19211942 0.20530668 0.08975288
v -0.33388755 -0.05091441 0.40835682
v 0.03686123 -0.25626966 -0.53399891
v 0.21879040 0.14942160 0.07310436
v 0.27427903 0.18562849 -0.37304935
v -0.09346441 0.26741326 -0.50870585
v 0.03031584 -0.36199883 -0.22071120
v -0.22387345 0.06254534 0.10526697
v 0.46846616 -0.19099735 -0.34599629
v -0.09042630 0.34409061 -0.36376908
v -0.36729243 0.18467225 0.67166686
v -0.60677117 -0.31157807 -0.36166957
v 0.20799211 0.21840756 0.85933656
v -0.20229329 -0.09242954 -0.11440296
v -0.30998862 0.19926938 0.24577062
v -0.12367230 0.26344520 0.04568055
v 0.08946349 -0.17614469 -0.13546118
v 0.02561338 0.17675480 -0.59048998
v 0.23773482 0.10454952 0.75640535
v 0.04945858 0.27310309 0.28524861
v 0.03484583 -0.26393348 -0.23563235
v 0.14369671 0.27657807 0.02164598
v -0.19224818 0.23232722 0.29241297
v -0.14231704 -0.09910917 -0.46063152
v -0.22770365 0.08536318 -0.45332524
v 0.05513012 -0.27006036 -0.24664505
v -0.08248849 -0.02966899 0.17234084
v 0.37367681 -0.01301793 0.47131178
v -0.03365736 -0.00945579 0.23768459
v 0.09181043 0.26772693 0.14490595
v 0.35804999 0.03822382 0.86251104
v -0.44690302 -0.13263962 -0.20156215
v -0.37358311 -0.07039622 0.85898435
v -0.05958346 -0.06569268 0.05484568
v 0.22154754 -0.25029677 -0.58646762
v 0.01304056 -0.08882553 0.07381836
v 0.36334738 0.13537957 0.31132057
v 0.30997279 -0.02654998 -0.34780535
v 0.32753885 -0.00229053 0.24629073
v 0.62494302 -0.28596887 -0.51888651
v -0.04298952 0.12655124 -0.60012954
v -0.04705016 0.31050017 -0.08330236
v 0.11126339 0.29218656 -0.06076702
v 0.26590109 -0.03693589 0.24589276
v -0.42130795 -0.27590999 -0.28538492
v -0.59852517 -0.25576696 -0.27241623
v 0.39861342 0.02456848 -0.15518987
v -0.49897468 -0.44860095 -0.51662701
v 0.22082883 0.11778720 -0.00495267
v 0.12579118 0.35380653 -0.29277068
v 0.21797039 0.14099416 0.00609780
v -0.38357899 0.00903977 0.32852808
v 0.12869120 0.28560239 -0.01159288
v 0.11172503 -0.00968176 0.24634646
v -0.36320862 0.12907407 0.28062227
v -0.08393633 0.01045708 0.24966761
v -0.22028296 0.11202574 0.43894932
v -0.52445072 -0.13618925 -0.33727014
v 0.22414021 0.03038065 0.57114625
v -0.30605751 0.20788607 0.57841808
v 0.26269618 -0.02661978 -0.41073340
v 0.49968597 -0.22029473 -0.21299176
v 0.12689707 -0.00712936 -0.56804299
v 0.02097638 -0.18017209 -0.23153076
v -0.16413432 -0.12353066 -0.41391873
v 0.29865789 0.06620048 -0.38213086
v -0.48674086 0.07802195 0.84774286
v 0.28478700 0.17563528 0.86160892
v -0.47966221 -0.47708121 -0.52711284
v -0.27240658 0.09962482 -0.19344337
v -0.10764167 -0.17690915 -0.20871368
v 0.07345618 0.37172836 -0.32294649
v 0.58560443 -0.17539205 -0.21932279
v -0.47612566 -0.06682551 0.82448840
v -0.25259170 0.19811085 0.59394091
v 0.11590177 -0.36944649 -0.31470612
v -0.16920680 0.29330263 -0.16734515
v 0.18893121 0.07046209 0.63304621
v 0.30837354 -0.03837471 0.82434660
v -0.36951599 0.07240259 0.71296757
v -0.24328770 0.19572908 0.63667613
v -0.45534796 0.10270330 0.79949433
v -0.25948361 0.15516171 -0.19295835
v 0.14973609 -0.26004821 -0.41113186
v -0.23070031 0.18670829 0.77932125
v 0.03401890 0.30397892 -0.03351645
v 0.52830362 -0.26543763 -0.51627356
v -0.24272099 0.01659726 -0.13321643
v 0.07523839 -0.41679862 -0.25563926
v -0.29582638 -0.05166642 0.35823509
v 0.36693421 0.13960640 0.57230639
v 0.07192626 -0.04586871 0.13851221
v -0.21460952 0.07686596 0.67953134
v 0.37342992 0.00862258 0.86626726
v 0.26339224 -0.02043180 -0.37942573
v -0.50667083 -0.41686589 -0.48960561
v 0.06501702 0.37374648 -0.24962930
v -0.14594613 0.17607486 -0.52885371
v 0.11984169 0.07662474 0.33154655
v 0.14916924 -0.26555562 -0.39571461
v -0.39785677 0.00981222 -0.31138042
v 0.16908900 -0.21786729 -0.59938627
v -0.21125995 0.17017575 0.81735730
v -0.44696209 -0.33155268 -0.35570619
v 0.55634069 -0.32047275 -0.59344858
v 0.28758350 -0.02731671 0.47401816
v 0.28299013 0.24172039 0.83885860
v -0.61965626 -0.24022594 -0.29488125
v 0.25069037 0.04386516 0.61885077
v 0.34074888 0.11593297 0.86397606
v 0.36532149 0.08071177 0.50873518
v 0.62807781 -0.44511554 -0.43163875
v -0.19273713 0.06940440 0.07116184
v -0.61112511 -0.21785198 -0.36528137
v -0.50484127 -0.33506480 -0.23395263
v 0.22146462 0.11323600 0.76986104
v -0.30205342 0.17358354 0.35887727
v -0.60172051 -0.37191680 -0.33522263
v -0.06977220 -0.17187768 -0.52902561
v 0.57289344 -0.35513094 -0.46873608
v 0.06489293 0.28241771 0.12640315
v -0.28497958 -0.07757068 -0.35257360
v -0.43457887 -0.30741605 -0.36098522
v -0.40698701 0.14092499 0.85823965
v 0.05328448 -0.02266488 -0.60094738
v 0.58949727 -0.04864582 -0.34587616
v -0.36585116 -0.06262560 0.82025141
v 0.30424765 0.16089167 0.43258354
v 0.17042042 -0.27267858 -0.58512717
v -0.21702482 0.09656040 -0.46753007
v -0.22505541 -0.08938897 -0.39178124
v -0.36696985 0.10761870 0.44286528
v 0.26576790 0.14552611 -0.12693778
v -0.51041746 -0.45820466 -0.42674315
v 0.24482957 0.20745263 0.35349306
v 0.20006143 -0.25763336 -0.59326172
v 0.21675444 0.03085932 0.55682504
v 0.11115211 -0.30560023 -0.46681774
v 0.30614921 0.25267395 0.65183431
v -0.17194197 0.28282130 -0.11621555
v 0.21621732 0.19058992 0.85951734
v -0.51239926 -0.22919175 -0.20234293
v -0.34564626 0.17916390 0.49356839
v 0.42222679 -0.16043742 -0.26502508
v 0.28651857 0.15523192 -0.21667542
v 0.17581105 0.15418860 0.71147144
v -0.37843066 0.09248220 0.36867467
v 0.06028295 0.20507009 0.25506625
v -0.06164347 -0.07072780 0.03446260
v -0.17767009 0.19204243 -0.07700334
v -0.14904389 0.33658743 -0.26660171
v 0.64750046 -0.25085688 -0.44996297
v -0.16599816 -0.31949157 -0.67976636
v 0.21635212 0.12500358 0.73046649
v -0.04163602 -0.35900956 -0.43070599
v 0.04535832 0.19379200 -0.58209097
v 0.24631260 0.14853124 -0.45616439
v -0.18330702 -0.01186689 0.35422087
v 0.19400036 0.21758266 0.30091077
v -0.17829452 0.18177499 0.04197193
v -0.36759990 0.18282132 0.68869829
v 0.49160108 0.02454215 -0.24702168
v 0.18817106 0.06767818 0.53196985
v 0.31425565 0.14850575 0.74401206
v 0.17013830 0.07283002 0.58595729
v -0.07971680 0.12740685 0.31696469
v -0.19282219 0.11493037 0.60847217
v -0.48427224 -0.08300313 0.84324294
v -0.51537293 -0.27065045 -0.44497550
v 0.07442588 0.12206322 0.28762001
v 0.08381297 -0.00793929 -0.59207994
v -0.37756720 0.08807953 0.27884030
v 0.25595710 0.09187023 0.86166763
v 0.23826282 -0.08609793 -0.37817338
v -0.23173411 0.18807656 0.86821711
v 0.41404295 0.01250367 -0.32887912
v 0.66112143 -0.20298012 -0.36648220
v -0.19043075 0.23254116 0.28416660
v 0.40875146 -0.08463295 -0.31318679
v 0.07855238 0.34963968 -0.41863364
v 0.49433678 -0.01423715 -0.22997300
v 0.13561296 0.25445762 -0.51886356
v -0.21646656 0.00532404 0.16707388
v 0.02834101 -0.34922192 -0.41489419
v 0.64330447 -0.27846274 -0.47918221
v 0.24182555 0.07558595 -0.46064278
v 0.19111887 0.13404317 -0.52651942
v 0.37500501 0.03047658 0.29751223
v 0.06730578 -0.17249249 -0.14945336
v 0.33423597 -0.04462288 0.46655264
v -0.37730515 -0.01061415 0.33188009
v -0.38951638 0.12077715 0.74559408
v -0.60251397 -0.20169756 -0.29343250
v 0.17882785 0.08066354 0.43064824
v -0.19890389 0.08733470 0.07341196
v -0.36724284 0.05196613 0.66126508
v 0.19931141 0.14146699 0.44939050
v 0.64987063 -0.42725706 -0.42319357
v -0.22607063 0.03159709 0.63570523
v -0.42258286 -0.04342269 -0.20018910
v 0.28247562 0.08864062 0.76572973
v 0.16948822 0.12013117 -0.54976916
v 0.38034418 -0.10878552 -0.17126994
v -0.12207827 0.27077803 -0.07912747
v -0.03220607 0.36347598 -0.19397095
v -0.48067573 0.03388054 0.85368186
v 0.14816965 -0.19771512 -0.55218750
v 0.14377242 -0.27913335 -0.62343544
v -0.44289201 0.11345679 0.86684966
v -0.12816462 0.08334779 0.36216205
v 0.43346024 -0.16413780 -0.36929396
v -0.05397433 0.34211609 -0.42448649
v 0.15995166 -0.14308003 -0.36560175
v -0.53192270 -0.15646245 -0.24408694
v -0.15361233 0.24191250 0.22416236
v -0.51388645 -0.47697389 -0.41112882
v 0.09893362 0.25576374 0.16394179
v 0.19801822 0.22991084 0.57659793
v -0.46644321 0.01649099 0.85586542
v -0.33711061 0.09614494 0.19562298
v -0.12897860 -0.26451463 -0.65967292
v -0.50323123 -0.09211922 0.85836744
v -0.00098151 -0.38077328 -0.37668499
v -0.11037222 -0.18176071 -0.18940249
v -0.58278322 -0.19843818 -0.38973302
v -0.61093497 -0.21247563 -0.34673953
v 0.28488919 -0.04491019 -0.15662251
v 0.18575411 -0.00042522 -0.01471520
v 0.25135076 0.24816236 0.57412004
v -0.26170796 0.16119848 -0.19595732
v 0.00534295 0.48033950 0.38384199
v 0.49508727 -0.21658202 -0.21057676
v 0.36706868 0.13161954 0.53896046
v 0.19053093 0.11785884 0.45405641
v 0.10181378 -0.02694058 0.20209248
v -0.30220738 0.22545810 0.80647308
v 0.32924712 -0.03672536 0.40985477
v -0.10557885 -0.26543459 -0.65125936
v -0.19895457 0.06592162 0.41757396
v 0.23888704 -0.10871662 -0.25354275
v 0.25345960 -0.10123810 -0.24703373
v -0.26634741 0.08408032 -0.40365168
v 0.17212674 0.15406030 0.70119268
v -0.09604184 0.28131494 0.05441872
v -0.36510617 0.05552028 0.24782600
v -0.24352215 0.22640380 -0.23171669
v 0.27238330 0.19654670 -0.36759606
v 0.00505251 0.31336844 0.01725885
v 0.16464950 0.12272461 0.54321992
v -0.36917743 -0.22668193 -0.27544332
v 0.19651736 0.00986879 -0.48208287
v 0.42809311 -0.16292810 -0.24571882
v 0.30621353 0.05396694 0.64899790
v 0.21326749 -0.06474102 -0.40195546
v 0.18859081 0.21870841 0.03977794
v 0.16207890 0.17659411 0.58050811
v -0.15853360 0.22532888 0.03466194
v -0.35107055 -0.04808480 -0.15905143
v -0.28496045 0.09522820 -0.31049839
v 0.28115460 0.07573587 0.76981050
v -0.47644997 -0.14898404 -0.21462065
v -0.04239692 -0.35869786 -0.28136653
v 0.39975631 0.09714310 0.86603755
v -0.45983568 -0.33506733 -0.30277047
v 0.23931605 0.26948094 0.76965654
v -0.19929293 0.02644480 0.40017653
v 0.24367347 -0.09068459 -0.15723120
v -0.23815842 0.18423234 0.73772979
v 0.31449905 -0.08227245 -0.19184107
v -0.52286720 -0.25371960 -0.20939675
v -0.54696459 -0.52093214 -0.41052011
v 0.22907870 0.20135939 -0.08523922
v -0.30680692 0.16670045 0.18027800
v 0.27746698 0.16249283 -0.20835255
v 0.20244917 0.12141223 -0.50971216
v -0.22291985 0.09354427 0.45096004
v 0.26560670 0.16959885 -0.14146566
v -0.25943547 0.11395766 -0.16132440
v -0.04866931 -0.18257196 -0.55947828
v -0.08621339 0.09877932 -0.58451998
v 0.30587697 0.16271137 0.45222965
v 0.15060715 -0.06883793 -0.54010057
v -0.01749534 0.55871540 0.39008802
v 0.61629695 -0.08131781 -0.39495185
v -0.39136934 0.05561081 0.33658284
v -0.55382109 -0.58497858 -0.36540562
v -0.00260983 0.42936444 0.37802625
v 0.46329245 -0.06035501 -0.34272873
v -0.31511104 -0.03228712 0.50038356
v -0.62024897 -0.25511426 -0.35566965
v -0.12005922 0.14166743 0.35479861
v 0.26760107 0.22475931 0.24267688
v -0.38388452 0.10324611 0.71508992
v -0.11265196 0.30140275 -0.09762817
v 0.25014937 0.17820171 0.45131856
v -0.48253146 -0.12696549 -0.36231118
v -0.00711069 -0.01069662 -0.60486490
v -0.17236590 -0.30686897 -0.63201392
v 0.31930876 0.15083358 0.73611426
v -0.59469634 -0.30890989 -0.39456013
v 0.23729582 0.23097885 0.86151695
v -0.11160225 -0.16078496 -0.30431944
v -0.36117867 0.18446526 0.80322033
v -0.21705472 -0.02914599 0.21655518
v 0.33316442 -0.03747423 0.32983041
v 0.30956435 0.25167817 0.63485390
v 0.51426709 -0.24529430 -0.40752965
v 0.13773680 -0.14879881 -0.31210485
v -0.26891443 0.21120317 0.76994443
v -0.10686769 0.29061809 -0.47130519
v -0.24112284 -0.12460867 -0.28856304
v -0.04335243 0.37028396 -0.30335039
v -0.56817591 -0.34094888 -0.43733042
v -0.00859550 -0.47459182 -0.31495792
v -0.60634220 -0.38180837 -0.35569566
v -0.51979738 -0.19702363 -0.40875661
v 0.16628978 0.18193802 0.35022315
v 0.13688983 -0.15852541 -0.28130770
v -0.12081613 0.27998924 -0.03860513
v 0.46568620 -0.16458191 -0.41303894
v 0.22828737 -0.05527300 -0.43300673
v -0.27424297 0.14783849 0.41972077
v 0.18615891 0.24800259 0.73956907
v 0.12397378 -0.30660775 -0.56586140
v 0.19782218 -0.11722797 -0.10217129
v -0.32592341 0.01868076 0.78320545
v -0.45550275 0.09060932 0.86678725
v -0.09882171 0.08662658 -0.58189917
v -0.43606278 -0.30488697 -0.42277148
v -0.61074531 -0.26605862 -0.38135746
v -0.01964412 -0.48558828 -0.29567164
v -0.15564354 0.24760066 -0.09554484
v -0.40056971 0.14580266 0.80064523
v 0.04941214 -0.52439839 -0.31198806
v -0.21271786 0.16648452 0.81551206
v 0.07746629 -0.06173342 0.08736383
v 0.22235166 -0.11103782 -0.26848117
v 0.15612288 0.15878025 -0.55162638
v 0.31839406 -0.03106023 0.49642670
v -0.38286716 0.17387149 0.61766726
v 0.17799561 -0.15808113 -0.15307181
v 0.23463246 0.22985385 0.23258020
v 0.45662725 -0.11121606 -0.17571342
v -0.22164561 0.15031305 0.41672644
v -0.04117534 0.21851945 0.23848087
v 0.49207491 -0.22347055 -0.29688203
v -0.21033871 0.22001800 0.16889654
v -0.33325097 0.16196807 0.46752244
v 0.05888607 0.32342046 0.30370846
v -0.60143024 -0.42744139 -0.42434925
v 0.02695357 0.36683860 -0.28417847
v -0.29890150 0.17763072 0.48835006
v 0.49724430 -0.06966329 -0.37112370
v 0.30526128 0.12104300 0.16135074
v -0.18974498 0.30655190 -0.24510908
v 0.65713418 -0.22242399 -0.32296553
v -0.05374124 -0.05906710 0.08139282
v 0.30796078 0.06797179 -0.37226611
v 0.10939134 0.20127989 -0.56328613
v 0.16954251 0.03545500 0.38622159
v -0.08098775 0.29770732 -0.05687700
v -0.16898556 0.21701698 0.32213783
v -0.21499132 0.21545540 0.84312540
v 0.02279353 -0.32507238 -0.21275806
v 0.36537954 0.00597115 -0.34463808
v 0.14806956 -0.13138309 -0.47003919
v 0.26060790 0.27501780 0.65689987
v 0.29405466 0.20985125 0.23866123
v 0.16890593 -0.09359044 -0.45041463
v -0.32354957 0.02031115 0.86887610
v 0.34756669 0.17008924 0.82675093
v 0.18395917 -0.00882461 -0.49148983
v 0.08399140 -0.30247527 -0.26535121
v -0.59637052 -0.53294069 -0.29437959
v -0.30323672 -0.04134013 0.41312212
v 0.49662521 -0.22858466 -0.31190842
v -0.33406505 -0.02122189 0.26504362
v -0.23880295 -0.11740828 -0.21884063
v 0.27691540 0.17272013 -0.22170541
v -0.44362170 0.01327828 0.80104607
v 0.18856274 0.28954139 -0.14069830
v 0.38530093 -0.03038206 -0.33192459
v 0.04413833 0.22584341 0.27058554
v 0.66643643 -0.37791231 -0.44178361
v -0.17196594 0.22866772 0.14440998
v 0.35580462 0.02158816 0.26642647
v -0.06043998 -0.33541501 -0.35493702
v 0.13486068 -0.10943829 -0.49573216
v 0.15435395 0.00081324 0.33521184
v 0.15980199 0.04215413 -0.55002624
v -0.30773851 0.20351042 0.74988461
v 0.63854754 -0.34126607 -0.36924779
v -0.60000002 -0.19122450 -0.32831869
v -0.08755915 -0.32510820 -0.55479050
v 0.28167334 0.21274960 0.22343358
v -0.56866479 -0.54971588 -0.35655245
v -0.14760637 0.06285465 -0.53436565
v -0.37217391 0.18080938 0.65756714
v -0.34226632 -0.04153869 0.83113223
v 0.04973357 0.37192595 -0.34911892
v 0.09974211 -0.17402589 -0.11846510
v 0.18696716 0.15388833 -0.52216458
v 0.19024853 -0.01627395 0.14566231
v 0.27085668 0.16561390 -0.41200715
v 0.46509984 0.00290718 -0.31260481
v 0.10976642 -0.15015070 -0.06598217
v 0.26519662 0.17753102 0.43738493
v 0.53228611 -0.04412339 -0.31913695
v 0.23811184 0.16685173 0.85931402
v -0.03122560 0.29515392 0.30263135
v 0.13666314 -0.27285224 -0.45681256
v 0.31679645 0.20364442 0.50438672
v 0.38064986 0.01153256 0.83445692
v 0.03538394 0.35954556 -0.38589412
v -0.09988097 0.14645275 0.33508104
v -0.27134693 0.06747555 0.83597785
v 0.26715738 -0.05788807 -0.36143541
v -0.26118031 0.05309318 -0.41623157
v 0.26487324 0.26538202 0.73934877
v -0.20047902 0.04524842 0.61255658
v 0.23244557 0.01888352 0.50046200
v -0.44509622 -0.19837220 -0.41000444
v 0.08301987 -0.48102713 -0.28006518
v 0.05877277 -0.11799226 -0.55424941
v 0.12010777 0.30132124 -0.02421539
v 0.25997934 -0.01471313 0.20304394
v -0.25924799 0.09842052 -0.16674857
v -0.05319242 -0.34154466 -0.34845755
v -0.40664896 -0.08275188 0.86438632
v 0.12048016 0.07905114 -0.58047503
v -0.37131077 0.11974089 0.32132259
v -0.28088751 0.10095528 -0.35572669
v 0.65926445 -0.22753055 -0.33866206
v 0.05530780 0.34878746 -0.43231267
v -0.20480236 0.22057997 0.16134109
v 0.14614369 0.04685568 -0.56374937
v 0.11799672 -0.01747390 0.23601356
v -0.11649641 -0.01441001 0.21410647
v -0.35874307 0.04252807 0.66216642
v -0.23809889 0.16903543 0.12615208
v -0.01868984 -0.37263551 -0.24651726
v 0.32103395 -0.07746901 0.84561336
v 0.17931043 0.07477391 -0.53965813
v -0.33828965 0.20316052 0.84701860
v -0.59466070 -0.22475764 -0.39744875
v -0.61175889 -0.50507838 -0.31625241
v -0.43872696 0.04264184 0.79216427
v 0.65954411 -0.35440400 -0.47156560
v -0.03224369 -0.34610850 -0.43382910
v 0.11629986 -0.37351736 -0.30938330
v -0.60484350 -0.30736539 -0.29045847
v 0.03390876 -0.39345723 -0.37195921
v 0.24864870 0.27869958 0.85821700
v 0.32467237 0.16633132 0.36448669
v -0.07505473 -0.05374427 0.04867726
v -0.16531514 0.21463490 0.02531606
v -0.38379976 -0.16488974 -0.34789708
v -0.00083492 0.02649982 0.26312709
v -0.08821481 0.06748366 0.29449183
v -0.38749066 0.08115723 0.75242275
v -0.10310301 0.25237751 0.14752348
v 0.23440155 0.26787132 -0.37578031
v 0.67371428 -0.37493148 -0.41838560
v -0.54751623 -0.48633796 -0.46649155
v 0.01489734 0.41738844 0.38077864
v 0.54561436 -0.29006210 -0.35911110
v 0.31117591 0.24852027 0.70906800
v 0.37021571 0.04575901 0.83921927
v -0.18496059 0.02046498 -0.46080610
v -0.20051163 -0.00285631 -0.07049371
v 0.27036464 0.19963709 -0.39084807
v 0.04978010 -0.11181267 -0.57818270
v -0.01078986 -0.37273368 -0.23524195
v 0.21321189 0.27036104 0.68879187
v 0.27697828 -0.05419691 0.35004270
v 0.48079541 -0.16495463 -0.19210593
v -0.33886191 0.20097502 0.69314271
v -0.16500825 -0.01912518 0.17984532
v 0.64253783 -0.25786567 -0.31781623
v 0.38119110 0.07588573 0.38513973
v -0.45257962 -0.30524245 -0.23689988
v 0.05649749 -0.07768331 0.09458279
v 0.00906371 -0.14117973 -0.09829714
v -0.55499303 -0.54804778 -0.35198882
v -0.22377847 0.10362519 -0.10470240
v 0.21822059 0.24850702 -0.10241604
v -0.02308320 0.28226405 0.20009436
v -0.11170030 -0.20913325 -0.45860103
v 0.04865304 0.39361510 0.33669752
v -0.07199340 -0.32346290 -0.59859538
v 0.07797294 0.30877629 -0.04420790
v -0.53807390 -0.54816270 -0.46478260
v 0.21940821 0.01747064 0.46865359
v 0.64435387 -0.34910780 -0.37580323
v 0.04000722 0.29230958 -0.52071947
v -0.33480108 -0.01745915 0.55217129
v -0.41092744 0.11855147 0.86522806
v 0.65287262 -0.33687255 -0.37799990
v -0.34019852 -0.04148280 0.30641204
v 0.56377554 -0.21301170 -0.48204833
v 0.60030895 -0.32158655 -0.35586235
v 0.25658935 0.04916771 0.62260139
v -0.61531228 -0.29654592 -0.31850252
v -0.55213964 -0.49627554 -0.46228826
v -0.41268080 0.04892780 0.52095455
v 0.31760922 -0.03709453 -0.33830646
v -0.02486029 0.55859423 0.39101395
v 0.20408680 0.25758108 -0.11901303
v 0.03336874 0.28430387 -0.52835685
v 0.05615395 0.37630883 -0.30896968
v 0.09059325 -0.02110845 0.20995253
v 0.14278297 -0.18988204 -0.37805989
v -0.25937298 0.18235061 0.52634788
v 0.53457904 -0.34709406 -0.60843813
v 0.08834560 -0.16534331 -0.24845949
v 0.28140992 0.09016873 0.14468814
v -0.04962716 -0.25015473 -0.58748323
v 0.09179108 0.13035299 0.29431045
v 0.18368515 0.18058130 0.74167454
v -0.05380151 -0.18000247 -0.13310534
v 0.41769469 -0.08891084 -0.31767023
v 0.56879151 -0.27855590 -0.56763887
v -0.32730690 0.20836315 0.58714467
v -0.18620557 0.07708292 0.56688619
v 0.10860157 -0.40986094 -0.29066119
v -0.34765956 0.08371905 0.22023918
v 0.06210654 -0.47113019 -0.31544834
v 0.17295410 -0.31761751 -0.59460217
v -0.00475042 0.33073688 -0.46665746
v 0.17440075 0.23406498 0.06411934
v -0.19900469 0.28868020 -0.24111630
v 0.18772021 0.21561491 0.05970788
v 0.35267842 0.06639899 -0.15423101
v 0.24297351 0.01550535 -0.08616006
v -0.29438871 0.02598169 0.67532146
v -0.23311046 -0.00366634 0.41371724
v -0.22508198 -0.04454540 0.25420865
v -0.48655954 -0.02601739 0.85387295
v 0.23338982 0.23590508 0.55153620
v -0.38341621 0.01023484 0.55489230
v -0.19118962 0.14077796 0.40635553
v 0.02516112 0.10813458 0.24710847
v 0.18419024 0.22619118 0.04795105
v 0.53526360 -0.34182727 -0.60580343
v -0.17644256 0.18154316 -0.02797193
v 0.28365207 0.17508262 -0.31155106
v 0.26581997 0.15886776 -0.42142534
v -0.23010032 0.16979131 0.74118608
v -0.10607967 -0.17788225 -0.48190776
v 0.32989872 0.16958395 0.86687881
v -0.17972435 0.12586631 0.41546637
v 0.21278329 0.25200748 -0.44877940
v -0.36397517 -0.12663600 -0.35883892
v -0.18230730 0.08769648 -0.04038112
v 0.27401462 0.25126290 0.82965213
v -0.19143766 0.05134598 0.59441572
v -0.09408010 0.15597937 0.31614128
v 0.27058798 0.22281221 -0.32948607
v -0.31855339 -0.02849405 0.26070282
v 0.18331376 -0.15458581 -0.20001203
v -0.26423109 -0.00839967 0.50557822
v -0.07613476 -0.20491017 -0.57786041
v -0.54212099 -0.59087163 -0.39446455
v -0.09594858 -0.00913345 -0.56433243
v -0.16014074 0.21434827 0.00334322
v -0.09229670 0.20201102 -0.54874194
v 0.07035910 0.37322953 -0.31442052
v 0.24314880 0.02737485 0.78564912
v -0.09094565 -0.16366465 -0.26474935
v 0.10058199 0.16236348 -0.57964247
v 0.22215721 0.03100204 0.10305295
v -0.17954773 0.15852250 -0.00036140
v -0.08217426 0.30003840 -0.48081657
v -0.24166557 -0.01232582 0.52161729
v 0.15042663 0.00932768 -0.53688771
v -0.24453668 0.14426826 0.86852837
v -0.46683860 -0.28172189 -0.20924766
v -0.03218223 -0.07892396 0.10285641
v 0.14158370 0.35432318 -0.29982540
v -0.05907219 -0.04857869 0.11037792
v -0.08011071 -0.31636599 -0.37664217
v 0.02239737 -0.00258990 0.25634858
v 0.02402602 0.28055722 0.32291064
v 0.12428459 -0.29716226 -0.49663261
v -0.57751793 -0.40698916 -0.47604120
v 0.03886348 0.35003734 0.27643594
v 0.18564290 -0.12086639 -0.42336506
v 0.47458202 0.02508371 -0.20554742
v -0.14287713 0.15133411 -0.53309602
v -0.13750477 0.25158644 0.02643408
v -0.49376231 -0.23873356 -0.43383807
v 0.36047870 0.08516650 0.79773498
v -0.29527056 0.03792792 0.81259090
v -0.40246618 0.13185351 0.55094111
v -0.06954808 -0.31120187 -0.46017486
v -0.12159207 0.30364633 -0.43437842
v 0.07199600 -0.44718084 -0.32066324
v 0.04796505 -0.15226918 -0.08686988
v 0.35760993 0.03083882 -0.34999877
v -0.57773179 -0.15771662 -0.34587768
v -0.25512388 0.09124289 0.76672894
v 0.20252416 -0.23160903 -0.61714572
v -0.06873221 -0.04014698 0.14545472
v 0.35537988 -0.00711594 0.31437999
v -0.40982744 0.05460449 0.53817672
v 0.21943025 0.22370097 0.53553849
v -0.21642353 0.18713392 -0.10883973
v -0.45774615 -0.34644061 -0.34896910
v -0.60875547 -0.41628432 -0.39282215
v 0.14271726 -0.26221526 -0.53762013
v -0.01213202 -0.34430414 -0.21661837
v 0.15704958 -0.10694310 -0.45723915
v 0.11939058 -0.11672905 -0.03378927
v 0.21936238 0.21407466 0.20483811
v -0.08712599 0.33527637 -0.12785761
v 0.26399583 0.19226289 -0.41627917
v 0.09993617 -0.29239777 -0.28682625
v -0.11964642 -0.22355607 -0.55839640
v 0.19038445 0.24065867 -0.07750447
v 0.22316912 0.16552822 0.09397773
v 0.33533594 -0.01043602 0.52049518
v 0.00024904 -0.44126776 -0.24534465
v -0.37426692 0.03661328 0.76540291
v 0.22629125 0.29099149 0.86144006
v -0.15864067 -0.12008727 -0.42239833
v -0.37736255 -0.00669151 0.31600699
v -0.02438368 0.22693051 -0.55936563
v 0.19550158 0.27618772 -0.41762003
v -0.56797981 -0.32635352 -0.24973385
v -0.54635966 -0.52014494 -0.46561408
v -0.14711754 0.28759873 -0.41592023
v -0.25647756 0.08686313 0.81311792
v -0.23762335 0.11558412 0.80273706
v 0.11843746 -0.02994660 0.06586454
v 0.32225063 -0.01581086 -0.34667936
v -0.40883225 -0.04228290 -0.34202388
v 0.12302714 -0.25848123 -0.60419524
v 0.28278917 0.16996419 -0.24243367
v -0.28181681 -0.05338403 0.33551291
v 0.02880131 0.45328057 0.33359912
v -0.02915476 0.44956675 0.32973567
v 0.21624379 0.13209912 0.86331737
v 0.16974252 0.01358564 0.05653384
v 0.63843739 -0.12662244 -0.39683357
v 0.28214639 0.14173290 -0.40308911
v -0.10501675 -0.23512918 -0.35725093
v -0.33024377 0.21271692 0.83763337
v 0.17681244 -0.07545997 -0.03444161
v 0.08937457 -0.45739162 -0.26642665
v 0.48783988 0.02716646 -0.25774977
v -0.09697189 -0.34091383 -0.58802450
v 0.25888968 -0.09784509 -0.34203801
v -0.29119936 0.09478853 0.15289938
v -0.36607370 -0.04413451 0.45831037
v 0.26817012 0.11393809 0.74730122
v -0.29753247 -0.10424116 -0.34413153
v 0.06690441 -0.17306158 -0.13207263
v -0.54277372 -0.53519946 -0.38789791
v -0.45490438 -0.07633616 -0.33404565
v 0.15428677 0.22587083 0.83708727
v 0.36233869 -0.01177538 0.33626708
v -0.06333366 -0.31776819 -0.58460534
v 0.65057003 -0.25800365 -0.35924342
v -0.07507931 -0.24493974 -0.61682773
v -0.24163771 0.11817776 0.85301566
v 0.27554703 -0.04114616 0.83066970
v 0.29972902 0.01019090 0.57626408
v 0.25157133 0.00064015 -0.10902599
v 0.26020426 0.12695560 -0.09626970
v -0.10205864 -0.21469615 -0.52591395
v -0.28344387 0.20816420 0.86572200
v -0.20043431 -0.15558721 -0.34963062
v 0.07672822 0.18505605 -0.57617772
v 0.19951499 0.02782880 0.44011676
v -0.19940069 0.26890531 -0.19458286
v -0.34760743 0.15601049 0.30314559
v -0.25409594 0.18326263 0.53370649
v -0.40898225 -0.21549590 -0.39939570
v -0.30950305 0.21007253 0.62083256
v -0.42790845 -0.29951033 -0.32369363
v -0.20339209 0.04887924 0.41679195
v 0.63741726 -0.33843899 -0.36646941
v 0.28112686 0.17964523 0.86160856
v -0.35963497 0.02070277 0.25357211
v -0.60543692 -0.39959097 -0.30274615
v 0.46327889 -0.05494192 -0.33924818
v -0.06881915 -0.21093862 -0.58436400
v -0.08151965 -0.19545165 -0.34143758
v -0.11603872 -0.16563003 -0.47213233
v -0.20526466 -0.11185523 -0.38958633
v -0.34315971 0.20062895 0.81497157
v -0.04104890 0.29771021 0.07405813
v -0.21798730 -0.02674433 0.38289928
v -0.05285534 0.17798127 0.26385045
v -0.18362385 0.23686247 0.23417109
v -0.27702463 0.01524867 0.65320444
v 0.29511827 -0.00820928 -0.14339064
v 0.11529858 -0.29762203 -0.53650934
v 0.14633210 -0.19478071 -0.53807151
v 0.32036269 0.18774185 0.30533427
v 0.18185057 0.05617807 0.43148184
v 0.13209924 0.19579682 -0.55125070
v -0.05665899 -0.10174470 -0.00530105
v 0.59754324 -0.17457202 -0.22919612
v 0.16536100 0.10122304 0.63133103
v -0.37322909 -0.04297874 0.45816976
v -0.24098949 0.11426600 0.46631023
v 0.17048600 0.11581051 0.53175277
v -0.36602980 0.16534616 0.72712845
v 0.40370819 -0.05271171 0.85479206
v -0.37555224 -0.23901464 -0.26617432
v -0.11041816 0.11755991 0.35137653
v 0.08802573 0.00789895 0.26054251
v -0.21312051 0.26909587 -0.34304562
v 0.03855326 -0.48577467 -0.26961920
v 0.27305192 0.27935177 0.68576056
v -0.14039046 -0.01360675 0.29303494
v -0.03442962 0.33027408 0.29488593
v 0.36436704 0.05357056 0.52436435
v 0.12447887 -0.09950114 -0.53390080
v 0.45212942 -0.04908084 -0.33669230
v -0.25554204 0.20724623 0.33922046
v 0.62056708 -0.35778093 -0.51764631
v 0.39982963 0.11396043 0.82137704
v 0.26699087 0.14333402 -0.12506092
v -0.17920582 0.15556981 -0.04798846
v -0.17527638 0.31346348 -0.23742333
v 0.29160118 0.17729950 0.19190203
v 0.26971617 0.12605797 -0.10790688
v 0.07955418 0.17175379 -0.57841206
v -0.50972080 -0.46163306 -0.41025451
v 0.47887522 -0.10477275 -0.18015440
v -0.39708322 0.04544604 0.76669288
v 0.49160612 -0.09299385 -0.38828346
v 0.66585016 -0.38080713 -0.40141612
v -0.19496404 0.20007600 -0.45449102
v -0.21613570 -0.11846377 -0.18884650
v 0.06224623 0.35895386 -0.37805393
v 0.09092945 -0.45369205 -0.26794630
v 0.54576987 -0.06525716 -0.24974415
v 0.04404397 -0.04113509 -0.60244244
v -0.40492904 0.11118890 0.75972044
v 0.24073783 0.27642205 -0.25544614
v 0.24261513 0.05500219 0.78253907
v 0.62087947 -0.24445699 -0.49773037
v -0.06045887 -0.09073951 0.01967463
v 0.48657823 -0.21589655 -0.33946836
v -0.15610805 -0.06713405 -0.49080038
v 0.45885599 -0.10073318 -0.36696413
v 0.25451595 -0.08199782 -0.18075457
v -0.12180782 0.00543145 0.28114411
v 0.12753971 0.35129279 -0.23467842
v 0.35091844 0.12005504 -0.21871538
v -0.39389208 0.01279175 0.38756052
v -0.21846992 0.24442366 -0.18273108
v -0.43433937 -0.04678789 -0.33260193
v -0.35726115 0.18835191 0.69752491
v 0.12011782 0.24939260 0.19036920
v -0.36417410 -0.02126708 0.30450994
v 0.05461553 -0.24355105 -0.53610879
v 0.53263909 -0.27703717 -0.54895884
v 0.17327380 0.27960354 -0.09165128
v -0.05459585 -0.30056658 -0.58330667
v 0.05275072 -0.39669013 -0.24460900
v -0.06483690 0.17969859 0.27083772
v -0.23551001 0.19234237 0.37014154
v 0.21288088 0.23260911 0.27265787
v -0.11860435 0.28227311 -0.09249608
v 0.24026053 0.22792736 0.22689089
v -0.03631566 -0.02378293 0.21279640
v 0.37219155 0.07975435 0.53517747
v 0.52962428 -0.15968375 -0.19231947
v -0.48377228 0.09009245 0.81955642
v -0.47669223 0.10015661 0.84051514
v -0.31779492 0.21082209 0.59171426
v 0.00163399 0.44544360 0.38483724
v 0.15953228 -0.30329043 -0.62374848
v 0.03025069 0.46470582 0.36684424
v 0.16979238 -0.24050911 -0.50115788
v -0.18823197 0.30419055 -0.31727457
v 0.36526200 0.03773636 0.85904944
v -0.18624651 0.10081728 0.02392398
v 0.15186913 -0.14047830 -0.07309271
v -0.31930903 0.04772469 0.71240741
v 0.62118852 -0.35687464 -0.51758403
v 0.30359438 0.21948504 0.76893294
v 0.09232011 -0.09968326 -0.02844637
v 0.56318891 -0.32172114 -0.45379508
v 0.36553231 -0.04350840 -0.33309811
v 0.19296545 -0.08784324 -0.06576963
v -0.35788742 0.17351194 0.72661626
v -0.46816918 -0.33548018 -0.24814142
v 0.30601326 0.12435781 0.72193199
v 0.29714414 0.26401612 0.68728125
v 0.26103055 0.14825463 0.85906601
v 0.08603114 -0.06757285 0.06925485
v -0.39945343 0.00600307 0.49256644
v 0.19196089 0.05229383 0.02057850
v -0.32194349 0.02309174 0.64281756
v -0.38915417 0.06402755 0.40260136
v -0.12306398 0.34503648 -0.32997403
v -0.51618552 -0.17300837 -0.39324293
v 0.49322540 0.00264599 -0.23380728
v -0.26539391 -0.07800373 -0.34807757
v 0.35212636 0.17831892 0.66910583
v -0.03638500 0.31887388 -0.04940351
v -0.39171067 0.07254355 0.85830277
v 0.00199945 0.03551855 0.26197836
v 0.18451835 0.03462169 0.05331324
v 0.10838460 -0.27252918 -0.57821578
v 0.18686911 0.22090387 0.03281350
v 0.27595085 -0.03445885 0.24733794
v -0.16540326 0.19192940 0.35158122
v -0.20871405 -0.04313442 0.28395787
v -0.27908713 0.05902988 0.81603396
v -0.18564415 -0.17164145 -0.32889038
v 0.29291061 0.16338433 -0.31175661
v -0.01569315 -0.43745598 -0.25186080
v -0.21190587 0.03465784 -0.44716826
v 0.56573987 -0.25690559 -0.25162968
v -0.21080191 0.15517689 0.67658603
v 0.13145180 -0.20399009 -0.36233073
v -0.18022059 -0.15475388 -0.16605909
v 0.20145565 0.04020126 -0.02330700
v -0.23086087 0.20995232 0.33962303
v -0.06312503 -0.33408058 -0.37064144
v -0.34468186 0.12628105 0.21182166
v -0.34723592 0.01818685 -0.16784115
v 0.23349884 0.04753159 0.86575854
v -0.01624621 -0.43691584 -0.32756960
v 0.22693856 -0.12859473 -0.20072941
v -0.01780893 0.56417269 0.42404643
v 0.00003502 -0.09235075 0.06562383
v -0.20449096 0.02890401 -0.44647655
v 0.46149591 -0.18349433 -0.33629808
v 0.42795840 0.04005227 -0.18051666
v 0.08010102 0.29796740 0.01745683
v -0.16995147 0.28041068 -0.41110581
v -0.42663404 -0.19664152 -0.20616426
v -0.26867393 0.22234721 0.22846040
v 0.17109908 -0.02912402 -0.01677145
v 0.55863351 -0.31593928 -0.45390707
v 0.26526967 0.07076519 -0.43204886
v -0.35660240 -0.02829128 -0.36052549
v 0.20679227 0.12883095 0.86417562
v -0.25353587 0.17045885 0.50398701
v -0.14607637 0.10745884 -0.54724920
v 0.18635002 0.32916597 -0.30658397
v 0.35228431 0.07784407 0.61000621
v -0.39712381 0.10764160 0.60655135
v 0.04540853 0.31169713 0.32665005
v 0.19170152 0.01217493 0.09355180
v 0.06772397 0.28222069 -0.52282119
v 0.28462982 0.02729872 0.60798228
v 0.37299675 -0.01963871 -0.14043985
v -0.19853655 0.16992965 0.08677950
v -0.22411019 0.26963255 -0.29806343
v 0.07102571 -0.38193282 -0.35380685
v -0.17163119 -0.02175877 0.33241573
v 0.24719442 -0.08420879 -0.16814400
v 0.26673424 0.25768897 0.77671796
v 0.05040789 0.22073494 0.26374233
v -0.03941266 0.25782683 0.22293927
v -0.06082018 0.27290255 -0.52147967
v 0.27302006 0.11439990 0.74719316
v 0.06128072 0.16115180 -0.59120685
v -0.42790374 -0.28412449 -0.28274873
v -0.05583519 -0.16586140 -0.54453695
v 0.20533256 0.30009097 -0.36885801
v -0.12125437 -0.13515607 -0.06112605
v -0.20446303 0.27986303 -0.25790781
v 0.09456262 0.18487395 0.27959165
v -0.20201448 0.19610108 -0.45277867
v -0.50759375 -0.28505522 -0.21240395
v 0.35558930 0.19804347 0.54462570
v 0.55390424 -0.39913604 -0.54902846
v 0.49366876 -0.12713388 -0.18822479
v -0.35148671 0.01649310 0.62502182
v 0.35976982 0.11041560 0.57096803
v 0.30664492 -0.02281813 0.82618040
v -0.20550877 -0.03960518 -0.45255300
v 0.57392973 -0.34771398 -0.44720626
v -0.39344916 0.09782821 0.60795659
v 0.15904206 -0.19974090 -0.44066429
v 0.25930360 0.23741047 -0.24175766
v 0.07772201 -0.04111558 0.15642932
v 0.20356028 0.25989869 -0.12888472
v 0.43630445 -0.20062675 -0.24723278
v -0.06255186 -0.04885675 0.09869514
v -0.51626551 -0.56208891 -0.43215257
v -0.20135888 0.13997060 0.07097781
v -0.47667322 -0.05713657 -0.27974781
v 0.61263716 -0.10208827 -0.25059962
v -0.18301591 0.08722635 -0.49442354
v -0.04065082 0.20958331 -0.56785333
v -0.24789819 0.08954000 -0.12193581
v 0.16576171 -0.02124455 -0.52610731
v 0.34211844 0.12463975 0.20440601
v 0.27768362 0.21843320 0.24525279
v 0.18235561 -0.31256908 -0.61120605
v -0.14452167 0.26522836 -0.09689767
v 0.33708921 0.00102550 -0.34942102
v -0.16872860 0.14759953 0.38795680
v -0.34564635 -0.03874635 0.45612100
v 0.05000914 0.30895892 0.24845053
v -0.02131014 0.19386397 -0.58008134
v 0.66926652 -0.37611833 -0.43630600
v -0.36057046 -0.13903198 -0.18096063
v 0.07449839 0.19943234 0.25696081
v -0.47997949 -0.34867081 -0.42429322
v -0.21007980 -0.13144565 -0.20817636
v -0.14485200 -0.18427229 -0.39526689
v 0.48515895 -0.19817840 -0.20008717
v 0.16226433 -0.24171062 -0.49020067
v -0.34266409 0.13736136 0.45357403
v 0.25822008 0.23947445 -0.22231771
v 0.22222051 0.14621960 0.08228838
v 0.20434113 -0.01551319 0.18444960
v -0.03749416 0.47565413 0.35985696
v 0.11873003 0.30759537 -0.09588297
v -0.46720421 -0.07075293 -0.30025378
v 0.10532390 -0.17352788 -0.11877055
v -0.10199172 0.27279982 0.08210532
v 0.17096907 0.22150999 0.77950287
v 0.01796145 -0.10503203 -0.59975141
v 0.19152954 0.21658294 0.30435857
v 0.31406593 0.07887600 0.17176934
v -0.35827503 0.01690204 -0.34554726
v -0.33747604 0.20446227 0.53106230
v -0.02196313 -0.35049954 -0.25207907
v 0.62927538 -0.13481486 -0.41587007
v 0.00921037 0.25325832 -0.55296975
v -0.11030086 -0.17798151 -0.47583646
v -0.38716540 0.11397030 0.73553610
v -0.36569926 -0.02061165 0.79229319
v 0.32669213 -0.01013018 -0.14302272
v -0.33166695 0.16281709 0.20697409
v 0.17987747 -0.31888440 -0.62677479
v 0.36049280 0.05064099 0.56391716
v -0.08236918 -0.31173497 -0.62463003
v -0.09414914 0.35564393 -0.26888606
v -0.30837256 0.13364369 0.16432156
v 0.39486659 -0.12272570 -0.23788674
v -0.25115481 0.18771857 0.55234480
v 0.06300281 -0.48707145 -0.26912504
v 0.55466944 -0.05772260 -0.27380693
v 0.20547906 0.26976722 0.72236019
v 0.31534666 0.24323764 0.57471317
v -0.03309509 0.31620854 -0.02170678
v 0.22189106 0.22507134 0.86013085
v -0.03291311 -0.17061244 -0.56058204
v -0.09672242 -0.01468657 -0.56502080
v -0.25798455 0.21939129 -0.27188811
v 0.44479313 0.01797991 -0.17830467
v -0.17047216 -0.16017099 -0.15973826
v 0.47943398 -0.02097769 -0.32300758
v 0.04924590 0.07127101 0.27516097
v 0.09703363 0.32194185 -0.11172867
v 0.23341547 0.27453369 0.73395908
v 0.21331611 0.20726921 0.15155542
v -0.15863276 -0.02940881 -0.48997104
v 0.07140329 0.00916822 -0.59339845
v 0.06677930 -0.10360821 0.02430497
v -0.21128143 0.15913728 0.63818240
v 0.02472795 0.03097617 0.25642523
v -0.24848571 0.02339453 0.16409968
v 0.40061292 0.11717752 0.83137393
v -0.04126900 0.50512624 0.36879501
v -0.09640318 0.33925021 -0.16084597
v -0.13365762 -0.09206568 -0.51709086
v 0.53521752 -0.08594732 -0.22216555
v -0.24828051 0.14520726 0.42531827
v 0.20320454 0.22650594 0.23492908
v -0.39651346 0.12096835 0.49544978
v 0.11432032 -0.27727693 -0.58621055
v 0.54377007 -0.13375251 -0.20060958
v 0.66181719 -0.37030679 -0.44725069
v -0.49910316 -0.06388445 0.83475435
v 0.15690611 -0.15488046 -0.10330816
v 0.01619585 0.01551445 0.26156816
v 0.10684545 -0.00868472 0.24703699
v -0.18371312 0.23579869 -0.44450620
v -0.28647429 -0.02276795 0.22987372
v -0.09557123 0.14751418 0.32384023
v 0.12915859 0.30524418 -0.45458925
v 0.16338916 -0.02544575 0.19714780
v 0.21565315 -0.01886289 0.19699299
v -0.49574718 -0.26248497 -0.20617689
v -0.11663721 0.00916462 -0.53942353
v -0.54926181 -0.53037453 -0.46366748
v 0.22118796 0.16593610 0.85984033
v -0.10256427 0.16737120 -0.56372827
v 0.31968075 -0.07504028 0.84309655
v 0.46511993 0.03682937 -0.22938444
v -0.08141308 0.36066720 -0.22489239
v 0.04788842 -0.06403369 0.15659904
v -0.01314303 -0.04130282 0.22102489
v 0.43363589 -0.08174171 -0.32803729
v -0.60379291 -0.41698092 -0.41131255
v 0.18487233 0.20025733 0.55247796
v 0.16449644 0.20096785 0.64862663
v -0.17220463 0.19646415 -0.07102926
v 0.29877689 -0.05452963 0.35708597
v -0.01280463 -0.06163226 0.19468421
v -0.18544406 0.24482755 -0.41878477
v 0.30441803 0.10949026 0.15837444
v -0.49842218 -0.11741642 -0.29565567
v -0.18083972 0.19516097 -0.48346892
v -0.37407854 0.17135319 0.82497448
v 0.31449065 -0.06733640 0.85901296
v 0.25686911 0.24751654 0.56982154
v 0.36302838 0.05757649 0.44773638
v 0.11660875 -0.09103287 -0.56573075
v 0.32470685 -0.03983893 0.48166370
v -0.35653284 -0.00768451 0.26993662
v -0.03181719 -0.45365432 -0.31562623
v -0.15916313 0.31867144 -0.19137022
v 0.35622019 -0.10591033 -0.25068593
v 0.65448630 -0.24753661 -0.34439918
v 0.34870461 0.01537101 0.25819966
v 0.27417189 0.24832241 0.85187280
v 0.02179941 0.36236179 0.27714136
v 0.07433093 -0.48189899 -0.26909602
v 0.21173044 -0.13902807 -0.21890844
v 0.19342116 0.30768168 -0.19642808
v 0.60897720 -0.34045798 -0.36819765
v -0.07097890 -0.16242076 -0.24472065
v 0.10295027 -0.09308594 0.00197566
v -0.22741215 0.19420253 -0.11527380
v -0.55516487 -0.55250424 -0.31277838
v 0.32977596 0.02062164 0.56800300
v -0.56112808 -0.55528802 -0.32191566
v 0.34583396 0.00650745 0.86779541
v 0.37083983 0.11340281 0.30707473
v 0.27739793 -0.00844555 -0.39110124
v -0.40040961 0.02350669 -0.28153989
v 0.46027771 -0.18717717 -0.30114895
v 0.01419639 0.19207406 0.25955230
v -0.09837353 -0.32314640 -0.63606858
v -0.03997464 -0.11669337 -0.57360399
v 0.05372669 0.36590523 0.33594909
v -0.50237328 -0.55205548 -0.44895631
v -0.52883643 -0.48445752 -0.35694337
v -0.40282378 -0.08575864 -0.17919429
v -0.37435243 0.10956581 0.30388626
v 0.45845139 -0.18615386 -0.20557719
v -0.42598891 -0.14760305 -0.37511539
v 0.24114928 0.00836437 0.81962550
v -0.37545863 0.17985272 0.62518656
v -0.29438990 0.01933333 -0.16184208
v -0.09400553 0.16792203 -0.56821054
v 0.21328239 0.28999603 -0.35110006
v -0.06829190 0.33930415 -0.40719512
v -0.15423203 0.01290103 0.00069284
v -0.33053064 0.12309226 0.18653716
v 0.09835008 -0.00067886 0.25585505
v -0.02905449 0.29317975 0.25123113
v -0.28054494 -0.01791848 0.53430164
v 0.21284586 0.16781448 -0.02656379
v 0.26531291 0.01804142 -0.41811424
v 0.18419330 -0.17041320 -0.40516222
v 0.00530769 0.29977158 -0.51187146
v -0.17946118 -0.29134312 -0.65950775
v 0.20112579 -0.13282710 -0.29362255
v -0.46903446 -0.13574453 -0.37474129
v 0.10959308 0.23946282 0.22574963
v -0.17033643 -0.02323786 0.21832773
v -0.08553332 0.28690210 0.00110497
v -0.11482058 0.27106303 -0.07101053
v -0.07063861 0.18407771 -0.57241344
v -0.49933383 -0.05793946 0.86447024
v -0.17606112 0.02758118 -0.48500204
v 0.05807309 -0.29576990 -0.24775192
v 0.05766216 -0.10460245 0.02707281
v -0.07929288 -0.29082042 -0.51702082
v -0.35240728 0.00084197 0.26260871
v -0.24955864 -0.09479459 -0.34609824
v 0.17670061 -0.03010989 0.30758944
v -0.34263039 -0.01619772 0.26489502
v 0.24130771 0.12015350 -0.47536239
v 0.25088450 0.27524304 0.80367023
v -0.40683731 0.04483294 0.55970144
v -0.21885441 0.19015625 0.86385334
v 0.23873527 0.17351128 0.43679008
v -0.22980493 0.12267428 0.75151652
v -0.15659924 -0.18155825 -0.35247654
v -0.27889904 -0.09592332 -0.33980063
v 0.12642027 -0.23782969 -0.35168266
v 0.07744057 0.30988759 -0.00187270
v -0.37013796 0.14153764 0.86176568
v 0.15324481 0.33328310 -0.20627418
v -0.09039737 -0.31706625 -0.63215131
v 0.37222743 0.02228346 0.86274654
v -0.50949192 -0.45565593 -0.42159981
v -0.33108562 0.02104841 0.64224440
v -0.09845325 0.35311937 -0.26860467
v 0.13648009 0.19874521 -0.54126561
v -0.04193778 -0.10772184 -0.02453099
v 0.51944536 -0.07369259 -0.21399288
v 0.44905719 0.01644655 -0.17783937
v -0.19675089 -0.16143543 -0.34560585
v 0.03855043 0.33811730 0.26528338
v -0.26240978 0.18627472 -0.21946256
v -0.32496825 0.20803584 0.56156981
v 0.10318544 -0.04605237 0.04947907
v -0.16152784 -0.04774650 -0.49246290
v -0.33028322 -0.02475137 0.80577511
v 0.48128223 -0.20444392 -0.44102061
v 0.41386217 0.04437442 -0.17647433
v 0.43300870 0.06126904 -0.23679450
v 0.64203799 -0.26881951 -0.32968235
v 0.26837656 0.00588167 0.55855358
v -0.26797232 0.15202840 0.41821241
v -0.39297959 0.05513137 0.63189912
v 0.05724642 -0.13003162 -0.06260048
v 0.19048955 -0.25983167 -0.58894020
v -0.36281937 0.16308816 0.86478996
v -0.08149263 0.36081502 -0.32566643
v 0.31470007 -0.06637000 0.83349127
v -0.09506289 -0.34148216 -0.57885957
v -0.33258969 0.19370858 0.50912118
v -0.52112365 -0.55924237 -0.46908274
v 0.32947522 -0.07828817 -0.16379376
v -0.39862058 0.01411992 -0.30374834
v -0.14690453 -0.15295690 -0.30965045
v -0.26044059 0.19212025 0.55106515
v 0.56180322 -0.36846644 -0.52723962
v -0.47402650 -0.07439390 -0.24940921
v -0.01973087 -0.18319727 -0.25025743
v -0.35693243 0.13365102 0.45617729
v -0.04392385 0.29932636 0.03016706
v 0.59375137 -0.34938383 -0.56383717
v -0.22632153 0.22700456 -0.18367238
v 0.54715520 -0.28964633 -0.27959129
v -0.42699078 -0.30756992 -0.37806761
v 0.17225002 -0.02746817 -0.50662363
v 0.66345447 -0.33823317 -0.45132592
v 0.24309823 0.21093324 0.34405529
v 0.28804862 -0.02758072 0.47333944
v -0.25695777 0.20115094 0.73033124
v 0.37350893 -0.00795601 0.48650101
v -0.19983448 0.09828167 -0.06858374
v -0.30601299 0.19852938 0.26988342
v -0.16841848 0.18503830 0.36463562
v 0.27754307 -0.04994103 0.38396317
v 0.25094178 -0.01404128 0.47361934
v -0.39190683 0.02416708 0.58119315
v -0.06781433 -0.32917836 -0.37900722
v 0.14247951 -0.01493099 0.07776284
v -0.36185753 0.04073882 0.24397029
v -0.38689256 -0.01179004 0.80127388
v -0.26531765 0.20468451 0.66905940
v -0.61455917 -0.45916346 -0.36343050
v 0.08897591 0.31589538 -0.46947867
v 0.63016814 -0.44239771 -0.47237042
v 0.23972650 0.06908803 -0.08142094
v -0.42911300 0.03708740 0.86342072
v -0.31865475 0.19820718 0.86401892
v 0.30210164 0.11468652 0.76311380
v -0.40126562 0.07604656 0.57345110
v -0.16057195 0.28845802 -0.13509810
v -0.21078196 0.21997365 0.16957241
v -0.09476258 -0.25295088 -0.34573719
v 0.06072174 -0.29508257 -0.25031015
v 0.34536269 -0.02221447 0.32589218
v -0.10574570 -0.26617324 -0.42730814
v 0.08659349 0.30784121 -0.00789736
v 0.29995587 -0.01456847 -0.36103961
v 0.24241157 -0.10540216 -0.21112521
v 0.39851651 0.06891524 -0.17464945
v 0.08412151 -0.20844212 -0.28367281
v 0.17823158 0.33311671 -0.31958911
v 0.49057037 -0.17488977 -0.18963982
v 0.33631951 0.02910098 -0.35195208
v -0.15467119 0.33333883 -0.30594429
v 0.29055512 0.07377195 -0.39539126
v -0.43520501 -0.29550374 -0.28321713
v 0.18438719 0.22904882 -0.07179004
v -0.39323607 0.11354110 0.75175071
v -0.34144148 -0.17564222 -0.28718695
v -0.51862180 -0.26040536 -0.44088826
v -0.27151957 0.19169290 0.86353707
v 0.46391514 -0.04081317 -0.16786264
v -0.22297558 0.17837776 0.86554921
v -0.32646787 -0.06417080 -0.15607917
v 0.13488631 -0.15892978 -0.22320038
v 0.03107066 0.30423507 0.02274834
v -0.01964388 -0.32680202 -0.46916664
v 0.46722960 -0.19201902 -0.32922715
v -0.36988333 0.00859709 0.27489519
v 0.05508862 -0.43938076 -0.33604071
v 0.61009872 -0.44763854 -0.51219374
v 0.36453295 0.17829643 0.60485703
v -0.10130668 0.07990110 0.31875950
v 0.52430165 -0.24992156 -0.23351635
v 0.11469854 0.22776738 0.24919818
v -0.20736964 -0.10438699 -0.39016455
v 0.09821288 0.03259287 -0.59010333
v 0.00369882 -0.41559392 -0.34904322
v 0.01341392 0.28224936 0.32660288
v -0.49694854 -0.47762984 -0.50396246
v 0.42959362 -0.11193535 -0.32960260
v -0.18542972 -0.28797707 -0.62003815
v -0.48913571 -0.18765290 -0.20171867
v 0.16333935 -0.02212185 0.12756535
v -0.19143537 0.07705661 0.53748190
v -0.43196073 -0.27554813 -0.23963374
v -0.39893091 -0.25035805 -0.23086682
v -0.52604020 -0.47942293 -0.36248642
v -0.01730873 -0.42072022 -0.25709662
v -0.29007518 0.04372348 0.82387054
v 0.05685181 -0.07894561 0.10516141
v -0.22686186 0.09572349 0.47922835
v -0.30912751 -0.04585343 0.39625803
v 0.41600725 0.06960009 -0.20867337
v 0.34030241 0.22006847 0.59935862
v -0.51925427 -0.29137090 -0.44606817
v 0.01156625 -0.13746150 -0.08692925
v 0.33430055 0.14179102 0.69496256
v 0.21291192 0.09139204 0.04098226
v 0.07919880 -0.35303658 -0.26952946
v -0.13540262 -0.16703354 -0.22884165
v -0.15201910 0.25979739 -0.45314747
v -0.16486384 -0.03422450 -0.48600748
v 0.04813991 -0.40556103 -0.35962626
v 0.20997144 0.30276507 -0.33781058
v 0.15848130 0.18504074 0.62285060
v 0.23671107 0.02430508 0.57082844
v -0.16772197 -0.11571839 -0.08648182
v -0.38801861 0.08165970 0.32145289
v -0.11614688 -0.24683233 -0.43061855
v -0.24090664 -0.05515686 -0.39167976
v -0.14542596 -0.16495728 -0.12927963
v 0.18141334 0.21642873 0.09917337
v 0.21868683 0.23478854 -0.45671710
v -0.13812903 0.06411532 0.35325778
v 0.57357347 -0.34765431 -0.44823715
v -0.06156716 0.36724499 -0.30470365
v -0.46333188 -0.02046213 0.80307221
v -0.20146714 0.09584667 0.50846744
v -0.16349326 -0.29527014 -0.67441267
v 0.25582293 -0.04019505 -0.13686831
v 0.30586484 -0.03552372 0.85434145
v 0.19929226 -0.01148554 0.15846986
v 0.13937840 -0.32538265 -0.54989499
v -0.01405184 0.37349543 -0.33677217
v -0.07694098 0.36214074 -0.29853037
v -0.33545014 -0.03050858 -0.15441468
v 0.06251828 -0.16577049 -0.22263314
v 0.09889279 -0.30308095 -0.47312602
v -0.32336077 0.15129216 0.38366276
v 0.13534193 -0.08711794 -0.01874982
v -0.40762252 -0.08980242 -0.17988674
v 0.13006690 0.03439679 -0.57317805
v -0.18720457 0.12694438 0.01753447
v -0.55253774 -0.15279000 -0.37561491
v -0.42601234 -0.09071256 -0.36234042
v -0.16255215 0.21548054 0.31862652
v 0.59689492 -0.41982850 -0.48227787
v -0.16475838 0.28011894 -0.41836610
v 0.29453400 -0.01280640 0.81122905
v 0.20955482 0.07797262 -0.01498248
v -0.05833089 -0.34546718 -0.39863706
v 0.10982357 0.35724646 -0.22558942
v -0.06752339 -0.31550625 -0.59715551
v -0.30040616 -0.04528978 0.28071684
v 0.11194961 -0.07021322 0.02289880
v -0.48948061 -0.26843077 -0.43800709
v 0.24760583 0.20737779 0.20147793
v 0.58750635 -0.34535712 -0.40304253
v 0.07902443 0.37074614 -0.27331257
v 0.22733136 0.22600228 0.53423017
v -0.47063726 -0.10384410 -0.32750678
v 0.24848869 0.12403855 0.86000752
v -0.11518037 0.11542362 -0.57110727
v -0.00094122 0.33371484 -0.15559353
v -0.49221247 -0.03717382 0.84783429
v -0.34748533 0.12266647 0.40273833
v 0.08209283 -0.14864945 -0.54009020
v 0.57276350 -0.09377836 -0.23614529
v -0.37911940 -0.01181428 0.34095514
v -0.47912362 0.02393966 0.84329629
v -0.43145981 -0.29641744 -0.29817480
v 0.29009274 0.06850850 -0.39488015
v -0.53069347 -0.29352561 -0.22148813
v 0.05731485 0.37227297 -0.23208854
v 0.63528061 -0.30816653 -0.50618863
v 0.20180301 0.05657144 0.51812416
v 0.17884757 0.27723143 0.79409200
v -0.21452902 0.21619587 0.82856321
v -0.21299887 -0.09222940 -0.39475542
v -0.28021154 0.11456458 -0.27415338
v 0.34922332 0.17112632 0.50729764
v 0.14418356 0.05593419 0.36029595
v 0.21674311 0.18083934 -0.49504930
v -0.28163716 0.20792899 0.72377408
v -0.29451284 0.16182972 0.39340523
v -0.52213532 -0.20731358 -0.41327542
v 0.61081994 -0.28306434 -0.29919803
v -0.03577529 0.37052506 0.32971141
v 0.16512194 -0.09626560 -0.45426795
v -0.48552108 -0.37350368 -0.33694667
v -0.19426331 -0.00462297 0.36433205
v 0.23957652 0.16038732 0.85905850
v -0.25803950 0.10672615 -0.15146913
v -0.35738364 0.02457010 -0.34117660
v 0.21374369 0.15866508 -0.02279661
v -0.34776941 0.15939543 0.47122604
v 0.19841298 -0.01561774 -0.47897062
v 0.19788487 0.22512841 0.23118399
v 0.21307379 0.19763854 0.11918741
v -0.27342513 -0.03305791 0.40895429
v -0.38497770 -0.01519700 0.47331607
v -0.16185930 0.32636079 -0.22038886
v -0.03793613 0.36708394 -0.35742521
v -0.17807686 0.28480628 -0.16204207
v -0.50337803 -0.41370019 -0.36951905
v 0.60717517 -0.05856818 -0.34325716
v 0.33911195 0.02206676 0.55353183
v -0.37244397 0.03858955 -0.31037667
v 0.36863679 0.03205904 0.82535058
v 0.38844568 0.13275267 0.85016954
v 0.54153520 -0.28451118 -0.35511774
v 0.12665692 0.33502364 -0.40026143
v -0.43175894 -0.26984826 -0.25047326
v 0.17418666 -0.14805442 -0.24149221
v 0.17588019 0.11260641 0.66647702
v -0.36785638 0.18254557 0.68858176
v -0.04205197 -0.31056577 -0.27297735
v -0.36284199 0.10408662 0.40204012
v -0.61490333 -0.44938269 -0.36902836
v -0.42519370 0.04774059 0.86063087
v -0.37445879 -0.01942885 0.49045682
v 0.04284533 0.14724933 -0.59701681
v -0.11155026 0.27329105 -0.07107928
v -0.31452242 0.14032443 0.43341860
v 0.23565166 0.07071018 -0.46242091
v 0.24141428 -0.00200336 0.48096052
v -0.49951071 -0.13722841 -0.36745456
v 0.23695119 0.25789720 -0.16929010
v -0.38181189 0.00564503 0.32910568
v -0.49883100 -0.40702057 -0.37978515
v 0.04323933 0.36664525 -0.21385419
v 0.11500615 -0.32499516 -0.33210582
v -0.14430846 0.00787899 0.06111544
v 0.32194874 0.13252434 -0.23220661
v 0.03637735 0.36846298 -0.22306916
v 0.03174791 -0.02021129 -0.60556108
v 0.56586385 -0.04206793 -0.32260260
v 0.15863633 -0.02402400 0.25843707
v -0.35643348 0.19517964 0.63603812
v 0.25099933 -0.01994098 0.20317852
v -0.14475867 0.25920069 -0.09413390
v -0.32714301 -0.06975842 -0.36205959
v -0.37991205 -0.18311931 -0.35388204
v -0.30847794 0.20052275 0.24625653
v -0.58907485 -0.29945382 -0.40676096
v -0.21310106 0.16607597 0.81476820
v 0.07719265 -0.32473698 -0.23840104
v -0.41671464 0.10081603 0.76808572
v 0.48332268 -0.21338969 -0.32221347
v 0.34750414 -0.02586605 -0.14323257
v -0.29005808 0.20991294 0.27332699
v -0.59572148 -0.18957627 -0.30141392
v 0.49541575 -0.22788651 -0.33533970
v 0.01148188 0.22763182 0.27702370
v 0.26023525 0.03646503 0.60466790
v 0.18476690 0.21197633 0.32154167
v -0.43665943 0.03628165 0.79333764
v -0.08252520 0.24999483 0.21001007
v -0.47627324 0.07109683 0.79437512
v 0.02228766 -0.28757727 -0.22849473
v -0.50615007 -0.18812755 -0.20609468
v 0.09618303 0.06478039 0.28970182
v -0.17572750 0.22951496 0.15370737
v -0.06753149 0.29902709 -0.06594475
v 0.17479759 0.24159798 0.05264207
v 0.28847969 0.10615085 0.76131290
v 0.11892058 -0.29311526 -0.48602420
v 0.27878934 0.01473339 0.58520323
v 0.00642657 0.54268295 0.38683620
v 0.48039383 0.01931872 -0.19216536
v 0.09464446 -0.04401021 0.12734880
v 0.08456629 -0.25960255 -0.51590300
v -0.11487645 -0.24173436 -0.44674462
v -0.12826879 0.21180771 0.29081413
v 0.27499756 0.00789525 0.18579650
v -0.36709729 -0.00491944 -0.34801748
v 0.15096807 -0.30536833 -0.56810087
v -0.39341223 0.02527025 0.86267251
v 0.30285287 0.00450712 0.84952402
v 0.02565531 -0.49525189 -0.31841585
v 0.00603615 0.28535199 0.18051098
v 0.06275972 0.17749538 -0.58635199
v -0.04159865 -0.10598338 -0.03729399
v -0.41483843 -0.00028362 -0.23252138
v 0.34534395 0.06595067 0.86887008
v 0.30394661 -0.03534811 -0.15124884
v 0.15270445 -0.14178780 -0.07571696
v 0.12177101 -0.03660666 0.09350333
v -0.15193264 0.13276111 0.38388440
v 0.22906351 0.21107750 0.20409869
v 0.61966103 -0.41362229 -0.48090190
v -0.17741661 0.03183400 -0.04078694
v -0.24869262 -0.09042096 -0.35550973
v 0.03356776 0.29799178 0.05574796
v -0.16872886 -0.15051781 -0.24198849
v -0.51546586 -0.20504156 -0.41481188
v 0.35434693 0.19748606 0.62650967
v 0.51122057 -0.24779768 -0.28277904
v 0.18949214 -0.02127704 0.21587665
v 0.30202532 -0.07170912 -0.17398985
v -0.54656512 -0.46080339 -0.49383780
v -0.46810156 -0.07340661 0.85047698
v -0.17968710 0.08797894 -0.49809003
v 0.18203190 -0.07938270 -0.43851477
v -0.28217974 -0.03528591 0.41372958
v 0.16734982 -0.15871657 -0.44200519
v -0.11277833 -0.13906987 -0.48191550
v -0.22179055 0.01973643 0.61098450
v 0.52897716 -0.04242186 -0.30124199
v -0.40567601 0.07696957 0.53122985
v -0.09092262 -0.13688140 -0.04732928
v -0.21284054 -0.14582361 -0.28025246
v 0.14943546 0.19444618 0.30794567
v -0.01121468 0.31511149 -0.00054653
v 0.19307216 -0.32519978 -0.63133258
v 0.36619249 0.00124043 0.51060891
v 0.12950191 0.35382143 -0.30398881
v -0.27405879 0.18647070 0.36656079
v 0.24536692 0.05413805 -0.09226026
v -0.16765583 0.15221754 0.38354006
v -0.13507338 -0.17449938 -0.35018495
v 0.17066205 -0.03716270 -0.50485343
v 0.27171302 -0.04645217 0.40674952
v -0.32179773 0.13577622 0.41842467
v -0.18232819 0.08964726 0.00416043
v -0.38155019 0.16654748 0.51389349
v -0.30100664 0.02432362 0.19081089
v -0.18223153 0.18753089 -0.08116724
v 0.36628717 0.16063224 0.60728639
v 0.53150421 -0.32981917 -0.59271443
v 0.08284312 -0.20000029 -0.54272109
v -0.27263528 0.08024299 0.85693479
v 0.10995888 0.25826567 0.15288906
v 0.21063358 0.04783513 0.51107383
v 0.20784807 0.26537576 -0.42747402
v 0.21236135 0.03654058 0.48271236
v 0.11161457 0.06391414 0.31347921
v -0.31044552 -0.03637965 -0.36252910
v 0.29173109 0.15427957 -0.23234323
v 0.26164702 -0.02202134 0.46819285
v -0.08444208 -0.16148305 -0.50702274
v -0.06613906 -0.05868332 0.04934940
v 0.07270151 -0.16816245 -0.17424358
v 0.25966784 0.18977068 0.39094770
v 0.02089840 -0.28001407 -0.50704551
v -0.11133309 -0.04132774 -0.54927295
v -0.00322174 -0.04357991 0.22358882
v 0.04326474 -0.39468807 -0.23729402
v 0.18795650 0.13660197 0.71490115
v 0.00057476 0.25755107 0.28940892
v 0.23287138 0.17932458 0.14818165
v 0.53102797 -0.27058694 -0.46191961
v -0.49940643 -0.37949750 -0.26984343
v 0.27436420 0.22260056 0.28273559
v 0.29679221 0.12513267 -0.36779913
v -0.59567064 -0.55394691 -0.30087218
v -0.21084201 0.14754999 0.69444215
v 0.57452923 -0.20811217 -0.48320782
v -0.24664769 -0.10431571 -0.19190928
v 0.22516063 -0.03230895 0.22328424
v 0.01394919 0.47513452 0.32907349
v -0.48056948 -0.12438660 -0.35844025
v 0.16007729 -0.20204057 -0.54544431
v -0.37092537 -0.00095555 -0.34519887
v 0.55474967 -0.04022771 -0.32945788
v -0.26879492 -0.01890683 -0.36300993
v -0.25642768 0.11639802 -0.14754818
v -0.25341636 -0.02351434 -0.39999887
v -0.61608833 -0.22667357 -0.31640428
v 0.15955131 -0.01693559 0.11811337
v 0.03615865 -0.22919652 -0.54658890
v 0.39318863 0.04959646 0.85195297
v -0.14951734 0.27054566 -0.42917848
v -0.05717672 -0.05313247 0.08758375
v -0.36713779 -0.07486475 0.84317768
v -0.35334760 0.14638647 0.26259884
v -0.33904690 0.00769996 0.23647678
v 0.33385083 -0.04434201 0.45694318
v 0.63520914 -0.46323052 -0.46582165
v 0.30843487 0.13050485 0.72757334
v 0.23373321 0.27472404 0.74489480
v -0.15294947 -0.07593074 -0.49380493
v 0.05573443 0.31324705 0.26603213
v -0.17624925 -0.04245286 -0.46923131
v 0.01655803 -0.14426288 -0.10137428
v 0.21492350 0.10814478 -0.03943125
v 0.05200754 -0.09414209 0.04771492
v -0.58348382 -0.17538671 -0.26408523
v -0.49094179 -0.38751301 -0.36953574
v 0.03509247 0.37566298 0.29169866
v -0.21429926 -0.07460070 -0.40345684
v -0.24312323 0.13511510 0.48041853
v -0.40652424 0.09012718 0.75992393
v -0.35653952 0.03828057 0.76609701
v -0.21461800 -0.09048246 -0.14009763
v 0.61682391 -0.20777568 -0.26320785
v 0.14816231 -0.29731986 -0.61463493
v 0.12784334 0.07045556 -0.57302111
v -0.39212134 0.03437751 -0.23311652
v -0.22614977 0.15698867 -0.44437814
v -0.57522529 -0.52638561 -0.39807439
v -0.19936201 0.23440118 0.27330557
v 0.48987201 -0.16472666 -0.18923838
v 0.05941793 0.34639719 -0.15323795
v -0.04688439 0.17693827 0.26010349
v 0.24480547 0.26932943 0.76430386
v 0.14748611 -0.02226789 0.22292249
v -0.20232642 0.15573616 -0.09111796
v -0.23717807 -0.04738238 0.33150655
v -0.48962051 -0.36736467 -0.44030824
v 0.18055034 0.09321517 0.51944101
v -0.16074650 0.32356668 -0.33131230
v -0.27907956 0.12495900 -0.31083277
v 0.18201046 -0.02172237 0.22032180
v -0.26879087 0.14403594 0.46546152
v 0.40381321 0.08743771 -0.26971519
v -0.19346985 0.21873960 0.14195001
v -0.54441315 -0.46357816 -0.49368244
v 0.20808262 0.26135147 0.65591168
v 0.12173133 0.11520725 -0.57863879
v 0.33223382 0.18242177 0.79887176
v -0.47632053 -0.17667875 -0.40722495
v 0.01120149 0.37448397 -0.23584712
v 0.61886567 -0.12451834 -0.24852890
v -0.25566080 0.05056598 -0.14197929
v 0.18474650 -0.26437724 -0.59049594
v -0.62067056 -0.42203584 -0.33202505
v 0.33375201 0.12087810 -0.20764627
v 0.09033567 0.31435275 -0.02209631
v 0.22904778 0.17291850 -0.08286569
v -0.35866749 0.05394528 0.75777590
v -0.40629765 0.00499526 0.86756766
v -0.03281527 -0.00830652 0.23935087
v -0.20459810 0.22531638 0.31402373
v -0.47555134 -0.47880420 -0.53544247
v -0.08505447 -0.18965112 -0.34273002
v -0.13224252 -0.24124083 -0.53783244
v 0.43334663 0.04020001 0.83537900
v -0.13422413 -0.25474191 -0.53315198
v 0.25820524 0.22892527 0.26775202
v 0.30681297 0.02555161 0.18764459
v -0.38627157 0.01824098 -0.20104872
v -0.19439243 0.27607059 -0.36809385
v 0.49456370 0.00744009 -0.28214389
v -0.52335376 -0.55278772 -0.46950072
v -0.25299492 0.20316982 0.76424032
v 0.12191954 0.35363561 -0.28441966
v -0.28024703 0.12161902 0.14210780
v 0.09026582 -0.22360489 -0.54097831
v -0.34559003 0.13569173 0.37587476
v 0.11532804 -0.05000509 -0.57092887
v -0.19945389 0.13265011 0.61593109
v -0.42308268 0.10606132 0.86444777
v -0.26027548 0.12748680 -0.40696248
v -0.12958989 -0.01700501 0.21362899
v -0.47546980 -0.06938959 -0.25201276
v 0.00365713 -0.47495463 -0.31656232
v 0.07964344 0.37186694 -0.25303572
v -0.24758823 0.19498108 0.60123730
v -0.12493992 0.14187835 0.36161748
v 0.03973059 -0.06728826 0.15622061
v 0.14618623 0.29889268 -0.09512544
v 0.25997964 0.28110662 0.68433964
v 0.22436930 -0.14105272 -0.35901418
v -0.07781496 0.36078316 -0.28033948
v 0.15092891 0.14566259 0.59841245
v -0.03540558 -0.17048448 -0.10447617
v 0.09137785 -0.15259041 -0.21316825
v 0.15028620 0.24369869 0.18917888
v -0.55508351 -0.41160384 -0.49524480
v 0.41842133 -0.16308068 -0.31118220
v -0.01858188 0.07099432 -0.61222619
v 0.52644145 -0.35745692 -0.60400450
v 0.40745670 -0.04643366 0.86362815
v -0.09801053 0.35164857 -0.32553494
v 0.17703426 -0.00264506 0.10350782
v -0.26098979 0.07578591 0.79245484
v -0.41342747 0.01068381 0.78139442
v 0.20885117 0.27793375 -0.16139916
v -0.34396368 -0.02626438 0.28181359
v 0.49425218 -0.00608782 -0.28608462
v -0.27314398 0.19742270 0.55705202
v -0.40348125 0.11273855 0.54969990
v 0.20128985 0.12191549 0.82310289
v 0.55657709 -0.05002661 -0.29083282
v 0.53485060 -0.31339940 -0.55356914
v -0.37546629 -0.01640849 0.35692048
v 0.20903009 0.29150030 -0.36640257
v -0.59142995 -0.17857797 -0.28640482
v 0.10094047 -0.44390708 -0.28924623
v -0.35654721 0.04011571 0.76479894
v 0.23388673 0.15804186 -0.08530898
v -0.48672616 -0.30824038 -0.22080192
v 0.27859792 0.22478271 -0.28104284
v -0.20653263 0.14905576 0.58692628
v -0.40259764 -0.18025704 -0.20712492
v 0.54067063 -0.28052798 -0.44374907
v 0.40890446 0.09529011 0.85754085
v 0.22536872 0.02698653 -0.45836166
v 0.47230157 -0.15118980 -0.19486934
v -0.22280030 0.21381299 0.80059803
v 0.14993072 -0.18868600 -0.46578035
v 0.49538174 -0.25314656 -0.24483676
v 0.32834026 0.16007690 0.20805782
v 0.66787553 -0.39433733 -0.42387792
v -0.37933964 0.01820991 0.77665937
v 0.58078253 -0.33627117 -0.41315946
v 0.16294323 0.13791485 0.66208309
v -0.21709375 0.21483815 0.15942229
v 0.35254854 0.04388059 -0.14320537
v 0.36733067 0.11352640 0.38153657
v -0.07359948 -0.31243068 -0.41597107
v 0.38021511 0.00158579 -0.34138983
v 0.25552636 0.28494841 0.69653237
v -0.53032440 -0.36535567 -0.25419563
v -0.33985838 0.14497365 0.45802173
v -0.42819715 -0.28391755 -0.28189555
v -0.49116221 -0.31668240 -0.44413778
v -0.40159655 -0.05755325 -0.17944057
v -0.36439097 0.01376630 0.61033309
v 0.22324485 0.10233332 0.77681428
v -0.04516612 -0.31602681 -0.27337769
v 0.28600430 0.03112557 -0.13654885
v -0.00252454 0.37801537 0.37479389
v 0.27552971 0.03151810 0.15507215
v -0.32982278 0.08064364 -0.23944320
v 0.33149210 0.13504051 0.86289650
v 0.14958833 0.34592560 -0.26364869
v -0.33761939 0.12852439 0.41697407
v 0.12060323 -0.15620852 -0.51144427
v 0.35690600 0.11410253 0.86652625
v -0.18451059 0.26552993 -0.41013932
v -0.61296779 -0.42623979 -0.30512753
v -0.20599407 0.09806754 0.43507990
v -0.15456806 -0.26933178 -0.65553188
v -0.25241715 0.16272242 0.13670622
v 0.34171915 -0.10029788 -0.20959175
v -0.28911611 0.05790885 0.86422396
v -0.30599174 0.08420291 0.86431611
v -0.02243237 -0.17294879 -0.13293895
v -0.37457183 -0.03846266 -0.16757837
v 0.21794762 0.27587599 -0.17462134
v -0.34664392 0.19832169 0.83538085
v 0.27692336 0.18939123 -0.24611805
v -0.51992059 -0.45067436 -0.36542675
v -0.55108118 -0.15173060 -0.28300455
v 0.22692205 -0.01621122 0.19316988
v -0.06136077 0.36404720 -0.29495007
v -0.26070854 0.00248887 0.60969007
v 0.20810799 -0.32377961 -0.63816386
v -0.06239182 0.27736178 -0.51602763
v -0.18048385 0.29226747 -0.36602432
v 0.08843229 -0.36577442 -0.37988156
v 0.04398965 -0.15373480 -0.17573789
v -0.05101371 -0.29290614 -0.50078565
v -0.17278902 -0.14985590 -0.24377853
v 0.67465854 -0.36179733 -0.40659150
v 0.49296132 -0.10544890 -0.40382740
v -0.22906017 0.14817986 0.76859641
v 0.24127212 0.24786562 0.86391813
v 0.06824347 -0.40415460 -0.33501819
v 0.15800552 0.26324049 0.04758118
v -0.31035048 -0.09182999 -0.16329518
v -0.12736310 -0.22328810 -0.37716341
v 0.17804228 0.07741142 0.53288126
v -0.28459138 -0.09887981 -0.17338540
v -0.51591259 -0.33537659 -0.23464756
v -0.10387437 -0.18321863 -0.18090816
v -0.05825885 -0.31006104 -0.55118811
v 0.16170438 0.02330873 0.36655077
v 0.32004568 0.24177410 0.57780999
v -0.05362460 -0.01233330 0.21935873
v 0.33477044 0.22663780 0.55940706
v 0.10628119 0.30166245 -0.09301580
v -0.33452880 0.04360994 -0.33242151
v -0.12018202 0.23190062 0.24514960
v 0.25660986 0.27157328 0.82338500
v -0.19276896 0.02760447 -0.45235431
v 0.03778771 -0.02039702 0.23164122
v 0.07686827 -0.32954797 -0.23835650
v 0.05186821 -0.15046300 -0.55193871
v -0.30895165 0.02680630 0.79523581
v -0.24943124 -0.02738818 -0.41137147
v 0.12129290 0.28255314 -0.06114033
v -0.07342872 0.26032460 -0.52414769
v 0.02224168 0.47416794 0.37363824
v -0.01434651 0.26984227 0.28645787
v -0.21693704 0.26809481 -0.33488944
v 0.21511717 0.28872889 -0.21187195
v -0.35708073 0.12642413 0.25013366
v -0.48049620 -0.37285817 -0.36005378
v 0.35528252 -0.07375716 -0.31834960
v 0.52187490 -0.25971451 -0.31130448
v -0.12329444 -0.10026740 -0.50004268
v -0.02306918 0.27336532 0.27944958

