# https://github.com/mikedh/trimesh
v 0.38431004 -0.15881881 -0.16094331
v 0.36670911 0.19831194 -0.02782274
v -0.66416085 -0.17104337 -0.19847362
v 0.55037695 -0.28572649 -0.25790673
v 0.35746950 0.08150483 0.03996844
v -0.58467484 -0.24348828 -0.24258290
v 0.26673549 0.26309818 -0.14652643
v 0.30410013 -0.01993027 0.66054511
v -0.37107450 -0.18869245 -0.12577194
v -0.05098546 0.34055397 -0.14628050
v 0.24553958 0.28582385 -0.20785609
v 0.34130305 0.09259540 -0.21251252
v 0.20116349 0.20782641 0.30875152
v -0.15942711 0.04712315 0.55785042
v -0.23383820 0.14262077 0.66507411
v 0.51291692 -0.27610931 -0.24301696
v -0.36038381 -0.08303291 0.49795347
v 0.08214013 0.27733627 0.32959130
v 0.23466025 -0.17161676 -0.34046468
v -0.55931610 -0.29368553 -0.18889363
v 0.47579834 -0.11249775 -0.19477904
v -0.15278900 -0.22562331 -0.44128466
v 0.39740074 -0.36726201 -0.26253450
v -0.52011764 -0.13827141 -0.13582598
v -0.01176809 -0.34858385 -0.42073259
v -0.05673353 0.34650376 -0.16631947
v -0.15119594 -0.32790869 -0.05879629
v 0.20632206 -0.00057372 0.52499086
v 0.08175056 0.30007100 0.23853762
v 0.13803050 0.01401192 0.41801584
v 0.07145073 -0.20945740 -0.41650230
v -0.61223513 -0.22562194 -0.21101876
v -0.07743018 0.00983219 -0.57046694
v 0.23438837 -0.16063190 0.08683032
v 0.36844066 -0.23364788 -0.17774013
v 0.07033762 0.30844501 -0.38621959
v 0.16088340 -0.29220682 -0.40017122
v 0.27742347 -0.08425604 -0.34987175
v -0.33017936 -0.13207892 0.34267700
v 0.44554275 -0.00802973 0.17365655
v -0.56262684 -0.29633433 -0.16349819
v -0.08651129 -0.25765485 -0.48964289
v -0.01851507 -0.19292150 -0.41685581
v -0.17651613 -0.01581782 0.61301678
v -0.29566488 -0.22221884 0.48492730
v 0.54362148 -0.19556914 -0.21413921
v 0.54719871 -0.12202184 -0.09295051
v -0.20257732 -0.11253059 0.50947326
v -0.19304562 -0.01771162 -0.31492782
v 0.28868413 0.16786931 0.65034300
v 0.24047016 -0.05882572 0.67257071
v -0.35003656 -0.03308187 -0.03774367
v -0.11597492 0.16468100 0.33755749
v -0.11944713 -0.22162133 -0.48967642
v 0.08683362 0.41992766 0.28796715
v 0.47624511 -0.14461574 -0.06971306
v 0.25167051 -0.14353430 -0.33512467
v 0.49057198 0.08614531 0.18984456
v 0.53927803 -0.26289362 -0.22900213
v 0.20656085 0.28557828 -0.13874839
v 0.39325461 -0.12359321 -0.12854053
v 0.15355706 -0.28264719 -0.41043544
v 0.21185920 0.30617490 -0.02197174
v 0.26206392 0.28381091 -0.15519682
v 0.19565746 -0.19806767 -0.37727085
v -0.35310623 -0.19492272 0.23399664
v -0.41907835 -0.06507646 -0.21585208
v 0.10417677 -0.13975522 -0.46977729
v -0.19338191 0.26861706 0.04543636
v 0.30185354 0.16135019 0.47176516
v -0.65520221 -0.22317120 -0.18138532
v -0.00725624 -0.23743355 -0.43499506
v 0.23357946 0.28259078 -0.28316805
v 0.46650279 -0.32434878 -0.27492923
v -0.05994827 0.05375440 -0.57866472
v 0.34931093 0.05491968 -0.32730034
v -0.03205419 -0.32907495 -0.43336645
v 0.26220828 -0.07196646 0.12398939
v -0.38234341 -0.06737683 -0.23080479
v -0.60124147 -0.21877442 -0.22991031
v -0.27774203 -0.17927885 -0.37466604
v 0.56001639 -0.25585121 -0.22715956
v 0.09964821 -0.37043822 -0.33501342
v -0.39957425 0.04499746 -0.16537078
v 0.45842183 -0.31181866 -0.29564452
v -0.40511891 0.05637632 0.25701052
v 0.29893416 -0.03855686 0.24543875
v 0.29175308 0.15145376 0.47208285
v 0.34348059 0.21581976 -0.12298981
v -0.37204319 0.16224404 -0.03168325
v -0.01969554 0.23910475 0.35983396
v 0.07591554 -0.27254322 -0.21937366
v 0.34765497 0.23570766 -0.07005258
v -0.22655849 -0.31408775 -0.40825224
v -0.33941898 -0.03034673 -0.34973070
v 0.23146471 -0.20808923 -0.13563702
v -0.33313644 0.16539721 -0.30362451
v 0.05245899 0.30193612 0.35574001
v -0.41793430 -0.13067661 0.55899233
v -0.10896552 -0.29654002 -0.39387146
v -0.37585342 0.18366209 0.23463307
v -0.06072550 -0.32572779 -0.21501343
v 0.09596273 -0.33958381 -0.40651834
v -0.30901104 0.05364525 0.20007905
v -0.42781949 0.09971653 0.19352077
v 0.38588426 -0.18358988 -0.21412471
v 0.22452547 -0.11584320 -0.09956825
v 0.31576124 -0.16111720 -0.27437219
v 0.41023198 0.01140662 0.60481244
v -0.24009567 -0.18662766 -0.41191837
v -0.08135181 -0.10423248 -0.36690116
v -0.08751072 -0.18845147 -0.51360250
v -0.16600567 0.33126193 -0.17449616
v -0.23941648 -0.18317574 0.30380535
v -0.21460024 -0.10168421 0.62788194
v 0.34170827 -0.15700310 -0.12446692
v 0.23927210 -0.07365970 0.18793908
v 0.00376281 0.34269860 -0.34929785
v 0.25113472 -0.06988638 0.66102487
v 0.44149342 -0.23478600 -0.24319960
v 0.49624449 -0.33157721 -0.20691808
v 0.38376820 -0.09403802 0.36575603
v 0.33294433 -0.23191759 -0.12900829
v 0.43401521 0.03229016 -0.13148725
v -0.23754808 -0.14783326 0.57263339
v -0.06300581 -0.22229424 -0.42605653
v -0.07417785 0.28649196 -0.39316478
v -0.19006757 -0.10372308 0.43104434
v -0.19422169 0.28760293 -0.11593162
v -0.32265204 0.03653735 0.58856207
v -0.23977274 -0.12639955 -0.42036533
v -0.21530968 -0.08526060 0.64469492
v 0.52860677 0.11782002 0.15726088
v 0.34381545 -0.16983554 -0.21176648
v 0.33762649 0.07330707 0.63927311
v 0.45767236 -0.30563900 -0.31505796
v -0.04365702 0.26725319 -0.43064648
v -0.16339275 -0.31662858 -0.46759939
v -0.25273663 0.24356323 0.19460391
v -0.26617324 -0.03985098 0.45770839
v 0.41089588 0.19352910 0.22455110
v -0.12664047 0.01404817 0.57127178
v -0.33321092 0.12175113 0.29100519
v 0.08000286 -0.16037594 -0.51250100
v 0.48376992 -0.29140109 -0.24884371
v -0.21274492 -0.09530492 -0.49062252
v 0.51065505 -0.10773166 -0.19906507
v -0.12005150 -0.29845580 -0.51432467
v 0.07947909 -0.31104267 -0.43451595
v 0.30915362 0.02203573 -0.39600641
v 0.31026626 -0.11430742 -0.31019074
v -0.40832564 -0.13191175 0.27342278
v -0.07093457 -0.24879616 -0.49304008
v -0.36002332 -0.06233478 0.60682154
v 0.07686976 -0.29377934 -0.45817101
v -0.21960223 -0.11729854 -0.48652038
v -0.62647480 -0.19926056 -0.15910083
v -0.05144540 -0.28161955 -0.12540741
v 0.40797910 -0.13891265 -0.02981009
v 0.03624931 0.30388314 0.23440711
v -0.15227662 0.11583282 0.24738666
v -0.42138785 -0.20342702 -0.07807209
v 0.31856343 -0.11546732 -0.30648416
v 0.51454026 -0.09142905 -0.16984051
v -0.25742522 -0.08671347 0.59785962
v -0.05475244 0.31184712 -0.36151507
v -0.59712845 -0.04085718 -0.16132630
v -0.05019388 -0.17515163 -0.42264190
v -0.52853608 -0.33798018 -0.16110572
v 0.40641913 -0.00781274 -0.09956506
v -0.58966190 -0.10692623 -0.15318242
v 0.18805605 -0.08106849 -0.47564366
v -0.16249186 -0.16626382 -0.45621541
v 0.25596589 0.04744181 -0.42369074
v -0.38470593 -0.13578609 0.58602166
v 0.42538586 0.05500617 0.60234284
v 0.49730027 -0.30257744 -0.17825216
v 0.03705930 -0.33088633 -0.28231373
v 0.09286803 -0.22253332 -0.43377098
v 0.45188901 -0.24460992 -0.29733229
v -0.10097010 -0.05765697 0.06535657
v -0.10842681 -0.29789427 -0.42259890
v 0.43807429 -0.14798522 -0.20741527
v 0.41192293 0.12455080 0.59139550
v -0.50427908 -0.29265389 -0.33196282
v 0.13061422 0.09669846 0.38616180
v 0.43660006 -0.03717879 -0.07038177
v -0.13212517 0.27800319 0.21389031
v 0.07838910 0.34926692 -0.14859116
v 0.39128634 -0.01206928 -0.16773386
v 0.18990651 0.00104561 0.69342834
v 0.39583540 -0.36797911 -0.23620489
v -0.04630485 -0.16534555 -0.44627690
v 0.10673616 0.34370729 -0.28852364
v 0.15545908 0.06686550 0.70072883
v -0.32232636 -0.08819820 -0.39045125
v 0.23345929 -0.22965780 -0.05557010
v 0.27562991 -0.39678419 -0.17245558
v -0.36136925 -0.15115529 0.32135162
v -0.34736711 -0.01683294 0.54517615
v -0.08251469 -0.24632539 -0.32196489
v 0.33788913 -0.10938577 0.34825033
v 0.50686187 -0.11161137 -0.18336582
v 0.52254301 -0.28185084 -0.17845854
v -0.07369627 -0.27796572 -0.07277918
v -0.45815071 -0.24844027 -0.30131459
v 0.24127652 -0.11998100 0.39621297
v -0.49503687 -0.36328757 -0.37102455
v -0.41630679 0.14789139 0.24281898
v 0.17651689 0.08205806 0.60195518
v 0.45071995 0.17761846 0.38397503
v -0.16854143 -0.28367221 -0.00245947
v 0.34715259 -0.19039170 -0.20808363
v 0.42684543 -0.00400294 0.58387578
v -0.47348070 -0.20384534 -0.28880900
v 0.03803308 -0.34869647 -0.42334592
v 0.02426434 0.11674147 -0.55128986
v -0.38923916 -0.09965874 0.60624355
v 0.14163184 0.33021706 -0.13779454
v -0.42581141 -0.17285451 -0.27711606
v 0.22545013 -0.02684333 0.63253993
v -0.39395076 0.00913963 -0.33023804
v 0.55572861 0.12181301 0.09853345
v 0.40527815 0.02128594 0.17277199
v 0.10685995 -0.26997802 0.00578330
v -0.14919284 -0.10121095 0.40976986
v -0.38386244 0.19621584 -0.09907056
v 0.25692296 0.16966552 0.36298478
v 0.41033021 -0.01041413 -0.10680056
v -0.00124408 -0.18010820 -0.49578294
v 0.38974148 0.23751256 0.02955077
v -0.16753232 0.21289214 0.67005223
v 0.36366487 -0.09421169 0.58777726
v -0.45206046 -0.08274257 -0.21042328
v 0.35355589 -0.09758650 0.35359049
v 0.35496789 0.02793646 -0.32318226
v -0.50085580 -0.28773046 -0.35694331
v -0.55626512 -0.27293351 -0.28717691
v 0.23567966 0.13944034 -0.41535741
v 0.14367935 -0.22788514 -0.39537215
v -0.43874890 -0.05954432 -0.23028588
v 0.22762702 -0.11695987 -0.42817861
v -0.49484274 -0.34211460 -0.38954067
v 0.37548679 -0.25245881 -0.09337175
v -0.47232127 -0.43219870 -0.38181466
v -0.35190910 -0.02067750 -0.19695476
v 0.15213299 -0.19990878 0.14264382
v -0.39908376 -0.01121305 -0.25005433
v -0.19753817 0.18925275 -0.43946585
v 0.44927245 -0.03558613 0.15744299
v -0.19266909 -0.05326612 0.67624068
v -0.36240011 -0.14887102 0.33075836
v 0.31597018 -0.11691706 -0.04957597
v 0.22606823 0.26862586 -0.38206020
v -0.24395575 0.13111362 0.20236917
v 0.27736065 -0.21777539 -0.12374977
v 0.31642860 -0.18208262 -0.05086091
v 0.28827867 0.02695625 0.36240718
v 0.16636497 0.29116291 0.09733006
v -0.29057527 -0.06982942 0.53638577
v 0.29856095 -0.08219901 -0.33589679
v -0.13960895 0.19466221 0.68225229
v 0.17929652 0.06892958 0.55867279
v -0.06140368 0.35910460 -0.22637084
v 0.34113160 -0.04619294 -0.24996693
v -0.41165298 -0.01098256 0.48924303
v 0.34615776 -0.02647631 0.66100949
v -0.14357319 -0.07915054 -0.52641469
v 0.47060546 -0.17357261 -0.17553771
v 0.13366131 0.07654554 0.13167368
v 0.54472893 -0.16529652 -0.10912855
v -0.25960562 -0.18645190 0.52288651
v 0.14687179 -0.20407546 -0.42488536
v -0.03840832 -0.18221909 -0.40391400
v 0.05353534 0.22403452 -0.47620785
v 0.35468274 0.01794968 0.10506824
v 0.01809073 0.39974296 0.27955109
v 0.14306967 -0.24471992 -0.22493967
v -0.17720252 -0.20923638 -0.44478151
v -0.56294078 -0.31160405 -0.18733977
v 0.43917483 -0.25831142 -0.14165854
v -0.51328939 -0.23693739 -0.26874995
v -0.46109721 0.09334552 -0.20949453
v 0.09874534 -0.34669077 -0.33714637
v -0.45422012 -0.00673247 0.13029601
v 0.12443365 -0.21079877 -0.27820879
v -0.16940020 -0.13073613 -0.50509501
v -0.17483999 0.30191499 -0.25373548
v 0.34474650 0.06468663 -0.36105365
v -0.36482748 -0.12514943 0.45356569
v 0.22552705 -0.01628530 0.57669604
v 0.19755509 0.13691345 0.59345531
v -0.30712527 -0.05983160 -0.41349041
v -0.62835902 -0.17129467 -0.21764250
v 0.17868878 0.34257135 -0.22174999
v 0.35215440 0.25186887 0.18735275
v 0.38695598 0.17531997 -0.07157841
v 0.35346505 -0.02404317 -0.31706297
v -0.37097377 -0.14916612 -0.24251778
v -0.48553905 -0.03117761 -0.19548061
v -0.42486465 -0.21217993 -0.29283118
v 0.41632864 -0.09516956 -0.08830723
v -0.57459217 -0.31037375 -0.27203557
v -0.36825287 -0.22120517 -0.26567519
v 0.08537859 -0.10000531 -0.28753304
v 0.40824142 -0.04826702 0.40494919
v -0.51209122 -0.36223626 -0.35045135
v -0.33390713 0.10550363 -0.34165508
v 0.46214312 0.00979684 0.23083511
v -0.08473997 0.32449442 -0.02203811
v -0.14877856 0.28103954 0.12314458
v -0.14263181 0.27645785 0.25050139
v -0.32330289 0.12258970 0.19931316
v -0.54543948 -0.07349983 -0.08564533
v -0.13202809 0.26671252 0.31873721
v 0.26956320 0.26915061 -0.01563011
v -0.36148942 0.18354008 -0.02302186
v -0.58017641 -0.13621743 -0.23414990
v 0.39542130 -0.17363195 -0.20531024
v 0.26678544 -0.21406759 -0.01825429
v 0.49783766 -0.15871105 -0.16513026
v -0.55781925 -0.34658742 -0.33788213
v 0.31156939 -0.33690444 -0.28452167
v -0.51942170 -0.35674179 -0.38218111
v 0.12772988 -0.38218981 -0.33817285
v -0.11054486 -0.30189875 -0.52303261
v 0.25036028 0.13296941 0.49325207
v 0.05850945 0.13782941 0.35753626
v 0.05413398 0.34862006 -0.16255668
v 0.14264989 0.32665524 -0.12596542
v 0.16723320 -0.07036293 -0.46540982
v -0.48355153 -0.09687956 -0.14127390
v -0.32503524 0.14667928 0.48783946
v -0.33760279 0.21223022 -0.07894918
v -0.10041556 0.34580967 -0.22545844
v 0.44560954 0.17379273 0.31763142
v 0.24418034 -0.09402949 -0.37635180
v -0.15504831 -0.14165561 -0.51473701
v 0.37362051 -0.19279370 -0.13401484
v -0.41645312 -0.06931558 -0.20739686
v -0.59241134 -0.17631619 -0.13853112
v 0.35951126 0.21856090 0.09379916
v -0.35283321 -0.12837003 0.36787388
v -0.05135848 -0.30634204 -0.36808935
v 0.42340186 0.09982695 0.09823048
v 0.34631315 0.05472054 -0.35655019
v -0.19063760 0.09016009 -0.50202394
v 0.13460118 -0.25359946 -0.33787015
v -0.34611103 0.05728076 0.09645952
v 0.40436268 -0.22820568 -0.21357967
v -0.18924111 0.26664552 -0.36307141
v -0.31755465 0.11281045 0.58348590
v -0.59736639 -0.24013412 -0.23619744
v 0.21873334 0.09374252 0.69085038
v -0.37274754 -0.16473532 -0.08716260
v -0.34418678 0.14597209 0.25386465
v -0.17288315 0.28663206 0.03583250
v 0.09110222 -0.28790352 -0.13676080
v -0.01125162 0.01438923 -0.57032603
v 0.25279918 0.01390229 0.60596848
v 0.10702689 0.30144680 0.25785348
v -0.10703182 -0.32593441 -0.11756407
v 0.22831196 0.28929761 -0.00254589
v -0.15175861 0.27297631 0.25121245
v -0.20253991 -0.15486498 -0.46510446
v -0.32639405 -0.11310084 -0.37323308
v -0.11521254 -0.30515984 -0.02943562
v -0.19394436 -0.00480825 0.27527222
v 0.37862968 -0.10015425 0.36929014
v -0.07089505 0.02148247 0.37306488
v 0.16837144 0.27459002 0.18636507
v 0.35171047 -0.03208913 0.64176595
v -0.56450266 -0.07038675 -0.11585304
v -0.27165496 -0.18712594 0.52290303
v -0.01317100 0.10511380 0.07119685
v 0.17512417 -0.29572332 -0.41741699
v 0.24761951 0.01554532 0.14738271
v 0.51019239 0.12776668 0.15608309
v 0.30258510 -0.14139424 -0.28899437
v 0.53390378 0.06194940 0.12351999
v 0.44022399 -0.26508808 -0.23618922
v -0.14076939 -0.10861523 -0.48139012
v -0.06354307 0.32634491 -0.12251940
v 0.14035006 0.30797586 -0.09884518
v 0.36563215 -0.10177560 0.26204172
v -0.42972589 -0.15595058 -0.25747237
v -0.65467465 -0.16779435 -0.15405153
v 0.53145528 0.04205467 -0.10082309
v -0.47050157 -0.37522826 -0.42022485
v 0.45072925 0.08141901 -0.01784789
v 0.10708595 0.32188606 -0.31896415
v 0.39893067 0.09217471 0.02572991
v -0.43067372 -0.09555963 0.28525156
v 0.16931249 0.31444591 -0.02762963
v 0.21173382 -0.06876139 0.34680340
v -0.40624470 0.15027365 0.26144716
v -0.08363049 -0.04835869 0.36614746
v -0.23359899 -0.00039124 0.47163862
v -0.57862830 -0.12584303 -0.20083766
v 0.27309075 -0.04270368 0.50288737
v -0.25477389 0.16632377 0.54313797
v 0.23899308 -0.15192825 -0.31557447
v 0.39251742 -0.23806304 -0.05937810
v 0.08056318 -0.15917018 -0.51030016
v -0.10610010 -0.26501474 -0.26394695
v -0.18823209 -0.06657901 -0.44257814
v 0.31979567 -0.04973606 -0.35948259
v -0.41378227 -0.09878863 0.62542856
v 0.29194942 0.05803584 0.68236697
v -0.41814208 -0.36873245 -0.46878618
v -0.38986179 0.12762320 -0.13197277
v -0.08752152 -0.17009719 -0.38256782
v 0.03711338 0.33599031 -0.34674597
v 0.52696806 -0.15488826 -0.09050271
v -0.36862046 -0.18045461 0.51929474
v -0.18371654 0.17719780 0.54172808
v 0.01539213 -0.38101012 -0.24896802
v -0.25397423 0.28221595 -0.15381260
v 0.21402672 -0.05720435 0.54227972
v 0.27885854 -0.11545298 0.58160853
v -0.31998441 -0.03463814 0.59713835
v -0.19101731 0.11261997 0.56963992
v -0.39242023 -0.09030358 0.58451939
v -0.50242883 0.07664376 -0.06675832
v 0.00493452 -0.29924244 -0.16138341
v -0.18082197 0.03332885 0.65739560
v 0.03855293 0.31881693 -0.07381177
v 0.38563374 -0.28174400 -0.26847118
v -0.36176646 -0.15104556 -0.02411815
v 0.10694592 -0.37268972 -0.32675380
v -0.29865974 -0.10485748 0.36706218
v 0.43453264 0.06259961 0.40122664
v 0.18084446 0.07550901 0.25063914
v -0.17464156 -0.09311901 0.52617592
v 0.36343753 -0.04929721 0.63819081
v 0.23254481 -0.16353458 -0.31748813
v -0.49965262 -0.39727867 -0.35536319
v 0.05798142 0.37380967 -0.23366761
v -0.26374254 -0.09093505 -0.42683476
v 0.19199552 -0.05709809 0.39413458
v -0.00114568 -0.29725695 -0.13686943
v -0.52750844 -0.04684867 -0.17827053
v 0.11642221 -0.27664682 -0.49374229
v -0.15754321 0.03032154 0.66098082
v -0.46294752 -0.24578607 -0.28208464
v 0.39560726 -0.30212039 -0.34100291
v 0.35269377 -0.07376404 0.40794820
v 0.30576813 0.14230675 0.65015662
v -0.66315770 -0.18822199 -0.17050998
v 0.25936505 -0.07080656 0.51781231
v 0.32907572 0.02056754 0.65663409
v 0.42669347 0.01165035 0.35786116
v 0.42792481 -0.36920720 -0.18507199
v -0.35473967 -0.04068862 0.05173085
v -0.63150972 -0.23223586 -0.20789447
v -0.54263848 -0.24034289 -0.16071102
v 0.24731475 0.01887894 0.63071400
v -0.28507921 0.18843019 0.35783628
v -0.59754753 -0.22355433 -0.22722670
v -0.11137803 -0.26274407 -0.47443184
v 0.43856564 -0.31121540 -0.27025580
v 0.11095551 0.32761562 0.16819763
v -0.36467284 -0.02850973 -0.32603914
v -0.41468227 -0.17136480 -0.33332971
v -0.34547293 -0.03789066 0.64097673
v -0.04362682 -0.18634447 -0.48049209
v 0.53515667 -0.06321093 -0.18258193
v -0.27629691 -0.19968474 0.49594757
v 0.39002407 0.08901735 0.31991661
v 0.11134965 -0.30394465 -0.49902615
v -0.34168214 -0.10167698 -0.38193923
v -0.28460300 -0.06753206 -0.41406661
v -0.38844112 -0.03079373 0.39379027
v 0.38373354 0.06937053 -0.10973071
v -0.48479676 -0.29956424 -0.35126573
v 0.29684585 0.19349168 0.30905214
v 0.12355369 -0.30581272 -0.44460917
v 0.24608120 -0.05592338 0.50835508
v -0.00332563 -0.34130585 -0.34426260
v 0.34543085 0.16589510 0.49641299
v -0.23125294 0.29451296 -0.11890877
v 0.22337441 0.06601898 0.69066888
v -0.55663705 -0.13516346 -0.11956856
v -0.33550411 0.13223417 0.46771643
v 0.41196606 -0.19356041 -0.16819888
v 0.37263113 0.11072385 -0.22144133
v 0.20183307 0.01507019 0.61340189
v -0.41242900 -0.00168072 0.33041379
v 0.15131861 0.18899751 0.30276614
v -0.19549805 0.08653052 0.05140142
v -0.36390275 0.16477728 -0.05374363
v -0.23876585 0.28571790 -0.25226682
v 0.47354376 -0.24775590 -0.19225815
v -0.26847297 -0.34531844 -0.37760916
v 0.26734668 0.09561861 0.57866913
v -0.06318261 -0.36800173 -0.43406650
v -0.03253270 -0.05976607 -0.48852241
v 0.27272025 -0.01524757 -0.41294572
v -0.17421585 -0.18248899 0.28178656
v 0.30271471 0.24920139 0.22607175
v -0.28907290 0.21623319 0.05904705
v -0.32967111 0.05150020 0.57318133
v 0.49680221 -0.03473542 -0.15252551
v 0.24003707 -0.02579217 0.49047479
v 0.34533703 0.03546977 0.57843870
v 0.21224383 -0.02658253 0.53406584
v -0.02061073 0.10140519 0.40004885
v -0.12699258 0.01282392 0.56444478
v -0.36267999 -0.19137317 0.51212287
v -0.48304936 -0.31823722 -0.27182862
v 0.14181270 -0.00866345 0.41574442
v 0.00058658 -0.18817645 -0.48129970
v -0.44968629 0.03523003 0.25549707
v 0.26332977 -0.02065104 0.67508149
v 0.15315992 -0.20782447 -0.16633072
v -0.16583049 0.09523301 0.69551605
v 0.38048115 -0.10529616 -0.16761406
v 0.52552140 -0.18459265 -0.14245193
v -0.14960186 0.27228755 0.23652719
v 0.39268488 -0.15061852 -0.21890150
v 0.08208021 0.27629787 -0.42987961
v 0.50865293 -0.05700863 -0.14214623
v 0.12536609 0.08791178 -0.49970901
v -0.21103516 0.09691094 0.21171702
v -0.01007974 -0.35074839 -0.41353664
v 0.43655360 -0.27286863 -0.17012605
v 0.22823240 -0.10502781 -0.31712878
v 0.20122552 -0.00956754 -0.49283400
v 0.43999839 -0.06187106 0.22506969
v 0.02872428 -0.27984768 -0.26001287
v 0.35725120 -0.11087845 0.39335036
v -0.39751911 -0.16147275 0.23666230
v -0.35008487 -0.02635033 0.59000158
v -0.62617165 -0.21594216 -0.16238159
v 0.25125983 -0.01250753 0.42729878
v -0.32427657 0.14917009 0.07813512
v -0.32604644 -0.04255527 0.55088651
v 0.28636932 0.08467843 0.41462985
v 0.49340212 -0.33998397 -0.20742927
v -0.18170413 -0.12135625 0.47049534
v -0.59160107 -0.05571017 -0.08465336
v 0.30014449 0.00397597 0.60365617
v 0.14876412 -0.07098845 -0.47619534
v 0.34824643 -0.19189213 -0.04949020
v -0.17466930 0.30098277 -0.09059843
v -0.04831249 0.36480573 -0.17981336
v -0.39938197 -0.09838594 0.63424921
v 0.08693433 -0.26899934 -0.45570290
v 0.02852330 -0.32994667 -0.47812402
v -0.37133726 -0.07191725 0.62936801
v -0.11958298 -0.04047150 0.43205279
v 0.32934386 -0.23926350 -0.20694727
v -0.12709184 0.24694592 -0.42697430
v 0.14764903 -0.21721675 -0.40615663
v -0.62327152 -0.15644580 -0.11117737
v -0.12421753 0.26954827 0.19269456
v -0.52161551 -0.36754942 -0.31082612
v 0.20548970 0.26918527 0.16233461
v 0.22966358 0.10799105 0.50618076
v -0.38096273 -0.12174495 0.59767061
v -0.49833199 0.09835937 0.10211065
v -0.19529119 -0.33681718 -0.44475871
v -0.37953550 -0.20209430 0.46688184
v -0.01512601 -0.37627304 -0.40654811
v -0.08259071 -0.13537136 -0.36593860
v -0.60891122 -0.16618413 -0.22342885
v -0.66559994 -0.15711765 -0.19647148
v 0.36586824 -0.11805178 -0.17251244
v 0.37162119 -0.05510775 -0.03962022
v 0.29467428 0.14608252 0.48667884
v -0.47114351 0.07482078 -0.08971755
v 0.04922585 0.39889744 0.33118317
v 0.41230962 -0.24395643 -0.06878893
v 0.41132310 0.02175839 0.39740682
v 0.27041915 0.03788941 0.44396052
v 0.22149453 0.03924474 0.27228135
v -0.24221438 0.11944717 0.67408907
v 0.45896012 0.02303706 0.28082556
v -0.16468087 -0.34286278 -0.47157574
v -0.17937572 -0.02450974 0.47573620
v 0.15802555 -0.21633762 -0.10116237
v 0.25095174 -0.20614070 -0.20734686
v -0.39669633 -0.04532400 -0.31070805
v 0.19925016 0.00836459 0.60370040
v -0.09155002 0.32388502 0.07167624
v -0.52310586 0.00380594 0.16301107
v -0.45022613 0.07305209 -0.09106101
v 0.32871073 0.09910499 -0.37168080
v 0.07060838 0.35205331 0.00040655
v 0.17174639 -0.03168216 0.49671134
v -0.43136585 -0.28074846 -0.16657627
v 0.18309346 -0.15314522 -0.42631072
v 0.37932527 -0.22833213 -0.14079493
v 0.29041824 -0.08364679 0.51339304
v 0.18022691 -0.19616681 -0.40074641
v 0.33107603 0.26430729 0.00812058
v 0.20695919 0.07436869 0.52999634
v -0.24980637 0.26177508 0.03251085
v -0.41839209 0.05299887 -0.10182966
v -0.42287433 -0.01026793 -0.22790575
v 0.29258510 -0.01618120 0.60173118
v -0.53244960 -0.18659586 -0.12986332
v -0.02753720 -0.22210428 -0.41524404
v 0.40547362 0.06296459 0.62078387
v -0.46575704 -0.20161992 -0.26383695
v 0.26476285 0.16513205 0.61871815
v -0.18876705 -0.14354736 0.35989803
v 0.29227763 -0.19431756 -0.16787884
v -0.17528120 0.06462342 0.62218308
v 0.35041812 -0.17035192 -0.17347883
v -0.58056223 -0.14523563 -0.11742977
v -0.52835363 -0.36464429 -0.31913367
v 0.35099497 0.21571060 -0.07761990
v -0.36671579 0.18183906 0.18067421
v 0.35078472 0.07810441 -0.24273463
v 0.22178383 -0.01669751 -0.46700895
v -0.23561814 -0.01592829 0.48165959
v 0.38637963 0.12045030 -0.14051396
v -0.50289941 0.05640166 -0.05183997
v -0.09395870 -0.27089971 -0.48151278
v -0.21536341 -0.14301170 -0.39969778
v 0.34015462 0.01879457 0.36123818
v 0.06318447 -0.21196759 -0.35111216
v 0.02430876 0.45273063 0.22329579
v 0.52493531 -0.09826694 -0.17478652
v -0.45720169 -0.02530456 0.29156148
v -0.53608793 -0.40748096 -0.27614248
v 0.00088638 0.33241069 0.41102868
v 0.43395638 -0.14261085 -0.19976327
v -0.31397477 -0.12310436 0.44645697
v -0.63903022 -0.19312817 -0.21533804
v -0.02976642 0.16392876 0.43873599
v 0.37872231 0.22690406 0.15114054
v -0.32964545 -0.03860539 0.58220619
v -0.13401908 0.32426316 -0.11547844
v 0.29572764 0.03673200 0.38893861
v -0.54233921 -0.12436153 -0.21149489
v -0.08410104 -0.17096995 -0.47835481
v -0.24901947 -0.34216824 -0.45060736
v 0.34492067 0.02986076 0.57071745
v -0.58285409 -0.23988333 -0.24573223
v 0.26835796 0.12847814 0.68168312
v -0.08172275 -0.05601948 -0.39568537
v -0.31536508 0.01910561 0.64017212
v -0.23011397 -0.10617199 0.26216140
v 0.48778585 0.02328846 0.21948242
v 0.36498034 0.17702836 0.47609121
v 0.41658181 -0.25040764 -0.21376002
v 0.07675567 -0.24554375 -0.31577241
v -0.21451159 0.05802524 0.64071447
v -0.20930868 0.12911147 -0.48507902
v -0.39055738 -0.07564127 -0.26651815
v -0.10371469 0.32967025 -0.28842717
v -0.57032281 -0.28695071 -0.28255677
v 0.04434178 -0.33561075 -0.40858072
v -0.62384176 -0.25294954 -0.22216658
v -0.53289753 -0.22679655 -0.25118381
v 0.27088752 0.20046656 0.32518762
v 0.09706516 -0.25088727 -0.29819220
v -0.15014355 0.31991878 -0.04293567
v 0.32457089 -0.22785082 -0.20210245
v 0.18156217 -0.19421294 -0.32510620
v -0.28473476 0.14864424 0.40318808
v 0.20388266 0.11390302 0.62548101
v 0.01934620 -0.34775013 -0.43916422
v 0.23798168 -0.22983891 -0.02006478
v -0.25454786 -0.12312729 0.57438755
v -0.37688684 -0.04393522 0.66877985
v -0.20422632 -0.14911237 -0.41487345
v -0.43392536 -0.28690410 -0.34438908
v -0.60957050 -0.22747983 -0.24297334
v 0.04351262 -0.35084924 -0.39386943
v -0.19222234 0.28106886 -0.09863853
v -0.34961903 -0.04131773 0.61426014
v -0.06090800 -0.46170172 -0.17276166
v -0.15479124 0.03500581 0.65359992
v 0.22411641 0.08535861 0.10999498
v 0.17512825 -0.21794502 -0.18562609
v 0.14008529 0.04107041 -0.53093672
v 0.34435478 -0.10070795 0.42959005
v -0.36557978 0.03073286 0.51943886
v 0.11867389 -0.26134050 -0.06260766
v 0.33960941 0.24352917 0.14320827
v 0.47379634 -0.14653301 -0.07872341
v -0.21248044 0.13850285 0.44020987
v -0.05092631 0.15744741 0.35187694
v 0.43646699 -0.23491852 -0.16465555
v -0.23552282 0.21965359 0.20153007
v -0.33774385 0.09482829 0.44609362
v 0.10991679 0.32824570 0.29883686
v -0.58284551 -0.31180817 -0.28691313
v -0.02335593 0.32587785 -0.29730555
v -0.27600223 0.13613567 0.49158451
v 0.44722727 -0.14379874 -0.24229290
v 0.41794473 0.03352497 0.12214518
v -0.27422342 0.27099898 -0.19118172
v 0.53360432 -0.19913785 -0.11097258
v 0.00530810 0.11330532 0.12528165
v 0.33948445 -0.03223798 -0.35199308
v 0.11199949 0.04428767 -0.53656489
v 0.15100390 -0.11087598 0.36234793
v -0.07697065 0.33077392 -0.05972018
v -0.13232863 0.26282987 0.32322544
v -0.14026952 0.17648475 0.68962902
v 0.16138567 -0.13639961 -0.32345816
v 0.36056125 -0.10702392 -0.25861979
v 0.05560175 -0.25366995 -0.43197301
v 0.30538261 0.21250480 0.49546957
v 0.41995090 0.20342664 0.14301491
v 0.15253249 -0.16721916 -0.46487287
v -0.25057626 -0.12579441 0.62438321
v 0.35065797 0.06468444 0.63291675
v 0.15195873 -0.17670365 -0.42138043
v 0.11225993 -0.30149272 -0.36631608
v -0.55185395 -0.44569308 -0.19043668
v -0.29898831 -0.07890248 0.41335866
v 0.44315970 -0.23395815 -0.19070862
v -0.42628485 0.05569601 0.22059911
v -0.38970202 -0.17174068 -0.18892536
v 0.34710839 0.14358319 -0.23878101
v -0.36754274 -0.12981112 0.57217592
v 0.23907511 0.28857043 -0.14082125
v 0.37587026 -0.13175535 -0.24117613
v 0.09739919 0.19279328 0.34278020
v 0.51260996 -0.30732709 -0.21976146
v -0.19026211 0.24756330 0.17605668
v 0.42438817 -0.08242999 0.24518198
v -0.06867850 -0.31642306 -0.43668881
v 0.04881050 -0.23434357 -0.44029409
v 0.22670710 -0.10965301 0.38940683
v 0.09500459 -0.15019611 -0.45339853
v -0.24754074 0.07622911 0.62192798
v 0.51315057 -0.29738623 -0.17917036
v -0.66438496 -0.17874810 -0.17501844
v -0.16190231 -0.32412046 -0.47159886
v 0.39727676 0.20771073 0.14634308
v -0.56201363 -0.33040765 -0.25537550
v -0.21878314 -0.08763830 -0.50907975
v -0.33839291 0.07256496 0.56546032
v -0.24905914 -0.16612935 0.53638661
v 0.03411094 0.33049095 -0.35648885
v 0.09889828 -0.28763664 -0.12014552
v 0.15377134 -0.06564219 -0.44770309
v 0.42287552 0.08932164 0.09544054
v 0.31666270 0.01029955 -0.37709141
v 0.44652617 -0.07833210 -0.18488120
v 0.18821079 -0.25005311 -0.01991726
v 0.30618557 0.07236110 0.34526473
v 0.49908966 -0.09021293 -0.19772536
v 0.24637145 0.02775501 0.69043142
v -0.02344748 0.28677773 0.32517254
v 0.07868144 -0.32452506 -0.40971610
v 0.39604217 0.17075299 0.33891132
v 0.35415053 -0.08102646 0.61940646
v 0.00899852 0.30583918 -0.38723311
v 0.02200633 0.19072799 0.38801724
v -0.21413131 -0.10860439 0.61771721
v 0.25183964 -0.18607229 -0.29485714
v -0.36426854 -0.14130543 -0.28741986
v 0.28614050 0.16144916 0.60450739
v -0.15127146 -0.12291902 0.46889365
v 0.29729074 -0.01298282 0.43353856
v -0.47532949 -0.20502543 -0.29601520
v 0.09570776 -0.43661809 -0.27319822
v -0.02267168 -0.24486727 -0.40212083
v 0.15528043 0.31678498 -0.03649892
v 0.36238348 -0.09462872 0.24089892
v -0.42190182 -0.05916235 -0.07646963
v -0.09580667 -0.23937872 -0.43311369
v -0.30153918 -0.19094571 0.53580701
v 0.06846461 -0.11205901 -0.46520174
v -0.40559086 0.01227848 0.32130221
v -0.38860968 -0.11923452 -0.19731708
v 0.54145122 -0.20778629 -0.13773714
v 0.04868270 0.25997707 -0.44386417
v -0.23297513 0.22976100 0.16819414
v 0.09315480 -0.11791416 -0.50695038
v 0.19319507 -0.11813964 0.33353186
v -0.12602293 -0.12408455 0.28700250
v -0.30626816 -0.07035144 0.54121768
v -0.32957113 0.17950544 0.10896502
v -0.04574604 -0.35145944 -0.32252729
v 0.27693704 -0.16225754 0.53312063
v 0.17170787 -0.08586130 -0.48572484
v -0.26938796 0.06755395 0.68132150
v -0.59174889 -0.22341700 -0.23626636
v -0.61326337 -0.38004798 -0.18968283
v -0.36810106 -0.07932074 0.60781288
v 0.50913912 -0.30829924 -0.23820297
v -0.03705135 -0.31708100 -0.46474808
v 0.02013355 -0.38169220 -0.22603548
v -0.61115944 -0.17165293 -0.18861540
v -0.07428662 -0.39481676 -0.27463290
v 0.28248817 0.22179133 0.62368262
v 0.46835828 0.18260960 0.23296662
v -0.11718951 0.11426069 -0.00228003
v -0.30174792 0.17485386 0.08703218
v -0.41512460 -0.18332425 -0.28635645
v 0.00262268 -0.09671300 0.37492537
v -0.05207930 -0.06246107 0.38927087
v -0.32590503 0.01961731 0.65357268
v -0.12034022 0.27504590 0.18135343
v 0.28275535 0.18384522 -0.36646965
v 0.53452259 -0.30774093 -0.22059993
v -0.52471113 -0.32280388 -0.37434524
v 0.08424833 0.37308976 0.33336154
v 0.43136266 -0.27800187 -0.17035604
v 0.35728231 0.18678886 0.52203858
v 0.35804909 -0.04207951 0.63194495
v -0.26961011 -0.07703120 -0.45808288
v -0.34052396 -0.17726204 0.04368669
v 0.30251724 0.12695427 -0.37237766
v -0.02133225 -0.23457323 -0.42738897
v -0.00412568 -0.35490379 -0.30919164
v 0.26076508 0.21822251 0.52518839
v 0.31594124 -0.13111207 0.32332909
v 0.46874043 -0.18129057 -0.10090351
v -0.30443993 0.05831006 0.59124815
v -0.26953420 -0.00848938 0.20334928
v 0.55175394 -0.21411315 -0.15448488
v 0.46495193 0.04475248 0.20653354
v -0.48868659 -0.20478079 -0.20049807
v 0.20964453 0.05208278 0.18421015
v 0.20460337 -0.04203913 -0.21540067
v -0.55276859 -0.36367184 -0.25604799
v -0.35686845 -0.03626895 -0.03165109
v 0.30827492 0.24911329 -0.10649658
v -0.02373676 0.26009980 0.30287352
v -0.16973820 -0.22827244 -0.44661349
v 0.09622483 0.37676108 0.31093243
v -0.16074926 -0.34484395 -0.46630290
v 0.11043844 0.32548910 -0.07400414
v -0.51656586 -0.40913162 -0.37116489
v 0.27717152 -0.03996772 0.42823514
v 0.55022836 -0.26863310 -0.22423889
v -0.03425616 0.07678181 -0.52220809
v -0.29756826 -0.13180600 0.43937629
v -0.34664035 -0.04038528 0.65016156
v 0.56222230 -0.25514618 -0.22754651
v -0.38969746 0.02502020 0.30130598
v 0.43269309 -0.23736688 -0.23803855
v 0.48593086 -0.29448578 -0.18221195
v 0.27704126 -0.05467770 0.53001052
v -0.62641382 -0.17014311 -0.19993336
v -0.53178376 -0.34316322 -0.37017778
v -0.38720879 -0.13874856 0.35877931
v 0.31333500 -0.14283422 -0.28896111
v 0.01010613 0.45420063 0.22447704
v 0.28466859 0.24893050 -0.13304250
v -0.04240978 0.06932563 -0.53168237
v 0.00628839 0.34648934 -0.31397462
v 0.19097875 -0.01601980 0.30307490
v 0.04776417 -0.27468604 -0.32837671
v -0.20386744 0.15043376 0.51195127
v 0.27852738 -0.33960250 -0.24954799
v 0.01559750 -0.24523500 -0.29334334
v 0.40564764 -0.00280146 0.12096394
v -0.13764954 -0.32218403 -0.41652033
v 0.17780334 0.01566198 0.40980971
v 0.21113372 0.05866987 0.61713481
v -0.06403530 -0.27693042 -0.17802577
v 0.36157325 -0.17606345 -0.18537541
v 0.42259493 -0.28346872 -0.29591188
v -0.27337193 0.18333015 0.53938699
v -0.15843973 -0.07769913 0.48467183
v 0.13545047 -0.36700159 -0.34749913
v -0.45967075 0.08713305 0.16736056
v 0.04046902 -0.43643612 -0.32996476
v 0.07590003 -0.34440717 -0.42145398
v -0.03964521 0.23038562 -0.48405179
v 0.27375448 0.25927314 0.04266905
v -0.27286124 0.27543893 -0.18508986
v 0.32360184 0.22912042 0.04752411
v 0.47090232 0.05871941 -0.11143373
v 0.30267549 -0.11801530 -0.01763038
v -0.23694350 -0.11963407 0.51474321
v -0.22966193 -0.13398638 0.39128318
v -0.25882635 -0.13691340 0.28670320
v -0.38126725 -0.15502445 0.56355137
v 0.27797422 0.12615821 0.48077723
v -0.35402048 -0.12199635 0.43853557
v -0.16585943 0.14834277 0.45425993
v 0.06788207 -0.02937985 0.39263141
v 0.32026237 0.24707651 0.03223412
v 0.30853033 -0.33349398 -0.28633019
v -0.40098947 0.13630848 0.01091802
v 0.34559211 0.03968361 -0.31707263
v 0.29728696 0.06007796 -0.40562984
v -0.17298257 0.03722003 0.62363207
v -0.14875436 -0.23703735 -0.44772571
v 0.32872814 0.06625736 0.66203493
v -0.15500923 0.11069188 0.46546105
v 0.23632002 0.13642225 -0.43875432
v -0.38921586 -0.20314693 -0.28822863
v -0.21248175 0.16425908 -0.06365523
v 0.29607314 0.15676340 0.64526677
v -0.13675031 -0.11917181 0.48002806
v 0.01428203 0.19265465 0.37410399
v 0.32652420 0.14206633 -0.32915369
v -0.40067303 0.04403532 0.23726858
v 0.03894038 -0.24991342 -0.00940867
v -0.23560570 -0.17377882 0.32332224
v -0.18377048 -0.30949193 -0.34461325
v -0.49072945 -0.34255886 -0.34464598
v -0.15154436 -0.16426492 -0.46213210
v -0.30175227 0.22060139 0.04385161
v -0.17718121 0.00926468 -0.53241408
v 0.03673712 0.33664864 -0.31684998
v 0.25335822 -0.06262425 0.61362070
v -0.05562316 -0.03514959 -0.36774909
v 0.10093196 0.02396530 -0.54462379
v 0.39790356 -0.02941723 0.12169632
v -0.25583860 0.22620532 -0.01022492
v -0.20015176 0.11540096 -0.48575976
v -0.22747275 -0.17115915 0.33631590
v 0.12786147 -0.12107791 -0.50850081
v -0.18767482 -0.02325083 0.67137331
v -0.54465997 -0.22406909 -0.13818808
v -0.06763154 -0.09813877 0.31679168
v 0.15279193 0.32175398 -0.31581646
v -0.14680347 0.08123389 0.17540163
v -0.11213185 -0.26753363 -0.44314837
v 0.03734680 -0.08074711 0.39191666
v 0.09402442 0.28387466 0.30194697
v 0.07732183 -0.32465971 -0.44079989
v -0.55217940 -0.31768015 -0.35169220
v 0.06762333 0.34471020 0.25001988
v 0.15462865 -0.21996713 -0.42147842
v 0.52249920 -0.01920558 -0.11665849
v -0.24695022 -0.03534286 -0.49752936
v -0.24750316 0.26228833 0.09210831
v -0.50050265 -0.25187960 -0.29074416
v 0.35954687 -0.00961649 0.61329854
v -0.24513364 -0.11694712 0.59150672
v -0.39519218 -0.02131605 0.45984477
v -0.08939569 -0.24168286 -0.48318848
v -0.21411890 0.18364176 -0.43994921
v 0.10647027 -0.35804898 -0.38827404
v 0.09474049 -0.25774360 -0.14876322
v 0.36520481 -0.07280959 -0.28270164
v -0.62833464 -0.12512253 -0.18939316
v -0.20987903 -0.07529271 0.60179341
v 0.15102132 -0.28851071 -0.44832671
v -0.10898450 -0.05434393 0.30069271
v 0.37167290 -0.10707560 0.27260327
v -0.38712576 -0.13364673 0.40774280
v 0.27514243 0.17053878 0.45228085
v -0.37499094 0.15923366 -0.06758740
v -0.47338781 -0.25744945 -0.28361839
v -0.59565020 -0.31052721 -0.24588448
v 0.06379784 -0.31507581 -0.44627482
v 0.07738071 -0.19234474 -0.33677274
v 0.09455038 -0.23221546 -0.42270651
v 0.16596982 -0.23136106 0.05321812
v 0.31014827 0.22661425 0.20743243
v -0.12010857 0.33812770 -0.12596831
v 0.29833883 0.06483939 -0.39369249
v 0.09176276 -0.31654465 -0.35825607
v -0.19145924 -0.28807551 -0.46425369
v 0.26224738 0.23794170 -0.08799311
v 0.44764537 0.20435534 0.08182532
v 0.37517861 -0.05983071 0.43398222
v 0.04578146 -0.41015050 -0.30197960
v -0.29962170 -0.07587725 0.61983371
v 0.26540676 0.25016755 0.63124931
v -0.18754283 -0.06728473 -0.45503777
v -0.42721391 -0.11549810 0.29304773
v -0.10415825 0.03104556 -0.54631591
v 0.20600833 0.14591922 -0.43062186
v -0.56050968 -0.26747224 -0.17048165
v -0.51827276 -0.35366046 -0.38328665
v -0.24297282 0.14792179 -0.43262717
v -0.20332116 -0.07993336 0.62621790
v -0.18989959 -0.01555838 0.64235806
v 0.28310061 0.08186834 0.01392893
v 0.34972504 -0.10277843 -0.29369894
v -0.48446625 -0.14907499 -0.20131733
v 0.01322022 -0.31836656 -0.47082725
v 0.35326126 0.11701655 -0.26628447
v -0.31706017 -0.11556809 0.32412231
v 0.04934986 0.39737958 0.29192588
v -0.07414947 0.33713269 0.37028208
v 0.22959721 0.00670615 0.69865215
v 0.45958334 0.06056267 0.03374979
v 0.51227319 -0.13526912 -0.15112631
v 0.30157077 0.03334592 -0.38931644
v -0.16129652 -0.30543783 -0.32649085
v -0.26200777 0.09549572 0.69293499
v 0.29328328 -0.18307841 0.04037932
v 0.11180145 -0.42779014 -0.27246344
v 0.49528623 -0.02491186 -0.15669546
v -0.17257583 -0.35823381 -0.41064787
v 0.23297086 -0.20844662 -0.23898894
v -0.41160461 0.09162025 0.10909611
v -0.33628264 -0.17940751 0.28520137
v 0.29127324 0.06275353 0.58805150
v -0.35535565 -0.13405025 -0.31187150
v 0.06205504 -0.27633715 -0.22426796
v -0.51178151 -0.34618467 -0.31870794
v -0.47250235 -0.17052424 -0.18976556
v 0.13982667 0.05834004 0.67440569
v 0.41049296 -0.09469029 0.26818171
v -0.15340868 -0.34138224 -0.45561475
v 0.56129265 -0.22374018 -0.18991934
v -0.16385758 -0.32316551 -0.42023557
v -0.18874292 -0.04981433 0.66792798
v 0.24650237 -0.12101717 0.57715839
v 0.30117822 -0.09646887 0.47144774
v 0.36995274 -0.09765904 -0.11269963
v 0.39859998 0.10888125 -0.11092849
v -0.17459799 -0.29311582 -0.43480843
v -0.20875710 0.10543040 0.69861400
v -0.24106896 -0.09840882 -0.41808137
v -0.00895542 -0.05988157 -0.48166978
v 0.24441090 -0.05702145 0.42862773
v -0.28585771 0.25093818 -0.15066686
v -0.37547857 0.16812383 0.27061975
v -0.19989721 0.15043247 0.52157843
v -0.40227199 -0.29554501 -0.24878567
v -0.25586608 0.16171545 0.56931317
v -0.44899195 -0.28653520 -0.26388657
v -0.22776029 -0.07866125 0.41754943
v 0.51120394 -0.29747227 -0.17576925
v 0.28643155 0.06019284 0.68520880
v -0.45431292 0.04584387 0.20835972
v -0.58932787 -0.34614211 -0.18864657
v 0.42332926 -0.14177682 -0.19838609
v -0.16524509 -0.30994615 -0.36729449
v -0.12270109 -0.26984057 -0.36995643
v -0.20264581 -0.19818449 -0.44767675
v -0.25668520 -0.07109850 -0.42074236
v -0.28939396 0.02285577 0.64708656
v -0.05272781 0.34466562 0.06175542
v -0.21397248 -0.17104894 0.33596238
v 0.01398926 0.14080982 0.39923948
v -0.17849137 0.25576097 0.19626465
v -0.22478685 -0.14790016 0.46986395
v 0.37279853 -0.09423236 -0.13224156
v 0.06432919 -0.31973824 -0.49429062
v 0.00805248 -0.28890276 -0.28222194
v 0.44214025 0.18390147 0.18052432
v 0.26073024 0.01976142 0.40411925
v 0.13709305 0.06065728 -0.52720320
v -0.20705524 -0.12265699 0.03453772
v 0.52162510 -0.14042315 -0.07868224
v 0.19643977 -0.02160238 0.55630791
v -0.36362970 -0.15776767 0.30525869
v -0.22555318 0.00348473 0.48575521
v 0.22976828 0.01550616 0.50073886
v -0.33672652 0.01343670 0.59718555
v 0.38188919 -0.09940111 0.58498234
v -0.38845977 -0.10870428 -0.23492847
v -0.02274038 0.13460447 0.44268820
v 0.16040689 -0.05637057 0.39505690
v -0.36284107 0.13859150 -0.27793348
v 0.06192454 -0.44193643 -0.31250417
v 0.30884299 0.21222225 0.51745683
v -0.11441684 -0.14169425 0.32646960
v -0.05891435 0.31055799 0.30797184
v 0.39793393 -0.04926613 0.41177082
v -0.00215521 -0.23876774 -0.34445977
v 0.42300543 -0.14139353 -0.17503148
v -0.22783747 0.22753611 0.33656502
v 0.45928460 -0.30388963 -0.28807455
v 0.41063684 0.08002724 0.58715671
v 0.38961184 0.06455117 -0.10197692
v -0.36666602 0.18739292 -0.03697571
v -0.26754892 0.26279676 -0.19018950
v 0.45082015 0.18630461 0.13574222
v 0.40164945 0.05100419 -0.10863314
v 0.07154237 0.02349953 -0.54376042
v -0.51829815 -0.37265381 -0.29645091
v 0.48439524 -0.13760282 -0.07694535
v -0.32994205 -0.06748680 0.60960329
v 0.40257320 -0.16181417 -0.18320815
v 0.52700531 -0.30400881 -0.22311075
v -0.30070025 -0.06032984 -0.33856177
v -0.27746898 0.00836965 -0.22673115
v 0.05597293 0.28950161 -0.40204370
v 0.10909753 -0.42412999 -0.27670982
v 0.50747895 -0.09362391 -0.12885979
v -0.03729147 -0.19978595 -0.47373718
v -0.35251287 -0.04265700 0.59784389
v 0.29140043 0.23148362 -0.25081658
v 0.25012422 -0.05351723 0.61784905
v 0.47012645 -0.24970219 -0.23835769
v -0.17274146 0.07018205 -0.01913724
v 0.42724797 -0.21678065 -0.20984662
v -0.22877192 -0.20904756 -0.41435379
v 0.40271819 -0.17354679 -0.21883623
v 0.27008212 -0.21347141 -0.12010992
v -0.07655219 -0.05062344 0.38728178
v 0.15328616 0.33749631 -0.22460118
v 0.38525859 0.05910429 -0.17182191
v -0.41334096 -0.10644530 0.31184822
v -0.38769257 0.20540826 -0.09541347
v -0.49595970 -0.15940654 -0.14668119
v -0.30794117 0.08136310 0.59367275
v 0.23382062 0.26142168 0.19873787
v -0.39030749 0.04091245 0.29929501
v -0.04785619 -0.30759254 -0.41058776
v 0.39673567 -0.28792924 -0.31300008
v 0.22170618 0.28634477 -0.10338043
v -0.11561573 -0.30439967 -0.51668119
v 0.05991428 -0.38801926 -0.27843034
v -0.03985971 0.08927780 0.39279217
v -0.20787404 0.21447572 0.40911010
v 0.29123041 0.26000813 0.17725448
v -0.14288132 0.30946231 -0.10901783
v 0.30153704 0.24468324 0.13412863
v -0.07423744 -0.10964158 0.33661002
v 0.40012336 -0.05104823 0.40426138
v 0.50270551 -0.14777757 -0.09087990
v -0.42263168 -0.06586283 0.60836554
v -0.40427580 -0.07469705 0.62956095
v -0.26088291 0.16659036 0.55535316
v 0.04424348 0.36324129 0.38708633
v 0.06058505 -0.34155533 -0.48430622
v 0.10667928 0.41171366 0.29300362
v 0.08181434 -0.29982400 -0.33922756
v -0.30812663 0.26646137 -0.24875420
v 0.35059422 -0.04550787 0.64201736
v -0.29537708 0.11290899 0.08468298
v 0.13780361 -0.25360870 0.01730940
v -0.25450277 -0.10413686 0.54283679
v 0.44519261 -0.32319143 -0.26721630
v 0.33144960 0.09251808 0.60803127
v 0.23102129 -0.11660464 -0.08092472
v 0.45443389 -0.26777774 -0.30170548
v 0.35402608 -0.15202017 -0.25618225
v 0.12045979 -0.19146129 0.12877622
v -0.31958148 -0.00241433 0.58511734
v -0.48812494 -0.19287325 -0.20889612
v 0.31560069 -0.02560634 0.58099508
v 0.33872181 0.18915808 0.51550341
v 0.26284733 0.01290476 0.67928195
v 0.26285806 -0.07110384 0.14728972
v -0.37546110 -0.13818967 0.37333834
v 0.50807852 0.07478412 -0.02433509
v -0.27088249 -0.07124323 0.53648198
v -0.40108305 -0.09869879 0.33334744
v -0.18986294 0.30130520 -0.29907990
v -0.53809994 -0.15408349 -0.24544093
v 0.50569308 -0.05267673 -0.13977975
v -0.30267656 0.00400692 -0.32476142
v 0.39168173 0.06117257 0.51609337
v -0.01556068 0.35030973 -0.06781667
v -0.31958047 -0.09028497 0.61620915
v 0.03264026 -0.03237265 0.39128715
v 0.47929186 0.12342076 0.01153344
v 0.01975693 -0.32659519 -0.48351634
v 0.31542334 0.26213667 0.00159494
v 0.39008567 -0.08551398 0.23275185
v -0.10522296 0.24263354 0.36537537
v -0.30601269 -0.12889355 0.24907719
v -0.22835875 -0.10039721 0.60701352
v -0.27860114 -0.14776063 -0.38027659
v 0.35121885 0.06903880 -0.32529807
v -0.03622405 -0.42034870 -0.27283481
v -0.29905015 -0.04785805 -0.44619876
v 0.43454099 -0.24567433 -0.05515204
v -0.16346638 0.04899946 0.58307511
v -0.03612152 -0.28594330 -0.13250883
v -0.24692936 0.00176409 -0.23751453
v 0.33025932 -0.09918322 0.03913465
v -0.19006801 0.24150860 0.32139915
v -0.07369114 -0.28456318 -0.45652571
v -0.42912778 0.06624934 0.20655657
v -0.44952559 -0.09119951 -0.05992809
v 0.22491439 -0.06521362 0.66852790
v -0.00013964 -0.39469460 -0.41041386
v 0.17548534 -0.22808757 -0.06392287
v 0.06369002 0.47138795 0.23363055
v 0.19148155 -0.07231375 0.18818653
v -0.28000814 -0.02961770 -0.45258686
v 0.40140012 -0.22663225 -0.21203010
v 0.50178742 0.00583468 -0.10735072
v 0.11078814 0.31332657 0.01218297
v -0.28849182 0.14189489 -0.38539252
v -0.46385318 -0.23836975 -0.13145328
v -0.26920390 0.20487520 0.24903283
v 0.25305539 -0.15173604 0.04684405
v 0.44444647 -0.28691691 -0.25485647
v 0.26194158 -0.09985178 -0.33519754
v -0.40542105 -0.16878605 -0.21200556
v 0.21139616 -0.00289655 0.69067079
v -0.22348931 0.09393027 0.50355113
v -0.25113842 -0.13523290 -0.41944712
v 0.21412608 0.29613632 -0.33975378
v 0.37860841 -0.01152427 0.46673286
v -0.36861542 -0.06278906 0.52111840
v 0.07765312 0.30370492 0.35437629
v 0.37664825 -0.03524086 0.11690442
v 0.03223431 0.07962805 -0.51156354
v 0.29176044 -0.07523081 0.49808043
v 0.45592391 -0.08465762 -0.06223486
v -0.34438014 0.20349547 0.09666675
v -0.38609195 0.12529819 -0.19711411
v -0.03411496 -0.39741573 -0.33683145
v -0.16011797 -0.19694076 0.23964164
v 0.30635992 -0.18051562 -0.20076706
v 0.26700705 0.12748089 0.62999821
v 0.11543717 0.18206541 0.34561718
v -0.05505365 0.28010717 0.23914191
v -0.14456969 0.06281550 -0.53159463
v 0.27361226 -0.00813723 0.59506720
v 0.02309516 -0.05326574 -0.51908493
v -0.44738400 -0.17782477 -0.25586888
v -0.09406857 -0.26097023 -0.47253087
v 0.25460565 0.23505583 -0.35576534
v -0.22646353 -0.23555924 -0.02004628
v -0.32438061 0.24553411 -0.18078884
v 0.19329575 0.14772250 0.36220405
v -0.32151306 -0.07455601 -0.31651723
v -0.57097095 -0.18745753 -0.12793463
v 0.41584390 0.14337063 0.35948750
v 0.40064806 -0.34586039 -0.32029748
v 0.48981175 -0.15360846 -0.09251922
v -0.29692015 -0.10266345 0.51714289
v 0.38781297 -0.01546361 0.43656796
v 0.28598958 -0.09234770 0.60549152
v -0.28317750 -0.16030304 -0.41925701
v 0.45090002 -0.30699909 -0.26225680
v -0.36730418 -0.02631234 0.52819395
v 0.05177406 -0.28689182 -0.29084545
v 0.33133507 0.18296851 -0.23540536
v 0.18115783 -0.04139252 0.31604418
v 0.27374679 0.24886109 -0.14303365
v 0.37603736 -0.24376450 -0.13669145
v -0.05808774 0.14470242 0.17213756
v -0.45837075 -0.37037784 -0.39916548
v -0.37766406 0.12394386 0.07239436
v -0.53250897 -0.12801844 -0.11791597
v 0.57211626 -0.07133368 -0.11767642
v -0.29279912 -0.09924027 -0.43764612
v -0.11669983 0.05450432 -0.57635283
v -0.44788626 -0.00735109 -0.06230210
v 0.14717314 -0.15525804 -0.47519106
v 0.50747460 0.11386700 0.10078537
v 0.39696911 0.21299109 0.16536826
v 0.07854795 -0.33563280 -0.44112656
v -0.13956137 0.30455410 -0.10715184
v 0.32453731 -0.12583171 -0.24781381
v -0.13043702 0.13422038 0.46669787
v -0.35253140 -0.15359142 0.34363335
v 0.06436170 0.33715239 0.22462648
v -0.09347345 0.01910110 -0.56660151
v 0.52727377 -0.30504721 -0.23337267
v -0.33471444 -0.23771432 -0.09930772
v 0.17481890 0.15966694 0.33274966
v -0.48679072 -0.26118430 -0.33791858
v -0.38138813 -0.12934756 -0.22545147
v -0.22518045 -0.17142479 -0.42232409
v 0.42449301 -0.22281370 -0.06772999
v 0.09023991 -0.30027559 -0.37718636
v -0.35669920 0.02159467 0.42439607
v 0.32434565 0.19759977 -0.21639699
v 0.42909455 0.10557333 0.07049271
v 0.39957157 0.06219739 0.14488214
v -0.08266033 0.36274320 0.39422679
v 0.15652505 0.32986498 -0.12427199
v -0.49728957 -0.17553443 -0.12999783
v 0.11377519 -0.28681567 -0.12061402
v -0.10042817 0.32445467 0.09380800
v 0.17018944 0.06018665 0.65278643
v -0.09642611 -0.24932131 -0.36217183
v 0.29365495 0.24650046 0.23986703
v 0.52096915 0.07670211 0.08865491
v -0.37381139 -0.17285851 -0.14995852
v -0.30979761 0.17997120 0.49241936
v -0.00844631 -0.27704319 -0.39454466
v 0.50155890 -0.15424937 -0.16996382
v -0.03658410 0.12805243 -0.56036925
v -0.18679407 -0.26281074 -0.39660996
v -0.34048072 -0.05847656 0.58329672
v -0.28665987 -0.13759717 0.57207185
v 0.38933325 -0.07537190 -0.11157525
v -0.41874576 0.08975985 0.20500350
v -0.00384320 -0.33443663 -0.32706305
v 0.39921993 -0.00568709 0.42687729
v -0.15995036 -0.32674643 -0.51064271
v -0.15794381 0.32051602 -0.26268181
v -0.39022279 -0.04350255 0.15037212
v 0.38073251 -0.18180491 -0.14316520
v -0.19840604 0.13036016 0.53368419
v 0.08381646 -0.44056436 -0.28846958
v 0.49008054 -0.10386024 -0.11321810
v 0.22394000 0.15948942 0.59563380
v 0.37938607 0.19246252 0.39288419
v -0.01084721 0.34280753 -0.05185959
v 0.23457371 0.09780252 0.69018662
v -0.09186846 -0.26493499 -0.45736372
v -0.16199730 -0.17895706 -0.44931155
v -0.40054142 0.02889575 -0.11275020
v 0.49129137 -0.02912788 -0.10191981
v -0.21355432 0.00644431 -0.24266422
v 0.45478803 -0.10145795 -0.18557623
v 0.11680205 0.09824328 0.38987732
v 0.10702150 0.34690285 -0.14503691
v 0.25051790 0.17770521 0.59928781
v 0.32025471 0.21492819 0.15593208
v -0.22034985 -0.12503317 -0.48484564
v -0.01788066 -0.16992591 -0.44380701
v 0.26155034 -0.09139860 0.07450037
v -0.16781071 0.06551655 0.55186504
v 0.07819912 0.06203686 0.38471463
v -0.26700065 0.11699873 0.18274806
v 0.42064312 0.08602227 0.59280264
v -0.03056047 0.40996838 0.30027661
v -0.13263819 0.33297661 -0.16168359
v -0.21862924 -0.21532685 -0.43931404
v 0.50768977 -0.10894555 -0.11274873
v -0.23696108 0.14538860 0.42686749
v 0.26721042 0.23930545 0.18338522
v -0.38892603 -0.05887825 0.41450271
v 0.01996086 -0.33330417 -0.46793410
v 0.54296774 -0.11084499 -0.11046992
v 0.52158499 -0.30850980 -0.24295478
v -0.38222551 -0.18158251 0.49727362
v -0.01764753 -0.24006930 0.15437998
v 0.07540090 -0.07486027 0.39277953
v 0.20438085 -0.07346772 0.35109937
v -0.32089102 0.03993912 -0.40085781
v -0.33214656 0.06280626 0.24331549
v 0.02151184 0.18861845 0.39852896
v 0.15344475 0.18645510 -0.46211889
v 0.35175586 0.03916436 0.20332344
v 0.41252443 0.04171772 0.15771268
v -0.54588205 -0.22007872 -0.12843329
v -0.14974038 -0.13121299 -0.51518941
v -0.51839328 -0.36062831 -0.37372357
v 0.22317851 0.02268508 0.69076395
v -0.21484458 -0.08439468 -0.44322318
v 0.27575174 -0.16036984 0.53483701
v 0.47970596 -0.02908626 -0.14750719
v -0.13187629 0.34421521 -0.22567765
v 0.11194623 -0.08636307 0.34318838
v -0.01625127 -0.17234308 0.30256242
v 0.35243124 -0.17740925 -0.13487135
v -0.57861018 -0.30461982 -0.27523953
v 0.24623853 0.15827079 0.46886891
v 0.17219128 0.04282257 0.57717317
v -0.34124368 0.18346073 -0.06301742
v 0.38438216 -0.09287441 0.28668800
v -0.03355139 -0.19056728 0.24687077
v -0.26182806 0.15859887 -0.38473120
v 0.38375291 0.00633904 0.14394882
v -0.56849283 -0.02635314 -0.17688295
v -0.32068545 -0.06482400 -0.38751447
v -0.31630114 -0.00122814 0.63742203
v 0.27915397 -0.14106518 0.57319444
v 0.29841855 0.14516982 0.47751039
v 0.46122694 0.06188511 0.29233807
v 0.02420913 -0.23292139 -0.36592257
v 0.33660182 -0.13087597 0.41602677
v -0.41920751 0.05182799 0.23273879
v -0.11065755 -0.43066525 -0.29800230
v -0.27033705 0.28962299 -0.14450933
v 0.36271182 -0.18333650 -0.16173729
v 0.54741096 -0.21078049 -0.16322555
v 0.42326474 -0.08404614 0.22556370
v 0.29528931 0.15304610 0.64798486
v 0.04177403 0.34812665 0.26135406
v 0.12015662 -0.43000180 -0.29472354
v 0.18692642 -0.25120220 -0.20307159
v 0.24662867 0.30030474 -0.18973760
v 0.46136814 -0.30707011 -0.16827995
v -0.07508964 -0.19072281 -0.37199283
v 0.26048577 -0.17238864 0.09546339
v -0.35798097 0.16848174 -0.05882959
v -0.56890637 -0.32123667 -0.21330947
v 0.33184820 -0.08826017 0.46449372
v -0.56504476 -0.35279548 -0.22042036
v 0.33985418 -0.04302700 0.65727895
v 0.56803000 0.14229231 0.12358375
v 0.25445047 -0.14462610 -0.32498127
v -0.58977151 -0.03701564 -0.12471260
v 0.42358327 -0.21643364 -0.19655693
v 0.10742514 0.17290451 0.35885757
v -0.16831678 -0.32508674 -0.52672690
v -0.10460494 -0.22596478 -0.47850469
v 0.11328697 0.34831104 0.31213817
v -0.45730054 -0.39117914 -0.39258629
v -0.53398252 -0.31648415 -0.27833340
v -0.51083833 -0.03347916 -0.10363052
v -0.42820686 0.04125451 0.29541770
v 0.40954652 -0.23009238 -0.09710832
v -0.47044486 -0.22427332 -0.24933757
v 0.24278496 -0.09694816 0.62949330
v -0.35239407 0.06100558 0.54125351
v -0.35889390 -0.17405967 -0.00269197
v -0.20760584 -0.08613427 -0.42911047
v 0.26791453 0.22517368 -0.34110147
v -0.16592343 0.21298175 -0.44548276
v -0.25745434 -0.02884587 0.08915964
v -0.43175814 0.00546399 0.17017195
v 0.19411959 -0.07329264 0.37580326
v -0.01734827 0.31178349 0.24839526
v -0.24201766 -0.16474582 0.37441373
v 0.36060312 0.15495341 -0.03979956
v 0.26683688 -0.12933159 -0.33821517
v 0.13864493 -0.25052056 -0.32022828
v -0.07302462 0.08212247 -0.52659357
v -0.27450278 -0.34870785 -0.35264093
v 0.14493802 -0.24150443 -0.24701507
v -0.50042814 -0.10429569 -0.25104004
v 0.22026923 0.25647384 0.24006712
v -0.14801480 -0.00084955 0.29977605
v -0.11362368 0.31928763 -0.01742542
v -0.13608436 0.30006099 -0.05532055
v -0.15362176 -0.03796540 -0.52174115
v -0.38067147 -0.17695859 0.53986561
v -0.23976311 -0.03185496 -0.49569777
v 0.10962333 -0.24590354 -0.36547533
v 0.23425338 -0.14158356 0.12886815
v -0.10345510 -0.22143063 -0.52293754
v -0.37646857 0.09358856 0.24072000
v -0.30701739 -0.03684749 -0.36373979
v 0.27354386 -0.10923386 0.32448399
v -0.41764730 0.05487660 0.23065448
v 0.24449363 -0.06113587 -0.40638083
v 0.27549130 0.16412127 0.64717257
v -0.39214852 -0.07658853 0.47006124
v -0.15005396 0.11494927 0.69424218
v 0.28244996 0.07502941 0.37298444
v -0.17803852 -0.03637404 0.61461592
v -0.18591791 -0.15385380 -0.42434233
v -0.34195539 -0.06186229 -0.32181329
v -0.06201121 -0.27274433 -0.04788867
v 0.09681729 0.30999577 -0.02831816
v -0.30377129 -0.05264890 0.61969090
v 0.17437989 0.32953733 -0.23195501
v -0.16219372 -0.32560626 -0.52028465
v 0.36209050 -0.05352032 0.64435339
v -0.48811358 -0.29701090 -0.34542209
v -0.28640181 -0.06193685 0.54713047
v -0.14753553 0.31223235 -0.24956262
v 0.14715683 0.06187254 -0.52302557
v -0.03500548 -0.01779583 -0.11095131
v 0.50555742 -0.10826837 -0.11823120
v 0.49046880 -0.03150461 -0.09557535
v -0.24712440 -0.17791626 -0.40311730
v 0.07206862 0.34082127 0.18929751
v -0.43878025 0.04818860 -0.07723635
v -0.28200272 0.17656699 0.52500826
v 0.28021333 0.10328833 -0.01109781
v -0.26154405 -0.21014097 -0.37210768
v -0.25299713 -0.14712927 0.54128730
v 0.36052200 -0.24554928 -0.23378693
v 0.51381516 0.03639478 -0.11062468
v 0.44513974 -0.01749571 -0.16734296
v 0.53612012 -0.23289219 -0.14120926
v 0.30835849 -0.07110365 0.49278313
v -0.26160419 0.17367029 0.40137583
v -0.34720582 -0.09915858 0.52532774
v 0.20749941 -0.10491411 -0.12181965
v 0.10039342 -0.30577257 -0.44174439
v -0.30230194 -0.02320369 0.65181917
v -0.13150737 0.32695183 -0.29766178
v 0.26899353 -0.15549442 0.54037195
v -0.17421633 -0.36152238 -0.39888895
v -0.31220391 0.16510689 0.47780862
v -0.48704350 -0.41057277 -0.39438611
v 0.36274272 -0.16117376 -0.10037311
v -0.56028897 -0.05286401 -0.15408254
v -0.12473729 -0.02514799 -0.39923561
v -0.20455632 0.15635940 0.52503681
v 0.42538172 -0.32384223 -0.30668074
v -0.58843374 -0.07217531 -0.11710155
v -0.05520347 -0.27922863 -0.30989516
v -0.37519878 0.00391720 0.41343832
v 0.04120145 0.34835798 0.02827434
v 0.41760147 -0.31803718 -0.29667506
v -0.42555374 0.14011528 -0.06892382
v 0.33676833 -0.29129896 -0.03008662
v -0.44491187 -0.21751833 -0.30166513
v 0.10317019 -0.18948434 -0.38573396
v 0.53004467 -0.28914288 -0.24874386
v 0.30720955 0.20812991 0.27157035
v 0.34962055 -0.07861947 0.40862989
v -0.19743976 0.06778388 0.61107194
v 0.38723254 -0.09033919 0.39326930
v -0.34105790 0.11596218 -0.09132372
v -0.31865931 0.20361850 0.25751841
v -0.10877118 0.23899961 0.39293075
v 0.33668727 -0.11517556 0.34519193
v 0.29234716 -0.09729980 0.44274673
v -0.35708806 -0.12378874 0.46668199
v -0.08828292 -0.26673463 -0.45955825
v 0.32548976 -0.02174718 0.12423906
v -0.47119671 -0.01658135 0.18866974
v -0.30251226 -0.14684604 0.57259500
v -0.21274272 0.10237999 0.57742506
v -0.60475379 -0.36211640 -0.23879796
v 0.08073556 0.20557964 -0.49325579
v 0.44425607 -0.36062548 -0.23688169
v 0.38334531 -0.04906017 -0.08197902
v -0.35294265 -0.12851319 0.59536457
v -0.24706049 0.07063048 0.70136690
v 0.31339672 -0.00344338 0.60379601
v -0.38115957 0.01912065 0.50608540
v -0.20544021 0.30469155 -0.13812326
v -0.23730548 0.22130042 0.19308606
v -0.13250373 -0.20715493 -0.42686081
v 0.11225397 -0.24596728 -0.36363730
v 0.32571658 -0.12639558 0.28935137
v -0.17025363 -0.26760352 -0.44025984
v 0.10085023 0.31677130 -0.02421280
v 0.30855772 -0.11720164 -0.32171535
v 0.16936761 -0.20685503 -0.05009568
v 0.48845011 0.05531050 -0.11006587
v -0.04295665 -0.28577939 -0.22111578
v 0.21724293 0.29673240 -0.32894507
v 0.51588154 -0.14702052 -0.09496617
v 0.35587591 -0.06424281 -0.31170791
v -0.23083767 0.29055479 -0.27468362
v 0.29526028 -0.03982097 -0.38234377
v -0.47269270 -0.20156917 -0.23684347
v 0.27854273 0.23407957 -0.08574454
v -0.34882087 -0.05338380 0.60134816
v -0.45421833 -0.17848013 -0.18785474
v -0.50164342 -0.29365253 -0.27894795
v -0.20225582 0.06256562 0.69674397
v 0.49514976 -0.08253649 -0.08360788
v -0.16490413 0.06118484 0.68104410
v -0.39208299 0.04582945 -0.11032753
v 0.07692596 -0.26264423 -0.23959175
v 0.04978675 0.34623715 0.01532553
v -0.05462572 -0.31667548 -0.47001955
v 0.41654915 -0.21955150 -0.20140722
v -0.43656781 -0.02674381 0.26569390
v 0.09427190 -0.34711355 -0.41490874
v 0.43741581 -0.35087675 -0.26639551
v 0.42964834 0.11680299 0.41889954
v -0.07383251 -0.05755308 0.40595415
v 0.36455637 -0.26279721 -0.02647489
v 0.21547550 0.23412803 0.26714596
v -0.27057022 -0.08605762 -0.42036167
v 0.03303979 -0.15431282 -0.48891300
v 0.06300460 -0.34722018 -0.41854692
v 0.04336118 0.26473266 0.35968772
v -0.45464158 -0.33403242 -0.43698460
v 0.39694884 -0.16963819 -0.23049846
v -0.28654742 -0.30348861 -0.47242585
v -0.53429073 -0.06449906 -0.12192193
v 0.33506107 -0.01197293 0.17306551
v -0.18495597 -0.06152787 0.49081105
v -0.49513844 -0.20795137 -0.17391425
v -0.46808481 -0.14203310 -0.17339940
v -0.53724098 -0.33285099 -0.27134627
v 0.00576605 -0.37443525 -0.35563073
v -0.23191783 -0.09427401 0.62404197
v 0.21604180 0.06552885 0.18623605
v -0.22500119 -0.01368850 0.49068558
v -0.32306767 -0.12346061 0.38146344
v 0.44355235 0.01249437 -0.13930553
v 0.36184555 0.12435601 0.45352778
v -0.50635177 -0.27715868 -0.31428820
v 0.22011037 -0.03992322 -0.17401534
v 0.35570186 -0.00158802 0.54896784
v 0.42013985 0.02997526 0.07385010
v 0.08913600 -0.33546808 -0.35197642
v -0.15239874 -0.04651543 -0.32957619
v -0.25433907 0.10209946 -0.45564795
v -0.24909103 -0.16985862 -0.44313192
v 0.03266971 -0.38113356 -0.41698337
v 0.26494452 0.25461397 -0.32861531
v 0.16692643 0.02104393 0.57153934
v 0.28183520 -0.06154836 0.50417233
v -0.31845367 -0.14573288 -0.07091166
v -0.45351347 -0.00780830 0.29012752
v -0.17214069 -0.26815313 -0.42582047
v -0.32857531 -0.07685607 -0.36990100
v -0.19502562 -0.03295536 -0.25711256
v 0.28076977 0.23828678 0.08688977
v 0.23381251 0.08708069 -0.43329060
v -0.12033261 -0.06899422 0.42766669
v 0.44956011 -0.30879828 -0.26094186
v -0.13401759 0.33348039 -0.28387403
v -0.38705540 -0.14173029 0.56959051
v -0.18849638 -0.05754668 0.48207039
v -0.25519526 -0.35090005 -0.38731828
v 0.33615768 -0.16015336 -0.13720325
v 0.28880781 -0.09672004 0.62297666
v 0.39412224 0.03610754 0.15194806
v 0.05887118 -0.35449690 -0.44350916
v -0.04649978 0.32955006 -0.32062131
v -0.13744617 0.33538669 -0.27853292
v -0.47852778 -0.09869114 -0.07019603
v 0.01012614 -0.18004555 -0.35856146
v -0.03573544 -0.33573553 -0.31465095
v -0.34920308 0.18102664 0.34180546
v 0.38256073 -0.08463072 -0.02292698
v -0.55334103 -0.05234575 -0.09629115
v 0.05662300 -0.15354085 -0.46122903
v -0.31244534 0.14723240 0.04227040
v -0.57098538 -0.11078374 -0.22776276
v -0.50467825 -0.16520715 -0.19389032
v -0.12237726 0.26378015 0.32562223
v 0.44876790 -0.33548042 -0.27765971
v -0.27366698 0.15292604 -0.40608549
v 0.29076493 -0.08106147 0.61786216
v 0.43288082 0.02324163 -0.00945607
v -0.13659096 -0.37980852 -0.37649825
v 0.11729089 0.33571151 -0.23228842
v -0.14834082 -0.32980743 -0.49248356
v -0.29219297 0.01848715 0.32908967
v 0.31393671 -0.08526405 0.04188939
v -0.49836433 -0.25959909 -0.30839840
v 0.31997317 0.20592587 0.19041146
v 0.46335915 -0.30778724 -0.22121756
v 0.05582707 0.35249072 -0.27105439
v 0.28408813 0.17563297 0.42693925
v -0.54709578 -0.08977651 -0.20247470
v 0.25579607 0.01846704 0.67332923
v -0.22230560 -0.10980223 -0.46936646
v -0.03868605 0.32284886 -0.18379235
v -0.39033720 -0.15888533 0.54759598
v -0.38651398 0.03924636 0.36231306
v -0.00281090 -0.25213093 -0.43660596
v 0.56080991 -0.07837567 -0.14069116
v -0.42664480 -0.11915840 0.27042130
v -0.39331794 -0.12483713 0.59548414
v -0.46801290 -0.21085846 -0.25519085
v 0.30388248 -0.04898834 -0.37670261
v -0.58845520 -0.16288844 -0.12733281
v 0.03386020 0.35039610 -0.21985100
v 0.46981868 -0.28348228 -0.25611496
v 0.26556998 0.01378560 0.45706433
v 0.18324691 0.15670785 0.64629221
v -0.14303514 0.17451325 0.68428481
v -0.26905364 -0.07982246 -0.42220885
v -0.43662852 0.00474808 -0.17409140
v 0.43510211 0.12756898 0.32642150
v 0.18054610 -0.09840591 0.38506591
v 0.21372274 0.00761372 -0.45606428
v -0.23875533 0.07447229 0.59982342
v -0.31850129 0.14152205 0.38889313
v -0.51759458 -0.24602936 -0.25527334
v 0.50728744 -0.25694144 -0.14375526
v -0.05971926 0.26911318 0.37806696
v 0.14425588 -0.20158270 -0.44206792
v -0.49179420 -0.26150727 -0.25489786
v -0.18923163 -0.15902534 0.33598033
v 0.25206825 0.02104242 0.68863499
v -0.50415254 0.03360070 -0.04035206
v -0.39161432 -0.15574618 -0.18105087
v 0.37004191 0.14170064 -0.03969486
v -0.34511787 0.10354859 0.44774222
v 0.14266059 -0.18132485 -0.31773081
v 0.28688723 0.24197522 0.16827773
v 0.33030534 0.18582830 0.13633989
v -0.28089982 -0.16596754 0.34298041
v -0.34666598 -0.15058583 0.35393658
v -0.23333609 0.28881285 -0.19154835
v -0.10141216 0.29877728 -0.37123591
v -0.25067252 0.29314154 -0.15229061
v -0.50169337 -0.33988252 -0.28826097
v 0.55784494 -0.07700790 -0.19474024
v 0.35781679 -0.08110489 0.45548791
v -0.48841500 -0.09468409 -0.14084384
v 0.36130106 -0.04549288 0.62228328
v 0.40973598 0.08662313 0.61375725
v 0.43375999 -0.27530110 -0.17622155
v 0.13205880 0.26091158 -0.42984170
v -0.49834889 -0.19384331 -0.18676825
v 0.11695427 -0.24894774 -0.18951239
v 0.21366858 -0.01707104 0.56453180
v -0.32988498 0.04950164 0.57187688
v -0.16256630 -0.28469467 -0.35557798
v -0.38553300 -0.03216255 0.36574379
v -0.60031909 -0.33101684 -0.24689370
v -0.35558042 -0.10574904 0.62505788
v -0.33177358 -0.14870457 0.37137437
v -0.00731882 -0.07754070 -0.51754546
v -0.12607093 0.30813140 -0.06711616
v -0.32940564 0.06497517 0.43678170
v 0.24338765 -0.06774917 -0.43173021
v 0.31711340 -0.04646855 0.42459407
v -0.54118323 -0.11223793 -0.22114915
v 0.29616991 0.25406119 -0.16877404
v -0.42626920 -0.11959886 0.26994884
v -0.48788059 -0.28563789 -0.31330058
v 0.03013859 0.35078049 -0.21120714
v 0.04396486 -0.35440233 -0.32793936
v -0.10985631 0.18256147 0.01256480
v 0.41618285 0.01950701 -0.18918280
v 0.01196617 0.35190237 -0.21102914
v -0.08245839 -0.18526883 -0.44597575
v 0.51504177 -0.08382317 -0.17338030
v 0.26686108 -0.03922560 0.32503289
v -0.32226643 0.08601081 0.56319088
v 0.40434331 -0.02573540 0.15657046
v -0.15973145 0.29469952 -0.10508360
v -0.40921295 -0.16981313 -0.29595113
v -0.38967445 -0.21933171 -0.27899849
v -0.34070694 0.15556905 0.24792615
v -0.58231467 -0.21723185 -0.27125654
v -0.15664291 0.03114875 0.65218443
v 0.20602445 -0.24610959 -0.32696956
v -0.36111826 -0.05036938 0.60944587
v 0.42512152 -0.23166229 -0.17584141
v 0.43389624 -0.09008525 -0.07056445
v -0.30910364 0.21724838 0.26970795
v -0.65961820 -0.14961252 -0.16159903
v 0.43033621 -0.22253114 -0.20870560
v 0.06075886 0.24050643 0.33871329
v 0.28726396 -0.05559424 0.51292235
v 0.24717875 0.22088157 0.31491429
v -0.36398804 -0.08955311 0.60432893
v -0.10156780 0.26284486 0.23179801
v -0.40528592 -0.06818797 0.60082805
v -0.00443732 -0.34257212 -0.26771870
v -0.56385225 -0.10632298 -0.10954081
v 0.23868543 0.10213627 0.33695155
v -0.20096557 0.24221447 0.19778144
v -0.11379818 0.32248372 -0.10061703
v 0.29448211 0.25857455 0.03658476
v 0.29664126 -0.01152531 0.59789354
v 0.03193019 -0.33320439 -0.36068314
v 0.29947156 -0.08729982 0.48117578
v 0.03640484 0.44754910 0.22150967
v 0.54109812 -0.00757546 -0.09787667
v 0.24146000 0.08788256 0.17527390
v 0.03808668 -0.28445473 -0.50298089
v -0.14273171 -0.21240313 -0.46102417
v -0.06925750 0.26304123 0.31005976
v 0.52357495 0.07560947 0.09695873
v -0.43741396 -0.13279290 -0.19476306
v 0.08603433 -0.33421138 -0.48776972
v -0.31044319 -0.12233143 0.62944853
v 0.28452745 -0.06294287 0.63870037
v 0.01157775 -0.44991079 -0.34170991
v 0.01255633 0.30603996 0.22798479
v 0.02722868 0.00236771 -0.55213797
v -0.06097504 -0.03684906 -0.14600652
v -0.64391500 0.00956295 -0.07786009
v 0.33865160 -0.02119178 0.67201614
v 0.35872766 -0.12652904 -0.12664641
v 0.12236638 -0.25297481 0.03255012
v 0.33309054 0.06709059 0.09621582
v -0.11698657 0.12291512 0.45767567
v 0.32591864 0.20312899 0.22882792
v 0.46171790 -0.33028156 -0.27599680
v -0.35962224 -0.13868633 -0.00619263
v -0.30511573 -0.04417888 -0.37091839
v 0.06437636 0.36586785 0.08749257
v -0.17789468 -0.01105563 -0.30412647
v -0.52016795 -0.22859654 -0.26341739
v 0.38901585 0.08930823 0.46736974
v 0.46414036 -0.23896587 -0.15438479
v 0.41865474 0.05729137 0.18096490
v 0.36332738 -0.15050510 -0.15983628
v -0.51857924 -0.32781684 -0.39987421
v -0.35045779 -0.17334569 0.54350382
v -0.28459132 -0.11057571 -0.43788150
v 0.13548994 -0.21270183 -0.39435351
v -0.29894513 -0.10691129 0.40090322
v 0.06834574 -0.26744270 -0.30124298
v -0.17471898 -0.14747238 -0.49101818
v -0.17834204 -0.14109328 0.44414744
v 0.49342826 -0.10618315 -0.16017376
v -0.39443088 -0.08722787 0.41946757
v -0.16976196 -0.25192696 0.06215673
v -0.34257630 -0.12772731 -0.29748461
v 0.22461721 0.17373748 0.34434912
v 0.01690465 0.34609929 -0.01650597
v -0.01902314 -0.33096027 -0.28657472
v 0.42458794 -0.04063176 0.40364364
v 0.11392428 0.32549843 -0.32968447
v -0.23875538 0.19946499 0.36879495
v 0.36132935 -0.05562105 -0.10135086
v -0.12139416 0.14737482 0.46354565
v -0.19592598 -0.16197939 -0.40779135
v 0.16946308 -0.14162236 -0.46865082
v 0.35790855 -0.08846658 0.32764983
v -0.35866487 0.03399116 0.40052477
v -0.35832155 0.14141166 0.02234917
v -0.38408867 0.04253670 0.46760392
v -0.37179089 0.09644935 0.15158841
v -0.34958157 0.16871779 -0.05557188
v 0.42341840 0.07773354 0.43507725
v 0.34405133 -0.32405522 -0.31989670
v 0.01756858 -0.27906945 -0.47418934
v -0.20880499 -0.07465181 0.65728211
v 0.18770352 0.24439552 0.17843939
v 0.26750198 -0.00119120 0.45672467
v 0.23281424 0.15279195 -0.41379425
v 0.29639533 0.02187688 0.41894960
v 0.24194643 0.13083446 0.30065337
v -0.43873250 -0.07991201 -0.28693396
v 0.35887015 0.07087681 -0.26004052
v 0.33311653 -0.05963206 0.40852776
v -0.14651477 -0.16835302 -0.49114317
v -0.02038129 0.10248061 0.09031083
v 0.02544460 -0.27087459 -0.19624111
v 0.40262663 0.21955606 0.27747539
v -0.04117919 -0.33294567 -0.42774361
v -0.15571608 -0.17250049 -0.50126314
v 0.00299984 -0.18161646 0.30940983
v 0.12011889 -0.33548993 -0.31933516
v 0.21185182 0.00403778 0.61506164
v 0.03305816 0.22663902 0.35737994
v 0.38930202 0.18029475 0.15011305
v 0.42557448 -0.25504148 -0.26670605
v -0.52351409 -0.33050048 -0.18907295
v 0.40384787 0.23928465 0.17047037
v 0.33460039 0.00971477 -0.34887767
v -0.55163378 -0.44522250 -0.20292023
v -0.17384744 -0.00576186 0.58367729
v 0.42444992 -0.23525903 -0.22447759
v -0.36698636 -0.02249029 -0.18440340
v 0.33258957 -0.06090212 0.24966939
v 0.03504156 0.41493893 0.27245760
v -0.53020298 -0.15137857 -0.21355630
v 0.10860916 -0.27003437 -0.44726616
v -0.38979650 -0.17999201 -0.14805372
v 0.49691215 -0.08452764 -0.17608522
v -0.41196766 -0.11939064 -0.25861391
v -0.40034741 -0.02565931 -0.06850038
v -0.36226532 -0.10867590 -0.32869926
v -0.66513938 -0.18909703 -0.18258245
v 0.36468583 0.05136091 0.12064914
v -0.07801837 -0.29429591 -0.34034282
v 0.37435073 -0.01273271 0.62949324
v -0.22449806 0.19629934 -0.39416140
v 0.02588414 0.09762514 0.18052089
v -0.27268204 -0.19829272 0.49851465
v -0.40103960 0.14243120 0.25751001
v -0.38205534 0.08143754 0.22060391
v 0.38460869 -0.07806095 0.36843428
v 0.41019166 -0.38125655 -0.18755862
v 0.32897148 -0.01364537 0.57418275
v 0.25256610 0.17066610 0.60223848
v -0.24163115 -0.20003003 -0.42170292
v 0.08912871 0.33415264 0.25569773
v -0.23999950 -0.18804130 -0.41691110
v 0.24007055 -0.07607183 -0.19453415
v 0.41917840 0.08107162 -0.07435032
v 0.03329398 -0.22563317 0.19474147
v -0.65264362 -0.12034868 -0.12328079
v -0.48055604 -0.34112281 -0.28869921
v 0.04687958 0.36004344 0.29176465
v -0.29744899 -0.14035410 -0.40453967
v -0.22253534 0.03379320 0.49910894
v -0.35239625 -0.07907691 0.58771217
v -0.28688249 -0.07578577 0.61259365
v -0.38082749 -0.19935043 -0.10062076
v 0.51558459 -0.18312103 -0.08009553
v 0.05119873 -0.33722457 -0.49750853
v 0.04440318 -0.13906005 -0.40170461
v -0.56524622 0.06810592 -0.11888907
v -0.32613569 -0.06058142 -0.37885836
v -0.57109952 -0.35507223 -0.29349840
v -0.17852928 0.26801199 0.22943254
v 0.49576688 -0.16806644 -0.09230058
v 0.09702249 0.35083985 -0.14071845
v 0.02114198 0.14124940 0.38732022
v 0.26346797 0.16628407 0.61915290
v 0.33205745 0.05501503 0.23366618
v -0.31957176 0.19194739 -0.07585153
v -0.31115401 -0.11745059 0.31438977
v -0.48984644 -0.30654046 -0.33424878
v 0.23690832 -0.00769219 0.49892238
v -0.23333782 0.27201375 -0.30404225
v -0.40223891 -0.09762598 -0.17252228
v 0.35895824 0.05443897 0.19786145
v -0.25844163 0.07144574 0.47246414
v 0.41223711 0.01308443 -0.19122896
v -0.23019581 0.23762411 0.14812534
v -0.51663864 -0.33260691 -0.39934495
v 0.23531024 0.16668525 0.54106140
v 0.07546605 -0.06635623 -0.52652848
v 0.34531465 0.08738215 0.61264491
v -0.47690830 -0.11602320 -0.30707157
v -0.00110765 0.35811996 -0.21953373
v 0.56584001 -0.08041404 -0.11328651
v -0.32869607 -0.16195190 0.03613207
v 0.07678830 -0.30899066 -0.41779685
v -0.60978842 -0.33695412 -0.20687598
v 0.38282764 0.01049489 -0.19824803
v 0.14756957 0.30614519 -0.04035091
v 0.37433863 0.20163502 -0.07703502
v -0.28776327 -0.03870199 0.63749635
v -0.31754205 -0.12811910 0.62920737
v -0.08200383 0.04193773 0.36573255
v -0.18785726 0.25629207 0.28499377
v -0.40751073 -0.37367490 -0.48376855
v -0.12998623 -0.26568496 -0.37361455
v -0.20699605 -0.30471131 -0.40074658
v 0.43530899 -0.00247021 0.57590616
v -0.21060142 -0.30089274 -0.42823729
v 0.35690290 0.24344215 0.16128969
v 0.47866145 0.02697146 0.10118498
v -0.56224608 0.06275855 -0.08251719
v -0.34528783 0.11598589 -0.30067116
v 0.50319332 -0.05356811 -0.19764191
v -0.49886557 -0.43777475 -0.37983355
v -0.20475540 0.05622721 0.64431834
v 0.11698718 0.32301307 -0.30637604
v -0.36017278 0.15860794 0.09901573
v -0.01961286 -0.29754478 -0.38538641
v -0.37209511 0.14032802 0.33746451
v 0.06052421 -0.20033011 -0.45591232
v -0.14519447 0.05453364 0.55748671
v -0.35215512 -0.07711694 0.62800801
v -0.39355373 0.08543810 -0.32556444
v -0.16289608 -0.18192789 0.19341500
v -0.59169638 -0.06767822 -0.11972886
v 0.05933790 -0.34003341 -0.40528551
v 0.06792178 0.36701775 -0.24706228
v -0.17733753 0.17125759 0.55016023
v -0.01588064 0.19188404 0.42280748
v 0.08391530 -0.14753421 0.33839381
v 0.16341460 0.30718392 -0.12052512
v 0.30574161 0.22331530 0.52350533
v 0.13313532 -0.24028835 -0.14346719
v -0.16106188 0.32542196 -0.26631385
v 0.18781346 0.01872455 0.55637097
v -0.06343707 -0.27907714 -0.08588062
v 0.09924318 -0.19101009 -0.34911346
v 0.24340647 0.25213006 0.17232972
v -0.52792215 -0.35030985 -0.37322956
v 0.37421826 -0.21918951 -0.19660714
v -0.14408040 -0.16494349 -0.36285591
v 0.30353233 -0.34637973 -0.28012925
v 0.38293451 -0.08470413 0.59022641
v -0.16673061 0.32190800 -0.29512516
v 0.39670986 0.09316079 0.06137850
v -0.21260953 -0.09095920 0.59323621
v -0.34019953 -0.13760546 0.55578113
v 0.26119134 0.27486631 -0.17188981
v -0.42517889 0.04132203 0.24479367
v 0.50225765 -0.06870013 -0.18702793
v -0.21871476 0.16795041 0.52836227
v -0.39894596 -0.05631019 0.44900173
v 0.21435499 -0.00191426 0.66310114
v 0.49069950 -0.10010100 -0.14045696
v 0.37985238 -0.30755159 -0.30327019
v -0.41452685 -0.08687636 0.32714793
v 0.25632527 0.22545883 -0.35790643
v -0.64108890 -0.16302779 -0.14977185
v 0.09823691 -0.41355219 -0.28944656
v -0.28433096 -0.06634064 0.61735141
v 0.35656980 0.15811478 -0.08517724
v -0.51371664 -0.16731073 -0.15839833
v 0.34960282 0.17757136 -0.27661520
v -0.14214101 0.12650788 0.53703415
v -0.43456921 -0.24153106 -0.13157398
v 0.43365914 -0.26680362 -0.25313020
v 0.42516655 0.07933691 0.60317421
v 0.23260313 -0.11977758 -0.41303122
v 0.49219498 -0.14220938 -0.12335010
v -0.16648296 0.13384995 0.66907609
v 0.01971263 -0.28763387 -0.27589530
v 0.42690629 -0.26639879 -0.10538292
v 0.51010156 0.16155289 0.09438185
v 0.51567411 -0.31221849 -0.21117218
v -0.31171578 -0.10935482 0.59979022
v 0.45834455 -0.30241993 -0.23170649
v 0.20037241 0.00905514 0.57904005
v -0.25797188 0.19021660 0.21568845
v 0.48704189 0.02975908 -0.08582348
v 0.49225605 0.11201763 0.19715080
v -0.13515437 -0.36677641 -0.38297680
v 0.36669481 -0.10802423 -0.22797163
v 0.30687749 0.23971064 0.52610475
v -0.54221523 -0.32639748 -0.16427264
v -0.35927010 0.03982099 0.42760417
v -0.44802767 -0.17526734 -0.25478464
v -0.47830057 -0.22745451 -0.36447135
v -0.53426224 -0.03363226 -0.08713175
v -0.32723737 -0.07939077 0.51063073
v 0.23382041 -0.01617003 0.64204633
v -0.17240009 -0.31293827 -0.34328175
v 0.39592755 -0.04291043 -0.13438146
v 0.01621763 0.27343726 0.41338798
v 0.46424353 0.01531291 0.08789047
v -0.50764364 -0.04264418 -0.08215465
v 0.32799241 0.05561469 0.64416730
v 0.17082044 0.32270736 -0.26723042
v -0.36278501 0.05698479 0.40056199
v -0.00168058 -0.26363879 -0.39792579
v 0.35391331 0.05009093 0.64135367
v -0.31829739 0.12295464 -0.37313455
v -0.58329511 -0.36840674 -0.18223046
v -0.18831480 0.04302718 0.46658844
v -0.21022940 -0.33513248 -0.48305833
v -0.31972292 0.15181658 0.15965948
v 0.27230006 -0.20117983 -0.04359284
v -0.23032504 -0.11104347 0.61746919
v -0.24589589 -0.08210512 0.64199221
v -0.05216689 -0.28707358 -0.07565539
v -0.49725050 0.00786963 -0.07765887
v 0.25944397 0.27157584 -0.19270155
v -0.29293758 0.03561972 0.64666295
v 0.36273628 0.13615605 -0.24187304
v -0.52930963 -0.35937437 -0.26900175
v -0.63615096 -0.10038215 -0.14395417
v 0.43320179 0.03908211 0.15337461
v -0.12793989 0.33826420 -0.27581167
v -0.22799546 -0.16014349 0.41742337
v -0.01035282 -0.32751590 -0.25399312
v -0.16916242 0.05800888 -0.51657104
v -0.27003953 0.21674573 -0.33476895
v -0.02429044 -0.38127017 -0.32017362
v 0.10103831 -0.09216401 -0.33047003
v -0.05598899 -0.25133348 -0.49864018
v -0.18415648 -0.01560259 -0.31688088
v 0.54784566 -0.29019633 -0.23080117
v 0.42027211 -0.16562782 -0.22332434
v -0.17378971 0.02449562 0.63047647
v 0.26288718 0.15346743 0.67443687
v -0.01997034 -0.41118327 -0.29695866
v 0.28015643 0.27959901 0.02961201
v -0.45270336 -0.13989958 -0.09143274
v -0.20408443 -0.31491557 -0.23668446
v 0.21663105 -0.02773870 0.50265121
v -0.30848017 0.03210693 -0.18056747
v -0.55139482 -0.21453482 -0.15794100
v -0.08119544 -0.12439622 -0.36115968
v -0.10698360 -0.30378583 -0.50726712
v 0.13766731 -0.11346123 0.35042867
v 0.43631011 0.22710164 0.37031209
v -0.14299011 -0.08211809 0.33350268
v 0.42785734 0.20227984 0.36336201
v 0.13709860 0.31864807 -0.13311002
v -0.47594273 -0.03581826 -0.22295131
v -0.10682095 0.25699925 0.26767477
v 0.28283963 0.18133430 0.63938886
v -0.26434597 -0.00515960 -0.45545202
v 0.12822567 0.06414609 0.32673615
v 0.18641913 -0.24768330 -0.33170548
v -0.02086701 -0.25323874 -0.42360479
v -0.24924964 -0.11175100 0.58587426
v -0.34049487 -0.13930705 -0.34254619
v 0.15530086 0.31104335 -0.08155021
v -0.15448350 0.02339713 -0.51919568
v 0.07031583 0.40441912 0.32900709
v 0.00634730 0.27334476 0.31347913
v -0.36872679 0.14711213 -0.26497269
v 0.24963212 0.28189117 -0.23110764
v -0.42101073 0.13078117 0.22974752
v -0.49713999 -0.28943229 -0.27348122
v 0.34648123 -0.15049911 -0.26911986
v 0.45240766 -0.23944564 -0.17474471
v -0.19060998 -0.19023004 -0.47846553
v -0.00453734 0.28267828 0.31748107

