# https://github.com/mikedh/trimesh
v 0.33499426 -0.26093373 0.00504923
v 0.52849054 0.22443148 -0.07153337
v -0.70405388 -0.08365746 -0.06919962
v 0.43029934 -0.23737150 -0.07616797
v 0.57258308 0.17830408 0.01287984
v -0.57371593 -0.16618848 -0.10298046
v 0.33245707 0.25659439 -0.15996201
v 0.30220863 -0.07675041 0.45558327
v -0.52135736 -0.29002130 -0.09348882
v -0.08226068 0.35721323 -0.18772875
v 0.27991894 0.28101346 -0.22632164
v 0.40775424 0.03756093 -0.25258824
v 0.29147670 0.20967746 0.34444949
v -0.11406928 -0.05428761 0.47532484
v -0.17899930 0.05449860 0.51848543
v 0.36823028 -0.23291153 -0.00996900
v -0.33155772 -0.27443734 0.35678336
v 0.14274833 0.28546634 0.35242718
v 0.22266361 -0.29518008 -0.29554746
v -0.59703153 -0.18997103 -0.07843059
v 0.46568060 -0.18517067 -0.06314555
v -0.24085730 -0.36610210 -0.29545167
v 0.21935800 -0.29246473 -0.01822802
v -0.55840087 -0.00152332 -0.06615087
v -0.08106157 -0.37122840 -0.38016102
v -0.09061413 0.35885939 -0.18771940
v -0.41016769 -0.34124732 0.31763172
v 0.24842022 -0.14903978 0.49944237
v 0.11163846 0.31506568 0.26185346
v 0.21693933 -0.10703945 0.55743611
v 0.00267977 -0.34079677 -0.28263497
v -0.61444294 -0.13651580 -0.09541282
v -0.14921823 -0.16232745 -0.55249053
v 0.27355728 -0.30254304 0.21626495
v 0.21239865 -0.28919873 0.10487166
v 0.06825373 0.25558570 -0.39892223
v 0.08846350 -0.32013342 -0.18079838
v 0.28357050 -0.23880674 -0.27779087
v -0.34668231 -0.21452728 0.34534651
v 0.52134877 -0.06892447 0.07824385
v -0.59134638 -0.24761569 -0.08466554
v -0.10006739 -0.21194743 -0.52917790
v 0.01952829 -0.04980367 -0.51849520
v -0.12060016 -0.15682313 0.46245340
v -0.19191904 -0.33006945 0.11488688
v 0.44269675 -0.18000795 -0.02192527
v 0.46097860 -0.08141508 0.08163315
v -0.14947024 -0.24431258 0.36802879
v -0.20871732 0.11313336 -0.38470691
v 0.31352291 0.07452229 0.46354756
v 0.23477921 -0.15740155 0.47847605
v -0.48278230 -0.17573899 0.02113780
v -0.15357202 0.10377803 0.44404042
v -0.15927407 -0.33298081 -0.43533972
v 0.15395056 0.34699571 0.19477029
v 0.47280583 -0.17659663 0.04190563
v 0.23632401 -0.26838148 -0.25549161
v 0.60383731 0.06554085 0.03146994
v 0.46337080 -0.17632027 -0.08580354
v 0.23234867 0.27947643 -0.14572173
v 0.45219159 -0.18088761 -0.10180546
v 0.11378293 -0.34320429 -0.28035614
v 0.28553247 0.33472306 -0.03642076
v 0.32406020 0.27671310 -0.14746401
v 0.21111448 -0.26920202 -0.42527455
v -0.33776882 -0.33208057 0.05972084
v -0.56067258 -0.23720488 -0.07595271
v 0.04431999 -0.33589345 -0.38941252
v -0.24067695 0.29907575 0.03036223
v 0.34166020 0.07823423 0.38799649
v -0.68789244 -0.18600538 -0.05983916
v -0.07135035 -0.35591689 -0.31555381
v 0.26600978 0.25600016 -0.30685800
v 0.33628717 -0.26490238 -0.10591674
v -0.12353761 -0.08725011 -0.57476866
v 0.40432119 -0.05045730 -0.34132111
v -0.09319407 -0.36607742 -0.36325312
v 0.43424129 -0.07563289 0.19298975
v -0.49102861 -0.00000437 -0.19890216
v -0.60186934 -0.07486817 -0.10736185
v -0.36637968 -0.35563105 -0.28333089
v 0.46721435 -0.17391464 -0.07622874
v 0.09689778 -0.37113443 -0.38895166
v -0.52931261 -0.07454276 -0.06925145
v 0.30515203 -0.26832569 -0.06130889
v -0.48678535 0.14862931 0.23829921
v 0.46967202 -0.04358555 0.32735196
v 0.34661311 0.05717841 0.37318704
v 0.44306648 0.22784784 -0.12635790
v -0.56649888 0.17686304 -0.03211783
v 0.08662882 0.29944608 0.38588148
v -0.03308995 -0.38421625 -0.02824923
v 0.46500680 0.24832623 -0.05351192
v -0.30728090 -0.37888825 -0.26886055
v -0.39052850 0.00527330 -0.34274626
v 0.21278183 -0.31944609 -0.06276600
v -0.48371553 0.03646034 -0.25152430
v 0.08347328 0.29500067 0.37042817
v -0.31862080 -0.27095106 0.29617590
v -0.17217112 -0.25055811 -0.50227106
v -0.41714501 0.18984567 0.19026718
v -0.24050698 -0.35874119 0.02127865
v 0.14169249 -0.21293390 -0.48653406
v -0.34796754 0.08650824 0.22561634
v -0.50685179 0.08377416 0.16503501
v 0.34306121 -0.24644312 -0.10494804
v 0.38845944 -0.09859210 -0.13759442
v 0.31156728 -0.25501227 -0.23082927
v 0.39979118 -0.05132545 0.38087663
v -0.31790847 -0.20405348 -0.43829092
v -0.05745623 -0.04164168 -0.50716341
v -0.11273903 -0.26005840 -0.48550260
v -0.21822108 0.31955397 -0.16300377
v -0.23576877 -0.32960087 0.22815332
v -0.15798567 -0.27332619 0.41154355
v 0.42833632 -0.28719658 -0.11982082
v 0.41110897 -0.06163926 0.30309424
v -0.04780240 0.31117141 -0.36781168
v 0.24454877 -0.16160867 0.45586810
v 0.31860173 -0.25890815 -0.00824732
v 0.33689770 -0.24338095 0.00892192
v 0.40303895 -0.15895388 0.27012318
v 0.12868896 -0.29263514 0.20391628
v 0.46759659 -0.01725576 -0.06129053
v -0.16272430 -0.28432733 0.30386168
v -0.06357408 -0.15072758 -0.53869265
v -0.12103033 0.21491604 -0.40659404
v -0.17896771 -0.26210117 0.35098776
v -0.21581672 0.31097528 -0.12971495
v -0.28769544 -0.10143431 0.46012804
v -0.31095722 -0.10072166 -0.45182049
v -0.15486838 -0.26418304 0.42391488
v 0.68191075 0.12578657 -0.02315104
v 0.36215958 -0.25545257 -0.14130220
v 0.34123281 -0.03823958 0.45095351
v 0.34331739 -0.25662526 -0.14877456
v -0.09368396 0.17618071 -0.45113838
v -0.22749737 -0.39974868 -0.31950089
v -0.25817999 0.26095942 0.18554966
v -0.24568963 -0.05510363 0.45753479
v 0.52848732 0.18093391 0.12912539
v -0.06120808 -0.08456242 0.52679878
v -0.37032259 0.03497288 0.33119574
v 0.02872901 -0.31346467 -0.46334898
v 0.37989348 -0.23679022 -0.09402934
v -0.26522326 -0.16507334 -0.49946752
v 0.44296268 -0.14444172 -0.01866001
v -0.18605946 -0.31922311 -0.43271911
v -0.00335950 -0.36469510 -0.31490132
v 0.34715873 -0.12247270 -0.38721350
v 0.31145224 -0.22109878 -0.26412246
v -0.42408231 -0.31091583 0.15980205
v -0.13049439 -0.34165210 -0.41778684
v -0.29641315 -0.21635127 0.44149554
v -0.00256535 -0.36009365 -0.30230245
v -0.27908054 -0.24006307 -0.47927856
v -0.66677809 -0.11013708 -0.05430532
v -0.22176597 -0.37259173 0.08800080
v 0.41102856 -0.21208036 0.09058405
v 0.05777866 0.32517534 0.29431596
v -0.07649322 0.23960228 0.31349587
v -0.47216946 -0.28275955 0.01808740
v 0.33117178 -0.22892945 -0.25004700
v 0.48825705 -0.13690695 -0.04306614
v -0.19124560 -0.22112957 0.43653166
v -0.09711268 0.25266066 -0.36698160
v -0.68583125 0.04451196 -0.04558650
v -0.04299531 -0.03023547 -0.53918874
v -0.52902287 -0.31601268 -0.07341118
v 0.53834748 -0.09542642 -0.07755082
v -0.65926242 -0.08140370 -0.02832398
v 0.18315472 -0.26092166 -0.42522091
v -0.24509045 -0.36272100 -0.32756203
v 0.27647555 -0.11406825 -0.39457327
v -0.29819208 -0.29037613 0.32977086
v 0.43181118 0.02630281 0.35363761
v 0.36411598 -0.26391438 0.01032668
v -0.05454323 -0.36250299 -0.20271969
v 0.04242748 -0.35010591 -0.33788556
v 0.36733443 -0.25749925 -0.10167801
v -0.15357807 -0.01310416 0.11191468
v -0.16533181 -0.25207713 -0.48256227
v 0.36634380 -0.21716022 -0.03160357
v 0.44429225 0.10468491 0.33249199
v -0.51529694 -0.17078687 -0.23166330
v 0.20811714 0.03824764 0.49959564
v 0.52990288 -0.10708870 0.00030980
v -0.18924186 0.29455590 0.24184984
v 0.09095226 0.35800907 -0.15202190
v 0.47599661 -0.11938164 -0.16546945
v 0.19740696 -0.15160193 0.54764086
v 0.18980715 -0.29062003 0.02247182
v -0.12225211 -0.36062163 -0.29061168
v 0.10988191 0.32219234 -0.29093054
v 0.15338776 -0.09097214 0.54491138
v -0.40345922 -0.10332651 -0.39684388
v 0.29015207 -0.32810670 -0.02168004
v -0.02042305 -0.32165718 0.18001717
v -0.40136290 -0.25115436 0.29397547
v -0.30612746 -0.13486418 0.45778936
v -0.20738856 -0.38313982 -0.05251896
v 0.39306530 -0.16944043 0.29290432
v 0.40755236 -0.13678923 0.03662181
v 0.37717551 -0.23336738 0.03524923
v -0.27326858 -0.34205070 0.20287305
v -0.46647632 -0.16620712 -0.22397941
v 0.29304576 -0.22727987 0.40986353
v -0.44791085 -0.18267980 -0.31594506
v -0.47353917 0.15695754 0.20916048
v 0.18200630 -0.06244142 0.50321627
v 0.54662997 0.15153618 0.16715235
v -0.27290612 -0.39256126 0.09680964
v 0.34592637 -0.28468275 -0.13183494
v 0.42169720 -0.05933330 0.33684602
v -0.52180672 -0.22366020 -0.18269548
v -0.07833292 -0.38021341 -0.25134718
v -0.00100716 -0.00588572 -0.54667211
v -0.31646883 -0.21627690 0.39010742
v 0.14896104 0.34745526 -0.16768296
v -0.47787660 -0.23244961 -0.19287701
v 0.22961126 -0.13885422 0.46752265
v -0.52542603 -0.08184759 -0.24930090
v 0.74559027 0.13990572 -0.05172719
v 0.59727132 0.05900647 0.15775487
v 0.10661810 -0.38570559 0.08366322
v -0.13261752 -0.25821981 0.44104940
v -0.53953576 0.15770800 0.00487970
v 0.36120898 0.17042878 0.38008311
v 0.58620906 -0.09015304 -0.14119798
v -0.06952849 -0.34102303 -0.39965582
v 0.58025265 0.28451875 0.01349258
v -0.08522257 0.18613349 0.51095831
v 0.34493348 -0.15762596 0.35202819
v -0.55810738 -0.20105658 -0.08479729
v 0.42531174 -0.14882380 0.29447407
v 0.41710636 -0.09750645 -0.31417891
v -0.49138924 -0.19672643 -0.24731120
v -0.54469001 -0.26386476 -0.14537099
v 0.25264174 0.02223045 -0.40094540
v 0.12516846 -0.31119284 -0.42516428
v -0.60583353 -0.24341437 -0.08222818
v 0.22254299 -0.27502677 -0.40267149
v -0.48141262 -0.26350653 -0.28544676
v 0.30476016 -0.31145883 0.03810018
v -0.42812768 -0.40647089 -0.22933757
v -0.46150231 0.06421422 -0.20211759
v 0.20865813 -0.31443578 0.26154384
v -0.51806194 -0.12995729 -0.17145787
v -0.30188829 0.05465451 -0.44784790
v 0.60094035 -0.07673608 0.11071619
v -0.13322566 -0.22331816 0.48966575
v -0.39222470 -0.24804290 0.30906683
v 0.39788902 -0.24924605 -0.02492256
v 0.27400583 0.21230018 -0.40666336
v -0.22313480 0.25178295 0.22290596
v 0.30452043 -0.35396230 -0.07436410
v 0.29502693 -0.27507955 0.07549827
v 0.38025507 0.04011736 0.30702189
v 0.21282035 0.30173391 0.11793444
v -0.23378210 -0.15375218 0.45435134
v 0.31325197 -0.22172786 -0.26316175
v -0.05853899 0.16681188 0.53091180
v 0.18399711 -0.08224501 0.48882085
v -0.08958757 0.34715882 -0.21445924
v 0.33652800 -0.16495100 -0.16154996
v -0.42489678 -0.16601144 0.38745159
v 0.33622760 -0.11464355 0.45574549
v -0.23114863 -0.29760098 -0.46394646
v 0.34096736 -0.21577403 0.07983786
v 0.28940547 0.24271268 0.19773853
v 0.41895857 -0.14354226 0.12450495
v -0.16602467 -0.31754708 0.20507902
v 0.11712156 -0.32446516 -0.37065026
v -0.02983182 -0.02043822 -0.51924807
v 0.04340040 0.10761303 -0.50225711
v 0.55837691 0.04702227 0.12412753
v 0.02377259 0.36500710 0.24727853
v 0.10200839 -0.35509223 -0.18751466
v -0.24230210 -0.33984274 -0.34951621
v -0.60538733 -0.22419314 -0.07248226
v 0.35189420 -0.24675526 0.01881182
v -0.51914996 -0.26490724 -0.11977977
v -0.58546740 0.11057027 -0.13434200
v 0.08588652 -0.34969690 -0.38033876
v -0.59445298 -0.12824020 0.09098525
v 0.04707685 -0.35540140 -0.11866003
v -0.21958947 -0.28060013 -0.46475452
v -0.24469385 0.25190270 -0.23384795
v 0.41294605 -0.05538104 -0.35883117
v -0.33580482 -0.27656782 0.33142602
v 0.26056653 -0.13402566 0.47554976
v 0.20896414 0.01906748 0.48683828
v -0.43949574 -0.32670140 -0.34500319
v -0.63420212 -0.06489956 -0.09103563
v 0.20853178 0.34855947 -0.23598899
v 0.47078758 0.27841175 0.07939833
v 0.51878738 0.18243417 -0.05174979
v 0.36661878 -0.09292397 -0.28222060
v -0.54275763 -0.15856580 -0.24616827
v -0.64207113 -0.12381478 -0.07822207
v -0.44906861 -0.15835598 -0.23136219
v 0.48902488 -0.16625290 -0.03374324
v -0.54556644 -0.21415482 -0.13310021
v -0.37093008 -0.27794677 -0.18807882
v 0.13739321 -0.04713443 -0.44625843
v 0.44040084 -0.17460796 0.27054724
v -0.48387763 -0.18587616 -0.28010499
v -0.46202174 -0.03579581 -0.28258106
v 0.58962506 0.05991011 0.11178467
v -0.08110894 0.35290238 0.00887517
v -0.16504118 0.31173444 0.10530906
v -0.11174311 0.31835192 0.22888118
v -0.37170506 0.24707879 0.20405501
v -0.68592191 -0.07987095 0.01009887
v -0.09024104 0.31359249 0.31780082
v 0.36702335 0.29360938 -0.02276671
v -0.54671919 0.20900548 -0.00512050
v -0.60365379 -0.10742281 -0.08853289
v 0.29867536 -0.22448517 0.00259876
v 0.16564399 -0.32112113 0.16487655
v 0.36632934 -0.17621902 0.08651009
v -0.53957599 -0.18730077 -0.23753829
v 0.09524629 -0.33327481 0.01652580
v -0.49256897 -0.20295319 -0.30013430
v 0.14542912 -0.34855014 -0.38076439
v -0.16721413 -0.30417407 -0.46365696
v 0.29502860 0.03894091 0.42644936
v 0.09090912 0.23793602 0.45838690
v 0.04675711 0.36989027 -0.18555108
v 0.17489555 0.34894472 -0.15825570
v 0.14559935 -0.28287286 -0.41020301
v -0.59479922 -0.22900653 0.03195930
v -0.30244073 0.09780777 0.45707044
v -0.46439713 0.20267354 -0.02225680
v -0.14186037 0.32524663 -0.21672122
v 0.54945022 0.15665641 0.11897191
v 0.25354216 -0.27390030 -0.27928638
v -0.19219059 -0.24876125 -0.48799720
v 0.36411297 -0.26657653 -0.03417495
v -0.53983438 -0.22556186 -0.10162145
v -0.64292002 -0.20219284 -0.00431573
v 0.52690309 0.23181514 0.09784543
v -0.37177885 -0.20582566 0.32739097
v -0.13957819 -0.35641438 -0.20217979
v 0.62801331 0.05023230 0.12335660
v 0.41834724 -0.07618742 -0.34005100
v -0.28781080 -0.08709309 -0.49534202
v 0.23888651 -0.14520013 -0.45502907
v -0.46834859 0.05201619 0.08765209
v 0.34025916 -0.26541400 -0.08116305
v -0.28805593 0.18920042 -0.36237377
v -0.26781684 0.04094864 0.49530494
v -0.58796155 -0.16869019 -0.11072531
v 0.22947457 -0.03092252 0.52236426
v -0.54320174 -0.23704109 -0.05992223
v -0.37838495 0.09267480 0.26195866
v -0.22209400 0.30981892 0.02598445
v 0.09274095 -0.39966238 -0.13806041
v -0.04811662 -0.14797634 -0.55016208
v 0.26786357 -0.07674494 0.45553166
v 0.16459519 0.32979050 0.23045833
v -0.24890947 -0.38793531 0.00050421
v 0.31292719 0.30201718 -0.02673776
v -0.11126904 0.31362540 0.21001190
v -0.26276278 -0.21062079 -0.46957743
v -0.42508447 -0.31156486 -0.29314089
v -0.28555521 -0.34025934 0.18777381
v -0.30540025 0.02005249 0.37820363
v 0.38358259 -0.18729058 0.26726851
v -0.10813272 0.05242073 0.50844514
v 0.24493247 0.28145310 0.22782417
v 0.34537095 -0.10240209 0.42102081
v -0.68210226 -0.00813390 -0.03014393
v -0.16972680 -0.30385566 0.18682170
v 0.03324146 0.27592027 0.08754804
v 0.12870081 -0.34114990 -0.24836633
v 0.48219848 0.11991616 0.22094706
v 0.65703738 0.12015378 0.00084561
v 0.29519740 -0.25623852 -0.23018336
v 0.74026871 0.12618932 0.00074925
v 0.25550500 -0.24420729 0.04650807
v -0.23854926 -0.34378171 -0.36265069
v -0.08003597 0.34218961 -0.16173644
v 0.16943674 0.32376513 -0.13692334
v 0.46536320 -0.16661531 0.27819067
v -0.43814379 -0.03599118 -0.22955979
v -0.71082419 -0.07982175 -0.03568682
v 0.66429716 0.05954086 -0.04645631
v -0.44202846 -0.30185556 -0.32382265
v 0.68062973 0.04505082 -0.03074311
v 0.08838072 0.28996563 -0.34515759
v 0.57989091 0.04335526 0.04536201
v -0.47776842 -0.20015901 0.24197504
v 0.20993379 0.34328941 -0.04366638
v 0.31174260 -0.12784103 0.44726032
v -0.44928080 0.17147322 0.24227202
v -0.08332466 -0.10717447 0.48262727
v -0.24691503 -0.11280823 0.50432789
v -0.63280582 -0.11549681 -0.06440517
v 0.32204127 -0.11578801 0.43462843
v -0.20349026 0.12476146 0.50785780
v 0.21529000 -0.27723673 -0.22041552
v 0.28534889 -0.25583133 0.09423555
v 0.03422929 -0.31121102 -0.45255738
v -0.23317657 -0.34985739 -0.29636315
v -0.21232986 -0.00962736 -0.47123757
v 0.34093341 -0.16567260 -0.33683431
v -0.34082371 -0.27559921 0.40311429
v 0.29911184 -0.05956359 0.50312507
v -0.35662195 -0.26038367 -0.41045952
v -0.50731701 0.15562159 -0.07050218
v -0.06740138 -0.16328523 -0.55642200
v 0.00077057 0.30025226 -0.37054545
v 0.46833169 -0.13438448 0.03831737
v -0.26111525 -0.29408371 0.21410102
v -0.11484136 0.15628473 0.48951524
v -0.08511750 -0.39257371 -0.18322992
v -0.33874166 0.27112928 -0.14028005
v 0.23912223 -0.18487079 0.45151320
v 0.24934353 -0.19253126 0.33887041
v -0.27045280 -0.14167887 0.48130915
v -0.13874693 0.02951087 0.50260371
v -0.32949251 -0.28331047 0.36954442
v -0.74537408 -0.00187419 0.05944172
v -0.13986705 -0.33843666 0.08836505
v -0.13094363 -0.12005059 0.53547001
v 0.04308696 0.33365497 -0.11410710
v 0.24296385 -0.29805034 -0.02066877
v -0.48081195 -0.31868839 0.08498013
v 0.13865346 -0.32858083 -0.39786834
v -0.30149314 -0.15804854 0.37588927
v 0.50213104 -0.01440719 0.23014686
v 0.28976265 0.19688673 0.36276609
v -0.13467361 -0.26310396 0.37282047
v 0.35344511 -0.10721699 0.41011435
v 0.20169739 -0.30663735 -0.25555050
v -0.49263442 -0.37769145 -0.22112080
v 0.05094583 0.37387285 -0.21770591
v -0.38153896 -0.35794497 -0.32481578
v 0.26414934 -0.19082092 0.45672262
v -0.15146059 -0.32895830 0.12197575
v -0.65716016 -0.10350956 -0.04516065
v 0.06375542 -0.33542639 -0.38809827
v -0.10382646 -0.10953267 0.50460428
v -0.47893295 -0.16001944 -0.20846310
v 0.23487383 -0.28376803 -0.08855724
v 0.41780406 -0.12021137 0.34187824
v 0.32854614 0.04289310 0.46145466
v -0.70665908 -0.13621804 -0.04613870
v 0.26803973 -0.18547828 0.41677386
v 0.31740257 -0.07479788 0.44929215
v 0.48806542 -0.05741107 0.20698717
v 0.22777185 -0.29329890 0.06149477
v -0.51674223 -0.15078163 0.03229985
v -0.65189433 -0.24661975 -0.05050758
v -0.58043575 -0.14562096 -0.08746940
v 0.27316490 -0.07547811 0.49156699
v -0.26810503 0.20327686 0.35679525
v -0.59337455 -0.07519186 -0.11923078
v -0.15298386 -0.35361046 -0.41983810
v 0.30423784 -0.26729983 -0.07177556
v 0.15701808 0.37281355 0.20999210
v -0.44436610 0.02055121 -0.29950464
v -0.39478564 -0.03531355 -0.30567420
v -0.28395885 -0.21670631 0.42371380
v -0.14053813 -0.35002407 -0.36003679
v 0.48081604 -0.07777606 -0.01928771
v -0.18674269 -0.33674389 0.17164373
v 0.47580048 0.01714304 0.20724970
v 0.05227888 -0.33521074 -0.41292512
v -0.46633947 -0.29991436 -0.29634839
v -0.34415057 -0.04567514 -0.43635198
v -0.40991235 -0.16920617 0.34471527
v 0.50169915 -0.00678505 -0.09252363
v -0.45917606 -0.14092386 -0.27578828
v 0.34886217 0.17953072 0.26461124
v 0.04704595 -0.35399207 -0.29595658
v 0.27540797 -0.14270608 0.45988512
v -0.11780338 -0.37701148 -0.22170746
v 0.38471246 0.07911626 0.34099165
v -0.29056388 0.30620462 -0.12160198
v 0.23053151 -0.05855195 0.52182043
v -0.60087490 -0.04113518 -0.03679419
v -0.32536200 0.08530445 0.44186443
v 0.40170535 -0.22668341 -0.07137267
v 0.45874366 0.06621579 -0.22620723
v 0.22785510 -0.12404823 0.51533228
v -0.44642735 -0.09584364 0.29215288
v 0.24235427 0.17292491 0.35046601
v -0.32935262 0.24378884 0.06834024
v -0.55013537 0.13751212 -0.03048392
v -0.32848781 0.23484837 -0.23793195
v 0.29958710 -0.24465492 0.06544667
v -0.37094775 -0.37114531 -0.07545197
v 0.31834126 0.06623365 0.42687178
v -0.08472920 -0.37699392 -0.43742701
v -0.11042371 -0.31332415 -0.39495385
v 0.29912791 -0.17902638 -0.36972705
v -0.16512470 -0.35311112 0.20935228
v 0.41142905 0.28082013 0.15123272
v -0.39985126 0.25069138 0.07612218
v -0.29174230 -0.07982092 0.45766440
v 0.50200331 -0.09401298 -0.05802934
v 0.29190308 -0.11926252 0.44897974
v 0.37641841 -0.07756621 0.41286531
v 0.25434935 -0.12599508 0.48217437
v 0.03849533 0.07540353 0.48313302
v -0.06116298 -0.08928252 0.52041739
v -0.24108775 -0.29974324 0.18100286
v -0.45072579 -0.36582395 -0.09868175
v 0.20919952 -0.13939011 0.54386878
v -0.08263981 -0.36841360 -0.37051943
v -0.52180541 -0.01761948 0.23215382
v 0.27070248 -0.13317230 0.48849538
v 0.06805703 -0.32955101 0.04551193
v -0.09992687 0.00238946 0.52281499
v 0.34691936 -0.22309598 -0.00634900
v 0.38992140 -0.16620520 0.08157834
v -0.10877298 0.31203392 0.18888777
v 0.37661833 -0.21660408 -0.12461621
v 0.08560804 0.20295607 -0.44112557
v 0.52296907 -0.09978011 -0.05431946
v 0.11511922 -0.07863405 -0.48055443
v -0.20560376 0.18849784 0.25636017
v -0.04850049 -0.35227486 -0.41217911
v 0.22980273 -0.26727453 0.13893011
v 0.21463926 -0.28564155 -0.17361480
v 0.21133219 -0.15317826 -0.45914856
v 0.50499177 -0.15421870 0.15262714
v -0.00985723 -0.38720286 -0.37057239
v 0.38026643 -0.17713404 0.32014805
v -0.41773310 -0.31233138 0.14144452
v -0.31065339 -0.17347780 0.43440905
v -0.64982933 -0.23018675 -0.03133067
v 0.32369182 -0.10567860 0.42394936
v -0.44964927 0.21100546 0.08285828
v -0.28485000 -0.13707668 0.44050789
v 0.37342724 0.02788987 0.37986919
v 0.33693364 -0.25271088 0.00833502
v -0.13733763 -0.27430961 0.30528542
v -0.76061928 -0.06799766 0.03088237
v 0.31781337 -0.08068868 0.44158268
v 0.12804002 -0.26210809 -0.40262151
v 0.31614870 -0.27499872 0.07228954
v -0.22726034 0.33118749 -0.10206939
v -0.06441892 0.36613548 -0.16565575
v -0.31808817 -0.23065242 0.41481659
v 0.02569900 -0.34028354 -0.35921827
v -0.08672582 -0.38076001 -0.33281261
v -0.29978251 -0.25729129 0.39188632
v -0.11100134 -0.16429079 0.50194353
v 0.22522745 -0.31438923 -0.04460058
v -0.20020933 0.15177573 -0.42946208
v 0.13534640 -0.29135346 -0.44671151
v -0.71462035 -0.15642917 0.02173220
v -0.09482273 0.29718402 0.16122675
v -0.52934450 -0.25812498 -0.21052346
v 0.31204578 0.28260678 0.16072744
v 0.26130891 -0.01392874 0.43576366
v -0.29548222 -0.25998089 0.33947581
v -0.65955341 0.10057380 0.00859833
v -0.26160377 -0.40911973 -0.22984448
v -0.25583974 -0.31206939 0.07539624
v -0.02927052 -0.37177280 -0.43641123
v -0.05480919 -0.08898199 -0.54247469
v -0.63503921 -0.13393009 -0.05712467
v -0.72026491 -0.10175968 -0.04620343
v 0.44684726 -0.19119339 -0.18840238
v 0.55748832 -0.10979027 -0.06452523
v 0.33799776 0.04400270 0.39923763
v -0.68057907 -0.01155692 0.01652221
v 0.09310874 0.31745541 0.27852434
v 0.32953197 -0.27133083 0.07299890
v 0.45557749 -0.08810276 0.25585315
v 0.35030740 -0.04208001 0.43386459
v 0.34117529 0.10543006 0.34247023
v -0.18222140 0.01343624 0.54170513
v 0.58867311 0.08279948 0.15179631
v -0.22378287 -0.42029098 -0.29189208
v -0.15979688 -0.11494109 0.53389847
v 0.07716405 -0.32395864 0.05121800
v 0.24844384 -0.31104326 -0.16765997
v -0.52704525 -0.17472832 -0.21776439
v 0.22637360 -0.13733113 0.50620806
v -0.08705822 0.36645508 0.08893377
v -0.68110549 -0.04790841 0.07819617
v -0.65693009 -0.08029962 0.04959467
v 0.38503814 0.00166328 -0.37576553
v 0.13616426 0.39073819 -0.01644575
v 0.17884326 -0.18608893 0.45020276
v -0.49355429 -0.33481497 -0.05770923
v 0.16966955 -0.31615922 -0.37053856
v 0.33055741 -0.29373616 -0.03587104
v 0.27462298 -0.22126052 0.37778819
v 0.14718632 -0.32759261 -0.39953738
v 0.47356123 0.30990615 -0.02353679
v 0.25183949 -0.02785674 0.47948450
v -0.34107912 0.29822123 0.03035976
v -0.48571360 0.15408255 -0.04460790
v -0.56078821 -0.11576405 -0.14531311
v 0.30401558 -0.10809828 0.43365183
v -0.58844918 -0.22420765 -0.04510598
v -0.01267747 -0.08551070 -0.54912162
v 0.41119090 0.02878607 0.37553015
v -0.47167841 -0.06817251 -0.22490340
v 0.29020965 0.06078315 0.46777970
v -0.17824116 -0.31353951 0.31961957
v 0.34088176 -0.29795054 -0.17852649
v -0.11240397 -0.05498551 0.50663632
v 0.38633716 -0.25843140 -0.15511659
v -0.63825721 -0.03675167 -0.02546279
v -0.50974268 -0.20835641 -0.22774723
v 0.47291127 0.23006181 -0.07000058
v -0.42662469 0.19697767 0.18107042
v 0.42410243 -0.00628401 -0.27711672
v 0.24111851 -0.15480725 -0.42430577
v -0.24831644 -0.12540084 0.51235914
v 0.50715256 0.07130175 -0.13956226
v -0.74636340 -0.00115434 0.05764446
v -0.13924809 -0.35922748 -0.40354732
v -0.34451342 -0.38480273 -0.21487555
v 0.37443227 -0.12512223 0.27024668
v -0.02423821 -0.35509723 -0.16212374
v 0.06611286 0.34674585 0.05650356
v 0.43357366 -0.11521608 0.04537880
v -0.52303404 -0.10621993 0.24654013
v -0.51835471 -0.22998336 -0.18687932
v 0.00438259 0.23545693 0.44403112
v 0.40462029 -0.22486667 -0.05679780
v -0.31283849 -0.21392161 0.39253038
v -0.65781146 -0.13114208 -0.07500643
v 0.06052639 0.18619010 0.52267337
v 0.48984355 0.22904880 0.05960421
v -0.27540642 -0.18045689 0.44932243
v -0.15538621 0.34712356 -0.13332871
v 0.34130591 -0.10473770 0.32655868
v -0.60214698 -0.12175756 -0.06067860
v -0.16109139 -0.33124328 -0.35184476
v -0.32567304 -0.37746751 -0.26920077
v 0.37053257 -0.09111206 0.40532064
v -0.57101190 -0.17085677 -0.09690434
v 0.29942009 0.02597743 0.50184929
v -0.05184325 0.04874600 -0.48705131
v -0.26955152 -0.14625403 0.47712395
v -0.24317321 -0.18319798 0.30776763
v 0.64240730 0.08405115 0.10913444
v 0.42039633 0.10237853 0.31732854
v 0.31889653 -0.25552094 -0.01999038
v 0.01577455 -0.34228867 -0.31943998
v -0.16010875 -0.09515269 0.51148450
v -0.31174967 -0.03239515 -0.49885282
v -0.53999192 -0.02667387 -0.24447328
v -0.16407694 0.28905654 -0.27350393
v -0.57246971 -0.23295256 -0.12778312
v 0.09727906 -0.19662967 -0.50220352
v -0.64134139 -0.12409073 -0.08863750
v -0.54599768 -0.25656947 -0.09361097
v 0.37548524 0.21899509 0.30015206
v 0.05724049 -0.34324914 -0.31507671
v -0.17947096 0.35984832 -0.04726622
v 0.18345559 -0.29111975 0.00883403
v 0.13483697 -0.33315289 -0.21720564
v -0.29522654 0.14945000 0.38665542
v 0.22160643 -0.02019656 0.51139301
v -0.08528138 -0.38889253 -0.31246704
v 0.27814117 -0.34244984 0.06204173
v -0.18317230 -0.26493534 0.36556962
v -0.29827094 -0.17847976 0.47077248
v -0.30963090 -0.38485131 -0.24784774
v -0.43178794 -0.26892126 -0.26600665
v -0.60839564 -0.18890104 -0.10458922
v 0.10666936 -0.21611020 -0.49206722
v -0.22880115 0.31453705 -0.10173221
v -0.29866838 -0.22843812 0.42787504
v -0.17122814 -0.39900506 -0.03353527
v -0.09686461 -0.09647290 0.49168774
v 0.37076655 0.23245063 0.13262613
v 0.12790485 -0.32485223 -0.10277103
v 0.12404770 -0.07663943 -0.51024699
v 0.37031546 -0.17035568 0.36275339
v -0.34829241 -0.11240578 0.42121047
v 0.05935217 -0.36459982 0.02785648
v 0.44458640 0.25720450 0.05383635
v 0.49096540 -0.18184997 0.01826660
v -0.20331527 0.12669265 0.46369332
v -0.06067729 0.09637537 0.46527302
v 0.38085908 -0.24636649 -0.03242907
v -0.26070693 0.21928917 0.23416358
v -0.34223673 0.02768850 0.42466483
v 0.16094752 0.33307096 0.29396525
v -0.56426078 -0.19617493 -0.14947701
v -0.07366543 0.28491709 -0.31043267
v -0.25310293 0.09464060 0.49481896
v 0.39721024 -0.21793419 -0.11346209
v 0.53062814 -0.05399306 0.08293960
v -0.35870183 0.23544610 -0.13725436
v 0.41007447 -0.17585173 0.10102037
v 0.06435743 0.28567773 0.16917047
v 0.37100810 -0.13244775 -0.33172008
v 0.11460765 -0.11270456 -0.50984365
v 0.13246527 -0.25720698 0.33847427
v -0.07295355 0.36384052 -0.06256336
v -0.09567170 0.30864275 0.32431304
v -0.06554773 0.13751408 0.53613263
v 0.29997781 0.05227315 -0.43415827
v 0.35574296 -0.22001898 -0.17260151
v -0.03686605 -0.37595683 -0.39390683
v 0.35015732 0.14999181 0.33403930
v 0.54584718 0.19700204 0.04736859
v 0.13615903 -0.24084787 -0.47933111
v -0.17760292 -0.27189997 0.37989029
v 0.35374925 -0.04072036 0.43908253
v 0.11995828 -0.34458268 -0.35127103
v 0.14052847 -0.30051020 -0.46728098
v -0.50733745 -0.35844544 -0.08649376
v -0.29473993 -0.11646484 0.41359523
v 0.38969415 -0.23933166 -0.06950882
v -0.51850462 0.13261391 0.17615460
v -0.54060107 -0.22607309 -0.15901010
v 0.41730139 0.11444626 -0.25585660
v -0.29146376 -0.27290052 0.34330574
v 0.28958750 0.28759944 -0.14094420
v 0.36643961 -0.23312864 -0.15042767
v 0.15066005 0.15974313 0.41497487
v 0.35878342 -0.23674186 0.00226068
v -0.20855828 0.26645890 0.20770340
v 0.49297175 -0.18644813 0.22393747
v -0.07691701 -0.29743111 -0.51844060
v -0.03723969 -0.35924888 -0.38485599
v 0.29906023 -0.22011927 0.44360182
v 0.03020719 -0.34254631 -0.35677078
v -0.18734299 -0.05105220 0.49397132
v 0.38775355 -0.25350636 0.01090708
v -0.72876990 -0.16627172 -0.02171820
v -0.23624547 -0.32313272 -0.38840720
v 0.51288021 0.20267184 0.06925260
v -0.55536246 -0.11109942 -0.15419854
v -0.28995991 -0.23813125 -0.48379380
v -0.30461195 -0.03567946 0.47335351
v -0.15585198 -0.29072002 0.24164093
v 0.01848831 0.28905594 -0.36385879
v 0.09805444 -0.40124741 -0.12182594
v 0.12057550 -0.28517270 -0.37324160
v 0.65550250 0.19491723 0.04521877
v 0.36246872 -0.14501481 -0.34217563
v 0.42795247 -0.15957138 -0.05715758
v 0.26665518 -0.34995556 0.02614764
v 0.34717453 -0.03280883 0.25314456
v 0.46589321 -0.13630247 -0.07631376
v 0.25463107 -0.11134171 0.52154881
v -0.01566936 0.27840152 0.34771371
v 0.02069974 -0.37619787 -0.36261961
v 0.47528785 0.13786155 0.17343593
v 0.32765117 -0.17358547 0.40435600
v -0.01738691 0.25213277 -0.38857213
v 0.14389363 0.23500323 0.44095340
v -0.15691569 -0.28468433 0.39945659
v 0.23652187 -0.31425649 -0.22827888
v -0.46735677 -0.33570403 -0.15860814
v 0.30740777 0.05751632 0.46966600
v -0.10206391 -0.29108647 0.32523075
v 0.36213589 -0.04484916 0.36661512
v -0.50556272 -0.21167868 -0.18202600
v 0.10839565 -0.39220908 -0.26633123
v -0.10411614 -0.37174225 -0.24999225
v 0.19045308 0.33224875 -0.04878245
v 0.46478763 -0.17454432 0.27875391
v -0.58455563 -0.21674521 0.01380931
v -0.13842091 -0.13721278 -0.51776981
v -0.19642942 -0.29913956 0.20722771
v 0.01644906 -0.30316916 -0.34992841
v -0.43987095 -0.09518392 0.32128185
v -0.49633187 -0.33942431 -0.03890747
v 0.42363793 -0.18804201 0.06318778
v 0.04205759 0.17116670 -0.45541570
v -0.26114789 0.23894204 0.17504720
v 0.04016590 -0.28268400 -0.45015135
v 0.26839343 -0.21880539 0.43105018
v -0.13554946 -0.23375909 0.35989857
v -0.25379327 -0.18323094 0.42026892
v -0.42104337 0.18997544 0.09177796
v -0.07280223 -0.33028334 -0.39853734
v 0.23284012 -0.24704605 0.22062784
v 0.16410531 -0.24649650 -0.43179157
v -0.20048626 -0.06805262 0.51562440
v -0.58883709 -0.22207637 -0.07508397
v -0.61476779 -0.25501755 -0.06311324
v -0.29747516 -0.20128334 0.42346144
v 0.35873410 -0.26219448 -0.00484034
v -0.04185902 -0.28805351 -0.49566704
v -0.07603277 -0.38986704 -0.14268765
v -0.61747539 -0.03594047 -0.08677232
v -0.18248200 -0.39617625 -0.17730659
v 0.31632763 0.16488306 0.38914827
v 0.61204422 0.19888788 0.10144654
v -0.15932429 0.28226566 -0.05323732
v -0.43818074 0.13507283 0.14874831
v -0.44644946 -0.20175877 -0.22481582
v 0.00608028 -0.21992582 0.48672366
v -0.01594378 -0.19240579 0.48404992
v -0.26431939 -0.04192261 0.55472267
v -0.13757743 0.29771429 0.21518338
v 0.33110914 0.09981911 -0.35715899
v 0.39533091 -0.24055037 -0.02281427
v -0.50190604 -0.15926981 -0.28219897
v 0.15359932 0.32879105 0.28594443
v 0.31711096 -0.26594165 0.01839903
v 0.40338874 0.12505746 0.33500919
v 0.34588245 -0.12991804 0.42467064
v -0.35425961 -0.17452736 -0.45535967
v -0.48053631 -0.35166776 0.15786709
v 0.33466983 0.05427146 -0.35390726
v -0.09244458 -0.35733378 -0.27659523
v 0.00253851 -0.33707392 -0.38314137
v 0.30831829 0.16608399 0.36158493
v 0.35490420 -0.20802723 0.29661548
v 0.45668548 -0.19762652 -0.00970109
v -0.27001792 -0.08435489 0.48935360
v -0.37406015 0.00214643 0.22685322
v 0.46097010 -0.17036062 0.00884646
v 0.54871273 0.01361923 0.02792734
v -0.52479357 -0.10431914 -0.16409627
v 0.36279157 0.18184887 0.27383751
v 0.40014306 0.05710147 -0.33250418
v -0.55054414 -0.17929590 -0.16010718
v -0.48995841 -0.17616309 0.04140021
v 0.39832926 0.24971956 -0.11057712
v -0.02439032 0.23793553 0.40565267
v -0.22777610 -0.24741161 -0.43462595
v 0.14379662 0.35990703 0.28516734
v -0.24950510 -0.36622500 -0.33401042
v 0.14290392 0.34220189 -0.10380039
v -0.49505779 -0.27010053 -0.27754718
v 0.33493483 -0.09740607 0.38781670
v 0.45610291 -0.18815839 -0.07267454
v -0.10851954 -0.13874596 -0.52369672
v -0.26033542 -0.24615286 0.32658127
v -0.28235328 -0.19932204 0.43509504
v 0.47157198 -0.17341980 -0.07709312
v -0.43919641 0.09152320 0.29619992
v 0.30161065 -0.26172209 0.00597122
v 0.37155277 -0.26738501 -0.00856155
v 0.29749319 -0.15852311 0.43741965
v -0.63751537 -0.04374030 -0.08136421
v -0.51142788 -0.19005090 -0.27806729
v -0.36173677 -0.32642490 0.19660407
v 0.30906078 -0.24857390 -0.23961575
v 0.04507256 0.34980702 0.05794013
v 0.36525038 0.24027991 -0.14707199
v -0.11818830 -0.14565262 -0.53500789
v -0.04357717 0.31666988 -0.31897959
v 0.29136425 -0.01093114 0.39619726
v -0.04725464 -0.35949004 -0.27869356
v -0.14836189 0.11851691 0.49755469
v 0.02247572 -0.33211097 0.10934216
v -0.05715060 -0.32512671 -0.33822718
v 0.52988529 -0.09577164 0.09723973
v -0.22567193 -0.39421332 -0.24555743
v 0.26381558 -0.09902903 0.52530897
v 0.23858228 -0.06324156 0.49259514
v -0.07426910 -0.37385839 -0.22294620
v 0.30545181 -0.26321605 -0.05308059
v 0.27639836 -0.28838158 -0.02418488
v -0.21943694 0.15829717 0.49162933
v -0.13067389 -0.23248118 0.40245751
v 0.16229935 -0.32414222 -0.40433708
v -0.57168198 0.09054705 0.11448193
v 0.01883150 -0.40174204 -0.34448117
v -0.02115403 -0.37119687 -0.24830580
v -0.07453999 0.13003436 -0.50144613
v 0.37310821 0.28448132 0.02121875
v -0.34671783 0.26219767 -0.12906340
v 0.45948350 0.24262592 0.03534033
v 0.58912623 0.05103984 -0.06863644
v 0.36237743 -0.25153595 0.05089930
v -0.17949829 -0.26524982 0.35416490
v -0.22621340 -0.26430643 0.36884913
v -0.29257071 -0.22928141 0.31919774
v -0.27597493 -0.28403151 0.27322978
v 0.32255861 0.01641135 0.41001827
v -0.32462475 -0.25422755 0.32217884
v -0.14052925 0.15590760 0.50216436
v 0.11060302 -0.16689429 0.53815430
v 0.45633453 0.26796186 0.01651720
v 0.08179706 -0.32516065 0.03314304
v -0.62553644 0.09107379 0.04980796
v 0.40753216 -0.09571540 -0.32259420
v 0.32875395 -0.03871185 -0.38983434
v -0.11586483 -0.09535125 0.50607812
v -0.19142906 -0.29619244 -0.41354364
v 0.32755756 -0.03706923 0.45719102
v -0.13029410 0.09551745 0.51545572
v 0.25985673 0.02083699 -0.42872921
v -0.41445655 -0.27965784 -0.21761838
v -0.24265620 0.24082167 -0.08692934
v 0.31813166 0.06226391 0.46088138
v -0.08206297 -0.28968960 0.36564040
v 0.12264415 0.22932994 0.43206674
v 0.38246039 0.06132045 -0.32882127
v -0.48279268 0.11656469 0.21383435
v -0.10543299 -0.34524107 0.18119469
v -0.20698032 -0.33915797 0.14106622
v -0.29140621 -0.41407368 -0.11136612
v -0.43933794 -0.09424612 -0.29482737
v -0.20714013 -0.31939641 -0.35993177
v -0.44336385 0.22685452 0.08436000
v -0.26206571 -0.18348166 -0.51608616
v 0.00311514 0.30006772 -0.31927946
v 0.26356763 -0.15262336 0.44159225
v -0.02030067 0.09336548 -0.47074881
v 0.10128193 -0.11443289 -0.50960511
v 0.57364994 -0.08983649 0.14033967
v -0.33212948 0.29388812 -0.02008844
v -0.31812924 -0.06923649 -0.49070296
v -0.21327993 -0.32999247 0.15101451
v 0.10529633 -0.25148350 -0.48011389
v -0.13081297 -0.19076993 0.47421822
v -0.62248135 -0.16641630 -0.06712849
v -0.10308085 -0.11735359 0.53072697
v 0.16400017 0.28918478 -0.33180752
v -0.23453476 0.21104647 0.24042535
v -0.14415298 -0.21870127 -0.50965458
v 0.05229623 -0.15890433 0.52748477
v 0.16402283 0.28719211 0.28098327
v 0.03035907 -0.35215712 -0.38496721
v -0.52684087 -0.22837114 -0.22734317
v 0.09638318 0.33938310 0.22360381
v 0.12361442 -0.31906790 -0.41959181
v 0.57041645 -0.06349487 -0.02776957
v -0.35102332 -0.22201982 -0.46196270
v -0.35750157 0.27299023 0.15778254
v -0.50724298 -0.26502565 -0.14765024
v 0.35861504 -0.10439947 0.42886207
v -0.19499670 -0.27182215 0.37042257
v -0.38791817 -0.17448561 0.36874843
v -0.10924330 -0.17216384 -0.50620210
v -0.30664572 0.06363718 -0.44552001
v 0.14094454 -0.26891714 -0.45588484
v 0.14151593 -0.36321801 -0.21065658
v 0.37279969 -0.17645800 -0.21540453
v -0.67893744 -0.09252844 -0.03290865
v -0.16463417 -0.24182832 0.43685785
v 0.09951848 -0.34541237 -0.27950770
v -0.14923680 -0.06854088 0.45593071
v 0.38796595 -0.20703526 0.23082653
v -0.36442411 -0.32189792 0.27730888
v 0.33085465 0.11737658 0.36902320
v -0.53355831 0.13133341 -0.02633507
v -0.48902947 -0.16845831 -0.21826765
v -0.58254492 -0.20477010 -0.09894681
v -0.01512158 -0.36793637 -0.35492948
v 0.16689344 -0.04038534 -0.45692712
v 0.03205118 -0.35748783 -0.38817388
v 0.21254905 -0.34599304 0.14022550
v 0.40093416 0.23915383 0.21002676
v -0.15309116 0.34097904 -0.12407900
v 0.33268186 -0.06258410 -0.37110579
v 0.08358935 -0.34069151 -0.42968589
v -0.26327208 -0.35259491 -0.37011099
v 0.33411035 0.23522471 -0.09848175
v 0.67212158 0.24318245 0.06967290
v 0.41502127 -0.10922541 0.34746927
v 0.09131388 -0.37903327 -0.35861453
v -0.22497649 -0.18836777 0.47426456
v 0.30452228 0.20934361 0.40105852
v -0.21644498 -0.01448219 -0.48767722
v -0.47706529 -0.22430468 0.27008846
v -0.18393284 -0.16483940 -0.53326619
v 0.21651506 0.01565072 -0.44362372
v -0.55303955 -0.20859094 -0.09122947
v -0.49018580 -0.18717602 -0.30095923
v -0.33882809 0.00824484 -0.44933414
v -0.15016474 -0.24672985 0.43931791
v -0.14217585 -0.14670087 0.48197910
v 0.44776374 0.19368328 -0.03800668
v 0.37719944 -0.18974602 -0.24071851
v -0.56010020 -0.25586706 -0.06061077
v -0.09658670 -0.37825188 -0.33745927
v 0.42373335 0.06406891 -0.29013526
v -0.35230356 -0.17775217 0.31273171
v 0.06989841 0.34147856 0.25025266
v -0.11914417 0.22469862 0.41082847
v 0.24295065 -0.11868683 0.53398693
v 0.74942416 0.10753971 0.01096574
v 0.38610902 -0.14391580 0.09458095
v 0.32099512 -0.07504106 -0.37554374
v -0.21757627 -0.37574649 -0.29573080
v -0.19377176 -0.02172549 0.54823661
v 0.40975416 -0.29069683 0.11520026
v 0.13422832 -0.39818868 -0.27850023
v 0.50273257 -0.07699017 -0.05564114
v -0.24817976 -0.37555379 -0.23327121
v 0.20705205 -0.31904814 -0.13593988
v -0.53200984 0.08845197 0.06529283
v -0.30649158 -0.31468049 0.11209238
v 0.31437635 0.01156897 0.42880180
v -0.41317883 -0.16385934 -0.27961147
v 0.05720567 -0.37961274 -0.31646329
v -0.48078927 -0.15716985 -0.24951799
v -0.49010032 -0.26471230 -0.04548547
v 0.12536657 -0.10919075 0.51172411
v 0.45864722 -0.17760521 0.20009632
v -0.24348368 -0.36499631 -0.32662416
v 0.47201526 -0.18947670 -0.02059525
v -0.25263587 -0.40139127 -0.22364345
v -0.13584813 -0.21780641 0.48284033
v 0.21745773 -0.20088817 0.32364708
v 0.30262738 -0.20312864 0.36663139
v 0.48833418 -0.19595821 -0.11637326
v 0.53699577 0.09080691 -0.12558728
v -0.24713734 -0.37153551 -0.34370291
v -0.13407034 0.00269660 0.53150600
v -0.28170359 -0.04123043 -0.48653215
v -0.09463906 -0.30481917 -0.38716185
v 0.28930682 -0.14187171 0.41713867
v -0.37231472 0.23297101 -0.10675085
v -0.40334970 0.18023714 0.23809391
v -0.14569849 0.11760232 0.50945038
v -0.39556175 -0.37559411 -0.09817564
v -0.20222911 0.11335837 0.51779383
v -0.47007546 -0.27356011 -0.20407948
v -0.25212848 -0.20620173 0.41830692
v 0.38499066 -0.25650555 0.01493090
v 0.29173625 -0.05925955 0.50880909
v -0.54899091 0.07098497 0.16314733
v -0.57321882 -0.29269326 -0.07454699
v 0.38337964 -0.22861171 -0.05752400
v -0.26167101 -0.40895367 -0.15022495
v -0.16388252 -0.34422949 -0.39847526
v -0.28925288 -0.23073894 -0.42322117
v -0.30810574 -0.03034177 -0.45189840
v -0.23562820 -0.15491740 0.47920156
v -0.06440672 0.39162099 0.04945271
v -0.20995766 -0.31535357 0.28902549
v 0.08083385 0.10363837 0.53462851
v -0.17335887 0.27465948 0.15835823
v -0.17254908 -0.31104898 0.28652349
v 0.45047879 -0.18025544 -0.12109248
v 0.01335980 -0.34185442 -0.45207191
v -0.13022713 -0.38302481 -0.02637237
v 0.56391782 0.18006110 0.05571438
v 0.33960992 -0.01665523 0.37675667
v 0.14208685 -0.07448226 -0.50315571
v -0.35745147 -0.14356928 0.07437649
v 0.44570696 -0.10627428 0.07183163
v 0.22751853 -0.14442781 0.48128486
v -0.35403034 -0.27255660 0.15234762
v -0.21011686 -0.10729655 0.50520015
v 0.28905052 -0.08479820 0.46972492
v -0.30742320 -0.13847275 0.46724266
v 0.36007020 -0.14609051 0.31517261
v -0.40136734 0.02160607 -0.20368263
v 0.06493741 0.15164903 0.53399986
v 0.23278803 -0.12064009 0.52957129
v -0.51256168 0.00808713 -0.21282136
v 0.08529583 -0.39809817 -0.35538915
v 0.34463406 0.14509271 0.34915313
v -0.08844322 -0.26978177 0.35990429
v -0.08339907 0.29084191 0.32105771
v 0.43150085 -0.15210283 0.29917729
v -0.12878928 -0.37803432 -0.15501878
v 0.39388147 -0.23370622 -0.01337066
v -0.20013292 0.24782598 0.33390960
v 0.29800215 -0.24999833 -0.05850276
v 0.42144406 0.04609406 0.35293642
v 0.51223284 -0.01423168 -0.07889292
v -0.55412620 0.21921602 -0.02596296
v -0.35982147 0.21213007 -0.14295566
v 0.61003911 0.19530973 0.07958239
v 0.53358269 -0.02404958 -0.10935940
v 0.06353056 -0.12475473 -0.50910878
v -0.52687544 -0.28367457 -0.18264732
v 0.48991525 -0.17043290 0.02626370
v -0.26280087 -0.18041964 0.45251375
v 0.31354028 -0.23063448 0.02186716
v 0.38816044 -0.22721049 -0.04480538
v -0.40643644 -0.32073569 -0.22263253
v -0.33880228 0.13520308 -0.26461580
v 0.04969965 0.22004935 -0.42603350
v 0.12726560 -0.39456794 -0.28547335
v 0.46918803 -0.12199067 -0.00797543
v -0.11862691 -0.35843682 -0.34503195
v -0.30009669 -0.19650289 0.43596730
v 0.34206301 0.18654519 -0.24618702
v 0.25763330 -0.16203666 0.45315903
v 0.31937346 -0.25494736 0.02101499
v -0.28502405 0.23110360 -0.05794910
v 0.36791772 -0.21766473 -0.08022487
v -0.30143580 -0.35096109 -0.33790720
v 0.34658039 -0.24636039 -0.07070833
v 0.28564829 -0.34494501 -0.05946527
v -0.03129656 -0.10667833 0.49341944
v 0.17903262 0.32369986 -0.21452393
v 0.41959873 -0.00184646 -0.12492844
v -0.43278980 -0.22568233 0.23613596
v -0.55691516 0.16639286 -0.00809586
v -0.55757999 -0.27202520 0.03923956
v -0.25862119 -0.02562571 0.48982063
v 0.34752342 0.27345073 0.20710656
v -0.41644090 0.10309197 0.29408005
v -0.15032792 -0.37163401 -0.28506672
v 0.26083222 -0.29882130 -0.07704130
v 0.27013856 0.29308599 -0.11510960
v -0.17663559 -0.30823275 -0.45005578
v 0.06707785 -0.37934843 -0.31225169
v -0.01488253 -0.00114298 0.51474655
v -0.18023810 0.23660906 0.44807866
v 0.36957991 0.28740713 0.08185109
v -0.16715829 0.33665150 -0.12553960
v 0.36281353 0.26143914 0.04136637
v -0.11215922 -0.19550022 0.46042365
v 0.42805517 -0.18185079 0.27334529
v 0.47578675 -0.13587140 0.01055966
v -0.36149108 -0.22181812 0.39717469
v -0.33185938 -0.24955070 0.41860679
v -0.20397089 0.12235864 0.51899207
v 0.08685296 0.28103897 0.38933545
v -0.03836218 -0.37982023 -0.34486398
v 0.18310787 0.35872152 0.21916297
v -0.00616370 -0.35913891 -0.17729726
v -0.42802125 0.22873223 -0.18023382
v 0.33592644 -0.12875210 0.42498535
v -0.40450764 0.12500072 0.14544198
v 0.12373810 -0.36673909 0.10771152
v -0.18969655 -0.25599840 0.37326619
v 0.26919669 -0.28950825 -0.01684856
v 0.35930485 -0.03444889 0.44712958
v 0.36972249 -0.13352601 -0.13340306
v 0.34567887 -0.21383435 -0.14961585
v 0.34251985 -0.26053193 -0.17926641
v 0.04795413 -0.29507935 0.32332206
v -0.28127554 -0.17834060 0.44361845
v -0.50808072 -0.05026633 -0.16965082
v 0.32518813 -0.17557049 0.44005814
v 0.38029951 0.11430006 0.34372559
v 0.26466408 -0.12244511 0.49949795
v 0.43968499 -0.07463483 0.22532462
v -0.35146877 -0.28238240 0.25411025
v 0.82419610 0.09727442 -0.06924869
v -0.21982151 -0.16557819 0.43014646
v -0.41301191 -0.26142514 0.26409352
v -0.25666189 0.25757396 -0.26818576
v -0.56001437 -0.13515860 -0.09763893
v 0.51816076 -0.10799945 -0.04575221
v -0.33995920 0.08601757 -0.30144525
v 0.43123710 -0.05597378 0.36308089
v 0.00526363 0.38174558 -0.08622983
v -0.24745025 -0.25311351 0.37411547
v 0.06328108 -0.10026384 0.52059597
v 0.77406538 0.21221982 -0.03024637
v -0.06887075 -0.38066122 -0.38881692
v 0.44397756 0.30336943 -0.02962362
v 0.50422049 -0.13656911 0.21816576
v -0.04504266 0.29333767 0.37916949
v -0.40331131 -0.21465269 0.21419650
v -0.17763035 -0.25982431 0.39799306
v -0.37155813 -0.12387982 -0.43166277
v 0.40952712 -0.02530673 -0.33883950
v -0.05675495 -0.40324143 -0.29380879
v -0.38619447 -0.13037394 -0.44522926
v 0.30334213 -0.23444308 0.14132559
v -0.11613084 -0.05717798 0.48956424
v -0.20369484 -0.36789650 0.09731308
v -0.31363815 0.15828206 -0.30896997
v 0.45906302 -0.23856770 0.10157629
v -0.14927515 0.27306488 0.30317524
v -0.08425725 -0.23504579 -0.54240996
v -0.51357371 0.00621763 0.20129149
v -0.55181527 -0.20058587 0.04798497
v 0.21632993 -0.17795883 0.47129729
v 0.01596693 -0.35247335 -0.49325812
v 0.12403211 -0.32758039 0.07288368
v 0.14518899 0.37860322 0.04321468
v 0.38292807 -0.05227675 0.31074923
v -0.35552531 -0.08813941 -0.45869720
v 0.34130436 -0.26977018 -0.08776212
v 0.57561648 -0.02838291 -0.03418478
v 0.14147525 0.32868570 0.00690912
v -0.40703213 0.00337911 -0.35967922
v -0.50107229 -0.28009796 -0.05674230
v -0.26973388 0.18740320 0.26960525
v 0.33501172 -0.27434805 0.11045954
v 0.33025944 -0.25789452 -0.05580589
v 0.25861350 -0.27046874 -0.23834622
v -0.45423970 -0.30928084 -0.06348562
v 0.21600005 -0.13462405 0.51716590
v -0.19344276 0.01740168 0.50311530
v -0.35620049 -0.37792465 -0.29164502
v 0.24190213 0.26310664 -0.37292361
v 0.40493253 -0.10089262 0.32345948
v -0.34010702 -0.23321971 0.43568540
v 0.10989773 0.29571268 0.38210252
v 0.56159496 -0.08265664 0.14025703
v -0.00325534 -0.12296459 -0.50030589
v 0.29889104 -0.17776035 0.38817859
v 0.53885108 -0.14967653 0.01597013
v -0.49022371 0.23706129 0.10655400
v -0.54807377 -0.01903617 -0.09616479
v -0.13925564 -0.41289866 -0.31985605
v -0.14860475 -0.37212276 0.14686756
v 0.36552539 -0.27682245 -0.23339011
v 0.26727983 -0.00272718 0.48327842
v 0.18046644 0.14339587 0.42749202
v -0.07069464 0.30238754 0.25534457
v -0.22831920 -0.14727154 -0.54170966
v 0.27420446 -0.13067436 0.44294128
v -0.01509039 -0.26768327 -0.44696304
v -0.46686426 -0.07152502 -0.22898903
v -0.13230196 -0.35607907 -0.40052480
v 0.30387875 0.17002071 -0.34267268
v -0.33167270 -0.33596241 0.02103348
v -0.44429815 0.21120518 -0.10366987
v 0.29202884 0.11057104 0.44481644
v -0.44101161 -0.34521312 -0.18025580
v -0.63434815 -0.08985986 -0.04346533
v 0.47609851 0.08869781 0.17434931
v 0.24739191 -0.29258475 -0.09156650
v 0.48595476 -0.18008304 0.00318635
v -0.24235357 -0.22182000 0.40926403
v 0.41585612 -0.14134282 0.30216786
v 0.26533422 -0.16187729 0.38480261
v -0.36084622 -0.28100088 -0.38596103
v 0.32787031 -0.26628420 -0.07730731
v -0.34115922 -0.15045290 0.44843137
v -0.05549394 -0.37404269 -0.14102665
v 0.40336657 0.12852657 -0.22905304
v 0.28459364 -0.04166946 0.47565904
v 0.34393328 0.23782349 -0.15718260
v 0.31577027 -0.28690228 -0.02615011
v -0.05362362 0.33826157 0.24557997
v -0.40047598 -0.17866677 -0.36617839
v -0.55396926 0.10791712 0.07381089
v -0.58834469 -0.19890030 0.04391587
v 0.53159541 -0.04057910 0.01524678
v -0.40258229 -0.28570688 -0.38086870
v -0.19274884 -0.10057467 -0.58485234
v -0.64787436 -0.10424219 -0.00266839
v 0.12858455 -0.28927153 -0.42427480
v 0.67283070 0.10309425 -0.00283526
v 0.51625460 0.20754898 0.08548373
v -0.02525972 -0.35869652 -0.27104706
v -0.13460106 0.34387982 -0.11740601
v 0.31198540 -0.25268891 -0.14620659
v -0.09214543 0.12084123 0.54543889
v -0.35941646 -0.26843649 0.23114572
v 0.07871425 0.36534587 0.20080242
v -0.16563675 -0.15566178 -0.55312169
v 0.38528100 -0.23397607 -0.03043935
v -0.30885839 -0.33639669 -0.01765482
v 0.27513939 0.11990154 0.40853849
v -0.49360192 -0.17369781 -0.25154394
v -0.55269647 -0.12724948 -0.24272659
v -0.30550891 -0.15857731 -0.44938126
v 0.36382711 -0.24744898 0.06462719
v 0.01821549 -0.35884055 -0.26417208
v -0.37073430 -0.09417203 0.39521807
v 0.39047125 0.15572509 -0.21047628
v 0.63596857 0.06492707 0.05869704
v 0.59480202 0.13990797 0.10531468
v -0.12782651 0.24983226 0.42859662
v 0.19432008 0.35213456 -0.15266103
v -0.52737492 -0.28031594 0.04025811
v 0.12222648 -0.40010345 -0.12245749
v -0.09886461 0.37610948 0.10551067
v 0.16940981 -0.10113668 0.52607000
v -0.21081369 -0.39361060 -0.12459227
v 0.39578032 0.27641800 0.17537551
v 0.72787237 0.07452822 0.00554048
v -0.38934773 -0.36261904 0.04563022
v -0.28211918 0.15548015 0.45377645
v 0.00507051 -0.20358685 -0.53701031
v 0.37384242 -0.17368388 0.07594243
v -0.08237857 0.00284654 -0.56776875
v -0.26328731 -0.34763998 -0.31738347
v -0.29379600 -0.23092341 0.43105736
v -0.20762046 -0.25458270 0.35185048
v 0.45197436 -0.14061362 -0.08012778
v -0.50582457 0.01670261 0.20303291
v -0.18756388 -0.34998885 -0.02735132
v 0.43794706 -0.06201518 0.28983742
v -0.23753154 -0.34175792 -0.39665541
v -0.22173847 0.28538808 -0.25647756
v -0.47207302 -0.22064880 0.13642266
v 0.36659843 -0.24088413 -0.04844366
v -0.14565726 0.07300173 0.51502359
v 0.10463011 -0.39405727 -0.30781415
v 0.42549160 -0.14999788 0.04737073
v 0.24240094 0.04921164 0.46890739
v 0.44342551 0.14168739 0.21105525
v 0.01140067 0.36940649 -0.08201241
v 0.24725635 -0.02946630 0.52024245
v -0.15082382 -0.35925752 -0.35414541
v -0.22727218 -0.34322754 -0.33360228
v -0.54309827 -0.16159979 0.04638770
v 0.53778958 -0.07623567 -0.02553496
v -0.25663650 0.17305960 -0.32559019
v 0.43014205 -0.18193820 -0.04814488
v 0.18435821 0.12521555 0.50459373
v 0.11700936 0.37186387 -0.17834516
v 0.26762033 0.08087674 0.46461657
v 0.42719331 0.22258718 0.16030875
v -0.28206694 -0.22065754 -0.47972021
v -0.10716460 -0.34902006 -0.29421559
v 0.45632136 -0.07918899 0.12469577
v -0.12433997 -0.02810417 0.46554768
v 0.13167030 0.09309756 0.51300406
v -0.28551555 0.21060294 0.20139647
v 0.44067332 0.05486702 0.35423142
v -0.01985193 0.31481051 0.23175821
v -0.16887319 0.32670304 -0.16252123
v -0.30360085 -0.33858800 -0.36153722
v 0.48016202 -0.13194378 -0.00333190
v -0.22564167 0.14556997 0.42841667
v 0.33121631 0.25210497 0.13184135
v -0.38133860 -0.23872486 0.33355564
v -0.07439861 -0.38933143 -0.34965765
v 0.54216540 -0.08793747 -0.02033027
v 0.38135281 -0.24671280 -0.03865886
v -0.26534790 -0.29928055 0.15979290
v -0.19220118 -0.32525814 0.41206813
v 0.13460594 -0.16523498 0.52399093
v 0.30191627 -0.13825071 0.45516175
v -0.45806897 -0.15592045 -0.35720944
v -0.37781882 0.14838047 0.25675726
v 0.13859491 0.22972274 0.47321767
v 0.17773090 0.06766601 -0.46964851
v 0.54012257 0.10377446 0.20949908
v 0.60939574 0.10229834 0.11843237
v -0.59601688 -0.17767248 -0.05068970
v -0.18284357 -0.27159062 -0.49095523
v -0.48752478 -0.19088212 -0.28377965
v 0.22516905 -0.12056594 0.52168763
v -0.32712489 -0.33616054 -0.32271811
v 0.23182271 -0.24569939 0.22657752
v 0.49429196 -0.09500190 -0.06562994
v -0.18233949 0.32776326 -0.22646292
v 0.17600404 -0.10869244 0.52977771
v -0.01935951 -0.30338335 0.38409993
v 0.27122658 -0.27307677 0.05829459
v -0.55342746 -0.19225870 -0.13916653
v 0.30760473 0.11628424 0.38525987
v 0.17988613 -0.11532271 0.50571978
v -0.51028275 0.17045729 -0.05500558
v 0.46998742 -0.13121918 0.21629003
v -0.05429815 -0.31950229 0.29905733
v -0.33821210 0.07237017 -0.35067764
v 0.46308780 -0.09681219 0.12952322
v -0.63856351 0.06471015 -0.05811024
v -0.46053115 -0.32480896 -0.29155999
v -0.25852373 -0.17380947 0.44986957
v 0.24381730 -0.21479395 0.28737593
v 0.33996800 0.04282311 0.38519922
v 0.55942553 0.06619374 0.13693979
v -0.06819049 -0.37480989 -0.16611442
v 0.34849679 -0.22191301 0.35038981
v -0.48188221 0.11134050 0.19554096
v -0.18949792 -0.40767622 -0.28037837
v -0.38151097 0.26057455 -0.09764843
v 0.36920345 -0.26076263 -0.07278864
v 0.44033569 -0.17402434 0.01794809
v 0.49782491 -0.18346329 0.19292775
v 0.31640670 0.05776979 0.44409686
v 0.06174866 0.33389154 0.24556674
v 0.16598232 -0.37810457 -0.32035103
v 0.16212240 -0.36337632 -0.18723474
v 0.29983616 0.29292780 -0.18304713
v 0.31375912 -0.27368227 0.03163776
v -0.07920037 -0.21902485 -0.49926496
v 0.41802126 -0.25169134 0.18895112
v -0.48854977 0.14276095 -0.00238539
v -0.58264786 -0.08996913 -0.11384055
v 0.33392045 -0.19714198 0.36098444
v -0.56896150 -0.15030292 -0.11892506
v 0.33387440 -0.09256145 0.44676247
v 0.76522017 0.17118178 -0.05990723
v 0.23150302 -0.28080666 -0.25886130
v -0.77913344 -0.09753796 0.03211468
v 0.38688880 -0.24569012 -0.09196492
v 0.20065388 0.15373495 0.45816284
v -0.23826005 -0.32702705 -0.41738522
v -0.16923523 -0.33523619 -0.38340539
v 0.17284726 0.33071682 0.28832725
v -0.41222781 -0.23030278 -0.33621627
v -0.53912860 -0.14851075 -0.19972342
v -0.61885285 0.01880032 -0.02806675
v -0.48206133 -0.02705678 0.28694913
v 0.36064166 -0.27403086 0.01136056
v -0.51490080 -0.30094358 -0.12355974
v 0.24442065 -0.20226069 0.43936110
v -0.32932955 -0.05784155 0.45732045
v -0.42339790 -0.36745268 0.15645814
v -0.32120615 -0.34019059 -0.29001039
v 0.32254669 0.16035135 -0.33110285
v -0.26355496 0.08665934 -0.48377040
v -0.36067665 -0.07059278 0.17762645
v -0.53298563 -0.11216428 0.15380675
v 0.28988910 -0.14590642 0.49575147
v -0.00564205 0.33038723 0.24555941
v -0.20349039 -0.31157315 0.21452585
v 0.50836039 0.14209233 -0.05303532
v 0.26836085 -0.27670458 -0.25831613
v 0.09309657 -0.33062792 -0.23529437
v -0.15135692 -0.13552663 -0.54131567
v -0.36954439 -0.40607259 -0.04577410
v 0.08875026 -0.35018176 -0.20040759
v -0.53182185 -0.07284685 -0.12733880
v 0.33094537 0.27348483 0.25438461
v -0.12569317 0.02153877 0.38122433
v -0.14171404 0.35167313 -0.03595581
v -0.15734814 0.32905895 -0.03963057
v -0.23660491 -0.26000851 -0.47106883
v -0.26200911 -0.29597771 0.21526098
v -0.30346507 -0.09129110 -0.50639349
v 0.16117357 -0.19603717 -0.48319870
v 0.41084459 -0.17856467 0.23066348
v -0.12761733 -0.15204084 -0.52885425
v -0.40052986 0.18633516 0.21883130
v -0.36447611 0.02109961 -0.38138136
v 0.37038711 -0.18835783 0.34137857
v -0.49266419 0.12595090 0.19641395
v 0.24767958 -0.24242525 -0.33739930
v 0.30009812 0.05299948 0.49067491
v -0.37745973 -0.19801001 0.38042104
v -0.08125351 0.03974229 0.52463102
v 0.32616466 -0.02345246 0.30917877
v -0.12627211 -0.19542235 0.47771534
v -0.21523659 -0.12614937 -0.49620816
v -0.40501177 -0.02780126 -0.30382591
v -0.25044268 -0.30765897 0.25590533
v 0.11619402 0.31010398 -0.05476363
v -0.23740463 -0.24683544 0.37761614
v 0.19551496 0.32579154 -0.25763583
v -0.23399004 -0.33414626 -0.40841794
v 0.35195354 -0.12932409 0.42596030
v -0.46673527 -0.13836586 -0.26924437
v -0.24171796 -0.14492211 0.45201650
v -0.19661784 0.27134532 -0.23052058
v 0.15783356 -0.07500012 -0.50478548
v -0.02807319 0.07213017 -0.19737163
v 0.49166942 -0.14284416 -0.02246952
v 0.53188038 -0.07945576 -0.01331133
v -0.29749793 -0.19439711 -0.46062875
v 0.10558681 0.34352523 0.11331165
v -0.61515075 -0.08989753 0.06498985
v -0.23903720 0.14509815 0.48844671
v 0.45724124 0.25262904 -0.07167469
v -0.36156023 -0.37253547 -0.25175250
v -0.17571105 -0.26950717 0.27679956
v 0.23976178 -0.28665462 -0.02655324
v 0.61376810 0.02841515 -0.04477502
v 0.45727077 -0.09626046 -0.09789142
v 0.43020225 -0.19696486 0.04726383
v 0.34834042 -0.14808896 0.42701268
v -0.25523606 0.19531220 0.38453925
v -0.30143204 -0.25344852 0.41875634
v 0.35775238 -0.07979662 -0.18103880
v 0.01029730 -0.35171348 -0.29454854
v -0.24178453 -0.20949553 0.43884835
v -0.18152213 0.29308864 -0.26965716
v 0.22328699 -0.24461883 0.24725264
v -0.25336975 -0.38156256 -0.21891835
v -0.29181817 0.13650519 0.44649607
v -0.45296338 -0.26190314 -0.31968951
v 0.39601022 -0.24405934 -0.03695247
v -0.72195733 -0.11984794 -0.00441673
v -0.10257006 0.10266092 -0.48882079
v -0.14867203 0.12059855 0.49900851
v 0.28896022 -0.27921802 -0.08612189
v -0.70284098 -0.06995671 0.01520611
v -0.09067606 -0.37526000 -0.36953288
v -0.39346516 -0.12581661 0.37069935
v 0.12632675 0.39738959 0.02638162
v 0.24145156 -0.28669053 -0.02951294
v -0.62478590 0.05322599 0.04582475
v 0.12638149 -0.29295155 0.21941805
v -0.46283296 -0.12746675 -0.22526266
v 0.03409036 -0.35150051 -0.26484433
v 0.39663494 -0.24005260 -0.04616180
v 0.37132084 0.20532657 0.19908541
v 0.41119248 -0.12965822 0.34392035
v -0.13792175 -0.06558318 0.49181271
v 0.40095612 -0.17272238 0.30003759
v -0.48228127 0.13364269 -0.11406370
v -0.33130559 0.20870760 0.24515340
v -0.04912387 0.29296091 0.42122588
v 0.39583144 -0.18041009 0.30642068
v 0.33375257 -0.18055832 0.41187412
v -0.32226926 -0.27174455 0.35217083
v -0.10875152 -0.20429087 -0.54010928
v 0.50849998 -0.02856337 0.17071527
v -0.58053589 -0.07390152 0.13336918
v -0.21813196 -0.28190205 0.34391615
v -0.16016780 0.00007546 0.48579073
v -0.59494841 -0.26506931 -0.11416543
v 0.07249522 0.09526391 -0.51703292
v 0.25834402 -0.27885324 -0.00139296
v 0.52696413 -0.16720837 -0.08253710
v -0.27677229 -0.29411376 0.32730836
v -0.17546624 -0.05694623 0.53871489
v 0.32469183 -0.12157328 0.44447824
v -0.36105353 -0.03780527 0.43871969
v -0.25030845 0.32092506 -0.14114842
v -0.26382899 0.22262719 0.21659972
v -0.17024489 -0.16135898 -0.50798446
v 0.16378620 -0.19685200 -0.47696441
v 0.30607051 -0.23057671 0.25281054
v -0.23476158 -0.26903376 -0.45321155
v 0.11510697 0.32570142 -0.04052823
v 0.31715956 -0.21983482 -0.28239110
v 0.09632364 -0.30830789 0.11093386
v 0.57838368 0.04170575 -0.04548229
v -0.17003481 -0.36311665 -0.15855876
v 0.25625426 0.26034808 -0.33830100
v 0.54119265 -0.11915125 -0.00029251
v 0.37543231 -0.15758660 -0.27146375
v -0.30700415 0.24777079 -0.24342299
v 0.29996544 -0.15341389 -0.36929628
v -0.51018035 -0.10763462 -0.19046980
v 0.37269828 0.23911032 -0.09969905
v -0.30440566 -0.22030872 0.45094556
v -0.56699520 -0.18131803 -0.08852252
v -0.48466501 -0.32689971 -0.11700767
v -0.13299204 -0.06656165 0.52995086
v 0.52638435 -0.12425981 0.00064687
v -0.10683268 -0.05600809 0.49653897
v -0.45769811 0.15582970 -0.06457589
v 0.01896560 -0.36635867 -0.25598311
v 0.06850284 0.38823926 0.00790272
v -0.08960755 -0.30654892 -0.47087246
v 0.36586869 -0.24708401 -0.07358730
v -0.50325227 -0.06208472 0.25649261
v 0.13345517 -0.25484633 -0.49377677
v 0.26473290 -0.25411499 -0.02059725
v 0.49476376 0.05530954 0.23294207
v -0.04635834 -0.19500726 0.49314880
v 0.20481107 -0.27567285 0.18056656
v 0.31625247 0.24048866 0.28509372
v -0.33377081 -0.06772824 -0.45055878
v -0.03213331 -0.34121853 -0.38772267
v 0.12231038 -0.27884647 -0.48805064
v 0.07330845 0.24721596 0.39277256
v -0.41233465 -0.19043502 -0.37000677
v 0.36430407 -0.22734103 -0.13139433
v -0.38766515 -0.31900015 -0.32481354
v -0.57944572 0.05865479 -0.04212518
v 0.50678283 -0.00182400 0.21856567
v -0.17847657 -0.20011234 0.44414017
v -0.55831617 -0.14035460 -0.10819478
v -0.53723872 -0.03370817 -0.11593198
v -0.54844177 -0.18627903 -0.18020609
v 0.02884083 -0.32815024 -0.45416483
v -0.17376049 -0.23227151 0.42421344
v 0.37523180 0.21000332 0.26731068
v -0.22314051 -0.12310050 0.50214279
v -0.33700779 -0.20106778 0.36666888
v 0.47109741 -0.04461136 -0.06993768
v 0.38338870 0.02864355 0.30769694
v -0.49344921 -0.26294646 -0.18250826
v 0.42865449 0.05761506 -0.26110142
v 0.37710318 -0.14496705 0.40297318
v 0.62736773 -0.03144152 0.10671793
v 0.09907322 -0.31789958 -0.43442339
v -0.16939485 0.07400268 -0.43031079
v -0.35665905 -0.05559847 -0.45814845
v -0.33331820 -0.30549276 -0.40025634
v 0.01719950 -0.35670608 -0.47434047
v 0.31991759 0.20646286 -0.31942007
v 0.17537156 -0.14295289 0.52022809
v 0.32695931 -0.14740181 0.43751627
v -0.46918541 -0.17574736 -0.05534150
v -0.51900834 -0.09727629 0.25880218
v -0.22813448 -0.28947395 -0.42102242
v -0.41624400 -0.09855527 -0.34812224
v -0.24462530 0.09904656 -0.38494551
v 0.38012618 0.26014483 0.07460617
v 0.24893819 -0.06062716 -0.40986413
v -0.10253621 -0.20210376 0.50207561
v 0.32554674 -0.26994228 -0.07364661
v -0.20646802 0.29971579 -0.26304442
v -0.31077895 -0.26299846 0.33610880
v -0.17552564 -0.21094002 0.45567334
v -0.34689727 -0.40652999 -0.10022390
v 0.41649240 -0.28011167 -0.13753819
v 0.27175075 -0.15791637 0.39161184
v 0.58895224 0.08370061 0.14542629
v -0.02163604 -0.38361114 -0.33712333
v -0.07894772 0.28560469 -0.30447042
v -0.19795135 0.30863264 -0.25853544
v -0.62160540 -0.16687368 0.01402262
v -0.04226601 -0.19432059 -0.49448979
v -0.17036366 -0.36839014 -0.15617585
v -0.37504542 0.21076110 0.29994816
v 0.62977952 -0.08214350 -0.02710413
v -0.69905949 -0.01488907 -0.01269557
v -0.01682089 -0.34147850 -0.34928000
v -0.43768612 0.16752043 0.06700632
v -0.58943307 -0.06877749 -0.07991061
v -0.58334410 -0.23970173 -0.02544022
v -0.08220237 0.31207976 0.33261797
v 0.30064085 -0.25113237 -0.07304153
v -0.38257554 0.02573314 -0.39380488
v 0.28699589 -0.14931655 0.42449531
v 0.65620685 -0.03148936 -0.00392965
v -0.21485102 -0.41414982 -0.35435942
v 0.12475821 0.31417656 -0.23898740
v -0.22915827 -0.34410861 -0.38781163
v -0.28397977 0.08226407 0.37746251
v 0.51592380 -0.10031488 0.06087998
v -0.50724804 -0.25076741 -0.17878971
v 0.39234051 0.20447394 0.17934501
v 0.33921194 -0.27021733 -0.03939259
v 0.03262972 0.33423528 -0.26879624
v 0.34084490 0.12526366 0.31964833
v -0.62355429 -0.07570891 -0.07744262
v 0.26310346 -0.08710448 0.48665097
v -0.32943082 -0.33502808 -0.36762565
v -0.07643089 0.31198284 -0.21199119
v -0.28846192 -0.28059685 0.24735761
v -0.42554262 -0.04417375 0.32188779
v -0.08771463 -0.35561240 -0.33312172
v 0.54885632 -0.06297298 -0.04523703
v -0.47417021 -0.22650254 0.19988744
v -0.30751228 -0.27361390 0.34767193
v -0.50456595 -0.12529950 -0.21220687
v 0.31767219 -0.16648519 -0.35852504
v -0.64621687 -0.03225127 -0.03317748
v 0.01040555 0.32851925 -0.20761347
v 0.30435675 -0.25879806 -0.00604129
v 0.32933697 -0.02900023 0.39600450
v 0.18764627 0.03618427 0.49849239
v -0.07154126 0.13283062 0.54000634
v -0.32510841 -0.06741551 -0.44966227
v -0.59304553 -0.10506842 -0.07402942
v 0.52098089 0.08401162 0.14554539
v 0.21690865 -0.25274602 0.40983585
v 0.21070237 -0.16561191 -0.41707927
v -0.19587350 -0.05898440 0.47587273
v -0.34248978 0.12121437 0.38438100
v -0.51305383 -0.28474513 -0.09727123
v 0.40375489 -0.23081854 0.01168752
v -0.08366324 0.16770127 0.42642254
v 0.12338980 -0.30689982 -0.42986786
v -0.49806732 -0.14951085 -0.17284906
v -0.18419997 -0.31342769 0.30762857
v 0.26455998 -0.11830248 0.51821148
v -0.75026554 -0.03952474 0.07076500
v -0.42584503 -0.33606246 -0.02092513
v 0.52634013 0.12473621 -0.05659311
v -0.34246632 0.04770176 0.42425844
v 0.08690818 -0.34703198 -0.15649101
v 0.37588954 0.25882202 0.10537146
v 0.44753689 0.17401806 0.15349236
v -0.28837448 -0.29887715 0.27700654
v -0.30835426 -0.28597468 0.23455711
v -0.30481288 0.25126493 -0.16270784
v -0.16488819 0.23047064 -0.38504660
v -0.32326820 0.30147684 -0.14253916
v -0.50000864 -0.26606482 -0.20700288
v 0.50851464 -0.09544763 -0.04622331
v 0.37652159 -0.18427655 0.35744402
v -0.60438603 -0.22795774 0.02868900
v 0.35396531 -0.12304480 0.41921601
v 0.43102631 0.04049359 0.37734500
v 0.32598475 -0.26609099 0.00267464
v 0.13746068 0.18679951 -0.45942193
v -0.56493890 -0.11783837 -0.12306324
v 0.05972187 -0.34984106 -0.13753256
v 0.25145698 -0.14674848 0.46258664
v -0.29191357 -0.08354229 0.45517200
v -0.28308064 -0.25882360 -0.43817860
v -0.40822402 -0.16841172 0.32944745
v -0.58573478 -0.21265097 -0.12475905
v -0.28596711 -0.25923869 0.38948485
v -0.28908837 -0.27798030 0.25229195
v -0.05748298 -0.30233073 -0.43807414
v -0.14059159 0.34297174 -0.06315305
v -0.34428889 -0.01037408 0.44014481
v 0.25112367 -0.20620853 -0.40103954
v 0.39281252 -0.09093375 0.36822760
v -0.58285582 -0.08724744 -0.07484373
v 0.35538864 0.25022516 -0.16825800
v -0.47072649 -0.24484275 0.21079201
v -0.47693017 -0.16425519 -0.24681601
v 0.01703786 0.33491576 -0.20856006
v -0.02707644 -0.38380951 -0.32377294
v -0.07540416 0.35724396 -0.03598583
v 0.51041692 -0.09351033 -0.14615899
v -0.01244502 0.33534172 -0.19898911
v -0.19666469 -0.35032636 -0.28639042
v 0.46421975 -0.12557840 -0.02415800
v 0.37508583 -0.05442721 0.39162874
v -0.28809941 -0.02315803 0.49034357
v 0.55768728 -0.03152982 0.10996239
v -0.17470422 0.33019835 -0.11603330
v -0.49128288 -0.26986784 -0.22984265
v -0.39943686 -0.25554413 -0.20411497
v -0.37293595 0.11061534 0.24959576
v -0.57555455 -0.13500988 -0.13575211
v -0.10018478 -0.10377848 0.48960063
v 0.33485627 -0.16748220 -0.41553813
v -0.30552191 -0.20155479 0.45080605
v 0.36692035 -0.24993488 -0.02946934
v 0.52028835 -0.15430446 0.00210367
v -0.32814923 0.22458383 0.26608893
v -0.72351497 -0.10964877 -0.02178413
v 0.36525667 -0.21717577 -0.08207151
v 0.11003585 0.25338101 0.40040284
v 0.31429267 -0.14765351 0.42117676
v 0.30959058 0.22978681 0.30828688
v -0.29131669 -0.21538788 0.41532025
v -0.12061040 0.27569491 0.25358596
v -0.33429861 -0.20747277 0.40728098
v -0.03116230 -0.39756697 -0.30694264
v -0.62155449 -0.02451842 -0.01298693
v 0.38118783 0.13949214 0.38420129
v -0.22620364 0.25491399 0.24185550
v -0.16006488 0.34594038 -0.13528931
v 0.41416663 0.27555111 0.02052746
v 0.30480283 -0.12920147 0.43447420
v -0.05506021 -0.37329349 -0.23534212
v 0.32015380 -0.18933302 0.37714830
v 0.06638311 0.35241529 0.05618313
v 0.60180247 -0.03446964 -0.00358798
v 0.38827550 0.21977533 0.22319898
v -0.00839292 -0.30930692 -0.49005881
v -0.17058699 -0.18307191 -0.47530371
v -0.01024620 0.31427473 0.32930535
v 0.77215236 0.14332369 0.00812097
v -0.50773060 -0.26066637 -0.04150864
v 0.02110058 -0.36305442 -0.40743861
v -0.22747417 -0.26993310 0.39622456
v 0.26620200 -0.13039285 0.42787674
v -0.00249981 -0.40456969 -0.36500400
v 0.01907651 0.32672793 0.27545860
v -0.00830237 -0.17275997 -0.51792395
v -0.08035143 0.03228526 -0.25471908
v -0.87299156 0.01940952 0.07680121
v 0.33195922 -0.10833422 0.47516224
v 0.41350871 -0.21770999 -0.10204399
v 0.09202832 -0.36416185 0.14081720
v 0.54441011 0.17078783 0.09892831
v -0.08204050 0.11306913 0.53146690
v 0.42277378 0.19518049 0.25355715
v 0.30377480 -0.24694084 -0.07109171
v -0.54182792 -0.30920663 0.02840169
v -0.36153883 0.00206319 -0.38632703
v 0.09518495 0.43374395 0.11923719
v -0.18706049 0.12840654 -0.36626443
v -0.52487004 -0.25215152 -0.11202291
v 0.42368478 -0.01886959 0.30822980
v 0.41706014 -0.23013404 -0.02599055
v 0.64781737 0.13585979 0.14605314
v 0.42462945 -0.22930107 -0.14568272
v -0.49059340 -0.19483027 -0.30591065
v -0.23281400 -0.27328476 0.23653066
v -0.38949549 -0.30913037 -0.37767294
v 0.08894798 -0.34602094 -0.35019225
v -0.31571054 -0.17853665 0.38807690
v -0.03065833 -0.37616885 -0.16048077
v -0.23665962 -0.15587489 -0.50012088
v -0.13489355 -0.30192298 0.27731037
v 0.45787936 -0.16994444 -0.01910552
v -0.38318574 -0.25142533 0.30770525
v -0.24860129 -0.36697251 0.17164275
v -0.47231203 -0.10963102 -0.31471676
v 0.29979897 0.15302879 0.38075256
v 0.04502399 0.37708706 -0.03246540
v -0.23111843 -0.33672073 0.05818313
v 0.48298335 -0.08250395 0.29667836
v 0.09834665 0.29717547 -0.35538015
v -0.20345198 0.21245928 0.37102911
v 0.47729176 -0.16538015 -0.11044146
v -0.07513249 0.14253211 0.54355127
v -0.25677860 -0.14945939 -0.46539772
v 0.16826414 -0.24608204 -0.43244824
v 0.44410408 -0.13048097 0.24855018
v -0.39553201 -0.06779391 0.38262486
v -0.53431493 0.19317606 0.04053791
v -0.38662714 -0.08147408 0.42131436
v -0.44257516 0.16857508 0.11236592
v -0.51693159 0.14990468 -0.02997652
v 0.48054966 -0.00516516 0.26286814
v 0.15659845 -0.31829128 -0.04707897
v -0.04770596 -0.35813862 -0.40565756
v -0.14497469 -0.22954661 0.45762944
v 0.26544818 0.23052537 0.20398971
v 0.32437038 -0.05021752 0.40237549
v 0.25778040 0.04020812 -0.40011448
v 0.38042933 0.00721317 0.35518682
v 0.37227827 0.19775477 0.28782755
v -0.56701946 -0.12344436 -0.21133879
v 0.42600924 -0.01252595 -0.28773779
v 0.40458602 -0.09724279 0.34886268
v -0.20858745 -0.17522298 -0.47526357
v 0.02537649 0.26364452 0.13127224
v -0.02181231 -0.37358671 -0.21823862
v 0.54558545 0.24934143 0.16400306
v -0.10325678 -0.38587725 -0.34844175
v -0.20009905 -0.30367327 -0.45325333
v 0.00922142 -0.31965300 0.39523083
v 0.19697306 -0.27629182 -0.40137631
v 0.23574714 -0.12852640 0.51522213
v 0.06554157 0.19572695 0.42535096
v 0.54573262 0.18126491 0.15204446
v 0.32012099 -0.23949602 -0.07149249
v -0.54762179 -0.28150344 -0.10830247
v 0.53333157 0.25596875 0.05820516
v 0.37240860 -0.10570312 -0.32995623
v -0.50759697 -0.33649808 -0.10496829
v -0.13685285 -0.15907371 0.47291237
v 0.27437058 -0.26240587 0.03425264
v -0.48732507 0.05933514 -0.17689754
v 0.44001853 -0.08949529 0.27605453
v 0.05613393 0.35474330 0.21584168
v -0.57983655 -0.17837055 -0.06867236
v 0.05714104 -0.33802819 -0.34908804
v -0.40866762 -0.35902846 0.04909143
v 0.43907464 -0.12882757 -0.02271256
v -0.55514038 -0.21987446 -0.15421790
v -0.54426718 -0.16771664 0.01054743
v -0.47111428 -0.19383746 -0.25739965
v -0.71419036 -0.15152049 -0.04876062
v 0.56982040 0.11965740 0.12318490
v -0.19219540 -0.35939533 -0.13409677
v 0.35551280 -0.07506189 0.40703344
v -0.29947877 0.12205303 -0.35914436
v 0.10894500 0.24838275 0.27345800
v -0.17822631 -0.32172069 0.15385163
v -0.44873160 0.13847592 0.25242117
v -0.42506379 0.15517510 0.20473105
v 0.43536657 -0.11177988 0.27992535
v 0.18517420 -0.29928255 0.09070441
v 0.34950811 -0.15779558 0.42079219
v 0.27139902 0.06660816 0.45958215
v -0.33031285 -0.32412931 -0.34960091
v 0.12252299 0.35505822 0.24536335
v -0.30374974 -0.33362973 -0.36459088
v 0.46358308 -0.00788078 -0.28769404
v 0.62343329 0.05399846 -0.10926939
v 0.01458042 -0.35712427 0.34176803
v -0.72180349 -0.06531065 0.01752365
v -0.47017026 -0.29473260 -0.20786268
v 0.05866669 0.34442389 0.29183060
v -0.38059872 -0.20610750 -0.40562254
v -0.20194747 -0.06752871 0.51779938
v -0.29826826 -0.24828100 0.41550034
v -0.21722546 -0.18985212 0.45909023
v -0.54703695 -0.30821842 -0.06114390
v 0.41434529 -0.15846637 0.10301679
v -0.04576485 -0.37712929 -0.38038215
v -0.03903697 -0.34857568 -0.23038813
v -0.73837107 0.10183433 -0.00466162
v -0.42612159 -0.27815151 -0.31333858
v -0.56697369 -0.18375885 -0.18892242
v -0.15769656 0.30162278 0.18555951
v 0.50166178 -0.17140622 0.00463723
v 0.13462704 0.35528249 -0.12819894
v 0.08916834 0.10556053 0.51453698
v 0.28213045 0.06323871 0.47400191
v 0.51662880 0.13229793 0.24440986
v -0.43681711 0.22815859 -0.06058510
v -0.38512993 -0.18751881 0.29727295
v -0.49007240 -0.24571624 -0.22818935
v 0.29326630 -0.10859955 0.47840375
v -0.30592912 0.22046083 -0.27677217
v -0.52539825 -0.32021096 -0.03421178
v 0.53590602 0.13060032 0.17540109
v -0.24809241 -0.00114445 0.47946677
v 0.42066103 -0.06126884 -0.11274274
v -0.26692176 0.25650865 0.15430066
v -0.48886409 -0.20163563 -0.30500746
v 0.26253787 0.07201904 0.42621112
v 0.02920078 -0.24791971 -0.47441810
v 0.35839546 -0.00765747 0.42641804
v -0.47749609 -0.05536764 -0.20691815
v -0.01341679 0.34175593 -0.20322034
v 0.51281434 -0.03630973 0.02195588
v -0.40173137 -0.37446979 0.21424343
v -0.03116991 -0.35360411 -0.24509776
v -0.59890628 -0.25187242 -0.08172691
v 0.43190324 -0.09988832 -0.18884979
v 0.20480344 0.29793763 -0.05860552
v 0.51962948 0.23035154 -0.07120435
v -0.21685906 -0.13134925 0.51721680
v -0.22878642 -0.26123345 0.39084709
v -0.13119239 0.09218200 0.49211425
v -0.17111643 0.28726774 0.25596380
v -0.33947009 -0.26854557 -0.43209466
v -0.17491798 -0.34171885 -0.40449905
v -0.28174961 -0.36818182 -0.26366073
v 0.43727139 -0.04514043 0.31643337
v -0.28697872 -0.34704354 -0.32332259
v 0.45560053 0.25795901 0.05482738
v 0.65050995 0.02839131 0.01472537
v -0.73822057 0.10727611 0.03601433
v -0.49618322 -0.04409882 -0.23324846
v 0.51182288 -0.11457632 -0.11313991
v -0.47437742 -0.32276177 -0.29016638
v -0.15651588 -0.09071541 0.52439636
v 0.11205481 0.29239053 -0.32833242
v -0.44009852 0.19559686 0.05592366
v -0.12949154 -0.37148464 -0.22979453
v -0.39860022 0.14496429 0.29905427
v 0.00572038 -0.35065514 -0.34089577
v -0.09093505 -0.02358283 0.49904236
v -0.28122753 -0.26029521 0.39156821
v -0.52683198 0.04338939 -0.24416639
v -0.19620228 -0.34685075 0.17320102
v -0.70792300 -0.06596684 0.01255503
v 0.11501865 -0.20511222 -0.49400872
v 0.05620011 0.36216852 -0.24108885
v -0.10708684 0.14753410 0.49908319
v 0.09317864 0.24188972 0.48399749
v 0.12810001 -0.22778016 0.52056694
v 0.18064296 0.31547514 -0.14592481
v 0.35150358 0.16552398 0.36267096
v 0.04190132 -0.33952397 0.07207981
v -0.24430880 0.29006079 -0.25228822
v 0.22469802 -0.10821350 0.51432955
v -0.09146856 -0.38766980 -0.06728508
v 0.10710850 -0.22942975 -0.48505872
v 0.33652675 0.26056144 0.15548056
v -0.50076073 -0.28901586 -0.25121436
v 0.33001518 -0.27529833 -0.08203210
v -0.26957893 -0.40088129 -0.11348566
v 0.08062321 -0.33530250 0.04374599
v 0.35841233 -0.12297459 0.31682462
v -0.23545069 0.29216745 -0.26471540
v 0.61638546 0.18896663 0.01924919
v -0.16422926 -0.25770432 0.39401752
v -0.26697159 -0.28589475 0.33016786
v 0.31353152 0.27179891 -0.18238045
v -0.50639409 0.10890844 0.20777375
v 0.51026314 -0.13131244 -0.08797123
v -0.16428554 0.13847813 0.49967250
v -0.39441070 -0.22535893 0.34830356
v 0.22742012 -0.12574400 0.50309944
v 0.42482191 -0.15017539 0.00991890
v 0.22485417 -0.30170378 -0.05297124
v -0.45358741 -0.15734422 0.29737538
v 0.30362046 0.15941738 -0.34941030
v -0.69074780 -0.14747761 -0.01313889
v 0.09553336 -0.38319728 -0.28964692
v -0.21211474 -0.17279698 0.46990392
v 0.47925287 0.15818770 -0.08504550
v -0.54070705 -0.02638108 -0.09599475
v 0.42060769 0.13036001 -0.27218753
v -0.07774939 0.10395998 0.48714200
v -0.46654078 -0.30280507 -0.05602303
v 0.32664764 -0.25307930 -0.06251132
v 0.44142860 0.06338371 0.34880751
v 0.23983756 -0.26654169 -0.36770076
v 0.51208836 -0.13322896 -0.05183086
v -0.11016561 0.05388691 0.53755414
v -0.11050546 -0.38658175 -0.08601022
v 0.35843080 -0.27965102 0.03407092
v 0.69186282 0.16302887 -0.01929411
v 0.36347264 -0.23009962 0.00153357
v -0.24409196 -0.23691955 0.42292112
v 0.33590657 -0.26856869 -0.05025351
v 0.23780158 -0.11980458 0.49599704
v -0.29885000 0.16559507 0.27195460
v 0.62153530 0.01563756 -0.02844159
v 0.61718142 0.11050887 0.01276502
v -0.19670925 -0.42112213 -0.34998250
v 0.35317454 -0.21763425 -0.11455342
v 0.35822862 0.19447288 0.35567713
v -0.55410600 -0.28743926 -0.07434964
v -0.37868181 -0.06533167 0.39718664
v -0.46785817 -0.06661712 -0.22767377
v -0.46543896 -0.13822661 -0.28480488
v -0.66692793 -0.00971127 0.00517708
v -0.29008377 -0.17254783 0.41092837
v 0.24439597 -0.13467339 0.50727844
v -0.29963407 -0.30984971 -0.41318583
v 0.50585079 -0.11694644 -0.13221405
v 0.03495980 0.16885917 0.45198208
v 0.65295732 -0.00089228 0.02070878
v -0.68546450 -0.16593200 0.07513390
v 0.32449272 -0.02381113 0.42543817
v 0.19205254 0.29948908 -0.27081212
v -0.38795060 -0.01455481 0.38414991
v -0.12396439 -0.37106907 -0.28440732
v 0.35092059 -0.01392067 0.41618106
v -0.45208415 -0.01962066 -0.33612975
v -0.55362236 -0.31057370 -0.05933338
v -0.17063552 -0.01201318 0.49809694
v -0.26589072 -0.40093321 -0.31058475
v -0.38702869 0.14091071 0.18261272
v 0.20288096 -0.30206180 0.12240607
v -0.17153397 -0.27999577 0.37071440
v -0.18580003 -0.24841315 0.41966829
v -0.08190140 -0.40119836 -0.01837181
v -0.61992919 0.05420193 0.01226063
v 0.30094033 0.26727566 -0.21078174
v -0.23923123 -0.12708224 0.45794508
v 0.44854921 0.08292086 -0.23762803
v -0.53869873 -0.26807439 -0.17257676
v -0.72122073 -0.04903371 -0.00490379
v 0.63948148 0.09437544 0.11357936
v -0.19451901 0.31248119 -0.25667328
v -0.19528238 -0.32277584 0.22515664
v -0.22881363 -0.33125222 0.13017762
v -0.27593303 -0.16134402 -0.51711446
v -0.35959521 0.14122401 -0.30351359
v -0.13701317 -0.39676592 -0.26046571
v 0.15808697 -0.03059322 -0.48520213
v -0.06096426 -0.20976084 -0.49649468
v -0.19552395 0.11865072 -0.38998327
v 0.42103279 -0.21859534 -0.05501083
v 0.34758291 -0.22580674 -0.04282129
v -0.11851923 -0.09918861 0.49235648
v 0.28450224 0.05906925 0.48495558
v -0.10818414 -0.41821197 -0.25889912
v 0.40230733 0.29595754 0.01164284
v -0.59505630 -0.18796918 -0.01957029
v -0.28080577 -0.40654302 -0.09620550
v 0.25521982 -0.13288882 0.47242123
v -0.33236900 0.16309366 -0.18774953
v -0.58687699 -0.09369306 -0.08123444
v -0.05851650 -0.06557382 -0.54141116
v -0.15570836 -0.29751062 -0.46334612
v 0.11363026 -0.25023118 0.33430657
v 0.55257457 0.21242918 0.16281417
v -0.23235561 -0.15190288 0.44764662
v 0.52094424 0.17792188 0.16731700
v 0.16791600 0.33563367 -0.17320424
v -0.61735666 -0.11524647 -0.11348110
v -0.09345989 0.28209791 0.29019997
v 0.30906940 0.09109533 0.45539269
v -0.33592299 -0.03792366 -0.45854974
v 0.21866363 0.14868921 0.42183113
v 0.29596996 -0.16581863 -0.42505446
v -0.09360223 -0.35601449 -0.29527089
v -0.18954764 -0.25030831 0.37651271
v -0.43155852 -0.25122592 -0.27372092
v 0.18930882 0.33953357 -0.10196009
v -0.23553826 -0.21353033 -0.51424366
v 0.11838998 0.33467028 0.28437597
v 0.02704110 0.27684721 0.34050038
v -0.52051657 0.02612944 -0.19505592
v 0.28414705 0.27505344 -0.25034332
v -0.48494074 0.13513823 0.20936137
v -0.51378375 -0.20600641 -0.18690866
v 0.33767995 -0.22724104 -0.21989012
v 0.38294041 -0.21917677 -0.03818494
v -0.25792551 -0.28019267 -0.45688838
v 0.01399449 0.29199123 0.35551256

