# https://github.com/mikedh/trimesh
v -0.40718746 -0.24373081 -0.18064319
v -0.18728569 -0.18259978 -0.02955552
v -0.41707599 -0.04641795 -0.04655139
v 0.30203626 -0.15071465 -0.31335351
v 0.17502052 0.15621448 0.29079455
v 0.55876184 0.01303615 -0.18342619
v 0.41137254 -0.11644579 -0.26532388
v -0.61103618 -0.16700536 0.07215770
v 0.23354536 0.02034362 -0.17343214
v 0.58374423 0.00442339 -0.10911965
v 0.48483729 -0.07996493 -0.04928041
v 0.16140923 -0.08444642 0.23501445
v -0.42181268 -0.18691440 0.13987504
v 0.26309133 -0.12299791 0.12244576
v -0.21701643 0.25894421 -0.07687925
v 0.24614544 0.01891442 0.19843985
v -0.51080245 0.00504220 0.04320855
v -0.27877036 0.24850334 -0.07844887
v -0.21847323 0.12083741 -0.24831253
v -0.14239848 0.19082530 0.07491054
v 0.32394233 -0.13183792 -0.23073699
v 0.09200201 0.15052854 -0.20619318
v 0.37542546 -0.11446594 -0.16857348
v 0.38996083 0.24194048 -0.11190107
v -0.35378483 -0.16287129 0.21315120
v 0.21947640 -0.19665352 -0.23590119
v -0.25960970 -0.08754657 -0.22761756
v 0.59650308 0.03222227 -0.01120420
v 0.08651823 0.19151242 -0.13012156
v -0.37025231 -0.16261646 0.30231225
v -0.67874843 -0.15592431 -0.20153330
v -0.66843277 -0.17052540 -0.07511698
v 0.29650369 0.04312497 0.10587543
v 0.22242929 -0.17583738 0.28411758
v -0.37531224 -0.39689082 0.26393464
v -0.68497795 -0.18566318 -0.02116254
v -0.49228051 -0.07153302 0.04272000
v 0.52387470 -0.03284395 -0.13654502
v -0.27856338 0.02514014 0.08815987
v 0.35427690 -0.13553455 -0.19484024
v 0.39743865 -0.05538632 0.16107804
v 0.29113859 -0.00309114 0.18245032
v 0.47193691 -0.07103877 -0.03083625
v 0.58553451 0.03443082 -0.04052256
v -0.41706625 -0.17568217 0.16529994
v -0.02296110 0.09984499 0.26695168
v -0.53199917 -0.24569924 0.17313936
v -0.34676301 -0.29232055 0.13219930
v -0.04721181 0.11806478 -0.15032043
v 0.58135015 0.00122757 -0.22012307
v 0.32278198 -0.09460494 -0.33491689
v -0.28021675 -0.12307768 -0.28049198
v 0.15462556 0.06877260 0.32847494
v -0.34086630 -0.39231661 0.31552339
v 0.18178545 0.34199870 0.19574675
v 0.18818888 0.35143954 0.20891416
v -0.17022467 -0.01598006 -0.03419454
v 0.53379703 0.15936331 -0.04686881
v -0.09210480 0.30407214 -0.04370420
v 0.55808580 0.09375022 -0.05269709
v 0.35010776 0.30602396 0.18849829
v -0.33719054 -0.03956890 -0.15395334
v -0.38796771 -0.18787533 0.09572612
v -0.50967109 -0.11566321 -0.04253922
v -0.22384231 -0.31411576 0.39381826
v 0.07236925 -0.08548509 0.33858189
v -0.10108950 0.10526646 -0.06791461
v 0.28648874 0.15692711 -0.25675625
v 0.14254932 0.39339438 0.23603702
v 0.61543965 0.00870004 0.06650989
v -0.02631858 0.13468377 -0.30931282
v 0.28278884 0.36966845 0.15113482
v -0.54490376 -0.06680772 0.11526523
v -0.42026129 -0.12400655 -0.18343425
v -0.48858923 -0.06486083 -0.13445646
v 0.30241886 -0.23070043 0.22306553
v -0.58761430 0.08556426 -0.00849494
v 0.54628026 0.05430133 -0.02170426
v -0.44886452 -0.25402036 0.26978552
v 0.29528999 0.28387067 0.23370408
v 0.23612615 0.27942958 -0.03571869
v 0.42096367 -0.09925165 -0.25210315
v -0.48477849 0.02395194 -0.08396425
v 0.17865238 -0.10839029 0.36074191
v -0.20435980 -0.01174815 -0.21086597
v 0.40260640 -0.02719842 -0.11724176
v 0.52969873 -0.04350017 0.03444268
v -0.49987611 -0.23829162 0.21977970
v 0.27289802 0.18758997 -0.10294370
v 0.52428722 -0.07112778 -0.03396776
v 0.27369395 0.14654103 -0.21204296
v 0.27555320 0.26406330 0.09561451
v -0.58924973 -0.12582244 0.11410631
v 0.51688826 0.00583967 -0.01309495
v 0.34652713 -0.19213662 0.23747322
v -0.29174995 -0.00446679 0.24777687
v 0.57123238 -0.02371376 0.08032584
v -0.29646641 -0.33786583 0.39689583
v -0.25212318 -0.14580886 -0.09424017
v -0.73491502 -0.19246858 -0.05597514
v -0.21411896 -0.11287825 -0.31060332
v 0.03531364 0.34513858 0.31901431
v 0.18012545 0.09012161 0.22202218
v 0.31491321 -0.06084768 -0.32199654
v 0.44670692 0.32725894 0.13399340
v 0.47786441 0.06202049 -0.22584599
v -0.21612649 -0.03432842 0.14815089
v -0.39375830 0.09522820 0.22834697
v -0.45179218 -0.25770074 0.29459089
v -0.53623259 -0.15569443 0.09508607
v -0.65053344 -0.20197983 0.06969984
v 0.61190146 0.12448994 -0.03107869
v 0.40237242 0.00679531 0.16914555
v -0.16385910 0.25785464 -0.17055139
v -0.68189573 -0.17216653 -0.17814396
v -0.45904469 -0.05445166 -0.07539643
v -0.67500424 -0.18210304 0.04640598
v -0.14481734 0.05991020 -0.21649861
v -0.52763045 -0.13709283 -0.05700386
v -0.60844034 -0.04041084 0.07178283
v -0.50546193 0.04411323 0.03698330
v -0.20612025 0.14912170 -0.25478116
v -0.58257341 -0.20748012 0.13395283
v 0.53359550 0.13277133 0.06330828
v 0.42325109 -0.09076505 -0.04912963
v 0.38676909 0.35216543 0.18363994
v -0.12047250 0.04580884 -0.23918547
v -0.52062827 -0.34486109 0.07610101
v -0.82897329 -0.15153602 -0.07009801
v 0.25311381 0.21034499 -0.35946998
v -0.58881366 -0.24201402 0.12211698
v -0.49356726 -0.00538816 -0.07802235
v 0.08040205 -0.07253609 0.36771047
v -0.44404608 -0.05099897 -0.09316482
v -0.42746377 0.02317483 -0.04593598
v 0.42077094 0.13484766 -0.16386519
v 0.66105080 0.06768882 0.00408804
v -0.45539379 -0.04870320 -0.06423640
v -0.35065719 -0.35828459 0.36786482
v -0.07821548 0.24202277 -0.19540554
v 0.44711828 0.08019324 0.15084927
v 0.30584905 0.19884606 -0.23218212
v 0.47361499 0.07080323 -0.25685424
v -0.34294039 -0.10301352 0.30170372
v -0.23809154 -0.07222673 -0.21001881
v 0.13569838 0.41065821 0.17288974
v 0.26421958 0.21124220 -0.30547640
v -0.50761402 -0.29739606 0.20150194
v 0.57103342 -0.01468754 -0.20652190
v -0.34789848 -0.28781247 0.19539444
v -0.24673605 -0.15587589 0.21409915
v -0.25284329 -0.03210405 -0.23379999
v 0.45990396 -0.05959009 0.04848478
v -0.74579281 -0.09844639 -0.10800040
v -0.58735311 -0.14260878 0.14238909
v -0.40395758 0.09702975 0.23792629
v 0.32512978 -0.07053678 -0.32482696
v 0.23624262 0.35007358 0.18205437
v -0.51803428 0.02409063 0.14609867
v -0.34834236 -0.02108143 -0.17330879
v -0.27614379 -0.02738878 -0.23415413
v 0.23689902 -0.19204713 -0.23680630
v 0.19529656 0.22208348 -0.17056963
v -0.75564486 -0.13697930 -0.14189386
v 0.39523464 0.00538765 0.03655342
v 0.27452564 0.23913249 -0.26681009
v 0.24138635 0.16790178 -0.38236749
v 0.10876461 0.31980908 0.10357032
v 0.31359303 -0.12310527 -0.23224139
v 0.38298106 0.12832917 -0.23334026
v 0.11548121 0.35044408 0.31840599
v 0.36020964 0.32998419 0.13038082
v -0.45860344 0.08706340 0.19290462
v -0.75525522 -0.14266011 -0.14853373
v 0.35377118 0.19977902 -0.24146575
v 0.22217965 0.16528589 -0.08033091
v 0.43883759 0.08977724 -0.21342079
v -0.76858670 -0.14469698 -0.16960151
v 0.40287423 0.02516852 -0.11075063
v 0.38772646 -0.07675514 -0.13320968
v -0.47098652 -0.33342129 0.22694887
v 0.62411588 0.02246374 -0.15402058
v 0.01091265 -0.25373232 0.28367382
v 0.27297980 0.31848112 0.06587175
v 0.47720784 0.16920231 -0.06858335
v 0.49254325 -0.07229082 -0.10923854
v -0.59871364 -0.14315481 0.06747735
v 0.35066617 -0.00814492 -0.16604172
v 0.10385177 -0.23648077 0.35627618
v 0.17524013 0.35979924 0.08517937
v -0.11321656 0.23499373 -0.21127155
v 0.42367530 0.22076091 0.00770626
v 0.22965771 0.10360421 0.28059691
v -0.56970721 -0.17330514 0.02563137
v 0.38223919 0.09452669 0.16066478
v 0.30922109 -0.14201604 -0.29668862
v 0.31742924 0.36034393 0.13709910
v 0.58766252 0.08482762 -0.01074853
v -0.30168438 -0.03799504 0.10413641
v -0.76738083 -0.12763312 0.04230967
v -0.40996262 -0.16914321 0.15082422
v -0.70317107 -0.15212549 -0.15953156
v 0.14198157 0.16453965 -0.04517984
v -0.74182379 -0.16627771 0.02949256
v -0.37671101 -0.00260022 -0.19277038
v -0.65486491 -0.20674215 -0.22552919
v 0.57347167 0.15886585 0.04788550
v 0.60817087 0.02778241 -0.14575554
v -0.72843283 -0.19243619 -0.01967837
v 0.50751978 0.06921178 0.12231089
v 0.15214393 0.23639481 -0.39623249
v 0.28169969 -0.13278650 -0.25683698
v 0.63207501 0.00944964 -0.14465328
v 0.29035127 0.36890256 0.14476624
v -0.57427949 -0.23598129 0.03119774
v -0.56077665 -0.28680226 0.17684607
v 0.24001455 -0.14868787 0.27818662
v 0.15175858 0.19723682 0.29088247
v -0.40368941 -0.05509537 0.06742131
v 0.38235649 -0.00860737 -0.12391284
v -0.53747523 -0.24493363 0.18599358
v 0.56261891 0.00329457 -0.18913308
v 0.33317026 -0.08372977 -0.21768168
v -0.39530289 0.10957820 -0.07185238
v 0.16099179 -0.26576287 0.30556011
v -0.74458313 -0.07207680 -0.05180520
v -0.49466303 -0.30528861 0.24202943
v -0.59741628 0.03331808 0.14315362
v -0.37263662 0.15727434 -0.13535918
v 0.59449995 -0.06665936 -0.12540691
v 0.00250955 0.31762826 0.05111935
v -0.63730848 -0.03404908 0.14587680
v 0.45943227 0.05138746 -0.23052800
v -0.75373608 -0.11316711 -0.01740691
v 0.28829208 0.12604611 -0.18587874
v 0.12059611 0.10437026 -0.28713551
v -0.54621494 0.06999508 0.17872161
v -0.58439398 -0.10251913 0.03829740
v 0.65439481 0.05489036 -0.15328138
v 0.36923379 0.19418997 -0.09129149
v -0.26974502 -0.40290374 0.34439653
v -0.09705512 0.05291163 -0.15514891
v -0.38427508 0.14023502 -0.12804386
v -0.40860060 -0.33190563 0.31624770
v 0.02551035 0.18230686 -0.14774720
v -0.12154237 0.04703380 -0.20632336
v 0.14417031 0.26194742 0.20213461
v 0.41797537 -0.12608363 -0.17884871
v 0.49893752 0.06908072 -0.22992428
v -0.21800214 0.09444614 -0.27503404
v 0.58828348 0.11210731 -0.01291469
v 0.02257787 0.35040927 0.32337543
v -0.39060995 -0.28849250 -0.03100456
v 0.13415635 0.41029429 0.17477819
v -0.31813028 -0.15395203 -0.21195564
v -0.31241468 -0.04872160 -0.25960568
v 0.39668709 0.25748444 0.16783369
v -0.61803526 -0.09745554 0.05130702
v -0.55219680 -0.08028881 0.10291134
v 0.67262971 0.07252418 0.02128958
v 0.32605597 0.05316743 -0.02574701
v 0.21782079 -0.09829078 0.23433727
v 0.43785661 0.14807414 -0.15853614
v 0.11462432 -0.09442835 -0.47000805
v 0.59353560 -0.03298969 0.04657190
v -0.16636279 -0.19351685 0.13541782
v -0.62112021 -0.14831357 0.01222884
v 0.09561062 0.30094677 0.10372020
v 0.07061814 0.22942370 -0.17156403
v 0.69733477 0.09811188 0.01456390
v -0.38412452 0.17157824 -0.11708665
v -0.56053746 0.07932661 0.12883300
v 0.41057232 -0.00005465 -0.28450489
v 0.53230059 0.05239245 -0.21927433
v -0.63589990 -0.02924269 0.12121249
v 0.60816634 0.02310342 -0.11150905
v -0.56844068 -0.18348572 0.15685350
v -0.62913990 0.06178973 0.09520210
v 0.26946288 0.20767938 -0.14263216
v 0.58696240 0.07169762 -0.16047159
v -0.76007801 -0.12970284 -0.08972449
v 0.02309367 0.00629494 0.30930990
v -0.17118080 -0.13603848 0.38412616
v 0.53957409 0.00420428 -0.04991105
v -0.05836844 0.12703310 -0.07093827
v 0.04089347 0.32071093 0.00485846
v 0.39534825 -0.02376513 0.04961528
v -0.30353674 0.13880414 0.30279785
v -0.66684729 -0.12827680 -0.04359239
v 0.36028865 -0.10607842 -0.22037378
v -0.58569878 -0.12899908 -0.01126173
v 0.33557546 0.04882752 -0.15961157
v -0.72802848 -0.13755432 -0.04747469
v 0.36670542 -0.04162049 -0.26080236
v 0.37312129 -0.01883975 -0.33661017
v -0.57633191 -0.06645520 0.03150629
v 0.45920432 0.00440717 0.09894443
v -0.44227713 -0.20406270 0.10100403
v -0.59279519 -0.09848449 0.04125727
v -0.81576073 -0.12838510 -0.07810132
v 0.04923112 -0.04538194 0.37297404
v -0.51730561 -0.14297591 -0.07025523
v -0.65989524 -0.21518970 0.02886899
v 0.52729845 0.18337545 -0.03988334
v 0.10815254 -0.17414001 -0.36961210
v 0.37497541 0.04384410 0.06649227
v -0.63800955 -0.17976701 -0.03948222
v 0.61374629 0.05292561 0.07982765
v -0.35295931 0.11672767 0.28291073
v -0.04585265 0.26955402 0.22458673
v -0.33275944 -0.22132960 0.06783831
v -0.10297164 0.07096237 -0.20941615
v 0.56848848 -0.04682630 -0.19012721
v 0.52051938 0.09437777 -0.14225477
v -0.30093357 0.16369508 0.30807942
v -0.75948977 -0.12950696 -0.11660887
v -0.58279777 -0.25157735 0.09795822
v 0.01002190 -0.19058765 -0.22699012
v 0.27716371 0.25218230 -0.26834235
v -0.68642831 -0.12714352 0.03075986
v 0.49437118 0.07325622 0.13214299
v 0.23914526 0.12974508 -0.16871732
v -0.61330700 -0.17924759 -0.03684541
v 0.16458178 -0.19389734 -0.06498677
v 0.28118211 -0.13956583 -0.28740951
v -0.41901243 -0.34676114 0.11517960
v 0.21631098 -0.12600121 0.10049661
v 0.63426912 0.07415015 -0.01356314
v 0.48955730 0.12990871 0.01492967
v -0.42610306 -0.30857271 0.16082904
v -0.45504004 -0.08952004 -0.20496999
v 0.58732808 0.03465739 -0.00903630
v -0.18956202 0.11143368 0.08554125
v 0.12537181 0.42231748 0.10469370
v -0.08987661 0.27449059 0.13168463
v -0.53100485 -0.30491126 0.12995872
v 0.31572393 0.04166830 0.18893111
v 0.27222639 0.24625039 -0.08963940
v 0.37273389 0.07520193 -0.03149361
v 0.45300359 0.18466721 -0.09538774
v 0.58203036 -0.05394101 -0.14892764
v -0.41199848 -0.17723618 -0.05941657
v 0.62848961 0.09776888 -0.04167969
v -0.39153194 0.01143736 0.31442168
v 0.25066137 0.24907263 -0.05769268
v 0.39578021 0.22779763 0.22321998
v 0.11196896 0.35502034 0.02968268
v -0.18234995 -0.21320964 0.14010313
v 0.13378100 -0.04347563 0.25850761
v -0.66797054 0.06731962 0.10876817
v 0.47572559 -0.05064852 -0.22549152
v -0.51569963 -0.05871543 -0.06765684
v -0.51501298 -0.00690319 0.16382697
v -0.04594234 -0.25750840 0.26216596
v -0.76202655 -0.22261187 -0.19572303
v 0.48220968 0.11645871 -0.08989473
v 0.31759533 0.08143016 0.02823975
v 0.36683318 -0.00277317 -0.26809344
v -0.35394028 0.18609184 0.28986028
v 0.04403532 0.32276481 0.05913541
v 0.59055680 0.03647687 -0.10676074
v -0.04027065 0.17179592 -0.27626801
v 0.01745762 0.40110067 0.11476490
v 0.62075400 0.08353205 -0.01671678
v -0.52930516 -0.15126458 -0.03662946
v -0.71639812 -0.11527859 -0.14421539
v -0.57896155 -0.22407788 0.06005269
v -0.57852602 -0.08644966 0.03449091
v 0.26285782 0.09354827 0.17705870
v 0.58792961 0.03524274 -0.06516241
v 0.21687016 -0.18609506 0.08278362
v 0.29637372 0.19607060 -0.17603934
v 0.06513198 0.06511132 0.35994047
v 0.20414671 -0.16544190 0.20903005
v 0.28880090 0.35355192 0.21544904
v -0.76471585 -0.22316784 -0.11364267
v -0.67523044 -0.23873416 -0.00566153
v 0.61383396 0.01996166 -0.14166330
v 0.44193220 0.08862356 -0.03484004
v 0.54737163 0.05943111 0.01863942
v -0.04844136 0.14999023 -0.30473593
v -0.73057014 -0.10741693 -0.12276541
v 0.50615609 0.01980116 0.05426371
v 0.38302657 0.21218504 -0.13705780
v -0.22974342 0.00540505 0.36349148
v 0.40036982 0.06880555 0.17530298
v -0.42406708 -0.05528899 0.05574706
v 0.29000485 0.38328922 0.14643884
v -0.64114678 -0.05506729 0.10924967
v -0.54753828 -0.10529070 0.13987169
v 0.52765071 0.03793388 -0.23046677
v -0.75834817 -0.23615426 -0.20341344
v 0.22720240 0.27087030 -0.29774696
v 0.13156885 -0.16873860 0.29414040
v -0.59790587 -0.07983258 0.04333781
v 0.52179527 0.07447374 0.04841764
v -0.78871989 -0.18526685 -0.09634423
v 0.43952835 0.17953204 0.07495470
v 0.47460216 0.08743530 -0.14773086
v -0.42866120 -0.04693837 -0.16896027
v -0.51489943 -0.09546021 -0.02933753
v -0.45620751 -0.16465738 0.20812833
v 0.23548090 -0.17649381 -0.23212506
v 0.39318144 -0.00693469 -0.15400733
v -0.36290118 0.15321276 0.26925588
v -0.54606628 -0.33580384 0.12872793
v -0.54208404 -0.32726163 0.16932966
v -0.30843544 -0.20320065 0.23349527
v 0.46006444 0.21764798 0.08743806
v -0.51250249 -0.15308604 -0.07241217
v -0.03414262 -0.25669333 0.30290875
v 0.53142631 0.09356024 -0.11427368
v -0.43892190 -0.13134940 0.13262153
v -0.58615494 -0.08856580 0.04681009
v -0.51713562 -0.25394034 0.15765290
v 0.32222253 0.03821971 0.20593916
v 0.37324956 0.37339348 0.21806969
v -0.00927732 0.32391667 0.06706836
v -0.63966727 -0.04723492 0.04404871
v -0.29977271 -0.42304483 0.28562781
v -0.24866518 -0.08204661 -0.27375492
v 0.07454529 0.22392946 0.20935655
v 0.09881185 0.41853294 0.10072194
v -0.63702279 -0.05547789 0.05462227
v 0.45653957 0.00066084 0.09232303
v 0.23685072 0.26180863 -0.05916947
v -0.58041632 -0.13632818 0.07324907
v -0.13244507 0.28926939 -0.10076573
v 0.63287199 0.15569222 -0.00565067
v -0.40549064 -0.16694272 -0.19486640
v -0.17120805 0.15654336 0.25334308
v 0.36327070 -0.06045563 0.20624089
v -0.16145265 0.29733661 0.11206864
v -0.55748940 -0.10204716 0.01103180
v 0.25880039 0.21762413 -0.09635497
v 0.20226249 -0.08142661 0.12808573
v 0.50945342 -0.04830888 -0.11594583
v 0.63264346 -0.03098495 -0.12227313
v 0.18104717 0.36625633 0.24603133
v -0.05796594 -0.00463296 0.25205380
v 0.20807548 0.25763896 -0.07945742
v -0.23084563 -0.34051764 0.43303061
v 0.60666037 0.06131145 -0.17394128
v -0.81608868 -0.16134745 -0.14184332
v -0.42160466 0.12584285 -0.11129367
v -0.53266513 -0.22628661 0.12870318
v -0.43106619 -0.36813021 0.27301589
v 0.36706614 0.01443090 0.08060938
v 0.26582375 -0.18141311 0.22470024
v 0.32002118 0.19968060 -0.24799897
v 0.37658536 0.20147271 -0.20956431
v 0.45932281 -0.02091485 0.04577976
v 0.41397566 0.08703052 0.14989693
v -0.47088802 0.00381342 -0.07898984
v -0.56301528 0.04892778 0.20744602
v 0.30306286 -0.08482001 -0.27258831
v -0.43410408 0.09240988 -0.06825861
v -0.35917693 -0.37856495 0.31287086
v 0.28554013 0.10414873 -0.20628864
v -0.22682390 0.21525213 0.11726741
v 0.26610890 -0.25851452 0.20884138
v -0.39753804 -0.09554143 -0.15065409
v 0.07487730 0.41660416 0.09894768
v -0.32775888 -0.17228518 0.19912831
v -0.56120634 -0.34294465 0.06307334
v 0.08597866 0.38670781 -0.00794342
v 0.61206776 -0.03933790 0.05979802
v 0.46480238 -0.04894865 0.16287456
v -0.63527614 -0.06110218 0.05379370
v -0.32923284 -0.08187088 0.09988998
v -0.47596464 -0.15155414 0.20542543
v -0.32241142 0.07733312 0.08234763
v 0.11110301 0.41347188 0.11488590
v -0.57968980 -0.32675731 0.10606788
v -0.28346264 0.02580972 0.13483705
v -0.79353821 -0.10744756 0.00190860
v 0.41523817 0.08173713 -0.18970872
v 0.20786349 0.00451491 -0.41839200
v 0.33173206 0.10091107 -0.29778260
v 0.23363912 0.13954319 -0.18703583
v -0.05616836 -0.12040429 0.29289553
v -0.40876859 0.08132359 0.23032692
v -0.12934002 0.06866860 -0.09306870
v -0.52796882 -0.22018354 0.00036000
v -0.33612579 0.13733990 0.28221890
v 0.62030524 -0.05022017 -0.08641173
v -0.07494495 -0.36887479 0.40696210
v 0.37888563 0.01185665 -0.14677221
v 0.03593316 0.28728509 0.17343313
v 0.58871943 0.03160903 -0.07399179
v 0.43326229 -0.10391194 -0.21002871
v -0.01951594 -0.18156813 0.38850001
v 0.56773818 -0.05423972 0.02152022
v 0.35839620 0.09525329 -0.27470797
v 0.37999937 -0.13415955 -0.07058644
v -0.74458528 -0.08298136 -0.08763766
v -0.48574960 -0.28406638 0.23479447
v 0.28625640 0.18586682 -0.32730451
v 0.07154971 0.21460177 -0.20630041
v 0.31395516 -0.13843958 -0.27188677
v -0.21563613 -0.35143107 0.37464282
v 0.19007562 0.10287736 0.29922235
v -0.26040822 0.23436026 0.02409002
v -0.52034783 -0.00491668 0.17390640
v -0.15427637 -0.14712636 -0.11759841
v 0.65272707 0.07216257 -0.00131735
v 0.58899087 0.00875322 -0.21682727
v -0.30321449 0.24550578 -0.07306665
v -0.72251558 -0.10515087 -0.11615562
v 0.17051876 0.16315353 -0.15312228
v -0.66468179 -0.24316132 -0.00372444
v 0.54821652 0.10047548 -0.16012383
v 0.54322875 0.18595879 -0.03651955
v 0.05612285 0.30192107 -0.02510302
v 0.45294949 0.00514510 0.10985570
v 0.07860795 -0.13224295 -0.42357376
v 0.55235630 -0.00380040 -0.12139338
v -0.27742428 -0.07024731 -0.26200727
v -0.39774337 -0.05338252 -0.15458778
v -0.55126083 -0.01853696 -0.07233837
v 0.03663005 -0.19358101 -0.21672587
v 0.29259056 0.27403980 0.05651995
v -0.70395422 -0.20076688 -0.03220252
v 0.24070570 0.37749714 0.27659214
v -0.40079796 -0.11318377 0.27337250
v 0.53957516 0.07232344 0.04846910
v 0.30231810 0.25726673 -0.11741926
v -0.52807653 -0.15988165 -0.01443885
v 0.36920589 0.05313153 0.17956169
v 0.59517682 0.03912813 -0.16777493
v -0.81014919 -0.13172054 -0.05622761
v -0.57390630 -0.25161448 0.05976357
v 0.39078707 0.03915816 -0.33781111
v 0.39355868 -0.09000039 0.22790849
v 0.06089782 -0.07966448 0.40557852
v -0.52552396 -0.08821877 0.21931228
v 0.53851968 -0.06119867 -0.22508745
v -0.21309236 0.13706778 -0.14934161
v 0.23288307 0.26204115 -0.29826245
v -0.27403411 0.02673244 0.17663479
v -0.76680297 -0.17595494 -0.05512749
v 0.41761357 0.11283254 -0.18662491
v 0.39157173 0.24444082 -0.07511309
v 0.30282164 0.18791656 -0.28883669
v 0.43485922 0.12949337 0.14601120
v 0.47329137 -0.05279277 -0.10034838
v -0.27569249 0.12399252 0.18954094
v -0.19616109 0.26251820 0.11991332
v 0.34594575 0.40016469 0.19574186
v 0.35591930 -0.05512623 -0.25828844
v 0.30478239 0.18256836 0.18303522
v 0.34227437 -0.02999239 -0.31683937
v 0.25165114 0.18563546 -0.32188883
v 0.52563816 0.19082436 -0.05683282
v 0.54510754 0.05465813 -0.12613820
v -0.55803341 0.02688795 0.07005625
v 0.06993924 0.14896132 0.09005390
v 0.51120329 -0.04804613 -0.16803236
v 0.31493270 0.15203874 -0.17982534
v -0.36670262 -0.03732400 0.00192400
v 0.49984518 0.05173641 0.11933170
v -0.45389616 -0.08122216 0.02129759
v -0.13492274 -0.24454488 0.42000479
v -0.62278420 -0.06912817 0.13040349
v -0.10888371 0.22976688 -0.21734494
v 0.33352354 0.20680963 -0.12886320
v -0.30289614 -0.19591483 0.35608912
v 0.56866390 -0.01666713 -0.21068276
v 0.16924950 0.27097237 -0.03880618
v -0.47399902 -0.19957297 0.21967395
v -0.23214237 -0.07078090 0.28124800
v 0.23658898 -0.16909695 0.05639844
v 0.21248113 -0.15389672 -0.37347233
v 0.57561338 -0.05279691 -0.15879281
v 0.03020544 0.41331676 0.09496638
v 0.35358107 0.16618225 -0.21703345
v 0.50172240 -0.08548074 -0.13864164
v 0.25159842 -0.11680344 -0.16575934
v 0.38266742 0.36495182 0.22325291
v -0.49829885 -0.37325665 0.24234782
v 0.29030180 0.10445551 -0.34983271
v 0.34338871 -0.05840535 -0.20669824
v 0.54398483 -0.05042748 -0.02186318
v -0.21117264 -0.09793271 0.25813407
v 0.32439753 0.09335671 0.14466850
v 0.30971071 0.28016841 0.23711519
v -0.57149106 0.03774465 0.17768361
v 0.30932611 0.03342551 -0.23242140
v 0.52356637 -0.03810338 -0.13333137
v 0.57562917 0.00785298 0.01070328
v -0.43794495 0.03763418 -0.15459117
v -0.46433458 -0.30408204 0.15291320
v -0.69372690 -0.17538485 0.04192055
v -0.65222335 -0.19038703 -0.03320453
v -0.45140183 -0.17712361 0.24673069
v 0.07542861 -0.26752377 0.05840948
v 0.27730522 -0.11624495 -0.25428575
v -0.79401743 -0.14606424 -0.12513788
v -0.85293233 -0.16185795 -0.11809784
v 0.46640423 0.02950196 -0.04059641
v 0.09099500 0.39778984 0.19015704
v 0.03325813 0.15182176 0.09103729
v 0.14347930 0.15957160 0.01919506
v 0.38827348 0.46589369 0.17476435
v 0.38683802 0.04544426 -0.28147435
v 0.61780322 -0.01182133 -0.04690228
v 0.34542549 0.02320509 0.18816531
v 0.32129368 -0.13858773 -0.22959647
v -0.19209042 0.19897690 -0.19754715
v 0.25599310 0.19810852 -0.13603583
v -0.65456963 -0.07675985 0.06167136
v 0.17032179 0.26286802 -0.07656831
v -0.59733862 -0.20920426 0.12706402
v -0.63578504 -0.04175038 0.02698538
v 0.23838177 0.04458026 0.28459695
v 0.20422599 0.21516526 0.21452743
v -0.25155139 -0.05285804 -0.29905030
v 0.31154540 0.13302422 -0.26207268
v -0.53418928 -0.02640941 0.17712247
v 0.53165108 -0.03182395 -0.21279266
v -0.16740330 0.02231139 0.29657137
v -0.49641573 -0.25691622 0.23433734
v 0.67909688 0.11113683 0.02338363
v -0.46661937 -0.24552131 0.21380325
v 0.62224191 0.05434272 -0.01999494
v -0.45142931 0.06075955 0.20133284
v -0.43241799 -0.12926011 0.15584797
v 0.36201334 0.10395701 0.15851052
v -0.51726264 -0.21499446 0.20561168
v 0.18456972 0.34353817 0.02865851
v 0.59837484 0.05436910 -0.16801691
v -0.58555317 -0.08644776 0.14401662
v -0.30449116 0.01997271 0.31529927
v 0.57385671 0.03308034 -0.06296746
v 0.12245985 0.21084866 -0.12917966
v 0.26639637 0.16055098 -0.08686255
v 0.22606117 -0.06225264 0.33149350
v 0.50339729 0.07742521 -0.16566464
v -0.34135801 -0.18425360 -0.22294509
v -0.63370275 -0.20323367 -0.01940041
v -0.56986719 -0.31851864 0.10396820
v 0.24564146 0.27730817 0.17538948
v 0.27932170 0.15817656 -0.22123531
v -0.71555704 -0.16742782 -0.16865790
v 0.27553728 -0.20892435 0.28618085
v -0.58926064 -0.21278539 0.00491853
v 0.39804119 -0.02381533 -0.26850736
v -0.42966455 0.05611042 0.29555199
v 0.53923720 0.03192678 -0.12684791
v 0.34660357 0.05282623 -0.24310672
v 0.06635365 -0.10420422 0.26695293
v -0.54503852 -0.31500915 0.17125677
v -0.18347421 0.16345534 0.27351129
v 0.40498686 -0.15403840 0.21752378
v -0.55678380 -0.15403348 0.17900892
v -0.52279735 -0.18089038 0.14670627
v 0.05671120 0.30688703 0.16034728
v -0.66370052 -0.10910765 0.05234761
v -0.26565820 -0.11156682 0.31853041
v 0.37121016 0.15969850 -0.22161041
v 0.07125610 0.21844393 -0.19399816
v 0.27403417 0.28016904 0.25879610
v 0.29128876 -0.10705547 -0.35612783
v -0.35312110 -0.16671477 0.20729451
v 0.37688553 -0.05998456 -0.24777097
v -0.74737412 -0.12432931 -0.12125954
v -0.54511034 -0.16523689 0.11733805
v -0.35787576 0.18533599 0.28813040
v -0.40623182 0.05282851 0.15583302
v -0.80994201 -0.17275132 -0.13988730
v -0.35335463 0.15041147 0.27469960
v 0.49514937 0.20125559 0.11297101
v -0.79217619 -0.14169762 -0.12130004
v -0.52638966 -0.18788531 0.06993965
v -0.76200157 -0.19143644 -0.07651901
v 0.16611284 0.06560728 0.27473354
v -0.28335369 -0.04036766 0.02783366
v -0.41188782 0.11051072 -0.10527498
v -0.46739906 -0.33836347 0.31774974
v -0.57060081 -0.28099024 0.13142763
v 0.34878224 0.17427921 -0.18930717
v -0.41190630 -0.32690588 0.11780351
v 0.03582447 0.01670235 0.24853840
v -0.67798966 -0.08627997 -0.07789196
v 0.51957619 0.01297165 0.05920691
v -0.52112669 -0.21502647 0.10054526
v -0.60288841 -0.24699000 0.06192477
v -0.48952019 -0.36167777 0.19650443
v -0.51901293 -0.33503813 0.22044483
v 0.37709364 0.19492027 -0.17699257
v 0.60377461 0.02298782 -0.03598667
v -0.42216057 -0.24465710 0.26272857
v -0.82163411 -0.15868521 -0.14206056
v 0.11973526 0.35661754 0.28187978
v 0.26254630 0.22613803 -0.08640733
v -0.56029195 -0.04829130 0.11026303
v -0.50104922 -0.21336497 0.12502743
v -0.50255609 -0.04559226 0.04055177
v -0.50041831 -0.22588271 0.18273039
v 0.18997911 0.18217269 -0.40019083
v 0.35117155 0.20481436 -0.18882039
v 0.65312999 0.10771724 0.04730450
v -0.48819003 -0.29443690 0.24812433
v -0.64803052 -0.15492040 -0.09402027
v -0.59016275 -0.10315339 0.19033772
v -0.01738109 0.21593191 -0.21878076
v -0.22925676 -0.01740243 0.18454677
v 0.37431324 -0.09629282 -0.18685138
v 0.24282473 0.05038671 0.27773696
v 0.18834180 0.19370267 -0.39467937
v -0.36511749 -0.12698385 0.13233642
v -0.02476330 0.30936086 0.00931922
v -0.66397125 -0.06126920 0.04640743
v 0.29111525 0.12833142 -0.33644944
v -0.29288751 -0.31657833 0.36194378
v -0.54697824 -0.04137872 -0.07114079
v 0.28909394 -0.05623358 -0.27527848
v 0.24332240 -0.05922467 0.15687877
v -0.34801799 -0.00266767 -0.20044869
v -0.42159247 0.15863962 0.03034531
v -0.75728625 -0.19495903 -0.13499288
v -0.71627688 -0.14068064 0.05162890
v 0.49671778 0.13342693 -0.09525156
v 0.59782630 0.07811646 -0.13378602
v 0.10032891 0.38055125 0.09120117
v 0.38521183 -0.10648340 -0.05677180
v 0.51998031 0.11165903 0.06694029
v 0.16397817 0.32415089 0.04560802
v -0.26561931 -0.10602839 0.11353852
v 0.60026759 0.01315479 -0.11567101
v 0.04064598 0.31965345 0.06224034
v 0.64511043 0.07020772 -0.00788661
v 0.15696886 0.41447380 0.14480165
v 0.29549128 -0.03134803 0.25915259
v 0.24739237 0.19563563 -0.33319047
v 0.34570956 0.08752543 -0.29445049
v -0.13665259 -0.11194819 0.35154074
v 0.16309622 0.22882131 -0.38664293
v 0.45143855 -0.05848837 0.04337516
v 0.30950421 0.20088661 -0.21951067
v 0.39784971 0.23045890 -0.13625260
v -0.03127929 -0.00808488 -0.31108111
v -0.33006179 0.02481079 0.30178392
v 0.01496638 0.17843628 -0.18057805
v 0.32281953 -0.00174224 -0.24959999
v -0.44749239 0.14260541 0.04408506
v 0.21258147 0.18562704 -0.08345445
v 0.28960803 0.26417822 -0.02423269
v 0.42751336 -0.08373378 -0.22079468
v -0.58819216 -0.07705221 0.04104351
v -0.28710160 -0.07817180 0.28798664
v 0.61219537 -0.00288871 -0.00907609
v -0.46292540 0.00227036 0.09198295
v 0.56947446 -0.08455610 -0.16490009
v -0.59461188 -0.04370505 0.07770026
v -0.09402490 0.11013044 -0.31583047
v -0.20418970 0.03696604 0.11486190
v 0.56761855 0.01627896 -0.04606560
v 0.43602961 -0.12823534 -0.19190322
v 0.59424895 0.08305592 -0.00253788
v 0.27800781 0.00485392 0.13903660
v 0.00502280 -0.14257608 0.35346311
v 0.53535324 0.04576536 0.01269186
v -0.45224741 -0.16795795 0.08602881
v -0.63784391 -0.08463769 0.00180668
v -0.83148152 -0.12356186 -0.09387195
v 0.43482956 0.17898676 -0.07643633
v -0.07450424 0.26986957 0.15632960
v 0.53108555 0.07322326 -0.22580136
v -0.67282987 -0.15951419 -0.20600180
v -0.49385625 -0.37122518 0.24927676
v -0.77556318 -0.18538155 -0.08292906
v 0.38752973 0.25465077 -0.02244619
v 0.40164363 0.33439010 0.22572455
v -0.17946428 0.00346413 -0.28097850
v -0.61602861 -0.10011339 0.14981177
v -0.64403802 -0.03904962 0.03532007
v 0.49233872 0.02864395 -0.00940815
v 0.62024540 0.07274626 -0.02822362
v -0.17140307 -0.47915867 0.15858081
v 0.31170097 0.06308504 0.22935641
v -0.09720005 0.13967673 -0.28159869
v -0.04527286 0.31326756 0.09554408
v 0.36444098 -0.00233047 -0.27347574
v 0.62699622 -0.04124361 -0.07798991
v 0.45017558 0.00086271 -0.05307756
v 0.35836545 0.03361658 0.20161302
v 0.29691017 -0.15100643 0.27379653
v -0.33221632 -0.00963286 -0.07846652
v 0.46607932 0.03084772 0.06973626
v 0.42726305 0.22045290 -0.10259540
v -0.67166430 -0.19772075 -0.01576739
v -0.41643947 -0.00618008 -0.15610389
v -0.07594386 0.11449351 -0.05307544
v -0.50457335 -0.07702956 0.07368409
v -0.49955589 0.05206305 0.08882432
v 0.60627049 0.16066630 -0.00606774
v 0.33039120 -0.04496509 -0.14916071
v 0.34011033 0.04106246 -0.19366264
v -0.62628639 -0.10758267 0.01760922
v -0.61095321 -0.03754991 0.14098020
v 0.21672004 0.37792256 0.24242431
v 0.59921479 0.00077717 -0.17397325
v 0.52758455 0.06697934 0.02190243
v 0.21727070 0.32331216 0.12818424
v 0.15670489 0.40178621 0.20226127
v -0.31563348 -0.15231612 -0.27385443
v 0.47019246 -0.02352550 0.06994149
v 0.02927762 -0.27713361 0.28982025
v 0.31517228 -0.21805999 0.26565471
v -0.37445754 0.19696632 -0.04439824
v -0.15559885 0.23111716 0.20387258
v 0.40613919 0.20537867 0.22190286
v -0.16957043 0.28958526 0.09511112
v -0.24906395 0.01499578 -0.21777396
v -0.73650485 -0.20383878 -0.17903204
v 0.49543786 0.12101188 0.05971283
v 0.33971125 0.04133231 -0.10950996
v 0.28903583 0.10702753 -0.14205699
v 0.35282260 0.20821935 -0.12085471
v -0.79873168 -0.17075506 -0.09858752
v -0.73431712 -0.02437155 0.02710310
v 0.68637061 0.13381819 -0.00496332
v -0.38736635 0.16151044 0.22774920
v -0.61808079 -0.23550320 -0.25265366
v -0.67357767 -0.16769247 -0.00991601
v -0.06200609 0.30999756 0.01833462
v -0.49372712 0.01972121 0.04428476
v 0.29377517 -0.14579636 -0.28810811
v -0.45924565 0.10237479 0.04626901
v -0.09883782 0.28500023 0.17195427
v 0.62799013 0.08859393 -0.01689536
v -0.37093306 -0.14457813 0.24552760
v -0.26381743 -0.03221750 -0.15098447
v 0.27018309 0.22062513 0.16598022
v 0.57862812 0.07704887 -0.16521946
v 0.25364631 0.25553554 -0.02591879
v 0.54381585 0.11883833 -0.14112797
v -0.30440274 -0.14199956 -0.20697555
v 0.54482126 0.09186935 0.07744513
v 0.39610574 0.14480154 -0.19546929
v 0.37829128 -0.15735613 0.01531708
v 0.27357745 -0.09155811 0.20926863
v 0.03356905 0.13925934 -0.11313121
v -0.51425773 0.03037174 -0.09178407
v 0.40434492 0.12856820 -0.20676124
v 0.33247474 -0.13596924 0.19572720
v 0.40391928 -0.10006656 -0.19562569
v 0.19063659 0.15309986 0.02812321
v 0.30262992 -0.09910455 -0.24454381
v 0.23351461 -0.15160045 -0.17686678
v -0.53603810 -0.23217975 0.18452494
v -0.76281089 -0.20131776 -0.21645129
v 0.41194871 -0.01249265 -0.26434740
v -0.74624842 -0.18098223 -0.06854589
v -0.32745925 -0.08361521 0.09800175
v -0.75492370 -0.19893759 -0.20657302
v -0.75356972 -0.06977642 -0.06673942
v 0.03824415 0.40392804 0.13143761
v 0.59895593 -0.06998491 -0.16684957
v 0.50800020 -0.11071280 -0.18449123
v -0.59403694 -0.10297813 0.11259284
v -0.03909476 0.25745299 0.25317088
v -0.33809084 0.08359440 0.06752894
v 0.28912482 0.42412236 0.23649707
v -0.18746522 -0.28682989 0.40400404
v -0.45984548 0.04684930 0.17991799
v 0.50148308 -0.08481299 -0.15385200
v -0.39952457 -0.08307532 0.21850508
v 0.03633045 0.36275297 0.22212471
v -0.30476993 -0.05974667 0.10635979
v 0.48303935 -0.01697974 -0.21391217
v 0.42605740 -0.10577522 0.02782195
v -0.35753155 -0.34095365 0.31286496
v -0.21352625 0.01222169 -0.20953861
v -0.59779733 -0.10088006 0.03324993
v -0.34714991 -0.17240332 0.19275510
v -0.77196389 -0.22497813 -0.18863606
v 0.04292320 0.35765147 0.19296122
v -0.46704078 0.05163451 -0.08272551
v -0.38340023 -0.06618465 -0.18512462
v 0.24076970 0.42321554 0.16705006
v 0.27384293 -0.01169080 -0.24823621
v -0.28369841 0.23781005 -0.10270388
v 0.32174832 -0.04452141 0.19544917
v 0.35907808 0.33678102 0.14329936
v 0.50147557 0.04834144 -0.02089171
v 0.20598234 0.09425689 -0.15709457
v 0.18143716 0.26425374 0.36510029
v -0.09369050 0.17096548 0.28786844
v 0.37896726 -0.11489780 -0.06708767
v 0.11396870 0.06932107 0.33428079
v -0.51928133 -0.24975097 -0.02639512
v -0.17629653 0.05605682 -0.30220672
v -0.54584700 -0.03281297 0.00742957
v 0.41081768 0.07740913 -0.07614312
v -0.20935562 0.03543922 -0.19492015
v 0.39589474 -0.03747560 -0.24064811
v 0.16809598 -0.01739373 0.30413043
v -0.33002475 0.11682758 0.32149705
v 0.18389413 -0.08274376 0.14729762
v -0.40780813 -0.22399153 0.22829075
v 0.39569432 -0.11773797 -0.09802480
v -0.34558254 -0.04680368 -0.25499183
v 0.54322511 0.07253537 0.00313239
v -0.47654605 -0.10317520 0.18842000
v 0.29636776 0.17447607 0.19922723
v -0.85569066 -0.17498764 -0.12356164
v 0.34932104 0.17267251 -0.19088770
v 0.31726012 0.03692436 -0.24816625
v -0.59414673 -0.00657943 0.10440783
v 0.19637099 0.23990068 -0.09556786
v 0.28074232 -0.17494413 0.22946885
v 0.18340404 0.34369797 0.04828600
v 0.43768477 0.14933631 -0.14722058
v 0.05572431 0.30848837 0.13419096
v 0.40695849 0.24297297 -0.04183541
v 0.52354991 0.07312591 -0.18454389
v 0.56750363 0.00284883 -0.09669584
v -0.25584430 0.10048215 0.07067246
v 0.59919900 -0.00467880 -0.01961954
v -0.65420902 -0.02644416 0.07886516
v 0.71409875 0.09639392 0.02671746
v 0.62184137 -0.01776587 0.04387551
v 0.55665314 0.08127546 -0.15273993
v -0.36389831 0.02905139 0.11931103
v -0.23130643 -0.44524816 0.30190837
v -0.38256958 -0.36682406 0.27822319
v -0.10388107 -0.37216049 0.40834022
v -0.46651843 -0.22215082 -0.08824471
v 0.18298343 -0.16743965 -0.37678185
v -0.48237634 -0.27053985 0.22723989
v 0.44414586 -0.00891949 -0.07939236
v 0.48081243 0.10161989 -0.25658077
v 0.23805480 0.37844604 0.15214643
v 0.16260943 0.31209999 0.21882077
v 0.26671860 0.25829902 -0.27187863
v 0.12687972 0.18920532 -0.17763814
v -0.52351290 -0.34712613 0.20593739
v -0.55558485 -0.07541525 0.03240069
v -0.59637630 0.03630947 0.17790043
v 0.30232173 0.06258953 -0.04389450
v 0.28200948 0.17278129 -0.07990503
v -0.47358149 -0.00661500 0.14820223
v 0.59084308 -0.06113822 -0.18880907
v -0.47605097 -0.36071295 0.29618159
v 0.42512926 0.29612729 0.17986017
v 0.60991609 0.03118234 -0.05931785
v -0.20779154 -0.36789671 0.36320511
v -0.47283173 -0.15071274 0.17167306
v 0.45696267 -0.07635567 -0.11472499
v -0.53113115 0.06586099 -0.08129390
v 0.12002640 0.07306654 0.26855946
v 0.45424983 0.16516002 -0.12774970
v 0.63761979 0.06285071 -0.01408843
v 0.55206364 0.03929850 -0.16561863
v -0.35778037 0.03139848 0.14614847
v 0.64028287 0.19780973 -0.00256602
v 0.26078874 0.26856101 0.30359399
v 0.19783688 0.00923204 0.26291215
v -0.55632144 0.04954515 0.09413637
v 0.45709354 -0.04446835 -0.04994135
v 0.05452374 0.09394102 -0.35235506
v 0.10714728 0.01582620 0.33660430
v -0.65274143 -0.12016486 -0.09407817
v -0.05038286 0.21517247 -0.22910169
v -0.32771152 0.20086053 0.08287113
v 0.47984472 0.08669813 -0.23997352
v -0.74211168 -0.14841431 -0.15888286
v 0.61326599 -0.00144918 -0.00013085
v -0.46456772 0.06131329 0.25052875
v -0.40611553 -0.04553200 0.24058728
v 0.34272307 0.05035941 -0.31179708
v 0.05446576 0.35081011 0.30000097
v -0.24628922 0.25018486 0.05959076
v 0.61300683 0.05393792 -0.04042928
v -0.76496160 -0.09637663 0.03426886
v 0.45990279 0.03496112 0.11258506
v 0.56104499 0.05455393 -0.12463561
v 0.27835116 0.24371812 -0.10130234
v 0.37850261 0.00517489 -0.21469188
v -0.74321902 -0.06934772 -0.06493114
v -0.33878562 -0.05313693 0.02487312
v 0.37525573 -0.02629853 -0.16947104
v -0.56611025 0.05991556 0.20963959
v 0.24219090 0.15232652 -0.24083453
v 0.23389687 -0.18203051 -0.22343051
v 0.02622441 0.35164210 0.32767135
v -0.55392480 -0.08232654 0.21902898
v 0.39566720 0.22328793 -0.05635614
v 0.26862559 0.24696295 -0.10157014
v 0.15562889 0.18096857 -0.15725072
v -0.25797704 -0.09033819 -0.28407818
v -0.31046435 -0.06057339 -0.24914926
v 0.27516547 0.25818363 -0.26832840
v 0.30170977 0.05444280 -0.11797461
v -0.26168334 0.21800661 0.25737217
v -0.50240409 0.05634670 0.08814019
v 0.16660413 0.39796802 0.13425197
v -0.64260817 0.03499277 0.10559949
v -0.34897289 0.19519702 0.26211655
v -0.49561405 0.04183465 -0.06623372
v -0.43047753 0.12030849 0.29290801
v 0.53978240 -0.02584552 -0.09084822
v 0.31994703 0.04331012 -0.21701987
v -0.32907552 -0.09429322 -0.27156481
v 0.21894078 0.36895686 0.20446008
v 0.19183560 0.35509166 0.15049288
v -0.65398300 -0.23761310 -0.04306210
v 0.57147652 -0.04426212 -0.12490539
v -0.01507013 0.13746732 0.09405749
v -0.34478927 -0.27181691 0.21674520
v 0.05214145 -0.08746447 0.33458823
v 0.49836734 0.08157268 -0.09726419
v -0.40419033 -0.25539118 0.22955039
v 0.20334342 -0.25819865 0.20238693
v 0.42599723 -0.10440671 -0.14219418
v -0.51023668 -0.01182035 0.05920913
v 0.50992179 -0.01774129 -0.04119503
v -0.63435519 -0.14969242 0.10071358
v -0.50956672 -0.19918826 0.20367189
v -0.49801272 -0.10796896 -0.08283175
v -0.80811363 -0.19648659 -0.15059434
v -0.39256588 0.09852268 0.22499077
v -0.05705445 0.30810416 0.08265729
v -0.55631238 -0.32502398 0.15302521
v -0.62072974 -0.11261022 0.05196469
v -0.38497728 -0.08997481 0.01179675
v 0.37062946 -0.11594256 -0.20421782
v 0.55234677 0.05912095 -0.11209293
v 0.47814864 0.13046587 0.11834095
v 0.45254409 -0.12127337 -0.03930592
v -0.45799434 -0.05830589 -0.06633252
v 0.55253398 -0.01901403 -0.17337060
v 0.29435724 0.04626291 0.20543003
v -0.19048107 0.17861506 -0.23722835
v 0.30985394 -0.11702569 -0.24446331
v -0.59550649 -0.20458975 0.02679119
v 0.35680747 0.23030581 -0.17612693
v -0.67181098 -0.12645736 0.01756682
v -0.35513458 -0.28308150 0.15504068
v 0.40710506 -0.14753224 0.01398157
v 0.26666868 0.18316688 -0.10195968
v 0.31672052 -0.11808851 -0.29246163
v 0.51598537 -0.08095281 -0.17958616
v 0.34764528 0.03035660 0.04522190
v -0.29607868 -0.18097745 0.08776233
v 0.34270757 0.04729544 -0.31553590
v 0.10786600 -0.09649872 -0.45021269
v 0.33520049 0.36123380 0.15527841
v -0.49992764 0.02060952 0.05290255
v -0.16873080 -0.14481452 0.10185643
v 0.23817456 0.12844719 -0.06650590
v 0.47993726 -0.08260737 -0.17723288
v 0.08143596 0.39587724 0.00805555
v 0.54261518 0.07615218 -0.08887996
v 0.32137969 0.00843970 -0.24662539
v -0.58057493 -0.20545425 0.00007865
v 0.52255547 -0.04687002 -0.13707551
v -0.45586544 -0.39763933 0.27518627
v -0.35457537 0.08702169 0.07608886
v 0.56634587 -0.03236295 -0.13378617
v -0.63293278 -0.23395458 0.04848503
v -0.27352652 0.23578453 0.22455382
v 0.39730442 0.04282641 -0.25224352
v 0.04585122 -0.16457659 0.41869617
v 0.57986045 0.09391116 -0.05981294
v -0.44671080 -0.15580174 0.09097142
v 0.31234181 -0.05509982 0.14922173
v -0.74358130 -0.21566834 -0.22690356
v 0.53241694 0.15989621 0.05514842
v 0.30787998 0.14313197 -0.20428617
v 0.30746543 -0.08659147 0.26583439
v -0.20694277 0.14688797 0.27469653
v -0.76885390 -0.12254295 -0.03060168
v -0.73077530 -0.15956166 -0.01858662
v -0.56555003 -0.02621575 0.13618395
v -0.46324813 -0.26601294 0.16506043
v 0.38626722 0.15654612 -0.17498082
v 0.24083239 0.37872243 0.27502632
v 0.12939978 -0.12381306 0.31130755
v 0.60218614 0.02199233 -0.14172021
v 0.30601859 -0.08202401 -0.14045763
v 0.24029320 0.42759773 0.15605219
v -0.24279228 0.01784633 -0.21621348
v 0.14128482 0.19438499 -0.10665100
v -0.30166262 -0.15410304 -0.21423608
v 0.24941212 0.29280952 0.09888092
v -0.68482196 -0.18059561 0.04085588
v -0.50739640 -0.35760990 0.25654215
v 0.11685923 -0.26475945 0.33005872
v 0.21905126 0.31171888 0.01087003
v -0.67869097 -0.19625294 0.01023337
v -0.56329691 0.05592569 -0.01286366
v 0.42956874 0.05062505 -0.24382451
v 0.19636987 0.07833486 0.07056701
v 0.46552902 -0.11284757 0.16116320
v -0.83069336 -0.11320046 -0.11823271
v 0.33738917 -0.19470640 0.19481874
v -0.39543235 -0.28541145 0.21328798
v 0.10699376 0.37511858 0.24068576
v 0.09217744 0.35599670 0.25207594
v -0.49038708 -0.10838098 0.20437655
v 0.44569802 0.09346356 -0.19632159
v 0.62454104 0.03220998 -0.06089583
v 0.56704462 -0.02331718 -0.04673518
v 0.00395636 -0.18896087 -0.26119697
v 0.25244781 -0.16371265 0.16329698
v 0.59388053 0.09279751 0.02883519
v 0.19400857 0.00580966 0.23559275
v 0.34881529 0.19622424 -0.23693383
v 0.47843486 -0.06450621 -0.14517060
v -0.37352252 -0.39613110 0.27677068
v -0.27067843 -0.21779191 -0.10671921
v -0.41049552 -0.03017584 0.03880556
v 0.46300885 -0.08062411 -0.02078544
v 0.35465825 0.19625382 -0.09575133
v 0.42297170 -0.09153162 -0.21728173
v 0.25065133 0.25535724 -0.05631357
v -0.12717594 0.06380260 -0.21813408
v -0.31645259 -0.14826109 -0.21691746
v -0.72359508 -0.15250617 -0.05243632
v 0.15380481 0.25832295 -0.07037651
v -0.01538634 0.20963900 0.29401091
v -0.37054068 0.16449465 0.29577321
v -0.15223515 0.04393330 -0.03682750
v 0.22825775 -0.23242950 0.31189775
v -0.62028658 -0.05246457 0.07253740
v 0.51735145 -0.00896363 -0.05418597
v -0.47879654 -0.31419402 0.29948553
v 0.21508519 0.41122243 0.18700917
v 0.32770631 0.20737121 -0.23761216
v 0.07081196 0.23583905 -0.16589431
v -0.53542668 -0.15514970 0.03058787
v -0.33409637 -0.12803289 0.30659381
v -0.78506386 -0.16779812 -0.13364261
v -0.34140790 -0.13019951 0.28631514
v -0.51363415 -0.31923127 0.20593806
v -0.27104133 -0.03099138 0.28222042
v -0.22831607 -0.15052661 0.05102358
v -0.35246205 -0.06590266 -0.19268744
v 0.19307804 -0.15693155 0.11856712
v -0.44190192 -0.19060458 -0.22289224
v -0.49099696 0.04631651 -0.07017926
v -0.50887603 -0.17055288 0.09561321
v 0.31539202 0.15551823 -0.22981915
v -0.29592311 -0.03620972 -0.05821208
v 0.59397513 -0.04606341 -0.18661281
v 0.30273646 -0.04042469 -0.37893781
v 0.44442761 0.16333915 -0.07430875
v 0.53489625 0.08105850 -0.06249178
v -0.33400261 0.00422096 0.29903436
v 0.39048040 0.14702107 -0.22561470
v -0.12978521 0.27245438 -0.14965001
v 0.51332253 0.08230975 0.00786964
v -0.18999490 0.18028280 0.24967806
v 0.18883736 0.02177576 0.24896410
v 0.34658989 -0.12188905 -0.21235465
v 0.46297288 0.04446473 0.14029041
v 0.35190111 0.39139634 0.16684255
v -0.26558089 0.00430676 -0.15250039
v 0.14133406 0.41491240 0.19591211
v 0.62060529 0.07526064 -0.13803194
v 0.53658670 0.09682246 0.00301714
v -0.16743959 -0.00264893 0.05683615
v 0.25829947 0.21581751 -0.08934695
v -0.52014750 -0.10789347 0.17720753
v 0.18482555 0.22923078 -0.16342777
v -0.60659927 -0.01121699 0.07166813
v 0.37777030 0.00418070 -0.19077405
v -0.38018122 -0.07248984 -0.24316196
v -0.33440694 -0.05257516 0.22411767
v 0.17734468 -0.19162369 -0.10058191
v -0.50201118 0.06225757 0.15858740
v 0.35862851 -0.12617531 -0.16070963
v -0.41808712 0.09663118 -0.05432813
v 0.07777906 -0.07246891 0.39073062
v -0.22168532 -0.29453880 0.40480500
v 0.33362859 -0.01222756 -0.07213700
v 0.61942923 0.00972421 -0.17077160
v 0.33732498 0.13568404 -0.17067008
v -0.43490168 0.08670948 -0.06140764
v -0.25246295 -0.44738981 0.24643838
v 0.30510491 0.01538665 0.02595396
v 0.26139545 0.23365331 -0.13228379
v -0.33095405 -0.10021061 -0.17977235
v -0.73903245 -0.23764670 -0.09634933
v 0.54651773 -0.04879912 -0.05662326
v -0.57457459 -0.13480195 0.14810728
v -0.32877374 -0.21592703 0.36230707
v 0.61115456 -0.01803838 -0.14978483
v -0.43505439 0.08123708 -0.04601427
v 0.41419560 -0.00816971 -0.25791699
v 0.24250808 0.30599123 0.13782838
v 0.54402220 -0.00238779 -0.15657927
v 0.31189117 0.25033951 -0.26625657
v -0.54612303 -0.15670754 -0.05228054
v 0.65118361 0.11134021 0.05919189
v 0.26580316 0.28451201 0.04279252
v 0.56436431 -0.05301027 0.01465691
v -0.22176422 0.11781479 0.02731029
v 0.54280585 0.00759994 -0.12101300
v -0.57978314 -0.13174015 -0.00583408
v -0.70740288 -0.17217755 0.02148578
v 0.36670485 -0.10822012 -0.18456262
v 0.51931340 0.04657130 -0.18883571
v -0.45064229 -0.24490418 -0.03665387
v 0.49195382 -0.04285074 -0.02766003
v 0.55943120 -0.05515596 -0.20559689
v -0.73626506 -0.15577863 -0.16523063
v -0.37512499 -0.26765072 0.31970415
v -0.62030894 0.07847404 0.09133765
v 0.08503061 0.39422241 0.00843193
v -0.43863830 -0.35315323 0.29783165
v -0.52760148 -0.13610096 0.09509769
v 0.19831699 -0.14114994 0.18293630
v 0.48571515 0.01140235 0.14156605
v -0.67855346 -0.01821235 0.05978456
v 0.35467237 -0.05776716 -0.10380124
v 0.23652984 0.30707777 0.02543455
v 0.04762305 0.04225903 0.37409905
v 0.55003554 0.08686189 -0.00275626
v 0.55798137 -0.00458269 -0.03676674
v 0.40333730 0.28297806 0.19484332
v -0.01925481 -0.16595794 0.30317879
v -0.00763927 0.24867691 0.20850255
v 0.30119884 -0.08261871 -0.23744620
v -0.22613299 0.23161435 0.09207155
v -0.60618812 -0.03581422 0.04033088
v 0.32117507 0.08458478 -0.23357800
v 0.08679694 -0.11302084 0.27678084
v -0.14702916 0.25589862 0.15885150
v 0.52551585 -0.02649167 -0.21330823
v 0.43370301 -0.06126355 -0.26563644
v 0.54185253 0.01377367 -0.12369581
v 0.29659143 0.24293676 -0.24978341
v 0.38165706 0.00078218 -0.33691460
v -0.85077739 -0.12510814 -0.10353357
v -0.55319643 -0.13904925 0.06255957
v -0.05892564 0.15075731 0.07566085
v 0.49535215 0.07984611 0.04557847
v 0.61014891 -0.05322897 -0.11573525
v -0.51148665 -0.11546843 0.15203224
v -0.49370015 0.00434630 0.17542045
v -0.69152528 -0.16004594 0.05217931
v 0.55142552 0.04634177 -0.17282155
v 0.50229460 -0.01018563 -0.07364395
v 0.28061074 -0.09888408 -0.38303497
v -0.52409697 -0.32264432 0.11854115
v -0.61698830 -0.03683684 0.12559734
v -0.51761401 0.05294435 0.15240352
v 0.43728805 -0.01375372 -0.25664854
v 0.55297333 -0.03714872 -0.04483768
v -0.33014864 -0.13685721 0.31766683
v 0.52716178 -0.09051942 -0.16786799
v -0.07593671 0.12209967 -0.30829298
v -0.14435464 0.29329503 0.10334213
v 0.18497360 0.30135199 0.04900194
v -0.58009434 -0.14002916 0.14128023
v 0.64241785 0.07985281 0.09818178
v 0.03167707 -0.18401717 -0.29474461
v 0.34005332 0.18973787 -0.23825285
v 0.60908347 0.07002714 -0.16767623
v -0.53426838 -0.05105314 -0.06079042
v -0.24314329 -0.02912963 -0.27341214
v -0.19159949 0.14062195 0.27811205
v -0.56404239 -0.11150690 0.12765016
v -0.51333284 -0.33835155 0.21523426
v 0.62276113 0.02934111 -0.04055621
v 0.05714830 0.30573609 0.01728073
v 0.54808211 0.16564557 -0.00271946
v -0.54296744 -0.16297935 0.00637874
v 0.55138248 0.08984587 0.04258159
v -0.45802584 -0.38648218 0.27106246
v -0.32165450 0.21125245 0.00878473
v -0.58565319 -0.16894160 -0.01666676
v 0.35718864 -0.15257910 -0.08667560
v 0.27151415 0.19546691 -0.20433700
v -0.59799075 -0.00292919 0.09776460
v 0.20255360 0.18132617 -0.09632919
v 0.38593435 -0.14472708 0.22749092
v 0.33085251 0.08325069 0.18423921
v 0.45335644 -0.02093467 -0.08101988
v -0.46181762 -0.18100217 0.19137716
v -0.51097989 -0.00404663 -0.07400702
v 0.32682025 0.02967676 0.22438961
v -0.43447760 -0.24929814 0.32592413
v 0.43513077 -0.08215742 -0.23331669
v 0.06122064 0.31587183 0.27734900
v -0.13513611 -0.02580486 0.01262609
v 0.27473852 0.23652148 -0.08889285
v 0.59548432 0.03344512 0.01243957
v 0.24170683 0.41423318 0.21627787
v -0.59643936 -0.18051612 -0.00607436
v 0.51130211 0.03163194 -0.17614776
v 0.23386933 0.31877777 0.16112982
v 0.33733562 -0.13089956 -0.17342299
v 0.57051408 -0.08308661 -0.11548884
v 0.29210305 0.27116904 -0.01592604
v 0.23344645 -0.18254784 -0.28962311
v -0.01641322 0.16639328 -0.21776231
v -0.03292851 0.25159031 -0.19088426
v -0.02297942 0.26065257 -0.17858800
v 0.57773256 0.04939657 -0.03654913
v -0.43456414 -0.39865661 0.28399837
v -0.30559519 -0.05151129 0.26685864
v -0.19875151 -0.14978147 -0.01082852
v 0.52741933 0.12782332 -0.07807028
v 0.27282602 0.13781700 -0.22312698
v -0.47395349 -0.30997717 0.29264691
v 0.32276836 -0.10385831 -0.28404421
v -0.71548700 -0.17138916 -0.11920805
v -0.53501737 0.02821390 -0.01378592
v -0.31675464 -0.29292464 0.36287415
v 0.52035379 -0.06265718 -0.11979237
v -0.37277609 -0.04515585 -0.17183128
v 0.49409696 0.06771661 -0.13035649
v -0.41355911 -0.24280116 0.33437467
v 0.56363308 -0.01092038 -0.07747847
v 0.42526087 -0.09007294 -0.20834458
v -0.30104584 -0.14846018 0.11339666
v 0.50654793 0.00175262 -0.21829605
v 0.23187312 0.03952554 0.15547732
v 0.46380499 0.07840301 -0.15667355
v 0.06486333 0.40325886 0.11709928
v 0.41564381 -0.08817396 -0.06578510
v -0.12892571 0.31153059 0.08124784
v 0.33505973 0.01957792 -0.01849888
v -0.34468174 -0.10511196 -0.16387597
v 0.24649955 -0.17785266 0.25434756
v -0.67119300 -0.11559432 -0.05069797
v 0.56352663 -0.02318481 -0.15407450
v 0.08847879 0.36828059 0.28849235
v 0.48302823 -0.04367381 -0.19984820
v -0.16482201 0.18746886 0.25986814
v 0.32905507 0.20464711 -0.12141527
v -0.22709100 0.09497122 0.12154408
v 0.29228702 0.08208990 -0.13563949
v 0.25752598 0.43612614 0.12765449
v -0.64743692 0.04594860 0.08209192
v 0.47092620 0.06023999 -0.23997222
v 0.34025541 0.21665730 -0.10744673
v 0.29931393 -0.01101647 0.13180950
v 0.61832952 -0.05933648 0.06485373
v 0.24217729 0.13205668 0.23178305
v -0.63053924 -0.11174528 0.03122133
v 0.05796576 0.35056543 0.30159724
v -0.60619205 0.04586767 0.09938094
v -0.41150513 -0.14787635 -0.22225557
v 0.31811833 0.01489022 -0.24730811
v 0.52165353 0.07104518 -0.22603893
v -0.77052552 -0.14173257 -0.05989164
v 0.55080330 0.06422874 -0.12024722
v 0.56661272 -0.02175475 -0.04623058
v -0.67552423 -0.20078936 -0.03481452
v 0.00564199 0.18011644 -0.17639883
v 0.55352151 0.02530113 -0.13467959
v -0.54382485 0.02738638 -0.02045460
v -0.16907007 -0.00462403 -0.20485492
v -0.63962710 -0.19041237 -0.02623300
v 0.62098861 0.00914918 -0.02370716
v -0.65636796 -0.04295109 0.07319205
v -0.51914811 -0.00881055 0.02536326
v 0.39747751 0.03124472 -0.11129452
v 0.63706946 -0.01047396 -0.12411585
v 0.22405976 -0.12391870 -0.36372650
v -0.40050039 -0.21766967 0.05872781
v -0.48987958 -0.29860336 0.27623990
v -0.30691022 -0.00737257 0.32334536
v -0.70690119 -0.17407095 -0.02880981
v -0.00506828 0.13342196 -0.07766832
v -0.57841241 -0.05674965 0.22200030
v -0.57008922 -0.18830192 0.15249492
v -0.35847768 -0.14013954 0.06980787
v 0.60042167 0.10933869 0.01128491
v -0.05659384 0.13992020 -0.31031698
v -0.41608301 0.14963110 0.24073440
v -0.68950653 -0.18420424 -0.19283551
v 0.53916264 0.17395535 -0.04464026
v 0.37850520 -0.17541704 0.17234188
v 0.33824599 0.26166347 -0.08036043
v 0.44494888 -0.07472554 -0.24402887
v 0.36928827 0.19065137 -0.22702958
v -0.53452188 0.01512463 -0.02750980
v -0.68896616 -0.14988679 0.05410972
v -0.47664499 -0.06581151 0.04573002
v -0.37188154 -0.30691510 0.18259880
v 0.51320320 -0.01898809 -0.03388199
v 0.08506431 0.39812228 0.01330686
v -0.27355525 -0.10376684 -0.08109929
v 0.36536044 0.12143579 -0.26613197
v -0.36137110 -0.17971233 0.25931025
v 0.44358516 -0.06489199 0.04362020
v -0.50403982 -0.31624544 0.22909984
v 0.13704395 0.25061479 -0.09227320
v -0.57255429 -0.16675740 -0.01805774
v -0.58655560 -0.08944408 0.04801112
v 0.49688181 0.10195599 -0.09660293
v 0.31012499 0.26296720 0.02232828
v 0.10505591 0.41008994 0.10869186
v 0.07226985 0.39175901 -0.01633483
v 0.01220104 0.12052933 0.30898589
v 0.56574076 -0.00458185 -0.15095142
v 0.53120196 0.15511091 -0.05981967
v -0.46076286 -0.10659268 0.20764995
v 0.18444766 0.39605519 0.14725557
v -0.77507848 -0.15616909 -0.18421452
v 0.47583511 -0.08996329 -0.06983048
v 0.27793178 0.20066725 0.19427107
v 0.16972458 -0.16017221 0.30320248
v -0.73287392 -0.01820017 0.02119649
v -0.03692970 0.03980856 -0.32003164
v -0.28511095 -0.17399397 -0.18739246
v -0.24062967 -0.43730158 0.31982702
v 0.42516077 0.02154109 -0.04597382
v 0.23064208 0.17949128 -0.08904305
v -0.53962564 -0.21297020 -0.00074280
v -0.73952013 -0.10483856 -0.10316159
v -0.59595817 -0.19646157 0.01767454
v 0.32515210 -0.21380891 0.24245855
v 0.02088766 0.05268314 0.33051014
v -0.86309481 -0.14275220 -0.09570971
v 0.20693275 0.22597820 -0.35756400
v 0.31573057 0.09453350 0.13604315
v 0.56047302 -0.01834583 -0.09355007
v 0.50988692 0.09066106 -0.14085375
v -0.58934271 -0.30830377 0.10964011
v -0.24613926 -0.14901739 -0.23117037
v 0.44249111 0.21578637 -0.00075845
v 0.72473925 0.11555975 0.01705888
v -0.52109450 -0.24586363 0.20972177
v 0.25377971 -0.05197889 0.28155199
v 0.26767275 0.06321219 0.20505583
v 0.18249810 0.32661894 0.25268877
v 0.16884318 0.38217610 0.24855311
v -0.76779926 -0.13328375 -0.09881967
v -0.54515231 -0.28807443 0.07005665
v -0.35593921 -0.13761012 0.20736277
v -0.52656496 -0.01875390 0.17043298
v 0.47569329 0.08754192 -0.24981198
v 0.32710597 -0.04762715 0.09456837
v -0.52862322 -0.30003875 0.13311064
v -0.38610289 -0.04422175 0.19968250
v 0.17267634 -0.00040662 0.11320876
v -0.50146776 -0.19620481 0.08140308
v -0.51307923 -0.32824725 0.09336586
v 0.43311501 -0.09324156 0.15297279
v 0.17379791 0.28576377 -0.01621193
v -0.02131867 0.19403324 -0.19372836
v 0.62677288 0.04602982 -0.02871474
v -0.39355984 -0.04755294 0.03204828
v -0.80599737 -0.18743949 -0.18214983
v 0.37173560 0.04545799 -0.25613439
v -0.32478827 -0.16817321 -0.23813784
v 0.17706810 0.33009726 0.01265552
v 0.42457813 0.25672942 -0.01152939
v 0.44665694 0.16547938 -0.12186962
v 0.50179052 0.02835439 -0.00474184
v 0.59899598 0.03459802 -0.03620984
v 0.21912485 0.26791111 0.19682556
v 0.41209406 0.20327011 -0.08215557
v 0.19383690 0.19362924 0.23458515
v 0.05386110 0.29653531 0.17875442
v -0.44741476 0.01936684 0.16774054
v -0.76621908 -0.10025676 0.04426478
v -0.21617171 0.24678262 -0.14432155
v -0.47045863 -0.05400569 -0.15827191
v -0.52310461 -0.39474243 -0.01021251
v 0.15445574 0.37868235 0.17794965
v 0.24146110 -0.14448915 0.02218420
v -0.33359379 -0.37032363 0.31735271
v 0.11173351 0.28722870 0.23585761
v 0.31502542 0.03547774 -0.24957418
v 0.31372002 0.14232147 -0.29559922
v -0.18699768 0.10399316 0.09284666
v -0.26113924 0.04238604 0.24528308
v -0.24317610 0.24988964 -0.03210482
v -0.20959325 0.02691959 0.14218730
v 0.55309319 0.11405826 0.07580262
v 0.30018079 0.40676129 0.21292749
v 0.20880161 0.41175330 0.15555125
v -0.27651706 0.03821637 0.07921228
v 0.59180874 -0.03766933 -0.17519428
v 0.55964911 0.03941190 -0.15827341
v 0.45305026 0.21831422 0.07058494
v -0.62506831 -0.04346018 0.12752958
v -0.17113814 0.22220238 -0.20740178
v -0.14566380 0.13180524 -0.29738063
v -0.16738883 -0.11736101 0.39383250
v -0.26445356 -0.11377929 -0.23508427
v 0.24833187 0.27338585 0.12309210
v 0.30149272 -0.10160449 -0.23042686
v -0.55306435 -0.11666873 0.00571791
v 0.50953305 -0.03826493 -0.19252405
v -0.77948356 -0.15478468 -0.18268296
v -0.29562762 -0.17797057 -0.22486466
v -0.37004074 -0.20565000 -0.15676607
v -0.28896883 -0.13892138 0.26950738
v 0.37261000 0.03367778 -0.09108882
v 0.63746279 0.03784992 0.04672484
v 0.33632082 -0.11022701 -0.31775090
v 0.56127292 -0.01098543 -0.20802419
v -0.52791822 -0.01221319 0.23935136
v 0.34284663 0.20509395 -0.12800406
v 0.15538207 0.29382700 0.00946986
v -0.13535093 0.07435670 -0.06241105
v 0.34436533 -0.14389473 -0.09068894
v -0.43574566 -0.27059418 0.28242624
v -0.28430384 -0.33245069 0.36385453
v -0.71401966 -0.17587397 -0.12976110
v -0.44387072 -0.14305955 -0.05792694
v 0.44151294 0.15109476 -0.13506007
v -0.53105122 -0.06600458 -0.09263530
v 0.30293882 0.05743790 -0.23456717
v 0.62033814 0.05297676 -0.06287932
v 0.41335142 -0.09441421 -0.27008376
v 0.22708553 0.37766400 0.15269090
v -0.55487525 -0.02702617 0.06315435
v -0.12709951 0.02082328 -0.25385505
v 0.31257761 0.10307989 -0.18517339
v 0.10303173 0.27284458 0.20406026
v 0.35963628 0.47682241 0.18074259
v 0.24459781 0.19185024 -0.15643586
v -0.52754819 -0.02311788 -0.02775549
v 0.33439538 0.26208624 -0.08221885
v 0.57554632 -0.03657198 -0.16164002
v 0.26395065 -0.12385335 0.23194338
v -0.23724201 0.23256081 0.04265948
v 0.55302233 0.00236517 -0.03798120
v 0.37838662 0.20026670 -0.18698718
v 0.16100219 0.41598442 0.16883324
v 0.52713972 0.03010689 -0.22982240
v 0.42385894 -0.05711868 0.16400827
v -0.59361178 -0.13370846 -0.00563017
v 0.30517480 -0.14785737 -0.23936111
v -0.55653131 -0.28910598 0.11918408
v 0.28856298 -0.11483572 0.15396346
v 0.48027217 0.10378426 -0.25140557
v -0.20556381 0.21015301 0.20796105
v -0.28985977 -0.23238836 -0.08205570
v 0.53214264 -0.06813647 -0.14359567
v 0.21750966 0.37036014 0.30151537
v 0.31219789 0.10547571 -0.05921405
v -0.41120660 -0.03617585 0.17045978
v 0.40580872 -0.02400482 0.13279347
v 0.56757879 0.10122558 -0.03232384
v 0.28262234 -0.14656447 0.25035629
v -0.57464820 -0.14775530 -0.00583336
v 0.36427343 0.05417011 0.19533576
v -0.41993207 0.13350978 0.04811879
v 0.51734370 0.02783494 -0.05630681
v 0.24030438 0.28983507 -0.01336223
v -0.58772814 -0.23510775 0.09400497
v -0.27287048 0.10808796 0.22118005
v 0.62691075 0.03997476 -0.03784048
v -0.26535329 -0.24966170 0.38743311
v 0.19349402 -0.10231326 -0.13689959
v -0.45581320 -0.06462552 0.07617153
v 0.56319040 0.00204086 -0.08111283
v -0.61464804 0.01051392 0.08619185
v -0.34963882 -0.28761333 0.38001180
v 0.52572727 -0.02226343 -0.00895629
v 0.24231708 0.03800711 0.23466372
v 0.37705958 0.37760979 0.17133145
v 0.21202582 -0.17716867 -0.30552113
v 0.58279705 -0.06196912 -0.13354518
v 0.16095541 0.35938421 0.06079971
v -0.19782454 0.02993162 -0.18952391
v -0.06964254 -0.28235069 0.11686217
v 0.56721890 -0.01983636 -0.21224634
v 0.11998449 0.15979102 -0.18934958
v -0.04905697 0.30524305 0.02330279
v 0.08236650 0.12503944 -0.20724808
v -0.60022318 -0.04917751 0.21160488
v -0.44600943 -0.36397266 0.27970040
v -0.79421967 -0.14811094 -0.17191704
v -0.61586392 -0.17272274 0.05433460
v -0.55000329 0.04820075 0.09387232
v 0.27158180 0.05924369 -0.18221983
v 0.55086571 0.03496762 -0.17305195
v -0.48912713 0.03547497 0.17134757
v 0.46569604 -0.07928880 -0.14027451
v 0.50685978 0.18356931 -0.00352325
v -0.35025406 -0.05459905 -0.00971790
v 0.28828233 0.34726432 0.20964113
v -0.27598721 0.13570465 -0.23363107
v -0.06563346 -0.27915335 0.23744684
v 0.52616596 0.04264503 -0.05501049
v 0.22873694 0.08755004 0.28688169
v 0.53028506 -0.06673239 -0.14279813
v 0.25480965 0.18590549 -0.37072232
v -0.34978032 -0.26031089 0.20142481
v 0.25238407 -0.07167785 0.27867597
v -0.37364674 -0.14897269 0.06920783
v -0.70618147 -0.06403462 -0.06692869
v -0.34934378 0.02178262 0.17608620
v 0.37441546 0.00541690 -0.05826236
v 0.46900016 -0.08033335 -0.12536009
v 0.13107084 -0.26894578 0.31358051
v -0.77931213 -0.15753394 -0.05814534
v -0.45690209 -0.05699670 0.10316269
v 0.20576331 0.40001279 0.20096391
v 0.64920408 0.02870080 -0.11932059
v 0.68307114 0.07636773 -0.12969686
v -0.13763434 0.07303791 -0.02824206
v 0.48698220 -0.01649280 -0.00653081
v 0.60138613 -0.05982209 -0.13890553
v -0.64425671 -0.22556621 0.06092872
v 0.25169104 0.02377777 0.22221230
v 0.43827128 -0.12832011 -0.17588091
v -0.53904122 -0.08769044 -0.01325616
v 0.61147690 0.16876644 -0.00861327
v 0.35967624 -0.14893955 -0.01443693
v -0.63757414 -0.05848385 0.06035625
v 0.38555562 0.10272259 0.18009675
v 0.66664988 0.10539811 -0.00384394
v 0.40620911 -0.09318958 -0.27315402
v 0.04881297 0.34189805 0.30983540
v -0.22065686 0.02236073 0.12093812
v -0.59359640 -0.20559089 0.11477049
v -0.44680750 -0.14232749 0.21682861
v 0.05433112 0.36861143 0.18794015
v -0.57928395 -0.04567355 0.10019788
v 0.51953441 -0.07303787 -0.15061969
v 0.50639701 0.14433512 0.00466710
v -0.59337610 -0.28047419 0.08928034
v 0.24008656 0.32389674 0.17661044
v -0.77074456 -0.17324024 -0.08939023
v 0.14561450 0.24988668 0.24971037
v 0.31326374 0.16358306 -0.13596743
v 0.09950859 0.36650404 0.01517337
v 0.50075424 0.06286571 0.02347260
v 0.27177456 0.10991167 0.15608849
v -0.47871599 -0.21417022 0.23530999
v 0.31637949 0.17948042 0.18202226
v -0.37256274 0.01753613 0.32696363
v 0.38667488 -0.13676304 -0.09209456
v -0.56308430 -0.13835859 0.15339801
v 0.59572315 -0.06172407 -0.11542593
v -0.71355605 -0.10453509 -0.11800750
v 0.29643938 0.22080091 -0.27003768
v -0.40678701 0.07347916 0.30831259
v 0.26252568 0.22792955 0.17140412
v -0.36242640 -0.22748996 0.20658165
v -0.05454405 0.30539787 -0.03561586
v 0.51252085 -0.07093069 -0.20608680
v 0.28679764 0.03381681 0.17693509
v 0.57267123 0.09077342 -0.03288114
v 0.42689013 -0.09819817 0.19715306
v 0.15564600 -0.01684590 0.31378525
v 0.56483054 -0.05995018 -0.19350055
v -0.47184896 -0.16882914 0.15570891
v -0.42504358 -0.14077213 0.12804525
v -0.13743912 0.05483706 -0.17619392
v -0.38502997 -0.18561910 0.25028676
v -0.16281152 0.20089251 0.23221381
v 0.43264782 0.19146655 0.07589126
v 0.30033320 0.26136640 0.00967397
v -0.31272307 -0.02061798 -0.12143311
v -0.26065755 0.09238217 0.25857377
v -0.52790815 0.00511407 -0.01433894
v -0.67819560 -0.09665654 -0.00047246
v 0.18180692 -0.05664245 0.30504817
v -0.58666521 -0.29736716 0.12472107
v -0.38923240 -0.06637064 0.19837146
v 0.32565045 0.04201805 -0.15714498
v 0.48374736 -0.07332924 -0.10415962
v -0.08836692 -0.24685267 0.32115984
v -0.26757419 0.22155617 0.06063350
v 0.23892808 0.21152456 -0.17648712
v -0.82923496 -0.15999007 -0.13933130
v 0.21407314 -0.11540686 -0.33104432
v -0.01003185 0.17891429 -0.18784383
v -0.41897002 -0.05116215 0.05233132
v -0.57556719 -0.19348750 0.08662605
v -0.44480291 0.12579954 0.03373424
v -0.63861573 -0.14290266 -0.02174242
v -0.51422966 -0.00569133 -0.06133215
v 0.36913753 0.20597748 0.22017099
v -0.29478711 -0.01657461 -0.14808804
v 0.38271439 0.20268613 -0.13633755
v -0.83626866 -0.15080257 -0.13728443
v -0.37167445 -0.45437941 0.18255946
v 0.27264899 -0.14120331 0.17706686
v -0.63536459 -0.14504448 0.00159784
v 0.54585749 0.04774442 -0.11043680
v -0.60326916 -0.24201784 0.05268113
v 0.61963677 -0.03403831 0.04703436
v -0.66597909 -0.13289519 0.07882591
v 0.25162944 -0.12992586 0.19474596
v 0.33209610 0.16795380 -0.13687818
v 0.18201774 0.42052168 0.18264453
v 0.32049805 0.19452082 0.15560943
v 0.56571364 0.12492118 0.14741150
v -0.15020129 0.05083983 -0.17634743
v 0.44583437 0.11037706 -0.28027013
v 0.42267480 -0.06016465 -0.25867867
v 0.27773225 0.18128641 -0.11002919
v 0.48522994 -0.07198112 0.06518488
v -0.34778091 0.06980077 0.03992402
v -0.61404544 -0.07610856 0.17663059
v 0.12055016 0.26848376 0.20684457
v 0.37195459 0.22457343 -0.15002519
v 0.59672314 -0.03219654 0.02852507
v 0.34768778 0.34308758 0.12953803
v -0.37945640 0.12083389 0.30647355
v -0.32781351 0.10873289 0.30253738
v 0.24020334 0.19120887 -0.38240415
v 0.19667119 -0.10644288 0.34122658
v -0.50192213 -0.19261597 -0.08278747
v -0.48305470 -0.28313082 0.24369222
v -0.38225406 -0.16227087 0.19507423
v -0.38257998 -0.27223614 -0.19909772
v -0.46806771 -0.43827334 0.18961106
v -0.08431409 0.09068065 -0.33604741
v -0.16489455 -0.02408689 0.00836767
v -0.71255308 -0.18682873 -0.15761700
v 0.39454228 -0.08773360 0.23236835
v -0.22692671 0.02143344 -0.08028570
v -0.72397423 -0.13464393 0.05453308
v 0.09003044 0.30811396 0.10447908
v 0.26099357 0.37419030 0.24431144
v -0.43318841 -0.03907497 0.13077733
v 0.67126346 0.11960205 0.02574194
v 0.53330159 -0.00718697 -0.04413788
v -0.46312958 -0.08972687 -0.16555776
v 0.42453933 0.01488020 0.12040912
v 0.33104843 0.15346661 -0.18406047
v -0.19680023 0.17904158 -0.19640417
v 0.33721617 0.18270415 -0.26549345
v 0.29134369 -0.00909436 0.15404186
v 0.35393518 0.24136651 -0.01511145
v 0.39712563 0.18635844 -0.12890558
v 0.04946364 0.31843358 -0.00005043
v 0.52115268 0.10691907 0.14838707
v -0.45062861 -0.04994299 0.27113101
v 0.21473518 -0.16041753 -0.36817461
v 0.35793757 0.02911855 0.19423382
v -0.42466038 -0.06686229 0.28182119
v -0.57078665 -0.13443127 0.08532222
v 0.40552893 0.17897157 -0.17786619
v -0.12703055 0.30628604 0.09935974
v 0.17459491 0.25186360 0.23645519
v 0.39594388 -0.03052600 0.15728454
v -0.24987641 -0.14362887 -0.09061240
v -0.66679823 -0.18358636 -0.08505809
v -0.64026272 -0.22464816 0.07042470
v 0.44180104 0.05140401 -0.27188236
v 0.28823900 0.14471868 -0.32995966
v 0.33607429 0.40566066 0.22041991
v -0.41892165 -0.07676282 0.26971138
v 0.49747089 0.07359119 -0.23093130
v -0.67889392 -0.14126959 -0.06190855
v -0.77156228 -0.13993922 -0.04689846
v 0.47951660 -0.05785573 -0.14964008
v 0.49237517 0.01124785 -0.00760262
v -0.51274222 -0.34958032 0.16959606
v 0.26601210 -0.14139107 0.17127879
v 0.38818988 0.15787525 -0.16676317
v -0.50837773 -0.12035827 0.03852788
v -0.45938814 -0.38735020 0.27132189
v 0.50441164 0.20608950 -0.02483451
v 0.22800207 0.08524178 0.03361635
v -0.41091505 -0.17399472 -0.17877908
v -0.51766461 -0.03971876 0.18047071
v 0.36112362 0.17277259 -0.22079389
v -0.30340829 -0.00469710 -0.24582472
v -0.36356151 -0.03733492 0.03431708
v -0.54418749 -0.15087865 0.19461334
v 0.35373798 0.07010955 -0.27832490
v -0.43616685 -0.13267758 -0.13927779
v -0.71573859 -0.15465684 0.04855563
v 0.36834669 0.17473009 -0.14759600
v 0.06983652 0.19187939 -0.13468602
v -0.61832017 -0.06406852 0.13361958
v -0.43604326 -0.05043534 0.04453420
v -0.03022518 0.33246428 -0.04802832
v -0.45775479 -0.11702408 -0.22182974
v -0.24370626 -0.10483155 0.10181606
v 0.54171234 0.00581539 -0.13539106
v -0.28198487 0.09218235 0.11384058
v 0.67854226 0.10778796 0.08139274
v -0.30411464 0.18590581 -0.16355978
v -0.07504535 0.04872138 -0.33421081
v -0.71182787 0.04673979 0.04353679
v -0.10454927 0.28961360 -0.10716221
v 0.30632457 0.13035110 -0.32111192
v 0.04970206 0.32203245 0.04418850
v -0.26427782 0.18447664 -0.19668435
v -0.50006223 -0.27626228 0.18843576
v 0.31482509 -0.06961259 0.25127497
v 0.13191757 0.17262936 -0.09750619
v 0.57072246 0.07254534 -0.04176595
v -0.62981564 -0.12921813 0.01376238
v 0.33414119 0.34886050 0.22449207
v -0.76161963 -0.20864785 -0.22655080
v -0.17816749 0.03064522 -0.18581751
v 0.32716960 -0.05208357 0.18563655
v 0.53482586 0.10422999 -0.02272877
v 0.42504323 -0.13231549 -0.18439092
v -0.07664981 0.16183996 0.18164024
v -0.19908425 -0.19417526 0.17348118
v 0.21251976 0.24711062 0.21150289
v -0.41961703 0.15479888 -0.06100465
v 0.23213282 -0.05779035 -0.14168234
v 0.57200205 -0.01208194 -0.09412418
v 0.31802580 0.03827094 -0.11649696
v 0.54050338 0.03621317 -0.03318524
v 0.60172403 0.08388232 0.02121222
v 0.31001583 -0.02741716 0.17735358
v 0.58032125 -0.07032394 -0.16017656
v -0.45398682 -0.09157830 0.14651459
v -0.53832066 -0.07448296 0.19461848
v 0.33543387 0.17130290 -0.12268052
v -0.66133255 -0.02003827 0.07994520
v 0.07690148 0.33574706 0.13299903
v 0.28420752 -0.20544331 0.28492135
v 0.03917551 -0.19322740 -0.31546021
v -0.44410908 -0.21439685 0.23372026
v -0.46889433 0.00778657 0.16407776
v 0.15342274 0.02272504 0.25056678
v -0.17780510 0.15244587 -0.26563039
v -0.73945898 -0.17600752 -0.10430118
v 0.18650201 0.24544005 0.19557022
v 0.60270417 0.06538001 -0.10889019
v -0.56244987 -0.15253176 0.08302338
v 0.33645049 -0.16555715 -0.06030123
v 0.41506431 0.09769515 -0.19414590
v -0.38439101 -0.11376800 -0.20052207
v -0.46935335 -0.34411830 0.30872783
v -0.43588656 -0.14446282 -0.07971202
v 0.52594072 0.08174640 -0.06275157
v -0.43529218 0.05855402 0.03226515
v 0.36827219 -0.07533514 0.14501852
v 0.24410759 -0.06603848 -0.12613888
v 0.24869257 0.27537793 -0.02695845
v 0.56232947 -0.01844670 -0.09434621
v 0.22187689 -0.18096142 -0.19101426
v 0.51672357 0.09173183 -0.15124524
v 0.33040911 -0.01733878 -0.33409542
v -0.02661209 -0.03930971 0.32472545
v -0.40986839 -0.04566316 0.20557283
v -0.67835242 -0.12599391 0.07423693
v 0.31457421 0.17566714 -0.30500010
v 0.53951651 -0.04105189 -0.18952703
v -0.31872109 0.10019299 0.05610253
v -0.58389032 -0.19429092 0.01389511
v 0.28284034 -0.09938188 -0.32355416
v 0.31717083 0.11933491 -0.30576193
v 0.05596263 -0.04661329 0.26467732
v -0.64730215 -0.20210055 0.07452682
v 0.60037816 0.07268807 -0.14150667
v 0.42575118 -0.05626132 0.15629275
v 0.41832775 0.33145019 0.19670826
v 0.61786354 -0.01905631 -0.00298610
v 0.32448465 -0.06291373 -0.19143720
v -0.25798005 0.16337556 0.32106581
v -0.36449254 -0.21236756 0.25083768
v -0.72699350 -0.10775732 -0.13811558
v 0.48197719 -0.07862337 -0.19085933
v 0.45976532 -0.08485677 -0.12790388
v -0.54356402 -0.24913290 0.18255949
v -0.74204624 -0.17418322 -0.10937816
v -0.52928126 -0.01469056 0.17432657
v 0.35250348 0.09260838 -0.28479066
v -0.07664374 0.04148638 0.26545972
v 0.34199470 0.38519096 0.25207543
v 0.54433513 0.25313807 0.06065511
v 0.02873026 0.18370450 -0.22715759
v -0.29806742 -0.22454715 -0.10993831
v 0.30065319 0.28180796 0.09663387
v -0.47866878 -0.19039705 0.20476370
v 0.60937494 0.01937956 -0.04944066
v 0.57401383 0.02989582 -0.10307691
v 0.61219114 0.05207786 -0.13421100
v 0.44814730 0.04459904 0.11481570
v 0.30354148 0.38946766 0.21460661
v -0.73773587 -0.12840176 -0.14351882
v 0.29452002 0.25623697 -0.28046426
v 0.37929255 0.18511140 -0.19403511
v 0.41680083 0.00894679 0.05245648
v 0.44490609 -0.08449210 -0.20343855
v -0.64446241 -0.27714804 -0.05981635
v -0.41900727 -0.13373829 0.01320962
v -0.64405894 -0.07131109 0.07094644
v 0.52075791 0.05870027 -0.24026792
v -0.37329602 0.14151113 0.24221164
v 0.52883923 0.02024018 -0.03625334
v 0.51420385 -0.01829465 -0.04857535
v -0.68203866 -0.11510055 0.02591631
v -0.76044703 -0.15673457 -0.05918732
v 0.56655914 0.08327219 -0.16896307
v 0.57840550 0.10737528 0.11872388
v -0.39757273 -0.02514233 -0.03367585
v -0.49932730 -0.39075953 0.22134441
v -0.56403852 -0.16392094 0.00714559
v 0.34803963 -0.13231063 0.19749539
v 0.34720549 0.19861446 -0.20478083
v 0.08096525 0.37747505 0.25599867
v 0.40088183 0.03788194 -0.27832377
v -0.53336805 -0.05848078 -0.09742457
v -0.18691340 -0.36907941 0.41147882
v -0.78279746 -0.17960513 -0.10014949
v -0.47445089 -0.00414720 0.26225463
v -0.72603840 -0.18318781 -0.17707807
v 0.66764122 0.05555660 0.01529823
v 0.62359327 -0.00721331 0.02466931
v 0.25926587 0.31112576 0.27371097
v -0.18924400 -0.12474574 -0.09581688
v -0.12163195 0.13814531 -0.23118642
v -0.77402365 -0.18716383 -0.16914834
v -0.46690047 -0.21626505 0.22735512
v -0.56770265 -0.21268347 0.16093904
v 0.18848044 0.21940872 -0.17411482
v -0.07132394 0.17665291 0.27042174
v 0.05356843 0.32472312 0.01747772
v -0.76578391 -0.14258474 -0.13375501
v -0.23746146 -0.44033366 0.27624795
v 0.27420747 0.07178783 0.19301939
v 0.59798539 -0.04380063 -0.17024197
v 0.36209473 0.17389905 -0.22109360
v 0.29334551 -0.08610828 0.21350954
v 0.45909590 -0.07242840 0.02730229
v 0.03776419 -0.19797759 0.34587300
v -0.48009422 -0.22770317 0.19198896
v -0.48888078 -0.21163082 0.18715751
v 0.37822479 -0.03427793 -0.14387777
v 0.24149022 -0.20118614 0.28490615
v -0.27936125 -0.43829057 0.27891046
v 0.55649519 0.08881653 -0.05041633
v -0.36000076 -0.08070053 -0.06019423
v -0.68712342 -0.18499357 -0.18226063
v -0.65254551 -0.23551455 -0.01017290
v -0.61842453 -0.20520274 0.10496268
v -0.25903359 -0.12940568 0.16843039
v 0.29464757 -0.14523211 0.26163289
v 0.40950477 -0.04731967 -0.25447565
v -0.23546898 0.02186581 0.10695933
v 0.39179790 0.16929507 -0.15789101
v -0.54219532 -0.17315218 0.13117354
v 0.46688354 0.06469543 -0.23657040
v 0.34127983 0.10922641 -0.30944857
v 0.28115356 0.19214436 -0.12417503
v 0.52893651 -0.06563354 0.01619981
v 0.54955715 0.01419841 -0.13063718
v -0.49479178 -0.32302362 0.17393449
v -0.07331913 -0.18904439 0.38585237
v 0.25186098 -0.11595862 0.02217501
v 0.41777620 -0.11895924 -0.24178836
v -0.61216581 0.04382845 0.09139668
v -0.27405187 0.24054398 -0.11784299
v 0.23528352 -0.25065199 0.19186838
v 0.33723885 -0.12553611 -0.28590876
v -0.44119701 -0.15072218 0.22816274
v -0.27769828 -0.15092528 0.36306274
v -0.62458432 -0.05704508 0.04040239
v -0.46010277 -0.20127724 0.17871584
v 0.60946763 -0.02384194 -0.14968999
v -0.28945607 -0.02790223 -0.10626226
v 0.21117529 0.27965876 -0.32837117
v -0.72286373 -0.17321417 -0.14284490
v 0.26133510 0.22544906 -0.29450542
v 0.33952352 0.15414050 -0.25334007
v 0.04720683 0.12442458 0.31621921
v 0.38068736 -0.14092270 0.18514532
v -0.64676899 -0.06796929 0.06598932
v -0.74159479 -0.16781533 0.01880447
v 0.54868227 0.04158494 -0.13978271
v -0.77080637 -0.15175641 -0.04509843
v 0.11389098 -0.07291429 0.36918005
v 0.48625970 0.01110546 -0.22840956
v -0.65244251 -0.05005825 0.08703671
v 0.13253984 0.13546748 -0.41306069
v -0.53075802 -0.00762741 -0.02457714
v 0.60477024 0.04818784 -0.05092167
v 0.05699370 0.41468057 0.10474090
v -0.41402024 -0.07031611 0.16501993
v 0.28013530 -0.14789262 -0.12686715
v 0.12004375 0.41817245 0.17314707
v -0.23127791 -0.01008080 -0.23550424
v -0.45149446 0.14479849 0.20793538
v 0.27874422 0.24751236 -0.06915217
v -0.74674505 -0.17257118 -0.18515193
v 0.38044703 -0.11185111 -0.08309670
v 0.27139986 -0.07553702 0.19148262
v 0.14792787 0.06347438 0.33988789
v 0.39236009 -0.11937713 0.19612959
v -0.30777711 0.03468417 -0.02539239
v 0.31922442 0.04277829 -0.24586520
v 0.28874561 0.18744086 -0.11331458
v 0.40918070 -0.09736659 0.15153283
v 0.08122897 0.21378131 0.22400211
v 0.03764667 0.12539203 -0.10365684
v 0.02310900 0.30259898 0.12836026
v -0.46537545 -0.30303347 0.15818860
v 0.61701542 0.02258281 -0.13888994
v -0.25751591 0.04152073 -0.27364433
v 0.62223387 0.03892823 -0.18631923
v -0.58777535 0.01380488 0.06417625
v 0.41541246 0.20297344 -0.13616784
v -0.00635353 -0.03769374 0.32217771
v -0.58242500 -0.21707863 -0.00895375
v -0.68637335 -0.16535841 0.04236970
v -0.70500129 -0.20754339 -0.03896115
v 0.27907747 -0.14857976 -0.12590525
v -0.54101628 -0.03992883 -0.00207966
v 0.65880293 0.09060067 0.00760499
v -0.68086880 -0.19454864 0.00649462
v -0.26311368 -0.02075648 -0.20431942
v 0.58072048 -0.00116191 -0.03636691
v 0.31033984 0.18916556 -0.14676160
v -0.55375004 -0.25851968 0.17351803
v -0.66636157 -0.04496684 0.03584856
v 0.32871988 -0.15878002 0.24302442
v 0.06593990 -0.19617358 -0.31711203
v 0.41764516 0.01693710 0.21974927
v 0.35347798 0.18714483 -0.14820081
v 0.22249325 0.31044364 0.00110679
v -0.34080437 -0.32934737 0.34448904
v -0.04717228 0.04476046 0.26809922
v 0.58260667 0.05004835 -0.17640132
v 0.27725616 -0.25635904 0.22256586
v 0.36889076 0.45909297 0.16834420
v -0.23132926 -0.00194326 -0.24882042
v 0.48744199 0.11725138 -0.10366815
v -0.26620084 0.05036961 0.13298966
v 0.26950625 -0.13449875 0.21392296
v 0.29719612 -0.10298318 -0.28325373
v 0.58266085 0.03764183 -0.22455180
v 0.26207489 -0.16544786 0.26802269
v -0.57882601 -0.05752999 0.04643212
v -0.86817724 -0.16919564 -0.11727406
v 0.27238333 0.23681456 -0.09729530
v 0.36366850 0.32586330 0.18359599
v -0.52368528 -0.30608040 0.22758085
v -0.00291777 0.11065318 0.13027349
v 0.25318483 0.14881663 0.23654437
v -0.36898077 -0.33409113 0.14555687
v -0.49271965 -0.22272544 0.14764771
v 0.30811632 -0.11502493 0.28007939
v 0.38225421 0.39147612 0.18902898
v 0.53510487 0.06132764 -0.18306224
v 0.40435630 -0.13689364 0.24790470
v 0.43994170 0.10165363 -0.27293324
v -0.36475703 -0.34402230 0.30190623
v 0.29213858 0.23766485 -0.09669092
v 0.18755350 0.19060618 -0.11255524
v 0.53206378 -0.05443374 -0.03158890

