# https://github.com/mikedh/trimesh
v -0.30262730 -0.16627011 -0.19776772
v -0.05688070 0.00396289 -0.08644900
v -0.35463727 -0.26181272 -0.05291798
v 0.31526357 -0.00818116 -0.35210040
v 0.10353370 0.16127993 0.19512919
v 0.60347968 0.06936659 -0.30609199
v 0.44342062 0.00400841 -0.35564035
v -0.56260335 -0.15159261 0.16685346
v 0.12043556 0.12355074 -0.06991362
v 0.61180770 0.04350419 -0.16099502
v 0.49861881 -0.01732865 -0.10978594
v 0.04473207 -0.13354073 0.15024978
v -0.43258208 -0.00536988 0.25942338
v 0.10844482 -0.06599928 0.09328087
v -0.17008333 0.19540094 -0.03267851
v 0.10875957 -0.07814692 0.17825399
v -0.34199214 -0.09804411 0.06487883
v -0.17880154 0.19301608 -0.04085707
v -0.09483299 0.14437777 -0.13225804
v -0.09364066 0.01529406 0.06209126
v 0.30277392 -0.01510525 -0.22118640
v 0.02202325 0.10054147 -0.07034083
v 0.32589793 -0.01945221 -0.17340745
v 0.35454395 0.24263762 -0.10216863
v -0.27663955 -0.28233245 0.11107223
v 0.28230873 -0.02807420 -0.35629386
v -0.15590024 -0.14693639 -0.10879766
v 0.54957426 0.00281462 -0.03449672
v 0.04103983 0.08825600 -0.03637651
v -0.38186327 -0.42661494 0.21648552
v -0.69418013 -0.20322393 -0.33887303
v -0.64634567 -0.24045019 -0.14568315
v 0.10378735 -0.09314253 0.12846418
v 0.16445234 -0.12466358 0.22615299
v -0.33066559 -0.50130230 0.25078118
v -0.62868905 -0.24714673 -0.01419570
v -0.41482949 -0.28277984 0.02460753
v 0.54753447 0.02952989 -0.22840834
v -0.19130388 -0.13356595 0.05285342
v 0.36393011 -0.00104838 -0.29481307
v 0.19976833 -0.09734900 0.21175919
v 0.11073631 -0.07339939 0.18876086
v 0.36240551 -0.01244763 -0.03136447
v 0.55112624 0.03755410 -0.07039827
v -0.44475609 -0.00435591 0.26952225
v -0.03103429 0.04375350 0.12218354
v -0.50621611 -0.26549900 0.21870735
v -0.26271039 -0.29863986 0.05669434
v -0.02259029 0.03748341 -0.04981602
v 0.64971000 0.07103133 -0.38280651
v 0.31697574 0.03304712 -0.31386280
v -0.10951882 0.06932893 -0.19657323
v 0.08343598 0.10772470 0.19482379
v -0.30262345 -0.47670305 0.29578164
v 0.15758707 0.36129043 0.17722808
v 0.16136819 0.37788799 0.19679746
v -0.11106355 -0.11377963 -0.03145469
v 0.47475284 0.15856926 -0.06546971
v -0.06924019 0.24436730 0.00125308
v 0.50373292 0.10661162 -0.08045396
v 0.32910442 0.37127212 0.25050759
v -0.27067450 -0.23757766 -0.08865519
v -0.24971223 -0.28857929 0.03574181
v -0.37943012 -0.22130460 -0.05240535
v -0.22262537 -0.43557110 0.25654152
v 0.02988554 0.04899457 0.16908370
v -0.10661737 -0.10172903 -0.02812690
v 0.27545249 0.18098766 -0.17755885
v 0.13936518 0.43757331 0.29074743
v 0.61413085 0.00446692 0.02868053
v 0.01390234 0.12628578 -0.13124195
v 0.30173329 0.43400103 0.21006243
v -0.46444058 -0.05275111 0.17821270
v -0.25744545 -0.09520457 -0.20367377
v -0.24603842 0.00860269 -0.16907988
v 0.30500019 -0.18678844 0.29749727
v -0.27304137 0.07431123 -0.05708117
v 0.52205122 0.09660499 -0.06282306
v -0.44907779 -0.40602493 0.21537638
v 0.28317466 0.38313302 0.23236027
v 0.16650659 0.25955564 0.00947250
v 0.44949183 0.01116016 -0.32225987
v -0.27351245 0.05626780 -0.11207657
v 0.12293033 -0.09169799 0.29018310
v -0.15324774 -0.15691806 -0.09683892
v 0.28196928 0.00978673 -0.09602221
v 0.53164202 -0.02111518 -0.02470027
v -0.48026246 -0.30578282 0.23048702
v 0.16193943 0.18131138 -0.03970538
v 0.55684906 -0.01916985 -0.09692695
v 0.19875464 0.15139550 -0.11061041
v 0.19920135 0.26784331 0.13425174
v -0.55249161 -0.17283028 0.18819219
v 0.37627125 0.00109685 -0.02330633
v 0.30450186 -0.16966367 0.27259919
v -0.31109530 -0.17410228 0.15534572
v 0.59600300 0.00339874 0.02291550
v -0.26430178 -0.46864140 0.29220593
v -0.08102003 -0.06896721 -0.05101488
v -0.71995795 -0.25641981 -0.11807282
v -0.09998626 0.04893519 -0.17382021
v 0.06272835 0.40347785 0.29470596
v 0.07542922 -0.05237066 0.19650242
v 0.30594617 0.03641640 -0.28665861
v 0.44335690 0.42981187 0.23775241
v 0.50916648 0.13895798 -0.31448528
v -0.17143372 -0.18918195 0.03963051
v -0.34918174 0.07121433 0.23504870
v -0.42842895 -0.40647101 0.25522664
v -0.53993082 -0.06329248 0.19807862
v -0.63387394 -0.24820395 0.15045361
v 0.57531363 0.11412092 -0.05690853
v 0.19180568 -0.05800122 0.22783487
v -0.05991710 0.21287541 -0.07150418
v -0.70531988 -0.24245796 -0.31280649
v -0.38833219 -0.25411132 -0.06200924
v -0.66494346 -0.25470215 0.11689808
v -0.03357356 0.03637283 -0.07742641
v -0.36382481 -0.25971663 -0.07296763
v -0.52237302 0.00439260 0.15506475
v -0.34025320 -0.07234921 0.02757158
v -0.08838393 0.13414991 -0.14036684
v -0.53649741 -0.22179016 0.20941839
v 0.35842630 0.13182051 0.09178253
v 0.28315371 -0.03573523 -0.00117089
v 0.40701824 0.44528064 0.26164645
v -0.10651922 -0.10145675 -0.09302080
v -0.54493368 -0.35381359 0.20023724
v -0.81540245 -0.21207638 -0.16880800
v 0.27247888 0.26591894 -0.34520853
v -0.54648727 -0.37666184 0.15654905
v -0.34032619 -0.10304619 -0.08271418
v 0.04192515 -0.10332247 0.22514570
v -0.33153534 -0.18396454 -0.10327017
v -0.22982462 0.12575263 -0.09833204
v 0.35166082 0.17962870 -0.15507640
v 0.67514747 0.05247144 -0.02488613
v -0.25087145 0.08337977 -0.12574707
v -0.32589969 -0.49752313 0.28653458
v -0.03674794 0.18797183 -0.08673179
v 0.26849696 0.11875920 0.15765697
v 0.30183849 0.20297749 -0.17980906
v 0.51697224 0.15594579 -0.34994704
v -0.31855100 0.02125494 0.27974796
v -0.07136373 0.02055988 -0.13496357
v 0.15262507 0.45423874 0.22278199
v 0.26354295 0.22497496 -0.26434472
v -0.46315977 -0.44725338 0.18085547
v 0.62166506 0.03145289 -0.32811216
v -0.30845496 -0.27489325 0.14898117
v -0.20514210 -0.22876054 0.05995685
v -0.13234544 -0.12075561 -0.11291616
v 0.40566042 0.02856232 -0.00648463
v -0.72525585 -0.18966424 -0.22434005
v -0.54670650 -0.22399202 0.20635867
v -0.33627152 0.09379528 0.24220158
v 0.32295418 0.04501294 -0.29482681
v 0.22103262 0.39132529 0.20736997
v -0.43005264 0.01564282 0.21903007
v -0.27525637 -0.20200983 -0.12540108
v -0.21834561 -0.17927021 -0.12591234
v 0.28900877 -0.02654982 -0.35858017
v 0.17611377 0.18869360 -0.08189160
v -0.79178017 -0.19123718 -0.27911559
v 0.19506709 0.00794804 0.07108926
v 0.26941830 0.23645784 -0.25527763
v 0.26550034 0.24588037 -0.34661260
v 0.08671155 0.30425376 0.11304987
v 0.34725881 0.03856409 -0.33482319
v 0.36188149 0.18059616 -0.20362154
v 0.11969202 0.40099534 0.28789884
v 0.35438031 0.38823679 0.21556138
v -0.36221784 0.09623192 0.22432746
v -0.79388607 -0.18921658 -0.29624122
v 0.35104960 0.22522964 -0.23976380
v 0.09865444 0.06930284 -0.01749266
v 0.43229628 0.17544493 -0.27160543
v -0.80318916 -0.19108436 -0.32573980
v 0.25623411 0.01256762 -0.05607837
v 0.26850319 -0.02049954 -0.09314816
v -0.44577619 -0.46364015 0.20207180
v 0.70769483 0.07224763 -0.31712794
v 0.05681830 -0.13608481 0.22004049
v 0.20394786 0.31297970 0.10318799
v 0.43965146 0.18321794 -0.07336389
v 0.51055783 -0.00297537 -0.19021209
v -0.51699209 -0.29173565 0.08385347
v 0.27168241 -0.00057452 -0.07773880
v 0.11830439 -0.13796096 0.29357779
v 0.17734888 0.37110397 0.13120189
v -0.05022203 0.18711863 -0.09642925
v 0.35728818 0.22125801 -0.00190758
v 0.12686394 0.13278034 0.19222829
v -0.47488233 -0.27090999 0.03527489
v 0.18970785 0.07824694 0.17565705
v 0.30816337 -0.02299791 -0.31420758
v 0.34413451 0.43296355 0.21679214
v 0.56251293 0.08729053 -0.03082864
v -0.15948486 -0.11357649 0.03041014
v -0.68002856 -0.17964187 0.09413089
v -0.31613317 -0.31917781 0.08038326
v -0.69071692 -0.21561371 -0.29832742
v 0.03191249 0.05432101 -0.01073315
v -0.71016008 -0.19914778 0.06126815
v -0.15947936 0.11099610 -0.14753193
v -0.69076830 -0.23457174 -0.35083786
v 0.40084937 0.11416078 0.05111401
v 0.65373981 0.06128699 -0.24282552
v -0.72151577 -0.25983879 -0.04304276
v 0.32416219 -0.03300650 0.24917039
v 0.23377500 0.27562660 -0.37328905
v 0.28013748 -0.02088262 -0.21290152
v 0.69868606 0.03907961 -0.25926575
v 0.32510415 0.44342259 0.21843699
v -0.55013394 -0.28356895 0.06765793
v -0.54696053 -0.44239026 0.20255095
v 0.13252130 -0.12194335 0.21290968
v 0.10348365 0.23845446 0.16973314
v -0.36413071 -0.31144688 0.02842825
v 0.27166262 0.02385027 -0.10491938
v -0.51803041 -0.29127538 0.21893847
v 0.61265522 0.06650326 -0.32767734
v 0.29465982 0.00096354 -0.17550875
v -0.20009328 0.15422039 -0.09544151
v 0.16722827 -0.15268071 0.26404735
v -0.69128001 -0.18673499 -0.14643811
v -0.49751097 -0.40915185 0.26859331
v -0.52885103 0.04600041 0.23837179
v -0.16799682 0.15710481 -0.11677607
v 0.68573010 -0.04385348 -0.27101019
v -0.00533017 0.26683238 0.07840291
v -0.56461269 0.00079526 0.25905997
v 0.49040905 0.13461736 -0.32943422
v -0.72067112 -0.17719012 -0.08151320
v 0.17143519 0.13788861 -0.09094404
v 0.04192011 0.14142413 -0.11487848
v -0.48984283 0.06986631 0.25797731
v -0.49339297 -0.10081286 0.07404963
v 0.72623318 0.07746947 -0.28325921
v 0.26804137 0.19887361 -0.07663055
v -0.24972512 -0.50366175 0.29489139
v -0.10787379 -0.12230325 -0.05983411
v -0.17513251 0.15307663 -0.11630760
v -0.42770031 -0.50486839 0.26053637
v 0.00863894 0.06724423 -0.04135314
v -0.11141387 -0.11653832 -0.07879251
v 0.07423287 0.22897843 0.16908813
v 0.47408468 -0.00856749 -0.33709383
v 0.52047056 0.13920872 -0.29995504
v -0.11625512 0.10147337 -0.16033719
v 0.54438180 0.10322140 -0.03851448
v 0.04938521 0.41668066 0.29543290
v -0.37722063 -0.15382956 -0.02274535
v 0.15831840 0.45397368 0.23040983
v -0.12225281 -0.03311151 -0.15400261
v -0.18832123 -0.06706805 -0.17456865
v 0.38047895 0.37029412 0.22476059
v -0.59846693 -0.02096702 0.14012359
v -0.48446774 0.02794941 0.20617713
v 0.69179577 0.02901570 -0.00265412
v 0.10269936 0.02827497 0.00072649
v 0.08745172 -0.13879736 0.16046995
v 0.40216351 0.20300432 -0.16282339
v 0.19836508 0.00285880 -0.38934562
v 0.67167443 -0.03567572 -0.00287026
v -0.11957935 -0.03594185 0.03454504
v -0.55406225 -0.16556664 0.05762211
v 0.05313392 0.26866776 0.08367959
v 0.05761583 0.19506426 -0.05297922
v 0.70502532 0.05830022 -0.01553450
v -0.17487697 0.16221343 -0.10111316
v -0.50779045 0.01661982 0.18910222
v 0.41548723 0.11351262 -0.33185485
v 0.58082676 0.12157211 -0.33286387
v -0.55936372 -0.03128598 0.22023490
v 0.68070889 0.05695039 -0.24215715
v -0.54201782 -0.23877969 0.21313526
v -0.52660918 0.00940841 0.15442665
v 0.21688658 0.17934442 -0.09060490
v 0.62400889 0.12283450 -0.25685641
v -0.74193811 -0.18850209 -0.20230407
v 0.00846450 -0.06873284 0.16222286
v -0.22471264 -0.39135683 0.28286535
v 0.52371579 0.04104417 -0.08904137
v -0.04427604 -0.00745894 -0.01648906
v 0.01722901 0.27180335 0.06867515
v 0.24505199 -0.00646328 0.04561057
v -0.29842398 0.10347097 0.26564068
v -0.66653049 -0.21652803 -0.10446859
v 0.35695633 -0.01265557 -0.22650963
v -0.49752206 -0.22509965 -0.00729692
v 0.24072297 0.06078586 -0.10772166
v -0.70503569 -0.25008801 -0.11732889
v 0.34247559 0.07069471 -0.27609801
v 0.41328889 0.16920754 -0.40534240
v -0.43138364 -0.12640475 0.06446777
v 0.31136489 0.06225978 0.09223168
v -0.34673285 -0.32766387 0.07630721
v -0.47455719 -0.09716845 0.07391816
v -0.81668508 -0.20249292 -0.19360290
v 0.03011167 -0.10146025 0.21556433
v -0.34009957 -0.07992917 -0.08014862
v -0.66132033 -0.23428831 0.12618388
v 0.46957740 0.17816578 -0.05904561
v 0.21550310 0.00584819 -0.44369373
v 0.13010930 -0.05996275 0.11928039
v -0.61358714 -0.23840907 -0.05252326
v 0.57053638 0.01640060 0.05553367
v -0.31401107 0.10415294 0.25415847
v -0.05425404 0.20237254 0.14539067
v -0.20960875 -0.09471475 0.05947013
v -0.02894286 0.04089917 -0.07250638
v 0.65761119 0.01293347 -0.37077841
v 0.51428765 0.14125013 -0.18092467
v -0.30066293 0.11770862 0.29445282
v -0.76295882 -0.18852314 -0.23867559
v -0.57652682 -0.26809460 0.18604353
v 0.20626798 -0.01605156 -0.43224975
v 0.26642084 0.24981299 -0.26292223
v -0.59673053 -0.25572649 0.02704879
v 0.31859085 -0.02970131 0.25433853
v 0.12850371 0.14387660 -0.06147822
v -0.57623011 -0.23388049 -0.02210048
v 0.22585030 -0.03267532 -0.18766445
v 0.28581679 -0.02125517 -0.25786805
v -0.41948065 -0.31352660 0.20897922
v 0.04284431 -0.14194474 0.07471907
v 0.57012188 0.01637290 -0.02748368
v 0.42630410 0.16506663 -0.01256017
v -0.37977439 -0.33174151 0.13749410
v -0.28934199 -0.14017706 -0.19917695
v 0.51274222 -0.01279030 -0.02078459
v -0.22209360 -0.09776230 0.06718405
v 0.14465787 0.45430219 0.17982644
v -0.07572483 0.18933655 0.13843316
v -0.52638215 -0.32951114 0.21452785
v 0.10891668 0.00444878 0.16376783
v 0.22288813 0.24238113 -0.01082280
v 0.17532244 0.03263641 0.00299279
v 0.41908756 0.20208317 -0.09929687
v 0.64402688 -0.03816237 -0.25904664
v -0.29005054 -0.00215941 -0.13210063
v 0.61776900 0.09417536 -0.07090443
v -0.34509885 0.07835575 0.28958315
v 0.17517862 0.23971321 -0.00207376
v 0.39632684 0.36503986 0.26081350
v 0.11058033 0.34949502 0.07004159
v -0.11905970 -0.03045122 0.03736698
v 0.02976708 -0.12974785 0.15951969
v -0.56562787 0.02419985 0.17338413
v 0.50808078 0.02769841 -0.32684809
v -0.29276052 0.00756774 -0.11736710
v -0.46893287 -0.00764872 0.22589943
v 0.01488776 -0.14496094 0.29588404
v -0.82258910 -0.23182867 -0.37444738
v 0.46686271 0.16701880 -0.11330155
v 0.07592880 -0.10416011 0.09566516
v 0.35896206 0.11617397 -0.29229477
v -0.33783302 0.15328598 0.29255089
v 0.05533938 0.27773321 0.06817605
v 0.60303116 0.06864984 -0.16468066
v 0.00799151 0.13096607 -0.12560160
v 0.06382895 0.43189096 0.14948156
v 0.63274193 0.09275451 -0.04337988
v -0.39556015 -0.22850762 -0.04557863
v -0.69222707 -0.19726880 -0.27381957
v -0.58898854 -0.14940467 0.15385593
v -0.49109221 -0.09645470 0.07390630
v 0.09625008 -0.03955195 0.18202755
v 0.58673358 0.06376793 -0.10548580
v 0.05590614 -0.15022627 0.07273293
v 0.23533130 0.18179117 -0.10686848
v 0.03651625 0.15514384 0.19404319
v 0.09496956 -0.12660997 0.15073526
v 0.31818801 0.42847869 0.27583104
v -0.79132086 -0.25485432 -0.19170968
v -0.65357107 -0.27604523 0.03102452
v 0.68330801 0.04746862 -0.25751430
v 0.24404846 -0.00083423 0.01408210
v 0.36783871 0.01641375 0.02703832
v -0.02019901 0.13546881 -0.13816018
v -0.70907223 -0.18898837 -0.23924166
v 0.31430677 0.01164710 0.06668072
v 0.33864835 0.21143310 -0.12465487
v -0.24470615 0.03817275 0.27347031
v 0.28133616 0.14135921 0.15507551
v -0.39654005 -0.29906693 0.02244554
v 0.34334129 0.46777558 0.22820380
v -0.56608182 -0.03223803 0.21103720
v -0.48422712 -0.02345894 0.23387392
v 0.58993107 0.12309813 -0.37765738
v -0.84102899 -0.23168990 -0.38143829
v 0.25069457 0.25828764 -0.28403068
v 0.03899075 -0.13829364 0.17353314
v -0.47626656 -0.10257255 0.07054012
v 0.28400579 -0.00258756 0.05306434
v -0.82992202 -0.23972106 -0.18487144
v 0.32455009 0.20534006 0.09218049
v 0.46563679 0.16836937 -0.19023377
v -0.29776424 -0.15660433 -0.15824227
v -0.38118914 -0.21769693 -0.04431427
v -0.43357939 -0.19679248 0.20436235
v 0.27130476 -0.03111091 -0.28209373
v 0.29537120 0.01366091 -0.13612141
v -0.32681215 0.13711852 0.26633269
v -0.54914123 -0.43507811 0.16705072
v -0.53254002 -0.45556751 0.22717756
v -0.25477421 -0.26171336 0.10570551
v 0.29836494 0.18076499 0.13299929
v -0.33324221 -0.08428144 -0.08668396
v 0.01258157 -0.15674403 0.29465041
v 0.53725386 0.13775863 -0.15959150
v -0.36253345 -0.32619205 0.06537474
v -0.47852859 -0.13864821 0.07712198
v -0.45174730 -0.38409716 0.15279521
v 0.21506166 0.09735441 0.17713946
v 0.38344857 0.46308836 0.28776720
v -0.02785484 0.25648016 0.07665052
v -0.49831557 -0.02397776 0.13635546
v -0.28481740 -0.52004510 0.25951076
v -0.10968497 -0.00344572 -0.15863700
v -0.01078792 0.14313059 0.18009549
v 0.12027206 0.45694783 0.17529102
v -0.52392876 -0.13181101 0.08509178
v 0.28341877 0.02561028 0.08838467
v 0.16344087 0.24089256 -0.00092638
v -0.56429189 -0.05461143 0.19297639
v -0.04220382 0.24268629 -0.02119007
v 0.57119894 0.11601825 -0.01863516
v -0.24250779 -0.06750371 -0.19695230
v -0.08549656 0.14275499 0.14608143
v 0.22914772 -0.05647359 0.23161058
v -0.10734911 0.21170224 0.08026305
v -0.44979450 -0.25877175 -0.00040804
v 0.16844216 0.19631292 -0.03280203
v 0.03791045 -0.10220952 0.06681729
v 0.53063124 -0.00025938 -0.18397811
v 0.72681385 -0.02570935 -0.26839632
v 0.16791582 0.40651953 0.28538147
v -0.03800842 0.02599145 0.10155278
v 0.12656353 0.22036253 -0.01190488
v -0.23607266 -0.46157077 0.29503193
v 0.66425174 0.10832205 -0.29187047
v -0.89122224 -0.21588379 -0.29754344
v -0.17724262 0.15523212 -0.11024772
v -0.47912395 -0.35479099 0.13218187
v -0.41485646 -0.45280838 0.29100949
v 0.12547573 -0.06518455 0.12117626
v 0.19353285 -0.11788913 0.21637225
v 0.34240440 0.22213767 -0.20672947
v 0.36167446 0.21322785 -0.19713607
v 0.28593346 0.00911220 0.06270992
v 0.23869680 0.08298121 0.15574872
v -0.34190503 -0.12527832 -0.08653259
v -0.52180302 0.03764250 0.29149866
v 0.26521042 0.00707069 -0.20569551
v -0.32005522 -0.02843413 -0.06420612
v -0.32706532 -0.46135467 0.29527146
v 0.18171199 0.13626963 -0.09868691
v -0.16458033 0.12738642 0.07540067
v 0.27088839 -0.19366343 0.26078314
v -0.18788470 0.08472410 -0.16354002
v 0.10110686 0.45600197 0.17373556
v -0.31009769 0.00069198 0.25418055
v -0.55751741 -0.41138703 0.13119975
v 0.13179597 0.39228326 0.06268139
v 0.69880491 -0.03499354 -0.00554808
v 0.34426102 -0.07744517 0.29106578
v -0.52088255 -0.13428813 0.08621762
v -0.10193835 -0.00981344 0.03886859
v -0.41437799 -0.34234285 0.17780998
v -0.18574998 0.01692567 0.05303282
v 0.13653336 0.45737252 0.19158861
v -0.56553674 -0.42527884 0.16541785
v -0.21514644 -0.14439359 0.07763211
v -0.75093162 -0.20804945 -0.07335715
v 0.37623596 0.17389344 -0.18810670
v 0.21300642 0.01143065 -0.32431766
v 0.32816029 0.17525455 -0.28570661
v 0.14395446 0.13886897 -0.07663390
v -0.02153770 0.05265421 0.13944985
v -0.34897998 0.09681831 0.22955821
v -0.09748600 -0.10378876 -0.04064079
v -0.49149901 -0.17633335 0.05753050
v -0.31178051 0.11647484 0.25728351
v 0.72989619 -0.04404616 -0.25811523
v -0.16237698 -0.48215693 0.27601287
v 0.26725644 0.02743814 -0.10552709
v 0.00722290 0.23794512 0.13948765
v 0.58497703 0.06425646 -0.11767440
v 0.47510123 -0.00031814 -0.33478197
v 0.03426670 -0.14048088 0.26015675
v 0.59118217 -0.03049108 -0.03486279
v 0.38219747 0.18560292 -0.30657411
v 0.37078401 -0.02855218 -0.14781132
v -0.71001220 -0.18670766 -0.19820769
v -0.46503869 -0.39868629 0.23223384
v 0.30003282 0.24327029 -0.31392947
v 0.03558328 0.15868959 -0.08286969
v 0.32108074 -0.01294327 -0.28135294
v -0.21476337 -0.47587138 0.25884041
v 0.11060710 0.11126144 0.20387027
v -0.14936908 0.20503509 -0.01989043
v -0.45430836 0.07641280 0.23129822
v -0.05116429 -0.00134067 -0.06905986
v 0.66883725 0.06374098 -0.03783267
v 0.65355134 0.07130108 -0.37883219
v -0.17500998 0.18846802 -0.04831964
v -0.69273657 -0.18812346 -0.22582147
v 0.08175642 0.11463008 -0.04704869
v -0.64962900 -0.27875859 0.04389287
v 0.57166457 0.13422923 -0.22114187
v 0.48304638 0.17137736 -0.05625938
v 0.04762898 0.26199484 0.03161236
v 0.32901114 0.07054338 0.08890535
v 0.18983674 -0.01789563 -0.36772832
v 0.57040471 0.03301277 -0.17983209
v -0.12618083 -0.02380813 -0.16134462
v -0.30260268 -0.22662307 -0.11022141
v -0.33214295 -0.07220432 -0.10510442
v 0.21389508 -0.02143515 -0.42744648
v 0.22032331 0.28057879 0.10009769
v -0.68356830 -0.25717485 -0.05046961
v 0.24169834 0.44418934 0.29211998
v -0.37037039 0.01142727 0.27286851
v 0.40023711 0.09235853 0.05027636
v 0.32381570 0.24664462 -0.07770824
v -0.37767491 -0.13168095 -0.00437495
v 0.18445836 -0.04905084 0.24087566
v 0.64266628 0.10138540 -0.29594555
v -0.79442751 -0.20461810 -0.16457888
v -0.59791076 -0.28499448 0.12644246
v 0.44534516 0.16119476 -0.39184824
v 0.30616090 -0.06936949 0.28477046
v 0.05471327 -0.10480125 0.27864951
v -0.50835735 -0.00370053 0.27874595
v 0.59090823 0.02085288 -0.36830077
v -0.05008973 0.21028669 -0.07126670
v 0.25203696 0.25686294 -0.28154853
v -0.23470989 -0.13294522 0.09359157
v -0.76272267 -0.25967130 -0.11782285
v 0.41380045 0.18629993 -0.26312259
v 0.36359710 0.23913224 -0.06854771
v 0.32142952 0.23750460 -0.28945300
v 0.22460864 0.08241274 0.16400771
v 0.43397626 -0.00721959 -0.12684572
v -0.16099221 0.13902867 0.07511902
v -0.11731300 0.21664985 0.04928024
v 0.38630426 0.50007403 0.27218616
v 0.34949020 0.06967541 -0.28356591
v 0.20079683 0.19252692 0.17507349
v 0.32946011 0.08343734 -0.28650159
v 0.25978675 0.22111735 -0.27797070
v 0.48144999 0.17955784 -0.07391347
v 0.55426437 0.09976912 -0.18044657
v -0.47288916 -0.08016364 0.08893351
v 0.00445733 0.00647902 0.04529702
v 0.54469353 0.04371978 -0.30663586
v 0.25414947 0.16689035 -0.11449506
v -0.32464132 -0.28708607 -0.02455998
v 0.34523991 -0.04255333 0.25447214
v -0.25367588 0.00352308 0.03121842
v -0.17931215 -0.42368144 0.26701728
v -0.56278676 0.01522741 0.21906868
v -0.05586614 0.17361827 -0.11049357
v 0.27513316 0.19340853 -0.09460396
v -0.31744733 -0.44510254 0.22019204
v 0.61784881 0.02260397 -0.31279525
v 0.10713547 0.24566948 0.01129011
v -0.41017249 -0.34365103 0.16278182
v -0.22463301 -0.21194133 0.10172025
v 0.06692702 -0.13781425 0.06612235
v 0.24231912 -0.02169411 -0.34759036
v 0.62455624 -0.03248624 -0.25077096
v 0.07732012 0.44791266 0.14915757
v 0.33752841 0.19493310 -0.17876546
v 0.52720737 -0.01624409 -0.22136912
v 0.19723164 0.02897995 -0.12138568
v 0.41226646 0.46955079 0.27855325
v -0.52842277 -0.50132906 0.28553936
v 0.29319227 0.20746508 -0.31364191
v 0.28882286 0.01618406 -0.16956194
v 0.58779067 -0.01187400 -0.10056189
v -0.21596202 -0.22921048 0.08686411
v 0.12502165 0.03534624 0.15969293
v 0.29099247 0.38158244 0.23617011
v -0.49640766 0.06606624 0.26190346
v 0.25719267 0.06641421 -0.16106443
v 0.54765022 0.03370978 -0.23119467
v 0.56895173 0.04428502 -0.04812315
v -0.22785240 0.06894030 -0.14456470
v -0.41183293 -0.34174201 0.16734919
v -0.67236131 -0.24250069 0.10945258
v -0.60494345 -0.21667419 -0.04108937
v -0.42944288 -0.38974270 0.19504347
v 0.05306815 -0.13475254 0.04751518
v 0.27355397 0.00678510 -0.21373922
v -0.82161027 -0.19537900 -0.27172145
v -0.88746017 -0.20871949 -0.26174694
v 0.31416029 -0.00857534 -0.00862491
v 0.12016044 0.43121916 0.24756671
v -0.01239317 0.01880454 0.06833117
v 0.03639052 0.04526259 -0.00034111
v 0.39597052 0.55059069 0.28348124
v 0.40236145 0.15274020 -0.31707358
v 0.66093695 0.02272744 -0.10485549
v 0.16384257 0.03005693 0.15674694
v 0.35171184 0.02152147 -0.33477932
v -0.09192936 0.17528880 -0.10236792
v 0.18660265 0.17701651 -0.06510630
v -0.59598559 -0.02901065 0.14358300
v 0.11183899 0.22358093 -0.01372442
v -0.55718064 -0.28200805 0.19260944
v -0.55378962 -0.05657765 0.08228202
v 0.13227686 -0.05750307 0.26989809
v 0.12301008 0.20627564 0.18303549
v -0.11690035 0.00315664 -0.16727842
v 0.27295381 0.17068493 -0.18917404
v -0.47839832 0.07306612 0.23900974
v 0.58236128 0.03948701 -0.35195979
v -0.08452158 0.05028684 0.11026628
v -0.48927054 -0.36065811 0.24802974
v 0.67477602 0.07505459 0.00545017
v -0.43185025 -0.36992022 0.20070878
v 0.56621695 0.01155754 -0.03997777
v -0.36683786 0.08732643 0.22340959
v -0.38949844 -0.33311999 0.08668076
v 0.17043088 0.06920803 0.17708142
v -0.50010920 -0.25919265 0.21906385
v 0.16436730 0.35627875 0.07952930
v 0.65061045 0.10831144 -0.29194334
v -0.53163749 -0.02435169 0.24919313
v -0.26471648 0.03858646 0.25582412
v 0.57973963 0.08098155 -0.10937922
v 0.07641696 0.19246508 -0.03917314
v 0.10385107 0.06451459 -0.01353967
v 0.14997172 -0.08050210 0.28307492
v 0.51545602 0.13870969 -0.21541612
v -0.19323507 -0.03257193 -0.20686223
v -0.58115965 -0.19934046 -0.00189420
v -0.54478484 -0.44588110 0.14017218
v 0.16176993 0.29650009 0.15322980
v 0.21229625 0.15505391 -0.13342759
v -0.73121166 -0.21062221 -0.31123462
v 0.21870734 -0.15476745 0.26376259
v -0.54098713 -0.26788580 0.04320396
v 0.42351395 0.09674361 -0.33352244
v -0.41931084 0.06430390 0.29184222
v 0.54042900 0.07831018 -0.19142680
v 0.30414838 0.15100040 -0.22283697
v 0.01503302 -0.05650005 0.13258196
v -0.54966718 -0.42583025 0.23462917
v -0.10581673 0.11330436 0.13176318
v 0.34460542 -0.10044718 0.29456949
v -0.53733921 -0.23906547 0.21960266
v -0.57663983 -0.03250237 0.29448009
v 0.03472177 0.25870866 0.12895587
v -0.57646203 -0.13426265 0.12965496
v -0.26217681 0.01210643 0.26425520
v 0.34784675 0.19040594 -0.18435697
v 0.02724889 0.19713898 -0.06155276
v 0.26246944 0.38242596 0.23016873
v 0.31089064 0.01974091 -0.35256937
v -0.28495377 -0.28987551 0.11403941
v 0.35209328 0.06260405 -0.28691319
v -0.72955889 -0.18958035 -0.24432757
v -0.62798649 -0.03115063 0.26698560
v -0.36158207 0.16438858 0.29019573
v -0.37987161 -0.12688386 0.14579403
v -0.83891511 -0.22786638 -0.27781689
v -0.31425098 0.13166362 0.26003560
v 0.29467091 0.14080364 0.14597765
v -0.80632162 -0.20308341 -0.25951490
v -0.54331213 -0.07711399 0.19313352
v -0.74235225 -0.26013824 -0.15404032
v 0.05734248 -0.03898297 0.19853924
v -0.18002862 -0.22009447 -0.01200557
v -0.21849932 0.12621598 -0.11194797
v -0.47934124 -0.50203210 0.29660699
v -0.53535074 -0.43877974 0.14240740
v 0.30508730 0.18331747 -0.15074784
v -0.36514950 -0.33035225 0.12272986
v 0.01739660 -0.04464819 0.13164826
v -0.66275764 -0.21465519 -0.16868609
v 0.37790018 0.04623668 0.04486627
v -0.45301044 -0.33521953 0.10863662
v -0.61026961 -0.27385524 0.13849734
v -0.46934968 -0.47358179 0.19603868
v -0.51105869 -0.46018466 0.25350800
v 0.35539451 0.21696019 -0.15529032
v 0.60050696 0.02497024 -0.08157035
v -0.42663857 -0.26181132 0.21818414
v -0.88485086 -0.21087678 -0.30143940
v 0.12845309 0.41503653 0.29141122
v 0.17977424 0.20910798 -0.02731380
v -0.47191456 0.02542309 0.20792723
v -0.59951717 -0.03664201 0.29445872
v -0.38145724 -0.10533959 0.06130974
v -0.47674254 -0.21208598 0.21061356
v 0.24064168 0.24881124 -0.35347390
v 0.31237495 0.19885452 -0.15543704
v 0.60752457 0.04287638 0.04936394
v -0.47348976 -0.47856158 0.24528262
v -0.62465048 -0.24282923 -0.16785687
v -0.57101655 -0.03960535 0.29102010
v 0.00760442 0.15832211 -0.09384697
v -0.20590630 -0.18350761 0.07321402
v 0.34407103 -0.00167950 -0.18819936
v 0.13050592 -0.05288188 0.25609261
v 0.23713088 0.25356349 -0.36448684
v -0.21918201 -0.08077857 0.06121187
v -0.01830037 0.26147157 0.03725211
v -0.55999100 -0.07179552 0.11501114
v 0.32449755 0.23082775 -0.34951818
v -0.25246236 -0.41949120 0.29270273
v -0.34906298 -0.14624323 -0.08062568
v 0.27797970 0.05403037 -0.21133655
v 0.08887438 -0.11033811 0.12478432
v -0.27187294 -0.13265555 -0.16942908
v -0.24058209 0.11598162 0.01340756
v -0.76702458 -0.24953268 -0.25387761
v -0.67238665 -0.23199105 0.11390764
v 0.48097342 0.15550178 -0.09240741
v 0.63399661 0.11495885 -0.23582521
v 0.10534233 0.39572620 0.11806408
v 0.32912731 -0.02245861 -0.08529612
v 0.38159692 0.13200037 0.07438010
v 0.12521647 0.30902639 0.05640741
v -0.18095040 -0.21254951 0.02464456
v 0.67488551 0.05388014 -0.24825208
v 0.00559666 0.26308393 0.10080665
v 0.66102964 0.06735211 -0.04273782
v 0.16310982 0.45073086 0.19756474
v 0.15538010 -0.06117800 0.22535369
v 0.25499982 0.22583495 -0.28428894
v 0.33936954 0.17136088 -0.28693244
v -0.21721406 -0.38345248 0.27143389
v 0.23023665 0.26441273 -0.36249197
v 0.28030065 -0.02410122 0.04778107
v 0.29768327 0.20308545 -0.17427005
v 0.36888048 0.23269972 -0.12875633
v 0.02826050 0.10846551 -0.12485775
v -0.29169190 0.04539619 0.25584063
v -0.00149609 0.07912626 -0.07121243
v 0.26228136 0.09680665 -0.18329599
v -0.23943238 0.12341208 0.01245186
v 0.09290185 0.07245495 -0.01967623
v 0.21967998 0.26193962 0.02494323
v 0.43601120 0.00050393 -0.24924864
v -0.47573200 -0.15190341 0.06983777
v -0.28070486 -0.20525366 0.15563177
v 0.61723071 0.00289773 -0.05600765
v -0.36373636 -0.11378551 0.08911277
v 0.63168234 -0.03455816 -0.29685241
v -0.49287215 -0.02600061 0.16101199
v -0.01214067 0.12433170 -0.14526683
v -0.20177324 -0.23709379 0.02947813
v 0.53900945 0.04579879 -0.08695719
v 0.48571703 -0.00408041 -0.36401331
v 0.56660342 0.08370945 -0.02731594
v 0.09802831 -0.09901620 0.12694281
v 0.01649895 -0.10927913 0.19320148
v 0.37416101 0.01820081 0.01943554
v -0.34776527 -0.32068938 0.03918401
v -0.58859056 -0.24456623 -0.00595355
v -0.82688308 -0.19655754 -0.22781193
v 0.39134720 0.21050295 -0.06696627
v -0.06634285 0.19356431 0.14293370
v 0.58262265 0.14441079 -0.34785342
v -0.69237554 -0.20361556 -0.34195894
v -0.52948213 -0.50487542 0.30420959
v -0.76493168 -0.25841129 -0.17590429
v 0.30859086 0.24098775 -0.01119107
v 0.39816713 0.42357790 0.27229550
v -0.12949087 -0.07354641 -0.14091346
v -0.60817301 -0.02416008 0.26517978
v -0.51801509 -0.04068325 0.08765712
v 0.29408073 -0.01585356 0.01711079
v 0.53205496 0.00175977 -0.03816399
v -0.19251665 -0.55493402 0.27904636
v 0.20293197 0.10938907 0.18185571
v -0.02552604 0.09492270 -0.12740439
v -0.04745761 0.24905391 0.08617374
v 0.34839708 0.11227338 -0.28921351
v 0.72813034 -0.04603929 -0.23544061
v 0.31898001 -0.01266804 -0.02691593
v 0.24556372 0.11419210 0.16829914
v 0.23324458 -0.08578961 0.28546262
v -0.31336018 -0.26837969 -0.05150350
v 0.25658405 0.01300357 0.08460251
v 0.38424060 0.22994825 -0.10342979
v -0.72132546 -0.18039922 0.02539318
v -0.28258181 -0.11438514 -0.15827759
v -0.11189365 -0.10796145 -0.01904599
v -0.44039485 -0.30237037 0.05940645
v -0.43258139 -0.09148687 0.10016713
v 0.54153579 0.13343726 -0.02948284
v 0.23436919 0.06213326 -0.12525144
v 0.24497487 0.08155399 -0.13908930
v -0.55218697 -0.13846856 0.07176437
v -0.54490000 0.03269663 0.25626570
v 0.19159392 0.41486943 0.28876120
v 0.68824619 0.05883891 -0.34476724
v 0.32478684 0.01030777 0.03446835
v 0.17990464 0.32758373 0.15913951
v 0.14781420 0.44608331 0.27441296
v -0.18525963 -0.04518884 -0.18942846
v 0.37912902 0.05222467 0.04922160
v 0.11114353 -0.14644568 0.25102684
v 0.29196566 -0.16827454 0.29813728
v -0.18174309 0.17981891 -0.05350263
v -0.09992237 0.15252927 0.13289790
v 0.42786121 0.36179543 0.25426817
v -0.09507368 0.22251408 0.06871112
v -0.25464991 -0.17587532 -0.14020269
v -0.78346556 -0.23680201 -0.32729355
v 0.38058388 0.15021870 0.06655545
v 0.20692560 0.07126112 -0.08795476
v 0.15774824 0.07693725 -0.04670143
v 0.31561217 0.21349347 -0.09305451
v -0.83357483 -0.23935516 -0.19882447
v -0.56963640 -0.00802790 0.05678344
v 0.67271781 0.08033551 -0.00822282
v -0.34172654 0.12381192 0.25190035
v -0.68058193 -0.23001243 -0.37029848
v -0.62254089 -0.24972671 -0.00722871
v -0.03672495 0.25771683 0.04876267
v -0.35323283 -0.08715968 0.04279895
v 0.30396336 -0.02193499 -0.27535731
v -0.22520414 0.09123084 0.03519483
v -0.06553321 0.22484052 0.11775608
v 0.63590187 0.09085719 -0.04687947
v -0.33863708 -0.21238169 0.18798564
v -0.18433248 -0.21298127 -0.07497828
v 0.15458269 0.20912561 0.18815470
v 0.61343884 0.12538174 -0.25652716
v 0.14484395 0.25002316 0.01473042
v 0.54702908 0.13790603 -0.18968852
v -0.15453261 -0.12633404 -0.12396085
v 0.37984058 0.08169816 0.06983531
v 0.40546316 0.19820511 -0.21175386
v 0.42983541 -0.02695134 -0.07627842
v 0.11408725 -0.09369597 0.16017494
v -0.00634225 0.03348783 -0.02521111
v -0.29342997 0.02289781 -0.09390380
v 0.40208107 0.19232683 -0.24885081
v 0.26301825 -0.09874734 0.22322689
v 0.40760452 -0.00332792 -0.24495624
v 0.03908749 0.03426795 0.01571269
v 0.28063214 -0.00775931 -0.20068119
v 0.23053779 -0.00479596 -0.17658529
v -0.50771677 -0.43816361 0.16384044
v -0.84819615 -0.18569122 -0.41054937
v 0.41931364 0.12419885 -0.32860106
v -0.77507645 -0.20736380 -0.12235200
v -0.10128006 -0.00983727 0.03829917
v -0.83033097 -0.20166060 -0.39202228
v -0.71087700 -0.18624082 -0.17903066
v 0.05949650 0.44279152 0.18569639
v 0.68762243 -0.02737513 -0.32162592
v 0.58514684 -0.00001514 -0.38881308
v -0.54756898 -0.16826181 0.18638532
v -0.03427198 0.20594656 0.15422888
v -0.27567306 -0.08158145 0.07473990
v 0.33058232 0.51377845 0.29045075
v -0.19781990 -0.44520789 0.26891994
v -0.38234997 0.05478154 0.22166985
v 0.55102491 -0.01271399 -0.27928576
v -0.32034051 0.02159880 0.23060082
v 0.06312760 0.38107398 0.16982624
v -0.20632538 -0.24515444 0.01972987
v 0.50480145 0.08025336 -0.32327411
v 0.28709069 -0.03341002 0.02228419
v -0.30902481 -0.48517495 0.22199969
v -0.19914475 -0.20055562 -0.10363487
v -0.48705709 -0.10013589 0.07528502
v -0.33816388 0.00216786 0.26421669
v -0.84152162 -0.23315105 -0.36676532
v 0.06465495 0.37325451 0.14325537
v -0.27696514 0.05234615 -0.10407184
v -0.16890486 0.08922294 -0.16274080
v 0.32109174 0.51262987 0.23864891
v 0.20219919 0.04982527 -0.12499913
v -0.17973579 0.17554140 -0.07084985
v 0.12192411 -0.10711863 0.17973937
v 0.38165364 0.41703907 0.23270285
v 0.47216123 0.10209794 -0.06115220
v 0.07872413 0.10048297 -0.04265466
v 0.20451801 0.37545606 0.26869845
v -0.06320104 0.13692844 0.15826291
v 0.26636332 -0.03562396 -0.04108267
v 0.06627110 0.11890451 0.19554900
v -0.46207097 -0.24112432 -0.01832881
v -0.07833701 0.11472882 -0.16035074
v -0.37106565 -0.11101804 -0.00648770
v 0.24654791 0.00647329 -0.01023845
v -0.24834782 -0.19996628 -0.11390605
v 0.37905166 0.08587075 -0.30265474
v 0.08278012 -0.05603264 0.20990430
v -0.30771089 0.11343162 0.29402441
v 0.03816762 -0.04617492 0.06975920
v -0.39443648 -0.23013838 0.20620815
v 0.38171181 -0.02943371 -0.14010841
v -0.26065215 -0.15645918 -0.19196264
v 0.42732781 0.07557074 0.00755343
v -0.41352963 0.00436567 0.24700499
v 0.19494341 0.20704725 0.17356603
v -0.90978903 -0.21496744 -0.27285451
v 0.30449089 0.18326314 -0.15087280
v 0.26794028 0.09531524 -0.18684278
v -0.49780169 -0.03361547 0.17969167
v 0.10494363 0.19596891 -0.02451304
v 0.25154886 -0.07278648 0.21774662
v 0.16830376 0.36055192 0.09218047
v 0.41233441 0.20343874 -0.15162244
v 0.03284783 0.26673245 0.10790452
v 0.35232410 0.24068379 -0.03800386
v 0.53456527 0.13307807 -0.23192061
v 0.57466298 0.02814680 -0.15119374
v -0.09742841 0.00799695 0.04939524
v 0.62849367 0.01973657 -0.07685310
v -0.56388247 -0.07907210 0.14354356
v 0.71859998 0.04075310 0.00283026
v 0.64049476 -0.01743900 0.00656705
v 0.58837038 0.13083071 -0.23560828
v -0.25462347 -0.10743488 0.08911897
v -0.23245956 -0.51655829 0.29743874
v -0.36340123 -0.48852333 0.22876981
v -0.17746770 -0.48796168 0.27943826
v -0.37186721 -0.24353419 -0.08542953
v 0.20978406 -0.03896976 -0.33798864
v -0.46361348 -0.34092018 0.24111041
v 0.31831104 -0.01514690 -0.04152324
v 0.51090002 0.16876048 -0.33513048
v 0.25715348 0.42796928 0.20594095
v 0.12837882 0.34539124 0.19656721
v 0.26119897 0.25489354 -0.27041811
v 0.07997034 0.17886607 -0.05076522
v -0.51371717 -0.45502353 0.25687802
v -0.46283919 -0.15720908 0.05305765
v -0.52854818 0.04183438 0.27330270
v 0.10411117 0.03305776 0.00000281
v 0.12134968 0.05996422 -0.01304178
v -0.39026704 -0.14359410 0.15936846
v 0.66958171 -0.02916007 -0.32705477
v -0.49851507 -0.50176203 0.29998982
v 0.40404925 0.38833445 0.25393876
v 0.62289977 0.04406166 -0.10795897
v -0.21060130 -0.44420174 0.29475048
v -0.45861015 -0.14118947 0.19344200
v 0.42757618 -0.01574446 -0.15210477
v -0.26637512 0.06215905 -0.12778914
v 0.03653517 0.01900947 0.15181911
v 0.42312384 0.20053904 -0.13897817
v 0.65195990 0.06779262 -0.04827754
v 0.59301907 0.09827553 -0.26130664
v -0.28816414 -0.10483305 0.09282508
v 0.52033359 0.13011961 -0.01780418
v 0.26867637 0.38491347 0.25507343
v 0.10020264 -0.05522228 0.20911296
v -0.46825102 -0.03100227 0.14256126
v 0.29128981 -0.03319783 -0.00124078
v 0.04580521 0.13300101 -0.15718274
v 0.04910314 0.08369861 0.18760070
v -0.63070673 -0.24410169 -0.16606168
v -0.02838728 0.15073264 -0.11716925
v -0.18514214 0.14373235 0.04792618
v 0.50065219 0.14613016 -0.31409982
v -0.75926018 -0.19505180 -0.30861160
v 0.62062430 0.00327884 -0.05131258
v -0.40477195 0.12089164 0.24926752
v -0.34080711 0.01085642 0.23915882
v 0.36320642 0.14711936 -0.30865854
v 0.07824724 0.39829174 0.27919406
v -0.13729680 0.21560246 0.00963764
v 0.60387701 0.06801751 -0.07330823
v -0.68789500 -0.15372775 0.04441121
v 0.32696304 0.10037338 0.11021100
v 0.58384740 0.10269529 -0.21181385
v 0.21818563 0.22910269 -0.02823487
v 0.31376895 0.09224188 -0.21789640
v -0.70854789 -0.18593095 -0.18007705
v -0.22144380 -0.25888914 -0.02033445
v 0.28651023 -0.00166484 -0.12757556
v -0.51637977 0.03626375 0.29344398
v 0.21229485 0.17261723 -0.13675584
v 0.25725231 -0.03224559 -0.28327069
v 0.05292375 0.41671887 0.29752010
v -0.55453783 -0.00168018 0.29346049
v 0.35076851 0.22333802 -0.04987531
v 0.19636211 0.22807732 -0.02725662
v 0.08422097 0.17064443 -0.04176260
v -0.15006962 -0.10292123 -0.14295107
v -0.21701601 -0.16037209 -0.14067928
v 0.26082537 0.25308987 -0.26989928
v 0.18719313 0.09150703 -0.07964263
v -0.29304847 0.14601564 0.27332282
v -0.43326098 -0.08972019 0.10162257
v 0.16457941 0.41838315 0.17322545
v -0.54886472 0.03382508 0.19127202
v -0.33130601 0.15207554 0.27070585
v -0.33139032 -0.04908502 -0.06695677
v -0.38800913 0.14288972 0.27799684
v 0.53987896 -0.00402169 -0.13940032
v 0.23705952 0.06279615 -0.13153738
v -0.19486092 -0.01544255 -0.20648646
v 0.23457213 0.42286888 0.20494650
v 0.17775586 0.37348768 0.14398372
v -0.71450287 -0.24405633 0.01989998
v 0.62750453 0.00649991 -0.24135107
v -0.01490467 0.00241305 0.03403701
v -0.30730352 -0.25906688 0.16359836
v 0.01429525 -0.11015472 0.17928298
v 0.49817297 0.14408988 -0.11577265
v -0.35122907 -0.28199703 0.17842567
v 0.31147665 -0.20909621 0.29881689
v 0.41734400 -0.01855104 -0.18496512
v -0.37064242 -0.11271202 0.08704354
v 0.49673924 0.05155692 -0.09250342
v -0.59637374 -0.20593116 0.18301079
v -0.50161684 -0.28916511 0.22168028
v -0.36945686 -0.24488793 -0.08804218
v -0.93283105 -0.20379044 -0.29714590
v -0.35704392 0.07323649 0.22935441
v -0.05128764 0.24321975 0.09668918
v -0.54976517 -0.43172738 0.18896869
v -0.58554953 -0.03844697 0.17081162
v -0.28344086 -0.28821790 -0.00771998
v 0.37545520 -0.00475708 -0.27491322
v 0.55194849 0.09810754 -0.17457148
v 0.28139579 0.10820492 0.14529224
v 0.42257747 -0.02774169 -0.07469919
v -0.38523856 -0.25959116 -0.05735295
v 0.59367687 0.06166696 -0.31586128
v 0.10086235 0.00636330 0.16723926
v -0.06596944 0.16297604 -0.11625677
v 0.26815504 -0.01324767 -0.19861726
v -0.61058897 -0.14010887 0.09278096
v 0.33774084 0.22254951 -0.14846326
v -0.62241554 -0.13553433 0.04663131
v -0.27476409 -0.30453017 0.07432462
v 0.42181182 -0.03607233 -0.07543322
v 0.14248179 0.17762342 -0.03853422
v 0.30812687 0.02955630 -0.32508457
v 0.58199954 -0.01709411 -0.29154164
v 0.15647578 0.00287927 0.07647268
v -0.24242872 0.04902845 0.03002921
v 0.36274186 0.15535292 -0.31248048
v 0.19627163 0.00190058 -0.38155952
v 0.37381738 0.44903040 0.24544396
v -0.23009504 0.07226317 0.03492268
v -0.11063896 -0.06580622 0.00774459
v 0.07660023 0.05524436 -0.00671417
v 0.54000741 0.01634976 -0.35439193
v 0.12793408 0.41211459 0.07564088
v 0.53613561 0.12136934 -0.13427791
v 0.22650033 0.04897837 -0.15413117
v -0.52641040 -0.19442369 0.03726575
v 0.54950750 0.00704743 -0.21413566
v -0.47816238 -0.52212715 0.30243790
v -0.31094432 -0.08687793 0.07335223
v 0.60765809 0.00414802 -0.23247631
v -0.62415051 -0.27547485 0.11094902
v -0.32479414 0.17682773 0.27176455
v 0.35635850 0.14541483 -0.27525231
v 0.04855569 -0.12065495 0.29346758
v 0.58305764 0.11065956 -0.09226296
v -0.35034174 -0.31394112 0.02875722
v 0.15871608 0.01263257 0.12969728
v -0.84141934 -0.19398467 -0.41114920
v 0.36279812 0.14706992 0.08357871
v 0.21974581 0.14614104 -0.12575985
v 0.20371872 -0.11106897 0.29358673
v -0.11592922 0.11920431 0.12534517
v -0.75311023 -0.20347385 -0.09838088
v -0.71095002 -0.25615525 -0.06557689
v -0.51304924 -0.04004188 0.19969811
v -0.44359827 -0.22768757 0.21129477
v 0.33662692 0.18383759 -0.14491318
v 0.22950938 0.43116334 0.29001516
v 0.04099943 -0.13877323 0.18632703
v 0.65030867 0.06058865 -0.24555834
v 0.22449808 0.01422544 -0.12090931
v 0.32185426 0.51501715 0.23950574
v -0.25276423 -0.17135485 -0.14377168
v 0.08059871 0.21369167 -0.02216231
v -0.11763589 -0.04204286 -0.14748882
v 0.19388713 0.28661442 0.13419108
v -0.66920173 -0.21398661 0.12199775
v -0.52392799 -0.48511887 0.29532310
v 0.14074747 -0.15519859 0.27502194
v 0.19220775 0.31113622 0.06429468
v -0.67992771 -0.26916701 0.04005625
v -0.28333020 0.04553826 -0.03991298
v 0.45883656 0.13463420 -0.32670036
v 0.05015671 -0.10945546 0.09732921
v 0.36523750 -0.10157378 0.28809384
v -0.84907687 -0.18498816 -0.27445731
v 0.27981639 -0.16717568 0.24017097
v -0.34533939 -0.29003352 0.16625394
v 0.12166720 0.39910299 0.24595031
v 0.09955987 0.38844672 0.22682816
v -0.45625114 0.00951128 0.28523141
v 0.45815030 0.16359572 -0.24302289
v 0.61447954 0.05833318 -0.09030991
v 0.58599061 0.00493284 -0.10573436
v 0.19989839 -0.01413734 -0.42466661
v 0.12439073 -0.05515062 0.10190778
v 0.57994235 0.09325238 -0.00180605
v 0.09332101 -0.06430428 0.19044890
v 0.34385183 0.21352014 -0.21959919
v 0.45558360 -0.01370434 -0.17842107
v -0.36561349 -0.48947835 0.29553720
v -0.10874615 -0.04144729 -0.14283729
v -0.26016879 -0.05809417 0.06210975
v 0.36183870 -0.01248934 -0.03901878
v 0.30590615 0.20651510 -0.08547394
v 0.42183331 -0.00273234 -0.23645750
v 0.17036419 0.22196810 -0.01425628
v -0.03367304 0.07063305 -0.10205720
v -0.12780809 -0.03324185 -0.15407424
v -0.70728081 -0.24950650 -0.13075885
v 0.09953845 0.23883100 0.00412492
v -0.02070143 0.16195305 0.17513324
v -0.35620797 0.15281892 0.28805500
v -0.11406871 -0.12529847 -0.02702396
v 0.18458252 -0.14922240 0.25836954
v -0.53466892 -0.12652686 0.12037421
v 0.39127684 -0.00231790 -0.04094093
v -0.46912423 -0.43979099 0.28180343
v 0.18745336 0.45481396 0.28397149
v 0.33705434 0.23713836 -0.24965452
v 0.05786812 0.19751461 -0.05325526
v -0.47848114 -0.16797979 0.05662363
v -0.37235162 -0.40916204 0.23155203
v -0.80775946 -0.21960400 -0.27125692
v -0.31147337 0.01752757 0.28008395
v -0.50836736 -0.38217270 0.25604415
v -0.25306174 -0.18268539 0.12933639
v -0.15837298 -0.18713018 0.00109573
v -0.15091282 0.09253163 -0.16261396
v 0.04868140 -0.07250112 0.05375029
v -0.27516004 -0.14620714 -0.21375166
v -0.33025995 -0.05183052 -0.06793106
v -0.46934572 -0.07385398 0.18877809
v 0.28037074 0.18282184 -0.16341172
v -0.25000721 -0.24835460 -0.05555682
v 0.67928964 0.01874585 -0.36159852
v 0.29519138 0.03326773 -0.33620921
v 0.40065953 0.20348904 -0.08040141
v 0.53483343 0.13027903 -0.09585595
v -0.28879988 0.04037909 0.25429460
v 0.39072546 0.20049933 -0.24979550
v -0.06378825 0.21298306 -0.06638645
v 0.45459971 0.12610565 -0.03218393
v -0.11300361 0.12146911 0.12738173
v 0.06668920 -0.05294704 0.20326081
v 0.34499913 -0.01391826 -0.22184527
v 0.31142053 -0.03447681 0.25131297
v 0.39808851 0.49816611 0.26114386
v -0.22580126 -0.22289717 -0.07903363
v 0.15761533 0.45409778 0.23637050
v 0.68177193 0.09495597 -0.24221371
v 0.43030834 0.11569745 0.00782208
v -0.14690326 -0.16510589 0.01035439
v 0.13859934 0.19812192 -0.01776815
v -0.46884462 -0.01140560 0.26858321
v 0.17035727 0.18580990 -0.08373316
v -0.50514364 -0.01622294 0.15214840
v 0.30549055 0.03468616 -0.15812697
v -0.24145462 -0.12002838 -0.19071905
v -0.30145317 -0.17236757 0.15082873
v 0.22465979 -0.02826087 -0.19356644
v -0.47538194 -0.00251635 0.21299374
v 0.32483387 -0.02981943 -0.16437116
v -0.32776117 -0.02946193 -0.03354514
v 0.05294028 -0.11226878 0.26823071
v -0.23755679 -0.43635145 0.25015917
v 0.15876344 0.03792033 -0.02848945
v 0.70316333 0.05387510 -0.32949257
v 0.26648504 0.16488877 -0.11487041
v -0.32347187 -0.03318194 -0.05577578
v -0.26479787 -0.51865560 0.29724476
v 0.08935256 -0.08084380 0.09797939
v 0.20686835 0.18573108 -0.08806732
v -0.15535165 0.08339284 -0.17044520
v -0.77437472 -0.26440892 -0.15052776
v 0.56311721 0.00270825 -0.12078521
v -0.62924081 -0.02499763 0.27357930
v -0.28552437 -0.38261050 0.28854570
v 0.66630113 0.00167350 -0.25107726
v -0.33706319 -0.04627649 -0.03333060
v 0.42270857 0.11948654 -0.33280465
v 0.19783622 0.31004074 0.14581488
v 0.57043290 0.06342377 -0.23464406
v 0.29367617 0.26207912 -0.27248070
v -0.38397157 -0.25171241 -0.06794061
v 0.59283012 0.04232111 0.06260464
v 0.22000243 0.28607345 0.08982953
v 0.61820042 -0.03340007 -0.03856223
v -0.07240617 0.00008110 0.03407050
v 0.54259491 0.07516966 -0.18050341
v -0.52073133 -0.23677170 -0.00723632
v -0.69392300 -0.19112350 0.08159760
v 0.38809705 -0.00443771 -0.25182340
v 0.53574550 0.11469761 -0.26724410
v -0.38935894 -0.17245898 -0.01430181
v 0.48897505 0.03603023 -0.09382936
v 0.64138156 0.01741998 -0.38332924
v -0.75558716 -0.20231935 -0.31407204
v -0.34376752 -0.40695965 0.23169726
v -0.55300713 0.01980717 0.14136039
v 0.13526994 0.39885816 0.07652467
v -0.44798362 -0.47179583 0.28833351
v -0.45875964 -0.06263284 0.18028188
v 0.08377401 -0.11922427 0.13172130
v 0.35059622 -0.05821883 0.26945007
v -0.57640880 -0.01944907 0.10891008
v 0.30126601 0.10569546 -0.19473581
v 0.20888646 0.30674189 0.07170931
v 0.03510514 0.15270239 0.19429451
v 0.43692562 0.08579843 -0.00402112
v 0.52274835 -0.01569202 -0.05387742
v 0.39137268 0.37945518 0.26416597
v 0.00904979 -0.08875855 0.15200855
v -0.03568212 0.15549430 0.17066860
v 0.24405396 0.03063066 -0.17735243
v -0.17135489 0.12389998 0.07134212
v -0.48260549 -0.07378238 0.08570496
v 0.26140964 0.13579993 -0.17232579
v 0.02898438 -0.01677343 0.15455025
v -0.09543722 0.17554252 0.12816693
v 0.57294393 0.04314273 -0.33920649
v 0.46056136 0.04115881 -0.34180999
v 0.54227048 0.07975585 -0.18226452
v 0.27984387 0.24519926 -0.25206187
v 0.41947776 0.17204203 -0.39912838
v -0.86012769 -0.19113059 -0.25655782
v -0.46268418 -0.08096659 0.09578043
v -0.03110322 0.00582305 0.03581050
v 0.27103829 0.00038071 0.04936638
v 0.71745920 -0.02487375 -0.28353727
v -0.48372644 -0.14440165 0.19317643
v -0.39628562 0.08547033 0.22520541
v -0.66672325 -0.20585778 0.12282168
v 0.58094251 0.10986204 -0.27105811
v 0.37985241 -0.00742768 -0.04489181
v 0.28547049 0.02408327 -0.36250085
v -0.53571320 -0.35422885 0.22137479
v -0.55656821 0.02316978 0.21577848
v -0.42151138 0.07462986 0.22353889
v 0.44709808 0.10221946 -0.33630732
v 0.57353818 0.00404422 -0.11653992
v -0.37840477 -0.42460510 0.21723150
v 0.59008366 -0.01954639 -0.29381967
v -0.01589336 0.13883616 -0.13327257
v -0.10216869 0.20765451 0.08917817
v 0.12221069 0.29541966 0.05136969
v -0.54411632 -0.20397033 0.20273677
v 0.59364635 0.02503766 0.07795160
v 0.20446774 -0.00505895 -0.43848583
v 0.33778057 0.21897644 -0.21150786
v 0.65408456 0.11469489 -0.27510995
v -0.34400043 -0.07183307 -0.06645161
v -0.11652885 -0.06796642 -0.13453421
v -0.11145040 0.11289871 0.12800191
v -0.50807101 -0.05619137 0.19509792
v -0.50875437 -0.46874392 0.23760049
v 0.62770426 0.02239612 -0.09042273
v 0.06281693 0.27133024 0.04746374
v 0.44176069 0.14637734 -0.02084925
v -0.41829315 -0.17826869 0.01645474
v 0.32375357 0.02608214 0.06298975
v -0.48080811 -0.53319937 0.28939053
v -0.20111983 0.15941979 0.00720172
v -0.49120033 -0.22115821 -0.00548783
v 0.35984626 -0.03115678 -0.15982610
v 0.24554096 0.18787098 -0.13910843
v -0.51129979 0.00667540 0.17831063
v 0.08964416 0.08163037 -0.02580088
v 0.31862530 -0.16449764 0.28955618
v 0.18916729 0.08760516 0.18014883
v 0.31731930 -0.01678221 -0.03326098
v -0.41689008 -0.17700161 0.20371661
v -0.33777308 -0.08992702 -0.07585109
v 0.16431992 -0.04994389 0.24224080
v -0.42585534 -0.41209567 0.27496210
v 0.44377661 0.00119912 -0.26316163
v 0.10169715 0.36200431 0.20539378
v -0.13460724 -0.16236153 -0.02281381
v 0.19300082 0.22585446 -0.01741851
v 0.58198607 0.05297592 -0.03515275
v 0.27222669 0.49432191 0.27672288
v -0.48169225 -0.25204653 -0.00071319
v 0.53310055 0.11031580 -0.27545315
v 0.19272326 0.33211532 0.16126381
v 0.30387634 -0.02429446 -0.15220509
v 0.66725630 -0.04540211 -0.28193358
v 0.22028932 0.26616085 0.02855325
v 0.28486875 -0.03142144 -0.34812158
v -0.00500927 0.08437821 -0.09247304
v -0.01634029 0.18550611 -0.08756132
v -0.04118802 0.17992993 -0.09968589
v 0.53462762 0.06967091 -0.07162219
v -0.44369036 -0.51192212 0.28789613
v -0.31543475 -0.18554485 0.16598429
v -0.08218691 -0.06909692 -0.03151604
v 0.50222504 0.15305400 -0.09505709
v 0.21477099 0.15158889 -0.13272916
v -0.47087339 -0.49126717 0.25956181
v 0.30229470 -0.01156265 -0.24576303
v -0.67961735 -0.23489779 -0.23455580
v -0.31726295 -0.01221704 -0.02999005
v -0.27416536 -0.43478796 0.22747777
v 0.55751103 -0.00116916 -0.22282949
v -0.28789908 -0.21559738 -0.11603054
v 0.48628634 0.15439726 -0.20904189
v -0.38645500 -0.41876748 0.29131934
v 0.55763406 0.03030765 -0.12921236
v 0.42708713 -0.00245499 -0.23701617
v -0.19278996 -0.00851797 0.05079408
v 0.51935643 0.08874156 -0.32200083
v 0.07088432 -0.10500361 0.11824010
v 0.44994292 0.17286405 -0.21126530
v 0.09168311 0.41696298 0.12611538
v 0.27901158 -0.03666338 -0.00692761
v -0.08211598 0.23524569 0.07193736
v 0.09243368 0.01311029 0.01530922
v -0.15200308 0.08004586 -0.16925380
v 0.16852383 -0.11778153 0.21946847
v -0.63559169 -0.21744509 -0.11576202
v 0.58912987 0.01813160 -0.23911233
v 0.11418933 0.42298728 0.29292417
v 0.51184428 0.01824014 -0.28406301
v -0.07979865 0.12693560 0.14864717
v 0.21708705 0.16768128 -0.07675588
v -0.23724949 -0.09907568 0.07640793
v 0.17591263 0.06014216 -0.04807401
v 0.31572816 0.50704670 0.23611253
v -0.52712053 0.00663932 0.14815176
v 0.50208920 0.13912247 -0.32286787
v 0.31560460 0.21925017 -0.08558150
v 0.09352343 -0.10684875 0.12498865
v 0.70345581 -0.03890665 -0.02423109
v 0.11003634 0.08923833 0.19201127
v -0.52778405 -0.14584674 0.08272339
v 0.06893595 0.40287879 0.29640880
v -0.51716232 0.02670413 0.18763892
v -0.23169219 -0.05824252 -0.19961205
v 0.25753352 0.10057513 -0.17950130
v 0.58201081 0.14421883 -0.35668212
v -0.74333119 -0.19803733 -0.13040718
v 0.55778277 0.10609417 -0.17888235
v 0.54531592 -0.01833617 -0.07434161
v -0.69848859 -0.26019758 -0.06170761
v 0.00938157 0.08437248 -0.06117412
v 0.55532604 0.05826718 -0.18338265
v -0.31916061 -0.01624665 -0.03285576
v -0.03589508 0.03221311 -0.07741489
v -0.63157511 -0.16816694 -0.00674955
v 0.63903451 0.02772253 -0.06674536
v -0.52831817 -0.10805879 0.11655928
v -0.35154194 -0.07930145 0.02386544
v 0.26677200 0.00841542 -0.05469250
v 0.71250784 0.00876646 -0.25161007
v 0.26416013 0.01066669 -0.34914055
v -0.25264505 -0.28462818 0.01092382
v -0.48540828 -0.47253639 0.25372297
v -0.26495829 0.04113832 0.26088101
v -0.62675804 -0.21702309 -0.06603318
v -0.00833676 0.05033325 -0.04119387
v -0.55990022 0.01406098 0.29272088
v -0.53857344 -0.27608743 0.20986293
v -0.24739666 0.06012985 0.02075695
v 0.56192404 0.09516697 -0.01644720
v -0.02062394 0.13469693 -0.13912942
v -0.37169838 0.14923216 0.24456017
v -0.69910836 -0.23851433 -0.33293033
v 0.47136134 0.16756472 -0.06251356
v 0.35236362 -0.14532557 0.27323702
v 0.33735624 0.25358981 -0.06683795
v 0.47052220 0.01633966 -0.31739065
v 0.33707586 0.21455006 -0.22405493
v -0.26242030 0.09819736 -0.08272485
v -0.64608157 -0.27450588 0.09579019
v -0.41138875 -0.28530774 0.02548009
v -0.33447132 -0.27468428 0.17276555
v 0.47674868 0.05821547 -0.07031455
v 0.13458851 0.40097871 0.07786301
v -0.07482425 -0.04558458 -0.04500089
v 0.37166223 0.19286041 -0.29059824
v -0.28691444 -0.24815013 0.15632398
v 0.28319433 -0.03162422 0.03717078
v -0.47891718 -0.40414220 0.25500455
v 0.08146957 0.23253256 -0.00573542
v -0.43881342 -0.21506862 -0.00445046
v -0.47804838 -0.09788428 0.07813028
v 0.48749590 0.15069669 -0.10603897
v 0.24836941 0.27046970 0.07344516
v 0.11988547 0.43469313 0.13806589
v 0.12238666 0.39601764 0.05584241
v -0.01146824 0.10112793 0.17212322
v 0.61878961 0.07044499 -0.31222278
v 0.49804947 0.16092654 -0.07622100
v -0.41477603 -0.16013190 0.19784410
v 0.18365592 0.43243894 0.19752994
v -0.81454396 -0.19957969 -0.37003005
v 0.48500359 -0.00823080 -0.15774903
v 0.17172807 0.21179709 0.18134665
v 0.07608979 -0.14698854 0.20182464
v -0.56897295 0.01301011 0.04940666
v -0.04094541 0.08097836 -0.13335802
v -0.09907660 -0.02605191 -0.14004774
v -0.23666717 -0.51188499 0.29734895
v 0.26083550 -0.02081374 -0.00788077
v 0.10276995 0.08049428 -0.02525018
v -0.50030148 -0.17729615 0.05834585
v -0.71162325 -0.18842182 -0.21649063
v -0.56473321 -0.25419718 0.02996421
v 0.28307116 -0.19760218 0.29495785
v -0.00314902 0.06739993 0.15892531
v -0.85557336 -0.21350613 -0.23077352
v 0.23570420 0.24854286 -0.32454500
v 0.11026777 -0.04111138 0.17064443
v 0.59140897 0.02906494 -0.16580510
v 0.51499981 0.14081165 -0.18362316
v -0.55258226 -0.39322248 0.16252042
v -0.09520577 0.07087167 -0.19004318
v 0.35877246 0.21653025 0.01629481
v 0.71979553 0.06323430 -0.01173846
v -0.49924916 -0.30588761 0.22549388
v 0.13142325 -0.05737630 0.22875705
v 0.09231721 0.02936452 0.16681094
v 0.18424682 0.36811653 0.22723818
v 0.15902574 0.42143461 0.28869697
v -0.77211350 -0.19460258 -0.21867120
v -0.58458906 -0.26656854 0.17929068
v -0.29272893 -0.30364969 0.08820306
v -0.45948529 0.07855231 0.23521340
v 0.48781031 0.14959459 -0.31989226
v 0.14491442 -0.01511465 0.11215928
v -0.47397256 -0.39384690 0.14269824
v -0.34122735 -0.15923724 0.14968725
v 0.03620765 -0.10934249 0.07215131
v -0.48371464 -0.09669151 0.19509792
v -0.53551888 -0.33441800 0.18182513
v 0.33021554 -0.09196352 0.25086647
v 0.12480692 0.26707697 0.02950935
v -0.00851354 0.09205478 -0.09076714
v 0.60770285 0.03303303 -0.06429984
v -0.33195242 -0.29827854 -0.00155003
v -0.86016202 -0.21814011 -0.37687090
v 0.34333119 0.13749690 -0.26627719
v -0.16432163 -0.00921396 -0.20098838
v 0.18400793 0.32684261 0.07368458
v 0.34626460 0.23771526 -0.01886185
v 0.41080821 0.20421736 -0.13758487
v 0.33683732 -0.00235839 0.00258284
v 0.56404567 0.02091140 -0.05775654
v 0.14442465 0.28588742 0.15877873
v 0.37440425 0.22167158 -0.07260754
v 0.11527800 0.18140396 0.19262472
v 0.02451532 0.25968769 0.10822465
v -0.42708972 -0.10295881 0.16692039
v -0.68135363 -0.16227387 0.07469866
v -0.14663123 0.18760242 -0.07958981
v -0.29125524 -0.14482106 -0.16105020
v -0.57312846 -0.42775306 0.12255810
v 0.14527616 0.39839059 0.17744179
v 0.12116336 -0.01998927 0.05646753
v -0.28947914 -0.49451351 0.22704405
v 0.09135958 0.32913792 0.15926184
v 0.27770504 0.08575879 -0.19209693
v 0.28475523 0.19660267 -0.26254544
v -0.22135052 -0.10273529 0.06828595
v -0.13629304 0.04976544 0.08507040
v -0.16290104 0.19727135 -0.01907199
v -0.17891249 -0.13758810 0.04310933
v 0.37855718 0.08565599 0.07270852
v 0.32977426 0.48035306 0.28542614
v 0.28305411 0.48270103 0.22863822
v -0.19113585 -0.12906481 0.05265385
v 0.68458003 0.02677629 -0.36406803
v 0.57600892 0.08786125 -0.21443966
v 0.31280172 0.21040025 0.10372715
v -0.55674082 0.01927744 0.22372127
v -0.11713754 0.15843929 -0.11895208
v -0.09661493 0.10519757 -0.16651696
v -0.24578913 -0.37198749 0.29545224
v -0.14435004 -0.13168560 -0.11691166
v 0.18606900 0.27331480 0.13920176
v 0.25679845 0.00756671 -0.17718229
v -0.41944170 -0.26309979 -0.00888829
v 0.54675037 0.03826261 -0.29362971
v -0.81937462 -0.19676143 -0.37115368
v -0.18338616 -0.13446778 -0.13670026
v -0.24671942 -0.08580554 -0.20377243
v -0.23452817 -0.22972432 0.11208742
v 0.24937303 0.00911765 -0.01948600
v 0.66920179 -0.00197867 0.01756360
v 0.33100057 0.02531923 -0.31647334
v 0.60217762 0.03121569 -0.30775127
v -0.50193900 0.04676764 0.29034004
v 0.31023738 0.21244325 -0.09505100
v 0.11318124 0.28161088 0.04264947
v -0.12692960 -0.14782268 -0.03051156
v 0.29803747 -0.03863461 -0.08118968
v -0.41839778 -0.41399452 0.22832379
v -0.25242811 -0.44885710 0.24489056
v -0.70397872 -0.24139260 -0.23841286
v -0.29430363 0.00268466 -0.12025117
v 0.42595059 0.19569431 -0.15768206
v -0.32304424 -0.07285018 -0.11929461
v 0.22146553 0.10117414 -0.14339320
v 0.61093891 0.06091825 -0.09974994
v 0.42920259 0.00413683 -0.29396516
v 0.26650077 0.44339523 0.21124958
v -0.43384054 -0.08927774 0.12133640
v -0.10943044 -0.07226127 -0.12603907
v 0.22540666 0.13338608 -0.11735863
v 0.06478226 0.23216958 0.16406339
v 0.37230024 0.56008917 0.28370965
v 0.17352036 0.15956494 -0.08064709
v -0.35047883 -0.10128833 -0.04416493
v 0.33626011 0.25371036 -0.06750818
v 0.61935228 -0.01929747 -0.24518557
v 0.10124265 -0.13802031 0.17547084
v -0.19516380 0.15492532 0.02460377
v 0.51353323 0.02916916 -0.08181459
v 0.38420171 0.21539916 -0.18190327
v 0.17543676 0.45577914 0.22567572
v 0.57093501 0.11136913 -0.34414145
v 0.25329861 -0.13567054 0.21646754
v -0.52792633 -0.23769772 -0.00735395
v 0.30222237 -0.02239422 -0.25967339
v -0.53528893 -0.34414017 0.17343542
v 0.16633466 0.00633224 0.12188123
v 0.49649483 0.15759881 -0.32283598
v -0.12485112 0.15010713 0.11255807
v -0.17679740 -0.00534831 -0.20941612
v 0.57971376 -0.02459920 -0.24374597
v 0.21699186 0.43039766 0.28920037
v 0.11446127 0.04505052 -0.00759109
v -0.35555413 -0.14089490 0.14700054
v 0.28236571 0.06341302 0.11390309
v 0.51677555 0.11380937 -0.06111152
v 0.14675698 -0.09954343 0.21049719
v -0.45741233 -0.21355931 0.00387395
v 0.17653675 -0.04795025 0.24502511
v -0.22385007 0.12337387 0.01828511
v 0.48411182 0.07153522 -0.07446767
v 0.19988388 0.28375396 0.03668003
v -0.51706046 -0.35807577 0.13602181
v -0.15529405 0.07656599 0.08207996
v 0.62614685 0.05081347 -0.07620285
v -0.23965058 -0.40541753 0.26476026
v 0.13363945 0.02606917 -0.04016589
v -0.42009237 -0.30071452 0.05030585
v 0.56315064 0.03385703 -0.12747768
v -0.53959978 0.03178731 0.16559477
v -0.34986794 -0.45039728 0.29675514
v 0.40467820 0.02102606 -0.01776673
v 0.10557929 0.04331080 0.17050302
v 0.41588342 0.48440963 0.25627437
v 0.26617378 -0.01940601 -0.34383184
v 0.65553939 -0.03616374 -0.25597495
v 0.16031185 0.37169909 0.09859123
v -0.12929088 -0.13574141 -0.08325565
v 0.04945424 -0.16783421 0.05137341
v 0.62626904 0.02584122 -0.32909912
v 0.02742101 0.10671560 -0.06959538
v -0.04388728 0.24911603 0.04063322
v 0.01908789 0.09891176 -0.07157785
v -0.59157431 0.00839972 0.29357019
v -0.44171467 -0.50893342 0.26565060
v -0.83122647 -0.19458310 -0.35647565
v -0.55906373 -0.13778472 0.15512313
v -0.46200460 -0.05709479 0.11983045
v 0.18747644 0.05850872 -0.09157282
v 0.57226437 0.10086805 -0.25587681
v -0.46314254 -0.00408978 0.22440058
v 0.47696105 -0.00389381 -0.20346813
v 0.41492400 0.18212576 -0.01638641
v -0.27187097 -0.26847640 -0.03884276
v 0.31176174 0.42196688 0.27394474
v -0.14783701 0.11430393 -0.14665857
v -0.00409078 -0.15887831 0.27794924
v 0.48578709 0.07564189 -0.07454176
v 0.13315026 0.12623639 0.19187272
v 0.57230830 -0.02108994 -0.23914382
v 0.27213398 0.25598982 -0.34645519
v -0.29450294 -0.26791739 0.14623614
v 0.16779293 -0.09479857 0.29418066
v -0.20396107 -0.06406014 0.05163458
v -0.68217951 -0.18873587 -0.16163093
v -0.29243258 -0.12771845 0.11484326
v 0.22138676 0.02763685 -0.03475289
v 0.47911268 -0.00433532 -0.19987595
v 0.16068743 -0.15436846 0.27471223
v -0.74453539 -0.25927570 -0.14037701
v -0.33715841 -0.12139288 0.10684346
v 0.25639895 0.46428758 0.22105031
v 0.73205453 0.03875180 -0.25524104
v 0.74236965 0.07862598 -0.24659449
v -0.11343462 -0.11776511 -0.02111580
v 0.44932860 0.04991977 -0.03510686
v 0.68503821 -0.04277199 -0.26868716
v -0.63174468 -0.25358450 0.14606661
v 0.09562397 -0.01751305 0.17713262
v 0.49218890 -0.01638112 -0.34009555
v -0.42705789 -0.25782183 -0.02147271
v 0.52426142 0.12274173 -0.02371614
v 0.40955976 -0.01895880 -0.13370007
v -0.53749865 -0.08837634 0.10532353
v 0.26802689 0.14886919 0.16146880
v 0.66963053 0.07803700 -0.02194221
v 0.42105421 0.00690032 -0.29847175
v 0.07783107 0.39667431 0.28267464
v -0.19557290 -0.18460211 0.06186519
v -0.56751180 -0.20932294 0.19560933
v -0.39531806 -0.17691265 0.19988552
v 0.07564616 0.39004043 0.20050448
v -0.46762225 0.02159405 0.20887038
v 0.56540936 -0.02232935 -0.24569367
v 0.42343381 0.14615965 0.01239975
v -0.54306275 -0.36730650 0.14135064
v 0.17735229 0.33801323 0.16815118
v -0.75403875 -0.25842997 -0.18584941
v 0.09419471 0.25394928 0.16115728
v 0.18775529 0.14938621 -0.07727571
v 0.11589588 0.35177943 0.05984665
v 0.29557279 -0.00148958 0.04145882
v 0.08972952 -0.02063122 0.18207359
v -0.46948674 -0.30912492 0.23416513
v 0.21490358 0.20098159 0.16568621
v -0.32996222 0.10297378 0.29022524
v 0.35195124 -0.03385543 -0.12814555
v -0.53650194 -0.20779587 0.20610520
v 0.71314573 -0.01917439 -0.30493823
v -0.68718553 -0.19146630 -0.22848170
v 0.31466520 0.25073427 -0.25811708
v -0.36578891 0.12471917 0.29062438
v 0.14496338 0.21543741 0.18847969
v -0.28212142 -0.28182405 0.12347375
v -0.02640025 0.25471202 0.02579368
v 0.56247878 0.01743120 -0.36290219
v 0.11563012 -0.06263895 0.20324118
v 0.55560482 0.11520188 -0.06190480
v 0.28602380 -0.15298240 0.25438038
v 0.07893053 -0.05674145 0.21322708
v 0.63898170 -0.01699273 -0.33297697
v -0.43081930 -0.33538386 0.10423075
v -0.34061152 -0.32456335 0.06737833
v -0.11834512 -0.13564703 -0.07283574
v -0.35161519 -0.21650723 0.19368325
v -0.11218230 0.13630198 0.12696876
v 0.31347075 0.21501817 0.09415928
v 0.23257497 0.27529594 0.04601489
v -0.26001954 -0.23826262 -0.08195794
v -0.15008067 0.10759946 0.09929607
v -0.34839672 -0.08615856 -0.03072100
v -0.65186745 -0.18329310 -0.05263148
v 0.08495943 0.04382405 0.16976869
v -0.55485409 -0.39906263 0.17873074
v -0.33666813 -0.16087736 0.14975952
v 0.23028861 0.06928357 -0.10310271
v 0.50125664 -0.01446111 -0.18041284
v -0.01116772 -0.15706937 0.27116781
v -0.14957689 0.19609487 0.02692375
v 0.21156797 0.18905424 -0.10859972
v -0.91302186 -0.20575865 -0.30218709
v 0.22568773 0.00514807 -0.28618529
v -0.00680737 0.07425759 -0.07350129
v -0.39530128 -0.29434931 0.01606460
v -0.49073425 -0.31611997 0.10937933
v -0.24680720 0.10008968 0.00246700
v -0.57628649 -0.21776573 -0.01993211
v -0.34367195 -0.07253430 -0.06933759
v 0.38326585 0.35393295 0.23310299
v -0.22386287 -0.22535834 -0.07698230
v 0.33875185 0.20493148 -0.12863070
v -0.90637606 -0.20473413 -0.30282557
v -0.38655293 -0.49801657 0.28896096
v 0.20368616 0.00424648 0.10766184
v -0.58593547 -0.16542654 0.03681609
v 0.54845142 0.08958707 -0.17173433
v -0.54865664 -0.30595690 0.12678358
v 0.69745898 -0.02613564 -0.02045923
v -0.60978264 -0.17914203 0.16443041
v 0.18658546 0.01874291 0.12529534
v 0.23247670 0.16604835 -0.08798239
v 0.20267195 0.46732566 0.24439658
v 0.23731355 0.22740194 0.14679074
v 0.34538555 -0.02006842 0.28160506
v -0.12073240 -0.14103001 -0.07127134
v 0.47731557 0.16578926 -0.33288202
v 0.44395238 0.04952771 -0.33755475
v 0.15501697 0.17335613 -0.04349091
v 0.50140244 -0.03314639 -0.01351467
v -0.23932093 0.01604885 0.03977563
v -0.58661336 -0.00281014 0.27163175
v 0.09247196 0.28870890 0.13796797
v 0.36123285 0.23843239 -0.11711659
v 0.61685741 -0.02089717 -0.00212360
v 0.37997404 0.42152059 0.22935675
v -0.35020050 0.13918208 0.28479466
v -0.30964166 0.10115851 0.25655115
v 0.26586384 0.26651180 -0.36781117
v 0.14197826 -0.08675385 0.28825673
v -0.37186462 -0.22966246 -0.08148570
v -0.46905464 -0.37832570 0.24255517
v -0.36669901 0.00783322 0.24992943
v -0.30253923 -0.17202227 -0.21419320
v -0.51258498 -0.53349286 0.29427454
v -0.04218982 0.12071749 -0.15477888
v -0.15905060 -0.18909945 -0.02216754
v -0.72737098 -0.23762311 -0.29110578
v 0.30076599 -0.06782714 0.28329632
v -0.16051486 -0.19689484 -0.04017353
v -0.65374875 -0.17381223 0.12059068
v 0.05851964 0.27012214 0.09547199
v 0.29016668 0.46189818 0.28632918
v -0.33789968 -0.12525821 0.11525484
v 0.65163136 0.06587038 0.01531449
v 0.50341421 0.02338896 -0.07983328
v -0.27541056 -0.07988902 -0.16139749
v 0.25756070 0.05259543 0.12737457
v 0.27231178 0.16788025 -0.12985498
v -0.09425027 0.17217021 -0.10543466
v 0.35186380 0.23021160 -0.28569359
v 0.10360755 -0.10558247 0.13873558
v 0.32099098 0.25382143 0.01806518
v 0.32912537 0.20567246 -0.10594196
v 0.02183451 0.27059847 0.06677561
v 0.31933510 -0.01792192 0.27384073
v -0.43551686 0.07554372 0.29166111
v 0.24449188 -0.03123548 -0.33036566
v 0.18188921 0.06394424 0.17759550
v -0.38402042 0.05028153 0.28573108
v -0.55537939 -0.07954333 0.18348610
v 0.37307358 0.21249327 -0.15390687
v -0.07783398 0.24585231 0.06398001
v 0.13838643 0.25596413 0.16967088
v 0.24009354 0.04642820 0.13374661
v -0.08093534 -0.06918683 -0.04998244
v -0.68898153 -0.23955546 -0.14366513
v -0.61994272 -0.25261772 0.15697058
v 0.44515976 0.14842981 -0.32163247
v 0.28003889 0.20799866 -0.28948113
v 0.36816731 0.49973297 0.28761777
v -0.39486194 0.00673700 0.27284521
v 0.51932114 0.14066055 -0.29826477
v -0.67249566 -0.21750525 -0.12541848
v -0.76438236 -0.20674542 -0.11071704
v 0.49340859 0.00002118 -0.20638770
v 0.33068138 -0.00479441 -0.00218564
v -0.49315673 -0.46528986 0.18064262
v 0.19973935 0.00680425 0.10796186
v 0.35004699 0.19742019 -0.14912745
v -0.41912177 -0.12837011 0.05385763
v -0.48090506 -0.53357941 0.29045844
v 0.43334702 0.18202937 -0.04293932
v 0.04552655 -0.02321971 0.06057443
v -0.25639027 -0.08100189 -0.18580028
v -0.46790844 0.07705680 0.23698634
v 0.32642245 0.20068711 -0.22284067
v -0.24601345 -0.13489561 -0.17770462
v -0.34892660 -0.29719093 0.00056610
v -0.52961588 -0.23538640 0.21927720
v 0.36750335 0.18812691 -0.32777753
v -0.22747487 0.00776541 -0.17740346
v -0.66589457 -0.19095844 0.11838880
v 0.31408766 0.19013523 -0.12576339
v 0.03331049 0.08877284 -0.04117393
v -0.55364305 0.01223599 0.24659944
v -0.25494781 0.07559196 0.00384130
v -0.00515076 0.25858524 0.00219129
v -0.29888394 -0.17443830 -0.19360928
v -0.13476893 -0.04556894 0.03272858
v 0.53186035 0.04009096 -0.18515584
v -0.26431525 -0.10457976 0.09017604
v 0.58499920 0.03795238 0.08733296
v -0.15605894 0.15906659 -0.11876595
v -0.03000270 0.09947415 -0.14784281
v -0.55787253 0.02347010 0.06812137
v -0.04384055 0.23830411 -0.03907961
v 0.29901707 0.20579095 -0.29071507
v 0.05670132 0.27638927 0.05151314
v -0.15584597 0.13603745 -0.13854831
v -0.44439596 -0.38890815 0.16590169
v 0.20438561 -0.09762165 0.29270691
v 0.03582897 0.06300431 -0.01629587
v 0.52557236 0.08281051 -0.06917966
v -0.58208078 -0.14250530 0.06529126
v 0.35040572 0.43019634 0.27785838
v -0.86006021 -0.17497678 -0.42522463
v -0.15147081 -0.16328877 -0.08647303
v 0.17531092 0.02256502 0.13924472
v 0.45669451 0.13379477 -0.04242000
v 0.47635269 -0.01505798 -0.36247879
v -0.05603237 0.01811213 0.07113662
v -0.12628202 -0.00565246 0.04319566
v 0.15474443 0.25528732 0.16447496
v -0.19020304 0.16533349 -0.08587036
v 0.13717544 0.04691697 -0.05463829
v 0.60008198 0.02939539 -0.15346259
v 0.19625919 0.04098249 -0.05523845
v 0.39081684 0.00147335 -0.03243078
v 0.57367247 0.08584646 -0.01203607
v 0.11857731 -0.07249445 0.15679178
v 0.65054452 -0.04213178 -0.28157043
v -0.40861881 -0.32550630 0.08366031
v -0.49471876 -0.00879522 0.27207008
v 0.23841695 0.18081543 -0.07831615
v -0.56635618 -0.07696244 0.14387152
v 0.06924491 0.34467483 0.14205413
v 0.22705497 -0.15475677 0.27064583
v 0.19418404 -0.01930773 -0.40242320
v -0.42125735 -0.28685325 0.21548541
v -0.40684471 -0.13531598 0.16944407
v 0.04566484 0.00000208 0.16202043
v -0.09653535 0.11213439 -0.15485892
v -0.72217709 -0.24903697 -0.20457374
v 0.10797676 0.21563980 0.18013218
v 0.59311432 0.07368064 -0.17395613
v -0.51491219 -0.12229789 0.18177320
v 0.30535382 -0.03341217 -0.06939615
v 0.42652315 0.18399911 -0.22031252
v -0.17271040 0.04516301 -0.18346222
v -0.48160130 -0.49880260 0.29676250
v -0.27376300 -0.00616052 -0.14480110
v 0.52403814 0.13343915 -0.10147224
v -0.30004486 -0.05031440 0.04262614
v 0.23584476 0.02242024 0.10436706
v 0.15241067 0.02440790 -0.03757763
v 0.17706811 0.25246072 0.00824082
v 0.59276205 0.02878134 -0.16005923
v 0.26912767 -0.03067063 -0.27827081
v 0.52158183 0.13816112 -0.19953290
v 0.31669623 0.08693477 -0.28440803
v -0.03633974 0.06680276 0.14801785
v -0.38303608 -0.16097566 0.17405529
v -0.62464243 -0.16343378 0.14120817
v 0.34120226 0.24153520 -0.32304063
v 0.59408069 0.00818521 -0.29129717
v -0.28820303 -0.07845826 0.07015506
v -0.51773494 -0.16971089 0.06442968
v 0.27535683 -0.01500215 -0.25486428
v 0.29067329 0.19468090 -0.27304679
v 0.01438015 -0.05457759 0.13889039
v -0.63561362 -0.20796423 0.16040426
v 0.63531178 0.11670050 -0.24380852
v 0.25445774 -0.11926942 0.22340022
v 0.41477793 0.42655519 0.26437694
v 0.69973099 0.03090085 -0.11913320
v 0.25989655 0.01481169 -0.14336970
v -0.28151774 0.10262520 0.27396116
v -0.31039506 -0.25077084 0.16990931
v -0.71553892 -0.19281909 -0.26532492
v 0.51486260 -0.01480388 -0.24665907
v 0.46997148 -0.00616247 -0.19946755
v -0.51401794 -0.45229986 0.17049532
v -0.73028928 -0.25198200 -0.21019000
v -0.46194604 0.07994165 0.23779429
v 0.32336444 0.17261434 -0.26948068
v -0.06406847 0.03957365 0.10568583
v 0.37390235 0.48642647 0.29102102
v 0.34134126 0.18758053 0.09069739
v -0.00697117 0.10260079 -0.11189335
v -0.19396992 -0.00400768 -0.20204447
v 0.21533732 0.28526759 0.13589853
v -0.41431051 -0.34803402 0.15311529
v 0.62228543 0.02858550 -0.09990653
v 0.54460818 0.01019154 -0.14968438
v 0.64944190 0.07081319 -0.23054703
v 0.30565956 0.09051237 0.11804357
v 0.32699215 0.46742004 0.28299707
v -0.74249166 -0.19094436 -0.27181041
v 0.28692791 0.26534888 -0.27742508
v 0.36238763 0.21609345 -0.15972647
v 0.24953498 0.00166482 0.04689427
v 0.43939424 -0.00517354 -0.22186014
v -0.70969379 -0.25940579 0.00028432
v -0.27104127 0.00982359 0.02009256
v -0.59400082 -0.00014101 0.15881939
v 0.57031196 0.13816927 -0.36393118
v -0.33051282 0.12385630 0.25083825
v 0.39107662 0.00013365 -0.03422649
v 0.46875086 0.02902018 -0.08106180
v -0.62230593 -0.13845180 0.06834657
v -0.76724207 -0.20473747 -0.12007716
v 0.59440053 0.12899537 -0.25161374
v 0.37890387 -0.03558151 0.26637799
v -0.37753826 -0.26474315 -0.03677135
v -0.54436731 -0.53041339 0.28713971
v -0.49038658 -0.19392484 0.04195611
v 0.27635249 -0.06987054 0.22519533
v 0.31550923 0.19827996 -0.16135496
v 0.10616276 0.41798812 0.25554821
v 0.39774290 0.14067167 -0.31101507
v -0.31993952 -0.08566157 -0.12559849
v -0.20714197 -0.47797972 0.29496300
v -0.79343408 -0.25114736 -0.20897435
v -0.41757467 0.11606820 0.26816970
v -0.76106191 -0.23299083 -0.31029293
v 0.70045269 0.03881566 -0.01664988
v 0.69286114 -0.01891495 -0.01737664
v 0.26082271 0.39096269 0.27297983
v -0.05155351 -0.00318051 -0.05658899
v -0.02760724 0.07765806 -0.10030468
v -0.83550972 -0.21991517 -0.33528915
v -0.45347306 -0.26058689 0.22744432
v -0.53201938 -0.25057742 0.21736354
v 0.15890896 0.17295688 -0.08245575
v -0.04593934 0.09860578 0.15883012
v 0.01175193 0.27590546 0.07901174
v -0.79927820 -0.19598141 -0.26707330
v -0.23367302 -0.52500421 0.26268107
v 0.12962212 0.05655174 0.17714114
v 0.69154489 0.00618974 -0.33915949
v 0.33255312 0.20267135 -0.21920872
v 0.11877583 -0.10058173 0.17230926
v 0.34534687 0.00280910 0.00983371
v 0.04262106 -0.13480036 0.20685454
v -0.46419930 -0.20971735 0.20918018
v -0.46181160 -0.20705085 0.20843142
v 0.26512331 -0.00983942 -0.07961736
v 0.19533075 -0.14356124 0.24734439
v -0.27875972 -0.51777238 0.29300866
v 0.47798634 0.09639175 -0.07091026
v -0.22106870 -0.24328630 -0.04464854
v -0.69306815 -0.23338512 -0.31329420
v -0.65551400 -0.27733737 0.03513599
v -0.58517361 -0.23221891 0.19071576
v -0.14969531 0.01931347 0.05825781
v 0.15296492 -0.09905098 0.21166940
v 0.43121561 0.07446576 -0.33578366
v -0.20262164 -0.23886529 0.02547642
v 0.33253857 0.18574621 -0.13870721
v -0.51719153 -0.15799041 0.19989821
v 0.50461406 0.14052509 -0.32083508
v 0.34824252 0.20062023 -0.30757657
v 0.18145724 0.17747891 -0.05593350
v 0.53873694 -0.02891815 -0.04285794
v 0.55094337 0.05267179 -0.18107714
v -0.45347169 -0.41499674 0.17522575
v 0.00341332 -0.13152495 0.26957619
v 0.05806065 -0.11518058 0.05329246
v 0.45549792 0.01000363 -0.35473928
v -0.52898991 0.03238364 0.17952752
v -0.15260747 0.19693391 -0.06538466
v 0.33399010 -0.19984080 0.29115975
v 0.33201081 0.00681232 -0.31974995
v -0.41419992 -0.17369640 0.20737733
v -0.27294952 -0.39964554 0.23503749
v -0.50018662 -0.01900476 0.12407149
v -0.40821409 -0.18847066 0.19690970
v 0.71133101 0.02596630 -0.33422026
v -0.19566686 -0.22366855 -0.06080381
v 0.24796870 0.27728859 -0.31379095
v -0.72967476 -0.23078991 -0.26555735
v 0.25620404 0.23703077 -0.27119508
v 0.31927145 0.18695407 -0.22824763
v 0.02452441 0.12879656 0.19466318
v 0.33532375 -0.09658934 0.25444981
v -0.52983624 -0.11110500 0.12361837
v -0.72081870 -0.19070034 0.03921199
v 0.56062466 0.09278685 -0.20753510
v -0.74953443 -0.25574827 -0.11353730
v 0.08650534 -0.07837439 0.25635403
v 0.50222236 0.09814218 -0.32772782
v -0.59221858 0.00130435 0.16778214
v 0.25398999 0.27121770 -0.41938129
v -0.27533442 0.07866252 -0.08701000
v 0.60557598 0.07463583 -0.08575101
v 0.09009505 0.45504233 0.17578089
v -0.33586773 -0.14901428 0.13699290
v 0.40258139 0.00704512 -0.42369473
v 0.13746905 0.45667046 0.20162779
v -0.16856618 -0.16857244 -0.11127286
v -0.41118494 0.11342057 0.24377905
v 0.25244394 0.25187933 -0.00088510
v -0.78640968 -0.20588195 -0.34787107
v 0.26345256 -0.03251076 -0.04635447
v 0.12252375 -0.01857657 0.15175357
v 0.11108566 0.14266559 0.19359694
v 0.31879777 -0.11923641 0.26062253
v -0.08144642 -0.02503709 -0.00028780
v 0.26982710 0.09687588 -0.18801309
v 0.16293122 0.17271829 -0.04561578
v 0.27131972 -0.12209776 0.22652729
v 0.00624034 0.12963800 0.18342529
v -0.00575297 0.04508303 -0.03366061
v 0.00480542 0.24943931 0.12427606
v -0.43339667 -0.29998189 0.21634696
v 0.67853993 0.05184570 -0.25120199
v -0.12331799 0.10174438 -0.15720095
v 0.68684453 0.08321808 -0.32992154
v -0.47715065 -0.05428140 0.11359423
v 0.38159201 0.22292057 -0.13096714
v 0.00104196 0.04824935 0.14270253
v -0.53875065 -0.25131565 0.01905665
v -0.64131308 -0.27923089 0.08840010
v -0.74102926 -0.19880286 -0.00938478
v 0.40573779 0.00574430 -0.42232543
v -0.30874851 -0.01354322 -0.01296698
v 0.67942083 0.07156841 -0.01976937
v -0.67337340 -0.26227626 0.01467816
v -0.19987048 -0.18400128 -0.11590592
v 0.54881239 -0.00358917 -0.06104489
v 0.24278939 0.17779221 -0.09419357
v -0.52406096 -0.44364369 0.16815940
v -0.54187524 -0.00735700 0.09219156
v 0.24247719 -0.17116651 0.27183554
v 0.19708692 -0.03083210 -0.38441634
v 0.28907317 -0.03941822 0.28520200
v 0.29193667 0.18947347 -0.10830086
v 0.18803027 0.31046432 0.05870474
v -0.31268424 -0.43340817 0.29212603
v -0.04054483 0.03079045 0.10742638
v 0.62997222 0.10624679 -0.29086578
v 0.27526870 -0.19212563 0.25767717
v 0.39563355 0.55121297 0.27459615
v -0.23283207 -0.17234102 -0.13873670
v 0.48485512 0.15057455 -0.10035576
v -0.22322702 -0.11869787 0.07459724
v 0.11025596 -0.11405913 0.15868507
v 0.28877816 0.00468726 -0.22850963
v 0.63774443 0.10807709 -0.36350265
v 0.18869160 -0.13834065 0.23708244
v -0.44319445 -0.10867538 0.08200926
v -0.91086507 -0.21147721 -0.26909664
v 0.21352968 0.23657560 -0.01922209
v 0.36433566 0.40210432 0.26425937
v -0.51666754 -0.42098653 0.26841408
v -0.01844046 0.00889997 0.01777165
v 0.15907606 0.16899894 0.18857349
v -0.33700982 -0.29408771 0.15413401
v -0.45279732 -0.35514349 0.12836385
v 0.21522622 -0.07129313 0.28357351
v 0.41100174 0.49790862 0.27514023
v 0.55523467 0.12629050 -0.25307527
v 0.30712000 -0.12208941 0.29578787
v 0.48378488 0.17318408 -0.35074371
v -0.32718757 -0.43688840 0.29471064
v 0.22153226 0.22305107 -0.03598853
v 0.07885867 0.08941568 -0.03162082
v 0.56227160 -0.00584554 -0.11581363

