# https://github.com/mikedh/trimesh
v -0.51174766 -0.32119149 -0.16351865
v -0.31769067 -0.36916247 0.02733796
v -0.47951472 0.16897681 -0.04018480
v 0.28880897 -0.29324815 -0.27460659
v 0.24650733 0.15114902 0.38645989
v 0.51404393 -0.04329429 -0.06076038
v 0.37932444 -0.23689999 -0.17500742
v -0.65946901 -0.18241811 -0.02253807
v 0.34665516 -0.08286351 -0.27695069
v 0.55568075 -0.03465742 -0.05724429
v 0.47105575 -0.14260121 0.01122512
v 0.27808636 -0.03535211 0.31977913
v -0.41104332 -0.36845893 0.02032670
v 0.41773778 -0.17999654 0.15161066
v -0.26394954 0.32248747 -0.12108000
v 0.38353133 0.11597577 0.21862569
v -0.67961276 0.10812850 0.02153828
v -0.37873918 0.30399060 -0.11604068
v -0.34211347 0.09729704 -0.36436704
v -0.19115630 0.36635652 0.08772983
v 0.34511074 -0.24857058 -0.24028757
v 0.16198078 0.20051560 -0.34204555
v 0.42495298 -0.20947966 -0.16373952
v 0.42537773 0.24124333 -0.12163353
v -0.43093008 -0.04341012 0.31523019
v 0.15664406 -0.36523283 -0.11550853
v -0.36331916 -0.02815676 -0.34643745
v 0.64343196 0.06162993 0.01208832
v 0.13199663 0.29476884 -0.22386658
v -0.35864139 0.10138202 0.38813895
v -0.66331673 -0.10862469 -0.06419358
v -0.69051981 -0.10060063 -0.00455080
v 0.48922002 0.17939246 0.08328670
v 0.28040624 -0.22701117 0.34208214
v -0.41995889 -0.29247934 0.27708808
v -0.74126685 -0.12417962 -0.02812938
v -0.56973153 0.13971379 0.06083247
v 0.50021493 -0.09521779 -0.04468170
v -0.36582285 0.18384622 0.12346631
v 0.34462366 -0.27002072 -0.09486741
v 0.59510899 -0.01342364 0.11039687
v 0.47154090 0.06721710 0.17613980
v 0.58146828 -0.12962991 -0.03030803
v 0.61994278 0.03130755 -0.01064684
v -0.38937643 -0.34700844 0.06107762
v -0.01488791 0.15593649 0.41171980
v -0.55778229 -0.22589949 0.12757137
v -0.43081564 -0.28600121 0.20770426
v -0.07183333 0.19864614 -0.25082484
v 0.51299024 -0.06857619 -0.05743963
v 0.32858825 -0.22225700 -0.35597095
v -0.45091471 -0.31548429 -0.36441076
v 0.22581516 0.02982050 0.46212614
v -0.37910914 -0.30793017 0.33526516
v 0.20598382 0.32270694 0.21426544
v 0.21500956 0.32499111 0.22103086
v -0.22938576 0.08181950 -0.03693438
v 0.59284121 0.16015737 -0.02826791
v -0.11496942 0.36377695 -0.08866148
v 0.61243874 0.08088883 -0.02494022
v 0.37111112 0.24077578 0.12648898
v -0.40370655 0.15843986 -0.21925151
v -0.52622318 -0.08717138 0.15571043
v -0.63991201 -0.01002182 -0.03267308
v -0.22505926 -0.19266044 0.53109497
v 0.11485296 -0.21996474 0.50808007
v -0.09556164 0.31226194 -0.10770233
v 0.29752499 0.13286656 -0.33595365
v 0.14573346 0.34921545 0.18132660
v 0.61674839 0.01293315 0.10433923
v -0.06653950 0.14308177 -0.48738372
v 0.26384437 0.30533588 0.09220722
v -0.62536699 -0.08086435 0.05231775
v -0.58307713 -0.15280855 -0.16319473
v -0.73114002 -0.13832435 -0.09983303
v 0.29983753 -0.27461243 0.14863376
v -0.90218723 0.09681728 0.04009128
v 0.57050937 0.01199767 0.01941454
v -0.44865122 -0.10201579 0.32419467
v 0.30740535 0.18460833 0.23504788
v 0.30574572 0.29930353 -0.08090989
v 0.39243555 -0.20966345 -0.18194640
v -0.69604456 -0.00836392 -0.05585193
v 0.23437440 -0.12508258 0.43130076
v -0.25547186 0.13342176 -0.32489306
v 0.52324355 -0.06418356 -0.13846129
v 0.52775544 -0.06588516 0.09358563
v -0.51948977 -0.17080043 0.20907240
v 0.38385662 0.19386855 -0.16618203
v 0.49172544 -0.12308571 0.02899142
v 0.34863329 0.14168656 -0.31347549
v 0.35190505 0.26028326 0.05697728
v -0.62600791 -0.07881460 0.04002044
v 0.65750533 0.01058248 -0.00288357
v 0.38855240 -0.21460955 0.20234725
v -0.27240458 0.16516870 0.34020799
v 0.54646176 -0.05082626 0.13773619
v -0.32863101 -0.20709023 0.50158572
v -0.42322633 -0.22265051 -0.13746545
v -0.74987203 -0.12851734 0.00612254
v -0.32825166 -0.27469167 -0.44738644
v 0.00789892 0.28679931 0.34332269
v 0.28482166 0.23261389 0.24754193
v 0.32388023 -0.15811177 -0.35733446
v 0.45005694 0.22470604 0.03023440
v 0.44656235 -0.01491700 -0.13720672
v -0.26081926 0.12052512 0.25667128
v -0.43833482 0.11924208 0.22164525
v -0.47515541 -0.10893047 0.33395511
v -0.53253436 -0.24809638 -0.00790648
v -0.66719300 -0.15575573 -0.01105393
v 0.64848936 0.13485895 -0.00524885
v 0.61293912 0.07159184 0.11045624
v -0.26780111 0.30283386 -0.26959857
v -0.65847158 -0.10187508 -0.04348144
v -0.52975720 0.14520800 -0.08878361
v -0.68506509 -0.10950394 -0.02408613
v -0.25606111 0.08344758 -0.35557079
v -0.69143605 -0.01446904 -0.04104008
v -0.69450772 -0.08521427 -0.01149909
v -0.67067063 0.16057566 0.04639502
v -0.32385659 0.16409351 -0.36919546
v -0.62864947 -0.19317006 0.05848727
v 0.70876467 0.13372216 0.03483403
v 0.56334853 -0.14579487 -0.09708837
v 0.36651993 0.25905025 0.10563345
v -0.13442577 0.19307442 -0.38535014
v -0.49632281 -0.33590862 -0.04803522
v -0.84254420 -0.09099564 0.02861199
v 0.23374872 0.15477103 -0.37373146
v -0.63113999 -0.10736620 0.08768490
v -0.64680833 0.09226988 -0.07333054
v 0.11887894 -0.04174971 0.51027524
v -0.55655682 0.08196659 -0.08305947
v -0.62510294 -0.07940297 0.00646008
v 0.48988107 0.09006662 -0.17265399
v 0.64695412 0.08290620 0.03306222
v -0.65991610 -0.18078616 -0.00272573
v -0.37541473 -0.21904603 0.44919506
v -0.11968303 0.29607370 -0.30407929
v 0.62573957 0.04162727 0.14404158
v 0.30985960 0.19471462 -0.28455517
v 0.43025774 -0.01433933 -0.16376145
v -0.36732978 -0.22728197 0.32365951
v -0.40481937 -0.16501334 -0.28507406
v 0.11877167 0.36707771 0.12299750
v 0.26489618 0.19750944 -0.34660807
v -0.55206829 -0.14753872 0.22214839
v 0.52040172 -0.06082796 -0.08493164
v -0.38734204 -0.30073169 0.24180773
v -0.28833002 -0.08299123 0.36824146
v -0.37334114 0.05654752 -0.35468382
v 0.51414752 -0.14774249 0.10345419
v -0.76632977 -0.00722854 0.00833926
v -0.62799972 -0.06122553 0.07841951
v -0.47164363 0.10026421 0.23365101
v 0.32730541 -0.18608651 -0.35482711
v 0.25145262 0.30882186 0.15673876
v -0.60601598 0.03253844 0.07316728
v -0.42142838 0.15984696 -0.22121650
v -0.33394200 0.12449265 -0.34239593
v 0.18478929 -0.35754445 -0.11503243
v 0.21447934 0.25547335 -0.25924766
v -0.71950960 -0.08272140 -0.00467214
v 0.59540218 0.00282725 0.00201759
v 0.27963299 0.24180716 -0.27834255
v 0.21727237 0.08992319 -0.41812235
v 0.13081767 0.33536437 0.09409076
v 0.27992725 -0.28477463 -0.12965961
v 0.40408066 0.07606219 -0.26305899
v 0.11127041 0.29989284 0.34891316
v 0.36603901 0.27173159 0.04520027
v -0.55498910 0.07789487 0.16148177
v -0.71662438 -0.09610365 -0.00082624
v 0.35649276 0.17432839 -0.24316768
v 0.34570485 0.26126891 -0.14316916
v 0.44537893 0.00410955 -0.15523615
v -0.73398423 -0.09830961 -0.01346323
v 0.54951429 0.03776943 -0.16542289
v 0.50694972 -0.13301073 -0.17327119
v -0.49619681 -0.20320243 0.25182593
v 0.54053688 -0.02732015 0.00908679
v -0.03499300 -0.37137982 0.34730718
v 0.34201175 0.32398254 0.02855551
v 0.51476425 0.15518670 -0.06380282
v 0.47452867 -0.14160627 -0.02826498
v -0.68043518 0.00542602 0.05110122
v 0.42964992 -0.01571533 -0.25434464
v 0.08939915 -0.33500057 0.41897458
v 0.17313136 0.34849450 0.03915686
v -0.17621109 0.28286880 -0.32611385
v 0.49006242 0.22026382 0.01732010
v 0.33245146 0.07442808 0.36896557
v -0.66453212 -0.07570028 0.01598784
v 0.57477057 0.11080643 0.14567253
v 0.31027877 -0.26103416 -0.27916968
v 0.29072395 0.28772432 0.05740607
v 0.61281204 0.08236470 0.00933158
v -0.44388390 0.03758641 0.17786267
v -0.85473311 -0.07562437 -0.00951155
v -0.50379211 -0.01910862 0.22126517
v -0.71562529 -0.08863728 -0.02073571
v 0.25205064 0.27475831 -0.07962653
v -0.77348745 -0.13340765 -0.00228302
v -0.59394264 -0.11619654 -0.23800883
v -0.61896145 -0.17891258 -0.10022053
v 0.74609387 0.20357092 0.04465698
v 0.56260198 -0.00572217 -0.04868557
v -0.73534983 -0.12503357 0.00368601
v 0.69087732 0.17143007 -0.00454861
v 0.07051286 0.19716302 -0.41917592
v 0.28326187 -0.24469039 -0.30077243
v 0.56546402 -0.02018033 -0.03004080
v 0.25559837 0.29438257 0.07109551
v -0.59842503 -0.18839362 -0.00526244
v -0.57459277 -0.13121426 0.15114120
v 0.34750777 -0.17543238 0.34346357
v 0.20003352 0.15601918 0.41203183
v -0.44324815 0.20125613 0.10641438
v 0.49305040 -0.04106500 -0.14290629
v -0.55692005 -0.19859189 0.15304869
v 0.51258260 -0.05991412 -0.05058882
v 0.37168068 -0.16842309 -0.25985461
v -0.59051245 0.06493601 -0.04826324
v 0.15475532 -0.37884504 0.34707287
v -0.79788625 0.04258139 0.04282771
v -0.49181509 -0.20142534 0.21546556
v -0.66598147 0.02063575 0.04793546
v -0.57727647 0.15744387 -0.15394230
v 0.50326973 -0.08946525 0.02019638
v 0.01034927 0.36842418 0.02383580
v -0.71000427 -0.06889341 0.03269362
v 0.42845547 -0.03184244 -0.13162178
v -0.78680098 -0.04914410 0.04669938
v 0.40514898 0.11420360 -0.28081346
v 0.19927210 0.06731638 -0.45939252
v -0.60258704 0.07012384 0.09946591
v -0.67539489 -0.10422541 0.00254517
v 0.58255643 0.03231125 -0.02330354
v 0.47042620 0.18950634 -0.10595245
v -0.28976494 -0.30214572 0.39390165
v -0.08623645 0.22812653 -0.25046372
v -0.59341764 0.12739341 -0.13978013
v -0.38950086 -0.15894288 0.37195903
v 0.04238175 0.29736948 -0.25414127
v -0.13167088 0.21060592 -0.33385420
v 0.21410775 0.29491639 0.23518109
v 0.36186606 -0.24359976 -0.02060360
v 0.47740448 -0.00104728 -0.15989351
v -0.31974918 0.08741891 -0.38973087
v 0.63218522 0.12099321 0.01268511
v -0.00422946 0.28413785 0.35131797
v -0.40399930 -0.42315543 -0.03926376
v 0.10999428 0.36661491 0.11914655
v -0.51400775 -0.27479255 -0.26990867
v -0.43650812 -0.03037515 -0.34464270
v 0.41289520 0.14467475 0.11090679
v -0.63760358 -0.17394407 -0.03750955
v -0.61992580 -0.18852703 -0.00035445
v 0.65346366 0.11603266 0.04523328
v 0.54941255 0.07805990 -0.05222050
v 0.34818986 -0.05778420 0.30820459
v 0.47354972 0.09314395 -0.15424888
v 0.03088357 -0.19171551 -0.55067050
v 0.51539677 -0.03030367 0.09601407
v -0.21314624 -0.35109183 0.23629060
v -0.68817818 -0.13106050 -0.03316444
v 0.13808732 0.33322579 0.12376083
v 0.08362044 0.26378313 -0.29014882
v 0.68964428 0.13792352 0.04466231
v -0.59337211 0.18094304 -0.13306013
v -0.61328441 0.14203341 0.06856378
v 0.40565741 -0.11362192 -0.23715493
v 0.48377442 -0.01678722 -0.10568479
v -0.71243608 -0.02719940 0.02219008
v 0.53562373 -0.01074355 0.01913904
v -0.59486359 -0.12819175 0.10057175
v -0.73167062 0.11417105 0.03597755
v 0.32203919 0.23601434 -0.19465941
v 0.54991597 0.02056074 -0.06408677
v -0.77821785 -0.07090357 0.02285509
v 0.03772284 0.08132273 0.45639691
v -0.11764896 0.11927986 0.48538697
v 0.55543238 -0.03263561 -0.01078073
v -0.07246083 0.26152515 -0.12538747
v 0.06455792 0.36961854 -0.05895822
v 0.54564452 -0.04106699 0.05361999
v -0.30864951 0.17413729 0.33995500
v -0.66716409 -0.04002555 0.01728381
v 0.36362094 -0.19950128 -0.21423793
v -0.67387551 -0.03289853 -0.01522653
v 0.43042797 0.03686917 -0.21150146
v -0.75102121 -0.02502061 0.02237951
v 0.39093527 -0.15393567 -0.24550673
v 0.33295369 -0.20688704 -0.26787794
v -0.72128022 -0.00650565 -0.00145519
v 0.60704374 -0.05344544 0.10565716
v -0.53782141 -0.08046152 0.12570086
v -0.71103317 -0.09980051 0.00859637
v -0.81483638 -0.05427727 0.03740026
v 0.06835056 0.01069637 0.53038377
v -0.69451171 -0.20602265 -0.06036182
v -0.65847015 -0.19609109 -0.06844591
v 0.58501959 0.18858512 -0.02072108
v 0.00080198 -0.35412818 -0.29553044
v 0.61984152 0.14765094 0.01370417
v -0.66243190 -0.12112496 -0.02644118
v 0.65695620 0.08945061 0.10412163
v -0.39190754 0.12930238 0.31166297
v -0.03745126 0.33673552 0.30378276
v -0.45591015 -0.34794444 0.07620649
v -0.17700043 0.10102557 -0.34632590
v 0.47936577 -0.10658608 -0.00947601
v 0.52675116 0.04750540 -0.10358488
v -0.30120420 0.20968154 0.32170603
v -0.75602078 -0.07049077 0.00545785
v -0.58906865 -0.23506010 0.00987291
v -0.18622419 -0.36512375 -0.02173048
v 0.28790662 0.25455162 -0.27376246
v -0.77612603 0.00143945 0.03447094
v 0.67015147 0.17621374 0.00994746
v 0.34978682 0.11561358 -0.27595645
v -0.65038389 -0.12461469 -0.05159034
v 0.10331325 -0.35511935 0.05769092
v 0.27654746 -0.25787646 -0.31695095
v -0.41854423 -0.37999564 0.02137998
v 0.38977763 -0.11005770 0.12627414
v 0.69841635 0.13192742 0.00035740
v 0.55281049 0.09475080 0.04241951
v -0.47243169 -0.28540391 0.18416399
v -0.62073815 -0.03886301 -0.21076302
v 0.66191399 0.08210507 0.00271199
v -0.15703043 0.32062966 0.10389845
v 0.10608575 0.39033276 0.02956095
v -0.10402840 0.35964465 0.12493610
v -0.53562760 -0.28031138 0.04538958
v 0.52253115 0.07888784 0.21409437
v 0.32156467 0.25011966 -0.16845602
v 0.57014531 0.11776744 -0.06598001
v 0.48691964 0.16725126 -0.09147862
v 0.52003378 -0.06971966 -0.03880864
v -0.53394639 -0.35231298 0.01326749
v 0.63921028 0.10136239 -0.01245496
v -0.43796504 -0.05548104 0.33926019
v 0.32614413 0.25843206 -0.11331160
v 0.39523357 0.09055540 0.18562645
v 0.11335759 0.36054567 -0.01067623
v -0.24564019 -0.39596805 0.24283928
v 0.23779491 0.04279660 0.35749555
v -0.77031326 0.11043940 0.04415222
v 0.44337040 -0.12899545 -0.12413496
v -0.73863870 -0.12499861 -0.01794659
v -0.56109309 -0.00615767 0.10175453
v -0.10677245 -0.37005585 0.22844788
v -0.70146400 -0.21339507 -0.01699868
v 0.49755669 0.06589863 -0.06648792
v 0.55926186 0.26702043 -0.03918566
v 0.37470430 -0.12172031 -0.24389212
v -0.37004754 0.21889770 0.28716969
v 0.03273125 0.36779642 0.05009477
v 0.57808238 0.00430390 -0.04884083
v -0.08853281 0.21262577 -0.42693442
v -0.02891371 0.37031034 0.08004823
v 0.60876614 0.07430959 0.00994632
v -0.66305017 -0.07402155 -0.02768031
v -0.74056917 -0.03328839 -0.01461121
v -0.56893456 -0.29875106 -0.03375055
v -0.66595978 -0.07644463 -0.00492449
v 0.42946559 0.22664849 0.17208984
v 0.58912557 0.00671754 -0.02483902
v 0.37783420 -0.22196385 0.09283431
v 0.35741615 0.21035002 -0.24521020
v 0.09374772 -0.02492119 0.52583778
v 0.31332386 -0.20427382 0.26732484
v 0.25941378 0.27862519 0.15506703
v -0.73811078 -0.19148135 -0.03557566
v -0.69688976 -0.20142308 -0.04234758
v 0.54435986 -0.00754530 -0.02581230
v 0.63981599 0.17808135 -0.08376217
v 0.72690457 0.10244847 0.01024052
v -0.07668371 0.16451167 -0.47131169
v -0.75206810 -0.02584548 -0.00628915
v 0.69800532 0.02795522 0.04184669
v 0.42740479 0.21293697 -0.14946072
v -0.21478069 -0.02736264 0.45351261
v 0.51940346 -0.00374810 0.19553047
v -0.45159411 0.18848896 0.08904858
v 0.23666842 0.29880285 0.06467386
v -0.71621168 -0.07789655 0.00746213
v -0.61084938 -0.18712246 0.04586945
v 0.46537030 -0.04723037 -0.08327615
v -0.67566735 -0.24061862 -0.02538860
v 0.20371023 0.28345296 -0.31146321
v 0.22414693 -0.19918358 0.41474763
v -0.71954519 -0.05709262 0.01613550
v 0.75958472 0.15153505 0.04377095
v -0.74751782 -0.13081264 -0.00781702
v 0.55450660 0.15372401 0.05772892
v 0.48356754 0.00650123 -0.10522796
v -0.55955815 0.06272760 -0.17967826
v -0.64860976 0.02677652 -0.01436079
v -0.47883561 -0.13252230 0.21189432
v 0.19965704 -0.32187670 -0.18215638
v 0.49099165 -0.02753028 -0.17189324
v -0.39899021 0.16930699 0.27217910
v -0.54299128 -0.23652954 0.09040514
v -0.55162799 -0.19895574 0.11148175
v -0.36209664 -0.14468795 0.36128503
v 0.62176394 0.25453097 0.04187685
v -0.69176280 -0.22189063 -0.05814038
v -0.08086681 -0.35664266 0.31116709
v 0.52559870 0.04936185 -0.06895587
v -0.51531035 0.06349325 0.19986832
v -0.69378132 -0.03848339 0.01649821
v -0.58252394 -0.12378353 0.16251057
v 0.42938337 -0.02091500 0.23473886
v 0.36305055 0.28369859 0.14837217
v 0.00930021 0.39135319 0.05748620
v -0.78101897 -0.07049207 -0.04825804
v -0.31472802 -0.32604456 0.31174487
v -0.38764542 -0.16064751 -0.38887283
v 0.15987849 0.30472836 0.23861760
v 0.07735164 0.38011804 0.02615286
v -0.75011677 0.02085523 0.02415277
v 0.62966037 -0.02428860 0.09626138
v 0.31026059 0.28272471 -0.11741257
v -0.59654069 -0.21804494 -0.04647824
v -0.22268632 0.33585250 -0.18034139
v 0.69454503 0.19536619 0.00733382
v -0.56847346 -0.26638171 -0.19278049
v -0.25691953 0.17033173 0.36060473
v 0.49739367 -0.06443768 0.18087122
v -0.21555620 0.38297096 0.14387423
v -0.66518432 0.05467743 0.02247163
v 0.34915859 0.23893535 -0.15990791
v 0.36661452 -0.06064371 0.18935417
v 0.48827565 -0.09635839 -0.04791355
v 0.53847307 -0.03626055 0.02385005
v 0.19417852 0.32599312 0.20668119
v -0.07792346 -0.03525737 0.40255481
v 0.28958744 0.29491538 -0.14700995
v -0.22561862 -0.21946453 0.57102925
v 0.54906899 0.01430085 -0.05601209
v -0.74095511 -0.10681110 0.01385680
v -0.66596669 0.09645359 -0.11233962
v -0.58620632 -0.09778222 0.12522449
v -0.44727591 -0.28345203 0.25502229
v 0.60865659 0.09404635 0.04004251
v 0.33811462 -0.24493712 0.23302823
v 0.29763797 0.17722352 -0.28926846
v 0.39149624 0.18971758 -0.22199255
v 0.63271219 -0.05094191 0.02884960
v 0.58925450 0.09107983 0.14404516
v -0.59987104 0.13290516 -0.07144709
v -0.60422754 0.06021307 0.12339339
v 0.34091526 -0.17671071 -0.33948115
v -0.54815298 0.21325389 -0.07231110
v -0.39128852 -0.29577523 0.33047026
v 0.38936830 0.07202783 -0.31389034
v -0.28906748 0.30311781 0.15913418
v 0.26132941 -0.32336563 0.15689963
v -0.60719138 -0.27580696 -0.13776818
v 0.04864774 0.37720636 0.02415980
v -0.34542006 -0.34526235 0.14407608
v -0.56489527 -0.27450228 -0.00505306
v 0.04016136 0.38113236 -0.07856824
v 0.52533066 -0.04368225 0.12514412
v 0.58534378 -0.02045212 0.03468335
v -0.74966967 0.01208377 0.02136978
v -0.55652732 -0.15392831 0.16091135
v -0.53755128 0.03923458 0.23304087
v -0.45907286 0.13774055 0.11166243
v 0.08567265 0.36957124 0.03818318
v -0.59384286 -0.22823575 0.04671792
v -0.35177886 0.19601303 0.19204199
v -0.83614480 -0.00684567 0.07717435
v 0.45424038 -0.01041918 -0.19131073
v 0.20272058 -0.00240083 -0.51246637
v 0.33530384 0.02656759 -0.30985862
v 0.32332379 0.14021739 -0.29743773
v -0.09079903 -0.29346278 0.44634122
v -0.46855724 0.06582887 0.23109563
v -0.16119403 0.24112594 -0.14549661
v -0.56443858 -0.26403373 -0.05681050
v -0.36047107 0.15820497 0.30715433
v 0.51071429 -0.05639417 0.08529177
v 0.01248708 -0.25559264 0.53791130
v 0.49051481 -0.00372484 -0.18801731
v 0.06464341 0.33662504 0.20737860
v 0.59246176 -0.00103840 -0.03030918
v 0.39142334 -0.20750573 -0.08527544
v -0.07329858 -0.22265539 0.51684326
v 0.54429418 -0.07798836 0.07790323
v 0.33459494 0.00490366 -0.24284181
v 0.38921469 -0.23976693 0.00663844
v -0.77915841 0.02074493 0.02293238
v -0.50646055 -0.16944648 0.23735510
v 0.27248001 0.12846334 -0.34067953
v 0.10751615 0.27051395 -0.32973114
v 0.30682957 -0.26393589 -0.26242056
v -0.21650891 -0.22699074 0.49044523
v 0.26954415 0.09449328 0.39457443
v -0.37144738 0.26368544 0.06807048
v -0.58638734 -0.08624616 0.11651458
v -0.25738844 -0.29291204 -0.16613698
v 0.63661689 0.08058415 0.03519797
v 0.52443039 -0.05379464 -0.05482236
v -0.43141901 0.30254355 -0.09781366
v -0.75229460 -0.02217828 -0.00648977
v 0.25928110 0.21167696 -0.25919586
v -0.67973465 -0.20756407 -0.05134175
v 0.52476847 0.06672173 -0.09910578
v 0.60341108 0.20054020 -0.01677972
v 0.06461673 0.34184730 -0.08181840
v 0.57688785 -0.06025319 0.13080603
v -0.03262083 -0.24659026 -0.47941923
v 0.53430784 -0.04061356 -0.06295469
v -0.42866772 -0.11668650 -0.36266994
v -0.49288410 0.11985804 -0.19895414
v -0.77037871 0.03513040 -0.03957233
v -0.14063498 -0.36572686 -0.00600526
v 0.36485782 0.26750082 0.01294221
v -0.72434014 -0.14435890 -0.01393543
v 0.23971304 0.31080496 0.26106432
v -0.43122551 -0.23779480 0.27387649
v 0.67891324 0.05228835 0.04666184
v 0.28082052 0.26788887 -0.15713027
v -0.67847818 -0.18808237 -0.02450275
v 0.55395341 0.15531389 0.11824773
v 0.54768729 -0.02312914 -0.03960431
v -0.82587093 -0.05882299 0.05212367
v -0.54990184 -0.21823445 -0.00691533
v 0.33622897 -0.08287844 -0.28377399
v 0.48095647 -0.11063129 0.17104653
v 0.06708238 -0.05452772 0.53250754
v -0.54269058 -0.17273700 0.15987860
v 0.48613113 -0.14325023 -0.08187413
v -0.37609500 0.06384887 -0.22741652
v 0.21372917 0.26721936 -0.31497636
v -0.31335837 0.18641011 0.25967801
v -0.77088326 -0.09223859 0.00756786
v 0.42142665 0.03936514 -0.11012724
v 0.41954634 0.24974942 -0.08167847
v 0.28421378 0.13832852 -0.28822038
v 0.64510977 0.17657399 0.12801471
v 0.51260644 -0.09836596 -0.07385104
v -0.39039278 0.10895637 0.30396286
v -0.27500916 0.30838656 0.19054641
v 0.30558723 0.30025536 0.11929756
v 0.36234838 -0.17992786 -0.23301098
v 0.40876794 0.17260979 0.19099696
v 0.35508862 -0.14342211 -0.34717715
v 0.24351552 0.15015358 -0.36580697
v 0.56982630 0.20209089 -0.03975216
v 0.53595078 0.00954715 -0.07182983
v -0.64317763 0.13393953 0.05117899
v 0.13542116 0.29144365 0.13481079
v 0.47771305 -0.13981202 -0.02942887
v 0.37571597 0.13718714 -0.24515560
v -0.40876395 0.21243808 0.02840798
v 0.65445042 0.14602616 -0.01580873
v -0.65411639 -0.16596739 0.01137676
v -0.09053333 -0.06540832 0.57299232
v -0.68278170 -0.15348375 0.04173830
v -0.16190127 0.28591549 -0.32419634
v 0.39191395 0.22021072 -0.16312245
v -0.28834492 0.05327287 0.49198622
v 0.51947904 -0.05593824 -0.10857028
v 0.23136355 0.29627526 -0.08890247
v -0.53782552 -0.05549490 0.27656609
v -0.23965172 0.07037953 0.46077573
v 0.40625092 -0.20037964 0.04667453
v 0.18264315 -0.28609934 -0.39935434
v 0.52667058 -0.07310759 -0.06681466
v -0.01690925 0.37872088 0.04077520
v 0.36963373 0.13743138 -0.25530142
v 0.47623742 -0.15471739 -0.05591416
v 0.30596521 -0.26258683 -0.21013302
v 0.35306838 0.26035285 0.16795257
v -0.46817490 -0.24518424 0.19915628
v 0.28741133 0.00144593 -0.38602352
v 0.39795452 -0.13299476 -0.24383453
v 0.50017893 -0.08898097 0.05683553
v -0.20638327 0.03334506 0.42940402
v 0.52377343 0.15136717 0.12964410
v 0.32842892 0.17875440 0.23806027
v -0.64657450 0.00942305 0.09346375
v 0.36145958 0.00043681 -0.30377838
v 0.49948254 -0.10991654 -0.03546807
v 0.58230662 -0.02857906 0.06952971
v -0.64803755 0.00632805 -0.16461766
v -0.51683623 -0.26642203 0.13847721
v -0.71509248 -0.10826902 -0.02561148
v -0.69950324 -0.16409984 -0.02531969
v -0.47336078 0.03549549 0.29841790
v 0.09778906 -0.40029502 0.06930379
v 0.28105643 -0.23927499 -0.29483232
v -0.76642460 -0.09674946 0.02144569
v -0.81840456 -0.11499640 0.02555126
v 0.61864817 0.06757926 -0.07256790
v 0.06182956 0.36436048 0.13274738
v 0.07890943 0.28483897 0.11374340
v 0.25056809 0.27388063 0.03873122
v 0.38057646 0.38119671 0.06604746
v 0.37131459 -0.06185168 -0.24587512
v 0.57466948 -0.04637010 0.01105093
v 0.52700841 0.01635325 0.21958366
v 0.29087552 -0.29869691 -0.12441361
v -0.29225150 0.22266501 -0.29272640
v 0.32538354 0.21920052 -0.20696536
v -0.71315366 -0.12450904 -0.02024028
v 0.22880462 0.30215514 -0.13941219
v -0.63749659 -0.13640045 0.06151858
v -0.71778053 -0.02692310 -0.02831125
v 0.34448671 0.14666359 0.29929581
v 0.28544191 0.22405489 0.24601936
v -0.38620245 -0.10887271 -0.43082219
v 0.35013700 0.09536348 -0.33497137
v -0.58998024 -0.12588495 0.11523522
v 0.48094088 -0.10313492 -0.07362553
v -0.25028500 -0.00566406 0.48287645
v -0.50356096 -0.15317434 0.22064494
v 0.68341768 0.14721906 0.04131708
v -0.50138849 -0.12112238 0.22689772
v 0.67826688 0.09712790 -0.00001210
v -0.53602076 0.03419267 0.17925608
v -0.47533756 0.07459977 0.22501519
v 0.55359578 0.13870598 0.13993964
v -0.53441602 -0.17079629 0.19215952
v 0.20477213 0.33079755 -0.02221229
v 0.54613924 0.00042675 -0.04409048
v -0.63946879 -0.14854383 0.03884010
v -0.34426588 0.00135896 0.37477443
v 0.56797379 -0.01482087 -0.01655571
v 0.16850275 0.22923225 -0.21918619
v 0.42894170 0.25658736 -0.16018544
v 0.30215061 -0.04400317 0.37991211
v 0.49133858 0.01614073 -0.11591318
v -0.48948097 -0.33593529 -0.23902795
v -0.68624580 -0.20712689 -0.03690662
v -0.59494948 -0.19115621 0.06776422
v 0.32951298 0.25811622 0.19754916
v 0.34634715 0.16129918 -0.30904305
v -0.69990242 -0.12423343 -0.02608117
v 0.33236724 -0.26308125 0.30859911
v -0.63753414 -0.15768500 -0.03336690
v 0.37256843 -0.14437428 -0.20349225
v -0.44001827 0.04791695 0.29926178
v 0.53804535 -0.01445663 -0.06226902
v 0.38905874 -0.04534793 -0.26337647
v 0.11767428 -0.15190838 0.40132391
v -0.54040986 -0.20418805 0.10788436
v -0.26113167 0.21360631 0.41525942
v 0.46536827 -0.20762962 0.14047809
v -0.57622832 -0.06900148 0.13841516
v -0.46895480 -0.32927841 -0.00106755
v 0.07870064 0.35506541 0.19173869
v -0.75093907 -0.08395265 -0.02495974
v -0.26913956 -0.23524007 0.37280566
v 0.39457357 0.12899107 -0.25886387
v 0.11526333 0.23974890 -0.32644355
v 0.28559893 0.17791213 0.28742346
v 0.27168688 -0.23385185 -0.35968632
v -0.42128843 -0.04355404 0.30054963
v 0.40167776 -0.18257317 -0.20862874
v -0.76518935 -0.05907826 0.00180849
v -0.46223414 -0.29932317 -0.03230950
v -0.35416943 0.20628341 0.28606507
v -0.43259206 0.23254088 0.16587201
v -0.78096890 -0.11763627 -0.00195771
v -0.39245832 0.16915932 0.28936362
v 0.69562787 0.26170754 0.07996438
v -0.77803075 -0.08031181 0.01691481
v -0.50946718 -0.29865664 -0.05325422
v -0.78165096 -0.12273462 0.00100230
v 0.27488321 0.17019752 0.35092789
v -0.38667876 0.13935915 0.06767290
v -0.60527635 0.09480546 -0.09860199
v -0.45545685 -0.17469484 0.33889252
v -0.60585088 -0.12320071 0.12044787
v 0.39247721 0.16524096 -0.22786650
v -0.45866311 -0.32345951 0.11287717
v 0.05425235 0.07805289 0.36542857
v -0.69322169 0.04209524 0.01290217
v 0.66125214 -0.02029338 0.07354756
v -0.58924294 -0.09483339 0.09245389
v -0.59550720 -0.22012477 -0.01464780
v -0.50969070 -0.24977373 0.19697016
v -0.52696717 -0.20989156 0.18738164
v 0.39879280 0.17288034 -0.19869480
v 0.60704225 0.02100539 0.00959701
v -0.41768259 -0.22750287 0.30727300
v -0.75841737 -0.10649363 0.01731828
v 0.11101742 0.29819852 0.27234834
v 0.34531832 0.24316807 -0.14550085
v -0.64866936 -0.12200569 0.01259883
v -0.40258133 -0.39008793 -0.04440385
v -0.62365490 0.01415507 0.01979379
v -0.52409410 -0.23967946 0.15484722
v 0.13931653 0.11553411 -0.44690776
v 0.38996816 0.21077420 -0.22220376
v 0.69873536 0.17255810 0.04524507
v -0.50289029 -0.11031222 0.25096607
v -0.67141056 -0.06701158 -0.02018367
v -0.60930896 -0.16670145 0.08965532
v -0.04236661 0.27354172 -0.34371454
v -0.25260723 0.14870276 0.29587951
v 0.40455544 -0.19090614 -0.18550341
v 0.35514355 0.15365531 0.29938135
v 0.13955270 0.13384184 -0.42487189
v -0.51105297 -0.17318913 0.20346098
v -0.03122623 0.35725015 -0.01861367
v -0.76795155 -0.05074288 -0.02219628
v 0.25773293 0.02583508 -0.32338068
v -0.33331269 -0.21366549 0.43118486
v -0.74489349 0.06348579 -0.06165590
v 0.30020818 -0.16649753 -0.33922040
v 0.39777043 -0.00811124 0.18897322
v -0.42416304 0.12732022 -0.23146829
v -0.60260284 0.20129761 0.04728306
v -0.74754786 -0.14038537 -0.01610816
v -0.76016706 -0.04937021 -0.01064984
v 0.51246214 0.11135207 -0.09809572
v 0.56165594 0.04127407 -0.03174682
v 0.09531550 0.36537632 0.06433827
v 0.44129634 -0.19050819 -0.02824748
v 0.65836370 0.09131768 0.05950046
v 0.20273988 0.33927539 0.03480863
v -0.35028821 0.00049274 0.20243248
v 0.52564967 -0.02757055 0.01691006
v 0.07569531 0.37622297 0.02367403
v 0.62919122 0.07306334 0.02696460
v 0.15082788 0.37821674 0.09203856
v 0.43560246 -0.00151805 0.29295149
v 0.23978491 0.16543633 -0.38209200
v 0.35204959 0.00368997 -0.30196851
v -0.05609111 0.15955609 0.43164763
v 0.09595579 0.19322988 -0.41079390
v 0.62257642 -0.09287551 0.03896925
v 0.32132515 0.19868778 -0.26475129
v 0.42681897 0.22821808 -0.14374885
v -0.09081908 -0.12463526 -0.49730450
v -0.36843169 0.00422539 0.34772721
v 0.03142885 0.27774629 -0.28994370
v 0.38335770 -0.10029113 -0.31590396
v -0.65555239 0.16179875 0.07571825
v 0.33226109 0.29879913 -0.14723268
v 0.35953611 0.26641685 -0.07340860
v 0.41901550 -0.16797151 -0.19234072
v -0.70065236 -0.00220101 0.01224925
v -0.29349834 0.04891005 0.42034149
v 0.60716003 -0.00867515 0.03785547
v -0.56211442 0.11832622 0.09485314
v 0.50726652 -0.13455403 -0.03294778
v -0.69635165 -0.06140950 -0.00561148
v -0.17590912 0.09592918 -0.48639408
v -0.20660615 0.31102586 0.20024568
v 0.59622765 -0.01324088 -0.00517400
v 0.38634217 -0.25239027 -0.01979312
v 0.62189454 0.08240239 0.02224019
v 0.45798728 0.10872404 0.15113038
v -0.00645336 -0.17587303 0.51372480
v 0.69654548 0.07332990 0.00594817
v -0.55672956 -0.01522651 0.13287362
v -0.68709725 0.07529086 0.00956691
v -0.83607996 -0.05056618 0.04006803
v 0.47831193 0.14747056 -0.08590639
v -0.08266564 0.34617478 0.16972551
v 0.47954839 0.00203572 -0.10374931
v -0.65328419 -0.11541281 -0.07004467
v -0.45823038 -0.23757496 0.19434394
v -0.78619468 -0.11235180 0.01004617
v 0.46646863 0.26831377 -0.03370132
v 0.40512010 0.24520232 0.17915359
v -0.22943768 0.08047467 -0.42104352
v -0.62388414 -0.17606671 0.03444375
v -0.77006090 -0.03741599 -0.01701697
v 0.69059670 0.07314147 -0.03592709
v 0.70843583 0.14373274 -0.01828324
v -0.15028948 -0.40338331 0.03811528
v 0.42047000 0.01678101 0.27685711
v -0.16887407 0.18443076 -0.43579295
v -0.04308812 0.37748122 0.10491442
v 0.38048485 -0.11693431 -0.25773793
v 0.52586210 -0.03644793 0.07946080
v 0.58137113 0.01439346 -0.07923919
v 0.47116715 -0.04695894 0.23492691
v 0.36057577 -0.21622324 0.26213047
v -0.35107246 0.24911398 -0.10542954
v 0.67557460 0.04869186 0.05486999
v 0.47028548 0.21095757 -0.10176101
v -0.62200314 -0.21504228 -0.05692797
v -0.55029714 0.10202499 -0.15393019
v -0.03999408 0.33694848 -0.08710488
v -0.56875181 0.14831126 0.08796173
v -0.56653041 0.19561297 0.07748153
v 0.67100525 0.18789533 0.01734737
v 0.42641318 -0.15206344 -0.17306998
v 0.43524578 0.00057092 -0.24823597
v -0.70038587 -0.07669678 -0.03654592
v -0.67700636 -0.10779644 0.02569470
v 0.24184617 0.34097570 0.19608742
v 0.51018333 -0.05728457 -0.00317925
v 0.73038220 0.12365092 0.00933651
v 0.25463676 0.31904060 0.09722898
v 0.16559556 0.35748911 0.13010959
v -0.44600731 -0.25944340 -0.35828036
v 0.56125593 -0.09927566 0.09066139
v -0.05258830 -0.40782154 0.32861367
v 0.33837891 -0.26784545 0.23317213
v -0.56717205 0.21411373 -0.03529384
v -0.21127531 0.30970502 0.27484727
v 0.38441718 0.04896191 0.18953755
v -0.24406719 0.35665643 0.12151110
v -0.24347802 0.20586689 -0.29534525
v -0.68954414 -0.17087555 -0.03077054
v 0.61029184 0.09180506 0.05287021
v 0.47249687 0.01140350 -0.13106516
v 0.42032343 0.13711780 -0.23741256
v 0.39003304 0.20294522 -0.14865489
v -0.76388854 -0.10215496 0.00164942
v -0.89899790 -0.04071520 -0.00257725
v 0.70002341 0.18730089 -0.00170382
v -0.43300617 0.19920895 0.20359805
v -0.55557960 -0.24099396 -0.13500881
v -0.72461450 -0.08565822 -0.01260332
v -0.08728722 0.36227831 -0.01209342
v -0.63422143 0.12660210 0.04577058
v 0.28358698 -0.26965773 -0.30085894
v -0.69328713 0.11351874 0.05734319
v -0.13214242 0.34515995 0.22615245
v 0.62007838 0.08633067 0.01308876
v -0.40322906 -0.07677455 0.30306956
v -0.34330243 0.14854626 -0.22699066
v 0.38578349 0.23212466 0.14380574
v 0.54381734 0.02871600 -0.07391176
v 0.36244863 0.26104793 -0.06656800
v 0.54060268 0.09977061 -0.09256744
v -0.45427287 -0.15766507 -0.28999025
v 0.70980197 0.10204053 0.08505496
v 0.38674831 0.09139797 -0.17918473
v 0.32674715 -0.28776091 0.10691258
v 0.43306762 -0.08942024 0.25836232
v 0.07348035 0.24503087 -0.20105131
v -0.73508549 0.03784568 -0.08966433
v 0.40660876 0.06480956 -0.16467167
v 0.40193123 -0.17319113 0.16822749
v 0.40023404 -0.19680521 -0.14629515
v 0.34218568 0.27193180 0.04053374
v 0.32462773 -0.19044979 -0.28840640
v 0.23649143 -0.29840496 -0.17714827
v -0.56435937 -0.02619588 0.20520943
v -0.67742562 -0.21694431 -0.02235320
v 0.40458375 -0.14918414 -0.20009376
v -0.71742046 -0.15460068 -0.01473979
v -0.55363846 -0.15739316 0.15770432
v -0.67951649 -0.19621460 -0.02112377
v -0.79626244 0.04668799 0.04555182
v 0.01699181 0.36506459 0.07717883
v 0.51028943 -0.11259469 -0.01207322
v 0.43085355 -0.22141047 0.01983061
v -0.64050484 -0.03769444 0.03880036
v -0.04391755 0.30895942 0.35211289
v -0.40050864 0.24877027 0.06031799
v 0.24766731 0.33446628 0.18254340
v -0.17711055 -0.12845185 0.53908813
v -0.53734100 0.03891705 0.13816614
v 0.45194119 -0.15691198 -0.02841824
v -0.47870862 -0.18774943 0.20640935
v 0.00953331 0.34443200 0.27442318
v -0.40321451 0.12566110 0.19298972
v 0.46127725 -0.11421283 -0.10455024
v 0.56502414 -0.17814043 0.03335972
v -0.40603828 -0.19673231 0.40373027
v -0.22790775 0.22499901 -0.31544232
v -0.70853758 -0.10162423 -0.00878515
v -0.35613596 -0.34697452 0.12129350
v -0.70240611 -0.21680522 -0.01050681
v 0.02119144 0.34204844 0.24266708
v -0.65711641 0.05092286 -0.06137919
v -0.59789562 -0.22159225 -0.20750844
v 0.16044766 0.33380121 0.09545122
v 0.34548664 -0.07320688 -0.37147331
v -0.38766104 0.30007869 -0.13455793
v 0.52157253 0.01807582 0.21115896
v 0.33650252 0.25652295 0.05389586
v 0.53078991 -0.00541507 0.01936878
v 0.33324057 0.08803080 -0.27153447
v 0.15835631 0.15305142 0.46150213
v -0.12417996 0.20500252 0.41747400
v 0.49157119 -0.19417164 -0.09309267
v 0.16166630 0.01973762 0.47301257
v -0.57649165 -0.25837764 -0.03446142
v -0.27425605 -0.00261518 -0.44406271
v -0.72062838 0.04539210 0.02134685
v 0.57508749 0.14834496 -0.14204779
v -0.17036343 0.27084473 -0.27593425
v 0.41273782 -0.16082194 -0.17864147
v 0.25341183 0.02124519 0.39835656
v -0.35233861 0.12022355 0.34896970
v 0.32962063 -0.11931259 0.22483605
v -0.42117977 -0.21784469 0.25037333
v 0.40967685 -0.20604223 -0.05594119
v -0.43051296 0.06285183 -0.31802100
v 0.65912241 0.06950001 -0.00128866
v -0.53956246 -0.21071608 0.12983501
v 0.39779213 0.14190489 0.22488841
v -0.80159235 -0.13500783 0.02573124
v 0.39415118 0.16208188 -0.23090261
v 0.36657995 -0.02146652 -0.30948970
v -0.69049168 0.02045660 0.02912399
v 0.28779835 0.28383246 -0.16662267
v 0.30993581 -0.27710178 0.24119110
v 0.19850433 0.32684404 0.00439154
v 0.46303517 0.09523386 -0.14281872
v 0.07860078 0.35024431 0.16047740
v 0.46159291 0.24526215 -0.04566696
v 0.51253462 0.01317375 -0.13716719
v 0.56034428 -0.02244914 -0.04219795
v -0.41426021 0.19296736 0.09194967
v 0.56990433 -0.02909418 0.03761403
v -0.74453551 0.02618378 0.01418675
v 0.70959747 0.15203474 0.05060466
v 0.60318798 -0.01809274 0.08118397
v 0.52493584 0.03172023 -0.06987157
v -0.47317314 0.16553767 0.14950311
v -0.23015332 -0.37393802 0.30637798
v -0.40173793 -0.24512480 0.32767656
v -0.03029443 -0.25635934 0.53724217
v -0.56116968 -0.20076744 -0.09105989
v 0.15618280 -0.29590955 -0.41557506
v -0.50113922 -0.20015951 0.21336938
v 0.56998068 -0.00269208 -0.11726147
v 0.45072484 0.03447931 -0.17803109
v 0.21895610 0.32892281 0.09835190
v 0.19684002 0.27880877 0.24107432
v 0.27223825 0.26170450 -0.27333918
v 0.17378908 0.19954456 -0.30451107
v -0.53330863 -0.23922873 0.15499675
v -0.64833051 0.00637859 0.01174372
v -0.66420448 0.03078455 0.08249816
v 0.50053227 0.09212131 -0.08779182
v 0.44266930 0.28559834 -0.14676829
v -0.55689597 0.13036411 0.13703601
v 0.51210439 -0.09311637 -0.05056337
v -0.45358688 -0.21966386 0.29237336
v 0.44620928 0.20392013 0.10578157
v 0.59693247 0.01830302 -0.01067674
v -0.20498177 -0.29159170 0.43165970
v -0.48705330 -0.16023602 0.14990413
v 0.48634917 -0.13696687 -0.07734521
v -0.79588717 0.06956294 -0.03479866
v 0.20351763 0.12712361 0.38529977
v 0.48537585 0.12978098 -0.11652122
v 0.62327969 0.05790882 0.02010068
v 0.51110822 -0.01967852 -0.06993061
v -0.42739660 0.16763000 0.19947188
v 0.76023221 0.26549986 0.01267213
v 0.25290111 0.15220852 0.35211456
v 0.29547110 0.07368635 0.31671134
v -0.64439183 0.13009258 0.04571149
v 0.62289727 -0.05573888 -0.09864192
v 0.06324227 0.05488101 -0.54752737
v 0.16519141 -0.05204620 0.48560792
v -0.67477614 0.00377198 -0.02209465
v -0.07237843 0.27961230 -0.34103414
v -0.47028089 0.25798869 0.11781609
v 0.45903724 0.02726611 -0.16584723
v -0.72496319 -0.10177682 -0.00915411
v 0.60590768 -0.00617720 0.05105087
v -0.52436352 0.00173495 0.25178996
v -0.47142392 -0.10192042 0.24201573
v 0.32223970 -0.04640053 -0.31493562
v 0.03068427 0.30332845 0.32080784
v -0.35528165 0.28476724 0.10954387
v 0.62213665 0.03985833 -0.00755032
v -0.84202814 -0.03902551 0.02412651
v 0.59284258 -0.03045114 0.11495911
v 0.53824258 0.00641256 -0.03745736
v 0.33851668 0.25833356 -0.17436980
v 0.44323623 -0.08189210 -0.21148735
v -0.77789021 0.04723552 0.05021477
v -0.45612741 0.15261528 0.07008070
v 0.46400124 -0.05093222 -0.21136650
v -0.61584067 0.08356738 0.12583521
v 0.27208695 0.13203584 -0.34491324
v 0.21054141 -0.33181542 -0.16359034
v -0.00047492 0.28656536 0.35782260
v -0.55331177 -0.16297290 0.14459747
v 0.44056588 0.22323781 -0.06283697
v 0.34088910 0.26584858 -0.17588368
v 0.22703683 0.19129272 -0.27273881
v -0.36588445 -0.07775515 -0.42520526
v -0.40391272 0.03922531 -0.35761923
v 0.28950560 0.26327738 -0.26675752
v 0.41622645 0.01737858 -0.15630659
v -0.23031819 0.28999758 0.24142152
v -0.57154727 0.20241359 0.07465781
v 0.16862884 0.37755293 0.09527849
v -0.73635161 0.03616046 0.01992697
v -0.36663976 0.23831850 0.25352728
v -0.65983784 0.13275433 -0.06551066
v -0.47294593 0.09772725 0.30781919
v 0.53968590 -0.04766934 -0.04229613
v 0.40283456 0.02382409 -0.30250236
v -0.46329010 -0.17314389 -0.33664316
v 0.20330943 0.31504482 0.20397368
v 0.20591533 0.33669564 0.15700205
v -0.59346306 -0.23116986 -0.10602418
v 0.51544857 -0.09502416 -0.00845972
v -0.01523558 0.27252162 0.15407795
v -0.38227502 -0.28456694 0.26989204
v 0.08998764 -0.06477422 0.48989350
v 0.49856174 0.01905549 -0.07875574
v -0.45715159 -0.22878534 0.28067511
v 0.09521018 -0.30730107 0.10595697
v 0.43465045 -0.19026238 -0.09942326
v -0.64983094 0.08907133 0.03137472
v 0.52310431 -0.08703950 0.01011335
v -0.67233664 -0.09345367 0.01841637
v -0.51751661 -0.10921143 0.18566349
v -0.62656862 0.02895002 -0.07762132
v -0.68339628 -0.18918276 -0.00404277
v -0.42808783 0.12380887 0.22062713
v -0.06282125 0.37298855 0.06862540
v -0.56285954 -0.21832059 0.11708175
v -0.65591002 -0.18677348 -0.06688224
v -0.48651373 0.10826829 0.03131348
v 0.36580369 -0.22712804 -0.13352242
v 0.55274510 0.02013435 -0.04961438
v 0.67490149 0.15272680 0.09138966
v 0.48251069 -0.21480505 -0.00391264
v -0.53075010 0.14297938 -0.07531209
v 0.51139104 -0.09969502 -0.03087991
v 0.48785210 0.08616251 0.24362078
v -0.31499270 0.19425410 -0.35819992
v 0.35155284 -0.22080371 -0.29030937
v -0.58042395 -0.26907066 -0.03919858
v 0.37587407 0.23806208 -0.20379058
v -0.72120649 -0.11738038 -0.01149767
v -0.43550509 -0.26163280 0.23575673
v 0.39239833 -0.25899214 0.10339637
v 0.39085561 0.18871033 -0.16538514
v 0.32531419 -0.26573330 -0.25983870
v 0.44997114 -0.14481151 -0.06763068
v 0.53881478 0.05783393 0.01397112
v -0.34972864 -0.41098332 0.14549544
v 0.32267329 -0.06076203 -0.31859130
v 0.01946037 -0.19489801 -0.51886582
v 0.29658359 0.27343720 0.06511287
v -0.76976019 -0.03104413 0.07088242
v -0.22682263 -0.22382283 0.19596827
v 0.39974886 0.20165002 -0.12629762
v 0.41986710 -0.18156451 -0.00007382
v 0.03493784 0.37963989 -0.05952977
v 0.54909474 0.03093503 -0.04348201
v 0.41625905 -0.03209896 -0.33911961
v -0.63473952 -0.21648480 -0.03710845
v 0.49560338 -0.10078748 -0.06001537
v -0.43356851 -0.27315152 0.24793461
v -0.39820641 0.26092130 0.07882550
v 0.52503365 -0.06887390 -0.03509603
v -0.64171511 -0.19243431 -0.01397897
v -0.22225890 0.29474133 0.17734310
v 0.43825033 -0.05976202 -0.22923473
v 0.04314675 -0.20849824 0.54392481
v 0.57666326 0.07716275 -0.02736292
v -0.54307985 0.00233763 0.15318561
v 0.46596751 -0.12283222 0.16874620
v -0.64574331 -0.23735198 -0.04265791
v 0.70203578 0.17272252 0.02671812
v 0.39601415 0.14012291 -0.28281248
v 0.41121215 -0.06211398 0.23808208
v -0.29795629 0.17457163 0.42404792
v -0.78459758 -0.04161204 0.03717752
v -0.75060058 -0.06296806 0.02840364
v -0.61805075 -0.01238962 0.07266980
v -0.48289803 -0.30433831 0.11882609
v 0.43590748 0.12925464 -0.20504844
v 0.25215539 0.32628155 0.26003751
v 0.21780011 -0.10885288 0.43628812
v 0.55406362 -0.01660399 -0.03788207
v 0.38753909 -0.17827347 -0.16000596
v 0.15873213 0.34017831 0.07259864
v -0.23282033 0.20704751 -0.28865528
v 0.20197093 0.17507830 -0.19113970
v -0.48568934 -0.26616323 -0.28098333
v 0.30493712 0.29900458 0.06357076
v -0.70044219 -0.14720461 -0.04028598
v -0.49086475 -0.23010093 0.21776120
v 0.09297098 -0.37432033 0.38509554
v 0.24589474 0.31230152 -0.04255462
v -0.67745423 -0.12333889 -0.01958951
v -0.84326369 0.06631313 0.01418566
v 0.40030095 -0.03338410 -0.16094866
v 0.34258303 0.26612517 0.04380481
v 0.56582057 -0.12412135 0.03423256
v -0.81230992 -0.04141276 0.03799188
v 0.39496195 -0.22223711 0.14946651
v -0.44552529 -0.28078938 0.26032200
v 0.09232032 0.35113421 0.23542121
v 0.08479501 0.32354668 0.27732375
v -0.52452302 -0.22627324 0.12352169
v 0.43324572 0.02333140 -0.14962029
v 0.63460261 0.00608679 -0.03148176
v 0.54809868 -0.05156720 0.01226400
v -0.19198567 -0.36378437 -0.09772733
v 0.38050491 -0.27227467 0.22468619
v 0.60781878 0.09234264 0.05947643
v 0.29469615 0.07592359 0.28073663
v 0.35377872 0.17892833 -0.25426847
v 0.50128615 -0.11530808 -0.11192012
v -0.38143152 -0.30278382 0.25800416
v -0.43261069 -0.39413655 -0.07060114
v -0.56082225 -0.00225752 0.01550138
v 0.56417900 -0.14875889 -0.00255209
v 0.40341032 0.18599254 -0.10602873
v 0.42411008 -0.18033090 -0.19810596
v 0.33093846 0.28874639 -0.09837086
v -0.22067884 0.05697215 -0.33421096
v -0.50509709 -0.26328030 -0.27976066
v -0.73990935 -0.05550583 0.02588621
v 0.20807117 0.27781489 -0.14487794
v -0.01007124 0.25732496 0.41288859
v -0.38487339 0.17617039 0.30349138
v -0.19040158 0.21316507 -0.04663105
v 0.27193296 -0.31563658 0.36542600
v -0.70590425 0.02159771 0.02470059
v 0.64342606 -0.01560937 -0.06743101
v -0.48846886 -0.18859708 0.31716764
v 0.24271703 0.36763090 0.09004685
v 0.31835827 0.17760405 -0.22556981
v 0.08375582 0.27416348 -0.27853337
v -0.59237218 -0.14231959 0.00455212
v -0.29584116 0.15309626 0.38163555
v -0.76236826 -0.11599223 0.00397170
v -0.37134245 -0.27792656 0.29254633
v -0.51890087 -0.25628984 0.15583196
v -0.28902096 0.12070264 0.43510443
v -0.29825917 -0.11392304 0.10095144
v -0.55401129 -0.22433695 -0.22276092
v 0.33747467 -0.24136199 0.18338397
v -0.60864383 -0.23500203 -0.23203282
v -0.65173399 0.14446354 -0.07242746
v -0.54840636 -0.26725176 0.00244834
v 0.35041329 0.12821463 -0.29622656
v -0.34183899 0.17593516 -0.06086732
v 0.50866055 -0.11087266 -0.01162711
v 0.31028154 -0.11411710 -0.42166644
v 0.48819566 0.12318928 -0.06821610
v 0.53495902 0.03183796 -0.02912761
v -0.37920535 -0.03193718 0.34377414
v 0.39023536 0.09354281 -0.20143390
v -0.19578218 0.33192569 -0.23291355
v 0.57204533 0.03851385 0.04792321
v -0.26698619 0.23909649 0.37197441
v 0.31098554 0.09649856 0.29466739
v 0.34818062 -0.22985984 -0.20286404
v 0.61452526 0.12340626 0.02926783
v 0.30571368 0.28462657 0.07254125
v -0.30536056 0.23151070 -0.22596715
v 0.12505278 0.37572700 0.15545371
v 0.55943865 0.05556531 -0.03385018
v 0.64286500 0.07794745 -0.00178780
v -0.18797593 0.15980802 0.10331790
v 0.37799960 0.23351310 -0.16092575
v -0.57145041 -0.20438135 0.08583185
v 0.19929382 0.27265167 -0.24312240
v -0.70805490 -0.00621105 -0.00881213
v 0.45005003 -0.02632476 -0.22342116
v -0.51890785 -0.02495131 -0.29560488
v -0.36736071 0.06721725 0.29740661
v 0.13002959 -0.35498649 -0.00759737
v -0.52864039 0.12703149 0.10418104
v 0.39242315 -0.22253121 -0.15704811
v -0.50841308 0.22272429 -0.07511112
v 0.10261785 -0.03266903 0.51323056
v -0.20581387 -0.15272617 0.55945086
v 0.50849372 -0.06237544 -0.11578454
v 0.53569508 -0.03442667 -0.01205063
v 0.40816492 0.10647933 -0.22646974
v -0.54633152 0.20660090 -0.06703950
v -0.24012804 -0.37612402 0.19563201
v 0.52085727 0.11161710 -0.04607146
v 0.31592256 0.28157556 -0.17650028
v -0.50655645 -0.28381407 -0.18909951
v -0.70369023 -0.21088447 -0.04217090
v 0.52991825 -0.10030648 0.00753870
v -0.51990837 -0.24460627 0.02263525
v -0.37202314 -0.04924357 0.43606845
v 0.55600792 -0.03775026 -0.04849240
v -0.53304559 0.20875065 -0.05869794
v 0.40568265 -0.13582596 -0.18302929
v 0.28717995 0.30194175 0.12984189
v 0.51761150 -0.06819935 -0.07851449
v 0.33010614 0.23859987 -0.26003242
v -0.70827448 -0.06170267 -0.03662047
v 0.70953709 0.18035930 0.05577913
v 0.31160390 0.28295058 -0.00424449
v 0.51052815 -0.07262047 0.06787604
v -0.37112227 0.23554847 0.02055008
v 0.54301679 -0.05996978 -0.06152258
v -0.63883495 -0.02670859 -0.00443185
v -0.72088271 -0.15323161 -0.03862604
v 0.34531265 -0.21200253 -0.11730185
v 0.50288129 -0.02155501 -0.11042731
v -0.51192570 -0.31734937 -0.05900592
v 0.49493256 -0.12173171 0.03850931
v 0.47748089 -0.12773189 -0.02786455
v -0.71694291 -0.10923790 -0.01638922
v -0.40648243 -0.12834176 0.40771103
v -0.68761069 0.13714093 0.04131491
v 0.03479128 0.38958669 -0.05966080
v -0.42929301 -0.23451060 0.30732980
v -0.59644330 -0.20956910 0.00991350
v 0.31285995 -0.16307560 0.23415127
v 0.62083405 0.08102353 0.01368204
v -0.78069806 -0.01697563 0.01065905
v 0.40807873 -0.22122979 -0.01286668
v 0.26417324 0.30741364 -0.02084021
v 0.06014095 -0.06818433 0.55390358
v 0.66314548 0.08792533 -0.00149139
v 0.59321445 0.00652663 -0.01965605
v 0.41530189 0.18650091 0.12552068
v -0.04755941 -0.24315733 0.45434904
v 0.02040358 0.34185952 0.24633649
v 0.35834369 -0.19586809 -0.29753998
v -0.28091109 0.33932874 0.11280098
v -0.72977072 0.00215393 -0.00504320
v 0.38094050 0.03336963 -0.29483020
v 0.14460950 -0.20926824 0.39901143
v -0.19862109 0.33625472 0.18953609
v 0.47808772 -0.09612606 -0.08740997
v 0.40684465 -0.16368592 -0.18946287
v 0.54143453 -0.05220851 -0.06512710
v 0.31333899 0.24067426 -0.24750495
v 0.34383634 -0.17047767 -0.27470082
v -0.84142709 -0.05908568 0.04949069
v -0.64370871 -0.19713190 0.02933872
v -0.08674806 0.29569158 0.11551119
v 0.71966600 0.15931150 0.04179056
v 0.50283867 -0.08158420 0.05206677
v -0.53924680 -0.08653522 0.11088806
v -0.59111464 -0.07677773 0.12563550
v -0.71632731 -0.11423410 -0.01846305
v 0.52190852 -0.01717851 -0.07458499
v 0.62473679 -0.01294357 -0.10239609
v 0.27575102 -0.22185142 -0.40356910
v -0.51248074 -0.29105982 0.01570751
v -0.67740834 -0.09684345 0.03541620
v -0.61371672 0.03125883 0.08126815
v 0.42747799 -0.12972690 -0.17698973
v 0.53240854 -0.07834166 0.02686457
v -0.28189254 0.15089068 0.41810220
v 0.46423995 -0.16149245 -0.04191631
v -0.13598007 0.10536317 -0.48331338
v -0.18654060 0.37893558 0.11750608
v 0.24773648 0.30728433 0.04663420
v -0.61607236 -0.07608800 0.07982370
v 0.69118935 0.13466796 0.11841197
v -0.14111361 -0.36297536 -0.15100336
v 0.34232607 0.16049932 -0.26499784
v 0.56408238 0.02535941 -0.06024250
v -0.72453630 -0.03027320 -0.05512923
v -0.36975771 0.00970715 -0.41229007
v -0.27174854 0.16834518 0.42822218
v -0.62001377 -0.16682243 0.06020239
v -0.51791131 -0.20795920 0.19286805
v 0.61781800 0.03628610 0.00931031
v 0.05147968 0.34014195 -0.01290228
v 0.65440357 0.18491381 0.01541033
v -0.66764170 -0.14769001 -0.00369726
v 0.77901137 0.15360960 0.02217343
v -0.43524355 -0.23976499 0.25273439
v -0.44218916 0.26308510 0.01036773
v -0.68010604 -0.11672501 -0.02784568
v 0.35453102 -0.27400142 -0.01352510
v 0.29748735 0.20306283 -0.26956555
v -0.68468171 -0.01253378 0.01721856
v 0.31546307 0.28102195 -0.16685750
v 0.45324337 -0.12495653 0.16542566
v 0.47253773 0.07889623 0.18832959
v 0.58939356 -0.02508713 -0.12877877
v -0.50674522 -0.18500273 0.17903771
v -0.68418676 0.08183375 -0.07216296
v 0.48932058 0.10929741 0.20653841
v -0.44309986 -0.08650061 0.37688616
v 0.42648491 -0.16551395 -0.20347176
v 0.02074413 0.26973936 0.34930420
v -0.13566500 0.11075181 0.04806599
v 0.35647622 0.24718851 -0.16036721
v 0.60898256 0.01391431 0.06003188
v 0.21118698 0.33414447 0.15583286
v -0.71118647 -0.10898574 -0.01143554
v 0.48950374 -0.04705192 -0.07684237
v 0.27501541 0.30544019 0.16099584
v 0.37079489 -0.23750468 -0.19464087
v 0.47377187 -0.12077111 0.05095589
v 0.36391681 0.27617723 -0.06040534
v 0.18202414 -0.33367425 -0.23112464
v -0.02781718 0.24840836 -0.34305155
v -0.04951674 0.31767452 -0.29420722
v -0.00477082 0.34137520 -0.25749010
v 0.62083745 0.02912224 -0.00147608
v -0.42543796 -0.28539109 0.28010064
v -0.29575559 0.08252227 0.36773294
v -0.31531611 -0.23046601 0.00985899
v 0.55261362 0.10259265 -0.06108347
v 0.33088106 0.12404512 -0.31352478
v -0.47703359 -0.12868714 0.32573205
v 0.34324199 -0.19615397 -0.32232541
v -0.75135660 -0.10788053 -0.00386031
v -0.75277179 0.06864485 0.00241822
v -0.35934389 -0.15106136 0.49827057
v 0.48319659 -0.12414521 -0.01675525
v -0.45765311 0.12528567 -0.22763202
v 0.50190759 -0.01896405 -0.05167109
v -0.44066322 -0.06683484 0.37743002
v 0.56963205 -0.05214841 -0.02574456
v 0.42343462 -0.17769088 -0.17967297
v -0.40930170 -0.28840238 0.17599924
v 0.49373946 -0.08523632 -0.11459126
v 0.39286190 0.18405469 0.19271454
v 0.47766703 -0.01605803 -0.10208180
v 0.03804355 0.38955471 0.10808317
v 0.55227602 -0.13968453 -0.12464259
v -0.17573544 0.38781548 0.09055832
v 0.57768577 0.02604556 -0.05230698
v -0.53736037 -0.29026979 -0.15849814
v 0.32447529 -0.23792377 0.28922665
v -0.70679432 -0.01374355 0.01436608
v 0.53792340 -0.06450122 -0.06903668
v 0.06276825 0.31357390 0.28406057
v 0.45421219 -0.10558777 -0.11563341
v -0.24984539 0.24800211 0.37108916
v 0.44102311 0.24161294 -0.16607466
v -0.21693252 0.28901812 0.16668023
v 0.40866143 0.10403766 -0.22320496
v 0.19932382 0.36520559 0.01919645
v -0.76775324 0.08525787 0.01603208
v 0.43976316 -0.01864249 -0.15707657
v 0.36490622 0.21406443 -0.12931196
v 0.50510442 0.08481581 0.13863036
v 0.53320324 -0.07976632 0.15393856
v 0.37431824 0.17487504 0.27155483
v -0.73329443 -0.07764381 -0.02028073
v 0.04699557 0.29825211 0.30678567
v -0.69522178 0.06503122 0.01112296
v -0.59131807 -0.23751019 -0.24489909
v 0.37870312 -0.07079469 -0.31511492
v 0.46129626 -0.00212847 -0.09539574
v -0.79771978 -0.08542781 0.01062390
v 0.54382390 0.02236333 -0.06161209
v 0.58790958 -0.02517334 -0.01811955
v -0.65255988 -0.14138114 -0.00792143
v 0.00190241 0.27586043 -0.29162353
v 0.55171692 -0.00766493 -0.08597654
v -0.76848912 0.07101941 -0.00805345
v -0.30224505 -0.04146116 -0.33229494
v -0.64767909 -0.21265779 -0.04571643
v 0.60294271 -0.00942418 0.01933105
v -0.78441775 0.02215660 0.02982482
v -0.68675429 0.06168035 0.02686108
v 0.52818304 0.05407402 -0.16789655
v 0.56163114 -0.02971438 0.00337836
v 0.18395941 -0.25850406 -0.37831247
v -0.54835570 -0.15071113 0.10653180
v -0.49435088 -0.12467030 0.29875684
v -0.34886211 -0.05588346 0.38580972
v -0.78704441 -0.13111880 0.00841356
v -0.00179981 0.21651065 -0.11414276
v -0.59692460 -0.12756029 0.15127973
v -0.60160500 -0.10051642 0.09512691
v -0.46955869 -0.34040892 0.11885880
v 0.63891935 0.12351040 0.03901701
v -0.09256373 0.14514348 -0.48150456
v -0.46046764 0.15003003 0.23690863
v -0.67990470 -0.12989414 -0.05274069
v 0.60696399 0.18034600 -0.02676696
v 0.40464681 -0.20550852 0.07144673
v 0.33913571 0.26973712 -0.09388293
v 0.41937554 -0.16579074 -0.17066708
v 0.40150064 0.16675268 -0.23000421
v -0.80662346 -0.06794809 0.02770525
v -0.73185074 -0.02526771 0.01242925
v -0.54190123 0.15368471 0.06597994
v -0.40929180 -0.33914593 0.19243206
v 0.54965776 -0.09619164 0.00255057
v 0.03554010 0.39526582 -0.05124928
v -0.47228625 -0.16194911 -0.11719769
v 0.35905865 0.05001117 -0.24166568
v -0.43582779 -0.11127454 0.36229649
v 0.60397595 -0.09815976 0.05006962
v -0.52916241 -0.22834867 0.20319512
v 0.19261834 0.26869702 -0.17881097
v -0.70629519 -0.11844618 -0.03166503
v -0.69506276 -0.08100388 0.01789195
v 0.50626773 0.05321529 -0.08716691
v 0.37188059 0.25546467 -0.02878861
v 0.09022635 0.38548675 0.07931783
v 0.02215303 0.38750038 -0.08851207
v 0.03587033 0.13993073 0.44584852
v 0.51269197 -0.07960869 0.01031995
v 0.56435442 0.14929529 -0.04341835
v -0.50674969 -0.05305347 0.21745577
v 0.18523940 0.35967141 0.09698119
v -0.73561299 -0.11275849 0.00160101
v 0.46666664 -0.17169577 0.01808806
v 0.38413548 0.18953741 0.20719551
v 0.26335937 -0.17335586 0.40458035
v -0.89677489 -0.04941045 -0.00701368
v -0.03291398 -0.00136124 -0.50670522
v -0.47114533 -0.32193604 -0.23473719
v -0.24459219 -0.36271816 0.34230506
v 0.58948600 0.06389593 -0.08406687
v 0.35851419 0.27848828 -0.15283594
v -0.57894981 -0.24864426 -0.05983144
v -0.76741701 -0.02125530 0.01016745
v -0.62718320 -0.13872597 0.00538486
v 0.36723304 -0.23001564 0.18995926
v 0.04492435 0.03796634 0.50209498
v -0.87061632 -0.07199825 0.03935410
v 0.17816129 0.20341355 -0.39058298
v 0.52119339 0.23017839 0.10144187
v 0.52953708 -0.06575660 -0.02129504
v 0.50477403 0.04051047 -0.09808433
v -0.62610316 -0.22338505 0.05675980
v -0.39707273 -0.36890644 -0.27229756
v 0.52620977 0.21504249 -0.01781172
v 0.72968292 0.16788520 0.04585623
v -0.54293978 -0.18583965 0.19394968
v 0.37613618 -0.04658148 0.33434689
v 0.44302827 0.09705987 0.24330071
v 0.18074937 0.28512132 0.27813935
v 0.17866060 0.34291759 0.20840925
v -0.76348501 -0.07196492 0.02103186
v -0.50571561 -0.30958033 -0.03917739
v -0.41914952 0.02842945 0.32652247
v -0.59364456 -0.11606012 0.10565256
v 0.46357629 0.02548925 -0.17973171
v 0.50929749 -0.08013967 0.07697747
v -0.58327389 -0.20623058 0.12352303
v -0.43097842 0.07079373 0.24967778
v 0.30914503 0.10852925 0.15426619
v -0.51922095 -0.29571813 -0.03229176
v -0.49063951 -0.32207650 0.00490659
v 0.53601450 -0.09451960 0.05507909
v 0.22278890 0.30445057 -0.06193320
v -0.03412380 0.29601169 -0.29668960
v 0.64584297 0.05902661 0.00687037
v -0.45516729 0.20317265 0.06564660
v -0.75183278 -0.15673885 0.01257125
v 0.40014005 -0.04658093 -0.24599160
v -0.48525494 -0.32713246 -0.27528733
v 0.17012827 0.33335188 -0.04837355
v 0.50289166 0.27574360 -0.00419694
v 0.48250565 0.12674138 -0.10615437
v 0.66674376 0.05906716 -0.01206651
v 0.63394630 0.04828463 -0.01466315
v 0.29382503 0.24993479 0.23487240
v 0.44978386 0.18486863 -0.09170361
v 0.27239579 0.20585449 0.27654558
v 0.08320688 0.33338293 0.24928421
v -0.46773976 0.14169249 0.16856068
v -0.85108459 -0.03823965 0.01383091
v -0.28571218 0.30596283 -0.20905328
v -0.64966202 0.03680968 -0.15549362
v -0.47308075 -0.36173183 -0.14298312
v 0.16363530 0.35897410 0.17845753
v 0.36175883 -0.26898903 -0.01209912
v -0.37770846 -0.24613374 0.40766138
v 0.13210745 0.24531952 0.31245339
v 0.35234582 -0.01480331 -0.30705142
v 0.34268484 0.08804025 -0.32865298
v -0.15264484 0.31072161 0.11740737
v -0.38598546 0.03500664 0.40549576
v -0.32345116 0.30250794 -0.04513765
v -0.24027401 0.19142728 0.24126527
v 0.72762918 0.14246053 0.07889672
v 0.27058735 0.33316955 0.14042883
v 0.13454911 0.34080553 0.08246431
v -0.36189830 0.20549755 0.10577071
v 0.49903744 -0.10211495 0.01367947
v 0.54328930 -0.00903746 -0.10210717
v 0.59329879 0.22622818 0.03744274
v -0.69339585 -0.10619780 0.03133789
v -0.22513872 0.28596544 -0.29585147
v -0.19471264 0.15841290 -0.42824432
v -0.08898854 0.13726547 0.49221274
v -0.38455707 -0.09587298 -0.35325688
v 0.31059477 0.27345690 0.10698243
v 0.34618700 -0.21077570 -0.28367144
v -0.68668693 0.02976233 0.02032410
v 0.47231567 -0.11479247 -0.09141839
v -0.73959243 -0.11280794 0.00578776
v -0.40786907 -0.22147337 -0.31302905
v -0.49336207 -0.32549447 -0.10975973
v -0.34340948 -0.04811843 0.42692733
v 0.49584699 0.05823791 -0.16269162
v 0.60572380 0.07767851 0.07588609
v 0.34164107 -0.24577326 -0.31902847
v 0.52036822 -0.05318656 -0.10829711
v -0.55389744 -0.07119403 0.18836270
v 0.37545592 0.19774464 -0.16095711
v 0.19758290 0.30604312 -0.02370976
v -0.14377226 0.29653609 -0.09431054
v 0.39069319 -0.24915485 -0.10018820
v -0.45309350 -0.12719381 0.33652869
v -0.31617957 -0.21604426 0.48281848
v -0.72406065 -0.11035533 -0.02110934
v -0.59343785 -0.28880379 0.00439729
v 0.45707533 0.10649520 -0.11243808
v -0.73905814 -0.05915899 -0.06597599
v 0.38441211 0.01370165 -0.32574114
v 0.62973732 0.04503527 -0.02600870
v 0.39750025 -0.19296525 -0.24620235
v 0.18767031 0.31193280 0.09413222
v -0.67590994 0.03522541 0.00497232
v -0.14476858 0.11390783 -0.38167107
v 0.39974856 0.07277369 -0.25298816
v 0.14128120 0.31351960 0.24405712
v 0.34697229 0.39355564 0.07777554
v 0.31567526 0.22413555 -0.23222464
v -0.70461762 0.05505256 -0.01134605
v 0.33253065 0.27046216 -0.09692952
v 0.53174037 -0.05384649 -0.07809448
v 0.42665863 -0.10968639 0.28841591
v -0.27932024 0.31019634 0.06071518
v 0.59251142 -0.02443882 0.00585219
v 0.37257153 0.18513426 -0.19207107
v 0.14656761 0.37618971 0.11199077
v 0.48334441 -0.05115535 -0.11550333
v 0.59441924 0.02143319 0.11154900
v -0.65929729 -0.02971920 -0.00390639
v 0.30812722 -0.27332050 -0.21904883
v -0.57777369 -0.23407181 0.06493273
v 0.41079128 -0.23600368 0.18604568
v 0.46404949 0.04996971 -0.17997515
v -0.28627652 0.27019888 0.30336401
v -0.40292215 -0.45942840 0.04530472
v 0.48457152 -0.11167374 -0.04344536
v 0.21802744 0.31032264 0.31383035
v 0.50993454 0.16590090 -0.11083701
v -0.46685907 0.06854321 0.19391900
v 0.52925169 -0.11142267 0.15168384
v 0.61838198 0.08864179 -0.00353616
v 0.41848767 -0.19358550 0.29021537
v -0.69188404 -0.08195129 -0.01554067
v 0.55201012 0.15629047 0.14564639
v -0.61601412 0.14364570 0.07795247
v 0.55057561 -0.01586533 -0.03814596
v 0.28072488 0.29591614 -0.06340449
v -0.65839583 -0.11213972 0.05198815
v -0.39044693 0.13960993 0.36028016
v 0.62767464 0.02913604 0.00052188
v -0.29105598 -0.09390587 0.51010597
v 0.25334859 -0.23069568 -0.23363328
v -0.49153405 0.17146349 0.10203721
v 0.56323016 -0.02977530 -0.03474800
v -0.68969631 -0.01075946 0.00678892
v -0.34940970 -0.12482935 0.46326846
v 0.64677632 -0.06555292 -0.00014586
v 0.37905484 0.03270342 0.29882443
v 0.33823577 0.27080995 0.08638853
v 0.15787788 -0.33493134 -0.26721042
v 0.51005471 -0.08777450 -0.01111540
v 0.16159897 0.34706935 0.02300818
v -0.26635820 0.19560465 -0.29579216
v -0.18873931 -0.39686719 0.18235093
v 0.50816870 -0.06551393 -0.09539357
v 0.21254797 0.21286643 -0.30910379
v -0.05422666 0.36137009 0.00597236
v 0.14564510 0.15116712 -0.34291831
v -0.60887206 -0.10675473 0.12963957
v -0.45030418 -0.21901190 0.29375020
v -0.75721294 -0.10163877 0.01264158
v -0.67266405 -0.20766076 -0.04645394
v -0.63800204 0.15349630 0.06791419
v 0.35568714 0.05997866 -0.27286685
v 0.52946705 -0.03093281 -0.09022711
v -0.51511168 0.07503972 0.11829457
v 0.45443106 -0.15468380 -0.07708089
v 0.59879553 0.18501285 0.00933992
v -0.42863715 0.15927830 0.01940695
v 0.26480290 0.27256179 0.14533754
v -0.40413743 0.15710539 -0.32060355
v -0.12717614 -0.39942840 0.19694446
v 0.56654483 0.00964817 -0.03547921
v 0.32432359 0.04886369 0.38189062
v 0.48826182 -0.11237484 -0.04645242
v 0.23748532 0.11582117 -0.39498943
v -0.40505767 -0.25270438 0.25661346
v 0.33697522 -0.04855713 0.26317129
v -0.54333246 -0.23388523 0.08678108
v -0.73018336 0.06066664 0.02777354
v -0.40625501 0.17128369 0.23732913
v 0.52744412 -0.01680306 -0.08177182
v 0.45888764 -0.15633139 -0.05084422
v 0.10145423 -0.38352311 0.35244879
v -0.81408894 -0.05579220 0.02408633
v -0.57664573 0.00739948 0.09948193
v 0.15512769 0.33573800 0.18087754
v 0.56635362 0.01864979 0.01659986
v 0.62377268 0.07410949 -0.01279923
v -0.16183405 0.26384094 -0.03536832
v 0.52463579 -0.08290537 0.02204523
v 0.51773405 -0.07687220 -0.00912389
v -0.65676874 -0.19754791 -0.02420917
v 0.40775812 0.06506858 0.26729196
v 0.38435367 -0.24025910 -0.01166627
v -0.65102452 0.08244094 -0.00503961
v 0.69869232 0.21479116 0.00648960
v 0.30979270 -0.27892029 0.10482621
v -0.73764962 -0.02859135 0.01538897
v 0.50308436 0.05657599 0.19872469
v 0.66366923 0.13275921 0.01425433
v 0.39136401 -0.19327949 -0.24783626
v 0.01979488 0.28712183 0.33699620
v -0.24574082 0.22932357 0.18001106
v -0.61968094 -0.20185883 0.03393164
v -0.49829698 -0.10774231 0.23377171
v 0.03301607 0.34718242 0.17537583
v -0.69094563 -0.11294115 -0.00847462
v 0.47365940 -0.12374640 -0.05554569
v 0.58936024 0.14251059 -0.00306556
v -0.64368945 -0.19364187 0.03721003
v 0.30282080 0.30978021 0.18506971
v -0.78745043 -0.08805051 0.00706896
v 0.19703430 0.24582405 0.33826345
v 0.43877220 0.17777991 -0.19465914
v 0.08312130 0.38122869 -0.02949990
v 0.70593560 0.12722100 0.00548637
v 0.45381960 0.24045455 0.13010338
v -0.48794523 -0.11921550 0.23645483
v 0.41785538 0.15797925 0.19835830
v -0.41516322 -0.06790153 0.36370203
v 0.42139849 -0.23967065 -0.05604357
v -0.58966666 -0.06892133 0.10069081
v 0.47830051 -0.10427375 0.07408637
v -0.73992664 -0.01760387 -0.00753330
v 0.27821359 0.19086756 -0.28195831
v -0.44778514 0.02223916 0.32600081
v 0.38008797 0.24042167 0.15432855
v -0.44273138 -0.17315587 0.28968954
v -0.08268784 0.35608372 -0.09702541
v 0.46256298 -0.15929259 -0.04927140
v 0.45796520 0.13027257 0.15062901
v 0.58973765 0.06634495 -0.00385749
v 0.56775647 -0.04341394 0.13992575
v 0.23236147 0.02304966 0.41434345
v 0.49067935 -0.10290763 -0.05402413
v -0.51287860 -0.00227442 0.20718709
v -0.50947565 0.04301909 0.18871215
v -0.15653311 0.24532115 -0.27955210
v -0.41844472 -0.15473098 0.30689028
v -0.21344072 0.26548302 0.33745885
v 0.55182493 0.16791494 0.05762322
v 0.36809146 0.24743684 -0.02666696
v -0.36542660 0.19702667 -0.16090828
v -0.37123445 0.07716488 0.41785145
v -0.70741957 0.09638670 0.00204312
v -0.70452374 -0.01001997 0.05168656
v 0.27865443 -0.15710895 0.44032767
v -0.61847633 -0.19567165 0.07071140
v -0.44179666 0.02813607 0.24698341
v 0.42101231 0.01475252 -0.21118726
v 0.46623811 -0.13219737 -0.02790640
v -0.16556612 -0.33663595 0.37115186
v -0.38557151 0.24701747 0.09434324
v 0.26628819 0.23399487 -0.24437451
v -0.74544805 -0.11422149 0.02352449
v 0.20245856 -0.23596179 -0.37590331
v -0.01325633 0.28357100 -0.30218637
v -0.44263875 0.19202501 0.08859804
v -0.66040015 -0.07085504 0.06387276
v -0.64279860 0.15150940 0.06500148
v -0.70094490 -0.06803958 -0.02355274
v -0.68478739 0.06115163 -0.05332670
v 0.35500923 0.05802202 0.20723899
v -0.36571136 0.19220912 -0.21919376
v 0.42667696 0.20044079 -0.14404440
v -0.76616126 -0.09687101 0.02825671
v -0.35679600 -0.41074225 0.07615796
v 0.34161186 -0.28665310 0.24647188
v -0.68479377 -0.12466243 -0.03362040
v 0.54326349 0.00590177 -0.04913925
v -0.65788168 -0.17807877 -0.02142133
v 0.54181451 -0.04194098 0.11452795
v -0.72217560 -0.08664835 -0.00677860
v 0.31667346 -0.27859461 0.26419657
v 0.43171549 0.16985926 -0.18577395
v 0.16136354 0.37371767 0.12089249
v 0.40368256 0.16163969 0.16442813
v 0.78604168 0.26991078 0.01321793
v -0.17967018 0.24270967 -0.28142354
v 0.41435313 0.05496486 -0.22765821
v 0.40139720 -0.16985701 -0.17980260
v 0.40044755 0.18921669 -0.17656747
v 0.46905747 -0.11081584 0.14388442
v -0.45624089 0.12355269 0.04007242
v -0.64147758 -0.14940697 0.08162941
v 0.14862835 0.24825859 0.27572113
v 0.38267636 0.21071446 -0.18293381
v 0.57658887 -0.04349591 0.05917376
v 0.31540152 0.26465458 0.02971932
v -0.40871230 0.10248571 0.32815242
v -0.34598535 0.11630727 0.34852359
v 0.21454282 0.11590593 -0.39699715
v 0.25136411 -0.12613192 0.39419642
v -0.63197958 -0.15556946 -0.08408924
v -0.49705476 -0.18793595 0.24482927
v -0.39780909 -0.33237499 0.14021903
v -0.46262074 -0.37244999 -0.18400225
v -0.42355043 -0.34305382 0.08494759
v -0.12643838 0.06064381 -0.51731592
v -0.17073852 0.14092566 0.03890289
v -0.69773513 -0.13603434 -0.02412823
v 0.48831856 -0.10764006 0.18144038
v -0.29333860 0.23976173 -0.12039787
v -0.79419971 -0.09547563 -0.01152452
v 0.12154124 0.34610575 0.11348616
v 0.23182049 0.28648242 0.20229369
v -0.52847713 0.04710826 0.14629982
v 0.69089562 0.17333372 0.03616938
v 0.56318897 -0.03776291 -0.00844248
v -0.65084857 -0.09956472 -0.16971804
v 0.59151798 -0.02283504 0.11344367
v 0.38978508 0.13905297 -0.23826596
v -0.29935020 0.18591295 -0.28737369
v 0.32256851 0.13519669 -0.24529332
v 0.47907978 0.08739375 0.16934815
v 0.38687938 0.22891156 -0.04828809
v 0.46512586 0.16704443 -0.15186921
v 0.07709278 0.36626869 -0.06687648
v 0.72297025 0.23176005 0.02293342
v -0.46574035 -0.17542969 0.25060093
v 0.18497850 -0.28959960 -0.40598360
v 0.53398597 -0.00570715 0.21087214
v -0.46530035 -0.18400612 0.27791128
v -0.58619392 -0.18931922 -0.01284167
v 0.43798429 0.14544988 -0.20182553
v -0.17622714 0.36671978 0.13473946
v 0.21080340 0.24776308 0.30323949
v 0.55179417 -0.10748019 0.18082246
v -0.41881749 -0.21807089 -0.13124233
v -0.64461488 -0.12761727 -0.02645104
v -0.66058272 -0.19667861 -0.01612118
v 0.43844235 -0.04562180 -0.22213224
v 0.29643911 0.08143869 -0.37043822
v 0.30398124 0.31158835 0.15322205
v -0.44298133 -0.16026263 0.26657754
v 0.47562063 0.00652182 -0.16359782
v -0.68529224 -0.06503394 0.00160138
v -0.77874219 -0.07313304 0.01692012
v 0.46562457 -0.11573265 -0.09289248
v 0.65406895 0.02729010 -0.01301960
v -0.53232771 -0.23387077 0.15854949
v 0.33228487 -0.28958637 0.23459572
v 0.42633277 0.11833031 -0.18439889
v -0.59763372 -0.11234644 0.02319812
v -0.43787125 -0.24112096 0.25218531
v 0.57547629 0.23014963 -0.00672969
v 0.41047758 0.19370328 0.00665827
v -0.56543982 -0.26698753 -0.17175789
v -0.56742084 -0.15649432 0.12395508
v 0.39582479 0.14485805 -0.21874709
v -0.36080313 0.12550141 -0.31394482
v -0.37819642 0.22252110 0.06806807
v -0.55875915 -0.06637090 0.16994947
v 0.33997265 -0.04790781 -0.22887230
v -0.64485884 -0.27312058 -0.10115210
v -0.76558268 -0.11835525 -0.02127755
v 0.42260569 0.15932496 -0.16942862
v 0.10636255 0.29498595 -0.22819811
v -0.68299735 -0.14037302 0.02063972
v -0.61713874 -0.17646265 0.08522709
v -0.05529959 0.40634334 -0.09824793
v -0.61662561 -0.05960986 -0.25005019
v -0.35264358 -0.16409416 0.17090355
v 0.55156434 -0.02846019 -0.08562626
v -0.29965448 0.28894448 0.13750513
v 0.77208537 0.17762354 0.07545252
v -0.45217037 0.21274503 -0.20835361
v -0.12008800 -0.00203139 -0.52057880
v -0.86578321 0.07000948 0.01895221
v -0.16525799 0.34092310 -0.17524479
v 0.31363207 0.05491126 -0.35150880
v 0.04270280 0.36767563 0.03686386
v -0.37270969 0.23291583 -0.25482038
v -0.55572855 -0.16361640 0.21096984
v 0.42526454 -0.04160354 0.20984307
v 0.22800615 0.28225440 -0.17871651
v 0.61587250 0.06228017 -0.01435223
v -0.67755044 -0.11593097 -0.03776650
v 0.31787670 0.26752466 0.17112577
v -0.66317904 -0.24231893 -0.02787697
v -0.20486416 0.22457922 -0.28516200
v 0.47902828 -0.12673217 0.23202839
v 0.61295724 0.07466522 -0.00303755
v 0.37373373 -0.24957301 -0.00630304
v -0.09726724 0.30556780 0.29214385
v -0.27188647 -0.38269806 0.30376670
v 0.27029508 0.23893391 0.25853083
v -0.64903104 0.14426428 -0.03613894
v 0.32709020 -0.16249767 -0.22872639
v 0.54392207 -0.05355927 -0.03478578
v 0.43979239 0.03555939 -0.17775546
v 0.69018990 0.07095297 -0.03393970
v 0.62977558 0.08191818 0.05446050
v 0.50145435 0.01766013 0.19791538
v 0.51009804 -0.09851612 -0.03878269
v -0.49935487 0.14234969 0.20936885
v -0.58192253 -0.14017069 0.11716688
v 0.43245077 0.16179036 -0.16704488
v -0.75630891 0.03688589 0.01601888
v 0.08455805 0.32681933 0.12394395
v 0.34136006 -0.25612986 0.29919690
v -0.11583301 -0.36714706 -0.22849722
v -0.46696085 -0.14194044 0.25195509
v -0.53094393 0.15088913 0.15871145
v 0.26118064 0.04544800 0.33911312
v -0.25907484 0.19275735 -0.37640187
v -0.75674081 -0.10297808 -0.00402863
v 0.26502723 0.27524030 0.21100825
v 0.61229402 0.05707937 -0.04382426
v -0.60998756 -0.18276562 -0.01572645
v 0.36754712 -0.29770213 -0.05120631
v 0.40360543 0.01139119 -0.16797927
v -0.59607160 -0.27269900 -0.21758191
v -0.45710543 -0.18943399 0.32069317
v -0.59801006 -0.28276515 -0.01462294
v 0.52784330 0.03005364 -0.02403089
v -0.57053947 0.16742244 0.02190416
v 0.50069964 -0.17309052 0.18566999
v 0.33580452 -0.15648486 -0.21470013
v 0.32031703 0.29829514 -0.06215772
v 0.53189689 -0.06567474 -0.02863319
v 0.17462613 -0.33125222 -0.10375771
v 0.51186538 0.04530254 -0.10295759
v 0.34412199 -0.12161232 -0.38378280
v -0.01688443 -0.14542219 0.50143307
v -0.43670070 0.06964934 0.23709035
v -0.73206240 -0.08855404 0.00726569
v 0.28794613 0.10979909 -0.28695953
v 0.48495227 -0.09028900 -0.08775690
v -0.34923914 0.27884424 0.04205000
v -0.65004575 -0.21887095 -0.03663947
v 0.29032382 -0.18376161 -0.39224404
v 0.34366837 0.04398893 -0.33847708
v 0.09754511 -0.03864899 0.39046425
v -0.65899074 -0.19623685 -0.01135063
v 0.56544459 0.02867565 -0.03920482
v 0.59704459 0.00674677 0.08918528
v 0.42187753 0.23634522 0.12903957
v 0.53599608 -0.06901346 0.11316100
v 0.38907272 -0.14063916 -0.23950469
v -0.23444237 0.22412589 0.36817044
v -0.41859001 -0.17396428 0.33176607
v -0.73844802 -0.02269556 -0.01090625
v 0.44909179 -0.14244287 -0.13505960
v 0.44955915 -0.16355106 -0.05634019
v -0.57311004 -0.04596594 0.19462366
v -0.75380313 -0.09638445 -0.00856632
v -0.59661651 -0.10932278 0.11085883
v 0.38164249 0.01260242 -0.30010065
v -0.08921899 0.04339910 0.42523363
v 0.31008703 0.28395545 0.21312985
v 0.74732900 0.31869560 0.03061282
v 0.06443170 0.26480821 -0.34242183
v -0.40216491 -0.44508660 -0.01783215
v 0.38596904 0.27834833 0.05736921
v -0.54302704 -0.03276008 0.25641212
v 0.59646446 0.01017362 0.00102522
v 0.60341948 0.04960009 -0.05646942
v 0.57494032 0.03334253 -0.03787500
v 0.59063506 -0.00131430 0.11158783
v 0.28009078 0.31151527 0.14621617
v -0.73298013 -0.06585915 -0.01522723
v 0.30211213 0.24712506 -0.28350344
v 0.39619747 0.15412937 -0.22834376
v 0.58406669 0.01622876 0.05801869
v 0.45041797 -0.16381066 -0.18501696
v -0.57923102 -0.29489028 -0.11991702
v -0.56697327 -0.27730018 0.00632668
v -0.69411707 -0.14248118 -0.01692651
v 0.47120383 -0.02076873 -0.11660466
v -0.41607922 0.15916595 0.23358503
v 0.66660190 0.04034672 -0.03828019
v 0.55965686 -0.06560947 -0.01608891
v -0.74177134 -0.09174929 -0.01651394
v -0.75365198 -0.10873166 0.00170252
v 0.53871781 0.03754900 -0.08631241
v 0.77790713 0.25033209 -0.02893022
v -0.41760716 0.21445850 -0.03058034
v -0.45428732 -0.25110564 0.15554911
v -0.63769048 -0.13391702 -0.02766493
v 0.41972679 -0.19475071 0.16979542
v 0.37890178 0.19894896 -0.24820670
v 0.05576775 0.33696198 0.25644913
v 0.40402076 -0.06490779 -0.24563244
v -0.74679661 -0.03129999 -0.06925065
v -0.16668484 -0.26017910 0.52799463
v -0.77216077 -0.10806288 0.00867537
v -0.53132713 -0.12436260 0.25633952
v -0.69101489 -0.13338479 -0.04386321
v 0.63482976 0.07229754 0.04724634
v 0.55432546 0.00448833 0.06671526
v 0.25770906 0.23128884 0.27444211
v -0.32693449 -0.24631096 -0.13504478
v -0.21565667 0.19863257 -0.36206818
v -0.71253753 -0.15441251 -0.00300753
v -0.48032790 -0.17194322 0.22726592
v -0.60338587 -0.17478950 0.10451454
v 0.21805191 0.26586056 -0.26577389
v -0.09670853 0.25470006 0.38201332
v 0.09538493 0.37354076 -0.04405629
v -0.73228967 -0.08918808 -0.00043672
v -0.24124992 -0.35566312 0.28981486
v 0.41879284 0.08702394 0.20889765
v 0.50442588 -0.09379101 -0.00132445
v 0.39163637 0.14512676 -0.22297846
v 0.46791518 -0.07163484 0.25470981
v 0.57284492 -0.14766590 0.04477086
v 0.03290732 -0.26115483 0.48489141
v -0.49598914 -0.24568900 0.17479774
v -0.51594996 -0.21621080 0.16588360
v 0.49132627 -0.05871644 -0.20813820
v 0.28764966 -0.25881103 0.32246792
v -0.27996275 -0.35880876 0.26481226
v 0.63500410 0.08124132 -0.02992240
v -0.49893284 0.08188523 -0.07573991
v -0.68117863 -0.13660201 -0.05122706
v -0.64957708 -0.19369173 -0.05548179
v -0.65167552 -0.17818658 0.01920959
v -0.36837190 -0.27812484 0.27860296
v 0.43633023 -0.19141325 0.31159639
v 0.38779396 -0.16910508 -0.17316762
v -0.26831633 0.28259692 0.18844223
v 0.45105723 0.15284395 -0.17707482
v -0.56719917 -0.18831393 0.06244886
v 0.42915300 -0.01113424 -0.15230572
v 0.33431715 0.01783258 -0.31132054
v 0.38084984 0.20680982 -0.19241658
v 0.51913613 -0.10234894 0.07525757
v 0.54817086 -0.02427496 -0.08019722
v -0.53611183 -0.23105052 0.17264321
v -0.15005158 -0.24656382 0.50212854
v 0.44566128 -0.11673666 -0.00894244
v 0.38005447 -0.24792212 -0.12883742
v -0.69534171 0.05527325 0.00326584
v -0.39549631 0.28415403 -0.17030130
v 0.13657697 -0.30146316 0.09257701
v 0.34246689 -0.25788453 -0.25206754
v -0.46819413 -0.12774797 0.24894813
v -0.28244704 0.09779498 0.49108797
v -0.74898201 -0.09508539 -0.04326671
v -0.51199144 -0.21408382 0.16052198
v 0.50760424 -0.07365018 0.03484029
v -0.38324526 0.16786408 -0.15172070
v 0.17438187 0.28202891 -0.34295139
v -0.71605271 -0.11563842 -0.02013245
v 0.26646617 0.21386735 -0.31781575
v 0.35977557 0.12132692 -0.27843249
v 0.06988926 0.12005260 0.43777519
v 0.42605093 -0.18525605 0.11584081
v -0.76370168 -0.02483358 0.00836025
v -0.76237088 -0.14493033 -0.00160306
v 0.53673989 -0.00961697 -0.07203032
v -0.79207838 -0.04776452 0.02334044
v 0.14127663 -0.06745418 0.48200607
v 0.47029704 -0.07593126 -0.12909129
v -0.71266645 -0.10142084 0.00629129
v 0.01108970 -0.00028273 -0.40674010
v -0.78618169 -0.09391735 0.03785572
v 0.60396451 0.02173984 -0.01609234
v 0.02389235 0.37431878 0.03370090
v -0.49217278 0.00838207 0.19304696
v 0.15768923 -0.30283037 0.16996044
v 0.10261844 0.37967443 0.14466634
v -0.29398963 0.14841084 -0.35973561
v -0.49180397 0.17617641 0.17209169
v 0.30504447 0.24314538 -0.13741924
v -0.70708048 -0.13926041 -0.02243280
v 0.49744147 -0.19119145 -0.11983893
v 0.42027599 -0.13249746 0.23121166
v 0.18477006 -0.01571684 0.48617882
v 0.46592242 -0.11951785 0.13163665
v -0.53410780 0.09440543 -0.05049697
v 0.36862174 -0.01131930 -0.30371732
v 0.41456002 0.20216343 -0.18101338
v 0.54704171 -0.07263541 0.07653837
v 0.15621759 0.29792464 0.26457894
v 0.08104632 0.20570105 -0.17365307
v 0.04141258 0.35575864 0.13244446
v -0.49735427 -0.30608505 0.10003023
v 0.55549091 -0.00668008 -0.02657788
v -0.39171383 -0.01870292 -0.39008772
v 0.55762315 -0.00536162 -0.04271692
v -0.69840008 0.08189115 0.01475827
v 0.44923288 0.18302631 -0.14136854
v -0.01374901 -0.12363684 0.50165290
v -0.62609941 -0.18284160 -0.03696414
v -0.73143357 -0.05148593 -0.00366070
v -0.66897333 -0.21628393 -0.06853752
v 0.15241712 -0.30290380 0.17051494
v -0.77328408 -0.06631444 0.00880767
v 0.63818502 0.10963292 0.03497935
v -0.68836427 -0.12682103 -0.00168892
v -0.32635689 0.14248832 -0.29273289
v 0.61262858 0.00126535 -0.01168893
v 0.37789029 0.20053892 -0.19932963
v -0.58343911 -0.07339567 0.17887667
v -0.79084784 -0.08257667 -0.02049445
v 0.41496256 -0.14639355 0.21421331
v -0.06520711 -0.36151507 -0.24980773
v 0.54621714 0.07329243 0.15429656
v 0.41501927 0.18481618 -0.18810076
v 0.25695622 0.31042293 -0.05649115
v -0.36892447 -0.22528659 0.39685205
v -0.05379973 0.05873047 0.42877206
v 0.53524119 -0.00615010 -0.06193684
v 0.27924362 -0.32059246 0.18745455
v 0.34214801 0.36697298 0.06209223
v -0.22982644 0.16845450 -0.35890415
v 0.49002886 0.08392821 -0.10698055
v -0.30917466 0.21943709 0.19138208
v 0.42875654 -0.15493837 0.26916084
v 0.30561408 -0.21065363 -0.33799779
v 0.52757722 -0.03279343 -0.08560094
v 0.33545822 -0.19255507 0.29896295
v -0.71445751 -0.00638460 0.01085498
v -0.82548940 -0.12691405 0.03454852
v 0.33123696 0.23705350 -0.17536852
v 0.36300135 0.24962226 0.10293262
v -0.53070301 -0.19117430 0.18674761
v 0.01260492 0.21240640 0.24277534
v 0.34729356 0.12863432 0.28451526
v -0.40095171 -0.37409455 0.13697973
v -0.53264201 -0.09030738 0.16693155
v 0.40100640 -0.15875673 0.27658531
v 0.35350671 0.28504366 0.10291772
v 0.51497507 -0.00363523 -0.11304921
v 0.50159264 -0.15169787 0.20002154
v 0.39609849 0.03012317 -0.19512279
v -0.40232646 -0.25115621 0.30910185
v 0.36274493 0.25227863 -0.15739331
v 0.29624832 0.29179668 -0.19348966
v 0.50185591 -0.10302194 0.05263583

