# https://github.com/mikedh/trimesh
v -0.20704845 -0.35664177 -0.09836885
v -0.23156726 -0.28868479 -0.40157720
v 0.64438939 -0.04564913 0.05740303
v 0.12037623 0.30097336 0.01675802
v 0.20015135 -0.24785310 0.52493507
v 0.60658103 -0.26834834 0.00610756
v 0.10877603 0.27171835 0.34614962
v -0.14633439 -0.38629091 -0.34642744
v -0.29504704 -0.01505554 0.43769228
v -0.68676931 0.10180037 -0.02139300
v 0.29416031 0.24337594 0.09947066
v -0.25093859 -0.17841834 0.50061911
v 0.38967288 0.16884916 0.11084279
v -0.34627479 -0.05842882 0.39775258
v -0.48971182 0.02080758 0.09961432
v 0.62807262 -0.19254760 -0.05556561
v -0.32524711 -0.08186708 -0.50199252
v -0.07015835 -0.17387030 -0.59842896
v 0.55055583 -0.11183472 0.12899888
v -0.55943471 -0.15068564 -0.11214490
v -0.13476878 0.08860195 -0.44943577
v -0.58843434 -0.01001047 -0.00213790
v -0.64313489 -0.01263681 0.01059803
v 0.26287207 -0.40181383 -0.22802174
v 0.26821923 -0.39978695 0.01701346
v -0.37219033 0.16119777 -0.32734400
v -0.31357616 -0.32875738 -0.33026519
v -0.35212430 -0.27803737 -0.38862574
v -0.00700623 -0.34563962 0.33771139
v 0.49317622 0.22834386 -0.04771850
v -0.36406183 0.32516599 0.07870129
v 0.46963018 -0.22183600 0.25384438
v 0.20797242 -0.26499593 -0.50609064
v 0.76514941 0.14622074 0.03182368
v -0.30598596 -0.29592022 -0.38220024
v 0.29512039 -0.39468330 0.26861081
v -0.08520797 -0.35229751 0.18688887
v -0.02308197 -0.19293630 -0.54572862
v 0.04811519 -0.26352569 0.55938691
v -0.60613710 -0.03910334 0.01499962
v -0.52369267 -0.03126138 -0.09739351
v -0.10803118 -0.26025903 0.52313995
v 0.07555149 -0.37171715 -0.35764462
v -0.34680316 0.17145048 -0.22358458
v -0.22596084 0.30737495 -0.21989089
v -0.47478375 -0.23683950 -0.03042224
v 0.05649228 -0.36035913 -0.34344727
v 0.48025665 0.06470761 0.28345227
v 0.40733504 -0.29660401 -0.01841702
v 0.78786027 0.09356179 0.03416171
v -0.22582270 0.20036373 0.47328159
v 0.11364158 0.30607045 0.30533355
v -0.21173906 -0.22918187 -0.50423342
v -0.53801697 0.20958424 -0.01605064
v -0.01203357 -0.19615307 0.60740685
v -0.19356117 0.18741733 0.53979748
v -0.36272120 0.13016281 0.32010457
v -0.58221352 0.11677439 0.05708410
v -0.00644432 0.05081564 0.58219993
v -0.44448400 0.06642389 -0.20958631
v -0.76648939 0.11791007 -0.00892113
v 0.22683865 -0.39304984 -0.19585617
v -0.03098485 -0.34793955 0.40455374
v -0.03424531 -0.22872850 0.43746644
v 0.64072013 -0.07917300 -0.11315551
v 0.36673218 0.10196081 0.37560433
v 0.68106163 -0.02589643 0.03445606
v 0.50614369 0.08121884 0.24861102
v 0.05226004 -0.28714186 -0.50096321
v 0.24069013 -0.29293773 -0.50274581
v -0.12040721 0.24112719 0.35319918
v -0.17005885 -0.37166959 -0.34293142
v -0.01225313 0.02022877 -0.47913060
v 0.37725475 -0.12707293 -0.36915019
v -0.03641955 0.26720309 -0.31080279
v 0.04487623 0.25842381 0.45845804
v 0.32991803 0.14883500 0.41840395
v 0.23743644 0.12968068 0.46811482
v -0.29483020 0.29244995 -0.11244584
v -0.19771393 -0.23053852 0.55595434
v 0.53349435 -0.12737533 0.20852755
v 0.50811404 -0.26275957 -0.14012684
v -0.21202736 -0.30913293 -0.39759934
v -0.01445870 0.17396131 0.44068313
v -0.16278091 -0.33510128 0.13354628
v 0.10394188 0.27349061 0.32781678
v 0.70249283 0.01892807 0.03258982
v 0.61467999 -0.12143028 -0.15102091
v 0.56162155 -0.25002456 0.04815150
v 0.22703779 0.30222517 -0.14754404
v 0.68746012 0.03843004 -0.00144124
v 0.60567933 -0.05834938 0.03538841
v 0.04885684 -0.29674804 -0.53475231
v -0.38641334 0.24490465 0.21305989
v 0.38258684 -0.27269834 -0.34918278
v 0.48093891 -0.25761226 0.16311997
v 0.42330834 -0.28474790 0.28467685
v -0.39751697 0.10963042 -0.27745336
v -0.16465016 -0.25177175 -0.53547966
v 0.52917796 -0.31851697 -0.06814543
v -0.35468358 -0.03327825 0.41056365
v -0.36666083 -0.01941889 0.37000129
v -0.64548624 -0.02260661 -0.02640542
v -0.51696956 0.14380693 -0.15418682
v 0.27931106 -0.34842816 0.42816934
v -0.18003437 -0.38567159 -0.44087034
v 0.02029814 0.02711922 0.56274831
v 0.23229858 -0.07973599 0.55545789
v -0.20334983 -0.34820557 -0.29440930
v 0.55546707 -0.30559856 0.02050522
v -0.14609289 0.24135570 -0.29139799
v 0.57874197 -0.00662664 0.14061879
v 0.40334207 0.21873963 -0.07319971
v 0.54597461 0.04890308 0.12480539
v -0.00613517 -0.29830343 -0.48774126
v 0.04644196 0.17989214 0.48749399
v -0.39026576 0.01286682 0.44763643
v 0.38490522 0.22553445 0.07273406
v -0.06171027 -0.28082204 0.32571661
v -0.57435662 0.19920582 -0.05639011
v -0.06718126 -0.36323375 0.03525400
v -0.35098529 -0.16914985 -0.41856021
v 0.40332869 -0.37743160 0.18206903
v -0.56688094 0.01662979 0.00934409
v 0.63215923 0.17166322 0.07029699
v -0.37080076 -0.28617951 -0.29825008
v 0.61446255 0.00816274 -0.07087778
v 0.10330316 -0.30048120 -0.54099745
v -0.62064999 0.03997540 0.01486016
v 0.33113223 -0.25212985 -0.36841220
v 0.12433140 0.26502672 0.22150032
v 0.21071583 -0.41019365 -0.15721609
v -0.08372875 -0.12602919 -0.62493896
v 0.09693661 -0.31813562 -0.46337843
v -0.24611934 -0.08094557 -0.48662078
v 0.10884272 -0.24322917 -0.41951454
v 0.34865171 0.10563920 0.31697828
v 0.33773887 -0.39562178 -0.00060933
v 0.22941603 -0.23419444 0.49664018
v -0.53975284 0.14537987 -0.06878382
v -0.25678337 -0.00614808 0.48535711
v -0.10550171 0.22240916 0.37414014
v 0.01142201 -0.36493564 0.07886387
v -0.35875666 -0.05134505 0.41297686
v -0.57147652 0.00320067 -0.10901120
v -0.29509005 -0.33432877 -0.24840763
v 0.43310094 -0.28178290 -0.23742840
v -0.24068135 0.24332631 0.43132025
v 0.45779845 -0.37143111 -0.04515918
v 0.46858314 0.22970137 0.20330980
v -0.65208805 -0.02445734 -0.04715243
v 0.20088167 -0.30758673 0.52598912
v -0.80896401 0.07232150 -0.01289901
v -0.39114147 -0.08710899 0.33175606
v -0.24886274 0.26239896 -0.23232353
v -0.18913499 -0.34296253 0.03734275
v 0.25729764 -0.27187943 -0.46519443
v 0.41719371 -0.01036841 -0.38203862
v 0.17967875 0.02334233 0.60652286
v -0.21924049 -0.37018800 -0.39001811
v 0.42783752 0.20132630 0.24715567
v 0.70832163 0.09269058 0.01885822
v 0.30141997 0.22207342 -0.27296427
v 0.51313531 -0.26538384 0.23351811
v 0.03194124 -0.28909373 -0.48198336
v -0.13283178 0.16531131 -0.41944361
v 0.28770381 0.30327797 0.24639471
v 0.08768308 -0.33942604 0.23669568
v 0.06350327 -0.39951310 -0.01561355
v -0.46301520 -0.09449898 0.02315968
v 0.34041041 -0.10935362 0.46427658
v 0.46877593 -0.37436166 0.06911578
v -0.58754873 -0.15798634 -0.09952344
v 0.58821380 -0.03733110 0.05619933
v -0.56572551 -0.00481819 -0.04862735
v 0.08109999 -0.27659324 -0.53059804
v -0.20289204 -0.30514932 -0.39884317
v -0.27975488 0.22534308 0.13410637
v -0.40740830 -0.01110843 0.39677060
v -0.01501500 -0.14977282 0.60687566
v 0.12935588 -0.15180823 -0.55897272
v -0.27938840 -0.35490423 -0.39218181
v -0.49443665 -0.05031863 0.20728914
v 0.24822453 0.38605472 0.02446938
v -0.25847781 -0.25676435 -0.34398139
v 0.58926332 0.22266477 0.01386482
v -0.70420516 0.17085953 -0.02688142
v -0.63790655 -0.07516884 0.03999945
v -0.45829725 -0.02907348 -0.25152266
v 0.04712814 0.25422263 -0.17945305
v -0.54436707 0.07993919 0.15055452
v 0.26070693 -0.29845831 -0.48847830
v -0.61053318 0.07513162 0.01468185
v -0.47513279 -0.22818315 -0.11328492
v -0.69245994 0.05519073 -0.04989183
v 0.48440319 0.18272668 -0.04912533
v 0.25484800 0.30805737 0.02286592
v 0.33823797 0.18972255 0.24887376
v 0.52318990 -0.14674731 0.20670918
v -0.32783502 -0.15941441 -0.46028712
v -0.18855600 -0.15562773 -0.59426838
v -0.21195093 -0.38410330 -0.44152915
v 0.20981438 -0.37592173 0.05956742
v 0.54937238 -0.25111639 -0.07653857
v -0.67159688 0.01328528 0.03378157
v -0.17067905 -0.35703248 -0.34473723
v 0.08325239 -0.37514582 0.41169715
v -0.27336377 0.11993518 0.45047629
v 0.29855067 0.33707544 0.09215028
v -0.24488764 -0.25868183 0.41001496
v 0.59556502 -0.15497918 -0.10332169
v 0.15131144 0.30797699 -0.04355856
v -0.57784128 -0.07495531 0.01836079
v 0.46147627 -0.30657122 0.18280831
v 0.22514372 -0.39559352 -0.22510394
v 0.51010239 0.19505483 0.06781087
v 0.25995180 -0.30699056 -0.34822774
v 0.45041892 -0.23759767 0.31991950
v -0.31318188 -0.17398795 -0.45580530
v -0.35223800 0.14457011 0.29497606
v 0.22664528 0.26202747 -0.32463649
v 0.61515307 -0.01838486 0.09382202
v -0.59721285 -0.12799120 -0.01164818
v -0.23959017 -0.15359467 0.50710452
v 0.53828698 -0.01181585 0.11002018
v 0.02679627 -0.32216942 -0.38513121
v -0.50616550 -0.05487476 -0.32693017
v 0.07548229 -0.23282705 -0.43302009
v 0.57104588 0.13210627 -0.02340776
v 0.27655199 0.27118003 0.26697332
v -0.56145662 -0.08615325 -0.03392193
v 0.03413662 0.28081062 0.35444796
v -0.40122503 -0.29916251 -0.23806337
v -0.48752457 -0.08618563 -0.31555223
v 0.09263521 -0.13948154 -0.55949628
v -0.56389546 0.03159635 0.01759759
v -0.46442208 -0.21050286 -0.36796445
v 0.20320384 -0.30586693 -0.47216594
v 0.66023195 0.02160148 -0.10566519
v 0.33705047 -0.23275569 -0.41502321
v 0.05098132 0.23102722 -0.33000177
v -0.22637457 0.02890579 -0.45454890
v 0.59226406 0.08864111 0.01876260
v 0.34780505 -0.32290652 0.39018202
v -0.23392785 0.05785041 0.44062454
v 0.06784184 -0.31539077 -0.46777576
v 0.07511299 0.35095519 0.24073206
v 0.15178284 -0.16030353 0.60255969
v 0.30792600 -0.36368439 -0.03538153
v 0.35357565 0.23799074 0.36616355
v 0.65292317 -0.10274968 0.02348767
v 0.28243881 0.23337370 -0.13568769
v -0.26513875 -0.00001955 0.52536678
v -0.36368281 -0.09523327 0.44884449
v 0.55440682 0.18667799 0.05573386
v -0.02678533 -0.26128533 -0.52992165
v 0.37175861 -0.16855861 0.34131789
v 0.46681860 -0.05366418 0.25597161
v -0.32005534 -0.17540461 -0.47845396
v 0.18196449 0.33208582 0.15013842
v 0.07588269 -0.26018563 -0.59686005
v -0.29271370 -0.32326975 -0.19929805
v 0.76128811 0.19323301 0.01263757
v -0.08980751 -0.02015430 -0.52387714
v -0.66546601 0.15023534 0.01221627
v -0.37144595 -0.23821376 -0.22502193
v 0.49811637 -0.31473008 -0.10527331
v 0.02095293 0.22930196 -0.34833422
v -0.42447278 -0.25116628 -0.25192881
v 0.77049059 -0.05981679 0.00558242
v 0.26353714 -0.38260931 -0.02562978
v -0.45996666 -0.08626548 0.03912136
v 0.31330863 -0.38465318 0.06510078
v -0.23578550 -0.26934433 -0.43520355
v -0.55922812 -0.03747468 0.02095321
v 0.21230003 -0.12297836 0.54970652
v 0.40182447 0.16371070 0.34074086
v 0.36284918 0.04128070 0.41318113
v 0.55737907 -0.30560336 -0.00164987
v -0.48506889 0.13024127 0.15199298
v 0.04187351 -0.09653455 -0.56435668
v -0.63948500 -0.04956976 0.00865516
v 0.77944481 0.09850692 -0.01207832
v -0.00215542 0.00893499 0.57246155
v -0.10501625 -0.29029998 -0.44500428
v -0.12043306 -0.30177158 -0.39637563
v -0.18332624 -0.25353765 0.44645900
v 0.06248349 -0.36958984 0.01593235
v 0.28666133 -0.40911174 -0.18822587
v -0.03357331 0.38182896 0.19422504
v -0.59180576 0.14433758 -0.05487923
v 0.44033349 -0.20768477 0.27425963
v 0.14812653 -0.28687099 0.54060411
v 0.45336479 0.14617489 -0.14258562
v -0.00220512 -0.14892906 0.55143744
v 0.02297765 -0.40362716 -0.03398533
v 0.39749783 -0.31170943 0.36461505
v -0.41406548 -0.14242141 0.23161934
v 0.20799311 -0.37778568 0.02871362
v -0.24914801 -0.35504818 -0.31494212
v 0.13544244 -0.35472122 0.15229109
v -0.23926124 -0.36135024 -0.26566532
v 0.31866246 -0.33133572 0.39425153
v 0.03276490 0.45287371 0.08009610
v 0.10933496 0.23112765 0.46270794
v -0.06971174 -0.35171673 0.14078854
v -0.39504650 0.00248453 0.25070426
v 0.28601190 0.25927514 0.30404752
v -0.68044502 -0.00319877 0.03478452
v -0.11543976 -0.32012177 -0.39111927
v -0.24310486 -0.00078416 0.48923507
v -0.62752146 -0.09313363 0.01759911
v 0.03424097 0.32742500 0.25843540
v 0.26789972 -0.38737831 -0.23205110
v 0.16895486 -0.01115452 -0.47825515
v -0.18741608 -0.36568391 0.05019052
v -0.53030837 0.13592529 -0.06478682
v -0.17082134 -0.37017325 -0.39711314
v 0.18099959 -0.28545886 -0.50266141
v 0.47332513 -0.35675251 0.00113098
v 0.03826088 -0.30203891 0.52742600
v 0.23937944 -0.37187612 0.20192055
v -0.07112832 0.26352140 0.35536402
v 0.27640733 0.13705355 0.45632970
v -0.24812767 0.17160878 0.45603085
v 0.44654214 -0.21837920 -0.23505518
v -0.37287819 -0.26607871 -0.31380507
v 0.30650187 0.27036774 0.34402260
v -0.15194055 0.06858902 0.53377295
v -0.59153390 0.04649781 0.02035101
v -0.35131872 0.25189972 -0.14806643
v -0.30118617 0.09079372 0.46560407
v 0.10176738 -0.20688234 0.56694382
v -0.40865877 0.32234544 -0.04702862
v 0.27350420 -0.32569358 0.51369095
v -0.38151717 0.02225690 0.24857576
v -0.07198400 -0.28717715 -0.50215155
v -0.56343633 0.01437540 -0.10322133
v -0.44278753 -0.23738320 -0.03580177
v 0.58905631 0.09428748 0.06705248
v -0.19972132 -0.37007719 -0.46240050
v 0.31656733 -0.01597843 0.50593930
v 0.23087537 0.29411870 -0.02830128
v -0.47290576 0.06884141 -0.17738886
v 0.53748220 0.19206500 0.05656831
v -0.09189320 -0.35211110 0.03636271
v 0.40704784 0.23521195 0.18204543
v 0.38593560 -0.24984241 -0.35548556
v 0.72609234 -0.10615523 -0.01570461
v -0.31457651 -0.19252205 -0.35861272
v 0.55827028 0.16217959 0.09593637
v 0.12899353 0.30890232 0.01608438
v -0.20703994 -0.07969046 0.53534353
v -0.32457882 0.29187900 0.23864926
v 0.70136636 0.20558691 0.03710846
v 0.17698294 -0.40836865 0.26965114
v 0.46650118 -0.34092483 0.13797931
v -0.10978268 -0.35799640 0.02460112
v 0.11431445 -0.28239185 -0.53862727
v -0.50394702 0.00329879 0.08754638
v -0.65750206 0.09765778 -0.04807843
v 0.13247350 -0.27916786 0.55981123
v -0.41437998 -0.19141050 -0.38321602
v 0.33918837 -0.34345466 0.38388270
v -0.32880771 0.06677252 0.40188727
v 0.56445980 0.24687371 0.01413219
v 0.42570448 0.16153757 -0.12976614
v -0.44631296 -0.18868403 -0.00747824
v -0.16411182 -0.25964224 -0.49564219
v 0.39171192 0.08246993 -0.21696095
v 0.33627596 0.14293097 0.37893641
v -0.29573992 -0.32596958 -0.40939912
v 0.08940203 -0.29091281 -0.57681131
v 0.14556906 -0.28385875 -0.52273864
v 0.64900029 -0.12789206 0.07224546
v 0.73811877 -0.04711027 -0.01253301
v 0.00437936 -0.36610913 0.32989925
v -0.12065724 -0.29073527 0.38613522
v 0.39930224 0.02671299 -0.36811391
v 0.63367665 -0.16365522 -0.01005380
v 0.21070927 0.15664558 0.36778712
v -0.15504101 -0.28233457 -0.40829128
v 0.14372453 -0.39153087 0.26552457
v -0.46254191 -0.18605170 -0.36177695
v -0.30452704 -0.22646901 0.44736654
v 0.48383147 0.22210407 0.08055525
v -0.07217212 0.27808475 0.44311008
v 0.41360232 -0.35418040 0.28217065
v 0.28607079 -0.30506465 0.46624714
v -0.69250476 0.16293722 0.00150132
v 0.39492396 -0.34668908 -0.21666984
v -0.59649777 0.03846087 0.02149737
v 0.13628918 0.26203737 0.38398996
v -0.53223580 0.10724612 -0.07136786
v 0.18653756 0.24413636 -0.21676099
v -0.48844624 -0.15899533 0.00470927
v 0.38624984 -0.32634017 0.30956471
v -0.03533104 0.28788370 -0.25135916
v 0.30114943 -0.07374462 0.50330466
v 0.40030700 0.29053721 0.13256222
v 0.11702859 0.12001333 -0.40394598
v 0.66577935 -0.16194780 0.02821103
v 0.73516697 -0.01114646 -0.03470259
v -0.59668493 0.18919978 -0.00964643
v -0.35109794 -0.00776939 0.41605937
v 0.16788696 -0.39359659 0.22903389
v -0.28465259 -0.27927440 -0.32783777
v -0.37664333 -0.00785488 0.39228842
v -0.05752239 -0.35250568 -0.01881903
v 0.11883289 -0.38172272 0.27225864
v -0.22085902 0.17765296 0.42216408
v -0.30875969 -0.08524013 -0.52332819
v -0.19650698 -0.37446156 -0.37242746
v 0.05880106 0.25054246 0.47340471
v -0.14166580 -0.39149806 -0.47050676
v 0.30780017 -0.25452751 -0.36301994
v -0.30811214 -0.30061725 -0.16061404
v 0.12620541 -0.39561763 0.27544963
v -0.54645121 -0.03308353 0.07911390
v -0.08250959 -0.27032652 -0.55967069
v -0.32445568 0.02438521 0.45108861
v -0.38507113 0.14743423 0.21663615
v -0.42890620 0.01661048 0.26603878
v 0.27697918 0.23997068 0.37807357
v -0.66509938 0.07521011 0.01192269
v 0.27180082 -0.39883369 -0.00017814
v 0.39651695 -0.39684385 0.00018088
v 0.24945389 -0.36486959 -0.26416701
v 0.66093767 -0.18821999 0.00794140
v 0.33843964 0.29055181 0.27190584
v -0.25727767 -0.30917877 -0.12967935
v -0.52823162 -0.05084038 -0.00206751
v -0.04431620 -0.35700637 0.11339826
v 0.24583660 -0.38132575 0.03504796
v 0.41036975 -0.23899372 -0.29834142
v -0.56584740 -0.16459292 0.00729847
v -0.18506800 -0.34013382 -0.42178890
v -0.18669356 -0.34530538 -0.27083579
v -0.00624515 0.35773540 -0.07264420
v -0.03611071 -0.20672593 -0.52082974
v 0.33512142 -0.37913850 -0.03816855
v 0.59821528 0.20597708 0.04083674
v 0.66062051 -0.14326432 0.04382053
v 0.48079485 -0.11741029 0.20931654
v -0.40388533 -0.19548422 -0.24164134
v 0.08733279 -0.27408394 -0.52290130
v -0.32604319 0.14732862 0.37666771
v -0.25997812 -0.36805171 0.24817555
v 0.34952658 -0.26069325 -0.45544285
v 0.57034403 -0.05171271 0.10361268
v 0.40757900 -0.35314253 -0.17194851
v -0.24850576 0.25053176 0.34238505
v 0.00894840 0.20987964 0.49716914
v 0.58971608 -0.23445621 -0.00030423
v 0.17205536 -0.36948541 0.14738142
v -0.19028106 0.16343725 0.43118274
v 0.13825983 -0.28648245 -0.49218386
v 0.12955368 -0.32701901 0.28486907
v 0.15310484 0.35811874 0.17046525
v -0.36807618 -0.29746231 -0.31770417
v -0.19302830 -0.38716009 -0.46372598
v -0.49322638 0.10680966 -0.13430241
v -0.25191024 -0.23185085 -0.43772420
v -0.35803488 0.01458307 -0.37787232
v -0.29995930 -0.02857810 0.43803531
v 0.39791700 0.22915252 0.25785953
v -0.38960251 0.17261851 -0.25917912
v 0.50926566 -0.02331999 0.21851711
v -0.16085015 -0.37371555 -0.43619597
v 0.48468375 -0.34625131 -0.07804184
v -0.06359527 -0.33525753 0.43454182
v 0.58209056 0.09957273 0.08153912
v 0.84610218 0.15460196 -0.02428575
v -0.51798558 0.13581523 -0.09426616
v -0.25062916 -0.16017513 0.47638038
v -0.41357064 0.07475030 0.30589363
v -0.28905576 -0.33116201 -0.24856213
v -0.21039271 -0.39274094 -0.32932469
v 0.52570379 -0.23088790 0.16990447
v 0.42715126 -0.35061020 0.15167505
v 0.23766835 -0.38591361 -0.00174777
v -0.02761874 -0.31579569 -0.14628455
v -0.51369691 -0.10035832 -0.01975511
v 0.42160398 -0.32286176 -0.21359265
v 0.34480533 0.26197231 -0.04895642
v 0.20205154 -0.20698237 -0.48436102
v 0.63262039 -0.01704283 0.10332261
v -0.53114992 -0.01922873 -0.00760606
v 0.61601430 -0.17699723 0.07719389
v 0.18970545 0.26191539 0.40719900
v -0.20930660 -0.34859437 -0.30994612
v 0.77266419 0.09552636 0.01673131
v 0.28871107 0.21314694 -0.29277551
v -0.54505259 0.07732926 0.01076549
v 0.66463387 0.02839330 0.02672698
v -0.07867280 -0.27258611 0.27631617
v -0.32780233 0.18093786 0.25874147
v 0.34260502 -0.30231854 0.33644050
v -0.13178527 -0.25202316 -0.57507658
v -0.21306595 0.23043239 -0.26372513
v 0.26527447 -0.01848160 -0.39834163
v 0.49760917 -0.36707219 0.04265577
v 0.33877569 -0.35201085 -0.23434928
v 0.69874972 -0.13769555 -0.03625687
v 0.58342499 -0.24848828 -0.13304524
v 0.07214219 -0.22737011 0.56231225
v 0.27860397 -0.38622826 -0.03784592
v -0.01438827 -0.28684178 0.51923257
v 0.37346852 -0.00509490 0.48306611
v 0.50748897 0.05398156 0.25671786
v -0.60772371 0.23517416 -0.03339003
v 0.75151271 0.19173846 0.03885309
v 0.16674769 0.03758616 -0.42240250
v 0.43745929 -0.27481145 0.23223391
v 0.19688316 -0.18883438 0.58535385
v -0.54875398 0.24638069 0.01856545
v 0.63818187 -0.16599996 0.01647025
v 0.26678684 0.23960415 -0.27756819
v 0.77167338 0.05284566 0.02442390
v 0.50418538 0.16988233 -0.05741248
v -0.38490516 0.24443296 -0.14115374
v -0.32013077 -0.31892723 -0.24566627
v 0.45450467 -0.21701297 0.31635538
v 0.22053334 0.33356363 0.07872103
v -0.50167859 -0.05851489 -0.10930221
v -0.38478965 0.05468930 0.42602542
v 0.43162060 0.26672292 0.08063797
v -0.20008922 0.18017787 0.43184036
v 0.40355524 -0.35997641 0.12823644
v -0.69278729 0.06315233 0.00888234
v 0.12723634 -0.35488677 0.25634032
v 0.48134443 -0.29134846 -0.10792438
v -0.12379871 -0.34338865 0.38282228
v -0.25107673 0.34710893 -0.14035511
v -0.43439972 0.01711461 -0.31202602
v 0.72896957 0.00090188 -0.00341772
v -0.46865529 0.09180139 -0.29816210
v 0.59988594 0.09423330 0.10204631
v -0.64183438 -0.01580486 0.00228696
v 0.62694645 0.09008203 0.06742242
v -0.00031482 0.32313213 0.28951746
v 0.35351521 0.26155561 0.08116905
v -0.15913011 -0.35674721 -0.31170136
v 0.55126327 -0.27626073 0.05763742
v 0.16246626 -0.29619750 -0.51193321
v -0.65029275 -0.08463298 0.01177081
v 0.52554041 -0.19024381 0.04061121
v -0.06216480 0.33770755 -0.09664577
v -0.04006425 -0.19605643 -0.55079967
v -0.34841371 -0.11578901 -0.43717429
v 0.91337478 0.14140488 -0.01033826
v 0.31257665 -0.26634988 0.41361272
v 0.12553364 -0.37670723 0.37947485
v -0.60865039 0.09540859 0.03753600
v 0.44995344 -0.12916619 0.29013276
v -0.34931183 -0.24339777 -0.40977609
v -0.06014244 0.35345790 0.19922361
v 0.21499193 -0.37901500 0.15830192
v -0.58393735 0.00881385 0.07261031
v 0.40651721 -0.36085999 -0.07478585
v 0.00462676 -0.29391065 -0.50086480
v -0.79572797 0.15227202 -0.00758542
v -0.46271250 -0.07808140 -0.25511587
v 0.51780146 -0.14559874 0.23187034
v 0.41227323 -0.39302003 -0.02605046
v -0.48072892 -0.09357444 0.02890146
v 0.34347609 -0.38248086 0.27575809
v 0.29477832 -0.30331403 0.46246696
v -0.61104947 0.05810496 -0.00792225
v -0.28088754 -0.34570804 -0.40092558
v -0.63642281 0.09498449 -0.00239259
v 0.01904908 -0.34647053 0.28444725
v -0.06697468 0.37929466 0.19220583
v 0.05847111 -0.38736513 0.19842035
v 0.68789369 -0.03848279 0.01167734
v 0.73090053 0.10092188 0.03029042
v -0.51789051 -0.10189762 0.04107547
v -0.14209832 0.30927697 0.32650846
v 0.43823093 0.15377240 0.31012148
v 0.39910474 -0.29969561 0.27052170
v -0.38931042 -0.21166655 0.01382744
v -0.33870277 -0.10344324 -0.38131231
v -0.49537745 0.19586021 -0.06782624
v 0.59422922 -0.00001104 0.07647704
v 0.22250968 0.30194098 0.32450849
v -0.61283553 -0.08993492 0.03046796
v 0.06139041 0.15569466 0.49327168
v -0.23890470 -0.29307437 -0.43385929
v 0.13812071 0.30366820 0.01250730
v 0.54021209 0.09892587 0.17686230
v -0.03477537 -0.04156304 -0.49282593
v -0.35851982 0.14257200 0.39591438
v 0.00305334 -0.33694944 0.12166044
v 0.07289378 0.03052649 0.52140486
v 0.12463159 -0.26774785 -0.54792804
v -0.25272331 -0.35982904 -0.40239173
v 0.18654707 -0.39441451 0.22296374
v 0.20901927 0.35132930 -0.02876285
v 0.54902339 0.19250020 -0.03113529
v -0.35696852 -0.29827160 -0.34183186
v 0.08804277 0.15711559 0.27247691
v 0.67150426 -0.06088942 -0.00353967
v 0.47004965 -0.27917638 0.19477095
v 0.30820689 -0.30185097 -0.19178385
v -0.64290035 -0.08693305 0.03158770
v -0.44864425 -0.08633785 0.04900971
v 0.47116935 0.23840733 0.21392892
v -0.41901386 0.04155642 -0.31236434
v 0.08898672 0.35462427 0.15570891
v 0.40592739 -0.32540932 0.35862997
v -0.23838747 -0.29290152 0.39129353
v 0.20911527 0.26467580 0.39569923
v 0.04734173 -0.37290940 0.33176604
v -0.51940835 0.06434499 -0.18148541
v 0.05427663 -0.34342605 0.43509358
v -0.31158254 -0.27344370 -0.45157045
v 0.77085018 0.12056933 -0.04043987
v 0.24205595 0.33379358 0.12264694
v -0.53784031 0.11506504 -0.06517778
v 0.41980749 -0.31911731 -0.21861252
v -0.14260270 0.21793804 0.45878538
v 0.46253565 -0.35393691 -0.06667992
v 0.32786113 -0.39107260 0.20239550
v -0.33869207 0.15608370 0.40509611
v 0.68494982 -0.03375988 -0.01768255
v -0.18937834 0.15891919 -0.39817089
v 0.11652821 -0.35675013 0.18259719
v 0.05947682 -0.34780872 0.09871834
v 0.48539805 0.03052059 0.25188315
v -0.32971609 0.15990807 -0.19761723
v 0.08875100 -0.38575497 0.39722896
v 0.56761861 -0.18243109 0.08746514
v -0.65386331 -0.03789474 0.02404594
v 0.29524297 -0.38130277 -0.23383293
v 0.65184188 0.00734618 -0.01460919
v 0.07568870 -0.02636151 0.56485325
v 0.61240005 -0.26102039 -0.03223440
v 0.38429272 0.13904254 -0.23381400
v -0.39830118 -0.25869620 -0.12701857
v -0.12233819 -0.31584984 -0.38150123
v -0.60461831 -0.00405078 -0.04438168
v -0.19630116 -0.36421749 -0.45028514
v 0.12249811 -0.28013462 -0.54604250
v -0.47705317 -0.20452625 -0.09525287
v 0.47994781 -0.32964483 -0.18212266
v 0.32262033 0.16635971 -0.27891424
v -0.25640744 0.27124617 -0.20516296
v 0.22128007 0.26751280 -0.26826671
v -0.29904154 -0.26963407 -0.35123786
v 0.05159689 -0.21005972 -0.52570570
v 0.43679428 -0.35706258 -0.14231081
v -0.59391886 -0.13580854 0.01293198
v 0.09889741 -0.39230549 0.25361437
v -0.05683148 -0.34269381 0.18300529
v 0.39268333 -0.28030506 -0.17176872
v 0.34667534 -0.29551667 -0.37108237
v -0.35230446 -0.29779521 -0.10237029
v -0.20682144 -0.31193161 0.12277272
v 0.47125009 -0.30077824 0.12096155
v 0.42467600 -0.34890279 0.31993154
v 0.03018568 -0.21497113 0.58111989
v -0.18457285 0.26349378 -0.24458960
v -0.17812160 -0.25558949 -0.52678382
v -0.09547867 -0.33602169 0.37357277
v 0.26499471 -0.19662845 -0.34191778
v 0.35455716 -0.33752501 0.28627068
v 0.04608366 0.26236084 -0.25434515
v -0.19618939 -0.18319783 -0.60049361
v -0.04061909 -0.16961016 -0.57395685
v 0.68847150 0.04859206 0.06803241
v 0.48376447 -0.29738986 0.16209760
v -0.63722503 -0.00034585 0.02379465
v 0.06922737 -0.31719896 0.41421056
v -0.69602716 0.12003066 -0.02089555
v 0.12747340 -0.36645991 0.43532014
v 0.72732234 0.12124310 0.02522532
v 0.49968103 -0.33508015 -0.03761712
v 0.33340892 -0.09074748 0.49078900
v 0.22078833 0.27085656 -0.05898888
v -0.21876481 0.07731432 0.48627579
v 0.32657290 0.26382926 0.26765096
v 0.56506389 -0.02627993 0.03013828
v 0.53309590 -0.24326789 0.16711248
v 0.30290490 -0.03861608 0.44026041
v -0.44167429 0.08009472 -0.22635221
v 0.02718561 -0.37115291 -0.32893094
v 0.09160472 -0.22490737 -0.58987260
v -0.44961035 -0.18229488 0.07999009
v -0.24352825 -0.01053268 0.51552033
v -0.42576215 -0.19291541 -0.28854886
v -0.37676537 0.01343363 0.42814183
v 0.36064139 -0.23526615 -0.38975632
v 0.28937852 -0.28085458 0.47550172
v 0.17569277 -0.37550217 -0.25605291
v 0.16592965 -0.06475739 0.59405410
v 0.12152962 0.30500957 0.29227191
v -0.56431836 0.07904099 -0.00514010
v -0.07341087 -0.36421394 0.00425935
v -0.21128497 -0.31123823 -0.40549743
v -0.04608965 -0.31731004 0.32584843
v 0.64392501 -0.01240294 0.02962103
v 0.51513267 0.01640993 -0.21693864
v -0.08669904 -0.23336959 0.58720344
v 0.04309377 -0.27992535 -0.51568747
v -0.65731245 0.27226862 -0.05685627
v 0.37887496 0.04820405 0.07662065
v -0.22616473 -0.33936566 -0.32855785
v -0.00595035 -0.26949474 -0.54518557
v -0.03915399 -0.35712919 0.22803910
v 0.21427341 -0.31721649 0.42255831
v 0.60556209 -0.21090367 0.03692344
v 0.46453959 0.23350227 0.14375879
v 0.07428415 -0.37941653 0.38549992
v 0.46492344 -0.00601359 0.32834464
v -0.09032494 -0.26251259 -0.50770032
v -0.18518798 -0.09004980 0.53531671
v -0.50905758 0.03476430 -0.19702099
v -0.41323987 0.21721491 -0.18729571
v -0.53977793 -0.15527363 0.12779534
v 0.07422091 -0.31816447 -0.46378696
v -0.33248278 -0.30199498 0.41868964
v -0.15105131 -0.31938165 0.32140991
v -0.36030048 -0.01797584 0.40923226
v -0.31348732 0.20104998 0.21479358
v -0.06104070 0.21406338 0.45340151
v 0.28332618 -0.30495539 0.46031258
v -0.49727234 0.13553432 0.14621761
v 0.56673765 0.04624069 0.08983229
v -0.36817512 -0.27785262 -0.19643599
v 0.01616287 0.34195593 -0.07502969
v 0.70277846 -0.11785866 0.12346490
v 0.01188919 -0.05683417 0.62583435
v -0.24599274 0.18855064 0.46256301
v -0.57488072 0.18427336 0.08285867
v -0.31553906 -0.30280042 -0.45064053
v -0.46142131 0.07933974 -0.21903054
v -0.32549256 -0.35935035 0.21901673
v -0.39229581 0.16412604 0.22776650
v -0.47035480 0.11482288 0.22567187
v -0.04232687 -0.30550048 0.48188260
v 0.00365670 -0.18585888 0.58844233
v 0.71205699 0.13469124 0.04233482
v -0.25305131 0.22431287 0.29353815
v 0.30510101 0.13682327 0.42965010
v 0.34732065 -0.15516451 -0.29114938
v 0.29519793 0.29658726 -0.04013618
v 0.43889314 -0.37521219 -0.01287207
v -0.37514991 -0.27670860 -0.11559701
v -0.21852219 -0.37988302 -0.45766550
v 0.21536076 0.26971343 -0.01469017
v 0.15536778 0.36369231 0.17144838
v 0.26149011 -0.36665177 0.32063079
v -0.20604122 -0.18110129 -0.48275512
v -0.21013775 -0.37076721 -0.37833688
v 0.21396634 0.06901287 0.51846111
v -0.32527286 -0.08300989 -0.42438230
v -0.24194422 0.28564411 0.27875525
v -0.13775983 0.32274649 0.22901584
v 0.38680977 0.19978969 -0.20828728
v 0.14518350 0.20339061 0.43774670
v 0.33627367 -0.34563953 -0.10991275
v 0.48727927 0.23141149 0.04188573
v 0.13927370 -0.06463758 -0.46152514
v 0.02058922 0.35696846 -0.00289609
v 0.40102226 0.25613803 0.06128352
v 0.05346566 -0.36822382 0.22466660
v 0.43779421 0.02290551 0.37670228
v 0.44642925 0.07069232 0.16749726
v 0.61018491 0.06049120 0.09910323
v 0.63306171 0.01948033 0.05904531
v -0.50471550 0.09691137 -0.11635533
v -0.58600241 0.07249888 0.03961631
v -0.22468384 -0.18589982 -0.52042419
v -0.15987775 0.09249359 -0.44054276
v 0.26679695 -0.36496735 0.46190360
v -0.00112090 0.25338066 -0.34754100
v -0.21605979 0.27967227 -0.23591605
v 0.30131614 0.22561023 0.40009388
v -0.27819598 -0.30543062 -0.46316460
v 0.41857460 0.06932703 -0.25391823
v 0.32515079 -0.10363525 0.48301372
v 0.64329147 -0.15009432 0.02370523
v 0.11733572 0.26899785 0.33562300
v 0.68228334 -0.05304883 0.00473179
v -0.51854843 -0.13169682 0.15374196
v 0.38963541 0.17041907 0.18272142
v 0.55550987 0.00864382 0.19129810
v -0.23005185 -0.23740393 0.50204462
v -0.53606486 0.19942996 -0.09722784
v 0.19658794 0.05891386 0.58333033
v -0.15114108 -0.28723237 -0.52345723
v 0.57125449 -0.27175587 -0.13219362
v 0.77155125 0.01821233 -0.00888738
v 0.33438975 0.17874564 0.31676197
v -0.45832634 0.08298253 0.21257226
v 0.36864302 -0.39118689 -0.04279470
v 0.35233092 0.33113992 0.12028891
v -0.09096923 0.40095845 -0.06883566
v -0.68297678 0.18099812 -0.04576112
v 0.00435346 -0.26778206 -0.55112290
v 0.43314201 -0.30433595 -0.09430437
v -0.51801133 -0.07515721 -0.41061279
v 0.73354769 0.13594970 -0.01960544
v 0.33178812 -0.21762562 0.37887442
v 0.29990840 -0.36083692 0.19530697
v -0.11365456 -0.27325463 -0.55161017
v 0.12748031 0.28571048 0.37016875
v -0.39413962 -0.15042040 0.07536516
v -0.68505532 0.15570040 0.03365234
v 0.67703158 -0.11989582 0.01150824
v -0.60256356 -0.07185645 0.01039740
v -0.54441923 -0.20394114 -0.20869467
v 0.24873701 0.37751558 0.02971569
v 0.44581261 -0.35302025 -0.00729414
v 0.53715229 0.11258487 0.23179670
v -0.55429876 0.15345818 -0.06323490
v -0.06640294 -0.16472775 -0.60137081
v 0.16037136 0.31835300 -0.18396206
v 0.44426790 0.13961104 0.27448404
v 0.26016545 0.07164639 0.55789447
v 0.36143568 0.04332955 0.42515391
v 0.35584030 0.26742965 0.23172657
v -0.53335154 0.00063759 -0.10733402
v 0.18197034 0.17970710 0.30842811
v -0.43196672 -0.24730673 -0.09341320
v -0.23957750 -0.34091207 -0.34031662
v -0.07791231 -0.31408921 0.50866783
v -0.20800185 -0.33639574 -0.18581256
v -0.25843477 -0.34102792 -0.36746436
v -0.40271953 0.12932263 0.22846010
v 0.02040491 -0.36567327 0.38486001
v -0.50782758 -0.05190976 -0.09548798
v 0.37783304 -0.30250514 0.28658327
v 0.71418554 0.00786196 -0.00008546
v 0.61799812 -0.04982181 0.01852193
v 0.01840474 -0.27769485 -0.54311484
v 0.18218102 -0.20180127 0.55352676
v -0.33470944 -0.10841862 -0.39637291
v 0.13674700 -0.27367350 -0.54565293
v -0.18454586 -0.37756234 -0.44863802
v 0.22021629 0.31974790 -0.15331756
v 0.29861346 -0.38421699 -0.22213888
v 0.06721959 0.33800817 -0.03994681
v 0.79232466 0.13736567 -0.01242764
v 0.65434003 -0.08006273 0.05517922
v 0.59394342 0.20352945 0.00360545
v 0.66160464 -0.19285488 -0.04976895
v 0.16931695 -0.02519031 0.54042715
v -0.74476808 0.19403748 0.03390354
v -0.14284630 0.26497930 0.41257960
v 0.36432979 -0.36932373 0.03896150
v -0.09034474 -0.28600794 -0.52632809
v 0.21553271 -0.32151219 -0.08628334
v -0.00306965 -0.27034378 -0.52163905
v 0.60886550 -0.18124084 0.03514190
v -0.18989633 0.15511064 -0.41987473
v -0.29462168 -0.16096902 0.52664775
v -0.47330725 0.28924790 0.10268693
v 0.50932860 -0.27372235 0.10476147
v -0.46820137 -0.01259401 0.16017619
v 0.71411890 -0.05893739 -0.01162044
v 0.10700900 0.33721384 0.15892081
v 0.56887782 -0.22340012 0.02235240
v -0.10371708 0.24609068 0.38531879
v -0.03421295 0.25684458 0.45557475
v 0.03656195 0.24786666 0.43730438
v -0.33502960 -0.13551980 -0.44395176
v 0.48019657 -0.34543717 -0.02822798
v 0.42064428 -0.32965577 0.23971061
v -0.21566668 -0.09717947 0.56701499
v 0.56450915 -0.22903116 0.03918211
v 0.38504937 -0.35261789 -0.18417084
v -0.18271306 -0.36545143 -0.30750310
v -0.23037468 -0.34056693 -0.36024994
v -0.43411887 -0.12121977 0.29847646
v 0.16873392 0.23419058 0.38724595
v 0.56577063 -0.08696887 0.08112721
v -0.54951733 -0.10438050 -0.01980799
v -0.47197518 0.06146066 0.17514396
v -0.40340820 0.00146574 -0.36236024
v -0.33234435 -0.05985127 -0.50486779
v -0.58268249 0.10263687 -0.10106111
v -0.00626422 0.21094352 0.49266714
v -0.14221117 -0.39373380 -0.44625264
v -0.43644065 0.15198161 0.21878323
v 0.50978243 -0.06317107 -0.24530479
v -0.06638995 -0.37146160 0.03596035
v 0.23052450 0.27932984 -0.23025499
v 0.57821637 -0.21710509 0.04624502
v 0.47430548 -0.32250896 0.02234817
v 0.43590629 -0.38764584 -0.00199225
v -0.47675461 0.09613439 -0.14694750
v -0.56889272 0.03162716 -0.02486619
v 0.36309785 -0.39729410 -0.07461341
v -0.54178393 0.06134365 0.06419794
v 0.50384521 0.03784639 0.23053116
v 0.24010739 0.32845494 0.17455216
v 0.37610260 0.22495539 0.10052970
v 0.15439785 -0.39555922 -0.05039509
v 0.10460177 0.23286217 -0.24611062
v 0.46748444 -0.29420736 0.21252552
v -0.70365942 0.07696247 -0.05101393
v -0.04168908 -0.26272106 -0.53728354
v 0.37950990 -0.32139915 0.26375538
v -0.47001770 0.16383573 -0.00198431
v 0.02579071 -0.39936167 0.25635660
v -0.40687227 -0.23387286 -0.28916150
v 0.28554648 -0.38808513 0.03135174
v 0.39905259 -0.30054545 -0.11881163
v 0.26037088 -0.25855631 -0.39632401
v -0.33991718 -0.10897569 -0.43562633
v 0.28166375 -0.38967440 0.21336317
v -0.37330011 -0.11086117 0.34340358
v 0.06132839 0.25728917 0.44735071
v -0.51903552 0.09139147 -0.14130145
v -0.23023556 -0.33988306 -0.37655687
v -0.27087271 -0.05461021 0.58989286
v -0.27516389 0.30291957 0.31454092
v 0.54535669 -0.13106090 0.19797403
v 0.30788359 0.31179893 0.20926504
v -0.53738087 0.05197900 0.02103770
v -0.16638267 0.32886860 -0.00384340
v -0.42636102 0.06240171 0.26197094
v 0.69323754 -0.07384348 0.00390138
v -0.39907074 0.05883058 0.23534077
v -0.63867474 0.04024132 -0.02726643
v -0.12198839 0.02059209 0.59467494
v 0.66710591 -0.06505533 0.05175015
v 0.66965520 -0.12119825 0.04916419
v 0.76480424 -0.06318110 -0.02702769
v -0.20578106 -0.38499671 -0.34304330
v -0.16883406 -0.32160205 0.29601786
v -0.25537145 -0.37349430 0.24878536
v -0.63630468 0.07513700 0.02071252
v -0.35402405 0.01912817 0.49151835
v 0.71658838 -0.00089642 0.01955636
v -0.58911258 -0.13426915 0.02352434
v 0.11849339 0.24979380 -0.35839477
v 0.36483431 -0.31898201 -0.14081207
v -0.24952187 -0.21788418 -0.50446939
v 0.39466137 -0.01830029 -0.04860566
v -0.40017888 0.13979374 0.17410447
v -0.27246773 -0.32755464 -0.12621716
v 0.23810327 -0.29484448 -0.50372517
v -0.08174145 -0.18008702 0.58538795
v -0.66031480 0.16731298 -0.01775424
v 0.05960010 -0.28850424 -0.46676135
v 0.14808670 -0.20717284 0.55342561
v -0.57008511 0.10267940 0.00381777
v 0.18671969 -0.29887685 -0.48145360
v -0.13032396 -0.36421761 0.07338233
v 0.13218425 -0.40231901 -0.07491750
v 0.25990364 0.29407161 0.26616701
v -0.62833804 0.10422736 0.03410733
v 0.38782489 -0.32533294 0.38941228
v -0.44644377 -0.21729186 -0.36490285
v -0.17386025 0.33911395 0.02508179
v 0.53237945 -0.30702233 -0.09873571
v 0.12709127 -0.27389258 -0.58368349
v 0.11659208 -0.27614301 -0.51754427
v -0.63132554 0.00455955 0.00236706
v -0.19098316 0.21927007 0.47845054
v 0.21174876 0.30827257 0.23563190
v 0.14214122 -0.40454993 0.21918048
v -0.47286335 0.21429887 -0.05524284
v -0.55984449 0.04312241 0.07008651
v 0.76342130 0.07096327 -0.00161962
v 0.68371534 -0.12674159 -0.01113750
v 0.35505179 0.04063466 0.41048515
v -0.20756799 -0.14192259 -0.51081741
v -0.37518433 0.16352318 0.24915998
v -0.62274742 0.12776291 -0.03254685
v -0.48179814 -0.20910311 -0.06940794
v -0.59797090 0.03958361 -0.01788941
v -0.20711774 -0.37964839 -0.45847344
v 0.30577230 -0.40138200 -0.04204398
v 0.70129371 -0.00879502 -0.01482832
v -0.09072210 -0.05674610 0.54684728
v -0.21194501 -0.37446445 -0.46714264
v -0.17547446 -0.34795862 -0.35973704
v 0.26926833 0.24563783 -0.26836345
v -0.67360556 0.25700703 0.00153663
v 0.37169626 -0.24852052 0.42254812
v 0.48924255 0.19270214 0.03679670
v -0.27073640 -0.31595373 -0.41827291
v -0.14814675 0.19184861 0.48095939
v -0.37889427 -0.10530983 0.36760810
v 0.01406609 -0.39715952 -0.25738060
v 0.08553565 -0.29122230 0.35882217
v 0.56443822 -0.28534117 -0.07189599
v -0.41870674 0.12154905 0.29475474
v -0.42994404 -0.09526038 0.07309622
v -0.36793146 -0.24344781 -0.03613439
v 0.22975248 -0.31396016 0.38613242
v -0.18978357 -0.21275456 0.49523246
v -0.11894220 -0.25875723 0.25888550
v -0.49540323 0.01747890 0.00034982
v 0.16210130 -0.22984244 -0.47111464
v -0.46531329 0.16339576 -0.16559587
v 0.60654998 -0.01230767 0.12390254
v -0.00828586 0.34939635 -0.07118981
v -0.20271607 -0.36992523 -0.39148635
v -0.77025348 0.19835058 -0.02841489
v -0.50513029 0.01450492 0.17829089
v -0.06201236 -0.29577732 -0.46561056
v -0.45540163 0.18009143 -0.10788614
v -0.04340779 -0.25739470 -0.49000135
v 0.19170709 -0.39523250 -0.07686175
v -0.25020051 -0.29634213 -0.38515815
v -0.23646194 -0.11194498 0.54860699
v 0.04026678 -0.36056569 0.06177629
v 0.43142253 0.19807152 0.23585038
v -0.44019395 -0.20001109 -0.00468746
v 0.15809922 0.22369218 0.37289828
v 0.42486650 -0.35542023 0.01473625
v -0.48427382 -0.15548405 0.00992477
v 0.69770694 0.02966969 -0.09720118
v 0.04284826 -0.37287217 0.24635516
v 0.42010248 0.19431767 -0.00539424
v 0.23350477 0.17355268 -0.35374194
v 0.39491430 0.23722050 0.18571213
v 0.15378542 0.32846990 -0.12850116
v -0.12482490 -0.18333612 -0.56091881
v -0.07319734 -0.30668709 0.34659654
v -0.26320088 -0.00811744 0.45524299
v 0.31271154 0.07072773 -0.30149272
v -0.06599053 -0.21184143 0.56443703
v 0.56905717 0.13269976 -0.02919200
v 0.72629631 0.06018328 -0.08983265
v -0.21298242 -0.31040671 -0.40209502
v 0.12495324 -0.07468681 -0.50158286
v -0.26104409 -0.29256687 -0.37545872
v -0.39746961 0.23380215 -0.14511780
v 0.74541080 0.00273193 0.05311365
v 0.05868615 0.09265482 0.57352275
v 0.53038073 -0.20268367 -0.15538676
v 0.00068138 -0.29865009 0.54904830
v 0.16672105 0.32830423 -0.07092488
v 0.30923557 0.26752898 -0.07009572
v -0.31617972 -0.02628821 0.38419721
v 0.42277935 -0.27341223 0.23732153
v 0.27422464 0.21213812 -0.29833877
v 0.30433717 0.29522231 0.04885019
v -0.09795824 0.43120971 0.03462171
v 0.21891356 0.35044783 0.05806801
v -0.39060569 -0.14501378 0.02385515
v -0.66270334 0.12091149 -0.03514700
v -0.08998577 -0.28726718 -0.50845575
v 0.21867454 0.33956611 0.10784841
v -0.52168345 -0.15274489 0.11859655
v 0.57817769 -0.18728890 0.12803632
v 0.53812695 -0.16503234 0.08705021
v 0.39419466 -0.28161633 0.29986769
v -0.36981767 0.21350504 0.23838608
v 0.13169307 -0.35572934 0.43127510
v 0.10573789 -0.14961478 0.56274164
v -0.37494329 0.15507995 -0.32927209
v -0.04628505 -0.36404914 -0.11702074
v 0.54338658 0.20901734 0.04676642
v -0.53015369 -0.16250320 -0.27669129
v 0.60184926 0.22515246 -0.00620545
v 0.54863644 0.01867908 0.09732412
v 0.58089745 -0.16448475 0.12238203
v -0.32435811 -0.30851361 -0.29967284
v 0.41264561 0.18403080 0.24348807
v -0.18344916 -0.37208158 -0.45252079
v 0.03220290 0.02177843 0.57815397
v 0.10937661 0.31747350 0.00335737
v -0.47608811 0.02133380 0.11565527
v -0.45790896 0.01474614 0.21106067
v 0.27964872 -0.06719974 0.56121927
v 0.59944201 0.05178658 -0.11528118
v 0.10368425 -0.34224084 0.31889296
v -0.46954703 0.12303422 -0.16521837
v 0.45575568 -0.32385257 0.21776891
v -0.63550466 -0.04077516 0.01699939
v -0.26016477 -0.34176770 -0.39135963
v 0.41368842 0.28703010 0.12706000
v 0.10907758 -0.26136932 -0.53721452
v -0.50870180 0.06222734 -0.18236160
v -0.47935236 -0.09152848 0.03674430
v 0.27884910 -0.02464628 0.54535174
v 0.10763574 -0.29511175 0.53161585
v 0.53528440 -0.25044394 0.21677555
v -0.56399041 0.02360208 0.05502789
v -0.40095931 0.10522026 0.40911925
v 0.46478197 -0.13515827 -0.18428902
v -0.35052031 -0.00987954 0.35020041
v 0.78793043 0.10492573 0.03008796
v -0.42480347 -0.19613889 0.06736261
v 0.04837342 -0.01502316 0.56976724
v 0.71853250 0.08834623 0.00741407
v 0.41322678 0.25186995 0.15364091
v 0.24417901 0.28808275 -0.09750579
v -0.34983400 -0.11501178 -0.47372454
v 0.21390255 0.29299203 0.01670926
v 0.52266848 -0.33191955 0.12635323
v -0.18988661 0.24013445 0.23768583
v 0.57904702 -0.23802915 0.01978905
v 0.44865918 -0.03546557 0.34315199
v 0.25049156 0.27309513 0.36528540
v -0.42031068 -0.01743695 0.20315742
v 0.46434993 -0.02278419 0.31575847
v -0.00220195 -0.15752456 -0.49421138
v -0.23444539 0.32045883 -0.07881786
v 0.31656292 0.21903968 0.36375970
v -0.13891752 0.34650186 -0.00844426
v 0.48037839 -0.29729214 0.01104635
v -0.41641253 -0.26202738 -0.17084911
v -0.31135401 -0.33434439 -0.32417467
v 0.33213770 -0.36665481 -0.23552352
v 0.73976374 -0.02722669 -0.03599802
v -0.43067563 0.12278998 0.23054561
v 0.55318725 -0.23483226 0.08124088
v 0.56974357 -0.22959900 -0.00193436
v -0.07582494 0.24095669 0.46211886
v -0.20250246 -0.36552593 -0.37671262
v -0.41533446 0.23972622 -0.13915424
v 0.14533743 0.40570337 0.07425471
v -0.52942532 -0.07431735 -0.31669062
v -0.17722410 0.23075625 0.42648381
v 0.70710468 0.23073760 0.02333900
v 0.53598195 -0.02780956 0.10314311
v -0.09150957 -0.15640810 -0.59351355
v -0.43473223 0.10651076 0.21394545
v -0.61965334 0.08898947 0.00088748
v 0.58359432 -0.05407187 0.14522387
v 0.37439245 -0.28798008 -0.16351178
v 0.03510453 0.09352526 -0.46722358
v 0.06875452 -0.28815547 -0.49985874
v 0.70285386 -0.07701445 -0.00064798
v 0.04643267 -0.23883952 0.48297241
v 0.16679391 0.31950757 -0.18350391
v -0.36934814 -0.27734172 -0.30554453
v 0.36507609 -0.02810797 0.44662011
v -0.28165016 -0.31357595 -0.17696387
v 0.49881917 -0.35206169 -0.05795129
v 0.56258208 0.09163381 0.10529472
v 0.58519435 -0.26711074 0.11654069
v 0.18451144 0.12787199 0.49774155
v 0.30543587 -0.10722944 0.51991552
v 0.26122755 0.12934995 0.43923655
v -0.18749687 -0.35617870 -0.31697419
v -0.15968131 -0.37695056 -0.41383904
v -0.04066512 -0.33995458 0.25817639
v 0.49434534 -0.17410998 0.26116946
v 0.38753605 0.04062459 -0.40090901
v 0.24545655 -0.03975576 0.54515153
v -0.53070056 0.14079016 -0.10636532
v 0.72711003 0.07487774 0.01264918
v -0.09392998 -0.37652111 0.00500932
v -0.19295946 -0.02968679 -0.49064118
v -0.05816691 0.19461107 0.47836822
v -0.15323615 0.20753503 0.45912856
v 0.23659688 0.28373274 -0.11180940
v -0.16336240 -0.29383081 -0.37902945
v -0.02588359 -0.18071122 -0.54859304
v 0.49827570 -0.29246193 0.14961548
v -0.15027687 -0.38875946 -0.43902293
v 0.28929156 -0.12858124 -0.38075060
v -0.52676857 0.07108960 -0.14308643
v 0.49709922 -0.11332249 0.23052153
v 0.24004394 -0.35732758 0.20413569
v 0.25421059 0.31298161 0.27845991
v -0.23617446 0.23674560 0.42668378
v -0.27714747 0.00045332 0.44044447
v -0.21873295 -0.28678161 -0.31040737
v 0.36830902 -0.40051016 0.20896424
v -0.20235236 0.15672618 -0.39824700
v -0.23168543 -0.33504996 -0.29366848
v -0.25012961 -0.10479537 0.58239663
v 0.54236072 0.22667083 0.01977634
v -0.38150510 -0.04023798 0.38014767
v -0.36963493 0.10833644 -0.24201748
v 0.41198489 -0.21393685 0.31929243
v -0.66820800 -0.00390996 -0.01905124
v -0.06648009 0.36554220 -0.00200953
v 0.28338265 0.23742789 0.37663394
v 0.26012149 0.17627239 0.44095099
v 0.27705452 -0.01355948 0.52248561
v -0.65759981 0.07220359 0.01269168
v 0.09803729 -0.27570915 -0.53743619
v 0.30887985 -0.32015592 -0.21200612
v -0.05427835 0.33040169 -0.13049169
v 0.53706217 -0.26187694 0.08390130
v -0.31682560 -0.32230324 -0.18759526
v -0.36531743 -0.28977001 -0.25433314
v 0.54477662 -0.34030342 -0.02205309
v 0.18494938 0.00444119 0.54663688
v 0.18456081 -0.35884807 0.35291773
v -0.69642520 0.04385206 -0.05841711
v 0.41203862 -0.05722359 0.33535331
v 0.15609357 0.29096097 -0.20667140
v 0.07583144 -0.30072629 -0.54140115
v 0.08043270 0.29533386 0.00817588
v -0.68591392 -0.07879330 0.01457975
v -0.18357693 -0.35909966 -0.28293219
v 0.10284944 -0.30094403 -0.44679165
v 0.29340839 -0.28531301 -0.34169653
v 0.21525790 -0.42027324 0.02314187
v 0.10658526 -0.24493875 0.60170346
v -0.38551587 0.13687944 0.37354925
v -0.36699736 -0.23166624 -0.44174340
v 0.08494762 -0.36950263 0.22711231
v -0.42655253 -0.19829585 -0.22927621
v -0.53013283 -0.06633366 0.00613609
v 0.33564013 -0.20405632 0.36025795
v 0.54266351 0.08842956 0.17621431
v -0.60206425 0.15696001 -0.02775285
v -0.22302277 -0.26422453 -0.49838576
v 0.00492966 -0.29252762 -0.53990394
v -0.48820755 0.29228136 0.11061043
v -0.25460941 -0.20602360 0.48408094
v -0.06044006 -0.29532430 -0.50183630
v -0.19653776 0.20990527 0.41106546
v -0.04666929 -0.32943398 -0.41117799
v 0.54296362 0.03847875 0.21976022
v -0.10286574 0.22449344 -0.41390783
v 0.49559355 -0.24972081 0.20455387
v 0.19784357 -0.39917213 0.06466091
v 0.50487435 -0.25302559 0.17274658
v 0.29059732 -0.06158550 -0.44209254
v 0.23034841 0.20904383 0.42138106
v 0.17320669 0.30684763 -0.17198835
v 0.13819593 -0.33538437 0.34470659
v 0.18428829 -0.39558199 0.14474583
v -0.54822069 0.25145125 -0.04778789
v -0.24181522 -0.30648160 -0.30956638
v -0.74709415 0.08853248 -0.04752560
v 0.21153420 0.29453558 -0.05309578
v -0.32157287 0.05552346 0.41382021
v 0.16802059 -0.18038592 -0.49919319
v -0.01346622 0.35191342 0.22595552
v -0.48573247 -0.03031586 -0.26713383
v -0.25456598 0.01129995 0.53094953
v -0.26253101 -0.19018415 0.49038279
v -0.67661297 -0.02338716 0.00056332
v -0.12690349 0.40930128 0.02310253
v -0.12794325 -0.35281831 0.15783031
v -0.44316608 -0.09001052 0.31393486
v 0.82776976 -0.01986977 -0.02696998
v -0.50311291 -0.20299029 -0.28857070
v 0.00287686 0.26370627 0.46829915
v -0.65801400 -0.06179702 0.00790726
v 0.38406169 -0.37459275 -0.16870825
v 0.21743339 0.08689937 0.52380615
v 0.21389648 -0.37089115 0.10026807
v 0.35988221 -0.27290505 -0.31404963
v -0.05939381 0.36538598 0.02688428
v 0.23225813 -0.28279698 -0.43909955
v 0.41959986 0.01316845 0.12977913
v -0.22015616 -0.15877953 0.48303220
v -0.63636023 -0.04523954 0.03343549
v 0.01870139 -0.06408709 0.55281729
v -0.41216865 0.12810652 -0.21514936
v 0.76171708 0.10833538 -0.00455832
v 0.69464171 0.05161034 0.03544072
v -0.08238412 0.26313689 0.41138121
v -0.00338003 -0.32819206 0.31727189
v 0.28064978 -0.08960602 0.52402842
v -0.41080207 0.07086176 -0.30776918
v 0.10164731 0.30180958 -0.20117684
v -0.62351161 0.00987402 0.02738570
v 0.30678096 -0.34032905 0.39148974
v -0.49220741 -0.08281033 0.07896592
v 0.78931433 0.14016119 -0.00433338
v 0.27327412 -0.01399599 -0.42904276
v 0.02792625 0.16325934 0.46285334
v -0.17890045 -0.36711225 -0.36554760
v -0.01084113 0.33516237 0.13610247
v 0.69923246 0.05175757 0.03551953
v -0.58414745 0.14162685 -0.01561412
v -0.52881467 -0.15461488 0.03856446
v -0.21295470 -0.38783705 -0.41529435
v 0.64120007 0.19512171 0.05182932
v 0.09668727 0.26652303 0.37136209
v 0.62346530 -0.12618846 0.09047745
v 0.60646033 0.02273376 -0.07340835
v -0.43503854 0.07101770 -0.24280097
v -0.44835049 -0.07750575 -0.29831296
v -0.63256693 0.01704029 0.02346134
v 0.34130841 0.25686994 -0.01265284
v 0.41260421 0.15503973 0.30752313
v 0.29012153 -0.01228586 0.51041555
v -0.29265231 0.15943426 0.44332534
v 0.52279681 -0.16944623 0.22125004
v 0.07032646 -0.31155020 -0.45751575
v 0.40899879 0.22394255 0.15095653
v 0.32155907 0.29251042 0.05883424
v -0.56399381 0.01541328 -0.10284275
v -0.26047376 -0.24965006 -0.36401880
v -0.67673218 0.07177250 -0.01349494
v 0.04023738 -0.39435509 0.07307249
v 0.13519889 -0.37454045 0.12288007
v -0.56797314 0.24643457 -0.02842952
v -0.61254430 0.19332786 -0.06219445
v 0.00453198 -0.16016974 0.56462026
v -0.68213183 0.06785561 -0.00062655
v -0.35744089 -0.28170192 0.00280488
v 0.23712523 0.29967928 0.19717766
v -0.15687805 -0.37774852 -0.33010644
v 0.40594226 0.08878142 -0.19970542
v -0.11799700 -0.25461063 -0.54548055
v 0.62777507 -0.20140021 -0.06408142
v 0.22347954 -0.30327713 -0.48527583
v 0.18276662 0.29387167 -0.07212155
v 0.44575506 -0.38203710 0.01037390
v -0.47573227 -0.15263066 0.07751900
v -0.47232705 -0.01351731 0.19745345
v 0.49287689 0.19411582 0.07762350
v -0.58795756 -0.09495363 0.01809803
v 0.18811429 -0.30472082 -0.48089927
v 0.54197919 0.22029047 0.05266382
v -0.39410886 -0.01818991 0.39778963
v 0.54596329 -0.27313247 0.00043375
v 0.55892313 -0.18151625 0.09637281
v -0.06093335 -0.21206632 0.42697346
v -0.02935323 0.13679509 0.48807806
v -0.50355887 -0.05899251 -0.22780590
v -0.11420985 0.25810313 -0.26338577
v 0.49609068 0.01315597 0.25877449
v 0.59343123 -0.18684502 0.11800877
v 0.18869737 0.31689143 -0.12112552
v 0.25227624 0.32607749 0.22805101
v -0.66124308 0.26012915 -0.04990464
v 0.53026795 -0.21406934 -0.10314117
v -0.38578933 -0.25783467 -0.00746080
v 0.27503946 -0.39069414 -0.04275584
v -0.65325332 0.09452397 -0.04619026
v 0.51926047 -0.22446854 0.25223842
v 0.01183775 -0.36819667 0.11381430
v -0.48112574 0.05643792 -0.28533947
v 0.26003408 -0.36077863 0.14329004
v -0.32583916 0.12207753 -0.31980568
v 0.43075240 -0.33903539 -0.04807676
v 0.60605252 -0.07979384 -0.15490474
v -0.21232602 0.18222648 0.43656597
v 0.56435537 -0.24185032 0.07761331
v 0.60384166 -0.02034886 0.12601416
v 0.39359504 -0.01777968 0.36729550
v 0.41949502 -0.36904883 0.13429937
v 0.18811226 -0.28490978 -0.51021385
v 0.61157888 -0.14052999 -0.14256904
v 0.21766591 0.35169441 0.06080218
v 0.21140842 -0.40756738 -0.19376229
v 0.41213185 -0.27693787 -0.28309196
v 0.26352555 0.20657994 -0.31757563
v 0.52000618 -0.13514948 -0.15891559
v -0.24706537 -0.35556492 -0.30721804
v 0.17458269 -0.26028728 0.53805226
v -0.41327319 -0.01913750 0.13273963
v -0.32087773 0.15927720 0.42893946
v 0.06478670 0.44372606 0.06717774
v 0.34866223 0.25119030 0.01724990
v -0.29154503 -0.35670456 -0.27874464
v -0.40622854 0.35630551 0.15205577
v 0.00670656 0.33161700 -0.14751664
v 0.03608359 -0.40200475 0.21578927
v -0.50420570 -0.00132965 0.09193915
v 0.09196113 -0.30918267 -0.46573627
v -0.49772111 0.15896173 -0.12576102
v 0.57746929 -0.26713926 -0.08416545
v -0.27240562 0.02978761 0.48683915
v 0.12288076 0.01179627 0.55956095
v 0.38480377 -0.38105735 0.16517729
v 0.31326762 -0.15789187 0.50511825
v 0.31967634 0.26015806 -0.07305922
v 0.76095790 0.22180703 0.06626265
v 0.12679166 0.17453206 0.49070680
v 0.58351207 -0.08393575 0.12631054
v -0.45410931 0.08801763 0.16550785
v 0.42658049 -0.35737789 0.04947706
v 0.49741471 -0.03406800 0.20850448
v -0.40188041 0.04880707 0.25529996
v 0.56793910 0.22037612 0.11345384
v 0.07459155 0.29864305 0.37713632
v 0.28908089 0.09413511 0.45878676
v -0.21074757 -0.04925307 -0.45339978
v -0.31945282 0.14799809 0.39754719
v 0.43184850 -0.36314476 0.08110937
v 0.26919919 -0.35344923 -0.36684123
v -0.36974669 0.13710630 0.34333643
v -0.39379704 0.19392799 -0.15677832
v -0.25876653 -0.33259344 -0.25711679
v -0.15726143 -0.37923852 -0.45010036
v -0.11348206 0.26756340 0.37563151
v 0.57117134 -0.04628001 0.10382353
v -0.27284104 0.00246199 -0.40174961
v 0.10756996 0.26783058 0.34023911
v 0.73044932 -0.02029864 0.00508371
v -0.41165841 -0.11380974 0.06525087
v 0.02828521 -0.05220872 -0.51454312
v -0.67516530 0.07026096 0.01859985
v -0.42317650 0.12246662 0.21351019
v 0.04259664 0.27250278 0.47214618
v -0.50459987 0.02634190 0.09741045
v 0.82084483 0.17356426 -0.01139182
v 0.25882486 -0.28166905 -0.47402036
v -0.12666374 0.31120664 0.32913899
v 0.05384931 -0.29118145 -0.58453745
v -0.25463527 -0.16367549 -0.52411884
v 0.34224555 -0.10002527 0.53185308
v -0.52566099 0.04032606 -0.16329557
v -0.36516100 -0.22423565 -0.40466398
v -0.29750663 0.10528226 0.34884423
v -0.42076945 0.09055388 0.11266276
v -0.62747586 0.09558091 0.04117599
v -0.65733695 0.15815936 -0.02603187
v 0.14641728 -0.36860085 0.17113721
v -0.50236797 -0.21463430 -0.27151453
v 0.20451824 0.28037539 -0.13025728
v -0.20911078 -0.33157673 -0.11665384
v 0.09701352 0.31275216 0.30218071
v 0.33089429 0.15813409 0.40565512
v 0.24957527 0.19828005 -0.32610625
v -0.05971041 -0.29955232 -0.45598948
v 0.44888434 0.01219402 0.38207343
v -0.29271242 -0.30536976 -0.28324324
v -0.43394065 -0.08463390 -0.35566634
v -0.28063613 0.00969074 0.44964561
v -0.14953855 0.18732391 -0.39075583
v 0.17655361 -0.03306557 0.57551664
v 0.06582840 -0.40006506 0.03054373
v -0.29975969 0.06961898 0.39345473
v -0.52329999 0.09858650 -0.15777475
v 0.39928693 0.14169836 -0.18268448
v 0.00715771 -0.23419261 -0.57903576
v 0.24391268 -0.33494383 0.42491737
v 0.75086784 0.02024605 -0.00704042
v -0.43749541 0.06902057 -0.27151218
v 0.51497042 -0.02875696 -0.15401155
v -0.41143379 -0.06643880 0.41044360
v -0.17110777 0.19217415 0.43060440
v 0.02699830 -0.11098801 0.58851188
v 0.36857533 -0.33569801 -0.10853077
v 0.08652575 -0.28130558 -0.54640490
v 0.71677482 0.05903123 0.03857687
v 0.37492537 0.24563724 -0.06298615
v 0.60021240 -0.17727858 -0.06699187
v 0.30833858 0.16699491 0.44829807
v -0.29873598 -0.05535979 0.55000830
v 0.56321859 -0.12125008 -0.12928489
v -0.19978938 -0.01196361 0.56956261
v 0.17784789 -0.35820809 0.26713300
v -0.31816074 -0.30237484 -0.31016612
v 0.75749564 -0.03056427 0.00574901
v 0.14354782 0.15183873 0.37194425
v 0.01111687 -0.20760080 0.60541636
v 0.73703742 0.10176308 -0.00591303
v -0.28577971 -0.31935006 -0.21520877
v 0.39461428 0.00685971 -0.41224524
v 0.53619397 -0.04865650 0.17355552
v -0.08047791 0.35184348 -0.12244426
v 0.56759548 -0.26817635 -0.10193850
v -0.43757382 -0.16135211 0.25439084
v -0.20231083 -0.02085108 0.54021335
v 0.14457950 -0.36194274 0.27388960
v 0.17512751 0.28077579 0.27530620
v -0.03141823 -0.13075292 0.61422610
v -0.28379634 -0.21748328 -0.52393669
v -0.35852376 -0.28291130 -0.18229473
v 0.48010713 0.26228189 0.04129357
v 0.40281454 -0.00713117 0.39546388
v -0.20782360 -0.39235085 -0.43663919
v 0.65932715 -0.08548929 -0.01607401
v 0.47055706 0.09779623 0.20162749
v 0.07419432 0.24023655 0.39014882
v 0.36576912 0.26963913 0.01769294
v 0.15455863 0.32107562 0.00279244
v 0.24147484 0.35241193 0.06153036
v 0.63562328 -0.01495276 0.08316517
v -0.41328129 -0.16477212 -0.09764710
v -0.11952695 -0.34491181 0.24629837
v 0.38804662 -0.12838480 0.35934317
v 0.39724854 -0.40812945 -0.13336518
v -0.14046824 0.33721355 0.25403088
v -0.01622650 -0.02063443 0.60916793
v -0.42211047 -0.20723009 -0.37628400
v -0.07045913 0.27780321 0.44127864
v -0.19437928 0.05686648 0.52348965
v -0.33227542 -0.02583224 -0.39657247
v -0.30957320 -0.30194777 -0.45678160
v -0.01546178 -0.34924623 0.40544298
v 0.12152277 -0.36615983 0.28714016
v 0.12631343 0.30481851 0.25497919
v -0.41218892 0.13806447 0.14985971
v -0.23729765 -0.30232453 0.46244198
v -0.02264309 0.35013324 0.01004249
v -0.02590768 -0.36520487 -0.28221849
v 0.07767585 -0.40340567 0.35376257
v 0.59574294 -0.24810486 -0.06379782
v -0.30049664 -0.33743316 -0.26150346
v 0.14175934 -0.36572319 0.21397443
v 0.67753273 -0.08376176 0.02179870
v 0.38054240 -0.07147162 -0.35938764
v 0.15909910 -0.09011541 0.57174122
v 0.13002035 -0.37868464 0.05454412
v 0.41679084 -0.04143605 0.41336116
v 0.42324519 0.22629617 -0.09258820
v -0.32465318 -0.26774892 -0.41257179
v 0.62737375 0.19820209 -0.02952091
v -0.63738942 0.22344032 0.02405969
v 0.49429521 -0.31724760 -0.10078733
v -0.71555537 0.12594403 -0.01965596
v 0.77648795 0.20302844 0.02650526
v -0.03655323 -0.15877062 0.61615276
v 0.23982932 0.12386542 -0.36989325
v -0.38150489 -0.10669196 0.30704325
v -0.15248457 -0.37807235 -0.36107290
v -0.23399256 0.09631459 0.41853034
v -0.56636798 0.21077128 -0.03028286
v -0.49535930 -0.06075214 -0.00012627
v -0.51479489 -0.15699223 0.12396583
v -0.70883346 0.21860048 0.02662988
v 0.29577893 0.27994847 0.05129711
v 0.46097380 -0.07005042 -0.27084202
v 0.73406464 -0.06619929 -0.03011978
v 0.14941241 0.03585859 0.56176245
v 0.13452467 -0.26996189 0.40161115
v -0.48291123 0.08519620 -0.15820765
v 0.32131985 0.16164359 -0.28011692
v -0.09652826 0.11290848 0.55592787
v -0.14216873 -0.33656663 0.07377023
v -0.18770133 -0.03813304 0.61266392
v 0.25136372 -0.13325486 0.56627333
v -0.35520786 0.14777805 0.37271744
v 0.02026750 0.06439230 -0.48830095
v 0.11947228 -0.36771309 0.15743080
v -0.70838958 0.18859456 -0.01797512
v 0.21587834 -0.39856523 0.11670024
v -0.57696837 -0.02859023 -0.09611156
v -0.14756137 0.10387528 0.53174424
v 0.52672243 -0.33042675 -0.14388376
v 0.58006561 0.19126460 0.02849127
v 0.06527118 -0.29329419 -0.45749730
v 0.44645289 -0.33470520 0.15875116
v 0.27121124 -0.09133264 -0.53038621
v 0.11384086 0.21676150 0.41822049
v -0.49148309 0.11335331 0.14184120
v -0.44147822 -0.25081038 -0.25575602
v -0.39332163 0.30372354 0.17918400
v 0.35789356 0.25018260 -0.03036965
v -0.33183420 -0.31457558 0.00225677
v -0.32587028 -0.14455308 -0.39590859
v -0.37768689 -0.22410455 -0.08930936
v 0.23593515 0.26088139 0.31892398
v 0.29209810 0.23741704 0.36891270
v -0.02575493 -0.24255839 0.47418272
v -0.03306606 0.31045431 -0.00610954
v -0.23442294 -0.16793407 0.52703643
v 0.35612294 0.24494097 0.27943915
v 0.46880704 -0.35302049 -0.15284061
v 0.02785395 0.01167803 0.56540167
v -0.18703659 0.12475650 0.52810150
v -0.55891675 0.03752366 -0.12408450
v -0.59213358 0.10249513 -0.01401505
v -0.11331798 -0.23455046 0.49922809
v -0.35365686 0.12848756 0.26971382
v 0.08376732 0.09893396 0.56526971
v -0.55892420 0.22572136 -0.04075213
v 0.09804112 0.30594364 0.26416323
v -0.25886229 -0.32488567 -0.35045975
v 0.19492756 -0.38579249 -0.05270730
v -0.70572674 0.14379603 -0.02248381
v 0.27854115 0.27588290 0.01001634
v -0.22519980 -0.29523396 -0.41335088
v -0.46794793 -0.23078158 -0.03587058
v -0.60790873 0.11718376 -0.02651799
v 0.03279568 -0.27952033 -0.57053828
v 0.12234774 0.32192677 0.18159510
v 0.41288340 0.11381227 -0.21242376
v -0.71620750 0.20652030 -0.02120490
v 0.04974727 -0.36770201 -0.33216357
v 0.11822481 -0.30580306 -0.47667587
v 0.58381736 -0.19763072 0.06800704
v 0.45774931 0.10033427 -0.15094021
v -0.61548829 0.27927914 -0.04650894
v -0.20849690 0.13949710 0.48353621
v 0.58359373 0.11080760 0.04493764
v -0.02603406 -0.29329830 -0.34739894
v -0.04714905 0.34305927 -0.01385619
v 0.05377989 -0.33577341 0.45527732
v 0.03546834 -0.32038838 0.15586977
v 0.31227371 0.24837980 0.35675669
v -0.20102090 -0.38039455 -0.36362252
v -0.14932221 -0.38358346 -0.30804053
v -0.16254392 0.25975823 0.13865086
v -0.04360752 0.06837820 -0.48756117
v -0.01147000 -0.08484765 -0.62791991
v 0.61914718 0.05773522 0.06740998
v -0.62700480 -0.01183428 0.02390957
v 0.36185732 0.22299708 0.32546112
v -0.04784637 -0.29037881 -0.50293267
v 0.16295651 -0.39910236 0.06944253
v -0.42217159 0.00922194 -0.31305408
v -0.16701791 -0.37358171 -0.42526701
v -0.61682487 0.24395263 0.01866989
v 0.63305014 0.19881603 0.04279784
v 0.19359913 -0.37559366 0.20690836
v 0.63691550 -0.01221669 0.09127732
v -0.58338451 0.03555860 -0.00764155
v 0.17267710 0.33184737 -0.07366762
v 0.63003373 0.07727507 0.05129181
v 0.20634389 -0.04551443 -0.47968465
v 0.17622821 0.17517008 0.43268847
v 0.08051015 0.36250502 0.10355805
v -0.62240702 0.00689057 -0.03353450
v 0.13601471 -0.28167239 -0.51377636
v 0.63944292 0.00116813 -0.01085792
v -0.37304771 -0.04608388 0.45422393
v 0.26918775 0.11968496 0.42565244
v 0.72890282 -0.07172588 -0.04339070
v 0.42293093 -0.36487126 0.26751164
v 0.33058316 0.31468946 0.14359562
v -0.12689812 -0.12399035 -0.57279819
v 0.47908258 0.22258884 0.08590636
v 0.18540241 0.31437939 0.29037803
v -0.68285960 0.06480989 -0.01472704
v 0.05421145 -0.32027781 0.48373312
v -0.18451861 -0.38198128 -0.31722686
v -0.10367757 -0.24320400 0.59212071
v -0.32425898 -0.22665058 -0.50251490
v -0.35209531 -0.29229146 -0.07019451
v 0.52707821 0.02312003 0.18624426
v -0.37150010 0.05483785 0.43896818
v -0.53250492 0.18592083 -0.09399591
v 0.26772147 -0.25512993 -0.39742187
v -0.71187806 0.11043805 0.02567438
v -0.43329245 -0.11069050 0.28503144
v -0.00444661 -0.25222766 -0.58599389
v -0.28915495 -0.31257206 -0.25673348
v 0.28423440 -0.14845078 -0.43507883
v 0.57311642 0.09204957 0.09438601
v 0.21407850 0.29145384 -0.07297432
v 0.83823919 0.26076233 0.00793218
v 0.62165534 0.16666859 -0.02519134
v 0.20825791 -0.40337020 -0.18195120
v -0.52134764 -0.02529825 -0.08914965
v -0.37197179 -0.22424611 -0.40117070
v -0.48764440 0.21796450 0.11049303
v 0.24682513 0.21785459 0.46171930
v -0.80351788 0.19741210 -0.00707309
v -0.53398967 0.14463554 -0.05764115
v -0.46172601 -0.22357336 -0.10122985
v 0.43017682 -0.31981629 -0.01445586
v 0.01787221 -0.27561772 0.30527580
v 0.22946213 -0.37791350 0.14994399
v 0.52229023 0.01206523 0.20924050
v 0.35417041 0.26609075 -0.01778049
v 0.14299099 0.11937598 -0.45710909
v -0.60006577 -0.07172903 -0.02654377
v 0.39745408 -0.38087130 0.00748296
v 0.42117190 -0.34522024 0.29617178
v -0.26025817 -0.27315307 0.37624094
v 0.43375683 0.26584491 -0.12747298
v 0.36406934 -0.31697232 0.38282275
v -0.56140387 -0.04091311 0.02618253
v 0.07003640 -0.35510328 0.44735736
v 0.50677878 -0.12543263 -0.26932439
v 0.50701904 -0.30604285 0.10755689
v 0.83769888 0.03665601 -0.00496743
v -0.41257748 0.00774845 -0.35636559
v -0.50558585 -0.02794956 -0.07946110
v 0.12688324 0.08243099 0.53608239
v -0.22321090 0.28724700 -0.23492357
v 0.33169729 0.27185667 0.24094364
v 0.39050496 -0.29122347 0.40229774
v -0.40452072 -0.14631316 -0.33514690
v 0.32567182 -0.27955389 -0.37452477
v 0.52453774 -0.00022005 0.12697767
v -0.48522407 0.03491586 -0.27892128
v -0.37228617 0.10390027 -0.34969935
v -0.00472373 0.00877528 0.58380276
v -0.26782206 -0.17477046 0.52411705
v -0.30725765 0.13486210 0.40698344
v 0.48654857 -0.30238181 0.20146593
v -0.48503971 -0.08680174 -0.15723896
v 0.13086642 0.11097132 -0.43132359
v 0.13057236 0.33184195 -0.20820543
v 0.44219011 0.23026973 0.00902478
v -0.28170380 0.28454971 -0.17574294
v 0.32522899 -0.36523524 -0.22554766
v -0.24365720 0.12293820 -0.42360944
v -0.29348925 -0.29226530 -0.44415736
v -0.33200473 0.02115170 0.44593999
v 0.46721667 -0.38183555 0.00628812
v -0.18102562 0.22101457 0.46353644
v 0.27967268 0.25064924 -0.17638129
v -0.10231544 -0.34059960 0.39557362
v 0.62542057 0.10851665 0.02210386
v 0.22064027 0.34646317 0.07355921
v -0.58710366 0.21735139 -0.07897405
v -0.25164121 0.01919005 0.48670828
v -0.20320310 -0.37428793 -0.46295553
v 0.21843950 -0.30266404 -0.46923369
v 0.51010716 -0.26410115 0.16978404
v -0.77305484 0.14740109 -0.05613169
v -0.37294877 0.14916661 -0.20774657
v 0.17190337 0.28741139 0.20813172
v -0.21311468 -0.03530845 -0.49434632
v 0.14089541 -0.35261291 -0.31139210
v -0.76294625 0.15023768 0.01650053
v 0.38500291 -0.35588452 -0.20035316
v 0.26009595 -0.18631664 -0.43858892
v -0.21449091 -0.10281155 0.49741334
v 0.35859749 -0.35064599 -0.07608382
v -0.06222321 0.16819094 0.41817695
v -0.54037118 0.07072684 0.09586184
v 0.07526992 0.27908656 -0.26877558
v -0.18598853 0.13998273 -0.43179402
v -0.54301327 -0.09475237 -0.35095948
v 0.19776328 0.14746132 -0.42292464
v 0.66612494 -0.11961652 0.10149248
v -0.00396495 -0.17553943 -0.57676864
v 0.78274286 0.10272381 0.00064921
v -0.25787893 -0.19180579 -0.51846451
v 0.02974534 -0.00711100 0.60764718
v 0.28480157 0.02753696 -0.40940613
v 0.27522475 0.15582761 0.45295855
v -0.24899468 -0.19518127 -0.47755724
v -0.21621120 -0.36463389 -0.32830033
v -0.43498936 -0.23526523 -0.14231873
v 0.44045776 -0.19643441 -0.16572686
v 0.30903506 -0.30968878 0.43311363
v -0.35590398 -0.06568781 -0.44309217
v 0.81856567 0.23551324 0.01638151
v 0.25878397 -0.32374561 0.28981531
v -0.03549773 -0.35099617 0.18187054
v 0.14620692 0.04291097 -0.48287004
v 0.28667733 -0.25034055 0.49972132
v -0.24512857 -0.19662273 -0.57103330
v 0.22962442 0.33262256 0.11505157
v 0.37989813 -0.35363430 0.19569014
v 0.45439020 -0.10875055 0.28104585
v 0.05179884 -0.28405684 -0.51404434
v 0.32858163 -0.07257731 0.44778484
v 0.03069189 -0.23845778 0.48026636
v -0.53763986 0.02401038 0.07204323
v 0.19481525 -0.29296026 -0.50651854
v -0.17556043 0.40546650 0.04312441
v -0.14342231 0.31990862 0.32837415
v -0.24303147 0.04948864 0.45869899
v -0.47152418 0.22427723 0.17675328
v 0.48253089 -0.14603873 0.28153682
v 0.34366417 -0.39841643 -0.14044118
v 0.63624501 -0.05765852 0.05681227
v 0.03009978 0.28617758 -0.03499307
v 0.43711388 0.23744944 0.17936884
v 0.16619666 -0.37764749 0.04060408
v 0.26519477 0.33005008 0.09812327
v 0.47471887 -0.30049440 0.18013130
v 0.30419663 0.29104555 0.36354733
v 0.54482764 -0.30167416 0.03238746
v 0.06696877 0.13083856 0.50587893
v 0.58686823 -0.22347137 0.03860234
v 0.14733970 0.35119003 0.16478476
v -0.41206023 0.23946992 -0.14751697
v 0.12227308 0.34380233 -0.05124610
v 0.15326752 0.25639975 0.41616797
v -0.40722063 -0.12831847 -0.40150648
v 0.12308030 -0.28429282 -0.55153602
v 0.52198988 -0.00474845 0.19554983
v -0.33731472 -0.31477487 -0.40961844
v -0.56207830 0.08225974 -0.04625802
v 0.36661088 -0.02337783 0.45155510
v -0.03849670 -0.30570996 0.54273129
v -0.34148440 -0.24955902 -0.29951453
v 0.36959821 -0.35656643 -0.08759800
v 0.48571050 -0.25409681 -0.17850052
v 0.38939700 -0.38337541 -0.06330363
v -0.28882110 0.05069750 0.45530254
v -0.30247635 -0.22945113 0.49626371
v -0.66464150 0.06171324 0.01490048
v -0.13830459 0.25796714 0.26671699
v 0.26368219 0.23823428 0.42538440
v 0.13133200 0.13475816 0.53115821
v 0.26448876 0.26671422 0.26829538
v 0.65370774 0.18050492 0.02131981
v -0.01622209 -0.33696163 0.26254129
v 0.05040666 0.40312576 0.21866041
v 0.81382596 0.12076526 0.01477124
v -0.25566125 -0.19042796 -0.52952439
v -0.60303068 -0.04850549 0.00753646
v -0.43034872 -0.15420149 -0.06589445
v -0.01276757 -0.14641419 -0.58463538
v 0.14870331 0.33860126 0.16001821
v 0.08503649 0.30197868 0.11225820
v 0.39164555 0.30408463 0.14379337
v -0.24981776 -0.33030111 -0.44830465
v -0.03463318 0.22638106 0.47279373
v 0.22335169 0.29483816 0.02757516
v -0.57683331 -0.04868684 0.04460841
v -0.18997069 -0.18610272 -0.59277493
v -0.43211794 -0.08660498 0.27202821
v 0.48095495 0.01900584 -0.19561781
v 0.06611476 -0.24353901 -0.51367354
v 0.62103152 -0.17558160 0.01133141
v 0.21276537 -0.39188695 -0.02439800
v -0.19268875 -0.33886379 -0.30647650
v 0.43429065 0.25016057 -0.08729883
v -0.07629307 -0.10862949 0.56709623
v -0.25880677 -0.16941106 -0.41219416
v -0.21160652 0.01828407 0.48934776
v 0.17168716 0.29348454 0.26248959
v -0.27698150 -0.29197842 -0.37820467
v 0.50862759 -0.30665746 0.15039173
v 0.09645694 -0.33948493 0.14483167
v 0.08737330 -0.38673806 0.12451904
v -0.28080246 -0.33347440 -0.40950099
v 0.20003028 -0.40069398 0.28542912
v 0.56345397 -0.21661559 -0.03823499
v -0.09584337 0.20192370 -0.41570178
v 0.36917210 -0.37558204 -0.16197249
v -0.03105126 0.28648853 -0.28291279
v 0.41649833 -0.38064232 -0.00031899
v 0.49313432 0.13429056 0.27220577
v 0.56327665 -0.16442560 0.13751157
v 0.32978058 0.30280998 0.19437571
v 0.04576874 -0.36153266 0.29879683
v 0.22861864 0.29541361 0.32302555
v 0.38372660 -0.36133564 0.07744636
v 0.65511966 -0.14285414 -0.00934512
v 0.15918756 -0.34514990 0.22862993
v -0.54052532 0.14727810 -0.04933843
v -0.37235242 -0.30777365 -0.31499273
v -0.02790274 -0.38460240 0.03183779
v -0.43353605 -0.16385281 0.24579491
v 0.12569956 0.09764010 -0.44524899
v -0.22472155 -0.32926407 -0.18543500
v -0.44770139 -0.24064681 -0.29008597
v -0.52038318 0.04055357 -0.17227478
v 0.08884000 -0.38347733 0.32190603
v 0.13196486 -0.11339948 0.57701623
v -0.46473035 0.08938667 -0.22413333
v -0.35851467 -0.29149461 0.33378941
v 0.65231586 -0.10346617 0.01393063
v -0.62718260 -0.10936096 -0.06934880
v 0.15482362 -0.37333021 0.10896648
v 0.43897289 -0.28571180 0.31596494
v -0.39779249 0.09804175 -0.34877497
v -0.49767593 -0.22397853 -0.04412480
v -0.10835685 -0.25631008 -0.54069209
v -0.44566765 -0.13285635 0.27705055
v 0.49177217 0.04457949 0.31015426
v -0.47809324 -0.06422503 -0.00342324
v -0.22363555 -0.00354622 -0.55091816
v -0.14394327 -0.08266158 0.53599143
v 0.07271683 -0.30796865 0.29427785
v -0.28936744 0.29872656 0.15859452
v 0.22670102 0.35384026 0.07527663
v -0.00122923 -0.34204575 0.23646797
v -0.03346486 -0.29582936 -0.46373218
v 0.06490848 -0.27676141 -0.52754074
v 0.48188895 0.01527095 0.26611543
v 0.19257024 -0.40214497 0.04594848
v 0.01487202 -0.18648948 -0.57526559
v 0.65596586 -0.11277746 -0.00628834
v -0.51825523 0.10184856 -0.22817999
v 0.46590468 -0.08675958 0.31438330
v -0.66314036 0.17502032 -0.01217256
v -0.51453340 -0.01314610 0.00628322
v 0.49688765 -0.34015524 -0.04916804
v -0.60187149 -0.00253525 -0.04290884
v 0.00682530 -0.04697667 0.60530919
v 0.24949345 -0.32461447 -0.18664543
v 0.55675989 -0.04623301 0.17040460
v 0.82974148 0.22741553 0.03303856
v 0.63953769 0.12127277 0.07048999
v -0.06567076 0.11086063 0.53895259
v -0.42816785 -0.02124567 0.36640000
v 0.01491131 -0.05815734 0.54913718
v -0.40305448 -0.27592361 -0.34950167
v -0.23413399 -0.22715697 0.52667558
v 0.45803809 -0.36838296 -0.04644849
v 0.35048783 0.25486982 -0.16638930
v 0.42853677 0.24689411 0.09269316
v -0.30132580 -0.28182593 -0.38955912
v 0.13750860 0.33040413 0.12523447
v 0.58907658 -0.19353008 0.03427544
v -0.48907959 0.02119406 0.09788665
v 0.47706458 0.11318460 0.28314590
v 0.64107865 -0.03359789 0.02413863
v 0.58849859 0.07877958 0.02221151
v -0.38835797 -0.04826919 0.38555947
v -0.52928847 -0.11848167 0.07726327
v -0.35854238 -0.31082207 -0.32640895
v 0.40729919 -0.28702864 0.27246988
v -0.32215953 -0.16679783 -0.43141359
v -0.23980573 -0.28326488 -0.35942632
v 0.56531638 0.02242945 0.12548180
v -0.51960951 -0.20050040 -0.03958601
v -0.13106790 0.22750372 0.40358913
v 0.38191214 -0.29025510 0.32431632
v 0.17633453 -0.34780896 0.20277078
v -0.20312551 -0.37857324 -0.42083293
v 0.65446627 0.04445667 -0.03578499
v -0.19733125 0.26682365 0.43012205
v 0.76679802 0.05696319 0.02155380
v 0.47698057 0.13497430 -0.11241035
v -0.14542250 0.19199502 0.47801527
v -0.58778703 0.06920987 0.02388489
v 0.05789831 0.02222066 0.54124087
v -0.68513358 0.11455604 0.02515901
v -0.51438826 0.23654981 -0.06630716
v -0.28282940 -0.34650868 -0.25397077
v 0.12966570 -0.36771584 0.23713125
v -0.12032688 -0.40919018 -0.38423166
v 0.12956816 -0.27044618 0.48760977
v 0.06587373 -0.34404948 0.50317913
v 0.04352312 0.04065803 -0.48879653
v -0.38101059 -0.18166168 -0.43396321
v 0.39889762 -0.34949356 -0.09245642
v -0.30415392 0.29010144 -0.11919075
v -0.43491831 0.04175653 -0.32937980
v -0.19125162 0.07892007 0.52134871
v -0.58580077 0.06507283 0.03540938
v 0.58575892 0.23119590 -0.01076087
v -0.29116848 0.11415927 0.37771812
v 0.24940334 -0.21212894 0.53252327
v 0.63643008 -0.09568863 -0.01787591
v 0.37011337 0.23965193 -0.10344967
v 0.75192571 0.19158593 0.04091341
v 0.43043619 0.24181674 0.09096117
v -0.77992064 0.13078839 0.00891556
v 0.63582355 0.08990809 -0.02980988
v -0.49326497 -0.11436159 0.06486592
v -0.41453421 -0.22231477 -0.06861681
v -0.05530571 -0.25425825 0.58504421
v -0.03434008 -0.21305190 -0.48671770
v -0.52272022 0.04308464 -0.18209858
v 0.13507886 0.35373506 0.08652511
v -0.12416345 -0.33055654 0.38282561
v 0.46048629 0.13383698 0.24168098
v 0.34650058 -0.40039718 0.02545905
v -0.10679445 0.11935118 0.55231357
v -0.68950748 0.11268142 -0.03509654
v 0.25871614 -0.09530829 0.52508664
v -0.38756931 -0.26611745 -0.30248529
v 0.27233467 -0.39329585 -0.02544029
v 0.20500742 -0.30126736 -0.51406914
v -0.13648444 -0.29092497 -0.53566647
v -0.39183992 -0.23690940 -0.22000489
v 0.13453569 -0.37610519 0.21114856
v 0.40652570 -0.32812119 0.23182502
v 0.28869575 -0.35378909 0.15585069
v 0.38259229 -0.35483766 0.15349451
v 0.53760231 -0.32123023 -0.04568420
v 0.65317321 -0.01046182 0.00357069
v -0.36357200 0.06398121 0.33287609
v -0.42007366 -0.06053950 -0.40641758
v -0.00391062 -0.22831565 0.59078050
v -0.27384916 -0.00236006 0.45847899
v -0.38229606 0.03803266 0.34375560
v 0.47103980 -0.36406904 -0.01007154
v 0.63672125 0.11053794 -0.03154030
v 0.04248630 -0.24355222 0.55884057
v -0.17761815 -0.38555396 -0.43424350
v -0.29954734 -0.00134099 0.49097899
v -0.11917488 0.03503782 0.52664280
v -0.29216447 -0.15786052 0.49472687
v 0.21187730 -0.31867099 0.42672008
v 0.10811128 -0.25221717 0.58632100
v 0.67441523 0.15040202 0.03867195
v 0.71338946 0.11404080 -0.00495049
v 0.01239471 -0.03261438 0.57723033
v -0.15053339 0.22174294 0.43230024
v 0.62902158 -0.17057128 0.01794395
v 0.53388727 -0.02527450 0.18250202
v -0.43722761 0.13721913 0.09734346
v 0.13820125 -0.40023813 -0.06568863
v 0.48599094 -0.11849324 -0.14686251
v -0.16897036 -0.38263574 -0.46433532
v 0.55717105 -0.23361357 0.03840657
v -0.34410915 0.20513108 -0.28148672
v -0.16173036 -0.36930537 -0.37018719
v 0.20799020 -0.38804448 -0.19899495
v -0.24828365 -0.23971862 -0.46231544
v -0.16942714 -0.25555435 -0.54184526
v 0.44434029 -0.28552336 0.23763342
v -0.51972878 -0.20146570 -0.23390156
v 0.12629490 -0.28089294 -0.51989955
v 0.11317760 -0.37899163 0.41124716
v 0.27023929 0.32860947 0.25233471
v -0.31492534 -0.23344953 0.44565254
v 0.11456541 -0.35081798 0.45531139
v -0.32243612 -0.07646146 -0.42053372
v -0.17036635 -0.36686724 -0.32317528
v 0.34325302 -0.30056772 -0.33581617
v 0.60176629 0.15541992 0.06589755
v 0.29419237 -0.41032165 0.01355075
v -0.27701637 0.24120694 -0.17775896
v 0.11097403 -0.38374057 -0.35868233
v 0.56040955 -0.29160666 0.04834673
v 0.66901755 -0.06449942 0.06487221
v 0.63205218 0.04515268 -0.03321542
v 0.41887942 -0.34676620 -0.09958885
v 0.59612137 -0.17515081 0.00543104
v 0.56580603 -0.30029124 0.04066236
v 0.76784337 0.11578662 0.02165599
v 0.61606658 -0.17187768 0.08440670
v 0.21639678 -0.32385272 0.43389279
v 0.30065554 -0.34528685 0.39064798
v 0.05436248 -0.36259034 0.10567705
v 0.26242983 0.33737582 0.12748586
v 0.15397310 -0.37204555 0.06860553
v 0.27258700 -0.17141584 0.53013670
v 0.43965197 0.25090572 0.01118665
v 0.63052928 0.17958573 0.04945590
v 0.32100907 -0.36371911 0.27964896
v -0.59951603 -0.05107782 0.05034776
v 0.17549711 -0.39135996 0.35851774
v -0.46769521 0.09423199 -0.23166835
v 0.09354641 -0.32849321 0.52252209
v 0.53012073 -0.22673108 0.16618529
v -0.24748625 -0.32523423 -0.18091720
v 0.47365832 -0.06548844 0.28154230
v -0.52424943 0.08302403 0.01730742
v -0.33435991 0.08095211 0.29899964
v -0.31743774 -0.15318936 -0.40171403
v 0.17987968 -0.27342194 0.47293922
v 0.29541844 -0.23118208 0.39651763
v -0.32889813 0.03228872 0.38361347
v -0.34686965 -0.27875751 -0.39890409
v 0.17701623 0.31905037 -0.16816843
v -0.28266197 0.06552655 0.46108109
v 0.33057299 -0.36785895 -0.10350633
v -0.50438404 0.20502155 -0.07374530
v -0.61893970 -0.03748434 0.01803843
v -0.61915410 -0.03560108 0.04231429
v 0.62955475 -0.02887945 -0.08285700
v -0.64125425 -0.12161253 -0.05726512
v -0.56308061 0.13680328 -0.03256896
v 0.49349070 -0.21836214 0.18720552
v -0.65765589 -0.03673840 -0.00391022
v 0.45331812 -0.02337185 0.31851828
v 0.29845494 0.26127821 -0.02306339
v -0.48147482 -0.22093382 -0.15859570
v 0.31262282 -0.13272573 0.53108799
v 0.00402833 0.35567167 0.10123821
v -0.54307044 -0.19953512 -0.11537527
v -0.40532064 -0.04072447 -0.31774902
v 0.03202727 -0.31419221 0.34283596
v 0.12558210 0.23026216 0.37115449
v -0.38448372 -0.12083022 -0.46727151
v -0.67270529 0.04996302 0.01046500
v 0.16158800 0.29165879 0.24639137
v 0.24220580 0.12309049 0.41245008
v 0.07197705 0.24751404 0.39249456

