# https://github.com/mikedh/trimesh
v -0.02104251 -0.30828446 -0.11612289
v -0.24511805 -0.18852858 -0.46356606
v 0.66667616 0.04427993 0.18441153
v 0.09036671 0.34080505 0.00079051
v 0.23698935 -0.16527560 0.51117253
v 0.59338826 -0.18264361 0.03614545
v 0.06268250 0.29362237 0.29591066
v -0.26548943 -0.44689491 -0.54122728
v -0.12151535 0.06291227 0.45050198
v -0.58840632 0.18319133 -0.08381784
v 0.28440854 0.31818974 0.05981266
v -0.11977174 -0.11016376 0.48210430
v 0.11452660 -0.03001724 0.12591666
v -0.33577871 0.00836957 0.44817492
v -0.42050266 0.13768777 0.28158692
v 0.58956826 -0.11010653 -0.08294662
v -0.30355769 -0.11010251 -0.37878686
v -0.07882281 -0.11390216 -0.56224555
v 0.24692851 -0.22443846 0.14217280
v -0.54292947 -0.11850362 -0.19972005
v -0.21287178 -0.07122189 -0.25683928
v -0.54136187 -0.06285549 0.02956144
v -0.59866571 0.03925094 -0.07786383
v 0.22993959 -0.29491603 -0.22660349
v 0.19248712 -0.39050645 0.02168681
v -0.30628064 0.19146246 -0.31761912
v -0.36825800 -0.30652782 -0.43562949
v -0.37374324 -0.27744710 -0.42268193
v 0.15233415 -0.31896368 0.36105016
v 0.35855359 0.25998649 -0.09743179
v -0.28180060 0.31986380 0.06516109
v 0.57158959 -0.11013502 0.31459680
v 0.14747353 -0.23068964 -0.54780281
v 0.63619256 0.20264544 0.01795390
v -0.32004234 -0.20838565 -0.44470358
v 0.18830919 -0.39398569 0.23577569
v 0.09864816 -0.34513724 0.20511502
v -0.07425367 -0.18731056 -0.38173509
v 0.03771902 -0.21446767 0.50991875
v -0.57642913 0.02476429 -0.02851240
v -0.50920475 0.09073485 -0.29294491
v -0.08755781 -0.22090678 0.49208969
v 0.05217718 -0.29436651 -0.26938748
v -0.29389870 0.20225510 -0.23082070
v -0.19473189 0.27109024 -0.19314176
v -0.49589899 -0.15251294 -0.18986377
v 0.03685783 -0.29485047 -0.25211611
v 0.46036705 0.15123743 0.34500763
v 0.18816113 -0.33593303 0.03376205
v 0.66734403 0.14885597 0.03113253
v -0.12711439 0.29413015 0.47155413
v 0.02328379 0.28654695 0.26487768
v -0.18944132 -0.12456276 -0.54594779
v -0.45375416 0.27388597 -0.09714393
v -0.04914046 -0.20482615 0.54431242
v -0.16172202 0.22979112 0.51709712
v -0.27742437 0.18831721 0.30969912
v -0.50216120 0.14878042 0.12246993
v -0.10591535 -0.05462752 0.50113165
v -0.39148113 0.16586648 -0.28907770
v -0.61973953 0.17054462 -0.00928176
v 0.12107311 -0.33371946 -0.12899971
v 0.10061644 -0.31282693 0.43712747
v 0.18051955 -0.14397910 0.46533710
v 0.53683430 -0.03440908 -0.18368891
v 0.37237263 0.18676868 0.42380628
v 0.57875383 0.04479728 -0.08729335
v 0.47823033 0.17496450 0.28636998
v 0.02871446 -0.22536694 -0.57011181
v 0.17614110 -0.29235148 -0.62471938
v -0.19136184 0.05916891 0.31312025
v -0.24619652 -0.40635288 -0.47277164
v -0.00629891 0.04645032 -0.37948245
v 0.25465682 -0.06655493 -0.34247518
v -0.07869801 0.24115232 -0.24975264
v 0.03324931 0.30723083 0.41967547
v 0.33208939 0.22794357 0.43366396
v 0.26056895 0.21727347 0.47887811
v -0.28150332 0.28355688 -0.11243587
v -0.11888035 -0.16495766 0.50975084
v 0.57766414 -0.02814855 0.31416842
v 0.47023854 -0.17209852 -0.18575519
v -0.26582313 -0.26966688 -0.47090521
v -0.12114510 0.00840950 0.35632542
v 0.04956159 -0.34703916 0.12748721
v 0.05881450 0.29232877 0.28644353
v 0.63159019 0.10001397 0.03713347
v 0.51457500 -0.08742851 -0.20329575
v 0.57893175 -0.14495067 0.07901670
v 0.15280905 0.28846154 -0.15608989
v 0.62764686 0.10202203 0.09956679
v 0.60521865 0.02921590 0.11261424
v 0.03229425 -0.21916431 -0.57095236
v -0.32936877 0.23550227 0.22141726
v 0.28251332 -0.18916793 -0.32337868
v 0.58826840 -0.14808334 0.23559269
v 0.48759085 -0.18887110 0.35098603
v -0.40050149 -0.04325616 -0.15825601
v -0.16194756 -0.14664401 -0.58462489
v 0.50177532 -0.23625919 -0.10177532
v -0.31121933 0.03534667 0.45687541
v -0.33236754 0.03102081 0.40483147
v -0.58688641 0.00257956 -0.07505804
v -0.45338503 0.24417581 -0.25344568
v 0.31724805 -0.27238405 0.45690590
v -0.24689695 -0.47049981 -0.54099643
v -0.08124208 -0.06543407 0.47926924
v 0.05738460 -0.19512109 0.50195903
v -0.30480880 -0.33087027 -0.47637516
v 0.56640583 -0.20563170 0.03533490
v -0.14478317 0.22091909 -0.25067165
v 0.59869444 0.07794570 0.25942683
v 0.30923063 0.25349137 -0.11977628
v 0.53122735 0.13563401 0.20934553
v -0.03789405 -0.24441563 -0.53659111
v -0.09443647 0.02438802 0.42960706
v -0.31228164 0.09323588 0.47233659
v 0.33451605 0.29848757 0.03012939
v 0.17494999 -0.21000993 0.37602225
v -0.50750875 0.28884214 -0.16313419
v 0.06946214 -0.35802418 0.01589281
v -0.31563878 -0.04345499 -0.47429195
v 0.22953549 -0.38874906 0.17420697
v -0.50655276 -0.07627320 0.04543776
v 0.49477404 0.24563286 -0.00457293
v -0.40538758 -0.24135149 -0.39145294
v 0.50480390 0.06540410 -0.17216766
v 0.07326589 -0.23403800 -0.55416036
v -0.57415897 0.04232249 0.05987510
v 0.21791816 -0.17345509 -0.32872412
v -0.05295137 0.03192958 0.20201516
v 0.16781563 -0.33477762 -0.14220999
v -0.12639874 -0.11530828 -0.55099535
v 0.06733589 -0.26653150 -0.53572464
v -0.21314856 -0.04212121 -0.40619278
v 0.10160600 -0.12115467 -0.36402828
v 0.11237365 -0.04853088 0.26221058
v 0.19089653 -0.39394617 0.02300752
v 0.10027073 -0.25614727 0.41671723
v -0.50512719 0.25715914 -0.20658013
v -0.27169204 -0.05483657 0.44106716
v -0.18145329 0.04766063 0.32839730
v 0.18204029 -0.33638215 0.06145041
v -0.35678783 -0.06584996 0.41760039
v -0.52728975 -0.05886204 -0.09110296
v -0.37660104 -0.30979842 -0.41409874
v 0.40331385 -0.17866647 -0.25548053
v -0.22043221 0.28048137 0.45322239
v 0.44058660 -0.29071122 -0.07274015
v 0.39852393 0.29080915 0.26139474
v -0.58988982 -0.01441913 -0.07854042
v 0.12811729 -0.30261126 0.50704795
v -0.66078204 0.12151372 0.01151205
v -0.35682368 0.00231206 0.41302466
v -0.21936066 0.24023062 -0.20845382
v 0.03471123 -0.30890441 -0.00405944
v 0.18455039 -0.24834161 -0.53719759
v 0.28998613 0.02919134 -0.35215324
v 0.13713154 0.07398007 0.53474474
v -0.33805019 -0.42697409 -0.54719931
v 0.39539972 0.26834095 0.28739753
v 0.62804741 0.14685518 0.11940195
v 0.20192996 0.22177812 -0.26089349
v 0.25892431 -0.31941846 0.22270070
v -0.01417505 -0.22456102 -0.60686684
v -0.19411865 -0.04514508 -0.21327680
v 0.24607812 0.35779545 0.24828437
v 0.28003997 -0.25913644 0.28897536
v 0.04990029 -0.37480232 -0.01326656
v -0.52731335 -0.00167760 -0.09923830
v 0.14775249 -0.17792448 0.40047729
v 0.47301808 -0.30524725 0.08783618
v -0.56117445 -0.10899226 -0.20752326
v 0.61844379 0.06507981 0.14478081
v -0.55915213 0.07605487 -0.20567201
v 0.03586407 -0.25560740 -0.61370546
v -0.26380178 -0.26956499 -0.47979495
v -0.33451653 0.02631302 0.14805493
v -0.32202536 0.06220640 0.37791753
v -0.06500347 -0.16304547 0.54379767
v 0.02191231 -0.18771499 -0.35825500
v -0.34043711 -0.38625997 -0.47679648
v -0.45417398 -0.03641596 0.22138184
v 0.09966849 0.34362918 0.04449298
v -0.27448806 -0.13856727 -0.44606382
v 0.42039585 0.26527339 -0.03549549
v -0.56325746 0.20917989 -0.05342798
v -0.58235919 -0.06448536 -0.00406339
v -0.44441715 -0.07481974 -0.21751030
v -0.11585464 0.00214399 -0.04879752
v -0.43656865 0.14738248 0.18577760
v 0.19038358 -0.30233029 -0.61272156
v -0.57051784 0.05693093 0.04598646
v -0.48586956 -0.14657965 -0.25712627
v -0.62951899 0.13992442 -0.11737028
v 0.38124838 0.22562155 -0.11182121
v 0.20292501 0.36172545 0.03594213
v 0.08929425 -0.01065150 0.22549434
v 0.23887989 -0.23997051 0.19650257
v -0.26772600 -0.08301821 -0.41895175
v -0.17862749 -0.10750608 -0.52559328
v -0.28715903 -0.46923357 -0.53914380
v 0.30079392 -0.32540157 0.03980582
v 0.55815625 -0.17949611 -0.03789305
v -0.58009535 0.09305363 0.07534236
v -0.24397427 -0.35838458 -0.45939103
v 0.15534341 -0.34059778 0.40408579
v -0.22300173 0.17880341 0.47290337
v 0.23904988 0.38161853 0.10801997
v -0.01939662 -0.19967905 0.43283790
v 0.53290993 -0.08720137 -0.16123474
v 0.11732947 0.33629674 -0.03939836
v -0.56293643 -0.00887016 -0.02970679
v 0.52300614 -0.20885725 0.23586616
v 0.20122948 -0.31427422 -0.19774845
v 0.41171119 0.26243216 -0.00602183
v 0.13706030 -0.27524775 -0.24610487
v 0.22289142 -0.28914365 0.29360619
v -0.25156313 -0.10802434 -0.38920137
v -0.29897004 0.21963397 0.34707385
v 0.14888237 0.23589508 -0.28495646
v 0.63622332 0.07366370 0.21072817
v -0.57437289 -0.08299042 -0.14475079
v -0.18921992 -0.09181627 0.50544399
v 0.22860494 -0.14800313 0.12728469
v 0.04788674 -0.19133921 -0.33773667
v -0.48095104 -0.09025212 -0.29019728
v -0.02045907 -0.24407202 -0.24780717
v 0.43882734 0.18914202 -0.11247974
v 0.25226083 0.34035152 0.26729345
v -0.56282175 -0.00347751 -0.20951766
v -0.02084669 0.27036554 0.31615639
v -0.40984821 -0.22044212 -0.33456090
v -0.42468655 -0.13203232 -0.22702494
v 0.02081648 -0.11799533 -0.41008654
v -0.56312293 0.11667763 -0.15622701
v -0.43340665 -0.17130028 -0.37780729
v 0.14910698 -0.30190235 -0.58117223
v 0.52955151 0.06118577 -0.19070899
v 0.16494842 -0.24601617 -0.26444903
v -0.01796374 0.21392576 -0.27083224
v -0.19984028 0.02839592 -0.38870350
v 0.47292632 0.16909769 -0.07840952
v 0.20331560 -0.33775017 0.35437992
v -0.25752071 -0.00234672 0.39946711
v 0.05501328 -0.26100802 -0.53255063
v -0.01817590 0.31931251 0.20988187
v 0.15181944 -0.08106491 0.53210670
v 0.29747298 -0.30372858 -0.06793568
v 0.27049810 0.27004465 0.43055087
v 0.62479222 -0.01469761 0.05588555
v 0.03255402 -0.00701028 -0.01849555
v -0.27348524 -0.01804951 0.51480615
v -0.34539115 -0.04364287 0.47600394
v 0.48567423 0.26492321 0.08859135
v -0.04865582 -0.18734725 -0.58504778
v 0.40969703 -0.07178165 0.41762361
v 0.19960737 -0.16156453 0.22495542
v -0.27506933 -0.14878081 -0.37993044
v 0.07726976 0.32040375 0.14723331
v 0.05275812 -0.18637416 -0.58970374
v -0.36890072 -0.28028849 -0.36881113
v 0.60543662 0.24026993 -0.01379143
v -0.18652524 -0.12280704 -0.31531647
v -0.60780680 0.23526976 -0.12995641
v -0.38464031 -0.09286760 -0.38154006
v 0.46270737 -0.20586920 -0.16697399
v -0.04199431 0.21493998 -0.27637845
v -0.44372049 -0.17176272 -0.35196805
v 0.66054660 0.00204144 -0.05093404
v 0.30704743 -0.32168472 -0.04254886
v -0.51311523 0.01771617 -0.19158857
v 0.20845032 -0.39172262 0.06812689
v -0.24802388 -0.17569965 -0.49157500
v -0.56908113 0.03237914 -0.15596618
v 0.05310428 -0.20590012 0.52673137
v 0.37096706 0.23840356 0.35616073
v 0.38619268 0.14941269 0.42791960
v 0.56637520 -0.20708486 0.01960556
v -0.43626416 0.14664772 0.18618068
v -0.01322868 -0.06566680 -0.42359382
v -0.59371930 -0.02202419 0.02269122
v 0.64317065 0.14572737 -0.05754216
v 0.07575667 0.10475028 0.51509142
v -0.10277767 -0.25437835 -0.30700374
v -0.14543228 -0.21350701 -0.52422518
v -0.01510401 -0.18348794 0.45236719
v 0.20299733 -0.31634128 -0.01631426
v 0.20827150 -0.32439312 -0.17616798
v -0.08317004 0.33520973 0.18087454
v -0.47913677 0.20728356 -0.10496183
v 0.54610342 -0.09282300 0.33641657
v 0.08346581 -0.28667492 0.52238911
v 0.35138518 0.18241888 -0.20230457
v 0.09948009 -0.05367517 0.51996094
v 0.06519438 -0.34358877 -0.04308211
v 0.22573775 -0.33024681 0.34361932
v -0.35870227 -0.05617408 0.31834489
v 0.24980369 -0.34827429 0.01211249
v -0.34412700 -0.36882326 -0.46448749
v 0.29054862 -0.30684343 0.17746025
v -0.34968603 -0.35905570 -0.45389414
v 0.18033141 -0.33891141 0.35569641
v -0.07512479 0.37667164 0.08431056
v 0.07864431 0.28631812 0.39585191
v 0.09071299 -0.35652462 0.13482076
v -0.36411846 0.02230261 0.26863402
v 0.26337188 0.32177916 0.30842555
v -0.60446590 0.07016824 0.03773347
v -0.13369042 -0.23302990 -0.52175343
v -0.09220089 0.07732616 0.47581497
v -0.57553577 -0.05551398 0.05088577
v -0.02221111 0.30441228 0.21504031
v 0.15253907 -0.32984850 -0.15247223
v 0.11863349 0.03160234 -0.39022246
v 0.00178829 -0.36379167 0.02801638
v -0.49480361 0.24149117 -0.22567691
v -0.26035720 -0.43998331 -0.55348563
v 0.14279906 -0.25849709 -0.58413929
v 0.48665309 -0.26828995 -0.02253640
v 0.07089159 -0.24257383 0.49277350
v 0.31568629 -0.33299348 0.22431457
v -0.09338079 0.27346614 0.29989904
v 0.28124663 0.21799698 0.47415137
v -0.15094031 0.24654438 0.42271778
v 0.39061779 -0.11513466 -0.27171725
v -0.33243802 -0.19708474 -0.31890950
v 0.21452802 0.30655354 0.37457636
v -0.22579877 -0.03123556 0.48192352
v -0.53955734 0.11379439 -0.06160843
v -0.33813018 0.28164870 -0.19487400
v -0.27007386 0.11491363 0.41502157
v 0.01885783 -0.23771295 0.53522664
v -0.34917510 0.30643702 -0.06297728
v 0.18105862 -0.31751373 0.45893723
v -0.34459364 0.06359449 0.26472265
v -0.10465349 -0.22769532 -0.56272930
v -0.52706498 0.13159072 -0.28529358
v -0.47515857 -0.14588000 -0.21968113
v 0.54445833 0.18082237 0.10571276
v -0.27380633 -0.47514218 -0.56604928
v 0.12115373 -0.10378768 0.38274419
v 0.13976978 0.30358869 -0.03716572
v -0.39976043 0.16897738 -0.25537455
v 0.43956590 0.27805260 0.03499893
v 0.13208577 -0.31435990 0.01440160
v 0.35950550 0.31008762 0.20287900
v 0.29748487 -0.14598329 -0.33867872
v 0.66039503 -0.04336597 0.00301613
v -0.28879476 -0.04839968 -0.44005099
v 0.46958140 0.25618586 0.07395698
v 0.12663139 0.35569417 0.00438718
v -0.19476146 -0.05345739 0.51966089
v -0.25686443 0.28583825 0.21247700
v 0.55214548 0.26450166 0.00301582
v 0.14411436 -0.39976245 0.22594619
v 0.24849668 -0.37110120 0.13672379
v 0.04853632 -0.35461617 0.00934260
v 0.06126832 -0.24237213 -0.65794408
v -0.46784964 0.01959610 0.15459794
v -0.58649796 0.17753205 -0.09955256
v 0.04549053 -0.29330376 0.53218299
v -0.36086407 -0.03573453 -0.45836005
v 0.19009890 -0.35194477 0.33620429
v -0.29716811 0.03624832 0.37334931
v 0.46479994 0.31149563 0.06552432
v 0.13177262 -0.04299624 -0.02409323
v -0.49787852 -0.08585034 -0.23096135
v -0.15783162 -0.15308233 -0.56856149
v 0.29385558 0.12754774 -0.25759289
v 0.34254023 0.22441334 0.40451542
v -0.35535282 -0.34121710 -0.48601151
v 0.06872437 -0.21848646 -0.58921754
v 0.10449526 -0.24065046 -0.55560941
v 0.68502003 -0.03386261 0.17707229
v 0.65578479 0.01959244 -0.02905854
v 0.10340181 -0.34846544 0.33511120
v 0.09192775 -0.24696873 0.44175616
v 0.27585950 0.05307030 -0.34418508
v 0.61444664 -0.09069886 0.01264830
v 0.02141483 -0.01883425 0.30079675
v -0.17448667 -0.19886854 -0.51826066
v 0.21245916 -0.35994017 0.28891593
v -0.42517728 -0.16414459 -0.34584776
v -0.21587300 -0.14477968 0.47436908
v 0.42372295 0.29519337 0.12255676
v -0.11585710 0.27962214 0.42263243
v 0.24240988 -0.37046418 0.26134595
v 0.25189403 -0.26216045 0.48245654
v -0.61519819 0.24906386 -0.12238766
v 0.25646129 -0.29364914 -0.18661472
v -0.58174431 0.12035296 -0.14887664
v 0.08775193 0.29872772 0.37773129
v -0.49825642 0.22148341 -0.23568992
v -0.02515027 -0.00433238 -0.07605810
v -0.52057052 -0.05841751 -0.19609626
v 0.46683010 -0.22403437 0.34222803
v -0.07090546 0.25945777 -0.20698231
v 0.36111075 0.04248048 0.48746091
v 0.31999174 0.34823039 0.15892956
v -0.04791595 -0.06732389 -0.20619947
v 0.59092754 -0.07704285 -0.06822389
v 0.66378647 0.04384144 0.01421790
v -0.53145701 0.27432904 -0.11764401
v -0.36454499 -0.04151985 0.42826557
v 0.14060761 -0.39328578 0.19266166
v -0.26694965 -0.18299492 -0.35020161
v -0.17326352 0.08920284 0.42704540
v 0.11786830 -0.29720601 -0.06131383
v 0.19930328 -0.35456368 0.29908133
v -0.20898208 0.21060897 0.37887627
v -0.29338413 -0.11252995 -0.38833210
v -0.28834158 -0.44130498 -0.48518953
v 0.03628435 0.29677466 0.42305502
v -0.22601232 -0.48953748 -0.57091624
v 0.24059296 -0.16609502 -0.33550233
v -0.36538944 -0.19216520 -0.35040146
v 0.15543815 -0.38224840 0.23361355
v -0.45026278 0.07366180 0.15494308
v -0.07443921 -0.17751932 -0.57123381
v -0.26362136 0.10772016 0.47370183
v -0.40794930 0.02372862 0.20083514
v -0.36412591 0.02157935 0.28060886
v 0.24601099 0.30918026 0.36603856
v -0.58244574 0.13281900 -0.01722241
v 0.21776448 -0.38070223 -0.00168753
v 0.39751983 -0.32483476 -0.01707873
v 0.25402120 -0.25600934 -0.26597646
v 0.62048668 -0.11196244 -0.01422188
v 0.26830983 0.34328026 0.29950276
v -0.35119092 -0.25049150 -0.35195851
v -0.54156077 0.04092395 -0.18872379
v 0.10309100 -0.35727906 0.09622066
v 0.35276216 -0.29603329 -0.00460399
v 0.30833939 -0.16706753 -0.29986253
v -0.54743975 -0.12497103 -0.11816147
v -0.25968018 -0.38360634 -0.48237723
v -0.27735806 -0.31351328 -0.45144087
v -0.06626604 0.32069159 -0.06450051
v -0.05132714 -0.15445837 -0.39140952
v 0.16851285 -0.37576884 -0.00557854
v 0.50262088 0.27842227 0.07125179
v 0.69201428 -0.05247714 0.13560057
v 0.21108527 -0.21202689 0.19737874
v -0.40266594 -0.04882652 -0.39058307
v 0.04583268 -0.24777314 -0.64111912
v -0.26622754 0.18930149 0.35219646
v -0.06472757 -0.37050068 0.23639706
v 0.20329502 -0.20487720 -0.34750563
v 0.62275541 0.05570090 0.18405756
v 0.36712790 -0.25215811 -0.21143970
v -0.18602428 0.26783711 0.27635014
v -0.03787608 0.23278306 0.49643141
v 0.58369052 -0.14727508 -0.01219464
v 0.29201430 -0.32735464 0.13986677
v -0.11787499 0.26196796 0.46067959
v 0.09689352 -0.28005898 -0.59598005
v 0.30179149 -0.24292324 0.31886405
v 0.03075503 0.32216772 0.16029939
v -0.39184770 -0.25638810 -0.38597751
v -0.26679435 -0.48602331 -0.55882180
v -0.45109999 0.22110361 -0.26640943
v -0.24034902 -0.11443334 -0.50035614
v -0.30604985 0.09744354 -0.38196930
v -0.12894346 0.05168372 0.45112047
v 0.35280693 0.28685787 0.31000218
v -0.32616651 0.21160235 -0.27415645
v 0.53165525 0.06624613 0.32216930
v -0.24095047 -0.44439960 -0.54876590
v 0.27631727 -0.33498886 -0.05415789
v 0.07539858 -0.29951212 0.46482062
v 0.54340404 0.17843783 0.16749038
v 0.68081093 0.18285489 -0.04233519
v -0.39489526 0.19494751 -0.15488254
v -0.19511534 -0.09035585 0.49000129
v -0.35930008 0.18467322 0.40023774
v -0.37261662 -0.30440485 -0.42224753
v -0.29719719 -0.44854224 -0.47794294
v 0.61890954 -0.12144826 0.23005995
v 0.48489910 -0.25396654 0.18197547
v 0.25014451 -0.34154654 -0.01792206
v 0.12375502 -0.24877034 -0.19392844
v -0.49398896 -0.09529345 -0.08239464
v 0.38383245 -0.21209233 -0.24318945
v 0.24134631 0.28962329 -0.05923606
v 0.10882738 -0.14054951 -0.37877882
v 0.64726251 0.06923578 0.21982300
v -0.54453093 0.07075185 -0.18030584
v 0.60923380 -0.08759808 0.11401528
v 0.14784288 0.31010103 0.38410723
v -0.32522488 -0.36129737 -0.48942602
v 0.63510638 0.12981546 -0.07053382
v 0.19928445 0.21684083 -0.27213627
v -0.51734912 -0.01095544 0.05585108
v 0.61374128 0.10311931 0.10740880
v 0.20111057 -0.20239562 0.31952780
v -0.34365591 0.03292535 0.24292758
v 0.42607677 -0.20410368 0.37890118
v -0.12653869 -0.15757996 -0.58585119
v -0.21053505 0.21572413 -0.23564276
v 0.18187159 0.01595914 -0.35521165
v 0.48500594 -0.30375728 0.07871523
v 0.19586116 -0.30894804 -0.16271168
v 0.63559991 -0.08193241 -0.04882421
v 0.53230810 -0.17638743 -0.15464042
v 0.12761149 -0.13773517 0.51119220
v 0.32157403 -0.29855102 -0.08703765
v 0.05142357 -0.21649146 0.48873776
v 0.34478912 0.07092031 0.48862424
v 0.48432735 0.13860652 0.32302600
v -0.51981205 0.30737451 -0.12802327
v 0.60783559 0.24250342 0.01871430
v 0.12713236 0.08396524 -0.35929564
v 0.55524772 -0.16238645 0.29159480
v 0.20797828 -0.10044695 0.54039264
v -0.44315481 0.26841840 -0.01386468
v 0.58092439 -0.07474736 -0.06919611
v 0.18942663 0.23278014 -0.26244232
v 0.66638911 0.11081079 0.01192169
v 0.39614093 0.21759345 -0.11475309
v -0.35321587 0.27473202 -0.19287109
v -0.32267660 -0.22286725 -0.33297729
v 0.22161244 -0.27602476 0.29240301
v 0.15894428 0.37360847 0.11168300
v -0.47909692 -0.08644719 -0.12393667
v -0.32274225 0.12951645 0.46127748
v 0.35108909 0.33482474 0.09826234
v -0.23831482 0.06029101 0.37575990
v 0.47386301 -0.25959176 0.11992713
v -0.60101700 0.12057180 -0.02049319
v 0.28808144 -0.29280028 0.28992158
v 0.47297183 -0.19088879 -0.15479811
v 0.00853154 -0.31730133 0.40271413
v -0.26402947 0.31460971 -0.11956890
v -0.38003325 0.13475546 -0.37885895
v 0.65860254 0.06550698 0.04815919
v -0.41769728 0.19011986 -0.37061355
v 0.54603451 0.18164130 0.14263722
v -0.59340316 -0.01110489 0.00550238
v 0.57074380 0.16854393 0.13223442
v -0.04552635 0.30379805 0.23886952
v 0.31270730 0.33455887 0.07667346
v -0.23848227 -0.35309467 -0.43031487
v 0.56968755 -0.17080411 0.07529937
v 0.10357469 -0.27377167 -0.65057850
v -0.58342212 -0.08680054 -0.00033718
v 0.23881426 -0.27386290 0.07388108
v -0.06937425 0.31550160 -0.08068927
v -0.07403213 -0.18259391 -0.39001235
v -0.29945225 0.01320213 -0.46627724
v 0.73152304 0.16262747 -0.01319515
v 0.15286259 -0.29219589 0.36125034
v 0.17184377 -0.34530181 0.38475755
v -0.59230965 0.18661377 -0.11897318
v 0.19938327 -0.21277578 0.25758383
v -0.34633315 -0.14715958 -0.46526763
v -0.03451634 0.36522418 0.13835420
v 0.32872516 -0.32247847 0.17285331
v -0.52930713 -0.01114996 0.12287304
v 0.41535327 -0.26409045 -0.11924483
v -0.01585209 -0.24343918 -0.54206926
v -0.63280070 0.18933694 -0.00000639
v -0.43310776 0.05305804 -0.38990840
v 0.58451319 -0.03731668 0.31506801
v 0.40759587 -0.31447309 -0.05058148
v -0.52567738 0.00553574 -0.20276171
v 0.20555004 -0.38673338 0.25032508
v 0.25544819 -0.26206937 0.48085201
v -0.46245426 0.15158443 0.09455598
v -0.33870488 -0.39282098 -0.47689468
v -0.51642281 0.17367497 -0.07016025
v 0.20086293 -0.30209407 0.33079571
v -0.03669298 0.38066316 0.13613266
v 0.12170780 -0.38341963 0.15984786
v 0.66928035 0.03904410 0.09593192
v 0.59801090 0.17322579 -0.02809565
v -0.51422006 -0.07111619 -0.04452302
v -0.16102995 0.28470013 0.29474658
v 0.40572932 0.22388354 0.36061361
v 0.47073013 -0.19995639 0.34311309
v -0.45499784 -0.07104342 -0.25035712
v -0.27660042 -0.00729555 -0.38208893
v -0.41014433 0.24383259 -0.13856259
v 0.60590565 0.09182970 0.16518843
v 0.14539513 0.32933611 0.35978067
v -0.56503886 -0.08718999 0.00402566
v 0.06433248 0.22867745 0.49326390
v -0.23110229 -0.19498904 -0.45588246
v 0.06285939 0.31557184 0.00862809
v 0.50197232 0.17989823 0.25065744
v -0.05821468 0.00522858 -0.39142984
v -0.30584604 0.23128110 0.44186950
v 0.20962521 -0.31135103 0.14842680
v -0.04139210 -0.07688898 0.45909470
v 0.08564737 -0.24095556 -0.64996469
v -0.32209796 -0.41443810 -0.47292754
v 0.15255289 -0.39233842 0.19570199
v 0.08479601 0.32892293 -0.01084351
v 0.41954094 0.23062557 -0.08876360
v -0.39464310 -0.28422749 -0.41542080
v -0.06005117 -0.02097283 0.22828747
v 0.63058108 0.02261229 0.01981254
v 0.57468081 -0.16954607 0.25661251
v 0.15117107 -0.28986424 -0.11534740
v -0.57753319 -0.09233171 0.00797250
v -0.50881153 0.02136974 -0.19423090
v 0.39894110 0.28936169 0.27970859
v -0.35902390 0.12921765 -0.35082185
v 0.02597877 0.33576435 0.12956738
v 0.23782179 -0.34275094 0.33446828
v 0.00449505 -0.26622087 0.44554129
v 0.16276644 0.31271422 0.37751314
v 0.15589938 -0.34320015 0.34735930
v -0.49125880 -0.03987194 -0.12106933
v 0.11500750 -0.31103507 0.45994213
v -0.27643543 -0.17657733 -0.45055300
v 0.64747363 0.17698430 -0.02229257
v 0.19854340 0.38006860 0.14375806
v -0.41151381 0.18654490 -0.13737592
v 0.35654938 -0.22840777 -0.24340558
v -0.12037873 0.27093530 0.46814659
v 0.45384669 -0.26996231 -0.09356072
v 0.29378149 -0.36789948 0.22286049
v -0.29768801 0.23302819 0.44895908
v 0.63349921 0.04771736 0.00552124
v -0.18162031 0.14030266 -0.33904690
v 0.24404183 -0.33484426 0.19896033
v 0.24059817 -0.31242573 0.09232172
v 0.47308952 0.11540554 0.33220959
v -0.35845563 -0.02511422 -0.08734050
v 0.13178673 -0.35775203 0.38392574
v 0.26196477 -0.27278912 0.10428102
v -0.60247284 -0.00234078 0.00182108
v 0.26783529 -0.26950583 -0.24644805
v 0.61870068 0.07513554 0.09611020
v -0.02560002 -0.11146984 0.47502825
v 0.58545202 -0.19783381 -0.01391893
v 0.28871801 0.16810212 -0.25807312
v -0.43689302 -0.15598141 -0.31285191
v -0.14192660 -0.22257870 -0.52082741
v -0.55910254 -0.05074435 -0.02652909
v -0.28112048 -0.45865309 -0.55700082
v 0.07725511 -0.23666637 -0.65075433
v -0.49406773 -0.11392689 -0.26626033
v 0.41528177 -0.26007584 -0.18907540
v 0.24719729 0.17814313 -0.28298506
v -0.22804433 0.24966288 -0.18975647
v 0.15844500 0.25337365 -0.24874154
v -0.27788273 -0.18084073 -0.36177766
v -0.03238349 -0.21308874 -0.34886026
v 0.38624442 -0.26797217 -0.18184319
v -0.54706556 -0.11107352 -0.04281139
v 0.10233533 -0.39296988 0.21543214
v 0.17610103 -0.31129402 0.22198170
v 0.19525307 -0.29805711 -0.09161115
v 0.18878734 -0.26087388 -0.27041021
v -0.39833888 -0.16661882 -0.31296390
v 0.04500920 -0.32702640 0.14105621
v 0.22624169 -0.34070310 0.12497932
v 0.24723504 -0.36125597 0.29904169
v -0.01705851 -0.21933629 0.52944410
v -0.15833578 0.24484143 -0.21058641
v -0.18319646 -0.19590515 -0.55577731
v 0.05608411 -0.30803373 0.40534845
v 0.09887828 -0.23152423 -0.18994938
v 0.45692334 -0.23254839 0.31289798
v 0.03712930 0.24681166 -0.23028851
v -0.16589427 -0.10154792 -0.56868750
v -0.05023084 -0.11456534 -0.55874729
v 0.58950049 0.12910837 -0.02043664
v 0.55035996 -0.19983760 0.21455730
v -0.58311689 0.04245158 -0.05786160
v 0.20509049 -0.25561875 0.45385659
v -0.58512771 0.15854153 -0.05951139
v 0.18054464 -0.32473788 0.42608771
v 0.60787916 0.18829373 -0.00802673
v 0.50089413 -0.23841444 -0.07663502
v 0.14325351 -0.15972164 0.41729027
v 0.15051758 0.30440673 -0.05239542
v -0.23904246 0.05008781 0.42706853
v 0.28565481 0.32730514 0.28062487
v 0.24340335 -0.15947573 0.07120756
v 0.25387529 -0.30798733 0.16278788
v 0.10687671 -0.11850218 0.33369297
v -0.37744892 0.16825017 -0.28323877
v 0.01059015 -0.29815054 -0.24366909
v 0.05650826 -0.16286334 -0.58270627
v -0.50902689 -0.08613038 -0.12614396
v -0.16840340 0.05742839 0.50623727
v -0.38902450 -0.04000863 -0.41364247
v -0.37383741 -0.03537293 0.43674329
v 0.17547205 -0.24817608 -0.24954748
v 0.28971002 -0.20592071 0.48415887
v 0.15534061 -0.30841997 -0.20995981
v 0.04236140 -0.12742133 0.48056436
v 0.06492949 0.31478539 0.25193927
v -0.55184722 0.18868566 -0.17938463
v 0.10100944 -0.30657160 -0.03587665
v -0.26428711 -0.27991605 -0.47584158
v 0.17824535 -0.26332480 0.36643425
v 0.64065111 0.07352628 0.12373876
v 0.40564731 0.08923523 -0.25827098
v -0.04108416 -0.17084813 0.52518219
v 0.01848797 -0.22075185 -0.58130991
v -0.55795860 0.31157869 -0.12333299
v 0.12099345 -0.09271610 0.09888277
v -0.27357730 -0.29643735 -0.41759422
v -0.01560439 -0.19868854 -0.57792139
v 0.16729510 -0.32898310 0.27901933
v 0.11090626 -0.32109949 0.36965877
v 0.65364128 -0.12036719 0.12611136
v 0.39833060 0.30497095 0.17817876
v 0.13405821 -0.35429138 0.37771586
v 0.42663920 0.06388420 0.40992397
v -0.09005753 -0.20364840 -0.37597460
v -0.10075418 -0.02941035 0.50098157
v -0.48005459 -0.06048720 -0.12983623
v -0.33950424 0.23960930 -0.22054796
v -0.44463745 -0.05952744 0.28126809
v 0.04884290 -0.26551503 -0.53635889
v -0.18229680 -0.22160691 0.44082469
v 0.06940749 -0.29608631 0.37723231
v -0.15759467 0.06313126 0.43646306
v -0.35594279 0.04064456 0.20556083
v -0.04723075 0.27029532 0.41463554
v 0.25661200 -0.25777230 0.47825199
v -0.48128548 0.04913427 0.16242652
v 0.55867082 0.12478752 0.21087357
v -0.40104839 -0.15589665 -0.36209452
v -0.05473419 0.31613412 -0.05360263
v 0.64541394 -0.02343627 0.06428052
v -0.07353552 -0.11208527 0.56407773
v -0.15395236 0.26081529 0.43221852
v -0.51898736 0.17483671 0.11583563
v -0.35449845 -0.34124136 -0.46242809
v -0.38743705 0.16767940 -0.27994737
v -0.09797993 -0.36665842 0.21898973
v -0.40789977 0.03277586 0.20851642
v -0.38401738 0.21825540 0.34739026
v 0.08876142 -0.25069728 0.47881740
v 0.00564312 -0.13394143 0.52604699
v 0.57400036 0.20010117 -0.02385934
v -0.29779929 0.06191165 0.27399951
v 0.31593800 0.22202709 0.44430447
v 0.15200147 -0.21448176 -0.15842649
v 0.20030434 0.30896023 -0.05026062
v 0.44420645 -0.30553585 -0.01165639
v -0.42083693 -0.15400791 -0.31515947
v -0.29489625 -0.45845282 -0.51771063
v 0.18666327 0.33291143 -0.01726229
v 0.10062355 0.38997149 0.13643250
v 0.34374285 -0.29239625 0.35314503
v -0.16703923 -0.10907179 -0.39145464
v -0.30099669 -0.43685502 -0.51492834
v 0.25709614 0.16546685 0.50669879
v -0.28140023 0.00168914 -0.43750522
v -0.23621534 0.24677488 0.26723349
v -0.12723200 0.30509636 0.19684455
v 0.28355643 0.20980497 -0.23574817
v -0.02676752 0.01922265 0.36815244
v 0.17290707 -0.33845329 -0.06046870
v 0.41883820 0.30748448 0.08094139
v 0.09078406 -0.02995015 -0.37844700
v -0.04486829 0.32933199 0.00435105
v 0.34120148 0.32842255 0.07485832
v 0.20301366 -0.33739001 0.24840999
v 0.44613594 0.13348395 0.37104490
v 0.16588841 -0.07864864 0.15393616
v 0.56613380 0.15146126 0.13103536
v 0.59205234 0.10723610 0.13361478
v -0.39173150 0.18231145 -0.17800656
v -0.55331171 0.06503743 0.07774332
v -0.20590699 -0.14879778 -0.40627831
v -0.15995224 0.07006927 -0.37367350
v 0.18315826 -0.34559223 0.42186725
v -0.06123783 0.22243302 -0.28416085
v -0.27157480 0.02421822 -0.10125637
v 0.24650235 0.28782085 0.39262295
v -0.32598555 -0.34819746 -0.47198176
v 0.32602003 0.12255225 -0.27458414
v 0.27676830 -0.04617291 0.49089548
v 0.64385223 -0.07095767 0.09649134
v 0.07832561 0.31955138 0.27703640
v 0.68554866 0.02695919 0.09742002
v -0.46955517 -0.07581793 0.19171958
v 0.12096915 -0.02465713 0.18208392
v 0.55024958 0.08448221 0.30945212
v -0.11318848 -0.16304258 0.48284835
v -0.48639679 0.28967983 -0.20587884
v 0.16595683 0.11764733 0.52150208
v -0.16553988 -0.21518537 -0.54499108
v 0.50936246 -0.20101443 -0.15925923
v 0.68249619 0.06297255 0.04023508
v 0.08564533 -0.01055343 0.27015543
v -0.40002108 0.11469921 0.23304689
v 0.38170356 -0.31454980 -0.06073947
v 0.27646279 0.37826431 0.13995454
v -0.14007267 0.35090077 -0.04696112
v -0.59786654 0.26340550 -0.15001485
v -0.01954304 -0.19955851 -0.53930521
v 0.20609723 -0.33481252 -0.02743841
v -0.46669531 -0.10799225 -0.34225613
v 0.59535354 0.17023386 -0.09623215
v 0.45369092 -0.10299482 0.41295114
v 0.40318623 -0.27800333 0.21357781
v -0.12558052 -0.20680149 -0.53539872
v 0.09370067 0.32497504 0.32924971
v -0.47441858 -0.02233540 -0.20905575
v -0.57978499 0.18762162 -0.00218904
v 0.69561911 -0.03344966 0.10461570
v -0.56832546 -0.03032843 -0.04624448
v -0.49886513 -0.16382708 -0.26429945
v 0.09430785 0.33252755 0.05272578
v 0.48742956 -0.27568442 0.03300601
v 0.48332095 0.18375948 0.30682686
v -0.51667875 0.26128793 -0.19997783
v -0.06477588 -0.10815527 -0.57955515
v 0.10156696 0.28760117 -0.18183488
v 0.41684911 0.22815171 0.30375528
v 0.20333265 0.12263760 0.50887138
v 0.33200917 0.12885684 0.45754483
v 0.31014857 0.33435452 0.24550177
v -0.50280082 0.12337452 -0.29361013
v -0.00717621 -0.00928998 0.25435477
v -0.46011221 -0.15726016 -0.25981277
v -0.34747505 -0.35899433 -0.50018626
v -0.03190701 -0.27107754 0.49269783
v -0.28319693 -0.23814002 -0.36848068
v -0.33834389 -0.37029812 -0.48574358
v -0.41704911 0.02804704 0.21231842
v 0.08517435 -0.34335968 0.38942689
v -0.49402109 0.07536818 -0.29831165
v 0.50121444 -0.19720107 0.32756180
v 0.64735186 0.07918372 0.04996456
v 0.60275197 0.03825419 0.09086406
v 0.01603574 -0.20135874 -0.56886405
v 0.18887585 -0.11872526 0.50932264
v -0.28963155 0.00503554 -0.42551535
v 0.09297754 -0.20982720 -0.55345672
v -0.26982021 -0.47528076 -0.56241751
v 0.14901553 0.29704458 -0.15904813
v 0.17221388 -0.32820645 -0.14786288
v 0.01032966 0.32468876 -0.02636411
v 0.64301562 0.18684798 -0.03794641
v 0.68378562 0.00790505 0.17286122
v 0.44663090 0.24661654 -0.05683918
v 0.61248446 -0.13316491 -0.05441120
v 0.02131377 -0.13144428 0.46736962
v -0.59389091 0.22385333 0.04797357
v -0.15825987 0.27321965 0.40526849
v 0.38009277 -0.32375681 0.03755731
v -0.11182008 -0.22615850 -0.54639703
v 0.08303396 -0.32613248 -0.01701737
v -0.04027198 -0.23539622 -0.57136303
v 0.61222965 -0.10037390 0.10741190
v -0.14549287 0.15756920 -0.33578199
v -0.26752031 -0.12342637 0.51566410
v -0.34860536 0.30033112 0.09085582
v 0.56732744 -0.17429990 0.16648054
v -0.41378960 0.10598395 0.32192707
v 0.64646387 0.01935482 -0.01868963
v 0.03856090 0.32480437 0.14584160
v 0.62506521 -0.14069518 0.12458910
v -0.15137336 0.26131663 0.38926247
v -0.07370766 0.26668927 0.43034860
v 0.05431183 0.30911493 0.43888128
v -0.27178884 -0.05303039 -0.42013764
v 0.50453001 -0.27176642 0.02555797
v 0.49488875 -0.22748551 0.28299212
v -0.14839411 -0.05326024 0.53443009
v 0.57767791 -0.14024037 0.10820050
v 0.35928574 -0.24325174 -0.22185792
v -0.25171828 -0.36809409 -0.42871794
v -0.27544871 -0.31290275 -0.43600383
v -0.41516891 -0.08066617 0.37495974
v 0.09485865 0.27053091 0.36654887
v 0.25143650 -0.21323733 0.10312727
v -0.55773777 -0.01700160 -0.20938215
v -0.40189224 0.17589927 0.33026904
v -0.36290461 0.12248012 -0.42155164
v -0.30784366 -0.11838280 -0.35699803
v -0.53997725 0.19950822 -0.26024061
v -0.06611365 0.20266493 0.49498248
v -0.22853041 -0.49346179 -0.56572413
v -0.44126126 0.07103826 0.21146365
v 0.38704658 -0.01940500 -0.28711078
v 0.06803045 -0.33725709 -0.00460355
v 0.16598554 0.26365328 -0.22527736
v 0.60869288 -0.12866797 0.11898370
v 0.51811242 -0.22802243 0.01652139
v 0.42698371 -0.31731814 -0.01425848
v -0.43874827 0.21257940 -0.27601075
v -0.56144601 0.11267872 -0.19124043
v 0.26699328 -0.34225914 -0.06477717
v -0.51322657 -0.00664882 0.10057186
v 0.48689383 0.12770212 0.30544794
v 0.20441177 0.37656578 0.17642279
v 0.35267040 0.30808133 0.11527668
v 0.24339630 -0.30853060 -0.09682614
v -0.08051363 -0.00940269 -0.08992869
v 0.57131016 -0.18230723 0.26198217
v -0.63448149 0.15418616 -0.11670769
v -0.06096796 -0.18023774 -0.59013951
v 0.50323683 -0.21424621 0.29890436
v -0.44802898 -0.00642487 0.05153995
v 0.10056652 -0.38633972 0.21660537
v -0.39399791 -0.09192555 -0.41357514
v 0.27847093 -0.36687315 0.02977449
v 0.20318496 -0.30562454 -0.06847406
v 0.19292471 -0.15073380 -0.35297629
v -0.28012764 -0.02480751 -0.42690518
v 0.32771248 -0.34436917 0.24297909
v -0.34713647 -0.06038017 0.36793271
v 0.06076189 0.31584865 0.45199764
v -0.49140918 -0.03374088 -0.07811583
v -0.27853185 -0.33093587 -0.43959531
v -0.26899856 -0.07246865 0.54739308
v -0.21093720 0.29452938 0.25373417
v 0.58785391 -0.03360827 0.30636156
v 0.24617630 0.36171350 0.21557477
v -0.51140690 -0.02239315 0.06552264
v -0.26054013 0.05328393 0.05002681
v -0.32990468 0.12656048 0.26620790
v 0.70497578 0.00288459 0.10995623
v -0.36192501 0.07631844 0.25767630
v -0.58898115 0.13711999 -0.09442311
v -0.17905739 -0.06517839 0.54956287
v 0.68410742 0.01911922 0.18898550
v 0.69289172 -0.02995393 0.12579751
v 0.66760147 -0.01020594 -0.04705097
v -0.29521486 -0.44393036 -0.48492122
v 0.05444571 -0.29991573 0.35858124
v -0.06037097 -0.37466645 0.22918987
v -0.51906973 0.16687396 -0.05910185
v -0.28500879 0.09057030 0.49601501
v 0.65284151 0.06431860 0.07363998
v -0.54723102 -0.10719709 -0.03528272
v 0.08013399 0.22979046 -0.29654020
v 0.17695299 -0.32899207 -0.06815760
v -0.22041222 -0.10706224 -0.52176589
v 0.14801325 -0.13855001 0.02240887
v -0.41901636 0.01022644 0.17351215
v -0.35799676 -0.24081689 -0.33808041
v 0.17399263 -0.28899756 -0.62162918
v -0.10537291 -0.19056831 0.54249972
v -0.51848745 0.23185000 0.01187835
v 0.01280190 -0.25268832 -0.58511055
v 0.02984916 -0.25069001 0.47847012
v -0.45168939 0.18052712 -0.08510924
v 0.12372828 -0.29212549 -0.61070907
v 0.04257275 -0.36312494 0.05474900
v 0.11971491 -0.35877389 -0.05800319
v 0.22990122 0.35320845 0.25573009
v -0.60239971 0.19441390 -0.11504802
v 0.23804098 -0.33469182 0.36760733
v -0.41723883 -0.17780775 -0.36632547
v -0.17266540 0.31763062 0.01657619
v 0.49455154 -0.23189302 -0.12648703
v 0.09215879 -0.20736577 -0.58963633
v 0.07237682 -0.26261282 -0.64071625
v -0.57746297 0.08224582 -0.02160292
v -0.11152133 0.28654140 0.43659705
v 0.09649064 0.28575689 0.24053465
v 0.17064595 -0.38972566 0.18304691
v -0.40220693 0.23789603 -0.08970500
v -0.51899838 -0.00188043 0.11703861
v 0.62647772 0.10384063 -0.09456048
v 0.63755256 -0.05311052 -0.00599578
v 0.34075370 0.12200636 0.45203772
v -0.18059333 -0.09232137 -0.40739369
v -0.31711775 0.17673941 0.25215679
v -0.49337900 0.18956605 -0.08712243
v -0.50096536 -0.12543753 -0.23611788
v -0.57031244 0.12557676 -0.09269323
v -0.27730292 -0.47949785 -0.55946273
v 0.24899332 -0.33307052 -0.05586541
v 0.64210314 0.06213175 0.01255216
v -0.01842355 0.02232380 0.50565648
v -0.28784081 -0.46273184 -0.52610630
v -0.24766952 -0.33021787 -0.47155136
v 0.18210730 0.23423630 -0.25668129
v -0.54018939 0.26988289 0.01148001
v 0.19185349 -0.28289697 0.38048691
v 0.41678768 0.27883109 0.04292828
v -0.30542600 -0.31517124 -0.44956666
v -0.12271517 0.24392997 0.48749670
v -0.35714698 -0.02663971 0.43370605
v 0.00957162 -0.32542875 -0.19132411
v 0.24091026 -0.21828881 0.39969313
v 0.52404594 -0.20240316 -0.11791708
v -0.34301823 0.22582474 0.38001344
v -0.49959555 0.01738829 -0.19326806
v -0.42535391 -0.11237818 -0.27875584
v 0.31444865 -0.22645123 0.41307631
v 0.00294191 -0.13383856 0.47783208
v 0.18469438 -0.19252467 0.31300816
v -0.51256967 0.12807943 -0.22023016
v 0.10531394 -0.14533325 -0.37782478
v -0.40714344 0.23735784 -0.24151772
v 0.62505972 0.08356947 0.22125289
v -0.01445184 0.32356840 -0.07361398
v -0.29074523 -0.44107211 -0.48471063
v -0.65421695 0.24221601 -0.09739976
v -0.40024459 0.09466057 0.21652940
v -0.09595201 -0.23325515 -0.55056131
v -0.41588646 0.26480836 -0.20977333
v -0.06276675 -0.23653716 -0.33105022
v 0.10584515 -0.34205303 -0.05328125
v -0.17041802 -0.18972296 -0.33290565
v -0.20500538 -0.06755634 0.52588153
v 0.23308933 -0.31282401 0.04815008
v 0.39837253 0.26675951 0.28132811
v -0.49533603 -0.08948606 -0.23824756
v -0.02041934 0.02433626 0.31605837
v 0.21487816 -0.37085944 0.03390461
v -0.51785952 -0.05979875 -0.18576993
v 0.55045724 0.06974060 -0.18454984
v 0.12678617 -0.36569241 0.23116547
v 0.32847020 0.24194841 -0.06747351
v 0.16249818 0.17605835 -0.31440514
v 0.35207984 0.30391616 0.22403651
v 0.08745806 0.30802837 -0.12252043
v -0.14506257 -0.17215277 -0.40890008
v 0.16108730 -0.24493815 0.38605988
v -0.25546417 0.04020379 0.43503973
v 0.24067804 0.11554636 -0.30248043
v 0.02425963 -0.13670647 0.51274073
v 0.43515342 0.18769345 -0.12137827
v 0.60046041 0.09318733 -0.14927268
v -0.26950115 -0.27069315 -0.48186994
v 0.04937311 -0.05881756 -0.38757741
v -0.18160494 -0.18491569 -0.33141157
v -0.36263898 0.27465555 -0.20420972
v 0.64241117 0.06976382 -0.02655185
v -0.07699773 -0.02763731 0.48299810
v 0.46241212 -0.12187697 -0.21418157
v 0.00471473 -0.26555666 0.51603746
v 0.08481330 0.31639877 -0.07120086
v 0.20828965 0.28378904 -0.08241028
v -0.14327100 0.08101912 0.42299533
v 0.54233062 -0.16294357 0.30132109
v 0.19374320 0.20801550 -0.28187910
v 0.25051755 0.35698873 0.06538727
v -0.16189674 0.37430364 0.04161775
v 0.16187514 0.38455260 0.06585174
v -0.45610473 -0.01301507 -0.24335408
v -0.52799088 0.18538079 -0.08500946
v -0.09483299 -0.18610664 -0.59857190
v 0.18028009 0.38079441 0.13390131
v -0.43392575 -0.04806248 0.28660846
v 0.65175825 -0.08006279 0.19204758
v 0.24372657 -0.25962138 0.11516882
v 0.48273489 -0.17965269 0.35734412
v -0.32998019 0.20596889 0.24128331
v 0.17971724 -0.31617975 0.43135762
v -0.00326932 -0.21246916 0.48359504
v -0.31624609 0.19390321 -0.32374412
v 0.08860500 -0.29484540 -0.15576652
v 0.41321802 0.26231498 -0.02150334
v -0.48666415 -0.14874482 -0.28391185
v 0.43373400 0.25459594 -0.06179553
v 0.56919771 0.11066879 0.19910204
v 0.64633298 -0.05776528 0.21883458
v -0.37752759 -0.29844284 -0.39832315
v 0.39117754 0.25815231 0.28706437
v -0.28049669 -0.46596381 -0.58341837
v 0.08842587 0.11040194 0.51835632
v 0.06108665 0.34021765 0.00419324
v -0.46386877 -0.04920141 0.13647054
v -0.40335149 0.12182060 0.35214090
v 0.10674268 -0.12564719 0.42545736
v 0.47636318 0.09311405 -0.20129970
v 0.23517905 -0.30054942 0.36689934
v -0.41533169 0.21805835 -0.25470531
v 0.54195285 -0.21772841 0.26239711
v -0.58262432 0.02765982 0.04248456
v -0.32998180 -0.38255149 -0.47183836
v 0.33199432 0.34636927 0.15712437
v 0.06918118 -0.22896250 -0.61530948
v -0.46720153 0.17513679 -0.32214147
v -0.52448714 0.00859949 -0.19160789
v 0.28962860 0.07868151 0.51457006
v 0.03442869 -0.30866426 0.49712434
v 0.26871285 -0.31377971 0.20869295
v -0.47640482 0.10006151 0.13428146
v -0.31792280 0.18247110 0.45225754
v 0.21235964 -0.21653275 -0.08662261
v -0.15924008 0.09322946 0.40560660
v 0.66553450 0.16252531 0.05778904
v -0.48811680 -0.09733274 -0.14870094
v 0.11740876 0.06703106 0.51499718
v 0.63097119 0.15237167 0.06794804
v 0.34810433 0.32619333 0.17388511
v 0.19016199 0.29288021 -0.11832449
v -0.33274651 -0.12793356 -0.37630025
v 0.18366989 0.34839356 0.00462948
v 0.54155481 -0.23021957 0.13372815
v -0.27610046 0.03709954 0.21152806
v 0.61926579 -0.15579759 0.12799370
v 0.46257454 0.06059431 0.39640388
v 0.18898109 0.32289016 0.35162261
v -0.36150634 0.03153656 0.24640609
v 0.47793141 0.07968720 0.36345059
v -0.02095195 -0.10843982 -0.38188347
v -0.22481990 0.31058645 -0.06390385
v 0.23673849 0.25636780 0.42860195
v -0.10929373 0.32655624 -0.01762630
v 0.22832231 -0.33930761 0.05289485
v -0.44257265 -0.17647302 -0.30426759
v -0.36473602 -0.31882226 -0.42758006
v 0.30034879 -0.26552978 -0.24508275
v 0.63090408 0.01939479 -0.09592885
v -0.35144123 0.22621249 0.34408328
v 0.58099037 -0.14232820 0.14202586
v 0.55232716 -0.12177920 -0.06965395
v -0.07836694 0.28008512 0.47712001
v -0.26481062 -0.38737932 -0.46441785
v -0.38858023 0.30020794 -0.20619059
v 0.02194911 0.35102430 0.08945520
v -0.48446679 -0.10323665 -0.28035077
v -0.15472831 0.25273880 0.35565037
v 0.54555833 0.28404951 0.01477236
v 0.22784957 -0.16021638 0.12077066
v -0.09286435 -0.10726771 -0.55256641
v -0.41545376 0.06823001 0.23543836
v -0.59015149 0.17554902 -0.16244242
v 0.61522007 0.03795964 0.26256645
v 0.17896317 -0.30653316 -0.08124989
v -0.09594880 -0.08215187 -0.24728650
v 0.02140462 -0.25011015 -0.61388117
v 0.64695948 0.00012214 0.01648245
v 0.20425633 -0.16175523 0.48853460
v 0.09093168 0.29118627 -0.17120564
v -0.34564349 -0.20435554 -0.33285230
v 0.14654130 -0.11807602 0.34816706
v -0.36483589 -0.26342317 -0.37846303
v 0.45547199 -0.26939255 -0.09984361
v 0.52608806 0.17794576 0.19179225
v 0.59559989 -0.19209759 0.21002963
v 0.22120312 0.21823652 0.49423814
v 0.24512611 -0.03355590 0.49562833
v 0.05459490 -0.02578080 0.35009411
v -0.30055523 -0.37166402 -0.49960595
v -0.24654135 -0.45226094 -0.55785382
v 0.19670518 -0.29021636 0.30830058
v 0.23461396 -0.25178015 0.24951252
v 0.26758730 0.06886866 -0.35938537
v 0.04948141 -0.17148702 0.51188707
v -0.48617649 0.24232578 -0.24986143
v 0.63948935 0.13844836 0.07990677
v 0.06430873 -0.34499043 -0.01460096
v -0.24239576 -0.12824096 -0.29368633
v -0.04658940 0.24452868 0.41927990
v -0.12965593 0.26114529 0.46624324
v 0.18500875 0.28972611 -0.12770775
v -0.18068469 -0.19566944 -0.50746083
v -0.08567727 -0.19319007 -0.36570859
v 0.55691189 -0.19810450 0.20998538
v -0.23348501 -0.48401564 -0.57231301
v 0.10281576 -0.19808021 -0.20434469
v -0.50026053 0.17916948 -0.29485416
v 0.53539449 -0.01955272 0.33787715
v 0.36019951 -0.28973380 0.23157488
v 0.13949019 0.31760889 0.27101749
v -0.21867090 0.27722540 0.44980666
v -0.28954548 -0.03408901 0.41523737
v -0.23782669 -0.17647660 -0.44544005
v 0.38268632 -0.34627736 0.25690740
v -0.19238478 0.14602627 -0.34287098
v -0.33525538 -0.32993072 -0.47214895
v -0.24407448 -0.10543476 0.54366446
v 0.38122469 0.26547343 -0.03176371
v -0.37982029 -0.05423214 0.40660247
v -0.29475105 0.15993245 -0.24669342
v 0.50501794 -0.09820187 0.37771574
v -0.61590981 0.03673115 -0.09482878
v -0.07692851 0.33677217 0.00493140
v 0.20917296 0.28646645 0.38607398
v 0.24293837 0.23333940 0.46794453
v 0.27791715 0.09056249 0.49150628
v -0.59357184 0.05568049 0.04683870
v 0.05724569 -0.21690519 -0.54709643
v 0.15379222 -0.29831097 -0.12915620
v -0.06150810 0.30430776 -0.11311062
v 0.58090037 -0.17016563 0.15821412
v -0.30904290 -0.21824482 -0.29567948
v -0.40102991 -0.22545519 -0.37260616
v 0.51844907 -0.25955480 -0.04982835
v 0.03662448 -0.07766389 0.44450012
v 0.26024139 -0.31744662 0.37741494
v -0.63346517 0.12693509 -0.12636620
v 0.45395243 0.03738777 0.39782894
v 0.08989704 0.26655445 -0.19824228
v 0.05778690 -0.23312426 -0.58165455
v -0.07878983 0.03208689 0.07198270
v -0.61286449 -0.05749038 0.02644059
v -0.27477953 -0.34217605 -0.46483707
v 0.06204835 -0.21603839 -0.34922615
v 0.27597541 -0.16301528 -0.33171305
v 0.20750347 -0.34446159 -0.01990838
v 0.05148774 -0.23895220 0.54206556
v -0.32157320 0.23221016 0.42583567
v -0.33810428 -0.16672710 -0.44371337
v 0.22526318 -0.33630654 0.25822240
v -0.40683204 -0.04703759 -0.38407272
v -0.54452235 0.02858999 -0.18859917
v 0.40483016 -0.09679803 0.42489886
v 0.50661564 0.17469490 0.24608654
v -0.48624101 0.23454180 -0.09684309
v -0.22178315 -0.18963228 -0.52489251
v 0.00009741 -0.21486807 -0.57561511
v -0.40489241 0.28714281 0.12797207
v -0.19632664 -0.14297044 0.49207684
v -0.09245665 -0.23595934 -0.55070668
v -0.23611365 0.07135616 0.36010933
v -0.08696651 -0.24863178 -0.53087038
v 0.51623106 0.12560943 0.28767821
v -0.09568844 0.19398507 -0.32938141
v 0.60647422 -0.12977685 0.23765677
v 0.17886277 -0.39147675 0.05899657
v 0.59188026 -0.15074061 0.25618592
v 0.08346844 -0.16264221 -0.23023573
v 0.21438701 0.26935318 0.44280204
v 0.12807196 0.28860179 -0.17265090
v 0.24842136 -0.29203182 0.39267591
v 0.18166763 -0.39034331 0.11961438
v -0.47548792 0.31775916 -0.13490358
v -0.26139495 -0.18562476 -0.42425832
v -0.63339984 0.11791448 -0.06672801
v 0.12353706 0.30141684 -0.05403836
v -0.29851305 -0.00771496 0.37549761
v 0.11028267 -0.10198186 -0.39726314
v -0.01020463 0.36569408 0.16565484
v -0.44371319 0.09749106 -0.38701105
v -0.25378272 0.00952292 0.51774168
v -0.12350186 -0.11982134 0.47700089
v -0.59384555 0.05316373 0.04305724
v -0.19620037 0.36017090 0.03417168
v 0.09819257 -0.33917466 0.19723070
v -0.42053181 -0.06825380 0.38466066
v 0.69763166 0.01721035 -0.04930807
v -0.47007817 -0.16430545 -0.32256639
v -0.00113552 0.30863497 0.48045501
v -0.59738028 -0.04521887 0.03491851
v 0.29220876 -0.29877055 -0.17949802
v 0.27124888 0.18448523 0.50763816
v 0.29726270 -0.33500582 0.09742240
v 0.29468220 -0.17961572 -0.31046194
v -0.09371886 0.33106703 0.02437666
v 0.14593962 -0.20618170 -0.34736794
v 0.16204390 -0.11439273 0.12503555
v -0.17073524 -0.08520944 0.49310815
v -0.58801496 0.00206552 0.04381974
v 0.10138156 0.02415845 0.50726587
v -0.41090423 -0.03563987 -0.10842212
v 0.64878905 0.16663143 0.01839367
v 0.62355751 0.12875441 0.06528994
v -0.14221796 0.25959674 0.39186358
v 0.18671191 -0.28997704 0.35517976
v 0.23459366 -0.01814988 0.49886113
v -0.33075848 0.14634196 -0.31680220
v 0.02311956 0.28308648 -0.16292666
v -0.60145700 0.08289497 -0.09857807
v 0.17313309 -0.34772140 0.34464604
v -0.43016872 0.03261180 0.15948200
v 0.65918416 0.18857475 0.05091225
v 0.18662876 0.02144702 -0.37070963
v -0.09460309 0.00764975 0.39372492
v -0.25026888 -0.39603463 -0.47936246
v -0.01558526 0.33879679 0.12743290
v 0.62575561 0.12878530 0.06796402
v -0.55164629 0.24304289 -0.17155653
v -0.50816244 -0.12175079 -0.04369396
v -0.29113862 -0.46436733 -0.53020692
v 0.50208604 0.25086930 -0.02135995
v 0.00496207 0.26021811 0.35899848
v 0.67068660 -0.03004619 0.19175187
v 0.47140503 0.08773246 -0.18215311
v -0.42819253 -0.05760404 -0.14325458
v -0.40499020 0.06069672 -0.40904227
v -0.57940072 0.04340491 0.06373984
v 0.25034335 0.29105583 -0.03937184
v 0.38651299 0.23408265 0.33274421
v 0.09748266 -0.09700790 0.38441718
v -0.26279825 0.21486911 0.46942630
v 0.60112298 -0.06130458 0.29774067
v 0.02273371 -0.24097508 -0.33813667
v 0.36576569 0.30331123 0.17394388
v 0.26960209 0.35582447 0.06626081
v -0.52751637 0.13224110 -0.28486675
v -0.25352746 -0.13127656 -0.46908069
v -0.62904447 0.15582097 -0.11299671
v 0.13469252 -0.37315202 0.04343458
v 0.22986434 -0.35065418 0.10769818
v -0.49140596 0.31282699 -0.11902774
v -0.54124397 0.28643999 -0.17389303
v -0.06844144 -0.22480991 0.50521320
v -0.62709254 0.16403753 -0.09655431
v -0.42094192 -0.16942137 -0.23603360
v 0.17981863 0.35038209 0.19977769
v -0.27856269 -0.43148640 -0.52930337
v 0.32988566 0.14346842 -0.24027193
v -0.11890651 -0.16960382 -0.61354625
v 0.58251822 -0.13188015 -0.08922337
v 0.16546597 -0.30088860 -0.62485045
v -0.02974673 0.02134255 0.01142810
v 0.43664664 -0.31288382 -0.00717631
v -0.52537775 -0.06246227 -0.12414186
v -0.42740157 0.02907772 0.23047462
v 0.40528709 0.26539874 0.00776402
v -0.55831861 -0.05457524 -0.04008305
v 0.14283024 -0.29564103 -0.62542117
v 0.43215621 0.29810607 0.03469096
v -0.39053515 -0.04497822 0.42344093
v 0.54700267 -0.17600235 -0.04393668
v 0.25636315 -0.27054030 0.11742500
v 0.17078429 -0.13188967 0.46007830
v -0.12753351 0.09507485 0.42335099
v -0.46474952 -0.10213275 -0.18083645
v -0.21177876 0.01200284 -0.11575721
v 0.48404044 0.09597361 0.34320128
v 0.65785128 -0.08440370 0.17843908
v 0.10170166 0.30235684 -0.11735475
v 0.20879605 0.36731744 0.22372529
v -0.55828333 0.30427620 -0.11710166
v 0.48564810 -0.12545441 -0.17158979
v -0.44009021 -0.15576993 -0.23045056
v 0.15232347 -0.38095331 -0.01630175
v -0.58487374 0.17581922 -0.09872961
v 0.25809029 -0.29255009 0.23826240
v 0.14033137 -0.35855964 0.09273808
v -0.44748411 -0.05616906 -0.19187972
v 0.37106073 -0.29204276 0.17220414
v -0.27314413 0.16399409 -0.30766365
v 0.46925044 -0.21916255 -0.09525931
v 0.49135876 -0.04268369 -0.22175005
v -0.17683960 0.23699833 0.43725348
v 0.62840807 -0.14749424 0.16292329
v 0.62446767 0.06875300 0.23933318
v 0.41422394 0.08807462 0.40765083
v 0.21705501 -0.38337529 0.12542152
v 0.13648826 -0.26738349 -0.62061632
v 0.53132033 -0.09158421 -0.18642807
v 0.15232518 0.38371789 0.07388234
v 0.20499319 -0.30565980 -0.20290487
v 0.35614845 -0.17640026 -0.29369518
v 0.18388742 0.19899553 -0.29449862
v 0.43496925 -0.04915384 -0.23130041
v -0.35589057 -0.36831611 -0.47607750
v 0.06625518 -0.28812239 0.47804818
v -0.37400639 0.08631494 0.27588731
v -0.28124201 0.22289264 0.46224162
v -0.04900625 0.36655971 0.08306469
v 0.30613542 0.32807794 0.02809655
v -0.37252432 -0.35293093 -0.44111949
v -0.35829198 0.31711453 0.15631232
v -0.05689148 0.30180705 -0.11698905
v 0.08418256 -0.39642751 0.18039820
v -0.42668512 0.11041456 0.26488781
v 0.06292105 -0.26783657 -0.54564655
v -0.44149998 0.25154620 -0.23331040
v 0.55509847 -0.20458977 -0.06499711
v -0.30763206 -0.03701736 0.45628124
v 0.17261408 0.10732794 0.50750846
v 0.23748450 -0.38939714 0.16435654
v 0.13636452 -0.20626736 0.42990166
v 0.21658951 0.28025761 -0.08428866
v 0.58155578 0.27005726 0.01060666
v -0.04352482 0.01478650 0.43391189
v 0.63851541 0.02111497 0.22121745
v -0.43504396 0.07250705 0.20098317
v 0.23192179 -0.37810984 0.06330904
v 0.53912055 0.06327370 0.30776182
v -0.35740235 0.05615273 0.27285069
v 0.46837026 0.28123775 0.18475893
v -0.01039997 0.27967626 0.34400371
v 0.29159889 0.18127678 0.47664320
v -0.16513398 0.00151354 -0.37485653
v -0.19725776 0.25238013 0.42239168
v 0.23721847 -0.38240027 0.08909143
v 0.19808859 -0.25292712 -0.31311777
v -0.28890920 0.18284650 0.33388191
v -0.37000558 0.25863427 -0.22875103
v -0.31976151 -0.25878507 -0.42656118
v -0.23478287 -0.47547400 -0.55984622
v -0.17477494 0.21612214 0.33888531
v 0.61851269 0.06219213 0.18648598
v -0.20145220 0.04692515 -0.34416419
v 0.07248091 0.30355966 0.30918097
v 0.63426316 0.04713446 -0.05701651
v -0.48803282 0.00390462 -0.20559338
v -0.02285495 -0.03141390 -0.40081781
v -0.57893562 0.14183232 -0.00509660
v -0.42766657 0.01943125 0.20199744
v 0.04280416 0.32626951 0.47502258
v -0.48139587 0.01749012 0.14690129
v 0.64514971 0.18924005 -0.08277742
v 0.19527692 -0.28498384 -0.58035654
v -0.15361118 0.28522256 0.29772106
v 0.04214648 -0.21618983 -0.59311539
v -0.21704793 -0.11867921 -0.41304743
v 0.13561240 -0.18910958 0.45982948
v -0.49625438 -0.04920255 -0.11572772
v -0.30316556 -0.16576809 -0.36131763
v -0.27522340 0.12608287 0.31367016
v -0.35305774 0.19096728 0.25569606
v -0.54094797 0.15192132 0.08277386
v -0.59392297 0.24765721 -0.14750388
v 0.24159458 -0.34912229 0.18162557
v -0.48359495 -0.16187903 -0.32918936
v -0.02144501 0.01380238 -0.02370294
v -0.00110531 -0.28307530 -0.14564142
v 0.05139088 0.31749809 0.25511336
v 0.32468155 0.23740795 0.39570558
v 0.17936881 0.19642279 -0.29835749
v -0.09155016 -0.21138528 -0.57497197
v 0.38930044 0.06671137 0.43882439
v -0.27980146 -0.20350732 -0.33130246
v -0.35211176 0.05080341 -0.42116997
v -0.31229606 -0.04489603 0.43641925
v -0.16125426 0.15602160 -0.33310473
v 0.20417224 0.05827747 0.51767206
v 0.08129098 -0.38652748 0.01657734
v -0.26727343 0.10307600 0.36161602
v -0.48489916 0.20203401 -0.29965615
v 0.31420395 0.17729531 -0.22524744
v 0.00399596 -0.16052930 -0.56992948
v 0.13008901 -0.33304331 0.37077838
v 0.64558536 0.07277921 -0.05851553
v -0.41370669 -0.06415616 -0.16192067
v 0.40629581 0.05018191 -0.23280130
v -0.35612535 0.00062459 0.45641756
v -0.10681710 0.27896783 0.45987555
v -0.03629172 -0.13675386 0.47425780
v 0.18021518 -0.34132010 -0.05051341
v 0.05158267 -0.23235424 -0.60935700
v 0.62855399 0.13914301 0.04456640
v 0.29007313 0.26825523 -0.11054364
v 0.56553781 -0.10787398 -0.10271480
v 0.30253765 0.23976135 0.43818641
v -0.30784592 -0.06631673 0.52751368
v 0.48386496 -0.05735875 -0.20172070
v -0.12497084 0.04954387 0.52972126
v 0.31248119 -0.29624310 0.28475374
v -0.28639269 -0.19436535 -0.34985444
v 0.66097027 0.02450455 -0.03166375
v -0.01330847 -0.02100265 0.30315942
v 0.01679065 -0.16437042 0.53368896
v 0.60252893 0.14406604 -0.09235635
v -0.37090474 -0.28406414 -0.39312679
v 0.27294841 0.04983348 -0.36554655
v 0.56011051 0.03345171 0.30134898
v -0.11290330 0.31591782 -0.09859101
v 0.53006423 -0.19339505 -0.12760513
v -0.41759691 -0.09284899 0.35245401
v -0.19208492 -0.01460527 0.51700604
v 0.28029788 -0.31318086 0.29870021
v 0.15402626 0.34143609 0.24561787
v -0.07493173 -0.15764417 0.55128700
v -0.24231490 -0.10315973 -0.52931839
v -0.40462047 -0.17404622 -0.34867659
v 0.39258581 0.32580900 0.06551883
v 0.37744054 0.07849226 0.44408965
v -0.28353137 -0.47607288 -0.53075051
v 0.62261826 -0.00172536 -0.00929509
v 0.45510831 0.19858797 0.24018739
v 0.02739526 0.24906391 0.33073521
v 0.29989585 0.33371046 0.01034855
v 0.06714982 0.32039613 0.00539621
v 0.17697628 0.38367340 0.10417379
v 0.65015393 0.07613694 0.19579920
v -0.43594700 -0.02186634 -0.31412423
v 0.11964771 -0.31334892 0.30414897
v 0.39376009 -0.03320466 0.42168447
v 0.34979004 -0.31416050 -0.15404932
v -0.18684524 0.27890167 0.24822859
v -0.11267850 -0.10303348 0.55324101
v -0.39533710 -0.17492938 -0.35488477
v -0.11516951 0.27432948 0.41194597
v -0.24967176 -0.03825395 0.47992480
v -0.33166692 -0.11756627 -0.25349748
v -0.34083471 -0.32309145 -0.46336311
v 0.04911621 -0.33344439 0.40078285
v 0.24451345 -0.32949507 0.31678054
v 0.04131935 0.28230721 0.23711999
v -0.42409641 0.00434917 0.15755172
v -0.14456272 -0.23294464 0.46211502
v -0.17255737 0.06030129 0.06184645
v 0.00551860 -0.28527710 -0.23796313
v 0.09840503 -0.38543311 0.31393713
v 0.58025378 -0.17910835 -0.03345409
v -0.37897438 -0.31709650 -0.42325121
v 0.27349979 -0.32596350 0.24888441
v 0.59283459 -0.00080059 -0.07613999
v 0.29884624 -0.00863345 -0.34418339
v 0.17617136 -0.00026409 0.51926500
v 0.23456609 -0.33702451 0.03098599
v 0.18277425 -0.13902465 0.34900111
v 0.32815593 0.24702434 -0.14733565
v -0.32367179 -0.19856220 -0.43560040
v 0.47152144 0.23045138 -0.09452224
v -0.50140440 0.26082620 0.04832133
v 0.46063769 -0.20702344 -0.16491762
v -0.62261468 0.20193940 -0.08979106
v 0.62163478 0.24710409 0.01235032
v -0.07481222 -0.16114613 0.54452002
v 0.15888569 0.13244429 -0.32908332
v -0.35791752 -0.01584926 0.40075734
v -0.24645215 -0.38954467 -0.50085491
v -0.23335999 0.10508293 0.36817443
v -0.50141782 0.29570416 -0.13540486
v -0.52150053 0.05064443 -0.23722427
v -0.42869520 -0.05195976 0.28502586
v -0.55445242 0.24722166 -0.00936117
v 0.25827280 0.34709397 0.05067197
v 0.36673748 -0.01959943 -0.29940253
v 0.64853382 -0.00842477 -0.05673730
v 0.11360058 0.07285069 0.51269501
v 0.28987980 -0.17160714 0.43749249
v -0.44324723 0.20186266 -0.29104322
v 0.24630053 0.17550644 -0.28376615
v -0.19126050 -0.02137056 0.51695031
v 0.12993625 -0.30658913 0.05819501
v -0.21648075 -0.07993738 0.55895519
v 0.09063087 -0.20096035 0.47526044
v -0.29951712 0.23768902 0.41078040
v -0.09592602 -0.09686135 -0.26185343
v 0.22169912 -0.35140857 0.17290770
v -0.61868632 0.26507023 -0.12471920
v 0.19418651 -0.39316770 0.10356043
v -0.53629208 -0.04718715 -0.11762097
v -0.22652712 -0.01346884 0.48220900
v 0.41945189 -0.28029341 -0.13988636
v 0.46731639 0.27210033 0.02915093
v 0.01112134 -0.24068885 -0.59527302
v 0.50949198 -0.22127503 0.14091486
v 0.09833976 -0.17267258 -0.31121913
v 0.05719148 0.24881911 0.37806177
v -0.46696490 0.06668508 0.17623703
v -0.44510391 -0.18229792 -0.33616185
v -0.32763359 0.28514200 0.18115418
v 0.24528474 0.27603850 -0.05751733
v -0.05288719 -0.30045256 -0.02224823
v -0.28182966 -0.02618092 -0.43789226
v -0.41248038 -0.07122926 -0.31223458
v 0.19464530 0.32371026 0.31803432
v 0.21371105 0.27032498 0.43159810
v 0.16351157 -0.16565868 0.48478585
v -0.15699610 0.03680474 0.05737885
v -0.12688459 -0.10322529 0.49559036
v 0.31932187 0.30439740 0.31851029
v 0.41267455 -0.27592200 -0.16445319
v -0.06833579 -0.10532575 0.49679145
v -0.24578476 -0.00909072 0.49309275
v -0.51542151 -0.05588444 -0.07191496
v -0.56996983 0.19909056 -0.17167242
v 0.03948800 -0.15675966 0.47868657
v -0.34488857 0.10741691 0.27405944
v -0.06081358 -0.02585014 0.47910127
v -0.49451268 0.30421513 -0.14103749
v 0.01678276 0.28700379 0.23958085
v -0.29076988 -0.28515175 -0.42385060
v 0.27771166 -0.29540938 -0.10544789
v -0.59096026 0.17042620 -0.05732009
v 0.25021675 0.33646852 0.00056744
v -0.18186584 -0.20541045 -0.34865388
v -0.48662001 -0.16135600 -0.18029779
v -0.49336344 0.19283116 -0.08788417
v 0.02688760 -0.20448616 -0.58313709
v 0.04400981 0.31254801 0.15822375
v 0.13057293 -0.06919153 -0.08108677
v -0.57260811 0.23701483 -0.01020331
v 0.03780472 -0.28180853 -0.26495138
v 0.05442750 -0.23506323 -0.35098946
v 0.63499695 -0.10124911 0.12469883
v 0.36604381 0.15450875 -0.21099117
v -0.52522832 0.31985107 -0.11508947
v -0.18401101 0.18164949 0.48952937
v 0.53517807 0.19543238 0.09574256
v -0.07347139 -0.27334556 -0.20720261
v -0.05539780 0.32606801 -0.01437850
v 0.10358615 -0.30176628 0.47707969
v 0.27695796 -0.24701369 0.20428658
v 0.26885149 0.31422532 0.35277951
v -0.32016844 -0.41884187 -0.53936595
v -0.28603676 -0.43588558 -0.52194750
v -0.26284450 0.02759907 0.14202967
v -0.15663183 -0.08344060 -0.28243780
v -0.08404504 -0.09254885 -0.55153465
v 0.58446944 0.12904052 0.19180208
v -0.61129576 0.04166963 -0.12603875
v 0.32503241 0.28302428 0.35462016
v -0.07553250 -0.23839462 -0.54825854
v 0.16182037 -0.39108992 0.06060660
v -0.37176871 0.12970014 -0.38179329
v -0.24241251 -0.45032996 -0.53186888
v -0.52173185 0.29468620 -0.07472996
v 0.50417197 0.26843491 0.02761891
v 0.29522830 -0.33237174 0.23869091
v 0.64924753 0.07781919 0.20304450
v -0.56986004 0.11998401 -0.17671195
v 0.09362155 0.31508607 -0.08268708
v 0.58087569 0.15311186 0.12759367
v 0.09669802 -0.03904601 -0.37850457
v 0.16598234 0.22981784 0.46259451
v 0.03153016 0.36105078 0.08728340
v -0.58287513 0.08648299 -0.10681747
v 0.10147914 -0.23938444 -0.55105698
v 0.61781573 0.07252828 0.09888062
v -0.32537815 0.00130440 0.47869396
v 0.06136253 -0.03337538 0.33653110
v 0.64655370 -0.01448457 -0.06267995
v 0.26258257 -0.37216976 0.26205176
v 0.26859948 0.36572498 0.16156876
v -0.18063931 -0.16679046 -0.37540904
v 0.41773242 0.29612026 0.12564564
v 0.15567788 0.35938919 0.27370006
v -0.63227797 0.15230383 -0.11433726
v 0.07969960 -0.28811574 0.49264336
v -0.29086283 -0.42724255 -0.47069919
v -0.04409650 -0.17037633 0.52760619
v -0.29741654 -0.15525588 -0.47987479
v -0.40446967 -0.16558552 -0.29363704
v 0.54329634 0.11232262 0.28401724
v -0.31099799 0.13072556 0.46784478
v -0.48526147 0.28152043 -0.21128094
v 0.20522764 -0.16729882 -0.35037878
v -0.57880676 0.16955298 0.06770280
v -0.37036678 -0.03534654 0.34895819
v -0.00031447 -0.16899797 -0.57647640
v -0.31046480 -0.22726935 -0.34402740
v 0.20381960 -0.06978960 -0.37525952
v 0.53435564 0.17376675 0.19033782
v -0.01044585 0.02128960 0.01365314
v 0.63954371 0.28858835 0.02934431
v 0.46822828 0.20638187 -0.11021434
v 0.14979118 -0.33094344 -0.14797443
v -0.51410639 0.08923884 -0.28800628
v -0.30772209 -0.16639043 -0.35930282
v -0.40989667 0.23974128 0.14073916
v 0.21396616 0.28963512 0.41699746
v -0.63275015 0.21855369 0.01776555
v -0.50116587 0.24882025 -0.21575706
v -0.47819254 -0.14359343 -0.25430328
v 0.20390174 -0.34934708 0.02813504
v 0.25654662 -0.20023470 0.33878103
v 0.34066936 -0.31879899 0.16123408
v 0.51411068 0.10513748 0.28525296
v 0.26905945 0.28551850 -0.06497131
v 0.04574250 0.10857210 -0.36335853
v -0.55484110 -0.07996614 -0.04390161
v 0.33980402 -0.36146805 0.02211464
v 0.24730438 -0.36265141 0.27622956
v -0.05682524 -0.21677727 0.41676763
v 0.31065106 0.26180938 -0.17467448
v 0.20990971 -0.33026537 0.35889128
v -0.57255501 0.02962194 -0.14824879
v 0.10199472 -0.32148737 0.45676121
v 0.41485360 -0.06991076 -0.29094940
v 0.54474342 -0.19754997 0.11913223
v 0.69453239 0.07075205 -0.04857568
v -0.35384038 0.11758238 -0.40499645
v -0.48908782 0.10456498 -0.28240675
v 0.22027576 0.19082664 0.51167566
v -0.20318972 0.25478083 -0.20738900
v 0.29395297 0.33810332 0.25215611
v 0.21083581 -0.31288898 0.36500701
v -0.34028590 0.00895481 -0.42638481
v 0.28702274 -0.15704799 -0.34908637
v 0.55175197 0.10081367 0.21468973
v -0.43518594 -0.07790071 -0.18046895
v -0.31579500 0.15817821 -0.35080573
v -0.09118784 -0.07543784 0.49018979
v -0.15116020 -0.10862289 0.49433187
v -0.26773930 0.16410615 0.36757529
v 0.56347382 -0.20293894 0.25880945
v -0.47945267 0.03787802 -0.33772492
v 0.08126131 0.12598227 -0.34880918
v 0.05838377 0.30050907 -0.17066868
v 0.31621981 0.27196994 -0.02985353
v -0.25518623 0.26715782 -0.16132981
v 0.28756267 -0.25898367 -0.24470299
v -0.21190852 0.12049286 -0.36213976
v -0.32585442 -0.30936486 -0.45725164
v -0.34721199 -0.04264188 0.44440991
v 0.42969197 -0.32423884 0.00393426
v -0.10754842 0.29950121 0.47394371
v 0.20013395 0.25480986 -0.19239810
v 0.06992091 -0.31250769 0.40489358
v 0.48522967 0.17790830 -0.08169156
v 0.14798838 0.37857178 0.10087009
v -0.52460730 0.29565686 -0.17384562
v -0.28041005 -0.03959307 0.44687945
v -0.28497916 -0.45726627 -0.51277906
v 0.16075225 -0.30513772 -0.58370334
v 0.60184360 -0.15685636 0.23257422
v -0.66873807 0.19742148 -0.11853542
v -0.38914919 -0.02653317 -0.10036212
v 0.07339858 0.28566581 0.19347072
v -0.19192082 -0.01386110 -0.40649846
v 0.14182964 -0.25488883 -0.28547719
v -0.61297423 0.19198368 0.04483736
v 0.27517992 -0.30099040 -0.17993250
v 0.08003718 -0.22322093 -0.24525115
v -0.18153152 -0.05170953 0.49556458
v 0.19196534 -0.33316317 -0.04938309
v -0.14813477 0.01355004 0.36217254
v -0.47635323 0.10713126 0.15405701
v -0.00539145 0.25164294 -0.21998252
v -0.17604610 0.13260281 -0.35012996
v -0.48738602 -0.11617080 -0.31415641
v 0.09563191 0.11623956 -0.34867474
v 0.62831759 -0.02366392 0.06225283
v -0.05033544 -0.16174881 -0.41025114
v 0.65355182 0.14794819 -0.03416678
v -0.21821478 -0.09594011 -0.50664508
v -0.08377128 -0.10224921 0.54826850
v 0.06063761 -0.11315922 -0.22651483
v 0.28719071 0.23344862 0.43698132
v -0.19071153 -0.10996109 -0.38981777
v -0.33543691 -0.39590198 -0.50791860
v -0.46538746 -0.14028029 -0.30781803
v 0.20619136 -0.24771005 -0.08392275
v 0.29089162 -0.25428325 0.46525794
v -0.27915308 -0.00855223 -0.40844697
v 0.61678731 0.27019751 -0.01810112
v 0.38665468 -0.22461876 0.32586393
v 0.11977509 -0.34532258 0.19731455
v 0.07675697 0.06416855 -0.38075742
v 0.14136338 -0.27576429 0.42862058
v -0.20641196 -0.11731148 -0.51557982
v 0.16514686 0.37002987 0.13989145
v 0.46273366 -0.24716578 0.21514066
v 0.19848280 -0.19786151 0.24453397
v 0.01941576 -0.25762558 -0.60904408
v 0.26454788 -0.00954105 0.46727920
v 0.20255759 -0.15869448 0.48689231
v -0.50576115 0.01274261 0.12706237
v 0.13738093 -0.27299201 -0.63443518
v -0.21528941 0.35974517 0.04597007
v -0.16501996 0.28668055 0.29979762
v -0.25241643 -0.02653341 0.40468577
v -0.40485179 0.23710275 0.17919654
v 0.22073361 -0.22943223 0.25681475
v 0.31218871 -0.31588060 -0.15251309
v 0.66818595 0.03703611 0.15215561
v -0.13277207 0.02598189 0.04148699
v 0.37551117 0.30130079 0.22608203
v 0.22958934 -0.34614009 0.01614878
v 0.22667682 0.37816823 0.11122878
v 0.53982127 -0.20071504 0.22389638
v 0.22855139 0.31235638 0.42710617
v 0.55915922 -0.20420954 0.06301294
v -0.06199646 -0.01199871 0.42184052
v 0.58993328 -0.12703507 0.02723860
v 0.08008803 0.35655499 0.16535348
v -0.36637723 0.27183378 -0.20308648
v 0.04014212 0.32296991 -0.04975710
v 0.12978262 0.30714649 0.42515573
v -0.36879641 -0.13642819 -0.32328615
v 0.08029387 -0.23940851 -0.66298562
v 0.55635631 0.09227752 0.28519192
v -0.38517404 -0.31121430 -0.48892409
v -0.52618533 -0.02377988 -0.01150423
v 0.33406222 0.04455564 0.47295719
v -0.01554433 -0.25299695 0.50144309
v -0.35118067 -0.14684999 -0.41279802
v 0.38935655 -0.27268088 -0.11394569
v 0.43393221 -0.16183022 -0.22522271
v 0.37073788 -0.30980188 -0.08095977
v -0.32703644 -0.03257211 0.45673832
v -0.23574579 -0.16622072 0.49950582
v -0.59715974 0.05176021 0.04831330
v -0.23260824 0.05273294 0.24190353
v 0.20979643 0.29035053 0.43281111
v -0.01588947 -0.01477242 0.42977133
v 0.24558632 0.33832410 0.26737571
v 0.50396353 0.23177196 -0.05015913
v 0.20564276 -0.29316634 0.29522341
v -0.03952793 0.34531853 0.19561270
v 0.67930555 0.16937993 0.05154294
v -0.21466118 -0.11058020 -0.49303564
v -0.57596731 -0.01515811 -0.07757121
v -0.45467463 -0.01272269 -0.29516828
v -0.06512826 -0.16512896 -0.39870822
v 0.08473748 0.35440072 0.16468041
v 0.07360055 0.35375333 0.06810221
v 0.30913347 0.35601082 0.16371644
v -0.29811603 -0.35356298 -0.47344056
v -0.02757899 0.28394288 0.42455375
v 0.18802914 0.35191447 0.01519353
v -0.52741992 0.02696817 0.10080099
v -0.18580049 -0.14061658 -0.52964073
v -0.38522288 -0.00908238 0.36805907
v 0.38308114 0.09057942 -0.24862829
v 0.00165217 -0.19319572 -0.37531719
v 0.56578857 -0.08423081 -0.08053254
v 0.27959251 -0.32378274 -0.05135907
v -0.27354455 -0.30656376 -0.46290243
v 0.31614211 0.26263723 -0.14174634
v 0.00153077 -0.04105762 0.51544958
v -0.18812956 -0.07646123 -0.35638651
v -0.22433740 0.05423551 0.44660342
v 0.06603429 0.27174303 0.26132774
v -0.23122060 -0.21573998 -0.32715532
v 0.54400647 -0.19837028 0.15195435
v 0.29017624 -0.28097147 0.18588676
v 0.11450046 -0.38900787 0.10353064
v -0.34318668 -0.37157089 -0.49297953
v 0.19427040 -0.38247505 0.27106082
v 0.54436147 -0.12377433 -0.09386107
v -0.09289765 0.18171321 -0.33131307
v 0.35135609 -0.28530577 -0.18109159
v -0.08638255 0.24572553 -0.24375463
v 0.43340018 -0.30753633 -0.00648425
v 0.44605288 0.20301002 0.32694501
v 0.26034603 -0.26001742 0.14909633
v 0.26469046 0.35698029 0.20481911
v 0.14122418 -0.34289083 0.31953636
v 0.15333328 0.32235593 0.35713080
v 0.41330162 -0.31015077 0.08290803
v 0.60386395 -0.06672744 -0.05987915
v 0.32081294 -0.25932083 0.27723539
v -0.51390523 0.24830799 -0.20681809
v -0.38126516 -0.23849358 -0.37030214
v 0.10293369 -0.34846124 -0.00057322
v -0.42029795 -0.08533953 0.35750943
v 0.04888622 0.08325148 -0.36046752
v -0.30255833 -0.24490744 -0.38363174
v -0.44650224 -0.17826849 -0.35318261
v -0.48700753 -0.05862847 -0.10830401
v 0.14396502 -0.36424837 0.31216046
v 0.10485014 -0.07425538 0.51992565
v -0.43825880 0.19607894 -0.33522162
v -0.21170592 -0.22529875 0.39773035
v 0.62637836 -0.02532978 0.06565965
v -0.58942860 -0.07340911 -0.17496151
v 0.23130086 -0.35243958 0.08808238
v 0.22667535 -0.32357380 0.28303710
v -0.33171803 0.15578946 -0.35335076
v -0.50511491 -0.16143876 -0.16624734
v -0.10813067 -0.15794641 -0.58992898
v -0.41277176 -0.08251239 0.35223836
v 0.47509760 0.13911082 0.34523088
v -0.51179695 0.04622696 -0.24178924
v -0.24725021 -0.07843450 -0.39505872
v -0.04258521 -0.00488895 0.50013679
v 0.29260942 -0.21710776 0.32029283
v -0.26937392 0.27939048 0.17553936
v 0.18157440 0.38643077 0.11219386
v 0.22769904 -0.28262892 0.26680893
v -0.07071574 -0.23908873 -0.55589420
v 0.02917332 -0.22260801 -0.60134900
v 0.20362252 -0.11397909 0.23151286
v 0.15890694 -0.39180112 0.03798105
v -0.01177927 -0.15051043 -0.54989165
v 0.62883002 -0.04226685 0.05721354
v -0.44248700 0.20151666 -0.32283822
v 0.20768841 -0.18113661 0.27836427
v -0.56813300 0.23399234 -0.07983971
v -0.53191102 0.09108345 -0.21374643
v 0.49739712 -0.25748962 -0.06172821
v -0.55778360 -0.05008031 -0.02528380
v -0.08031040 -0.11488679 0.55443937
v 0.11921623 -0.30069402 -0.11395326
v 0.59205317 0.04851507 0.27883387
v 0.65458632 0.25681058 0.01997060
v 0.56886524 0.19383140 0.12019823
v -0.16038223 -0.01143488 0.47392613
v -0.41190752 -0.03768653 0.41049832
v 0.10817897 0.03293715 0.50509661
v -0.41590026 -0.21789324 -0.40208808
v -0.13514872 -0.15340020 0.49491912
v 0.44612300 -0.28972599 -0.06833719
v 0.25907499 0.25392351 -0.19637679
v 0.36044282 0.32412621 0.12218419
v -0.23035285 -0.18067768 -0.34350902
v 0.10386880 0.37162510 0.08782373
v 0.64960670 -0.10015244 0.12406692
v -0.41998062 0.13806406 0.28039038
v 0.44378132 0.19065729 0.34534499
v 0.63301206 0.05267943 0.11074781
v 0.47988066 0.15588742 -0.09059089
v -0.32596838 0.03330600 0.44392985
v -0.55690461 -0.03963359 -0.10711579
v -0.38971838 -0.29765773 -0.40121031
v 0.50252849 -0.18056476 0.33861297
v -0.26888245 -0.06692560 -0.42600438
v -0.25563976 -0.17654681 -0.45351109
v 0.58305752 0.11292904 0.22054440
v -0.51968503 -0.14187522 -0.17496145
v -0.11305665 0.27417001 0.41834229
v 0.44917947 -0.19262516 0.37948444
v 0.32687658 -0.28679615 0.22854328
v -0.28799438 -0.45429868 -0.50308919
v 0.53498626 0.10358046 -0.13938577
v -0.19322194 0.27950883 0.46167412
v 0.65975803 0.12095135 0.01152153
v 0.37814301 0.18112202 -0.18227383
v -0.16653763 0.20523544 0.48667911
v -0.57638603 0.14964154 -0.14700171
v -0.06169379 -0.11290878 0.50832784
v -0.56578994 0.16595845 0.07440997
v -0.45405334 0.30991709 -0.16317944
v -0.37174132 -0.33622319 -0.42766041
v 0.27450892 -0.32118866 0.26239255
v -0.23872504 -0.48548740 -0.56523144
v 0.22399518 -0.18993077 0.49231088
v 0.05737950 -0.32673645 0.47340032
v -0.00747085 0.05729413 -0.38394406
v -0.31392604 -0.14764461 -0.36442214
v 0.22166279 -0.34699705 -0.05434202
v -0.29493067 0.27518862 -0.12562171
v -0.38526851 0.14949569 -0.39111218
v -0.25956637 -0.02521683 0.48310384
v -0.54943806 0.02796423 0.08030075
v 0.43456340 0.26277819 -0.06005096
v -0.28321517 0.13411044 0.38858360
v 0.11403759 -0.24965897 0.45548844
v 0.54038686 -0.01540296 -0.13129771
v 0.28446811 0.26341876 -0.13760503
v 0.60881966 0.24600954 0.07038692
v 0.36442170 0.31986248 0.11717052
v -0.63450778 0.16774264 0.02722530
v 0.50993657 0.14637254 -0.13345370
v -0.54037607 -0.03824044 -0.08637775
v -0.46145445 -0.12551530 -0.26633269
v -0.02470015 -0.19899149 0.52354997
v -0.02570226 -0.13828164 -0.37833798
v -0.49115130 -0.05151696 -0.12596245
v 0.04918560 0.33812582 0.08608406
v 0.05589822 -0.30393621 0.42217308
v 0.43550989 0.22312427 0.26783884
v 0.19788326 -0.39845064 0.04098642
v -0.19795866 -0.01838952 0.51809663
v -0.58357722 0.17837653 -0.08781338
v 0.09534320 -0.16066587 0.44668269
v -0.35100576 -0.20094740 -0.31303853
v 0.14065698 -0.38162741 -0.00366494
v 0.15066984 -0.27704027 -0.61305434
v -0.14527905 -0.22321828 -0.54847747
v -0.41494110 -0.11536163 -0.37544054
v 0.22015479 -0.35332766 0.21570194
v 0.49035722 -0.20315972 0.22266723
v 0.40500978 -0.26963016 0.18633032
v 0.45918781 -0.25925025 0.18935794
v 0.52728069 -0.24217404 -0.04038946
v 0.61899388 0.06318392 0.09732357
v -0.30568859 0.12651333 0.35096458
v -0.35022783 0.06602152 -0.45765227
v -0.03585740 -0.22824338 0.53757966
v -0.12443832 0.07518232 0.46113744
v -0.35224494 0.09978464 0.42085081
v 0.48816901 -0.26885885 -0.03186168
v 0.47924069 0.17079735 -0.12932941
v 0.09735846 -0.15575324 0.50937444
v -0.24607608 -0.46899664 -0.53753984
v -0.13125193 0.08715774 0.47656032
v -0.02576251 0.12898517 0.49223417
v -0.11824050 -0.08274583 0.47891796
v 0.24712202 -0.24888425 0.45917654
v 0.04926864 -0.24542916 0.53858501
v 0.57329166 0.22251347 0.06248181
v 0.62039459 0.17648269 0.06729038
v -0.08631614 -0.13275731 0.52831101
v -0.21425530 0.08043005 0.38707313
v 0.57559675 -0.08098981 -0.06944865
v 0.57690853 0.08367180 0.25339517
v -0.43248785 -0.00595587 0.12302794
v 0.11864498 -0.36276540 -0.05065172
v 0.22085875 -0.21062186 -0.06319802
v -0.25115630 -0.48730087 -0.57594591
v 0.57370746 -0.14407717 0.10274497
v -0.29947567 0.22458248 -0.28259307
v -0.25153646 -0.37947643 -0.50490409
v 0.16324520 -0.31750500 -0.17317158
v -0.23482615 -0.11943810 -0.51458806
v -0.14849187 -0.14963019 -0.58462113
v 0.51438481 -0.18782702 0.31914467
v -0.49628368 -0.15242153 -0.29995492
v 0.09907994 -0.23446758 -0.55125195
v 0.14050367 -0.34557772 0.40686041
v 0.11995862 0.28796351 0.26463121
v -0.23782459 -0.15685871 0.47417891
v 0.10685944 -0.33326775 0.42650163
v -0.28116950 0.01660870 -0.42268819
v -0.24430569 -0.36972240 -0.45438427
v 0.26865798 -0.20642114 -0.31422219
v 0.51873004 0.22879454 0.14613250
v 0.22773482 -0.38331968 0.00081200
v -0.26593646 0.23726434 -0.17381260
v 0.07614356 -0.29844943 -0.27364168
v 0.57118404 -0.18873194 0.06044307
v 0.68294948 0.01669148 0.20240410
v 0.49088940 0.11175801 -0.14909938
v 0.23562607 -0.32622489 -0.06627031
v 0.56469572 -0.07926910 -0.06831907
v 0.57298934 -0.19954368 0.04538392
v 0.64175999 0.17748381 0.00271460
v 0.66988730 -0.07785578 0.16737592
v 0.24204732 -0.25671780 0.46267253
v 0.33763033 -0.27009639 0.42426115
v 0.19384827 -0.34251761 0.09012572
v 0.22655237 0.38324979 0.13600713
v 0.26194137 -0.33182508 0.05000395
v 0.10302904 -0.24145411 0.47180462
v 0.31006694 0.27977654 -0.02935962
v 0.48620358 0.23038523 -0.03865088
v 0.39467761 -0.27194560 0.31425589
v -0.57617009 0.01985989 0.03593711
v 0.19176820 -0.36062422 0.36027050
v -0.40678290 0.18612871 -0.31468201
v 0.05860924 -0.32156426 0.48089516
v 0.62077194 -0.11903757 0.22978619
v -0.33845469 -0.26749277 -0.39125216
v 0.49403691 0.01901217 0.37285814
v -0.50316769 -0.01286910 0.06184388
v -0.31339723 0.12170394 0.35136500
v -0.28034598 -0.02426476 -0.44651511
v 0.27416450 -0.19164503 0.48239443
v 0.42216063 -0.12156949 0.42784962
v -0.30243218 0.07760823 0.40081799
v -0.35402688 -0.25850701 -0.42234358
v 0.10797536 0.29564968 -0.16038249
v -0.28853816 0.02875253 0.42233619
v 0.36870891 -0.26726711 -0.14558461
v -0.43509176 0.24471629 -0.11679810
v -0.56773782 -0.01379852 0.06900136
v -0.57392573 0.01149466 -0.04396592
v 0.50378132 0.03843736 -0.18399432
v -0.59919566 -0.07555711 -0.16973281
v -0.44067502 0.19073159 -0.09573526
v 0.58785272 -0.11313885 0.27573597
v -0.60166985 -0.02449815 0.01600588
v 0.47486830 0.08402060 0.35416657
v 0.23531023 0.30482763 -0.04082976
v -0.48306447 -0.15223484 -0.27729198
v 0.11762785 -0.22598502 0.48008552
v -0.05798081 0.32477662 0.11285152
v -0.52127653 -0.15362677 -0.20250812
v -0.35774052 0.09211162 -0.40900111
v 0.21088393 -0.25896677 0.38593099
v -0.03925095 0.02805273 0.31472537
v -0.35604441 -0.13255014 -0.36657959
v -0.59387058 0.11045511 -0.01870053
v 0.14210007 0.34666792 0.24106920
v 0.04650263 -0.03379460 0.32633871
v 0.03253922 0.26066512 0.33678502

