# https://github.com/mikedh/trimesh
v 0.16496342 -0.25992718 -0.13387693
v -0.25866884 -0.08837237 -0.52555496
v 0.68896300 0.13420899 0.31142002
v 0.06035721 0.38063672 -0.01517701
v 0.27382734 -0.08269811 0.49741003
v 0.58019555 -0.09693888 0.06618334
v 0.01658898 0.31552640 0.24567173
v -0.38464448 -0.50749892 -0.73602712
v 0.05201637 0.14088008 0.46331170
v -0.49004331 0.26458231 -0.14624268
v 0.27465680 0.39300355 0.02015467
v 0.01139512 -0.04190920 0.46358952
v -0.16061968 -0.22888364 0.14099053
v -0.32528263 0.07516795 0.49859726
v -0.35129347 0.25456798 0.46355951
v 0.55106395 -0.02766545 -0.11032763
v -0.28186831 -0.13833794 -0.25558117
v -0.08748727 -0.05393402 -0.52606213
v -0.05669880 -0.33704221 0.15534672
v -0.52642423 -0.08632159 -0.28729522
v -0.29097477 -0.23104572 -0.06424282
v -0.49428943 -0.11570051 0.06126079
v -0.55419648 0.09113869 -0.16632569
v 0.19700712 -0.18801822 -0.22518525
v 0.11675501 -0.38122597 0.02636015
v -0.24037097 0.22172715 -0.30789420
v -0.42293987 -0.28429827 -0.54099381
v -0.39536214 -0.27685684 -0.45673808
v 0.31167454 -0.29228774 0.38438895
v 0.22393093 0.29162911 -0.14714508
v -0.19953938 0.31456161 0.05162090
v 0.67354906 0.00156596 0.37534925
v 0.08697464 -0.19638336 -0.58951503
v 0.50723577 0.25907013 0.00408411
v -0.33409873 -0.12085108 -0.50720692
v 0.08149801 -0.39328811 0.20294060
v 0.28250429 -0.33797696 0.22334118
v -0.12542537 -0.18168482 -0.21774150
v 0.02732284 -0.16540965 0.46045056
v -0.54672116 0.08863193 -0.07202441
v -0.49471679 0.21273108 -0.48849627
v -0.06708442 -0.18155454 0.46103939
v 0.02880288 -0.21701589 -0.18113035
v -0.24099423 0.23305972 -0.23805681
v -0.16350295 0.23480552 -0.16639264
v -0.51701427 -0.06818638 -0.34930530
v 0.01722339 -0.22934180 -0.16078493
v 0.44047746 0.23776723 0.40656298
v -0.03101275 -0.37526202 0.08594111
v 0.54682779 0.20415014 0.02810335
v -0.02840607 0.38789660 0.46982667
v -0.06707399 0.26702347 0.22442180
v -0.16714360 -0.01994365 -0.58766222
v -0.36949134 0.33818772 -0.17823723
v -0.08624735 -0.21349920 0.48121801
v -0.12988287 0.27216491 0.49439669
v -0.19212753 0.24647163 0.29929364
v -0.42210895 0.18078646 0.18785577
v -0.20538639 -0.16007069 0.42006332
v -0.33847827 0.26530907 -0.36856911
v -0.47298974 0.22317918 -0.00964240
v 0.01530758 -0.27438912 -0.06214326
v 0.23221773 -0.27771431 0.46970123
v 0.39528441 -0.05922971 0.49320778
v 0.43294841 0.01035484 -0.25422230
v 0.37801307 0.27157655 0.47200820
v 0.47644600 0.11549099 -0.20904276
v 0.45031700 0.26871017 0.32412893
v 0.00516888 -0.16359201 -0.63926041
v 0.11159207 -0.29176527 -0.74669296
v -0.26231647 -0.12278938 0.27304128
v -0.32233420 -0.44103616 -0.60261184
v -0.00034469 0.07267186 -0.27983430
v 0.13205889 -0.00603692 -0.31580016
v -0.12097646 0.21510154 -0.18870251
v 0.02162240 0.35603786 0.38089290
v 0.33426076 0.30705214 0.44892401
v 0.28370145 0.30486625 0.48964143
v -0.26817647 0.27466381 -0.11242591
v -0.04004678 -0.09937679 0.46354729
v 0.62183392 0.07107823 0.41980931
v 0.43236303 -0.08143748 -0.23138353
v -0.31961888 -0.23020081 -0.54421109
v -0.22783150 -0.15714231 0.27196771
v 0.26190409 -0.35897708 0.12142815
v 0.01368712 0.31116694 0.24507028
v 0.56068748 0.18109988 0.04167714
v 0.41447005 -0.05342674 -0.25557059
v 0.59624195 -0.03987678 0.10988190
v 0.07858030 0.27469790 -0.16463572
v 0.56783360 0.16561402 0.20057483
v 0.60475791 0.11678118 0.18984008
v 0.01573167 -0.14158057 -0.60715240
v -0.27232420 0.22609989 0.22977465
v 0.18243982 -0.10563753 -0.29757458
v 0.69559789 -0.03855444 0.30806541
v 0.55187339 -0.09299430 0.41729525
v -0.40348604 -0.19614275 -0.03905865
v -0.15924495 -0.04151627 -0.63377017
v 0.47437266 -0.15400144 -0.13540521
v -0.26775512 0.10397159 0.50318718
v -0.29807425 0.08146051 0.43966168
v -0.52828658 0.02776572 -0.12371067
v -0.38980052 0.34454468 -0.35270452
v 0.35518503 -0.19633992 0.48564243
v -0.31375954 -0.55532807 -0.64112258
v -0.18278229 -0.15798736 0.39579013
v -0.11752938 -0.31050619 0.44846019
v -0.40626776 -0.31353498 -0.65834105
v 0.57734466 -0.10566484 0.05016458
v -0.14347345 0.20048249 -0.20994535
v 0.61864692 0.16251804 0.37823486
v 0.21511920 0.28824314 -0.16635284
v 0.51648009 0.22236493 0.29388568
v -0.06965294 -0.19052783 -0.58544093
v -0.23531489 -0.13111611 0.37172011
v -0.23429750 0.17360494 0.49703678
v 0.28412691 0.37144071 -0.01247528
v 0.41161025 -0.13919781 0.42632785
v -0.44066092 0.37847847 -0.26987827
v 0.20610553 -0.35281461 -0.00346838
v -0.28029224 0.08223987 -0.53002369
v 0.05574229 -0.40006649 0.16634490
v -0.44622460 -0.16917619 0.08153142
v 0.35738885 0.31960249 -0.07944284
v -0.43997443 -0.19652344 -0.48465580
v 0.39514527 0.12264545 -0.27345756
v 0.04322861 -0.16759479 -0.56732333
v -0.52766788 0.04466958 0.10489004
v 0.10470406 -0.09478034 -0.28903604
v -0.23023413 -0.20116755 0.18252999
v 0.12491544 -0.25936159 -0.12720391
v -0.16906874 -0.10458738 -0.47705171
v 0.03773518 -0.21492741 -0.60807085
v -0.18017779 -0.00329685 -0.32576481
v 0.09436926 0.00091981 -0.30854204
v -0.12390441 -0.20270096 0.20744285
v 0.04405416 -0.39227057 0.04662436
v -0.02887459 -0.27810010 0.33679426
v -0.47050148 0.36893842 -0.34437644
v -0.28660074 -0.10352506 0.39677721
v -0.25740486 -0.12708789 0.28265443
v 0.35265857 -0.30782869 0.04403695
v -0.35481900 -0.08035486 0.42222390
v -0.48310304 -0.12092476 -0.07319472
v -0.45811206 -0.28526807 -0.57978988
v 0.37352678 -0.07555003 -0.27353269
v -0.20018308 0.31763646 0.47512454
v 0.42337477 -0.20999131 -0.10032112
v 0.32846472 0.35191694 0.31947970
v -0.52769160 -0.00438091 -0.10992841
v 0.05535291 -0.29763576 0.48810682
v -0.51260000 0.17070594 0.03592311
v -0.32250589 0.09173311 0.49429330
v -0.18985859 0.21806225 -0.18458410
v 0.25855744 -0.27484626 -0.04546162
v 0.11180314 -0.22480378 -0.60920078
v 0.16277854 0.06875109 -0.32226786
v 0.09458432 0.12461781 0.46296662
v -0.45685992 -0.48376015 -0.70438051
v 0.36296189 0.33535558 0.32763940
v 0.54777312 0.20101978 0.21994567
v 0.10243991 0.22148283 -0.24882270
v 0.00471329 -0.37345308 0.21188328
v -0.06029133 -0.16002829 -0.73175031
v -0.25540552 -0.25560147 -0.00711000
v 0.20445243 0.41231292 0.25017402
v 0.47239685 -0.17884685 0.34125507
v 0.03629732 -0.35009155 -0.01091957
v -0.59161144 0.09114378 -0.22163628
v -0.04490544 -0.24649535 0.33667797
v 0.47726026 -0.23613286 0.10655657
v -0.53480017 -0.05999816 -0.31552309
v 0.64867371 0.16749072 0.23336229
v -0.55257875 0.15692793 -0.36271667
v -0.00937183 -0.23462155 -0.69681287
v -0.32471153 -0.23398064 -0.56074673
v -0.38927814 -0.17271703 0.16200349
v -0.23664245 0.13552123 0.35906443
v -0.11499195 -0.17631812 0.48071969
v -0.08553127 -0.22362177 -0.15753725
v -0.40148580 -0.41761574 -0.56141114
v -0.41391128 -0.02251330 0.23547456
v -0.04888755 0.30120364 0.06451658
v -0.29049832 -0.02037019 -0.54814625
v 0.25152832 0.30788198 -0.08485580
v -0.42230976 0.24750026 -0.07997454
v -0.52681178 -0.05380189 -0.04812623
v -0.43053707 -0.12056600 -0.18349794
v -0.27883741 -0.24993466 0.08185801
v -0.32877025 0.21482578 0.22100067
v 0.12006021 -0.30620226 -0.73696482
v -0.53050250 0.03873024 0.07729108
v -0.49660629 -0.06497616 -0.40096766
v -0.56657809 0.22465812 -0.18484873
v 0.27809361 0.26851642 -0.17451710
v 0.15100202 0.41539353 0.04901833
v -0.15964946 -0.21102555 0.20211492
v -0.04543016 -0.33319372 0.18629594
v -0.20761697 -0.00662201 -0.37761638
v -0.16869898 -0.05938443 -0.45691821
v -0.36236715 -0.55436385 -0.63675845
v 0.39177346 -0.27488142 0.02004422
v 0.56694013 -0.10787582 0.00075247
v -0.48859385 0.17282198 0.11690316
v -0.31726947 -0.35973665 -0.57404482
v 0.22743444 -0.30604973 0.39647442
v -0.17263970 0.23767164 0.49533045
v 0.17954908 0.42616159 0.12388966
v 0.20609440 -0.14067626 0.45566082
v 0.47025478 -0.01942355 -0.21914780
v 0.08334750 0.36461645 -0.03523816
v -0.54803157 0.05721500 -0.07777438
v 0.58453608 -0.11114329 0.28892401
v 0.17731525 -0.23295492 -0.17039295
v 0.31331998 0.32980952 -0.07985453
v 0.01416882 -0.24350494 -0.14398202
v -0.00463606 -0.34068963 0.26729292
v -0.18994434 -0.04206074 -0.32259744
v -0.24570210 0.29469782 0.39917165
v 0.07111947 0.20976271 -0.24527645
v 0.65729362 0.16571227 0.32763433
v -0.55153298 -0.03798964 -0.27785340
v -0.13884968 -0.03003787 0.50378346
v -0.08107706 -0.28419042 0.14454921
v 0.06897721 -0.06050898 -0.29034212
v -0.45573658 -0.12562948 -0.25346440
v -0.11640043 -0.25531697 -0.06259424
v 0.30660880 0.24617775 -0.20155172
v 0.22796968 0.40952298 0.26761359
v -0.56418681 0.07919824 -0.38511339
v -0.07583001 0.25992042 0.27786484
v -0.41847140 -0.14172176 -0.43105844
v -0.36184853 -0.17787902 -0.13849768
v -0.05100226 -0.09650912 -0.26067680
v -0.56235033 0.20175892 -0.33005160
v -0.40239125 -0.13209769 -0.38765013
v 0.09501010 -0.29793778 -0.69017857
v 0.39887112 0.10077006 -0.27575278
v -0.00715363 -0.25927666 -0.11387483
v -0.08690881 0.19682433 -0.21166272
v -0.17330600 0.02788604 -0.32285812
v 0.35358855 0.24955428 -0.17558163
v 0.05882614 -0.35259378 0.31857783
v -0.28111356 -0.06254385 0.35830966
v 0.04218473 -0.20662525 -0.59732550
v -0.11146479 0.28766981 0.17903167
v 0.15185603 -0.00182629 0.46165368
v 0.28701994 -0.24377277 -0.10048982
v 0.18742059 0.30209860 0.49493819
v 0.59666133 0.07335445 0.08828342
v -0.21733080 -0.24739426 0.09869659
v -0.28183171 -0.03607946 0.50424546
v -0.32709950 0.00794752 0.50316340
v 0.41694164 0.34316841 0.12144884
v -0.07052630 -0.11340916 -0.64017391
v 0.44763544 0.02499531 0.49392933
v -0.06760386 -0.26946488 0.19393924
v -0.23008335 -0.12215701 -0.28140694
v -0.02742496 0.30872172 0.14432818
v 0.02963356 -0.11256270 -0.58254743
v -0.44508776 -0.23730722 -0.53832424
v 0.44958517 0.28730685 -0.04022044
v -0.28324297 -0.22545978 -0.10675582
v -0.55014759 0.32030416 -0.27212909
v -0.39783466 0.05247856 -0.53805816
v 0.42729834 -0.09700830 -0.22867468
v -0.10494155 0.20057800 -0.20442270
v -0.46296817 -0.09235914 -0.45200729
v 0.55060261 0.06389967 -0.10745050
v 0.35055774 -0.26076010 -0.05946794
v -0.56626379 0.12169782 -0.42229849
v 0.10359202 -0.39879206 0.07115301
v -0.26026225 -0.08205496 -0.54794645
v -0.57893407 0.10223296 -0.33288556
v -0.10609147 -0.28882188 0.50375617
v 0.34010965 0.31309643 0.37158057
v 0.40953618 0.25754470 0.44265807
v 0.57537127 -0.10856637 0.04086100
v -0.38745940 0.16305418 0.22036840
v -0.06833087 -0.03479905 -0.28283101
v -0.54795355 0.00552139 0.03672729
v 0.50689650 0.19294780 -0.10300600
v 0.15366876 0.20056556 0.45772129
v -0.10053910 -0.21845672 -0.16900314
v -0.17043149 -0.12524243 -0.65207469
v 0.15311822 -0.11343823 0.45827538
v 0.34351116 -0.26309276 -0.04856087
v 0.12988169 -0.23967451 -0.16411009
v -0.13276678 0.28859046 0.16752404
v -0.36646777 0.27022955 -0.15504444
v 0.65187341 0.02203876 0.39857352
v 0.01880508 -0.28647885 0.50417411
v 0.24940555 0.21866287 -0.26202351
v 0.20116530 0.04157871 0.48848441
v 0.10741110 -0.28355041 -0.05217889
v 0.05397767 -0.34878415 0.32262355
v -0.30333903 0.03007325 0.40507045
v 0.29161426 -0.31876287 -0.00448864
v -0.43910596 -0.38259834 -0.61403286
v 0.44565481 -0.25896567 0.20262943
v -0.46011084 -0.35676116 -0.64212292
v 0.04200035 -0.34648708 0.31714129
v -0.18301448 0.30046955 0.08852502
v 0.04795365 0.34150857 0.32899588
v 0.25113773 -0.36133254 0.12885296
v -0.33319041 0.04212068 0.28656378
v 0.24073185 0.38428319 0.31280360
v -0.52848673 0.14353526 0.04068242
v -0.15194108 -0.14593807 -0.65238756
v 0.05870308 0.15543649 0.46239486
v -0.52355009 -0.01789432 0.08417242
v -0.07866319 0.28139955 0.17164522
v 0.03717843 -0.27231869 -0.07289334
v 0.06831212 0.07435920 -0.30218974
v 0.19099265 -0.36189941 0.00584223
v -0.45929885 0.34705704 -0.38656700
v -0.34989303 -0.50979334 -0.70985818
v 0.10459854 -0.23153535 -0.66561723
v 0.49998105 -0.17982739 -0.04620378
v 0.10352229 -0.18310875 0.45812103
v 0.39199317 -0.29411083 0.24670857
v -0.11563326 0.28341085 0.24443404
v 0.28608593 0.29894042 0.49197307
v -0.05375296 0.32147998 0.38940474
v 0.33469343 -0.01189014 -0.30837932
v -0.29199788 -0.12809075 -0.32401395
v 0.12255418 0.34273937 0.40513015
v -0.29965699 -0.13106014 0.43007413
v -0.48758075 0.18109097 -0.14356786
v -0.32494164 0.31139767 -0.24168158
v -0.23896156 0.13903353 0.36443907
v -0.06405172 -0.26854354 0.50350946
v -0.28969145 0.29052863 -0.07892593
v 0.08861306 -0.30933389 0.40418351
v -0.30767012 0.10493208 0.28086954
v -0.13732298 -0.16821349 -0.62330705
v -0.49069363 0.24880606 -0.46736583
v -0.50752962 -0.05437680 -0.40356049
v 0.49986038 0.26735726 0.14437304
v -0.34789133 -0.58020717 -0.66969806
v -0.07425985 -0.19159693 0.25954908
v 0.04866419 0.31305864 -0.04603015
v -0.32661507 0.26911336 -0.33336025
v 0.34164959 0.36404020 0.01342956
v 0.35606474 -0.27660868 -0.00755952
v 0.31196320 0.38496327 0.22371256
v 0.20903416 -0.04212418 -0.32187185
v 0.59469771 0.01942329 0.02173688
v -0.26301304 0.09572270 -0.52148926
v 0.38089254 0.35019213 0.05197760
v 0.12426926 0.40248603 -0.00731002
v -0.18248296 -0.02722432 0.50397819
v -0.18915001 0.27979749 0.18630475
v 0.40292463 0.32341641 -0.03107683
v 0.11124577 -0.39115629 0.18224123
v 0.03049221 -0.40127757 0.13546824
v 0.20685531 -0.35123593 -0.00591591
v 0.00822219 -0.20235239 -0.77726090
v -0.43175226 0.03589341 0.22164951
v -0.51549381 0.25740632 -0.15102668
v -0.04149244 -0.30743963 0.50455475
v -0.30734816 0.11994143 -0.53350407
v 0.04100942 -0.36043486 0.28852585
v -0.26552853 0.00572412 0.34481138
v 0.36514008 0.37611756 0.11691646
v -0.16215922 -0.24753006 0.08157968
v -0.54944408 0.01698335 -0.45444447
v -0.15155141 -0.04652243 -0.64148074
v 0.19599922 0.17262556 -0.29822484
v 0.34880450 0.30589572 0.43009442
v -0.41496569 -0.35646462 -0.56262386
v 0.04804671 -0.14606009 -0.60162383
v 0.06342145 -0.19744219 -0.58848023
v 0.72103977 0.06016685 0.28189909
v 0.57345080 0.08629515 -0.04558407
v 0.20242426 -0.33082175 0.34032315
v 0.30451274 -0.20320219 0.49737713
v 0.15241678 0.07942761 -0.32025626
v 0.59521669 -0.01774249 0.03535039
v -0.16787961 -0.19431408 0.23380637
v -0.19393234 -0.11540253 -0.62823009
v 0.28119379 -0.32834947 0.31230727
v -0.38781261 -0.14223750 -0.32991856
v -0.12721896 -0.06309035 0.50137162
v 0.36361444 0.36828271 0.16455828
v -0.15954208 0.28115955 0.40215474
v 0.07121745 -0.38674796 0.24052125
v 0.21771729 -0.21925622 0.49866596
v -0.53789157 0.33519050 -0.24627663
v 0.11799861 -0.24060918 -0.15655959
v -0.56699079 0.20224506 -0.31925064
v 0.03921469 0.33541808 0.37147263
v -0.46427703 0.33572069 -0.40001199
v -0.23683810 -0.25280112 0.06464481
v -0.55269474 0.04216032 -0.39690179
v 0.54741037 -0.12172858 0.37489137
v -0.10647988 0.23103184 -0.16260546
v 0.42107210 0.15870558 0.47161716
v 0.23967646 0.40592358 0.18529688
v -0.21286049 -0.25466111 -0.00845297
v 0.51607573 0.00786210 -0.16465880
v 0.59240597 0.09882934 0.06313839
v -0.46622908 0.35945830 -0.22564159
v -0.37799206 -0.07527030 0.44047174
v 0.11332826 -0.39297497 0.15628943
v -0.24924669 -0.08671544 -0.37256548
v 0.03011628 0.18626055 0.46180242
v 0.29325899 -0.24190633 -0.10380863
v 0.27977368 -0.32740465 0.32590398
v -0.19710514 0.24356499 0.33558843
v -0.27800855 -0.13981977 -0.25333601
v -0.38017619 -0.50814837 -0.59795159
v 0.01376764 0.34300688 0.37270537
v -0.31035882 -0.58757693 -0.67132574
v 0.17338575 -0.07766252 -0.30798474
v -0.42266673 -0.08371312 -0.54018891
v 0.18467088 -0.36887920 0.19177747
v -0.35407439 0.18040714 0.23077224
v -0.06636882 -0.08471212 -0.58279699
v -0.20278701 0.19105510 0.49631509
v -0.43082744 -0.09997698 0.18503411
v -0.29934558 0.02654821 0.29517895
v 0.21504280 0.37838987 0.35400355
v -0.49979210 0.19042787 -0.04636751
v 0.16372816 -0.36257076 -0.00319692
v 0.39852273 -0.25282568 -0.03433833
v 0.25858849 -0.14714909 -0.26778591
v 0.58003569 -0.03570489 -0.03638516
v 0.19817998 0.39600867 0.32709971
v -0.44510415 -0.19180423 -0.57423764
v -0.55488998 0.13268828 -0.37538007
v 0.25049821 -0.35755175 0.07904305
v 0.45968771 -0.21074085 -0.04425593
v 0.20630901 -0.09514134 -0.30138367
v -0.52903205 -0.08534914 -0.24362141
v -0.33429235 -0.42707887 -0.54296553
v -0.36802256 -0.28172120 -0.63204592
v -0.12628692 0.28364778 -0.05635682
v -0.06654356 -0.10219081 -0.26198933
v 0.00190428 -0.37239921 0.02701147
v 0.40702644 0.35086745 0.10166683
v 0.72340804 0.03831005 0.22738062
v -0.05862431 -0.30664352 0.18544094
v -0.40144655 0.09783118 -0.53952479
v 0.00433257 -0.22146232 -0.75933695
v -0.20641185 0.23127438 0.32772520
v 0.13052297 -0.37294963 0.22461855
v 0.05706347 -0.14906113 -0.23956841
v 0.67516685 0.16311450 0.26450247
v 0.32667679 -0.15117370 -0.25093088
v -0.12354279 0.28514245 0.21031520
v -0.08470056 0.25568649 0.49569368
v 0.57766497 -0.06009395 -0.02408505
v 0.41197327 -0.28522387 0.13235210
v -0.04546892 0.36049867 0.49017647
v 0.05552721 -0.27363554 -0.69977623
v 0.47402930 -0.15882748 0.35285902
v -0.09159479 0.28621671 0.15013354
v -0.41561922 -0.21531387 -0.45425081
v -0.34056041 -0.58488649 -0.65391755
v -0.40897360 0.33539757 -0.39851645
v -0.22878779 0.00298416 -0.56298810
v -0.25406483 0.18030401 -0.38606626
v 0.04207240 0.13194555 0.46420562
v 0.30769685 0.34456322 0.36214483
v -0.26273054 0.25058618 -0.28913379
v 0.55404484 0.15581225 0.42582148
v -0.32105079 -0.51508361 -0.66133589
v 0.06795079 -0.32372639 -0.03027395
v 0.21439242 -0.26376671 0.49509943
v 0.50471753 0.25730291 0.25344163
v 0.51551974 0.21110782 -0.06038463
v -0.27180490 0.25407979 -0.21549891
v -0.13960154 -0.02053658 0.50362217
v -0.30502951 0.29459614 0.49458185
v -0.45617747 -0.27764770 -0.59593290
v -0.38400167 -0.50434351 -0.62656122
v 0.71211529 -0.01200863 0.29021543
v 0.54264694 -0.15732291 0.21227589
v 0.26262066 -0.29717949 -0.03409635
v 0.27512878 -0.18174499 -0.24157232
v -0.47428101 -0.09022859 -0.14503416
v 0.34606093 -0.10132288 -0.27278626
v 0.13788730 0.31727424 -0.06951570
v 0.01560323 -0.07411665 -0.27319664
v 0.66190469 0.15551439 0.33632341
v -0.55791193 0.16073243 -0.35300562
v 0.60245323 0.00180106 0.15083668
v 0.10598034 0.35828665 0.36101550
v -0.44114316 -0.37400034 -0.66890591
v 0.49754861 0.16410457 -0.15779895
v 0.10985781 0.22053473 -0.25149700
v -0.48964572 -0.09924013 0.10093667
v 0.56284863 0.17784531 0.18809062
v 0.48089394 -0.13220514 0.36273947
v -0.35950953 -0.11508716 0.22711369
v 0.50954849 -0.10588879 0.42136186
v -0.12129212 -0.06313676 -0.59662580
v -0.20800413 0.20101587 -0.20756039
v 0.09846872 0.05039987 -0.31208166
v 0.47240275 -0.24044238 0.11477470
v 0.05294663 -0.26588520 -0.09107410
v 0.57245010 -0.02616926 -0.06139155
v 0.48119125 -0.10428657 -0.17623560
v 0.18308079 -0.04810024 0.46007219
v 0.36454412 -0.21087381 -0.13622937
v 0.11723541 -0.14614114 0.45824298
v 0.31610972 0.14693552 0.49418238
v 0.46116573 0.22323149 0.38933417
v -0.43190044 0.37957487 -0.22265650
v 0.46415845 0.29326838 -0.00142449
v 0.08751704 0.13034433 -0.29618877
v 0.67303616 -0.04996143 0.35095569
v 0.21907339 -0.01205953 0.49543145
v -0.33755568 0.29045609 -0.04629482
v 0.52366698 0.01650523 -0.15486248
v 0.11206640 0.22595613 -0.24731642
v 0.56110477 0.16877590 -0.00058053
v 0.28809646 0.26530457 -0.17209370
v -0.32152659 0.30503106 -0.24458845
v -0.32522243 -0.12680729 -0.42028829
v -0.01127978 -0.33503655 0.26845065
v 0.09735522 0.41365328 0.14464496
v -0.45651525 -0.11437950 -0.13857113
v -0.26069486 0.20434362 0.49652955
v 0.27055758 0.40292653 0.11588671
v -0.27654043 -0.05959585 0.31967944
v 0.54417080 -0.15920714 0.11161783
v -0.50924677 0.17799127 -0.04986872
v 0.44892654 -0.23071380 0.32350284
v 0.46459922 -0.09042913 -0.20167182
v 0.14086179 -0.29121402 0.42260602
v -0.27698225 0.28211045 -0.09878268
v -0.32566682 0.25239632 -0.44569185
v 0.58823556 0.13011208 0.09973610
v -0.36673927 0.28843835 -0.44306499
v 0.49218303 0.26904929 0.18322814
v -0.54497200 -0.00640491 0.00871779
v 0.51454115 0.24700585 0.19704644
v -0.09073788 0.28446397 0.18822156
v 0.27189940 0.40756214 0.07217787
v -0.31783441 -0.34944212 -0.54892838
v 0.58811182 -0.06534751 0.09296133
v 0.04468313 -0.25134581 -0.78922379
v -0.51655149 -0.08896810 -0.01244517
v -0.04791192 -0.35748199 0.10715096
v -0.07658369 0.29329568 -0.06473276
v -0.10800000 -0.16913138 -0.22922502
v -0.25049078 0.14219327 -0.49538016
v 0.54967135 0.18385006 -0.01605205
v -0.00685148 -0.31804189 0.30888796
v 0.21815389 -0.31389636 0.39004022
v -0.57596886 0.27781895 -0.27548236
v -0.05118687 -0.29638538 0.22503491
v -0.34335449 -0.05092138 -0.52075917
v -0.00889024 0.37699044 0.07748479
v 0.44245836 -0.26594195 0.18740469
v -0.47467697 -0.03111376 0.17313577
v 0.42418933 -0.16732092 -0.16370381
v -0.03633094 -0.19296771 -0.58327371
v -0.46987343 0.22640185 0.00757263
v -0.40350303 0.18419749 -0.52470094
v 0.65122497 0.07096538 0.39826566
v 0.40291852 -0.23592617 -0.07511250
v -0.57062584 0.10464593 -0.43442488
v 0.06762398 -0.39098594 0.22489208
v 0.21611805 -0.22082473 0.49923706
v -0.31385905 0.24506390 0.19703421
v -0.39652222 -0.43993393 -0.55286378
v -0.39642280 0.25236544 -0.13792790
v 0.38267678 -0.25771761 0.37714419
v -0.00641127 0.38203165 0.08005947
v 0.18494450 -0.37947410 0.12127537
v 0.65066701 0.11657099 0.18018651
v 0.46512121 0.24552970 -0.08648171
v -0.51054960 -0.04033475 -0.13012151
v -0.17996159 0.26012331 0.26298469
v 0.37322775 0.29399469 0.41110575
v 0.54235554 -0.10021719 0.41570446
v -0.52068526 0.06957970 -0.51454169
v -0.21449807 0.08885214 -0.38286555
v -0.32491124 0.29180497 -0.20929894
v 0.61758208 0.18367045 0.25389984
v 0.06828059 0.35673127 0.39505288
v -0.51724219 -0.08444507 -0.02241664
v 0.06727454 0.30166024 0.49325612
v -0.22329989 -0.09690372 -0.47790563
v -0.01240193 0.32747549 0.00474888
v 0.46373251 0.26087058 0.32445258
v -0.08165399 0.05202019 -0.29003376
v -0.25317222 0.31999022 0.48782465
v 0.41619709 -0.28575262 0.17519315
v -0.15567797 -0.18430445 0.39678457
v 0.04666315 -0.21416327 -0.75200135
v -0.39147264 -0.46904716 -0.54346335
v 0.11855871 -0.39026234 0.16844024
v -0.03942725 0.30651656 0.00707584
v 0.29005846 0.26875094 -0.14639191
v -0.43231767 -0.27018335 -0.48900974
v -0.20814511 -0.19906126 0.18409802
v 0.58965790 0.10611399 0.04316475
v 0.67931199 -0.05991577 0.31845409
v -0.00586474 -0.27787751 -0.03891096
v -0.51216608 -0.09773039 -0.01564271
v -0.56897879 0.12907733 -0.43747151
v 0.32671282 0.34031606 0.34548825
v -0.29903394 0.21687888 -0.38927940
v -0.03702919 0.31690446 0.10342587
v 0.06971618 -0.36009258 0.31030658
v 0.24737757 -0.23954025 0.49978906
v 0.11641761 0.36075267 0.35932705
v 0.26445702 -0.31349090 0.36295256
v -0.46310923 -0.14408886 -0.06065326
v 0.17573836 -0.27864406 0.48479068
v -0.24128830 -0.07971098 -0.44953555
v 0.52409708 0.23339926 -0.00414527
v 0.15503086 0.42634365 0.16486916
v -0.28518730 0.25802475 -0.20957406
v 0.29329124 -0.13769823 -0.26819864
v -0.09815476 0.32393253 0.47750783
v 0.44515774 -0.18598770 -0.12044152
v 0.25970185 -0.34472638 0.24332547
v -0.25668395 0.30997267 0.49282205
v 0.58204854 0.12919459 0.02872503
v -0.17386229 0.12168615 -0.27992287
v 0.37155545 -0.31293839 0.21532348
v 0.42171952 -0.27704275 0.08592511
v 0.46078098 0.20029050 0.41253600
v -0.38719517 -0.21013652 0.02293623
v 0.17482245 -0.32974908 0.37062255
v -0.04368904 -0.36314714 0.12109689
v -0.55108237 0.03321317 -0.02040377
v 0.24042763 -0.15770887 -0.25906318
v 0.58555943 0.14292489 0.20682959
v -0.12688874 -0.19657816 0.38520324
v 0.55850399 -0.13464724 0.00439654
v 0.19314329 0.19716169 -0.28233224
v -0.47548485 -0.05326661 -0.49868524
v -0.16151500 -0.12930754 -0.66015357
v -0.51358682 -0.09743792 -0.00867650
v -0.36593977 -0.55308867 -0.66371644
v 0.03201211 -0.19319810 -0.75546610
v -0.51108229 -0.02332755 -0.43726778
v 0.35061574 -0.19050683 -0.19602813
v 0.17177422 0.18992655 -0.28705591
v -0.19968121 0.22807959 -0.17434998
v 0.09560992 0.23923448 -0.22921638
v -0.25672391 -0.09204739 -0.37231749
v -0.11636388 -0.21611777 -0.17201477
v 0.33569455 -0.17888181 -0.22137558
v -0.50021231 -0.08633851 -0.09855477
v 0.10577326 -0.39363426 0.17724991
v 0.40903354 -0.27989426 0.26095814
v -0.00217717 -0.31580916 -0.01145358
v 0.03089934 -0.22623113 -0.16973802
v -0.44437328 -0.03544245 -0.52355754
v 0.29683983 -0.34212118 0.15933971
v -0.01876670 -0.38062799 0.12899709
v 0.06979410 -0.37360916 0.27815184
v -0.06430271 -0.22370145 0.47776824
v -0.13209869 0.22618909 -0.17658323
v -0.18827131 -0.13622081 -0.58477074
v 0.20764689 -0.28004578 0.43712416
v -0.06723815 -0.26642001 -0.03798097
v 0.55928952 -0.12757175 0.33952528
v 0.02817494 0.23126248 -0.20623185
v -0.13559915 -0.01989802 -0.53688139
v -0.05984258 -0.05952054 -0.54353768
v 0.49052945 0.20962466 -0.10890570
v 0.61695546 -0.10228534 0.26701701
v -0.52900875 0.08524901 -0.13951786
v 0.34095362 -0.19403853 0.49350259
v -0.47422823 0.19705239 -0.09812724
v 0.23361588 -0.28301585 0.41685528
v 0.48843598 0.25534436 -0.04127878
v 0.50210720 -0.14174876 -0.11565291
v -0.04690193 -0.22869582 0.34379151
v 0.08024681 0.33795691 -0.04580196
v -0.25932011 0.02286131 0.36786127
v 0.24473673 0.39078104 0.29359880
v -0.07825717 -0.29267153 0.11227684
v -0.02534534 -0.37270674 0.15846328
v -0.08915149 -0.19838828 0.22712554
v -0.31322357 0.25640562 -0.34012529
v -0.00600531 -0.22514820 -0.15840726
v 0.02141181 -0.10081933 -0.57553989
v -0.56844348 0.01003412 -0.33227801
v -0.09327855 0.12538946 0.49695426
v -0.35228685 0.11289815 -0.53873605
v -0.37090942 -0.08417948 0.44534472
v -0.00969727 -0.26108602 -0.10933864
v 0.29004151 -0.13098684 0.49281603
v 0.13498847 -0.24133778 -0.16386670
v -0.08120684 -0.19008528 0.36707464
v 0.00832936 0.32456118 0.21160662
v -0.53937608 0.29833031 -0.35362917
v 0.27542976 -0.24892928 -0.07601266
v -0.31728929 -0.24859388 -0.54618573
v 0.40258035 -0.20933956 0.40702006
v 0.63737726 0.15945549 0.21785648
v 0.29616195 0.16206053 -0.29960331
v 0.00453071 -0.10832667 0.46316096
v -0.00611782 -0.16157834 -0.64693236
v -0.45860475 0.35088876 -0.18980971
v -0.13688804 -0.23363625 0.12114490
v -0.32098988 -0.25350904 -0.50663060
v -0.02525843 -0.12788233 -0.61065727
v 0.37374419 -0.30083701 0.32999957
v 0.00753911 -0.32498249 0.31675920
v 0.70172048 -0.02983072 0.21529926
v 0.33212161 0.37643963 0.21259871
v 0.19383228 -0.32916623 0.36993182
v 0.38835496 0.13378198 0.49150327
v -0.08979012 -0.14478421 -0.24424887
v -0.01632038 0.03122910 0.46664640
v -0.45105162 -0.15573870 -0.06265149
v -0.26576859 0.26200369 -0.25380021
v -0.34949696 0.03621875 0.43474084
v 0.02346489 -0.21286558 -0.60893083
v -0.03211083 -0.14121884 0.46295977
v 0.28986630 -0.27279097 0.43305475
v 0.04511115 0.14423835 0.46369386
v -0.39839822 -0.11976086 0.19632810
v -0.03342081 0.32652727 0.37586960
v 0.22989783 -0.21058920 0.49619141
v -0.46529859 -0.03726579 0.17863540
v 0.55060393 0.20333436 0.33191484
v -0.43392166 -0.03394066 -0.52775306
v -0.12563124 0.29031232 -0.03217556
v 0.58804947 0.07098611 0.00509614
v -0.15896022 -0.16733637 0.50232112
v -0.06191198 0.33307993 0.40187401
v -0.46309400 0.16540007 0.14881259
v -0.39345783 -0.37968233 -0.47421569
v -0.31345278 0.25601906 -0.34086418
v 0.12953269 -0.37396649 0.21896271
v -0.42350373 -0.09857433 0.18926635
v -0.29767996 0.32168794 0.46910867
v 0.21984971 -0.19589411 0.47575217
v 0.00762953 -0.08202399 0.46365163
v 0.43594375 0.26551110 -0.09005351
v -0.34254724 -0.10048958 0.25446087
v 0.32677498 0.30723092 0.45895880
v -0.04331770 -0.27379900 -0.02570363
v 0.10541075 0.32133317 -0.06038506
v 0.44951972 -0.23585953 -0.01044071
v -0.46652395 -0.03130721 -0.51472193
v -0.37127030 -0.53702265 -0.57775575
v 0.15796579 0.39610940 -0.01983441
v 0.04587933 0.41625068 0.10141660
v 0.42599562 -0.21814069 0.38565928
v -0.12803724 -0.03704230 -0.30015418
v -0.39185563 -0.50294286 -0.65151978
v 0.30022597 0.26192081 0.49493653
v -0.23752764 0.08638818 -0.45062810
v -0.23048645 0.20790565 0.25571176
v -0.11670415 0.28744623 0.16467324
v 0.18030308 0.21982026 -0.26320904
v -0.19871855 -0.16494532 0.29855821
v 0.00954047 -0.33126706 -0.01102464
v 0.35039714 0.38355747 0.11999705
v 0.04229442 0.00473729 -0.29536885
v -0.11032580 0.30169553 0.01159819
v 0.28138071 0.40070707 0.08843312
v 0.35256165 -0.30655620 0.27215338
v 0.45447770 0.24406238 0.36538753
v -0.11465244 -0.22798960 0.14037506
v 0.52208275 0.24243131 0.16296747
v 0.55104297 0.19499187 0.20818424
v -0.27874750 0.26771152 -0.23965779
v -0.52062100 0.05757598 0.11587034
v -0.18713014 -0.11169572 -0.29213241
v -0.16002671 0.04764494 -0.30680421
v 0.09951957 -0.32621711 0.38183090
v -0.12135477 0.19148539 -0.22078070
v -0.32708982 -0.23123585 0.03340330
v 0.19168858 0.35003150 0.38515204
v -0.37377512 -0.39096427 -0.48079893
v 0.23346546 0.17577747 -0.29525009
v 0.22838581 0.01128942 0.49877724
v 0.64441299 0.00817898 0.16927746
v 0.03931550 0.37010491 0.21844982
v 0.68881398 0.10696721 0.19010825
v -0.42056191 -0.01993904 0.22969718
v -0.14769712 -0.21973333 0.18144642
v 0.54498935 0.16032059 0.42760617
v 0.00367489 -0.08868121 0.46365207
v -0.43672875 0.37992969 -0.31452984
v 0.13532570 0.17638081 0.45967382
v -0.17993869 -0.14313838 -0.56652492
v 0.44747043 -0.13027300 -0.18632485
v 0.59344119 0.10773275 0.08935754
v -0.16309910 -0.19985251 0.22354890
v -0.34171581 0.14641590 0.25352153
v 0.39476410 -0.23791274 -0.07868423
v 0.20059469 0.42538866 0.15962018
v -0.18917610 0.30084312 -0.02508658
v -0.51275635 0.34581289 -0.25426856
v -0.04343954 -0.13133496 -0.52748746
v -0.02094755 -0.36528909 0.03942754
v -0.41537932 -0.14082728 -0.27389950
v 0.45715943 0.20451802 -0.17285886
v 0.57559371 0.01163596 0.44702789
v 0.50646406 -0.19516970 0.23184863
v -0.13750648 -0.14034836 -0.51918727
v 0.05992103 0.36423960 0.28833070
v -0.55469757 0.10574958 -0.49347666
v -0.47451469 0.21954285 -0.03803042
v 0.71420658 0.05299651 0.19772315
v -0.53408736 0.01119957 -0.10288636
v -0.45331103 -0.12371302 -0.31990427
v -0.06012130 0.28753951 0.07573586
v 0.52904654 -0.19834863 0.07330617
v 0.42948958 0.25493407 0.38185701
v -0.47905868 0.36911765 -0.33672076
v -0.06314882 -0.05158278 -0.55773956
v 0.04276255 0.25684938 -0.17970768
v 0.38943031 0.31669238 0.33302653
v 0.14649986 0.17362881 0.45984831
v 0.30258265 0.21438412 0.48993576
v 0.26445681 0.40127936 0.25927696
v -0.47225016 0.24611145 -0.47988623
v -0.19632275 -0.19828705 0.20028141
v -0.48825768 -0.06721359 -0.42621237
v -0.45537263 -0.37707657 -0.66005588
v 0.01409829 -0.22806591 0.47672778
v -0.35839200 -0.13988429 -0.55114883
v -0.41825297 -0.39956829 -0.60402280
v -0.43137869 -0.07322855 0.19617675
v 0.14994380 -0.32104605 0.39399377
v -0.48021463 0.20264612 -0.50113535
v 0.62459588 -0.09189703 0.36854032
v 0.58051819 0.15050548 0.10001458
v 0.58750582 0.12633020 0.16320619
v 0.01366674 -0.12502261 -0.59461319
v 0.19557071 -0.03564926 0.46511853
v -0.24455369 0.11848971 -0.45465782
v 0.04920807 -0.14598089 -0.56126058
v -0.35509455 -0.57299918 -0.67619705
v 0.07781477 0.27434126 -0.16477868
v 0.04581429 -0.27219591 -0.07358687
v -0.04656025 0.31136936 -0.01278141
v 0.49370655 0.23633030 -0.06346518
v 0.71323121 0.09587283 0.29054323
v 0.29931840 0.28970364 -0.11728381
v 0.56336421 -0.07347494 -0.05905345
v -0.12668940 -0.23769823 0.39431208
v -0.44301379 0.25366920 0.06204361
v -0.17367344 0.28146002 0.39795738
v 0.39585572 -0.27818987 0.03615312
v -0.13329542 -0.16630906 -0.56646591
v -0.04946478 -0.33075273 0.05224860
v -0.07747431 -0.20044865 -0.62108701
v 0.61559373 -0.01950695 0.17968190
v -0.10108941 0.16002774 -0.25168929
v -0.24041891 -0.08588371 0.50468040
v -0.22390346 0.31141436 0.07902472
v 0.62532628 -0.07487745 0.22819963
v -0.35937783 0.22456191 0.48367792
v 0.57880878 0.09764703 -0.02575882
v -0.02988719 0.31239486 0.13276237
v 0.68125260 -0.05799026 0.22682580
v -0.19902964 0.27654254 0.39320615
v -0.11320236 0.27653399 0.40512243
v 0.07206171 0.37036321 0.44045818
v -0.20854807 0.02945904 -0.39632356
v 0.52886343 -0.19809566 0.07934391
v 0.56913322 -0.12531525 0.32627362
v -0.08112153 -0.00934100 0.50184518
v 0.59084666 -0.05144958 0.17721888
v 0.33352211 -0.13388559 -0.25954500
v -0.32072350 -0.37073672 -0.54993278
v -0.32052276 -0.28523856 -0.51175773
v -0.39621896 -0.04011256 0.45144302
v 0.02098338 0.30687121 0.34585181
v -0.06289765 -0.33950579 0.12512733
v -0.56595814 0.07037731 -0.39895630
v -0.33180931 0.29033786 0.48539412
v -0.32240102 0.24349450 -0.48074308
v -0.28334299 -0.17691432 -0.20912826
v -0.49727201 0.29637957 -0.41942015
v -0.12596308 0.19438632 0.49729782
v -0.31484964 -0.59318978 -0.68519562
v -0.44608191 -0.00990509 0.20414405
v 0.26431078 0.02436107 -0.32891673
v 0.20245084 -0.30305254 -0.04516746
v 0.10144658 0.24797671 -0.22029974
v 0.63916939 -0.04023084 0.19172238
v 0.56191933 -0.13353591 0.01069462
v 0.41806117 -0.24699040 -0.02652470
v -0.40074193 0.32902440 -0.40507403
v -0.55399930 0.19373028 -0.35761467
v 0.17088872 -0.28722420 -0.05494094
v -0.48466921 -0.07464130 0.13694578
v 0.46994248 0.21755785 0.38036469
v 0.16871618 0.42467663 0.17829342
v 0.32923824 0.39120725 0.13002366
v 0.33239475 -0.22150196 -0.14325719
v -0.26562902 -0.25166756 0.06625324
v 0.67513591 -0.07040709 0.31143883
v -0.56530356 0.23140983 -0.18240145
v -0.08024684 -0.09775443 -0.64299542
v 0.62696373 -0.10709330 0.33405334
v -0.42604029 -0.17668548 0.10506421
v 0.17534234 -0.37331778 0.17685413
v -0.38112351 0.05002175 -0.53798878
v 0.27139539 -0.34566119 0.02819724
v 0.00731735 -0.31070364 -0.01813649
v 0.12547852 -0.04291128 -0.30962855
v -0.22033808 0.05936068 -0.41818404
v 0.37376124 -0.29906395 0.27259502
v -0.32097283 -0.00989918 0.39246184
v 0.06019539 0.37440813 0.45664454
v -0.46378285 -0.15887323 -0.01493020
v -0.32682815 -0.32198867 -0.50263375
v -0.26712441 -0.09032710 0.50489336
v -0.14671054 0.28613922 0.19292739
v 0.63035107 0.06384436 0.41474912
v 0.18446901 0.41162810 0.22188450
v -0.48543289 -0.09676530 0.11000758
v -0.35469761 -0.22230074 0.10389702
v -0.23344830 0.19071925 0.27044487
v 0.71671402 0.07961266 0.21601108
v -0.32477927 0.09380629 0.28001183
v -0.53928757 0.23399867 -0.16157979
v -0.23612638 -0.15094888 0.50445080
v 0.70110893 0.10329376 0.32622084
v 0.71612829 0.06129039 0.20243084
v 0.57039863 0.04276922 -0.06707425
v -0.38464865 -0.50286400 -0.62679917
v 0.27772549 -0.27822945 0.42114460
v 0.13462950 -0.37583858 0.20959437
v -0.40183479 0.25861090 -0.13891622
v -0.21599355 0.16201243 0.50051171
v 0.58909458 0.12953362 0.12772360
v -0.50534946 -0.08012503 -0.09408979
v 0.04177460 0.20978713 -0.23468564
v -0.01092836 -0.33900213 0.00449686
v -0.19130257 0.00375971 -0.53906238
v -0.09863487 -0.25879973 0.09342340
v -0.43785381 -0.11934085 0.17291982
v -0.44352576 -0.15407911 -0.54994363
v 0.10988197 -0.28315064 -0.73953319
v -0.12900436 -0.20104963 0.49961147
v -0.37666005 0.29638702 0.04151093
v -0.03399630 -0.21687239 -0.70345974
v -0.08838836 -0.29420722 0.40351459
v -0.33329368 0.25837484 -0.17403625
v 0.06073687 -0.28537410 -0.73996454
v 0.21546946 -0.36203223 0.03611567
v 0.10724556 -0.31522876 -0.04108887
v 0.19989879 0.41234529 0.24529317
v -0.57646143 0.28460044 -0.26420337
v 0.08825707 -0.34405074 0.34580237
v -0.38803390 -0.13832363 -0.36774808
v -0.17147054 0.29614726 0.00807060
v 0.45672363 -0.15676369 -0.15423836
v 0.05722630 -0.14083894 -0.59558916
v 0.02816157 -0.24908261 -0.76388824
v -0.52360040 0.15993209 -0.04557291
v -0.03205950 0.35381275 0.39474353
v -0.01876750 0.26324123 0.24543738
v 0.19915068 -0.37490138 0.14691332
v -0.33155051 0.26149318 -0.12416715
v -0.47815230 -0.04688326 0.16399071
v 0.48953414 0.13671800 -0.18750134
v 0.59138983 0.02052055 -0.00085406
v 0.32645562 0.20337805 0.49359030
v -0.15361868 -0.04272014 -0.30397001
v -0.25905120 0.18995564 0.25515363
v -0.36401054 0.25136918 -0.14169800
v -0.52013254 -0.04177193 -0.40282783
v -0.54265398 0.21156992 -0.16749705
v -0.34748808 -0.57934731 -0.66045195
v 0.19221435 -0.26475906 -0.06968684
v 0.58291256 0.13305852 0.03993265
v 0.05387499 0.10139371 0.46446568
v -0.36373663 -0.55099922 -0.58507001
v -0.31986457 -0.31247711 -0.58336568
v 0.09494625 0.22283477 -0.24499917
v -0.40677315 0.28275871 0.02142339
v 0.01201073 -0.31727341 0.33842570
v 0.34433278 0.36496004 0.04905985
v -0.34011558 -0.31438875 -0.48086041
v -0.09728359 0.29601133 0.49403399
v -0.33539966 0.05203040 0.49980396
v 0.00507716 -0.25369799 -0.12526761
v 0.39628488 -0.14535530 0.44056413
v 0.48365372 -0.11946515 -0.16393816
v -0.26732969 0.33010042 0.46527213
v -0.56924707 0.13003697 -0.45963234
v -0.48277640 0.01869145 -0.52137727
v 0.39914486 -0.13894230 0.44002023
v 0.19566739 -0.05492258 0.46043169
v 0.48833096 -0.12629211 0.36713085
v -0.52973610 0.23867996 -0.44081014
v 0.04852658 -0.06082406 -0.28453490
v -0.34897360 0.31131992 -0.31743959
v 0.64356947 0.17944662 0.31860325
v -0.02061781 0.29774046 -0.07603815
v -0.37877437 -0.51221901 -0.57793492
v -0.53818047 0.28608143 -0.16638462
v -0.29535887 0.17481622 0.25476792
v -0.12989166 -0.17073299 -0.63551199
v -0.37637129 0.34952527 -0.31166053
v -0.08212572 -0.21567962 -0.17209905
v 0.01998323 -0.28887355 -0.02970075
v -0.09063554 -0.08310376 -0.28065318
v -0.17354880 -0.02316771 0.50315613
v 0.42591187 -0.26508236 0.03452387
v 0.36532253 0.33544752 0.32680583
v -0.55047810 0.02103895 -0.47180766
v -0.19893791 -0.17501965 0.25921845
v 0.00488982 -0.38629863 0.05307296
v -0.55144519 0.03588656 -0.38146463
v 0.40320760 0.10981151 -0.27189848
v 0.21072407 -0.35851267 0.21597578
v 0.23683791 0.28957915 -0.12955278
v 0.09149159 0.17856404 -0.27506834
v 0.30924538 0.37061185 0.26236090
v 0.02113071 0.28758684 -0.11653970
v -0.16530022 -0.16096942 -0.25688136
v 0.39537194 -0.18318921 0.42552322
v -0.24772747 0.08852502 0.41483647
v 0.16864456 0.16036499 -0.30346817
v 0.11450978 -0.06157150 0.46104449
v 0.30124965 0.24268714 -0.21356453
v 0.47462448 0.12619138 -0.20871270
v -0.32601985 -0.23097956 -0.56164485
v -0.02620702 -0.04294831 -0.27357194
v -0.10216580 -0.07726453 -0.28736445
v -0.32780832 0.31550896 -0.26330164
v 0.53941154 0.13679571 -0.10621735
v -0.21268161 -0.14792944 0.39247346
v 0.39444351 -0.04107027 -0.27297637
v 0.00874808 -0.23246323 0.48302662
v 0.00290554 0.30449334 -0.07147684
v 0.10734373 0.30004913 -0.09472483
v 0.02963772 0.18832645 0.46179342
v 0.66188186 -0.05247493 0.36532065
v 0.11326179 0.20389287 -0.26541942
v 0.19669791 0.41875511 0.08192436
v -0.22583522 0.31739759 0.04861380
v 0.10483672 0.41865736 0.07363547
v -0.52160376 0.11898365 -0.51056331
v -0.39327842 0.24985009 -0.13487193
v -0.09968021 -0.08494609 -0.68868810
v 0.14188564 0.42202270 0.15995422
v -0.34616804 0.05661992 0.45462033
v 0.72533882 0.02716330 0.25605884
v -0.05067379 -0.35421041 0.14328742
v 0.57127512 -0.07768904 0.41482052
v -0.29014274 0.19843274 0.24418055
v 0.22774142 -0.27663016 0.43144011
v -0.11227653 -0.27532354 0.40444842
v -0.25754887 0.23272648 -0.31821617
v 0.22349505 -0.22564164 -0.19451229
v 0.28304952 0.31561261 -0.08977309
v -0.44317460 -0.13498643 -0.29113239
v 0.26561877 0.28403941 -0.11738560
v 0.58975893 0.20265850 0.30087999
v 0.71176851 0.04895419 0.31528711
v -0.43069711 -0.28837210 -0.49697343
v 0.36970946 0.33227384 0.33064070
v -0.37754419 -0.55984604 -0.71431589
v 0.14464885 0.19902544 0.45855868
v 0.01279668 0.36296183 0.00502912
v -0.45164943 -0.11973661 0.15728581
v -0.34879401 0.22889505 0.49322116
v -0.06616336 -0.18409462 0.28969541
v 0.35328433 0.13444151 -0.28731823
v 0.36667386 -0.25885800 0.41490573
v -0.36111635 0.31308249 -0.34419224
v 0.62815005 -0.11160422 0.30702531
v -0.52974397 0.09609480 0.06796972
v -0.39979884 -0.42333528 -0.55231708
v 0.25030026 0.40570846 0.18718874
v 0.02928478 -0.19655567 -0.69340438
v -0.42570126 0.28804624 -0.46192133
v -0.56962198 0.10872746 -0.41996008
v 0.30040812 0.18200931 0.48378837
v -0.03877836 -0.32221678 0.46263281
v 0.00214126 -0.37711549 0.20061034
v -0.38881919 0.17652094 0.21353504
v -0.23488626 0.25972193 0.49539584
v -0.04006270 -0.29790723 0.01104379
v 0.03204013 0.19633846 0.46101275
v 0.54313856 0.22012490 0.08549011
v -0.55143017 0.00147341 -0.36476448
v 0.18644410 0.14908527 0.46022713
v 0.54340988 0.21639714 0.12848200
v 0.28298187 0.40051669 0.19412929
v 0.13614497 0.29767764 -0.13914318
v -0.31565902 -0.14085533 -0.27887595
v 0.15343726 0.40379512 -0.00745030
v 0.56044114 -0.12851959 0.14110306
v -0.36231428 -0.16593537 0.18537030
v 0.65948457 -0.07356602 0.23619834
v 0.47648987 0.15665418 0.44965577
v 0.12747061 0.37268516 0.33795983
v -0.30270201 0.08051008 0.28965476
v 0.49151286 0.18215859 0.41114274
v -0.03970194 -0.05935507 -0.26955557
v -0.21519442 0.30071408 -0.04898984
v 0.15691406 0.29369590 0.49344420
v -0.07966994 0.30661064 -0.02680833
v -0.02373379 -0.38132304 0.09474334
v -0.46873277 -0.09091863 -0.43768609
v -0.41811806 -0.30330014 -0.53098547
v 0.26855990 -0.16440476 -0.25464198
v 0.52204436 0.06601627 -0.15585968
v -0.27220684 0.32963499 0.45762095
v 0.60879356 -0.04982417 0.20281085
v 0.53491074 -0.01395940 -0.13737354
v -0.08090894 0.31921351 0.49212116
v -0.32711878 -0.40923274 -0.55212307
v -0.36182600 0.36068964 -0.27322692
v -0.10143921 0.29634523 0.10465568
v -0.43950826 -0.13215595 -0.24401094
v -0.13223253 0.27472135 0.28481695
v 0.38401201 0.33736143 0.00620572
v -0.08028277 -0.29262319 0.13839820
v -0.09421913 -0.05812731 -0.51161927
v -0.39617530 0.02994926 0.25693128
v -0.56064963 0.26210856 -0.32577232
v 0.64684582 0.12999114 0.37990901
v -0.01646609 -0.32508627 0.00101202
v -0.22700213 -0.25782901 -0.02734943
v -0.02594527 -0.21206485 -0.72790366
v 0.59106511 0.07725874 0.03361289
v 0.36207998 -0.08467095 0.49409682
v 0.01506946 0.26286501 -0.15890737
v -0.32193884 -0.13136934 -0.36016008
v -0.07199351 -0.20804407 0.24971403
v -0.44802162 -0.21327037 -0.57996219
v 0.41212481 -0.18672344 -0.14173593
v 0.48959407 0.26425773 0.27828979
v 0.60600549 -0.11708444 0.30351859
v 0.25789478 0.30860105 0.49073476
v 0.18481638 0.04011765 0.47134113
v -0.15203772 -0.18091154 0.26095167
v -0.41361362 -0.38714930 -0.68223768
v -0.33340141 -0.52757132 -0.70186859
v 0.43407547 -0.24047811 0.35842478
v -0.02511743 -0.32945031 0.23785558
v 0.14763857 0.09711273 -0.31786171
v -0.14649373 -0.30321828 0.47862262
v -0.44165242 0.34386140 -0.39335755
v 0.55186868 0.20201898 0.14716436
v 0.22254744 -0.31345978 -0.03421124
v -0.29183206 -0.22679512 -0.09673147
v -0.03501190 0.29444629 0.36019155
v -0.10607570 0.31475556 0.47335795
v 0.13342060 0.29571947 -0.14360610
v -0.19800696 -0.09750807 -0.63589227
v -0.14547095 -0.20566890 -0.18282413
v 0.61554807 -0.10374708 0.27035525
v -0.31669316 -0.57927179 -0.70560312
v -0.08366002 -0.26757917 -0.02793879
v -0.47375250 0.28724936 -0.44662187
v 0.57368976 0.07421706 0.44523278
v 0.48035505 -0.22214000 0.25901407
v 0.02476980 0.32223618 0.26357508
v -0.20116736 0.31770521 0.47292954
v -0.30194348 -0.06863135 0.39003026
v -0.25692043 -0.06617159 -0.58047277
v 0.39706358 -0.29204452 0.30485055
v -0.18241720 0.13532637 -0.28749493
v -0.43882534 -0.32481152 -0.65062946
v -0.23801935 -0.10607414 0.50493234
v 0.22008869 0.30427605 -0.08330376
v -0.37813547 -0.06822631 0.43305728
v -0.21986721 0.21152845 -0.25136936
v 0.59805095 0.01753310 0.43613905
v -0.56361163 0.07737227 -0.17060632
v -0.08737694 0.30800217 0.01187233
v 0.13496327 0.33550501 0.39551398
v 0.22575526 0.29040641 0.49493805
v 0.27877980 0.19468446 0.46052694
v -0.52954388 0.03915739 0.08098572
v 0.01645411 -0.15810125 -0.55675662
v -0.00129544 -0.27646604 -0.04630626
v -0.06873784 0.27821386 -0.09572954
v 0.62473851 -0.07845432 0.23252696
v -0.30126020 -0.11418639 -0.40376368
v -0.43674240 -0.16114038 -0.49087915
v 0.49212155 -0.17880622 -0.07760362
v -0.11170043 -0.15976897 0.34236339
v 0.33592200 -0.27604520 0.40191218
v -0.57050520 0.21001813 -0.19431528
v 0.49586624 0.13199912 0.46030459
v 0.02370050 0.24214792 -0.18981317
v 0.03974235 -0.16552220 -0.62190789
v -0.23801236 -0.23116009 0.13578953
v -0.53981507 -0.03618746 0.03830143
v -0.36598215 -0.32525244 -0.64674199
v 0.02124727 -0.13113274 -0.25166067
v 0.25854245 -0.04071755 -0.32172960
v 0.19974904 -0.26864994 -0.06295862
v -0.00360977 -0.23296566 0.48242763
v -0.25763050 0.32754087 0.47812212
v -0.30921119 -0.10178797 -0.44568333
v 0.36557874 -0.30311045 0.28933248
v -0.38711154 0.10422067 -0.53886920
v -0.55891186 0.12351365 -0.38333443
v 0.47402018 0.01046026 0.48953980
v 0.47056776 0.26096022 0.31595877
v -0.37041780 0.31212360 -0.16593334
v -0.22054352 -0.11504002 -0.55139923
v -0.00473484 -0.13720852 -0.61132628
v -0.32157728 0.28200427 0.14533369
v -0.13804388 -0.07991730 0.50007272
v -0.12447326 -0.17659438 -0.59957701
v -0.27568954 -0.06719294 0.30915320
v -0.12726372 -0.16782960 -0.65056276
v 0.48949856 0.21274012 0.35559621
v -0.08851115 0.16347671 -0.24485499
v 0.71735489 -0.00983289 0.27075967
v 0.15988196 -0.38378137 0.05333222
v 0.67888623 -0.04845564 0.33962527
v -0.12366044 -0.26369891 -0.01837889
v 0.19842561 0.32966250 0.46422300
v 0.08293723 0.27035594 -0.17331347
v 0.35864678 -0.24867930 0.44064522
v 0.17904694 -0.38510463 0.09448292
v -0.40275517 0.38406706 -0.22201926
v -0.28097469 -0.06476791 -0.53895026
v -0.51970547 0.14729647 -0.08593042
v 0.03553994 0.30829811 -0.05498095
v -0.27545324 -0.07095337 0.33717501
v 0.05254476 -0.02357779 -0.29533312
v -0.00694304 0.37947476 0.10535415
v -0.40169391 0.22529797 -0.50688827
v -0.25299948 0.00774589 0.50453389
v 0.01552729 -0.04945854 0.46361899
v -0.51107818 0.12971462 0.08555117
v -0.26549724 0.31104055 0.04524083
v 0.32432839 -0.32553101 0.23663107
v -0.39789751 -0.04649708 0.45538646
v 0.56749356 0.05429046 -0.07164616
v -0.43704340 -0.12562062 -0.35656208
v -0.00514790 0.35356367 0.49261087
v -0.53674656 -0.02864073 0.06192976
v 0.20035581 -0.22294834 -0.19028778
v 0.32506433 0.28207108 0.49147010
v 0.38062891 -0.29912049 0.09457672
v 0.22948217 -0.08632638 -0.30687422
v -0.12804390 0.29674807 0.02186905
v 0.05962111 -0.12956643 -0.25563630
v -0.09551207 -0.24195391 0.12029199
v -0.12131431 -0.01163937 0.50318414
v -0.53966975 0.04937058 0.05420401
v 0.18406172 0.11240398 0.46171442
v -0.40963981 -0.19938625 -0.00169488
v 0.53586107 0.22492748 0.04134565
v 0.55247337 0.20589849 0.09513915
v -0.20205179 0.25605655 0.37234592
v 0.37680385 -0.25176203 0.39308766
v 0.18853752 0.05330626 0.47369385
v -0.25071490 0.22182217 -0.32583526
v -0.05540819 0.26436341 -0.12467649
v -0.57940239 0.15591593 -0.22454183
v 0.03948522 -0.35511374 0.29780236
v -0.36813006 0.14803393 0.23999810
v 0.52905399 0.23698832 0.10615789
v 0.09998341 0.05689003 -0.31237650
v -0.21713243 -0.14795984 0.32459646
v -0.32163727 -0.42495704 -0.59317732
v -0.02032938 0.34243119 0.11876334
v 0.55227882 0.20581302 0.10040852
v -0.51914507 0.34445894 -0.32749894
v -0.48751017 -0.08888669 -0.12595238
v -0.36932254 -0.54089761 -0.64511955
v 0.36297211 0.30661687 -0.09454922
v -0.08676313 0.25391319 0.34663484
v 0.71790791 0.06609607 0.29302627
v 0.33634973 0.15273117 -0.29089785
v -0.42134652 -0.18622579 -0.04370819
v -0.36162990 0.19889919 -0.51977158
v -0.52623451 0.06976952 0.10401835
v 0.15937829 0.32524168 -0.06609084
v 0.36042178 0.31312558 0.35796529
v -0.09515620 -0.18172994 0.25841874
v -0.23294416 0.27030396 0.49552730
v 0.67944914 0.04683707 0.37423128
v -0.02485905 -0.17039998 -0.21875763
v 0.32253259 0.38267988 0.19693123
v 0.21764512 0.41913855 0.07368737
v -0.49103895 0.24906890 -0.46689078
v -0.24658118 -0.01290307 -0.57414258
v -0.58135682 0.23986942 -0.21249849
v 0.22914767 -0.35194895 0.01379667
v 0.32452980 -0.32676795 0.09251629
v -0.41483879 0.37921938 -0.20962596
v -0.46994364 0.37955213 -0.28559163
v -0.14141485 -0.28945008 0.44580609
v -0.57205325 0.26021942 -0.19248207
v -0.48444292 -0.05714083 -0.47487208
v 0.12251203 0.40108490 0.20237771
v -0.40024734 -0.48522428 -0.72850031
v 0.25382909 0.19815543 -0.28083843
v -0.11981601 -0.08459702 -0.68161190
v 0.53726131 -0.06236009 -0.11436532
v 0.10745239 -0.29850003 -0.76442510
v -0.24226007 -0.25118658 0.09497775
v 0.42753819 -0.24373052 -0.02472653
v -0.57502329 0.02770612 -0.32580271
v -0.38247612 0.07167276 0.26349580
v 0.31769726 0.33668166 -0.06209545
v -0.52867967 -0.01419685 -0.09826413
v 0.09754619 -0.28656125 -0.76994300
v 0.32233319 0.37592167 0.01671811
v -0.38696146 -0.07176654 0.44909221
v 0.54804206 -0.07887224 -0.08830711
v -0.04619677 -0.35956436 0.13847719
v 0.40250194 -0.05171302 0.49318314
v -0.22571379 0.05335460 0.35862392
v -0.42594013 -0.14527300 -0.13386701
v -0.30934769 -0.23409747 0.03187133
v 0.47199023 0.17879125 0.42762810
v 0.72227126 0.01803762 0.23886938
v 0.01470595 0.28782222 -0.11358399
v 0.16531590 0.40855742 0.21939959
v -0.45532364 0.34842321 -0.18429868
v 0.44102824 -0.03683949 -0.24003842
v -0.49439105 -0.05370518 -0.45344031
v 0.02960749 -0.37121245 0.01015235
v -0.51649410 0.25711447 -0.15126896
v -0.00307994 -0.36063164 0.22428639
v 0.26882499 -0.34892261 0.07166185
v -0.41384250 -0.16877605 -0.09841997
v 0.48208734 -0.22330691 0.20111822
v -0.22044906 0.20591065 -0.29552162
v 0.50774848 -0.09928972 -0.14244185
v 0.37666494 -0.00557354 -0.28859535
v -0.14135320 0.29177019 0.43794096
v 0.69246078 -0.05313816 0.24823327
v 0.64509368 0.15785486 0.35265219
v 0.43485284 0.19392893 0.44800612
v 0.01461498 -0.39770171 0.11654368
v 0.08486427 -0.24985719 -0.73101878
v 0.45106176 -0.04263844 -0.23028709
v 0.08698448 0.41574138 0.08696250
v 0.19857794 -0.20375225 -0.21204746
v 0.30016506 -0.07586265 -0.30429837
v 0.10424931 0.19141114 -0.27142161
v 0.34993234 0.03684179 -0.30368522
v -0.46471575 -0.38106734 -0.64493698
v -0.04207233 -0.31595749 0.41804409
v -0.33473957 0.19176738 0.41903499
v -0.24160625 0.28650808 0.49554378
v -0.16279919 0.28939337 0.09895163
v 0.26360863 0.40496558 0.03894321
v -0.45350361 -0.34915733 -0.60349435
v -0.31035540 0.27792352 0.16056885
v -0.12048952 0.27199709 -0.08646145
v 0.13228154 -0.39085028 0.14500710
v -0.34916452 0.22215876 0.43783644
v 0.03388096 -0.22649048 -0.62555689
v -0.38527885 0.34413067 -0.34085977
v 0.53272766 -0.14204028 -0.04582877
v -0.34285846 -0.10382233 0.42572334
v 0.22234741 0.20285961 0.45545602
v 0.09016521 -0.39773694 0.16353580
v -0.04053859 -0.25464284 0.35468510
v 0.11350269 0.30035719 -0.09551810
v 0.40215367 0.31830746 -0.04504934
v -0.21384129 -0.14495906 0.37711698
v 0.69351876 0.12616569 0.31612435
v -0.41597861 0.05699646 0.23645848
v 0.03726309 -0.39884180 0.07714102
v 0.58082646 0.16061540 0.40701917
v -0.31292427 0.06349839 0.29040143
v 0.36880139 0.34209937 0.25606403
v -0.09539148 0.26070943 0.31087109
v 0.29411688 0.26841846 0.49449962
v -0.11952037 0.05228016 -0.29631326
v -0.07506270 0.35676214 0.44723621
v 0.04258844 -0.40165576 0.09707348
v 0.12697797 -0.15240504 -0.25939435
v -0.20807171 0.22858670 0.32442737
v -0.34621415 0.32334054 -0.30072373
v -0.38075650 -0.18497673 -0.59600556
v -0.31230432 -0.57170945 -0.66959208
v -0.23606783 0.16468087 0.30213910
v 0.66585404 0.17066427 0.26914841
v -0.13006335 0.09138830 -0.28657877
v 0.03739185 0.33928877 0.27812287
v 0.53807700 0.11456756 -0.11911674
v -0.56440723 0.12161898 -0.47643763
v -0.07399511 -0.01061908 -0.28709251
v -0.48270601 0.21340367 -0.02879304
v -0.43215662 -0.08360413 0.19048470
v 0.04301168 0.38003623 0.47789899
v -0.45819187 0.00863833 0.19639213
v 0.46945453 0.20491584 -0.15416302
v 0.13172898 -0.28829861 -0.68669277
v -0.18055862 0.25923845 0.26630312
v 0.03044366 -0.14119825 -0.60169339
v -0.17946059 -0.07368293 -0.30197603
v -0.07102075 -0.27819389 0.38780591
v -0.46684781 -0.13873115 -0.06815988
v -0.24117012 -0.10730052 -0.31797126
v -0.25294015 0.14688347 0.27849609
v -0.28534606 0.29138067 0.39872935
v -0.45442009 0.20826173 0.12437172
v -0.53050905 0.33715504 -0.26897591
v 0.33677188 -0.32964373 0.19211394
v -0.46482190 -0.10912379 -0.38686422
v -0.24740826 -0.25277063 0.08285139
v 0.20690016 -0.23457389 -0.17462900
v 0.00576825 0.32224402 0.20804606
v 0.31846881 0.31668183 0.38575602
v 0.10916235 0.19456553 -0.27060869
v -0.12338992 -0.12321822 -0.69395453
v 0.32971653 0.12122872 0.49557531
v -0.26689050 -0.10164488 -0.37936169
v -0.27028286 0.18624072 -0.48667359
v -0.34395596 -0.09948280 0.42319292
v -0.17296997 0.12471926 -0.27545366
v 0.23179087 0.14962052 0.45982751
v 0.09675357 -0.37298989 0.00261095
v -0.23478717 0.13653301 0.32977730
v -0.44649836 0.30548152 -0.44153756
v 0.22912095 0.21289225 -0.26781040
v 0.00083422 -0.08686600 -0.56082320
v 0.01626535 -0.33114278 0.31663942
v 0.54030287 0.12531237 -0.10999065
v -0.38991797 -0.19733289 -0.05232913
v 0.29762116 0.12912078 -0.31159106
v -0.30081692 0.06768798 0.50239152
v -0.04252644 0.36576149 0.48914674
v -0.09958173 -0.16251971 0.36000368
v -0.00814499 -0.34694216 0.00750395
v 0.01663960 -0.18340290 -0.67230910
v 0.54033321 0.21925478 0.05055593
v 0.20522089 0.29087323 -0.15810113
v 0.53086323 -0.03846940 -0.13843773
v 0.29673672 0.31252778 0.42807475
v -0.31695583 -0.07727367 0.50501913
v 0.40451133 0.00653257 -0.27415651
v -0.05015230 0.11105135 0.48987988
v 0.44711450 -0.23427814 0.30237448
v -0.25462463 -0.08635586 -0.38954273
v 0.56444490 0.07957338 -0.06907650
v -0.17016475 -0.19384404 0.23437461
v 0.02246444 -0.12114005 0.46196157
v 0.46802044 0.18636900 -0.17879966
v -0.45602980 -0.24877822 -0.57104480
v 0.15128256 0.09280725 -0.31884786
v 0.58402705 0.11555991 0.42914245
v -0.14532870 0.27999216 -0.07473778
v 0.49253294 -0.11861375 -0.15327175
v -0.39762002 -0.02434585 0.45051721
v -0.18185900 -0.00835946 0.49379879
v 0.41601622 -0.26441899 0.32351080
v 0.13292500 0.40209642 0.21592952
v -0.11844521 -0.18453541 0.48834792
v -0.20083347 0.01116383 -0.53470010
v -0.45071721 -0.06518116 -0.51505846
v 0.30506447 0.38933614 0.08974408
v 0.35206655 0.16411570 0.49271545
v -0.35923916 -0.55979490 -0.62486190
v 0.58590931 0.08203857 -0.00251617
v 0.43965957 0.29937971 0.27874729
v -0.01940381 0.25789127 0.27132162
v 0.23402257 0.39778182 0.00300416
v -0.02025900 0.31971663 0.00799998
v 0.11247771 0.41493487 0.14681722
v 0.66468459 0.16722664 0.30843323
v -0.45861271 0.12103944 -0.53060138
v 0.35882238 -0.28178599 0.36199957
v 0.39947358 0.06197548 0.48402578
v 0.30233157 -0.22019152 -0.17473346
v -0.23322225 0.22058976 0.24242629
v -0.20913050 -0.18543252 0.49731407
v -0.36856377 -0.14262868 -0.33348554
v -0.15987989 0.27085575 0.38261330
v -0.30496421 -0.13337438 0.43635997
v -0.33105841 -0.20930031 -0.11042251
v -0.37209621 -0.34423509 -0.46994463
v 0.11369420 -0.31764254 0.39612275
v 0.36750415 -0.29283032 0.34642091
v -0.04367473 0.25979590 0.21926078
v -0.43600389 -0.12936613 0.16524373
v -0.05182777 -0.16356471 0.46178806
v -0.32247165 -0.22953065 0.11365041
v 0.03694488 -0.20534933 -0.19370775
v 0.11913420 -0.36746058 0.27411172
v 0.56476468 -0.11011183 -0.00311036
v -0.45745212 -0.29675987 -0.58499897
v 0.40524027 -0.28620377 0.28379440
v 0.50813651 0.08216058 -0.17407867
v 0.21715005 0.05420472 -0.32897913
v 0.19324361 0.08958723 0.46678880
v 0.33911183 -0.29536438 0.00742787
v -0.05124235 -0.23661324 0.28464103
v 0.23306665 0.26775250 -0.20208310
v -0.32269040 -0.12937547 -0.45862898
v 0.31566912 0.26270065 -0.15952356
v -0.36541936 0.29821208 0.07258297
v 0.42698014 -0.09679928 -0.22904791
v -0.52967393 0.27793476 -0.15992616
v 0.46678159 0.29117975 -0.00180462
v -0.11307121 -0.16352166 0.47288728
v 0.07794204 0.14102317 -0.28827339
v -0.33433014 0.07499344 0.49447143
v -0.34041974 -0.40101695 -0.64063692
v -0.23272744 0.11385126 0.31781852
v -0.43646762 0.38063705 -0.24052684
v -0.54764175 0.16204101 -0.47432226
v -0.34259552 0.05307271 0.44608590
v -0.40007144 0.27584285 -0.04535222
v 0.22076663 0.41423947 0.05004683
v 0.27250117 0.03085155 -0.32796308
v 0.56300294 0.04934975 -0.08335482
v 0.07778876 0.10984278 0.46362755
v 0.44523495 -0.07325239 0.47337383
v -0.40358323 0.31852913 -0.42387876
v 0.17128122 0.18936929 -0.28741539
v -0.28599274 -0.15564960 0.47797275
v 0.40204123 -0.27661163 0.04261981
v -0.24526016 -0.12174173 0.50524646
v -0.07010198 -0.26866585 0.38424754
v -0.24382639 0.32760000 0.44884336
v -0.21211953 -0.25811499 -0.03540593
v 0.32392594 -0.33510408 0.18838458
v -0.52898300 0.34154588 -0.23146327
v 0.17249468 -0.38777018 0.09042061
v -0.49561581 -0.06578407 -0.13913038
v -0.30549288 -0.13081296 0.43267375
v 0.31218135 -0.23016004 -0.13588896
v 0.35456717 0.35293606 0.02981059
v -0.04302850 -0.18808350 -0.73304868
v 0.57253110 -0.10784484 0.12307855
v -0.07453173 -0.25401253 -0.09205202
v 0.00054209 0.28087673 0.33790302
v -0.44244674 0.02001685 0.21063285
v -0.44872963 -0.11378542 -0.41656768
v -0.26194555 0.26656044 0.18312435
v 0.13267592 0.30189437 -0.08466502
v 0.22605981 -0.28632954 -0.04675324
v -0.23778903 0.09219125 -0.47987592
v -0.44727388 0.08164605 -0.53515983
v 0.15335543 0.38653916 0.31714466
v 0.13532399 0.30323291 0.49428350
v 0.35277808 -0.08875895 0.49538898
v -0.28092614 -0.23684484 0.12086724
v -0.01934625 -0.03851652 0.46414426
v 0.28252080 0.36385387 0.35758141
v 0.35654205 -0.19882351 -0.17606579
v -0.16452554 -0.22232953 0.42818126
v -0.30453295 -0.14293794 0.45808396
v -0.47192630 -0.14929254 -0.01974542
v -0.54780608 0.29568598 -0.32932979
v 0.19229399 -0.07896887 0.45814508
v -0.33612028 0.08634628 0.27840504
v -0.20539448 -0.15063424 0.39293283
v -0.43010116 0.38270894 -0.24132288
v -0.06447560 0.26806396 0.21499848
v -0.32267746 -0.24541785 -0.49724144
v 0.36049578 -0.20502625 -0.15818848
v -0.47619385 0.19705640 -0.09215637
v 0.22189234 0.39705414 -0.00888147
v -0.13853186 -0.11558694 -0.28395692
v -0.50529206 -0.09193041 -0.32472500
v -0.37881818 0.26847854 -0.14925034
v 0.02097953 -0.12945196 -0.59573597
v -0.03432812 0.30316925 0.13485238
v -0.15173756 -0.25219533 0.05025021
v -0.42900866 0.26750937 0.00079827
v 0.02586216 -0.19591503 -0.19773920
v -0.00936981 -0.16432339 -0.22530307
v 0.68617648 -0.00486751 0.18139061
v 0.27433830 0.20868324 -0.27104214
v -0.43496835 0.36042300 -0.18367000
v -0.15952514 0.22380190 0.49552253
v 0.48676237 0.28005716 0.14654748
v -0.12090872 -0.25339282 -0.06700627
v -0.06364656 0.30907676 -0.01490081
v 0.15339242 -0.26775914 0.49888203
v 0.51844758 -0.17363900 0.25270337
v 0.22542927 0.38007087 0.34880233
v -0.43931597 -0.45728922 -0.71510935
v -0.42275131 -0.48818770 -0.73585451
v -0.36314505 -0.20456010 0.14540847
v -0.26965612 -0.23525940 -0.07731439
v -0.15662007 -0.10025004 -0.47514942
v 0.54979163 0.20034583 0.31619418
v -0.59558672 0.09517353 -0.27598706
v 0.28820750 0.34305149 0.38377917
v -0.10321863 -0.18641043 -0.59358442
v 0.16068423 -0.38307747 0.05177068
v -0.32136586 0.25017834 -0.45053250
v -0.31780711 -0.52707821 -0.63847071
v -0.42663893 0.34541976 -0.16812982
v 0.37529385 0.33805379 0.01243998
v 0.39685747 -0.28914985 0.27047348
v 0.66157955 0.16785507 0.31481168
v -0.55633557 0.20440942 -0.34578234
v 0.01456601 0.29832479 -0.09170654
v 0.53171772 0.22894865 0.20389551
v -0.01294784 -0.03257760 -0.27732450
v 0.15573645 0.28446558 0.49250051
v -0.01744984 0.35959652 0.07100875
v -0.54334319 0.16607541 -0.18010044
v 0.06694356 -0.19709650 -0.58833760
v 0.59618849 0.14388843 0.20861916
v -0.27770856 0.04869267 0.50316399
v -0.14646269 -0.18643573 0.24740979
v 0.56420451 0.04275674 -0.08196919
v 0.10223421 -0.37946826 0.25659192
v 0.20661581 0.41676047 0.17954190
v -0.23438050 -0.20959057 -0.17801988
v 0.35638225 0.36965168 0.16538490
v 0.12595338 0.40439898 0.25702205
v -0.58169639 0.23979777 -0.21394747
v 0.10518774 -0.25595370 0.50155360
v -0.39720705 -0.47250378 -0.62417150
v 0.01548456 -0.09754864 0.46309167
v -0.27057406 -0.08386119 -0.45723468
v -0.45684400 -0.03887957 -0.51707953
v 0.55951446 0.20152521 0.38179022
v -0.25049591 0.20661327 0.49672139
v -0.43801802 0.37712002 -0.32856596
v 0.14273381 -0.07946770 -0.30333570
v -0.44573539 0.22866793 0.10973123
v -0.30744112 0.03999742 0.41288495
v 0.00381767 -0.08576826 -0.56695884
v -0.33177468 -0.14196663 -0.43132135
v 0.12340482 0.00887159 -0.31544018
v 0.49559477 0.25548393 0.28628963
v -0.23497020 -0.24887462 0.10028059
v 0.44084823 0.31641439 0.05075645
v 0.31480122 0.24609515 -0.19523734
v 0.09132446 -0.25851667 -0.11399766
v -0.50686514 0.20377594 -0.48686290
v -0.24347241 -0.10853476 -0.31743494
v -0.33214894 0.26151806 0.17098528
v 0.18110721 0.36141565 0.37227562
v -0.46198237 0.23969528 0.04260419
v -0.46834207 0.35300496 -0.37387297
v -0.49465907 -0.06361351 -0.40737674
v -0.02237334 -0.37887788 0.07072594
v 0.49522099 -0.12485168 0.37228629
v 0.45187658 -0.25968447 0.17252415
v 0.50593108 0.19820973 0.36126542
v 0.18394847 0.30494624 -0.11216214
v -0.05150598 0.09776822 -0.26960796
v -0.50961643 -0.08820324 -0.06125945
v 0.28215396 -0.34206477 0.03674632
v 0.07343684 -0.38008258 0.25628737
v 0.14660770 -0.16040146 0.45729432
v 0.18754527 0.25777388 -0.22187597
v 0.05575006 -0.34355843 0.33495981
v -0.58370614 0.10015700 -0.32268012
v 0.13395305 -0.28787142 0.46616504
v 0.32292843 -0.01438890 -0.31257442
v 0.58246779 -0.08905711 0.13070756
v 0.55136585 0.10484809 -0.09218393
v -0.29510328 0.22741631 -0.45362732
v -0.47258979 0.23707952 -0.48535240
v 0.31366828 0.29922229 0.48726887
v -0.18316853 0.22231466 -0.17985442
v 0.25620869 0.40434998 0.26336858
v 0.03116667 -0.33455449 0.32771629
v -0.27605104 0.16422278 -0.51762271
v 0.24837363 -0.03454209 -0.32364798
v 0.57896620 0.20184739 0.30240178
v -0.38514778 -0.19071728 -0.08201659
v -0.25930384 0.21245615 -0.35191211
v -0.17765196 -0.15965097 0.39657685
v -0.03449833 -0.04247531 0.46454671
v -0.22822095 0.19335020 0.32816714
v 0.64039910 -0.10349605 0.31615293
v -0.47386560 0.16255778 -0.51821089
v 0.03165618 0.14099321 -0.26629481
v -0.01380483 0.26917619 -0.13313194
v 0.19024955 0.31367016 -0.06873184
v -0.22866867 0.24976595 -0.14691669
v 0.24989633 -0.15273209 -0.26385835
v -0.18015982 0.11804752 -0.30067009
v -0.35821956 -0.32646438 -0.47034594
v -0.36241928 -0.10643546 0.44287980
v 0.39216730 -0.26664212 0.00158039
v -0.03407121 0.37798783 0.48435098
v 0.12059522 0.25897050 -0.20841493
v 0.24215727 -0.28441578 0.41421351
v 0.34503877 0.24729995 -0.18548699
v 0.07533649 0.41068041 0.12818097
v -0.46211100 0.37396231 -0.26871720
v -0.30917886 -0.09837618 0.40705061
v -0.36675522 -0.54024464 -0.56260258
v 0.10306500 -0.30761141 -0.69817299
v 0.69358003 -0.04961157 0.29536441
v -0.56442130 0.24744187 -0.18093915
v -0.40534958 -0.20223296 0.00702231
v -0.02510622 0.28392020 0.17880972
v -0.17072695 0.00758625 -0.31865060
v 0.14276387 -0.15716475 -0.25956228
v -0.46300215 0.23372969 0.07317419
v 0.16535689 -0.24609627 -0.15951186
v -0.10002160 -0.26012522 -0.05191336
v -0.14857213 -0.00060749 0.49371582
v 0.02533319 -0.31568035 -0.02268235
v -0.23404634 -0.14109086 0.30616817
v -0.41233528 0.14353567 0.21225218
v -0.08605282 0.22419932 -0.17118944
v -0.16610369 0.12522291 -0.26846588
v -0.43175879 -0.13758923 -0.27735332
v -0.00649945 0.08501779 -0.27442482
v 0.59051031 0.07228868 0.02301320
v -0.09670592 -0.14795820 -0.24373361
v 0.52436072 0.19317256 -0.06898277
v -0.17855063 -0.00007442 -0.49482566
v -0.19728790 -0.19738741 0.48888984
v -0.16352636 -0.25385541 -0.04362352
v 0.29915667 0.31106964 0.42100406
v -0.13242838 -0.02474093 -0.30207828
v -0.45466262 -0.42717004 -0.68753690
v -0.49578556 -0.04529537 -0.47331733
v -0.02807504 -0.29898569 -0.00211865
v 0.27274817 -0.19887769 0.49740228
v -0.20240217 0.04858335 -0.37380177
v 0.41500902 0.30488175 -0.05258376
v 0.51452535 -0.12549195 0.36191258
v 0.27504790 -0.33964899 0.21275856
v 0.00730701 0.08542613 -0.27864480
v -0.00395056 -0.30118805 0.35751987
v -0.16769536 -0.03800023 -0.46012628
v 0.10066930 0.40743718 0.16473131
v 0.54556918 -0.14069729 0.23459117
v -0.05742462 -0.28697246 0.20802210
v -0.01296732 -0.23119429 -0.70404375
v 0.20051415 0.05349521 0.48677358
v 0.37442330 -0.07893117 0.49351823
v -0.47388247 0.00147485 0.18208149
v 0.07994661 -0.25302380 -0.76235187
v -0.25501841 0.31402385 0.04881572
v -0.18661760 0.25345248 0.27122113
v -0.26180142 -0.10255546 0.35067254
v -0.33817941 0.24992827 0.18163979
v -0.04106366 -0.31282574 0.23209268
v 0.28071329 -0.23334476 -0.16458501
v 0.70012689 0.13173075 0.24749893
v -0.29564393 -0.23421378 0.11796705
v 0.31390846 0.36515215 0.27279520
v 0.29298204 -0.31463268 -0.00830651
v 0.18815890 0.42628637 0.12433429
v 0.60492367 -0.10093569 0.26766145
v 0.15290613 0.33366722 0.49066499
v 0.57349080 -0.10674494 0.09363843
v -0.19096169 -0.15483598 0.33780211
v 0.59299839 -0.03059877 0.01587486
v 0.01283634 0.36191997 0.16592221
v -0.32069424 0.30419761 -0.25865600
v -0.04198884 0.30213752 -0.04826811
v 0.10629773 0.35789323 0.43414345
v -0.33037218 -0.14453791 -0.24506581
v 0.03750744 -0.19452420 -0.77443516
v 0.59072268 0.18930349 0.37483403
v -0.43303332 -0.30765375 -0.56822973
v -0.49029231 -0.12981951 0.02324955
v 0.30151352 0.11248911 0.49435928
v 0.00740803 -0.20028396 0.46015486
v -0.36087692 -0.04414098 -0.52608150
v 0.40911487 -0.18879534 -0.14029339
v 0.38215390 -0.06956360 -0.27194488
v 0.35207874 -0.23622835 -0.09861591
v -0.36525181 -0.11584172 0.45817411
v -0.16901524 -0.10299031 0.50274789
v -0.52967793 0.04180718 0.08172612
v -0.32691190 -0.15250126 0.21709007
v 0.15591069 0.34246677 0.44023785
v -0.16311093 -0.16430299 0.32838446
v 0.22668388 0.40993395 0.26645601
v 0.35421932 0.28303900 -0.12163807
v 0.42750761 -0.24937104 0.32790557
v -0.12946253 0.28751129 0.17256500
v 0.54478514 0.21799462 0.08831464
v -0.17366113 -0.03073244 -0.45654693
v -0.54890394 0.01818928 -0.16267887
v -0.47900051 0.12875612 -0.52444208
v -0.11748895 -0.18384372 -0.21278109
v 0.02077164 0.37020022 0.16934261
v 0.06216461 0.40552798 0.02394622
v 0.22662137 0.40793699 0.18363950
v -0.34641430 -0.37682486 -0.49857646
v -0.02052479 0.34150469 0.37631381
v 0.15270659 0.40899074 0.00281190
v -0.47800654 0.10262317 0.15699357
v -0.18163031 -0.09513045 -0.46650654
v -0.33832783 0.06844021 0.46408996
v 0.28520736 0.16215301 -0.30163875
v -0.06281043 -0.14285244 -0.23696083
v 0.51054561 0.00711998 -0.17239648
v 0.34641969 -0.25567850 -0.07832015
v -0.35440037 -0.27426377 -0.61932838
v 0.19799358 0.27511388 -0.19619386
v 0.07935460 0.02651425 0.46380299
v -0.11745236 0.01648861 -0.30057883
v -0.23706827 0.09018695 0.40385908
v -0.03961856 0.25000152 0.26016590
v -0.18545969 -0.13950156 -0.27610597
v 0.57938534 -0.09008309 0.15351698
v 0.48389554 -0.22245802 0.22694184
v 0.14162761 -0.39127767 0.08254223
v -0.40557092 -0.40966734 -0.57645810
v 0.18851054 -0.36425611 0.25669250
v 0.52526903 -0.03093309 -0.14948715
v -0.08995194 0.16150270 -0.24692436
v 0.33354008 -0.19502947 -0.20021069
v -0.14171386 0.20496251 -0.20459646
v 0.45030206 -0.23443033 -0.01264950
v 0.39897147 0.27172947 0.38168421
v -0.04258457 -0.35560924 0.16068108
v 0.19960032 0.41115060 0.21526250
v 0.23667961 -0.32424900 0.34027591
v 0.07804790 0.34929824 0.39123604
v 0.44287667 -0.25896591 0.08836971
v 0.55260825 0.00939926 -0.11041317
v 0.48243833 -0.17349176 0.32584083
v -0.48728511 0.34933788 -0.36429775
v -0.39017791 -0.16921349 -0.42561159
v 0.23377012 -0.31232008 -0.03298424
v -0.40705985 -0.00682625 0.46922398
v -0.02792714 0.06886286 -0.27568606
v -0.38039511 -0.16055079 -0.58182847
v -0.44530305 -0.11589018 -0.41627923
v -0.45363185 -0.15781051 -0.04433323
v 0.19909003 -0.34501940 0.30241492
v 0.07773542 -0.03511127 0.46283504
v -0.41178724 0.30277121 -0.44630989
v -0.06489718 -0.15910287 0.46167132
v 0.60044092 0.05280660 0.11738867
v -0.55167454 -0.03745727 -0.28057423
v 0.30777809 -0.33154893 0.06719828
v 0.01437780 -0.36143580 0.25010923
v -0.26564354 0.21353717 -0.35792655
v -0.51255393 -0.09889898 -0.28836989
v -0.10790449 -0.05958273 -0.63916588
v -0.37987590 -0.03216844 0.42742616
v 0.45842302 0.23364215 0.38030753
v -0.54550064 0.15667896 -0.48015523
v -0.27086487 -0.15332277 -0.23919927
v 0.05877284 0.07288368 0.46428218
v 0.51250201 -0.12624687 0.34630778
v -0.24938041 0.26005438 0.19248420
v 0.13644779 0.41902128 0.14911109
v 0.45662731 -0.22321211 0.29714990
v -0.10796662 -0.18234809 -0.64805621
v -0.00656183 -0.16845463 -0.67515725
v -0.07464391 -0.24322912 0.19691029
v 0.12524365 -0.38145730 0.03001362
v -0.03843056 -0.11453140 -0.52451766
v 0.60169417 0.02824376 0.12071543
v -0.36671871 0.30118477 -0.41749644
v -0.05052785 -0.27551362 0.24234526
v -0.47312564 0.29296434 -0.14750685
v -0.54928863 0.19531301 -0.43377608
v 0.49790663 -0.17482404 -0.07428837
v -0.51369578 -0.09762537 -0.00765876
v -0.16744609 -0.18279691 0.50356954
v -0.01106098 -0.27677360 -0.04126108
v 0.62734646 0.14326316 0.38726312
v 0.47943115 0.28620565 0.00690264
v 0.49819279 0.26639003 0.16990647
v -0.25509369 -0.13373040 0.40889969
v -0.39564720 -0.05412740 0.45459667
v 0.20144662 0.12403165 0.46105602
v -0.42874604 -0.15986288 -0.45467451
v -0.03616345 -0.07964344 0.46316266
v 0.43420792 -0.21106903 -0.09022590
v 0.16766213 0.25297716 -0.22636427
v 0.29234886 0.40135831 0.15167521
v -0.15937991 -0.07952943 -0.29745889
v 0.07022899 0.41284606 0.05041300
v 0.71013683 -0.00677481 0.21385840
v -0.35088161 0.25493407 0.46289411
v 0.41049802 0.26812997 0.40754411
v 0.62494540 0.13895674 0.19735700
v 0.37126273 0.23299529 -0.20339328
v -0.26357880 0.11488120 0.50230026
v -0.58452070 0.03921448 -0.29149485
v -0.42089441 -0.28449339 -0.47601169
v 0.59775782 -0.07410090 0.40475607
v -0.21560541 0.03294663 -0.42059517
v -0.27147377 -0.06982874 -0.54759586
v 0.60079867 0.20342863 0.31560698
v -0.51976049 -0.08325004 -0.31033689
v -0.09504540 0.32083628 0.43309546
v 0.51644683 -0.09499521 0.43465260
v 0.47741860 -0.22578336 0.25431576
v -0.37286329 -0.53002411 -0.58534545
v 0.41550630 0.16270426 -0.24298656
v -0.18911265 0.29219404 0.49322623
v 0.55271804 0.18493950 0.00148927
v 0.27930549 0.22726974 -0.25213730
v -0.18765275 0.21847585 0.49534294
v -0.56498504 0.23007323 -0.31788832
v -0.18128589 -0.24803822 0.47541478
v -0.44644624 0.21736087 0.12366093
v -0.39371842 0.38328436 -0.26005173
v -0.46065322 -0.32593769 -0.60135001
v 0.41935214 -0.27466148 0.28765386
v -0.35712320 -0.56178463 -0.74623126
v 0.31842220 -0.10941536 0.49701199
v 0.04888527 -0.30942342 0.44362152
v -0.05846481 0.07393023 -0.27909160
v -0.24684145 -0.11362752 -0.29488108
v 0.04442796 -0.34450054 -0.01622763
v -0.28570741 0.26027584 -0.13205266
v -0.33561870 0.25723484 -0.45284456
v -0.32788110 -0.12935372 0.44485900
v -0.51307541 -0.00914438 0.12519211
v 0.28336790 0.29436052 -0.10934106
v -0.27526188 0.15406160 0.39944911
v -0.02132817 -0.28718901 0.37845361
v 0.44434360 0.06488271 -0.24471952
v 0.19882281 0.28718558 -0.17176038
v 0.46571362 0.30043316 0.09986044
v 0.29840723 0.39790824 0.14337987
v -0.48909497 0.20469689 0.04553503
v 0.38404965 0.20283699 -0.23709752
v -0.58748722 0.03788071 -0.23762143
v -0.50837469 -0.02871582 -0.46404853
v 0.00590540 -0.14372474 0.46205571
v -0.01706445 -0.06351137 -0.26995829
v -0.45958236 -0.14611855 -0.06982632
v -0.03670767 0.32251659 0.08564301
v 0.23595989 -0.27731588 0.46152055
v 0.41053346 0.31241155 0.29399672
v 0.04926597 -0.39650410 0.05651379
v -0.28912288 -0.15613022 0.48387963
v -0.47764698 0.24407162 -0.14053023
v -0.06802973 -0.22602345 0.36827871
v -0.31444222 -0.13577734 -0.32359177
v 0.00897927 -0.36995897 0.01811041
v 0.09633227 -0.25281319 -0.71203953
v -0.15407367 -0.15551157 -0.56128848
v -0.43804231 0.00618614 -0.53087616
v 0.30577391 -0.33055013 0.22025532
v 0.57418877 -0.07819825 0.21350943
v 0.52132380 -0.18547124 0.21680996
v 0.53578335 -0.16366288 0.22522138
v 0.51695907 -0.16311786 -0.03509472
v 0.58481461 0.13682966 0.19107646
v -0.24780519 0.18904544 0.36905310
v -0.28038201 0.19258253 -0.50888699
v -0.06780418 -0.22817111 0.48437873
v 0.02497255 0.15272470 0.46379593
v -0.32219386 0.16153662 0.49794602
v 0.50529826 -0.17364864 -0.05365181
v 0.32176015 0.23105676 -0.22711851
v 0.15223062 -0.06795426 0.45990825
v -0.31453401 -0.55243933 -0.64083624
v 0.03704348 0.17565647 0.46214163
v 0.06764986 0.22293250 0.45782554
v 0.05568347 -0.00763113 0.46310905
v 0.28236672 -0.17909752 0.49163300
v -0.00957400 -0.23864113 0.49084902
v 0.47216803 0.29462492 0.08629168
v 0.52739978 0.23892458 0.13953125
v -0.18502699 -0.23290022 0.47939169
v -0.27797720 -0.06088285 0.34184602
v 0.52217191 0.00859168 -0.15684125
v 0.61992973 0.19261810 0.32428834
v -0.42774808 -0.14913088 0.14871243
v 0.09908871 -0.32529271 -0.03561481
v -0.04427343 -0.30275047 0.02046646
v -0.33334222 -0.59196603 -0.68755656
v 0.59024394 -0.05454078 0.16708337
v -0.25484222 0.24403387 -0.28369939
v -0.34134254 -0.38964748 -0.63962102
v 0.11850020 -0.24696556 -0.14734823
v -0.22136864 0.00084242 -0.56686062
v -0.12755659 -0.04370604 -0.62739694
v 0.58442938 -0.09013071 0.40065593
v -0.47283855 -0.10337738 -0.36600828
v 0.07186500 -0.18804222 -0.58260441
v 0.16782975 -0.31216377 0.40247369
v -0.03032206 0.24731757 0.27692774
v -0.16072384 -0.08026789 0.50270528
v 0.09915346 -0.31571752 0.39769191
v -0.23990288 0.10967886 -0.42484263
v -0.31824502 -0.37257755 -0.58559322
v 0.19406296 -0.11227454 -0.29262820
v 0.43569380 0.30216917 0.22636743
v 0.16127726 -0.35631773 -0.01192675
v -0.25485659 0.23332173 -0.16986623
v 0.04131309 -0.21315828 -0.18860103
v 0.58195853 -0.08585719 0.07253942
v 0.69688135 0.09788238 0.33993599
v 0.34972662 0.17836334 -0.26498336
v 0.05237275 -0.30568358 -0.03295178
v 0.53327006 0.01661261 -0.14206919
v 0.58017272 -0.09879614 0.05010549
v 0.51567668 0.23918101 -0.01622680
v 0.72370809 0.01616613 0.25034514
v 0.26769787 -0.18958288 0.49145231
v 0.37460509 -0.19490592 0.45787433
v 0.33333406 -0.32244486 0.07457438
v 0.19067489 0.42912373 0.14452839
v 0.36990964 -0.29160464 0.03140238
v -0.06652892 -0.31149238 0.41347256
v 0.18048187 0.30864739 -0.06990589
v 0.34187791 0.28118473 -0.12675765
v 0.46834615 -0.18017207 0.34886286
v -0.55282420 0.09079760 0.02152647
v 0.20803927 -0.32988852 0.36202323
v -0.34587058 0.27802542 -0.39769566
v 0.02367207 -0.31463534 0.43926823
v 0.71142316 -0.01134407 0.29338709
v -0.42942315 -0.20975134 -0.60158712
v 0.51441550 0.10351278 0.46417397
v -0.48208597 -0.10876223 0.10638033
v -0.29243454 0.16245577 0.40373039
v -0.24325421 0.10465983 -0.49131620
v 0.36844930 -0.10986810 0.49184963
v 0.54890281 -0.01195689 0.45918161
v -0.27596620 0.12292774 0.41802254
v -0.36118409 -0.23825650 -0.44578311
v 0.03893449 0.27224898 -0.15259655
v -0.29441431 -0.00802149 0.38359129
v 0.40684485 -0.16667528 -0.18766288
v -0.36579949 0.28441101 -0.15985091
v -0.51653600 0.00988730 0.11996430
v -0.52869743 0.05859039 -0.13024613
v 0.37800798 0.10575417 -0.28513166
v -0.55713707 -0.02950169 -0.28220049
v -0.31826943 0.24465990 -0.15890156
v 0.68221480 -0.00791557 0.36426646
v -0.54568380 -0.01225791 0.03592198
v 0.49641848 0.19141304 0.38981485
v 0.17216551 0.34837705 -0.05859614
v -0.48465413 -0.08353585 -0.39598829
v -0.07736710 -0.31924430 0.42908302
v -0.11998994 0.29388160 0.12446482
v -0.49948266 -0.10771844 -0.28964099
v -0.31016037 0.22494771 -0.50025320
v 0.38974059 -0.20374136 0.42902601
v -0.20408401 -0.17415670 0.25829625
v -0.32760513 -0.14427005 -0.26588768
v -0.51503587 0.17094719 -0.04786606
v 0.12261213 0.40167704 0.23574701
v -0.14920053 -0.19067968 0.24022733
v -0.00689861 0.27381620 0.28107548

