# https://github.com/mikedh/trimesh
v -0.22992468 -0.02660428 -0.61736155
v -0.54355067 -0.14001051 -0.22683588
v 0.24247144 -0.29484460 -0.04824134
v 0.50310135 -0.19804150 -0.26119822
v 0.48794580 -0.01210006 0.00260681
v 0.70307636 0.08684512 -0.04221856
v -0.59885520 0.11613224 -0.39704692
v -0.12717722 -0.27591628 0.25388253
v -0.31663260 0.36329824 0.13170512
v 0.56580466 -0.08494109 0.14928323
v -0.40968096 -0.24444723 -0.25418025
v 0.83135557 0.12022921 0.01793601
v -0.48311839 -0.15749326 -0.11368395
v -0.15202494 -0.17312989 -0.59788942
v -0.58666772 0.02992546 -0.34039274
v 0.60056096 0.00783975 0.05585736
v 0.27485809 0.11332187 0.30939612
v -0.52441055 -0.15939867 -0.12097996
v -0.32684904 0.07042394 -0.54536438
v 0.00017429 0.02771193 0.41736931
v -0.65708476 0.13364960 -0.01833803
v -0.48040098 0.27431673 0.23094986
v 0.68129534 0.05716985 -0.05811733
v 0.11958371 -0.09573995 -0.38401842
v 0.08484847 -0.09256888 -0.19510600
v -0.25279653 -0.06165875 0.26127756
v 0.51183945 -0.06969167 -0.27535754
v -0.24987857 0.02688733 -0.48802045
v -0.43755540 -0.21914923 -0.03396015
v -0.31653166 0.16753006 -0.41115338
v 0.43240482 -0.04326566 0.33286098
v 0.86640054 0.07690265 -0.09553196
v -0.15685943 -0.24324673 -0.58820117
v -0.03324135 -0.14857271 -0.57201147
v 0.77991956 0.03591719 0.04698929
v -0.64232004 0.18579999 0.18741308
v 0.14848325 0.04605089 -0.51074159
v 0.25885850 0.14503983 0.45258105
v 0.39579737 0.23002848 0.32714081
v -0.26329702 0.01208528 -0.56221420
v -0.01405405 -0.01692088 -0.50248396
v 0.55870134 -0.09323740 0.08168568
v 0.47126293 0.26573518 0.28166437
v 0.21488576 -0.26314896 -0.40593129
v -0.41697881 -0.12725005 -0.33652258
v 0.26355588 -0.18814257 -0.40968350
v -0.69234085 0.08318971 0.19321229
v 0.53806072 0.20061296 0.07134905
v -0.43872184 0.18578883 0.30849838
v 0.52894706 0.24569763 0.12195796
v -0.62669438 -0.03083944 0.10906027
v -0.42858183 -0.20374162 0.27904260
v -0.50947249 -0.09096228 0.09780358
v -0.29815382 0.15655613 0.20298174
v -0.36231318 -0.23907015 -0.04288182
v 0.34918815 -0.08497074 -0.22226678
v 0.11876188 -0.30716425 -0.12063138
v 0.20869561 -0.03588195 -0.52756643
v -0.67628330 0.05733691 0.18513504
v 0.34053892 0.03920881 -0.28149855
v -0.37250724 0.13541310 0.37895405
v -0.14468649 0.28871280 0.41354305
v 0.09201887 0.29961610 0.38619095
v 0.53037202 0.16416442 0.29530180
v 0.50451350 -0.18151882 -0.10338668
v 0.34132105 -0.22667232 0.28905231
v 0.63829261 0.14896011 -0.04391840
v 0.22448552 -0.19674437 0.32982209
v -0.16249083 -0.11529231 -0.54663569
v 0.55851245 -0.00101360 0.20341597
v -0.60322672 0.13455051 0.23744811
v -0.43681711 0.28028142 0.20126110
v -0.18986912 -0.02358808 0.44123527
v 0.31908712 0.02754980 0.28102612
v 0.34387517 -0.28355935 0.28834456
v 0.41270438 -0.25181320 0.28729817
v -0.02095282 0.16605255 0.47143832
v 0.43047917 -0.27660382 -0.01088517
v -0.63507122 0.16078828 0.03111865
v 0.35421634 -0.08046613 -0.06422936
v 0.56124032 -0.06283674 -0.24721308
v 0.69716406 0.15043841 0.02075927
v 0.61981249 0.12059106 -0.02688904
v -0.02843000 -0.34009719 0.02565257
v -0.29516104 0.36119422 0.16912392
v -0.34456685 0.14216159 -0.42533445
v -0.19493793 0.30553424 0.39480534
v -0.52080566 0.29879773 0.18117660
v 0.46592823 -0.19106866 -0.28031170
v -0.28216931 0.23157577 0.38463116
v -0.50811189 -0.11469150 0.04049355
v 0.64017391 0.15909702 0.12992682
v 0.55584407 0.25722095 0.21694918
v -0.19032171 -0.09123628 0.32960010
v -0.48459956 0.02307037 -0.23992980
v -0.59514356 -0.02345500 -0.08757732
v 0.21863215 0.17385077 0.33404225
v 0.29295743 -0.12636441 0.28320432
v 0.15249899 -0.31026098 0.07237162
v 0.49197653 0.24625634 0.22894955
v 0.87001932 0.27122763 0.07134421
v 0.00459177 0.35756868 0.25175488
v -0.09843587 0.13788167 0.31586242
v -0.75806421 0.18321709 -0.16482751
v 0.27962160 -0.06937191 -0.15732740
v -0.34066057 0.14475632 -0.14774077
v -0.30123931 0.36578771 0.08422296
v 0.38505659 0.03295094 -0.11315742
v -0.66836882 0.11652900 -0.03430189
v -0.58429176 0.00330858 -0.08546633
v 0.00303910 -0.07636918 -0.60729712
v -0.09241880 -0.19095550 -0.38327384
v 0.57502639 -0.17780231 -0.23836897
v -0.14303143 0.10037277 0.47539708
v 0.78840208 -0.03318456 -0.16486041
v 0.67235094 -0.02293153 -0.07671434
v 0.27440599 0.13197380 0.45641151
v -0.18286705 -0.11088252 0.45001623
v 0.48232254 -0.08827323 0.25578207
v 0.25559586 0.19857499 0.13708231
v -0.50324905 0.07084044 -0.41597849
v 0.55475831 -0.04655778 0.28185612
v -0.44367638 -0.05524415 0.20660952
v -0.35706359 0.00886048 -0.48384613
v -0.56205899 0.20424601 0.25951552
v 0.23120938 -0.08159457 0.47281814
v 0.52826524 -0.13242325 0.22014964
v 0.06394839 0.29158869 0.20247485
v 0.56939131 0.07027854 0.04998388
v -0.66663617 0.15353721 0.02284769
v 0.51823175 -0.16865215 0.14622867
v -0.25210649 0.40836853 0.27814025
v 0.64831781 -0.13875462 -0.09778428
v 0.53931350 0.16558109 0.28858453
v -0.61402589 0.01033952 -0.38738608
v 0.23662406 -0.20211005 0.12697253
v 0.59487832 0.06044869 0.07708882
v 0.73049617 -0.03357553 -0.07116373
v 0.04774719 -0.03563768 0.40572244
v 0.61193419 0.12845609 0.29010576
v -0.23853132 -0.09458752 0.32952788
v -0.60510004 -0.05780401 -0.21703726
v 0.25926962 -0.16538551 0.35184023
v 0.16248430 0.18089321 0.34163478
v 0.22375998 -0.05309484 -0.41596249
v -0.71100920 0.05945921 -0.18889502
v 0.47484186 0.19605534 -0.06735045
v 0.70334792 0.26818606 0.11475065
v 0.01677916 0.38157329 0.22188057
v -0.11757166 0.04684710 0.45699227
v -0.24699587 0.06535007 0.42064789
v -0.21668909 0.00786683 -0.52407968
v -0.30083218 0.10519807 -0.47705412
v -0.02754516 -0.31362420 0.10250781
v 0.07866547 0.03838456 0.21240394
v 0.33289176 -0.09481229 0.11188155
v 0.34185141 -0.15569255 0.05396956
v 0.04903660 -0.34711319 0.02899488
v 0.74892342 0.08611317 -0.03411775
v -0.41401273 -0.19085762 0.28706831
v -0.60958141 -0.01548202 -0.10266533
v -0.53113276 -0.16103911 0.12758434
v -0.39595047 0.37240013 0.27345735
v -0.12252009 0.17034215 -0.49312431
v -0.40311190 0.11868407 0.28345758
v -0.05529004 0.30649096 0.36617893
v 0.53183514 0.15919319 0.29278237
v 0.10695553 0.40861583 0.17051685
v -0.20903423 -0.24758986 -0.11974699
v 0.28133830 -0.04038852 -0.28820449
v -0.17775008 -0.15143985 -0.50337428
v 0.41279393 -0.07103299 0.19698763
v -0.51614773 0.05857452 0.24687375
v -0.35756445 0.08745691 0.15019020
v 0.37971824 -0.23280218 0.09709394
v 0.52082080 -0.15952665 0.10828115
v -0.34065765 -0.29282373 -0.37445137
v -0.37960052 0.35219228 0.17351460
v -0.42663991 0.04755493 -0.16077161
v -0.31101021 0.16212082 0.37861511
v -0.51397479 0.17599416 -0.21850583
v -0.28531602 0.13748306 -0.48715276
v -0.58270139 0.14751542 0.24902801
v 0.40749478 -0.19939482 0.21556044
v -0.22084436 0.11181873 0.28052515
v -0.37420493 -0.22948819 -0.19739701
v 0.70063120 -0.01568652 0.01233465
v -0.29633412 0.08048718 -0.55335677
v 0.47497338 -0.03297830 -0.17939118
v 0.61333668 0.17083460 0.29897064
v 0.67806405 0.25554824 0.25338811
v -0.49907824 0.05333871 -0.31461853
v -0.69568908 0.10178938 0.16351141
v -0.35858968 0.13125174 -0.46749517
v -0.21043371 -0.28246376 -0.53919762
v 0.59741169 -0.00279792 0.07347275
v -0.18467042 -0.15715954 -0.44916618
v -0.50720131 0.13183038 -0.38391373
v 0.05654205 -0.21729502 -0.44263095
v 0.03463042 -0.32316461 0.12080830
v 0.74305534 0.18413031 0.15559985
v 0.48188376 -0.10154936 0.15044473
v 0.27342570 0.07070999 0.35372123
v -0.55525517 0.12129067 -0.24936685
v -0.58721101 -0.07563290 0.03277183
v -0.26326925 0.28829649 0.27630186
v 0.63345236 0.19678865 0.10138379
v 0.09599474 -0.06884565 0.38748729
v -0.43175182 0.02335662 -0.35826623
v 0.70280445 0.14239345 0.04195029
v 0.44686794 0.12687030 0.08403246
v 0.74431467 -0.07093259 -0.12009016
v 0.35209733 0.14883757 0.18837377
v 0.02459940 0.10383225 -0.50500429
v 0.65918320 0.19721518 0.09991686
v 0.37705201 -0.08739898 0.07681426
v 0.27307862 0.05249877 0.18144156
v -0.57268745 0.11451396 -0.23656799
v -0.49364838 0.15135160 -0.33925247
v -0.59138572 0.01336594 -0.31806254
v -0.66131413 -0.00683556 0.11620947
v -0.51436400 0.01801713 -0.16080911
v 0.36612087 -0.19004674 0.12103771
v 0.61761785 -0.02578535 0.31867629
v -0.59557092 0.00145895 -0.35849401
v 0.39649403 -0.14323395 0.19078363
v 0.52979529 -0.10410031 -0.08156099
v -0.28773278 -0.21967730 -0.17647563
v -0.11419226 -0.07678310 -0.46477258
v -0.43688932 0.19024003 0.31179285
v -0.10898930 0.09974729 -0.54757589
v 0.48732466 -0.12194544 -0.15577365
v 0.25693226 -0.24422108 0.10704513
v 0.28342417 -0.29923287 0.39021742
v -0.19418739 0.07638431 -0.44708082
v 0.37885106 -0.26197392 0.27345273
v -0.07864053 0.13345811 -0.51131988
v 0.55292124 0.09870318 -0.11855106
v -0.02999743 -0.33579516 0.07638402
v -0.19403337 -0.08778559 0.44532239
v 0.52010429 0.11603727 -0.02413331
v -0.11586750 0.26592624 0.42048696
v -0.49545249 -0.00973680 -0.39072663
v -0.74697542 0.06173173 -0.15902229
v -0.23452719 -0.17856395 0.42294610
v -0.18364552 -0.02745651 0.41814193
v 0.52642602 0.05102433 0.29748881
v -0.34572402 0.21151885 0.16163361
v -0.53335714 -0.20517990 -0.12579294
v 0.52395511 -0.00269932 -0.23076980
v 0.34085065 0.03908776 -0.31294394
v -0.65344870 0.00970076 -0.17849238
v 0.24171114 -0.32626039 -0.27377805
v -0.11342401 0.10089801 0.41980460
v -0.65365297 -0.00155537 -0.18283901
v -0.26966459 -0.00124994 0.44375896
v -0.23739812 0.41977695 0.19701128
v -0.61279684 0.11209513 0.22924493
v -0.36485592 0.29674041 0.12529407
v -0.21428567 -0.11351030 -0.60327095
v 0.66774714 -0.01745185 -0.02259273
v -0.67106736 0.10230754 -0.34052500
v 0.53458387 -0.08354770 0.21928962
v 0.26969105 -0.29816929 0.37126461
v 0.65462011 0.12289900 0.13583148
v -0.31565705 0.06262949 -0.54618645
v -0.64552402 -0.01270505 0.07449593
v 0.02453365 -0.33007234 0.11831281
v 0.10624225 -0.25660551 0.30111814
v -0.08385865 0.20901081 0.43394554
v -0.44635779 -0.07707827 0.29038861
v 0.44319901 -0.11812341 0.25966907
v 0.19032642 -0.10970540 0.07161077
v 0.06961907 0.17563266 0.29013285
v -0.39747697 0.28218088 0.10310147
v -0.17530434 -0.10332149 0.38926932
v 0.01382716 0.25669998 0.31237128
v 0.55971640 -0.06888065 0.08842622
v 0.22461784 -0.28765249 0.04866999
v -0.37828875 0.12918670 -0.45141739
v -0.62340760 -0.03141534 0.03010061
v -0.25022131 -0.25109050 -0.41918048
v -0.49528685 0.18249735 -0.04158183
v 0.18468533 -0.03751056 -0.43603987
v -0.62496227 0.10229748 -0.36198413
v -0.60442227 0.04347398 -0.21586293
v 0.43693039 -0.22495636 0.26323146
v -0.42653400 -0.16470054 0.03575083
v 0.01748855 0.23534653 0.31533426
v -0.74965262 0.07915030 -0.19738179
v 0.50411606 0.08926819 -0.14130786
v 0.50012261 0.15404573 0.25780728
v -0.41106811 -0.05845264 -0.42995778
v -0.31300846 -0.06193817 0.29649007
v 0.56497777 0.03004835 0.01290567
v 0.37724248 -0.17025244 -0.13577159
v -0.27234712 -0.15157299 -0.61235291
v -0.11844598 0.18462294 0.42633489
v -0.51298052 -0.19833601 -0.01257485
v -0.39298448 -0.07193110 -0.26430511
v 0.66788250 0.16086024 0.00524995
v 0.75531799 -0.03774910 -0.17985983
v -0.54305083 0.21442094 0.22611982
v -0.49873167 -0.16409387 -0.25381637
v 0.13912170 0.30912650 0.23485853
v 0.13688596 -0.16042894 -0.43897390
v -0.46310216 0.19169727 -0.04560994
v -0.54215252 0.11938765 -0.21308133
v -0.56214172 -0.06418264 -0.33290672
v 0.29917091 0.33087164 0.21899077
v -0.31117958 0.14040719 -0.41952062
v -0.70008516 0.18089113 -0.18418558
v 0.45860901 -0.23107582 0.08906936
v 0.67714530 -0.00174294 -0.11892684
v 0.38887727 -0.06395002 0.16502360
v 0.24861935 -0.07126846 0.36571136
v -0.22641727 0.29754430 0.24304149
v 0.01016397 -0.08111033 -0.37321326
v -0.57811725 0.04839840 -0.26708183
v 0.51558292 0.04881845 0.04853988
v -0.69184852 0.03173423 0.09348105
v -0.55459964 -0.13860689 0.17291121
v 0.64126456 0.08434577 -0.00473699
v 0.56291372 -0.10088406 0.18129419
v -0.54569876 0.00401106 -0.34270680
v -0.42909253 -0.01773344 -0.25987262
v 0.41532815 -0.15695006 0.23132943
v 0.42289147 -0.27265483 -0.05033900
v -0.08014298 -0.25380427 0.34679103
v -0.52435219 -0.08162723 -0.30511832
v -0.38637760 -0.02792088 -0.30738339
v 0.62497455 -0.02681210 0.27005184
v 0.06789065 -0.07548237 -0.50275832
v -0.16003449 0.24606505 0.41103989
v 0.56903422 -0.06093954 -0.25949371
v -0.46287626 0.36784574 0.15407060
v 0.62455827 0.07008208 -0.12793633
v -0.58562505 0.01601262 -0.31341368
v -0.13974670 -0.25621280 0.10419726
v 0.60819483 0.01945387 -0.16617835
v 0.55258805 0.06515567 0.01224245
v -0.65161383 0.16599563 0.19092500
v 0.65241897 0.09176320 0.15051979
v -0.16146454 0.35602683 0.24795471
v -0.68922883 0.12782305 -0.19311483
v -0.01413129 0.08523133 0.44881615
v 0.59595293 0.01031207 0.28690439
v -0.51104856 -0.02047407 -0.41888461
v 0.00827486 -0.15466073 -0.14284146
v -0.03663480 -0.10627831 -0.34087360
v 0.68908846 0.21815698 0.04456174
v -0.49347368 0.10721170 -0.40249050
v -0.59836262 0.17087625 0.01229069
v -0.42860764 0.14074637 0.33000940
v -0.52704549 0.32196805 0.18074097
v 0.00827404 -0.26742178 0.33716321
v -0.53970689 0.24016866 0.19259578
v 0.62335896 0.04824679 -0.03776181
v -0.51069003 0.32721972 0.13327147
v -0.52594864 0.32070968 0.18310733
v -0.63697660 0.14707443 -0.35013410
v 0.37527195 -0.23482189 0.18000755
v -0.12546235 0.39082372 0.24943098
v -0.35628656 0.33497036 0.27003199
v -0.14628211 0.35874301 0.26136917
v 0.68513316 -0.03654326 -0.05804038
v -0.53145897 0.20279410 0.03245594
v 0.29025730 -0.25828016 -0.06271384
v -0.51639742 0.03742878 -0.31990880
v 0.35247266 0.11514390 0.40417576
v -0.65700716 0.17672142 -0.19863763
v -0.52505660 0.20009224 0.03348550
v -0.62469238 0.07223532 -0.04799348
v -0.51560760 0.34417436 0.26403821
v 0.23403899 0.30021933 0.30977279
v -0.59649897 0.00601935 0.20628418
v -0.33426642 -0.20682421 0.31301555
v 0.26937157 -0.09238894 0.41121432
v -0.27062657 0.09289965 -0.52830243
v -0.64103860 0.14675587 0.22399616
v -0.18433398 -0.26137394 0.42301762
v -0.60612744 -0.05739723 -0.08793835
v 0.34943542 0.27205133 0.28484023
v 0.58768362 0.28339523 0.13899316
v -0.57337278 0.16512695 0.25471750
v -0.45580178 0.28083953 0.19116591
v -0.46715960 0.06014097 -0.38367414
v 0.01292109 -0.02741722 -0.58487839
v -0.07404707 -0.01397004 0.47213307
v -0.16498822 -0.28641173 0.32707015
v -0.69557798 0.04331955 -0.38253456
v 0.46181419 0.23396701 0.24074894
v -0.40627128 -0.15887205 0.03183090
v 0.72980601 -0.06439658 -0.19639657
v -0.16583386 -0.01968546 0.34695384
v -0.22897826 0.31790307 0.34717888
v 0.68990225 -0.02734175 0.27908033
v 0.44886619 0.21741170 0.27016872
v 0.70097107 -0.07134236 -0.18948552
v -0.11660121 -0.25666040 -0.31310660
v -0.49355179 0.22030348 0.16690764
v 0.65567845 0.06461499 -0.01524380
v 0.55100024 -0.08855058 -0.28695476
v -0.36901620 -0.00143331 0.37384140
v -0.17076057 -0.05097960 -0.52544707
v -0.24431691 0.25473699 0.33209455
v 0.59060591 0.02583485 0.30187112
v 0.52916545 0.20681860 0.18391876
v 0.22310242 -0.29424486 -0.28514671
v -0.47426969 -0.00825318 -0.31039152
v 0.69119084 0.13017228 -0.03462088
v -0.17215100 0.08724864 -0.57473850
v -0.44619253 0.06872666 -0.35657150
v -0.19743791 -0.10175696 -0.56629241
v -0.36754635 0.23141433 0.33076465
v -0.53293848 -0.15797114 -0.04686491
v 0.38073331 0.16127545 0.27303118
v -0.06563425 -0.08215058 -0.58720946
v 0.12600258 -0.17535280 0.36487198
v 0.28721389 0.14893706 0.27308148
v -0.46960232 0.10219160 -0.43170512
v 0.20538703 -0.17928341 0.28813639
v 0.55336308 -0.12516293 0.22595353
v 0.65480316 -0.12120841 -0.18518171
v -0.71260840 0.04768725 0.09380054
v -0.02414943 -0.30649805 0.18138790
v 0.46480641 0.23603502 -0.01404084
v -0.12888882 0.11318667 -0.55222356
v 0.59943026 0.01265777 -0.01985186
v -0.25177130 -0.17802504 -0.54625112
v 0.77425319 -0.05749696 -0.20290865
v -0.03815283 -0.29227015 -0.50021631
v -0.54561961 -0.07772664 -0.14463472
v -0.26957440 -0.09141594 0.30310255
v 0.19454911 -0.11862956 0.39713854
v 0.13076016 0.18128532 0.42301130
v 0.15213223 -0.03026766 0.34731269
v -0.10779543 -0.16890404 0.47111464
v -0.32736015 0.36197570 0.14865442
v -0.19364792 0.13023670 -0.51814353
v 0.68460649 -0.03975379 -0.02118085
v -0.05493653 -0.16795124 -0.39406961
v -0.34455699 0.02157994 0.38608801
v 0.32232714 -0.06304888 0.23821972
v -0.19961272 -0.11681210 -0.56814706
v 0.65419608 -0.04803362 -0.04150000
v -0.31529588 -0.06729127 0.34139830
v -0.28638723 0.07394566 0.42843276
v 0.79508018 0.04252116 -0.18253472
v 0.27998409 -0.00500757 0.34636492
v 0.23945098 -0.27816075 -0.26628146
v -0.84327817 0.04633814 -0.13358130
v 0.03189732 -0.32816446 0.07898557
v -0.19629446 0.21354648 0.40625229
v -0.30928117 0.21517971 0.33891726
v 0.47874203 0.01886652 0.03475817
v -0.18822421 -0.02543865 0.32865059
v -0.67737591 0.19716854 -0.18105653
v -0.41994840 -0.21151361 -0.00233381
v 0.40199322 -0.15061040 -0.05177672
v -0.03213733 -0.31170660 -0.25844383
v 0.26838815 0.04939864 0.18071221
v 0.66976923 0.22065248 0.09388940
v 0.35740811 -0.01214771 0.20016600
v -0.42174262 0.15144908 -0.05039476
v -0.25025570 -0.24180119 -0.29647061
v 0.46840417 -0.17631070 0.25099474
v -0.30865693 -0.03591624 -0.26613173
v -0.00950371 -0.06585310 -0.57115686
v -0.04505605 0.25978911 0.32783878
v -0.63992786 -0.03122243 0.11713713
v 0.41512346 -0.12043186 0.03297533
v 0.60587800 0.05480774 0.17480996
v 0.60651875 -0.21621904 -0.05823059
v 0.40810296 0.07435117 0.35270190
v -0.62329197 0.14357004 -0.23286062
v -0.45386514 -0.16255479 0.05406345
v 0.02963460 0.32887828 0.12224595
v 0.87498724 0.06978292 -0.16429178
v 0.41712183 0.05366458 -0.16994737
v -0.43371099 -0.14737430 -0.38560385
v -0.15403852 0.02837829 0.46834341
v 0.60000128 0.09920703 -0.12048131
v 0.18406582 -0.25919214 0.11400694
v -0.66680968 0.17892781 -0.20394804
v -0.02341439 -0.17894472 -0.57246470
v 0.71889824 0.08150725 0.07943703
v -0.61061525 -0.00964175 -0.09443431
v 0.08347756 -0.30906227 -0.25204310
v -0.61104518 -0.00052256 -0.32260424
v -0.48293620 0.27147782 0.19487384
v -0.11528546 -0.12962781 -0.54852808
v -0.14763603 -0.28862631 -0.43559805
v 0.26580182 -0.18551460 0.30511007
v 0.47858286 0.04352531 0.37038350
v -0.46644130 0.02786477 0.22268188
v 0.44465658 0.32554737 0.07477598
v -0.09486160 -0.00260044 -0.61259478
v -0.28768227 -0.26846063 -0.47340605
v -0.19157842 -0.19157861 -0.49634552
v -0.68524802 0.04739716 -0.39344597
v 0.45578933 0.20734484 0.30450329
v -0.15524250 0.08834133 0.42936105
v -0.17733026 -0.09799599 -0.53977931
v -0.47405136 0.04421565 -0.33931342
v -0.80329239 0.01122893 -0.13809681
v 0.40020126 -0.24858688 0.11835247
v 0.78979379 0.12023163 0.01681742
v 0.42243692 -0.05771412 0.37090665
v -0.15924647 -0.08853254 -0.56075102
v 0.85812402 0.27137873 0.04390677
v -0.22980785 -0.10418363 -0.55408907
v -0.07495988 -0.04164962 -0.51379436
v 0.77682555 -0.03467076 -0.22269432
v -0.46559003 -0.17330229 0.22119460
v -0.59605235 0.09950396 -0.41297466
v -0.18165213 -0.13815793 -0.57238895
v 0.63662970 0.09123006 0.19536638
v -0.57195920 -0.00184003 0.20139116
v -0.18134132 -0.24443160 -0.36105937
v 0.47363004 0.00803843 0.31125879
v -0.07795205 -0.23763402 -0.44541276
v 0.46027830 0.13219294 0.13206288
v -0.60751379 0.02026690 -0.39524132
v 0.08315708 -0.15499344 0.40825713
v 0.72148925 -0.09208672 -0.10411925
v 0.62197775 0.13156737 0.15861209
v -0.33535972 0.11334730 -0.31693745
v -0.55791301 0.08878390 -0.45253330
v 0.63885570 0.09260395 -0.08924711
v -0.34189901 0.30236334 0.28708443
v 0.17845090 -0.17769593 -0.44629949
v 0.44439542 0.14411959 0.29258680
v -0.31807894 -0.29195800 -0.38624665
v 0.11481620 -0.23824699 0.30124676
v 0.28091192 0.09411041 0.28504026
v -0.25076523 -0.02584408 0.42284173
v 0.60902822 0.05774176 -0.07481861
v 0.43347454 -0.22811666 -0.37727815
v 0.56646746 -0.09359953 0.20317413
v -0.73070329 0.00977513 -0.19604926
v -0.32522061 -0.15537758 -0.21827391
v 0.53307420 0.02923035 0.16556680
v 0.20761643 -0.11739139 0.39084673
v 0.48076311 0.01707977 0.33533597
v -0.19631591 -0.27213779 0.42471763
v -0.38152334 -0.25828660 -0.33085307
v 0.43035099 -0.27653819 -0.03314171
v 0.30605912 0.09678660 0.00991641
v 0.35586008 -0.05734198 -0.29019383
v -0.59139580 0.19201435 0.04606526
v 0.36310548 -0.30255830 -0.21805336
v -0.05531020 0.39319336 0.17654181
v -0.27253953 -0.15299374 -0.56544274
v 0.34874913 -0.18188587 0.03939600
v -0.64310086 0.16420673 0.02841306
v 0.55276024 0.01136948 0.00042626
v 0.70053530 0.29208001 0.22321020
v 0.20150125 -0.07089292 0.24552859
v 0.25858995 -0.06484399 -0.44843987
v 0.14671239 -0.05923887 0.45608717
v 0.69682503 0.10932052 -0.00025760
v -0.37577116 -0.11890401 0.01202215
v -0.21925780 -0.27667969 0.42050302
v 0.52448612 0.02916977 -0.11984821
v -0.23515248 0.14792860 0.23803158
v 0.04510502 -0.07815073 -0.33759111
v 0.46243912 0.26000899 0.19272573
v 0.67745870 0.06840397 0.05924255
v 0.50499189 0.09870493 -0.13425450
v 0.19724882 0.00605134 0.46588114
v 0.16582082 -0.08331415 -0.36330402
v -0.53585404 -0.00445234 -0.25532591
v -0.37082186 -0.12462202 -0.42194784
v -0.12482276 0.06115609 -0.50916946
v -0.19240335 0.16874024 -0.47590590
v -0.50288105 0.22221471 0.28378177
v -0.64879704 -0.01486819 0.03504407
v 0.00611715 -0.17513576 0.41983289
v 0.73454505 0.03113857 0.03333591
v -0.58936626 0.28816450 0.21480341
v -0.63129508 0.01823419 -0.38448060
v -0.46632221 0.05246171 -0.40006542
v -0.06669036 -0.33684883 -0.46480861
v -0.62294960 0.19938320 0.10222508
v -0.47782975 0.18790831 -0.33799046
v -0.69382942 0.11026545 -0.36766210
v -0.33135176 -0.20466742 -0.22019979
v 0.38453373 -0.08555259 0.13145006
v 0.54194349 0.20596211 0.21670459
v -0.31430706 -0.11834214 -0.08051459
v -0.65014964 0.01590154 -0.04415809
v -0.23865359 -0.23246522 0.39219254
v -0.05242092 0.14238587 0.47584963
v -0.50445133 -0.13031885 -0.15413478
v -0.40567404 0.27947825 0.18658495
v 0.55529386 0.00399587 0.13352288
v -0.41110873 0.12120000 0.15023790
v -0.11435235 0.30960733 0.41810149
v 0.42603266 -0.08143882 0.27004439
v -0.18955755 -0.08140108 -0.54825610
v 0.08679196 0.04967156 -0.52901763
v -0.73682845 0.12795635 -0.19026899
v 0.04738083 -0.19683328 0.39482427
v 0.28597888 -0.14325267 -0.10157702
v -0.54834706 0.18096930 0.27883571
v 0.74773753 0.29243684 0.07354007
v 0.20921239 -0.09919831 0.37646553
v -0.40609962 -0.22574639 -0.33448589
v 0.54563260 -0.12361494 0.19629097
v -0.66192204 0.05298281 -0.39838755
v -0.06121718 -0.04961170 0.42526403
v -0.19822377 -0.28304562 -0.54624271
v 0.07888070 -0.07394418 -0.40470731
v -0.12776303 0.07669429 0.20476262
v 0.27354193 -0.31363255 -0.30295247
v -0.18796435 0.09665424 -0.50936162
v -0.59498531 0.20693232 0.10278237
v -0.67848355 0.11531340 -0.34751725
v 0.51247799 0.38081121 0.08064365
v 0.36003733 -0.01365959 0.15701611
v 0.87375742 0.08846623 -0.14770295
v 0.55779684 -0.13000312 -0.27810711
v 0.56598419 0.22043242 0.12701423
v 0.02340535 0.13639468 0.40844235
v 0.66831172 -0.02274195 -0.11848705
v 0.60229558 0.13182327 0.29839119
v 0.34960929 -0.08959535 0.16419867
v -0.17462131 0.20380741 0.42938316
v 0.54373914 0.24530223 0.05604935
v 0.70642585 -0.09917139 -0.17600095
v -0.08122252 -0.18387583 0.43568769
v -0.46739998 -0.07206258 -0.42315790
v -0.69304210 0.08316454 0.19301474
v 0.27848408 0.10009170 0.28591019
v -0.27949020 0.10413051 0.40550998
v -0.37407824 0.15367334 -0.41738164
v 0.32658121 0.27410132 0.29435390
v -0.57950801 0.16974071 -0.33283883
v -0.17987773 -0.00326048 -0.56164169
v 0.53529960 0.15450440 0.08402947
v -0.18328641 0.33920991 0.30492246
v 0.05915019 0.01917505 -0.07348374
v -0.64481872 0.18948865 0.18686084
v 0.47800708 -0.17793253 -0.27296174
v -0.56826711 0.08406605 -0.34826535
v -0.75513852 0.09211081 -0.20846744
v -0.34352055 0.15037027 0.16732958
v 0.42976078 -0.10412686 0.22353885
v -0.64785081 0.00618775 -0.17610735
v -0.53333318 0.03533542 -0.11655861
v 0.46583122 0.08484043 0.11914327
v 0.60728991 -0.00974669 -0.00729112
v 0.21104313 0.21081980 0.36503869
v -0.42645130 -0.05740567 -0.36337990
v -0.02450375 -0.14886983 -0.39803147
v 0.00789271 0.30672875 0.17002928
v 0.60883784 0.02921035 0.01693129
v -0.57503152 0.08363515 0.26219770
v 0.50159454 -0.09543572 -0.06185980
v -0.55543125 0.21261378 0.08992711
v 0.73632264 0.33916199 0.14384086
v 0.37175995 0.33182627 0.21048696
v -0.26016128 -0.05559093 0.46072692
v -0.45221242 -0.00486026 -0.27333742
v 0.26101807 -0.25868648 0.00526862
v 0.28053173 0.32013264 0.19805582
v -0.46420425 -0.01931757 -0.27533618
v 0.64055127 -0.04050678 0.26050186
v 0.39276811 -0.14949334 -0.10882544
v 0.58889335 -0.05494709 0.22742498
v 0.49027839 -0.01019857 0.11925690
v -0.65137184 -0.13163128 0.26347619
v 0.39971843 -0.14345793 0.28548253
v -0.64130437 0.16222678 -0.02216416
v -0.73828012 0.03043327 -0.21299812
v 0.82767701 0.02196687 -0.10627773
v -0.30149800 -0.22286807 -0.44044387
v -0.43928337 0.19827408 0.07872005
v 0.14106539 -0.33795279 0.04374236
v -0.13280149 -0.27736798 0.26026499
v 0.38318071 0.24224728 0.13744976
v 0.45697656 -0.00506102 0.07426523
v -0.46925026 -0.18073010 0.11639129
v -0.23363575 -0.23320976 0.16776647
v -0.20997775 0.11909646 -0.35939860
v 0.54375827 0.06275658 0.21081942
v 0.49109337 -0.00065419 0.17597115
v -0.36820838 0.00705031 0.36973217
v -0.42958564 0.12293714 -0.44720316
v -0.42986962 0.01731296 -0.05825115
v 0.40780106 -0.15578529 0.28889644
v 0.41285926 -0.03151876 0.11995026
v 0.55692065 -0.08047664 -0.23956165
v -0.01475455 0.00106081 -0.57618928
v -0.38640028 0.00640203 0.34576666
v -0.08102863 -0.23301975 0.41702354
v 0.34066778 -0.10830516 0.07257193
v 0.37204888 -0.20134455 0.19503808
v -0.27768326 0.03708473 -0.56597722
v 0.43053460 -0.03113937 0.35125059
v -0.44164562 0.27862751 0.23711111
v 0.73033470 0.18495876 0.03666168
v 0.33108532 -0.28204569 0.27419779
v 0.09459710 -0.33165139 0.05913378
v 0.65463185 0.30189544 0.20301895
v 0.62379032 0.24009100 0.12813534
v -0.32373607 -0.10622665 -0.54715317
v 0.41527346 -0.20494176 -0.37193531
v 0.06152716 -0.19097340 0.38423145
v 0.27206147 -0.15942216 -0.44176191
v -0.61943513 0.06043659 -0.37129611
v 0.52047306 -0.19337660 -0.24545887
v 0.17599024 -0.00656823 -0.40107539
v 0.59301555 -0.01705648 0.05290440
v 0.42089733 0.22820877 0.20204096
v -0.47651619 -0.18659720 -0.15447232
v 0.56004155 -0.11238287 0.14287436
v 0.01750062 -0.30253294 0.18192767
v -0.64870465 -0.05775847 0.05331169
v -0.22875312 -0.20576274 -0.33631733
v 0.01680710 -0.16971293 -0.46442550
v 0.18361798 -0.08313615 0.34350634
v 0.45502597 -0.15921468 -0.11295684
v 0.67770272 0.37003112 0.03393935
v -0.42402631 0.19950297 0.03697992
v 0.77297688 0.16013601 0.15661232
v -0.67196035 0.12357786 0.12634973
v 0.48796421 -0.03694021 -0.26982480
v 0.65810990 0.30358249 0.03940901
v 0.51855123 0.23213789 0.16235106
v -0.10011703 -0.15869701 -0.53653747
v 0.40411866 0.22132805 0.28435585
v -0.36748040 0.34943065 0.32550991
v -0.49027723 0.06687889 -0.31713220
v -0.64633489 0.15098786 -0.03703467
v 0.30743352 0.11582375 0.32037723
v -0.57961440 0.11665519 0.26829174
v 0.34154260 0.10827197 0.19190787
v 0.61345160 -0.10180992 0.05578323
v -0.18496273 -0.12286857 -0.64013851
v -0.15086299 -0.16557285 -0.31414917
v -0.03592395 -0.18526438 -0.37765610
v -0.08872195 -0.10077463 -0.45365652
v -0.11972820 0.20783618 0.24837324
v 0.78646195 0.25927126 0.03711302
v -0.69202346 0.11330276 -0.17722678
v -0.25567660 -0.11473255 0.24875194
v 0.14363542 0.05880709 -0.50093716
v -0.69013888 0.16658615 -0.20401096
v 0.62914735 -0.09361269 -0.19520211
v 0.51272565 0.04497026 -0.18090189
v -0.58992380 -0.12795946 0.24374060
v 0.52984405 0.16974917 0.24316250
v -0.49138570 -0.16732736 -0.25828612
v -0.67478687 0.17820832 0.08578246
v 0.71294582 0.09947678 0.24736197
v -0.26008311 0.06968400 -0.33255497
v -0.66617972 0.16563587 -0.00293569
v 0.48259705 0.15064317 0.13350101
v -0.70749235 0.16871980 -0.18845674
v 0.47321880 -0.24610487 -0.02079557
v -0.00410950 -0.32910493 0.10405567
v -0.27461597 -0.11137971 0.23560372
v 0.63278204 0.10590765 0.14965504
v -0.27516386 -0.14866756 0.25807756
v 0.41931701 0.21454573 0.29784065
v 0.68849516 -0.00118129 0.24705219
v -0.18982095 0.16916384 0.29328060
v -0.08774739 -0.31477696 -0.00439686
v 0.12842469 0.17933941 0.43363684
v 0.80089980 -0.04192932 -0.15355363
v -0.28890136 0.08257478 -0.33616441
v -0.22433925 -0.04188246 -0.57253963
v -0.31063038 0.33788815 0.20532566
v -0.26831788 -0.22634643 -0.39797112
v -0.05843090 0.27420774 0.42682514
v 0.48856500 0.03440706 -0.07271127
v 0.68870962 -0.02338715 -0.13851671
v -0.31252593 -0.16692954 0.08551314
v -0.33730465 0.26392895 0.04408690
v 0.70467299 0.14974342 -0.00161232
v 0.37666041 -0.15773517 0.12815915
v 0.48323727 -0.19196011 -0.21120122
v -0.24195684 0.21912749 0.39345366
v -0.70273143 0.10876945 0.05934763
v 0.71541053 0.27149379 0.23537967
v 0.50850189 -0.10926402 -0.32915425
v 0.58879101 -0.08201316 0.03697942
v 0.30774936 -0.19032098 0.23010862
v 0.43835098 0.25599217 0.12241088
v 0.00375253 -0.31588382 -0.47457558
v -0.52212948 0.05476556 -0.22906776
v -0.57589483 0.11594778 -0.33958432
v -0.73731959 0.04510239 -0.15104426
v -0.40794745 0.07228278 -0.42373914
v 0.46677086 0.01552040 0.30724400
v -0.35098258 0.08693710 -0.51980412
v -0.52096635 -0.05596566 0.24187802
v 0.46078077 0.28614962 0.06267798
v -0.66226161 0.10061006 -0.04962265
v -0.15570599 -0.31812373 -0.47709611
v -0.15626203 -0.12939039 -0.53185683
v 0.03720595 -0.32968462 -0.06778742
v 0.48985130 -0.10270967 -0.34924832
v 0.68106472 0.09184545 0.00966806
v -0.29177299 -0.12836328 -0.58513933
v 0.70227200 0.21129879 0.04639231
v 0.59141266 0.30450782 0.15574791
v 0.45651165 0.27022493 -0.00600236
v -0.25346258 0.07704076 -0.48501921
v 0.55259228 0.00378447 0.19458662
v 0.58623666 0.02943401 0.22290410
v 0.12383009 -0.31474787 -0.10838593
v -0.23784694 0.30950102 0.08217667
v 0.25440580 0.32628375 0.16771494
v 0.54751778 -0.02789537 -0.03798074
v 0.15160225 -0.15030074 -0.48044282
v -0.68274212 -0.02033880 -0.36290294
v -0.29359859 -0.21652979 -0.26012009
v -0.67354679 0.17797846 0.03818248
v 0.66982418 0.03376279 0.27386799
v -0.49055511 -0.05999789 0.15482838
v -0.16484973 0.01400668 -0.44170386
v -0.27142727 0.33212021 0.24790755
v -0.11555789 -0.26071283 0.30393741
v -0.03091445 -0.27966043 -0.20181490
v -0.54664171 0.21767491 0.23540552
v -0.21414515 -0.21147133 -0.07687276
v 0.11695467 -0.09184837 -0.37672096
v -0.51748246 -0.11367133 -0.35705981
v 0.62348294 -0.05891488 -0.20934705
v 0.31741613 0.16096827 0.06272776
v -0.37988946 0.34083623 0.13975492
v -0.21898766 -0.07323338 -0.46254596
v -0.40834415 0.24392337 0.29208434
v -0.49971035 -0.17675661 -0.14717785
v -0.55674309 0.17763665 0.04610027
v 0.60364848 -0.16727343 -0.09725371
v 0.36954644 -0.15883663 0.08010669
v 0.34576479 -0.21580881 0.17669481
v 0.18273485 0.01727931 -0.52868128
v -0.58447540 0.03597081 -0.10881569
v 0.00756865 -0.28369531 0.29545176
v -0.41079021 -0.21413405 -0.03759272
v 0.32677251 -0.21492463 -0.13006131
v 0.74763882 -0.05538600 -0.21315730
v -0.08826488 0.35891393 0.26981550
v -0.10804591 -0.06490600 -0.59334540
v -0.76975667 0.12900457 -0.19306752
v -0.52735418 0.08833428 -0.37270576
v -0.67572892 0.11948702 0.18973407
v -0.42991382 0.14431761 0.02429040
v 0.62359631 0.11205617 -0.08182254
v 0.01933996 -0.23678350 -0.45239273
v -0.06422409 -0.10195751 -0.42812437
v -0.45376810 -0.06707809 -0.41620135
v -0.39279988 0.01529453 -0.50125200
v -0.61392009 0.02595784 -0.36909634
v -0.68667370 0.05725940 0.14340146
v 0.42779320 0.24092439 0.17683722
v 0.27486122 -0.11275040 -0.04857719
v 0.49493054 -0.02752640 0.31336683
v -0.18354103 -0.05175751 -0.50424832
v 0.24459119 0.12515163 0.29396534
v -0.68276060 0.15230553 0.14839859
v -0.16684124 -0.04145436 0.41779193
v 0.54702604 -0.10370680 0.27218896
v 0.54591680 0.19364721 0.10438077
v 0.71467882 -0.05970220 -0.22098219
v -0.58897185 0.07256262 -0.45017350
v -0.14951146 -0.16153932 -0.03468675
v -0.56104112 -0.12742180 -0.12602754
v -0.17672884 0.04601429 -0.57074201
v -0.60974228 0.00585195 -0.41386971
v 0.56478381 -0.09349645 0.25248861
v -0.06156105 -0.21005394 -0.39028576
v 0.21731541 0.19214037 0.03121416
v -0.39244372 0.29778332 0.32031649
v -0.67792976 0.17335832 0.02956017
v -0.11897779 -0.07162106 -0.54040134
v -0.54032600 -0.07318609 0.04342771
v 0.73099679 -0.05604761 -0.19195947
v 0.47595283 -0.19660485 0.19979784
v 0.21946833 0.11189379 0.37715352
v 0.04051004 0.19720894 0.35815498
v 0.02638396 0.22643450 0.30992582
v 0.62802315 -0.02211402 -0.10949340
v 0.62707126 0.02660628 0.05224346
v -0.31872773 0.34841371 0.28749144
v 0.75902891 0.11299253 -0.02729440
v -0.08496112 -0.14688653 -0.57995152
v -0.49637550 0.22171484 0.09391534
v -0.48673978 -0.01133916 0.09227637
v -0.64466316 -0.00147070 0.19073646
v -0.30968511 -0.23670116 -0.00807536
v 0.43319777 -0.16388969 -0.01737023
v -0.37357315 0.07393049 0.14119029
v -0.71682668 0.07605184 -0.16404903
v 0.74926078 0.01439538 0.07266349
v 0.59576410 0.02879050 0.18771613
v 0.72858059 0.04536606 -0.10428971
v -0.40448064 0.08381063 0.11095030
v -0.47323877 0.34086990 0.25409037
v -0.57299221 0.12372486 -0.34570086
v -0.68216568 0.03857571 -0.33411872
v -0.06458858 0.10485721 -0.50560236
v -0.67543763 0.00735499 0.21841481
v -0.42730731 -0.15513538 -0.33993033
v -0.12072386 -0.16373213 0.39629102
v 0.08101004 -0.33248806 -0.31096911
v -0.34470224 0.09880914 -0.32994282
v 0.28847665 0.28951177 0.31056678
v -0.51070321 -0.10997865 -0.00883738
v 0.66253507 0.19679274 0.06181258
v -0.85354018 -0.00899998 -0.11950018
v -0.53927821 0.02652438 0.20714720
v -0.22549541 0.00590701 -0.52804655
v -0.15717363 -0.13730466 -0.48858917
v -0.06239854 0.00545229 0.26768243
v 0.60003710 0.05433711 0.18225905
v 0.25683859 -0.16093031 0.12362499
v -0.62339121 0.06100603 -0.03528141
v -0.59969509 -0.01571538 -0.11595713
v -0.50750428 -0.07565914 0.24784422
v -0.18225223 0.04352964 -0.53310513
v 0.70512521 0.15081681 0.15709336
v 0.49647313 -0.22137436 -0.05825383
v 0.59365827 0.05470466 -0.14094117
v 0.37342069 0.30132440 0.19985081
v -0.49180913 -0.07698252 -0.35643685
v -0.44154468 0.26043001 0.18763451
v 0.07745903 -0.31533003 -0.15675467
v 0.62252492 -0.09528986 -0.18257537
v 0.45418015 -0.18300372 0.17332278
v 0.58203894 0.27018493 0.19654830
v -0.50612307 0.04834451 0.00618770
v -0.50965375 -0.15947947 -0.11868617
v -0.35688388 -0.24129266 -0.33170703
v -0.13676323 -0.05229664 -0.57207578
v -0.29111412 -0.12963708 0.20648584
v -0.20506233 0.18602103 0.27236754
v -0.49827856 -0.08902231 -0.23859841
v 0.48477966 -0.16492376 -0.13865134
v -0.00164927 -0.02978915 0.42968246
v -0.49999911 -0.01793269 0.08157442
v -0.23703724 -0.13000619 -0.39292562
v -0.19451526 -0.25361329 0.09783857
v 0.75521702 0.12235282 0.10327941
v -0.85579342 0.04897990 -0.14789446
v 0.50743127 -0.12862104 0.09002799
v -0.66329122 0.13355325 -0.18502350
v -0.34876129 -0.23069109 -0.32324713
v -0.13563475 0.38848433 0.25966728
v 0.50671810 0.03228275 0.33846623
v 0.39419755 -0.20150138 0.30745053
v 0.02432042 -0.19772381 -0.43712971
v 0.58877760 -0.03986703 -0.22033387
v 0.39630088 -0.14566642 -0.15941945
v 0.58065051 0.10700437 0.05046211
v 0.44727293 0.23218213 0.12347237
v -0.07297442 -0.31827128 0.02070440
v 0.21854669 0.11389054 0.25640371
v 0.51681632 0.02926888 0.03249317
v -0.66813964 0.09625679 -0.32689828
v 0.30810821 -0.00080577 0.29566374
v -0.04973008 0.04321338 0.45115614
v -0.86562014 0.04264257 -0.13351828
v -0.66255391 -0.00877342 -0.17370346
v -0.69468838 -0.10843816 0.24913234
v -0.45847183 0.07580075 0.04674914
v 0.51244491 0.10037699 -0.08044443
v 0.10159810 0.34757501 0.26252419
v 0.67135561 0.00555382 0.23986006
v 0.65211761 -0.05642574 -0.15350077
v -0.42502123 0.19325152 0.33040923
v -0.37621051 -0.24013896 -0.30010957
v -0.12889211 0.03831579 0.45247057
v -0.48951593 -0.02432806 -0.25710434
v 0.61728638 0.05257574 -0.04182886
v -0.38013250 -0.21622488 -0.30343208
v 0.82164723 0.35592344 0.16352631
v 0.39247543 -0.22921494 -0.40886045
v 0.57856619 -0.06007338 -0.25624874
v -0.19055784 -0.18947822 -0.48621696
v -0.43141454 0.13829863 0.04979961
v -0.50629032 -0.07490861 -0.26506463
v 0.77449083 0.36746982 0.15285788
v -0.53864199 0.32863075 0.26740080
v -0.31584904 0.20405287 0.38833404
v -0.70781249 0.01015210 -0.20443167
v 0.73832965 0.10547195 0.25965083
v 0.19238031 -0.28823799 0.12762749
v -0.29778311 -0.20129213 -0.49205121
v 0.31460217 0.20812237 0.04991664
v 0.26729792 -0.13704632 0.06749925
v -0.52300084 0.11483696 -0.05599690
v 0.37901735 0.23338971 0.29278308
v 0.39456382 0.21496326 0.14148524
v 0.27574134 -0.11691593 0.35636064
v -0.59145522 -0.12031328 0.10914086
v 0.56494248 0.29327837 0.16467729
v 0.69652009 0.10274986 0.14735410
v -0.28794730 -0.17578977 0.23640840
v 0.47017109 -0.10917098 0.34224761
v 0.47781801 -0.03303055 0.29954553
v 0.63799649 0.07376811 0.01380199
v 0.39734739 -0.09483960 0.25475413
v -0.62003106 0.10029463 0.24804267
v 0.52124906 0.13011229 0.02027154
v 0.56661993 0.13673204 0.00376835
v -0.47544357 -0.01182495 0.26343709
v -0.05860884 -0.19304737 -0.38465473
v 0.48004723 -0.16119254 0.11456390
v -0.48554075 0.02434022 -0.38922912
v 0.45116600 -0.14640751 -0.33791125
v -0.49492711 0.16470551 -0.24408655
v 0.48333445 -0.03929944 0.30465686
v -0.71008104 0.11304412 -0.17297179
v -0.10207846 -0.12857707 -0.57821089
v 0.67567766 -0.07751008 -0.01020058
v -0.61121440 0.05548945 -0.21398883
v 0.73613709 0.17861500 0.09640869
v 0.77464962 0.02874398 -0.19081421
v 0.88561362 0.27469748 0.07327104
v 0.17145224 -0.30812848 0.09111080
v 0.51206589 -0.16542776 -0.10574763
v 0.36117980 -0.02933319 -0.17084131
v 0.04964003 0.02180208 -0.56903940
v -0.73855895 -0.06810592 0.24405539
v -0.42969778 -0.20997441 -0.16867785
v -0.52094519 0.20043127 0.27977806
v 0.67196172 0.31418616 0.18684213
v 0.55338782 0.30365089 0.17346726
v -0.58903229 -0.09846120 0.25657368
v -0.09849736 0.15888003 -0.50008875
v 0.73571497 0.00244406 0.06062753
v 0.39382747 -0.25200072 0.12388629
v -0.19978772 0.32612371 0.10667403
v 0.17657200 -0.31545776 -0.37162718
v 0.38170373 -0.12244520 -0.10982688
v -0.43224397 -0.09459141 0.12844151
v 0.44934350 0.06000546 0.15712968
v 0.53085881 -0.21057859 -0.28331995
v 0.04686944 -0.09658482 -0.41151696
v -0.54855084 -0.09911323 0.17112778
v 0.68653166 0.02384018 0.27980226
v 0.23865005 -0.28045863 -0.31936195
v -0.08342016 0.04505987 -0.44346565
v 0.33746704 -0.27800730 0.33452818
v -0.32345718 0.18306285 0.14038607
v -0.49618933 0.08523750 -0.35704887
v -0.50577098 -0.04084530 0.07938626
v -0.25356853 -0.18435554 -0.34043023
v 0.65309715 0.11636498 0.17783464
v 0.66103446 0.07524701 0.04553410
v -0.21940082 -0.08045631 -0.54215026
v -0.19554085 0.29147285 0.33421916
v -0.32842159 0.17562065 -0.09743206
v 0.45031959 -0.09447992 -0.14292616
v 0.78706253 -0.04756652 -0.12367459
v 0.48864406 -0.21378863 -0.29913494
v -0.03049170 0.02343648 -0.08744871
v 0.73381740 -0.05615737 -0.18099296
v 0.01320942 0.38834256 0.23271762
v -0.33888119 -0.10104996 -0.53397208
v 0.84160250 0.06056463 -0.09436132
v 0.39649224 0.23446947 0.25257462
v 0.55591208 0.06564341 0.17612629
v 0.69927341 0.11344464 0.21842618
v 0.28049567 -0.15238267 0.25893384
v 0.32811263 0.31933963 0.20939921
v 0.60193169 0.22483189 0.02541219
v -0.25315717 0.40615618 0.25077504
v 0.23793885 -0.24862465 0.05473839
v -0.14873555 -0.15850505 -0.52615851
v 0.07659730 -0.21375617 -0.40712002
v 0.07489271 -0.17478625 0.38093182
v 0.40915009 -0.08163221 0.15736684
v -0.62527621 0.07584727 0.22361191
v -0.00457526 0.20938054 0.42308691
v 0.62322676 -0.02767602 -0.09930994
v -0.37608507 -0.00414260 0.10288886
v -0.58785081 -0.02737376 -0.31728068
v -0.20800564 0.41969836 0.21738823
v 0.58951306 -0.03193286 0.03109851
v -0.56928664 0.01238472 0.18720892
v 0.11054844 0.31119391 0.30217990
v -0.60050368 0.09398363 -0.20718066
v -0.11717563 0.12442604 -0.51770741
v -0.70383888 -0.11079198 0.25546455
v -0.25535387 -0.11015879 -0.12708679
v -0.26248533 0.04167370 0.44703779
v -0.29324508 -0.23242436 -0.09200963
v -0.39046454 -0.04605256 0.33337438
v 0.42302462 -0.09618316 -0.00589155
v 0.46646643 0.05291738 0.31707895
v 0.00795975 0.21578430 0.37053514
v -0.37609321 0.11251466 0.32170063
v -0.66390181 0.16729103 0.14807853
v -0.78470200 -0.01144846 0.19890632
v 0.60021043 0.13054702 0.15933760
v -0.13922814 0.11367916 -0.48518369
v 0.20929517 -0.29455701 0.38863522
v 0.48408428 -0.12067026 -0.04798120
v 0.61729646 -0.05469655 -0.23520422
v -0.09492479 -0.21522899 -0.36565125
v 0.17426914 0.08671146 0.32521915
v 0.72938430 0.14423086 0.10144677
v -0.66090292 0.02032885 0.20513560
v 0.73736334 0.07280182 -0.06481963
v 0.43857825 -0.26993391 0.05482045
v -0.24033597 -0.20754385 0.30016682
v -0.20870617 -0.27270380 -0.31581146
v 0.63581228 -0.01975978 0.28076750
v -0.66510206 0.08915259 -0.02674237
v -0.69454336 0.04581501 0.13728426
v 0.63126165 -0.08884899 -0.18179464
v 0.52316070 0.08144785 0.05131365
v 0.46921825 0.27408063 0.22647785
v -0.57701647 0.12814766 -0.22471558
v -0.66039264 0.16209921 0.17424838
v -0.57782882 0.22120565 0.09126767
v 0.71266568 0.11486346 0.07444880
v -0.19714300 -0.08688125 -0.56681561
v -0.32774141 0.36211899 0.18372545
v -0.62103546 -0.01155629 -0.29530650
v -0.12966116 -0.08706656 -0.55388761
v -0.38387945 0.36405277 0.19877522
v -0.17753787 -0.23699053 -0.36906365
v -0.29770285 -0.08421601 0.21124139
v -0.04961368 -0.05640849 -0.34023935
v 0.51775670 -0.14535633 0.22432360
v -0.31030652 -0.17640683 -0.52682161
v -0.41923374 0.21209657 0.03291856
v -0.10968342 0.32642251 0.20675817
v 0.72661370 0.12922609 -0.03143626
v 0.01208173 -0.18218704 -0.40594232
v 0.33502725 -0.02846564 0.28439295
v 0.80830914 0.09006675 0.00755773
v -0.52508801 -0.07946996 -0.29743892
v 0.77189124 0.18802215 0.00567344
v -0.49452677 0.14796817 -0.36926520
v -0.72736460 -0.04162878 -0.32693619
v 0.02446061 -0.12387030 -0.39786804
v -0.30069411 0.04323661 -0.56136632
v -0.11159456 -0.05734194 0.20820212
v 0.10397409 0.01465265 0.38881087
v -0.57895839 0.14696878 -0.24250802
v -0.27141950 -0.04917014 -0.29034156
v -0.40043366 -0.00880530 -0.20798606
v -0.35760477 0.06075939 -0.02872878
v 0.30825993 0.00349033 -0.34920806
v -0.42289326 -0.04503544 -0.28043982
v -0.11929693 0.05907952 -0.55515319
v 0.34408882 -0.11832738 -0.19303732
v -0.19612482 -0.16869955 0.21775460
v 0.14846769 0.32286653 0.26127958
v -0.00406849 0.32025114 0.32463819
v -0.08249465 -0.08753429 -0.61813992
v -0.42218795 -0.14404155 0.24024019
v -0.32379717 -0.17810565 -0.22786716
v 0.37214014 0.05630592 -0.23666501
v 0.27080226 0.33619583 0.20575081
v 0.60788810 -0.02912864 -0.19674256
v 0.49714613 0.26692963 0.12368999
v 0.56639653 -0.15395340 -0.16189808
v -0.25086284 -0.24921359 -0.27594760
v -0.14947581 -0.28485826 0.27963370
v 0.17977448 -0.07813048 -0.41535032
v 0.76090860 0.11024393 -0.02578637
v -0.57325542 -0.01322091 0.18821637
v 0.47810760 -0.01280642 0.34493932
v -0.53048831 0.04359812 -0.28063190
v -0.33731240 -0.15894994 -0.42143506
v -0.16821042 -0.18447807 -0.48706895
v -0.65725523 0.04286198 -0.34331992
v -0.46536821 -0.03008260 -0.40161419
v -0.33575478 -0.06105283 -0.54013836
v -0.45436311 -0.11167516 0.31253463
v 0.33534563 0.16054139 0.23210840
v 0.42106009 -0.15687820 -0.12129883
v -0.54710454 -0.02753054 -0.27975765
v -0.19584513 -0.22288719 -0.24293375
v -0.38673517 0.07666016 0.28864390
v 0.70840633 0.13923204 -0.02793144
v -0.58495170 0.15160656 0.24608991
v -0.83237714 0.11394902 -0.17636743
v -0.51898509 -0.09348983 0.15088846
v -0.22190960 0.39079097 0.23648532
v -0.30896819 0.27161905 0.29136133
v 0.18418570 -0.15121230 0.33451146
v 0.67051840 0.28063840 0.24367528
v 0.08164414 -0.33898568 -0.04017806
v -0.63451117 -0.03885283 -0.08171882
v -0.59494787 -0.07650393 -0.08134969
v -0.63587439 0.18248333 0.18487555
v -0.36303312 0.11340889 -0.46243134
v 0.47236490 0.26029548 -0.00241039
v 0.08393836 -0.31480798 -0.30632201
v -0.23629859 0.04416149 -0.40480581
v -0.24232215 -0.23704174 -0.33504263
v 0.46976587 -0.02501698 0.30783510
v -0.61421651 -0.01527300 -0.10201378
v -0.27965522 0.08771298 0.39214557
v 0.06111952 -0.02326342 -0.07883330
v 0.43819195 -0.27403232 -0.00252213
v -0.48484519 -0.05944610 -0.31346768
v -0.66201949 0.14309937 0.01803403
v -0.45808232 0.26197469 0.22726013
v -0.66634601 0.16282655 -0.02084065
v -0.07896236 0.03201980 -0.55161870
v 0.72688389 -0.03546611 -0.16915226
v -0.40920818 -0.13786896 -0.36754125
v 0.53632361 0.25842550 0.05410755
v -0.30277386 -0.22557746 -0.10812472
v -0.53588635 0.13243695 -0.42063397
v -0.35245898 0.06377765 -0.53241831
v -0.40371835 0.11976064 -0.33165273
v -0.50007582 0.07503353 -0.35675764
v 0.63142848 0.24250770 0.15970491
v -0.67429727 0.10143338 -0.04548667
v -0.31912312 -0.09158677 -0.42174861
v -0.52857941 0.15409705 0.00945079
v 0.81460011 0.23159432 0.03794710
v -0.44876733 0.34644178 0.26840955
v -0.37690538 -0.09060140 -0.49563211
v -0.17328256 -0.03684118 -0.54037124
v -0.17242338 -0.07124315 -0.15211812
v -0.14185002 0.19476128 0.29210415
v 0.68739259 0.01392139 -0.02292568
v -0.31169486 0.14583391 -0.44435769
v 0.61538410 -0.01029033 -0.09965137
v -0.52975905 0.07700095 0.00467955
v -0.58199686 0.04444730 -0.22606936
v -0.78654850 -0.01224560 -0.14285393
v 0.69094646 0.02902599 0.30411482
v 0.68046981 -0.04301185 -0.01995397
v -0.56424302 0.19595626 0.04325832
v 0.75178909 0.03330357 0.02592313
v -0.13889828 0.26509434 0.29945409
v 0.54811597 0.33407736 0.01371633
v -0.86479664 0.06358115 -0.15881422
v 0.60735840 -0.02178950 0.02085801
v 0.33959502 -0.17296535 0.02111376
v -0.57225382 -0.07284672 0.01928953
v 0.58331919 0.23195618 -0.01411710
v 0.18219902 0.08105160 0.32094222
v 0.38039252 -0.16423395 0.14802288
v 0.20122814 0.25836143 0.11138307
v -0.59414226 -0.10381983 0.08587462
v 0.56631219 0.28855824 0.26589632
v 0.32241893 0.19384308 0.31486809
v 0.21058036 -0.27789259 -0.29352987
v -0.70706689 0.03685891 0.07890461
v 0.38709441 -0.00797381 0.12534694
v -0.24342172 0.36350772 0.21869493
v -0.44634274 -0.16691279 0.02947923
v -0.57172817 0.00125598 -0.32223877
v -0.66846126 0.12941325 0.19164668
v -0.02367905 -0.11854234 -0.41638464
v -0.29017875 0.16025499 0.34724826
v -0.10865685 0.01838141 0.28733835
v 0.00704581 -0.31740233 0.17802770
v 0.48169747 -0.18074547 -0.24741994
v -0.69871372 0.12204727 -0.34916359
v 0.42608193 -0.15521269 -0.12432887
v 0.16457662 0.34838811 0.24258624
v 0.54657888 0.28128204 0.17217202
v -0.57478547 0.05385400 -0.22157936
v -0.28555277 -0.03716461 0.45969778
v -0.48498794 -0.06080519 -0.31068456
v -0.64785480 -0.01034881 0.24095254
v -0.57937920 0.10664172 -0.19023404
v -0.65416372 0.03037345 0.15520529
v -0.63883632 -0.02950370 0.10392401
v -0.35681200 0.29066551 0.09741711
v -0.42303964 -0.16412126 0.23521735
v -0.31575894 -0.21215238 -0.48451993
v -0.65079421 0.10120791 -0.34796757
v 0.37023309 -0.25647637 -0.16170657
v -0.32493973 0.15054369 -0.44505286
v 0.65666944 0.29724601 0.19584635
v 0.51264316 0.26192585 0.27289397
v -0.29802960 -0.09947085 -0.29899910
v 0.68817645 0.12746069 0.24526806
v -0.64315033 0.19094121 -0.18774095
v -0.11340538 0.09438411 0.32902575
v -0.16817099 0.03819770 -0.45431527
v 0.22151397 -0.26906744 0.12377050
v -0.62568867 0.00171335 -0.17577237
v -0.70577359 0.17793654 -0.18722034
v -0.30413663 0.14717501 0.36131793
v 0.80298299 0.11121191 0.01350954
v -0.20789905 0.31464019 0.33206993
v 0.45870095 -0.25650853 -0.13773875
v 0.63599676 0.00136171 0.23086341
v -0.42734089 0.05155493 -0.21017650
v 0.74388719 0.00853174 -0.10785848
v 0.70925492 -0.03078964 -0.21216552
v -0.12647055 0.01991868 0.20173867
v -0.25773829 -0.04368131 0.47166863
v -0.41069597 -0.18408605 0.04306360
v 0.05437575 -0.25664997 -0.37298149
v -0.47336310 -0.09539208 -0.31849411
v 0.38274536 -0.21252505 0.12410355
v -0.24456552 0.07549734 0.44864351
v -0.49356091 0.07325494 -0.42358339
v -0.66849816 0.01546463 0.00892429
v -0.38068497 -0.21854246 0.28367865
v -0.46875530 0.34992272 0.25253087
v 0.68173593 0.11671129 -0.02659243
v -0.18376383 0.09951013 -0.45968437
v 0.51643914 -0.12413614 0.11238953
v 0.43510592 -0.14962168 0.11215628
v 0.54752010 0.03407542 -0.12347730
v -0.33261040 -0.13464540 0.35764268
v -0.81295139 0.06510738 -0.16650964
v 0.61885768 0.07530436 -0.08072508
v 0.62705863 0.01001601 -0.06572803
v 0.74079400 0.26955667 0.06883945
v -0.33076605 0.36136901 0.08437176
v -0.72316390 0.10575599 0.01443429
v -0.21975937 0.11943402 -0.32056892
v 0.17924100 0.12868822 0.37238300
v 0.39523420 -0.28993204 0.29992664
v -0.41434494 -0.17596520 0.30057472
v -0.12780726 0.22342655 0.39373097
v -0.25504926 -0.23508736 0.39672104
v -0.05696584 -0.11463740 -0.62048078
v -0.21794830 0.20609906 0.20079333
v -0.32172999 -0.14602862 -0.56946278
v -0.24205901 -0.24022591 -0.15479931
v 0.01432049 0.36545488 0.18458289
v -0.54224598 0.09417595 -0.35433728
v -0.03652324 -0.02150114 -0.54781711
v -0.28405395 -0.18126222 0.18404225
v 0.20791866 -0.30753803 -0.04662450
v 0.30768633 -0.18017325 0.01513323
v -0.36280861 -0.05932021 0.19460240
v -0.68322539 0.10846277 0.15526192
v 0.43130383 0.24825907 0.29722863
v 0.15241422 0.05444830 0.33673519
v 0.54973477 -0.03823234 0.13502972
v -0.71344626 0.12881263 -0.18998960
v 0.46961886 -0.10782197 0.23502222
v 0.23770192 -0.27754250 -0.37917784
v 0.51798743 0.05391252 -0.14581193
v 0.57421291 0.00916981 0.20240726
v 0.42273548 0.32002699 0.11833350
v 0.29711500 -0.23221359 -0.01309384
v -0.32592902 -0.21805647 -0.53997171
v 0.70150554 -0.01018703 0.00145755
v 0.44941667 0.35628343 0.15474744
v -0.54428786 0.26350537 0.20825844
v -0.07309248 -0.29416841 -0.18918364
v -0.57469159 -0.17940065 -0.03296126
v 0.27841341 -0.20035715 0.29724589
v -0.71978974 -0.02366570 -0.35268033
v 0.60100311 -0.16699894 -0.00963820
v -0.60560155 -0.06853724 -0.18514350
v 0.45008269 0.08764105 0.31191161
v 0.04204390 -0.36119676 -0.18617383
v -0.24848132 -0.17606302 -0.32929748
v 0.68805653 0.08994981 -0.02403883
v -0.11246610 -0.30724138 0.09615841
v 0.85160917 0.07624395 -0.09852117
v -0.17366704 -0.19876893 -0.49930185
v -0.39105207 -0.11814861 -0.42299148
v 0.51645201 -0.19646592 -0.06907023
v -0.68256420 0.10760947 -0.34444880
v -0.50580215 -0.02049594 0.21745548
v 0.83313996 0.25130242 0.05479013
v -0.38396972 -0.22378513 -0.04974998
v -0.28553373 0.02362070 -0.57559711
v 0.38124636 0.03685324 -0.29554862
v -0.62503523 -0.05198842 -0.33126807
v 0.71815062 -0.04571660 -0.19881238
v 0.66259050 0.16763183 0.11614636
v -0.16210619 -0.22983329 0.11142810
v 0.30169418 0.12346983 0.32707119
v -0.39759830 0.13829479 -0.26489869
v 0.14855957 0.08808246 0.30070448
v 0.79663581 0.00939652 -0.10457322
v -0.65603709 0.18192014 0.17754021
v 0.53958482 0.17580718 0.13847572
v 0.61120737 -0.18604311 -0.02911198
v -0.67470235 0.06539812 0.03272548
v 0.43978018 -0.06538292 -0.34753922
v 0.67947060 0.21245964 0.06009228
v -0.58500636 0.12468392 -0.39710289
v 0.59834510 0.00772003 0.23503768
v -0.30846339 -0.10732780 -0.33223456
v -0.53801018 0.17242283 0.27598551
v -0.39538044 -0.22305128 0.00636720
v -0.43302533 -0.24004009 -0.31603238
v -0.63668728 0.12862717 0.23329623
v 0.67434776 0.07832285 0.18987687
v -0.24628955 -0.13087875 -0.37012509
v -0.17071137 -0.00817542 -0.55076003
v 0.00543647 -0.03595581 -0.51352113
v 0.03244895 -0.33144104 -0.25575110
v -0.26517051 0.00630271 0.25223213
v -0.55486459 0.10485762 -0.06434812
v -0.40774170 0.12637939 -0.43930280
v -0.28188467 0.31238583 0.37529838
v 0.65679526 -0.08062557 -0.04669249
v 0.54428768 0.19774802 0.28241462
v 0.50375217 -0.02304057 0.33280712
v -0.41023064 -0.22257680 -0.33092684
v 0.40144864 0.32897398 0.22722183
v -0.71722555 0.06699997 0.14579442
v -0.32872504 0.24237615 0.06273673
v 0.55876958 0.14950433 0.32552546
v -0.43415430 -0.09276277 -0.27126467
v 0.57785857 0.04324798 -0.03437302
v -0.05154467 -0.19088918 -0.40630686
v -0.68288726 0.00558887 -0.16803008
v -0.26130465 0.02664602 0.44540870
v 0.66414833 0.10149653 0.02219676
v 0.51545507 -0.13962227 0.11339326
v 0.50767064 -0.13195577 0.09560522
v 0.30698800 0.29639915 0.30539888
v -0.39000660 -0.17361009 -0.00962206
v 0.55193937 -0.23278621 -0.22626737
v 0.13619921 -0.10591464 0.46377033
v 0.72627485 0.06761155 0.09048186
v -0.59307641 0.01853681 -0.41531682
v -0.62194765 0.19369762 0.21061407
v 0.69622684 0.35191768 0.07860060
v -0.44889268 -0.18801224 -0.27964443
v 0.46882322 -0.05208442 0.34909606
v 0.38132253 -0.19268298 0.17341605
v -0.55577558 -0.01858349 -0.05309639
v -0.81098044 -0.02537151 0.21025641
v -0.01799241 -0.05240924 -0.40477166
v 0.48277941 -0.18153548 0.08419907
v 0.20512053 -0.12021023 0.40351453
v 0.38969475 0.37910014 0.23731917
v -0.27080444 0.28551361 0.27395010
v 0.63748890 -0.01063977 -0.00692558
v 0.54166245 0.19829558 0.26216668
v -0.51650786 -0.07030547 -0.25369528
v -0.68083483 0.14885712 -0.19365281
v -0.39527339 0.02201131 -0.38572234
v -0.05936050 -0.33072990 -0.09294804
v 0.50769913 0.12950873 0.30313855
v 0.80343318 0.09749659 0.02080976
v -0.44023690 0.28122094 0.19009550
v -0.48219275 -0.17249362 -0.11210088
v 0.63702303 0.07833774 -0.11099254
v -0.23101911 0.22724199 0.31351042
v 0.12730382 -0.02730575 -0.41962081
v -0.67059886 0.08502531 -0.36645037
v 0.40547803 -0.22052129 0.28017849
v -0.43375576 0.20526880 0.05241024
v -0.68783957 0.07996192 0.20059615
v 0.33980748 -0.21483573 -0.38381299
v -0.49244484 -0.05144042 0.25343367
v 0.82177603 0.04264183 -0.16901077
v -0.16564149 -0.19068253 -0.47793061
v -0.28110442 -0.04106338 0.29355046
v -0.60628998 0.05096915 0.20348255
v -0.63769239 -0.09027949 0.22520886
v -0.63039398 -0.06120374 -0.00357325
v 0.46205553 -0.18990928 0.20837088
v -0.45440334 -0.19013725 -0.30288458
v -0.53079677 0.01877290 -0.22641957
v 0.20938700 -0.20483716 -0.42553657
v -0.56720084 0.07037851 0.27997428
v -0.18612134 -0.04422374 0.35573554
v -0.68991333 0.05144540 0.13510659
v -0.26329502 0.09850299 0.42311552
v -0.77056050 -0.03211553 -0.32876906
v 0.32777151 0.19385771 0.33573568
v -0.30754858 -0.17634177 -0.28085899
v -0.41533807 0.08323170 -0.34534878
v 0.06653678 0.32626063 0.11669391
v -0.03511188 -0.04739689 -0.52153534
v 0.38546354 -0.25879249 0.09212358
v -0.10779360 -0.31510723 -0.02035740
v -0.46253550 -0.17757665 0.00196417
v -0.47269088 0.24469844 0.25942171
v -0.41785794 -0.26130515 0.17578182
v 0.72550613 -0.06673694 -0.19423431
v -0.54772544 0.03685260 -0.28124037
v -0.38244367 0.36545253 0.21295911
v 0.09986727 0.17163014 0.34346145
v 0.90023983 0.11807857 -0.15204868
v 0.63246393 -0.05712152 -0.21591687
v 0.73960418 0.05618992 -0.12382790
v 0.42178369 -0.16842970 -0.04664880
v 0.69616181 0.11918922 0.20405817
v -0.55826366 0.11105632 -0.42140442
v -0.14728157 0.13140461 -0.51263344
v -0.11127084 -0.30595961 -0.14533073
v 0.35870075 0.04361961 0.40575308
v -0.61088389 0.09148704 -0.24054360
v 0.33771852 -0.16557972 0.22198655
v 0.76261175 0.18187559 0.14525393
v 0.44801530 -0.01082039 -0.23461653
v -0.62462509 0.12903386 0.24892090
v -0.33543709 -0.28148955 -0.35522553
v -0.60485631 0.11463571 -0.33234417
v -0.06536984 0.39250138 0.21289857
v -0.35726920 0.37940606 0.25631222
v -0.30006868 -0.11220489 0.38581723
v -0.27163905 0.34110418 0.34856337
v 0.18469362 -0.10607866 0.42999512
v 0.33324078 -0.26628321 0.11511242
v 0.80766255 -0.04355846 -0.15242434
v -0.66887558 -0.00509889 0.10785989
v -0.02252279 -0.02656915 0.41451427
v -0.38890615 -0.11658391 -0.36590537
v 0.58207190 -0.11900468 -0.00430495
v 0.17516103 -0.09998670 -0.42641068
v 0.29598632 0.04651612 0.44103643
v 0.32721224 -0.03140961 -0.38269565
v -0.35462952 -0.25691521 -0.18603188
v -0.45218289 -0.16269159 0.01580922
v -0.30241457 -0.23475307 -0.49604467
v 0.79017150 -0.06137460 -0.15107857
v 0.42993581 0.12207903 0.32232189
v -0.30087093 0.34991646 0.19249174
v 0.25305018 -0.23228994 0.16171214
v -0.38909876 0.19912079 0.35875839
v -0.60435504 0.10988811 -0.32566458
v 0.33962440 0.00931584 0.10441617
v 0.02068279 0.13311918 0.39031351
v -0.68930089 0.16749324 -0.19048093
v -0.00656137 0.26829714 0.30531573
v -0.02785083 -0.02629513 -0.08310761
v -0.55344248 0.11505151 -0.40892911
v -0.35651422 -0.00881952 -0.04735174
v -0.58340871 -0.00769029 -0.32430252
v -0.05321057 0.35208514 0.35968846
v -0.22021931 -0.28079370 0.37480220
v 0.40286824 -0.07106571 0.25593922
v -0.42266321 0.18635485 0.32665148
v -0.26887426 0.11662550 -0.36012304
v 0.25246832 -0.23874520 0.10525694
v -0.70968288 0.10017824 0.12813684
v 0.47075567 -0.07181177 -0.31043139
v -0.46748689 -0.02729437 -0.25583464
v -0.13025409 -0.28716260 0.27361217
v -0.37519908 0.11227556 -0.45659971
v -0.30279011 0.04040706 -0.53616440
v 0.32353953 -0.20153922 0.20716526
v 0.52507651 -0.13990606 0.20654395
v -0.44974676 -0.09836572 -0.30157429
v 0.38471955 -0.11398365 -0.14751899
v 0.46596059 -0.04144543 0.31673956
v 0.17288296 -0.01186612 0.42766759
v -0.50841123 -0.15305318 -0.13055415
v 0.38327369 -0.29905701 -0.17352909
v -0.38492927 0.02968414 0.32855201
v 0.60512602 -0.22093390 -0.09427906
v -0.55984759 0.29677731 0.21216218
v -0.49604970 0.19405878 -0.20876689
v 0.61474967 0.10986760 0.01879244
v -0.16934451 0.13176003 0.30553758
v -0.64349234 0.16202484 -0.19416276
v -0.12752201 -0.16687563 -0.50154030
v 0.27116150 0.28574765 0.24282455
v 0.52184004 0.15224709 0.10038675
v -0.61855084 0.17292909 -0.00019428
v 0.53063375 0.22361675 0.14866351
v -0.57479334 -0.01474193 -0.05607289
v 0.53418356 -0.11425572 0.17576773
v -0.58543223 0.10869752 0.00015309
v -0.48226127 -0.01529078 0.13328423
v 0.05169543 -0.34716666 -0.16009694
v 0.07857067 0.13361676 0.37283948
v 0.17847857 -0.31138188 -0.15247922
v -0.44532102 0.37620836 0.15064783
v -0.60414779 0.09829077 -0.36120555
v 0.26012236 -0.11115685 0.18643874
v -0.61861956 0.18817319 0.09209637
v -0.32420790 -0.04946308 0.41070795
v -0.42565489 0.10747961 -0.26176417
v -0.51077998 0.16772939 -0.22058423
v 0.87909698 0.13169420 -0.15395936
v 0.44277355 0.16799550 0.28017175
v 0.21109715 0.34998667 0.20015992
v 0.40548521 0.27778405 -0.04895536
v -0.32605124 0.24878500 0.31422430
v 0.52366984 0.02653460 -0.20366995
v 0.50321853 -0.00113458 0.14532097
v -0.14868064 -0.20238775 -0.49042174
v 0.13532895 0.01410992 0.37510645
v -0.29229185 0.06857630 -0.52811456
v -0.44675872 0.02839246 -0.40294990
v -0.12134828 -0.04814838 -0.51350629
v 0.38451535 -0.30855152 0.07360702
v -0.38515908 0.05345346 -0.28470039
v 0.62990946 0.00109311 0.33066773
v -0.12005726 0.25741908 0.42761368
v -0.42205787 -0.16404620 -0.38449669
v -0.51844144 -0.14562547 -0.11841777
v -0.41896391 -0.06068117 -0.42648673
v -0.36657095 -0.21297924 0.30283809
v 0.47240037 0.00747629 0.10972714
v 0.52003568 0.13970596 0.30434477
v 0.66009909 -0.08274496 -0.14177948
v 0.40692547 -0.31350359 0.02988388
v -0.41587618 -0.26979762 -0.11094067
v 0.65672457 0.12616062 0.12905809
v 0.01501143 0.21460545 0.33228955
v 0.06238256 0.30618343 0.36875069
v 0.45570806 -0.22294526 -0.29084504
v -0.63355893 0.15024610 -0.22287582
v -0.55231398 0.07748365 0.28252921
v 0.47028425 0.23221643 0.21604970
v 0.25634602 -0.13404439 -0.44156981
v -0.36958203 -0.03425592 0.24433891
v 0.69080597 -0.03305540 -0.05659486
v -0.32959348 -0.14482985 0.33784968
v -0.34283960 0.18972518 0.37035620
v 0.42343900 0.19578433 0.27150100
v 0.31178409 -0.22493817 0.19740210
v -0.05604536 -0.21564156 -0.38254309
v 0.62461078 0.06901209 0.18363237
v 0.72214276 0.03445451 0.03047257
v -0.10584413 0.01775815 -0.45574194
v 0.53874248 0.14341134 0.16116925
v -0.37497917 -0.22634576 0.32370147
v -0.15757123 -0.21020490 -0.24521284
v -0.35151172 -0.21338424 -0.30384147
v 0.52927083 -0.20707919 -0.24531537
v 0.69876868 0.09966909 0.26455784
v -0.38217044 0.09183799 -0.47400695
v -0.27938646 -0.24895613 -0.46378195
v 0.31742957 -0.31664565 0.34790686
v 0.36040348 0.33065730 0.25206798
v -0.30653399 -0.10221100 0.07675225
v 0.49654219 0.34495836 0.14675367
v 0.16402991 -0.21704109 0.28748980
v 0.07644469 0.19191930 0.30841547
v -0.37307692 0.14224774 -0.43906277
v 0.60960859 0.10735841 -0.01930690
v 0.60984641 0.18909216 0.29154268
v 0.45860261 -0.20446347 0.04421512
v -0.43993533 0.14071113 0.27774462
v 0.79990631 0.06154597 0.00623144
v 0.06702108 0.17272882 0.46334535
v 0.76997095 0.07641320 0.06406683
v 0.47454125 -0.07104363 -0.18149945
v -0.68820059 0.05488189 0.04857940
v -0.64818007 0.02478594 0.15043949
v 0.63444370 0.20346445 0.09295389
v -0.09345087 0.11134876 -0.53636098
v 0.52570122 0.00256155 -0.21326624
v 0.61667895 0.02119481 -0.10755675
v 0.66750604 -0.02128312 -0.11952133
v 0.46623304 0.05475235 0.31283408
v -0.17184789 -0.06923594 -0.53485394
v -0.38964084 0.33138680 0.33410573
v 0.77062827 0.20372562 0.00418860
v 0.73196459 0.07635137 0.15831189
v -0.47093219 -0.19927408 -0.27751386
v -0.52014446 -0.16965449 -0.26742613
v -0.21670680 -0.22307673 0.18753555
v 0.67803723 0.13434377 0.16831400
v -0.37434432 0.15292957 -0.43570650
v -0.36941665 -0.08788384 -0.48828852
v -0.14152282 0.37076262 0.35159427
v -0.37811700 -0.09585688 -0.45791447
v -0.32180515 0.01133355 -0.51389080
v -0.41905102 -0.05791625 -0.45726898
v 0.56475371 -0.01453748 0.11634962
v 0.65123010 0.17335753 0.25488138
v -0.64766663 0.03833080 0.00650261
v 0.37693459 -0.19126365 0.14724480
v -0.13484485 -0.26012158 0.23755783
v -0.43269762 -0.10610725 -0.05675846
v -0.24415670 -0.11315906 -0.59906608
v -0.53018892 0.12856975 -0.41164261
v -0.65096736 0.15454267 -0.17734882
v 0.50986457 -0.18833418 0.19645058
v -0.50311655 0.10644653 -0.07723526
v 0.63934404 0.14316627 0.05097312
v -0.42188269 -0.03232126 0.09398575
v 0.18091458 0.15309736 0.23723674
v 0.11239170 -0.25002784 0.31636482
v -0.59393400 0.16917640 -0.35616085
v 0.69687480 0.08804829 0.16929711
v -0.62098217 0.18895227 0.07925957
v -0.10782064 -0.19717003 -0.59123784
v 0.62776864 -0.13875976 -0.03785712
v 0.36116236 0.18965270 0.21755709
v -0.69813257 0.12568411 0.10659090
v -0.37686485 -0.05550650 0.00712644
v -0.48164290 0.08285527 -0.41353106
v 0.17894171 -0.14676455 -0.47508484
v -0.17513718 -0.23308706 0.40453219
v -0.20217489 -0.10579248 -0.45942736
v 0.51987737 -0.15768489 0.06584713
v 0.71713823 0.11446427 0.07191963
v -0.14502245 0.06897729 -0.55536699
v 0.59365290 0.02926322 -0.17883711
v 0.59408414 -0.07798153 0.01465742
v 0.69699246 0.00877677 -0.02365512
v -0.12941822 0.02325181 -0.57235909
v 0.73454612 -0.09211850 -0.06054428
v -0.43725067 0.01242814 0.05461787
v -0.25168768 -0.08065724 0.39007679
v 0.72983110 -0.04810289 -0.18971391
v 0.71195328 0.26134911 0.24040769
v 0.30788210 0.11063257 0.24951774
v -0.49665019 0.22104503 0.16003171
v -0.55772305 0.03704466 0.24974991
v -0.56982982 0.17019558 -0.33428687
v 0.80632317 0.24870054 0.07796308
v -0.67046100 0.02811707 -0.32869229
v -0.84752274 0.02494501 -0.14738448
v 0.52795458 -0.19377664 -0.28511092
v -0.16539194 -0.26177266 -0.58094436
v 0.41282997 -0.18234006 0.28927559
v 0.41474769 -0.20103335 0.11412230
v 0.15915902 -0.09372279 0.43494830
v -0.65060973 0.04123721 -0.24070892
v 0.60260576 0.08970252 0.18213518
v -0.50972325 -0.11431718 0.25140709
v -0.64540070 0.06319354 -0.18233287
v -0.14238971 0.22806714 0.39198273
v 0.04102775 0.33252361 0.33375341
v 0.27097195 0.24133228 0.00479249
v 0.68792140 0.10595772 0.22615649
v -0.75354737 0.09647377 -0.16308889
v 0.36941025 -0.33544227 0.26063848
v -0.39597899 -0.00468944 -0.20390445
v -0.67012519 0.17201021 0.11572722
v 0.09551381 0.39800990 0.21700248
v -0.22606377 -0.11394778 -0.59876406
v 0.34716341 -0.21755818 0.34594429
v 0.74687558 0.00416894 0.05583910
v -0.25545797 -0.06918152 0.28017700
v 0.54627794 0.28895807 0.12600434
v -0.27141553 0.40048003 0.23443414
v 0.33507055 -0.09349939 -0.06405766
v 0.71085542 0.18903291 0.12344883
v -0.08640873 -0.04628847 -0.57059711
v 0.54526097 0.09877318 0.31863528
v 0.28693172 0.19871885 0.31700397
v 0.73383111 0.06417181 0.14756905
v 0.03404441 0.20458475 0.32078943
v -0.16024855 0.23910345 0.42765337
v -0.36576056 0.25081426 0.33393908
v -0.62799531 0.01415336 -0.42009246
v -0.44734946 0.05697752 -0.37695044
v -0.30298659 0.09329806 -0.53180987
v -0.65461558 -0.03850171 0.08130811
v -0.17887034 0.34506717 0.32308567
v 0.30050060 0.07709798 0.14241150
v 0.72544003 0.05378360 -0.09895570
v 0.44840771 -0.24683835 0.19466013
v -0.55387759 0.06251762 -0.37791520
v -0.21671598 -0.18467937 -0.35403574
v -0.29490739 0.37124571 0.09078543
v 0.29710945 -0.26862070 -0.23474382
v 0.13346922 0.10438783 0.30739039
v -0.37036309 -0.16722420 0.29399425
v 0.41986918 -0.18921185 0.10384275
v -0.40125516 -0.26366863 -0.13926934
v -0.56173247 0.00268416 0.20167525
v -0.07981364 -0.16259706 -0.28248557
v 0.70218378 0.22853699 0.05408932
v 0.43775377 0.22274637 0.30298597
v -0.39512736 0.01767793 -0.26434883
v 0.27990559 -0.26708281 0.02100740
v 0.58399266 -0.18393165 -0.16082498
v 0.53213191 -0.02859052 0.13670109
v 0.11612485 0.08432180 0.11455420
v -0.64559442 0.07354484 -0.05396944
v -0.47588629 -0.00878023 -0.36533198
v -0.14057876 0.05650287 0.23032582
v 0.30261928 -0.10842132 -0.29603821
v 0.70369256 0.10526395 0.24442767
v 0.05356604 -0.12441202 -0.42718202
v 0.26097861 -0.26780546 -0.02955666
v 0.46195611 -0.21081316 -0.30902272
v 0.39102772 0.16518974 0.29222018
v -0.09511128 -0.31479853 -0.51552814
v 0.44650638 0.02583828 0.33658874
v -0.23454036 0.05186483 -0.57478011
v 0.06849397 -0.19226740 -0.47213674
v 0.36018726 -0.20026954 0.20086381
v 0.69311190 0.11930826 0.24996580
v -0.07163558 0.10389618 0.35896313
v -0.72731948 0.07002162 0.13174586
v 0.19694471 -0.04058571 -0.40242198
v -0.36451522 0.01225090 -0.44733936
v 0.28236049 -0.26231202 -0.04873533
v 0.01930267 -0.06634358 -0.37873858
v -0.31135041 0.28432703 0.26432583
v 0.44220462 0.06547895 0.33811677
v -0.49926278 -0.15264273 0.00161166
v -0.55967385 0.06616993 0.26612163
v 0.30213749 -0.09163088 0.28515518
v 0.27593279 -0.13843276 -0.04586777
v -0.40741503 -0.15962271 -0.41189626
v -0.33739343 0.12805714 -0.49346098
v 0.59359312 -0.17982072 -0.07287274
v -0.71824503 0.04361784 -0.18336442
v -0.48032469 -0.10046462 0.26563877
v -0.25083786 -0.22812600 -0.11332183
v -0.55985957 -0.05376069 -0.13122144
v -0.19703029 -0.02147646 0.41620091
v -0.32249647 0.12687600 -0.39547023
v 0.80956775 -0.03805450 -0.13366367
v -0.13290508 -0.29531920 0.23412465
v -0.45810622 -0.19397998 -0.19750492
v -0.66639990 0.04739844 -0.28926370
v 0.45326513 0.06459896 0.14925265
v -0.12679246 -0.20189530 0.36313391
v 0.50238138 0.21912324 0.16409375
v 0.46378577 -0.01453315 0.16323422
v 0.58764803 0.28460380 0.26355261
v 0.41645390 -0.16496006 0.26030791
v -0.50913644 0.10926638 -0.27643266
v -0.10774221 0.20199746 0.38940519
v -0.40075386 0.04992596 -0.27574384
v -0.34573713 0.26842141 0.29676914
v -0.63463110 0.03672936 -0.32770875
v -0.34884620 0.07494873 -0.48349610
v -0.51064456 0.26241648 0.19029978
v 0.46520963 -0.13871281 -0.15226354
v 0.46457845 -0.29061162 -0.02712190
v -0.67069036 -0.03688235 -0.35016513
v -0.48448834 -0.10418431 -0.38187325
v -0.35981756 0.03255286 -0.44239217
v 0.27995974 0.11796124 0.39476088
v 0.71943808 0.16017477 0.14620562
v -0.47700506 -0.04139967 -0.44251949
v 0.09775934 -0.32461056 -0.18441519
v -0.29015976 -0.23669589 -0.12709145
v -0.54734987 0.28537989 0.19088401
v -0.68474311 -0.04522362 -0.17534891
v 0.17576361 -0.06386290 0.46247441
v 0.65281022 -0.01878105 0.32255137
v -0.13763794 -0.28811738 0.23673528
v 0.57299960 -0.06505347 0.15317097
v -0.46381751 0.10253656 -0.36193520
v -0.15299393 -0.15998502 0.18369952
v 0.06571693 -0.30178374 -0.23328947
v -0.11019867 -0.17623666 -0.57782441
v -0.31773281 0.04683199 -0.56314778
v -0.63571686 -0.04674074 -0.19450620
v -0.58817524 0.06987731 -0.05719366
v 0.75873405 0.09288948 -0.04054305
v 0.44637266 -0.18821897 -0.16433384
v 0.15318616 -0.13670397 0.30207533
v 0.67064518 -0.05967651 -0.08252168
v 0.51007646 -0.16409458 0.22472163
v -0.29731438 0.15758942 -0.40686923
v -0.35415217 0.30611685 0.20648029
v 0.38646337 -0.13314572 -0.09304518
v 0.49739212 0.22417656 0.08051908
v -0.36942345 0.15192044 -0.43802369
v 0.26425150 -0.20224980 0.12651512
v -0.25734472 0.26997149 0.32288879
v -0.41327900 0.13150097 -0.34157902
v 0.57433170 -0.12482207 0.04767199
v -0.17130366 0.18959759 -0.45200735
v -0.46228096 0.12984392 -0.39937145
v -0.43894601 0.04766237 -0.13775848
v -0.53591979 0.22374457 0.23540971
v -0.45535240 -0.02596903 0.31040171
v 0.57460237 0.13136205 0.15501465
v -0.38037011 0.05195432 -0.48125243
v -0.55110049 -0.11689158 0.27207214
v -0.36748338 0.00493722 0.38700637
v -0.22879863 -0.30587459 0.10248487
v 0.00984661 0.16505381 0.36602336
v 0.75135690 0.32846022 0.15112503
v -0.48147249 0.15931994 -0.35607532
v -0.60538012 -0.14751124 -0.07812689
v -0.67630613 0.14454585 0.14116469
v -0.01846614 -0.04452680 0.40906221
v 0.72808838 0.09724435 0.15644424
v 0.73079091 0.35111958 0.13840854
v -0.38186425 0.14686356 -0.43579346
v 0.58584607 -0.04897919 0.22690497
v -0.00953579 0.36484060 0.18344499
v 0.34772483 -0.17839165 -0.10291903
v -0.60501486 0.15855803 0.00356933
v -0.48620874 0.08821534 -0.35807806
v 0.62851429 0.25422236 0.00256318
v -0.07388753 -0.10004111 -0.58557963
v -0.58180100 0.29228330 0.21526766
v 0.10428517 -0.29862958 -0.20381770
v -0.04097380 0.05052660 0.27220756
v 0.79984975 0.02974563 -0.13526732
v -0.70552081 0.10510380 -0.17567310
v 0.53700209 0.01164047 0.12688138
v 0.24919808 -0.00875479 0.21080714
v -0.45993873 0.02381567 -0.38619119
v 0.45046869 -0.06852879 0.31918779
v -0.46547329 0.38794771 0.12009783
v -0.73853981 0.03555409 -0.16522953
v -0.32526425 0.10159164 -0.37317473
v 0.39283305 -0.04614951 -0.33853123
v 0.70132577 -0.03058087 -0.02241439
v 0.50435162 -0.05198079 0.05076703
v -0.39976180 0.01860856 -0.02548981
v -0.48900887 0.17961514 -0.22221223
v -0.58783114 0.21324499 0.17315362
v 0.56315070 0.08868708 0.17513976
v 0.34203213 0.05044877 -0.26563966
v -0.34828776 0.11244332 0.14227261
v -0.58074665 0.01439733 0.18259439
v -0.14983042 0.18786180 0.42689610
v -0.48898655 -0.20725079 0.13166420
v 0.47262049 -0.19602796 0.23583613
v 0.60139388 0.12369178 0.03627568
v 0.11969929 0.29693973 0.31448275
v 0.16538286 -0.30856770 0.08832994
v -0.23751047 0.32351106 0.16840692
v 0.26259670 -0.30240092 0.36815751
v 0.64542103 0.09972340 0.03161918
v 0.53766513 -0.25459847 -0.06805746
v 0.00788343 0.22687206 0.43362221
v -0.31234848 0.28157446 0.37984759
v 0.68468630 0.14235544 0.01884885
v 0.19350851 0.02483508 -0.52071053
v -0.16556531 0.30974811 0.19724979
v -0.18338883 -0.25838351 -0.44182885
v -0.35496190 -0.22060445 0.29158023
v -0.68863630 0.09954632 -0.05172732
v -0.15752243 0.01481184 -0.44885564
v -0.69409806 0.09240475 -0.18771954
v -0.14130670 0.31802946 0.20871329
v -0.09067621 -0.20387176 -0.58433026
v -0.36668399 0.30927551 0.29974100
v 0.41912067 -0.15278611 0.23262540
v -0.41891101 0.14504193 -0.34705943
v 0.65364140 0.24445087 0.27503124
v -0.41396993 0.28380609 0.20276079
v -0.42074820 -0.23320183 -0.32008159
v -0.54551333 0.02860172 -0.12017123
v -0.50405836 -0.17718032 -0.24283734
v 0.22862703 -0.04976694 -0.21927215
v -0.45407790 0.13280070 -0.02856603
v 0.45268735 0.27937084 0.26188755
v -0.09866475 -0.30155444 0.01802313
v -0.42594424 -0.05994035 -0.48491439
v -0.66651803 -0.06845944 -0.17597300
v -0.39477316 0.15359321 -0.27510297
v -0.18603407 0.30274871 0.39938420
v -0.48693931 -0.03607785 -0.25868133
v -0.25911123 0.08030014 0.26599687
v 0.37268335 -0.08122185 -0.21534351
v 0.47273618 -0.16595231 0.02430918
v -0.67359078 0.02689312 0.15075094
v -0.03013624 0.12956637 0.44767261
v -0.20404592 -0.08940237 -0.46116173
v 0.66997540 -0.03199197 -0.09105196
v -0.05646669 -0.15310074 -0.57344311
v -0.45978048 0.11910401 -0.33492881
v 0.40787107 -0.04569847 -0.24730584
v -0.41576844 0.19203652 0.34427965
v 0.34292665 -0.07080793 -0.16169254
v 0.54880732 0.10556050 -0.10713247
v 0.48108840 -0.22099854 0.16771077
v 0.12519372 -0.15228847 -0.47575641
v -0.50556129 -0.18658786 0.15697482
v 0.43023631 -0.05441448 0.18867514
v -0.46728936 -0.15710610 0.25383192
v -0.15908775 0.22734034 0.37936765
v -0.02957546 -0.07572079 -0.42833507
v -0.45975482 0.00121801 -0.32648587
v -0.50355566 -0.02503741 0.26915908
v 0.53326678 -0.14108849 0.22820461
v 0.76643008 0.26671851 0.19791447
v -0.06554079 -0.17138679 -0.39126217
v -0.41586891 0.15838966 -0.27592170
v -0.44023293 -0.07042051 0.08525679
v 0.31657279 -0.05844887 0.24229312
v -0.73222768 0.06723581 0.05170257
v -0.43857238 0.31451523 0.28785932
v 0.54045081 -0.10178792 -0.30944702
v 0.72101343 0.13488135 0.09047062
v 0.28418720 -0.07201850 0.03668605
v 0.36499101 0.16307940 0.17520443
v -0.63730973 0.00460398 -0.04106485
v -0.59074056 -0.00610236 0.19485649
v -0.56552118 -0.09150451 0.06788296
v -0.24988168 -0.13203077 -0.36833346
v -0.48755875 0.11346045 0.26463932
v -0.50046140 0.35748261 0.08338313
v -0.48469245 0.09036358 -0.36273074
v 0.63516611 0.11854617 -0.06340791
v -0.45535007 0.15894943 -0.38275665
v -0.54604834 0.14886537 -0.23583938
v -0.26865581 0.21126181 -0.09944846
v 0.51694477 0.16958715 -0.03496980
v -0.25488660 -0.26555729 -0.23738948
v 0.23622616 0.31968600 0.31127170
v 0.67549485 0.07444362 -0.03415564
v -0.33904338 -0.02439308 0.41504881
v -0.46264216 -0.10968070 -0.39596218
v 0.46898776 -0.15104070 0.17828448
v 0.19758463 -0.08469997 0.32323179
v 0.04876157 0.37065011 0.12097685
v 0.63110995 0.01661067 -0.13823065
v -0.55369949 0.14272049 -0.18834275
v 0.41427159 -0.04401766 -0.33351308
v -0.50935334 0.15564370 -0.09429537
v -0.21245018 0.11250850 0.41929105
v 0.79470474 0.03180740 -0.11824194
v 0.02584305 0.14053237 0.30765224
v -0.23183504 0.00268003 -0.59031284
v 0.50869137 0.23762123 0.17887013
v 0.37667945 -0.14876050 0.31809616
v 0.51846248 -0.02281231 0.25804347
v 0.69090474 0.32026049 0.05316678
v 0.67687833 0.10506701 0.01871166
v -0.68646771 0.03144448 -0.33293185
v 0.38073856 0.22677210 0.14044839
v 0.76645344 -0.04915995 -0.22163053
v 0.65887117 0.13853501 0.11815684
v 0.34133303 -0.34345210 0.26474404
v -0.31644353 -0.08202876 0.25612110
v 0.31706369 -0.06472498 -0.18822521
v 0.58867878 0.20501608 -0.01993918
v 0.57449818 0.29341030 0.19392961
v -0.61804914 0.20713094 0.06488402
v -0.40672156 0.29142523 0.20238955
v -0.39228490 -0.00604199 -0.38986385
v 0.17096594 0.07380337 0.13170178
v -0.10347383 -0.24662365 0.37401879
v 0.59086972 -0.07427529 0.22803380
v -0.23213801 0.02077998 -0.57100421
v 0.54258931 -0.02840970 0.14227743
v -0.08778650 -0.17772225 0.43389767
v 0.76069146 0.27235767 0.19202283
v 0.58289492 0.16445795 0.12778942
v -0.17401776 -0.11216651 -0.43585503
v 0.59151071 -0.02358355 0.03250328
v 0.66795057 0.05312310 0.04385374
v -0.24511597 0.13686025 -0.49278149
v 0.46672896 -0.18556713 0.03614264
v -0.38658765 0.12940562 -0.28703299
v -0.71523267 0.05017029 -0.18650576
v -0.65089715 0.14304543 -0.02288371
v 0.47787064 -0.20039362 0.24722864
v 0.31687573 -0.03578840 0.30626693
v -0.12576066 -0.15002508 -0.56901520

