# https://github.com/mikedh/trimesh
v -0.22392622 0.00565459 -0.56525701
v -0.60519975 -0.14298022 -0.15861554
v 0.26693934 -0.40139431 -0.00666879
v 0.50643456 -0.19960281 -0.15866429
v 0.62973988 0.07201321 0.02369431
v 0.70763075 0.16200568 0.00491727
v -0.49509609 0.09878604 -0.16212377
v -0.18415648 -0.33662158 0.34682763
v -0.33152556 0.36416304 -0.08130094
v 0.61597365 -0.02622357 0.07822621
v -0.50805694 -0.31394616 -0.27830920
v 0.80042231 0.13334683 -0.06739217
v -0.56910998 -0.17207663 -0.05997106
v -0.13173637 -0.06585188 -0.59780216
v -0.54420894 0.05629723 -0.19128674
v 0.59254897 0.02808743 -0.00002387
v 0.31375504 0.12910658 0.25960085
v -0.61660063 -0.21509138 -0.03785963
v -0.27939636 0.12233744 -0.44707829
v -0.00981737 0.13326442 0.44676417
v -0.77466035 0.12416519 -0.00197915
v -0.49642897 0.30631381 -0.01257807
v 0.66791844 0.11288910 -0.02720605
v 0.14500460 -0.23610604 -0.51486313
v 0.11419128 -0.25470543 -0.25924683
v -0.27531347 0.05768794 0.28927708
v 0.51559550 -0.11894350 -0.17013155
v -0.23824480 -0.02979387 -0.49854654
v -0.55868280 -0.29362893 -0.00597407
v -0.26719058 0.19698599 -0.31159261
v 0.43264887 0.04092652 0.18632272
v 0.82084680 0.16146749 -0.00793456
v -0.14759572 -0.18009298 -0.59135538
v 0.05765207 -0.00141013 -0.54378623
v 0.73629355 0.04089617 -0.02136888
v -0.66125649 0.19452938 0.03559896
v 0.27938855 0.27245304 -0.26446310
v 0.19763815 0.22561410 0.40144578
v 0.37815067 0.28445345 0.16155681
v -0.27246073 0.02170728 -0.50163507
v 0.00523214 -0.00424175 -0.53001243
v 0.56757724 -0.02756302 0.04481438
v 0.38726157 0.29315090 0.05990699
v 0.22801752 -0.36415592 -0.41152301
v -0.43418759 -0.16402823 -0.34411228
v 0.32013896 -0.23180106 -0.40377983
v -0.70735407 0.11289191 0.05232048
v 0.66577822 0.18798569 0.00579464
v -0.40015936 0.32779253 0.11186227
v 0.57160085 0.26317167 -0.01909527
v -0.66601568 0.07806034 0.01852475
v -0.50180334 -0.14201248 0.14487135
v -0.59723389 -0.06124039 0.08864294
v -0.37904799 0.19983581 0.25745040
v -0.46893233 -0.35950109 -0.01184629
v 0.41001475 -0.21984661 -0.18684945
v 0.15497507 -0.37964237 -0.14758807
v 0.36033496 0.14225049 -0.29803053
v -0.68042743 0.11588880 0.03667518
v 0.37661493 0.07139314 -0.16231838
v -0.41258669 0.22609700 0.28053033
v -0.13505195 0.39109731 0.33737218
v 0.05200532 0.40305799 0.30935472
v 0.47762004 0.24375995 0.09487510
v 0.54935980 -0.13505004 -0.02818415
v 0.36489502 -0.20305844 0.23076588
v 0.69891435 0.24825099 -0.02276904
v 0.22341527 -0.25452018 0.39960968
v -0.17182037 -0.09191866 -0.54896754
v 0.59681225 -0.07490171 0.08203036
v -0.59470755 0.21547711 0.03087312
v -0.52943325 0.29074025 0.15194665
v -0.20998594 0.16858768 0.37656522
v 0.39715502 0.01644938 0.22500983
v 0.37118497 -0.28913596 0.28032523
v 0.43822765 -0.15933461 0.17380267
v 0.02691865 0.24576065 0.46872833
v 0.39529902 -0.32408106 0.01151145
v -0.64984530 0.18763557 0.01464159
v 0.52131355 -0.18459499 -0.05833143
v 0.56041765 -0.08986240 -0.13728923
v 0.68421817 0.12222701 -0.06256069
v 0.69803309 0.18246636 -0.01084922
v -0.06976710 -0.45484459 0.08371466
v -0.29785025 0.38822597 -0.05487087
v -0.32100341 0.16293032 -0.29685816
v -0.21846166 0.40271997 0.30191976
v -0.53574377 0.29818156 0.00372165
v 0.50680017 -0.15250529 -0.20486380
v -0.27369007 0.34706432 0.26879182
v -0.53299493 -0.10079315 -0.00165299
v 0.71107835 0.16466077 -0.02008834
v 0.57761043 0.23248540 0.05760670
v -0.18057156 0.01038384 0.38245356
v -0.53316474 0.04294783 -0.15288189
v -0.67866147 -0.01318042 -0.02575888
v 0.21334620 0.21639922 0.28251427
v 0.34457201 -0.07396646 0.29151052
v 0.15698621 -0.40637344 0.16452241
v 0.53246623 0.26189804 0.00676692
v 0.88407171 0.36082882 -0.03117719
v 0.05748510 0.44735128 -0.00202990
v -0.11668431 0.14866528 0.48095480
v -0.73338950 0.10470814 -0.00335568
v 0.36473647 -0.19610345 -0.13508946
v -0.37516069 0.19513470 -0.12838808
v -0.27911568 0.37154523 -0.12954587
v 0.59746975 0.01632607 -0.13839792
v -0.75261056 0.13088883 -0.02101332
v -0.65983367 0.02720109 -0.01459286
v 0.05842515 0.00767529 -0.48436838
v -0.17624117 -0.31042978 -0.51949704
v 0.56796116 -0.22130750 -0.12367240
v -0.12840037 0.23615459 0.44404382
v 0.72137606 -0.00243482 -0.04104173
v 0.65113711 -0.01790032 -0.03209294
v 0.22713433 0.17830351 0.42326766
v -0.24132870 0.01163588 0.44260347
v 0.52168369 0.12986481 0.05730680
v 0.42007941 0.32907787 0.10192706
v -0.49415666 0.05976703 -0.26052067
v 0.54695183 0.02043051 0.08905351
v -0.54806930 -0.02429608 0.24867812
v -0.27869743 0.13748872 -0.33933994
v -0.54412234 0.25514978 0.08640191
v 0.15369073 -0.03514107 0.47338757
v 0.52033865 -0.05218437 0.08219123
v 0.14560637 0.42873746 0.19900118
v 0.66667306 0.08882245 0.03536288
v -0.69324946 0.19815001 -0.00881393
v 0.52300453 -0.16087754 0.13073660
v -0.20003319 0.42274606 0.09868774
v 0.63633406 -0.14057076 -0.01954433
v 0.50371617 0.20809051 0.08878240
v -0.52512074 0.01244750 -0.20236242
v 0.28541684 -0.32842931 0.20755568
v 0.65816873 0.12392949 -0.01745561
v 0.66593808 -0.01162907 -0.04201133
v 0.05796136 0.00680933 0.45650357
v 0.56041700 0.18084526 0.07936394
v -0.22810283 -0.00600752 0.39580679
v -0.64393562 -0.03655707 -0.10936725
v 0.27349102 -0.16004321 0.36400795
v 0.13010442 0.23721962 0.29381192
v 0.28958899 -0.05572529 -0.44449553
v -0.75884092 0.02587537 -0.09141190
v 0.50712770 0.16971311 -0.13362654
v 0.68909764 0.25143978 -0.00252175
v 0.06002181 0.46492541 -0.02075440
v -0.10833825 0.21188891 0.42608467
v -0.26142097 0.26108959 0.34494925
v -0.18761630 0.15184426 -0.36499706
v -0.28763649 0.10910071 -0.41470000
v -0.08116948 -0.39969313 0.11664723
v 0.14824674 -0.02180450 0.41010740
v 0.48394865 -0.14338252 0.17364724
v 0.48190051 -0.28397739 0.13536997
v 0.04269829 -0.46262079 0.07355890
v 0.67289150 0.16450974 -0.04241171
v -0.54247284 -0.10410808 0.14254224
v -0.72905648 -0.08085009 -0.04709969
v -0.57095098 -0.09946217 0.07402498
v -0.38686264 0.35869065 0.06019458
v -0.04754345 0.27126580 -0.30522677
v -0.40191567 0.32826257 0.07204795
v -0.01022535 0.45788044 0.24644756
v 0.47904238 0.23203747 0.08984998
v 0.05624419 0.51216340 -0.11326525
v -0.30987296 -0.43488070 -0.12920830
v 0.35509032 -0.13918585 -0.34396166
v -0.18510412 -0.07853667 -0.51645064
v 0.42596328 -0.19122803 0.23497364
v -0.49033955 0.23526084 0.05001783
v -0.43716800 0.13831596 0.17327872
v 0.46529552 -0.29471153 0.08872522
v 0.52531666 -0.13182595 0.07891819
v -0.41399252 -0.33563125 -0.38036290
v -0.38454714 0.31244680 -0.01280043
v -0.54122424 0.01418073 -0.09694603
v -0.32205686 0.28916335 0.27410907
v -0.52022213 0.16784807 -0.09624988
v -0.22087331 0.19173858 -0.35831872
v -0.56415206 0.23156014 0.04455113
v 0.45181635 -0.13870117 0.14112069
v -0.29861289 0.12973562 0.44293651
v -0.50067830 -0.30418265 -0.26270503
v 0.64432847 0.01050653 0.01228920
v -0.26636827 0.14215150 -0.47343230
v 0.53085923 -0.12076776 -0.11243188
v 0.54977000 0.19334447 0.09112915
v 0.65122718 0.28497985 0.03407317
v -0.50627333 0.03182730 -0.22136253
v -0.69993168 0.12999494 0.03766447
v -0.32420722 0.14476620 -0.35645109
v -0.24964522 -0.26698732 -0.56196475
v 0.64556652 0.10878224 0.00641817
v -0.26034969 -0.23197284 -0.53279305
v -0.44698864 0.12861660 -0.20644474
v -0.01172975 -0.34460771 -0.49600589
v 0.04815292 -0.41725990 0.20056070
v 0.68525314 0.18622717 -0.06093830
v 0.54394126 0.03722163 0.03155398
v 0.28091180 -0.02232039 0.38765997
v -0.56829900 0.12474215 -0.12234804
v -0.60431576 -0.03838287 -0.00750569
v -0.28021848 0.30412388 0.26868519
v 0.62462902 0.14578919 -0.03701958
v 0.15428361 -0.00973903 0.46054679
v -0.42403290 0.07269865 -0.29174048
v 0.71838063 0.23793840 0.01607346
v 0.47253448 0.10967068 -0.08704013
v 0.66147029 -0.06685888 -0.06198150
v 0.39244938 0.10145007 0.13518573
v 0.10753063 0.20385012 -0.41576603
v 0.68407124 0.22565207 -0.03659342
v 0.55561739 -0.11658594 0.14955705
v 0.43018985 0.04297392 0.27662152
v -0.57136297 0.11088642 -0.08662206
v -0.49734622 0.12865715 -0.19973511
v -0.57385081 0.06092091 -0.17800447
v -0.69802141 0.08964991 0.00936139
v -0.62559098 0.01920175 -0.07329473
v 0.44844607 -0.24391270 0.14417194
v 0.54530054 -0.01016187 0.13537362
v -0.53963274 0.03992322 -0.19359630
v 0.47619367 -0.04642035 0.07731342
v 0.62425363 -0.00076881 -0.03670272
v -0.42458934 -0.35250086 -0.22041446
v -0.17673732 -0.14677715 -0.51148617
v -0.45050889 0.30337286 0.12375867
v -0.06081447 0.14667954 -0.49793684
v 0.58150774 -0.03531224 -0.11658211
v 0.33840328 -0.34904918 0.17192860
v 0.26458314 -0.28314981 0.37824529
v -0.20365652 0.08576203 -0.49394828
v 0.42446846 -0.21477723 0.18012963
v -0.04320783 0.23643762 -0.41737878
v 0.61347008 0.14002061 0.00801858
v -0.05320635 -0.44822896 0.14282066
v -0.25585583 0.04937741 0.42436823
v 0.60891294 0.03375395 -0.02832351
v -0.07015565 0.39377382 0.35383326
v -0.44731754 0.08260904 -0.22046986
v -0.75035328 0.04536347 -0.02004826
v -0.25598845 -0.11191489 0.50305808
v -0.22573732 0.12554115 0.39150617
v 0.51173079 0.14486545 0.09675133
v -0.37607431 0.27728721 0.18975532
v -0.65039712 -0.29764235 -0.03435987
v 0.53207654 -0.01323221 -0.10445431
v 0.35488939 0.04324759 -0.25889856
v -0.68985218 -0.00167692 -0.07042155
v 0.17762218 -0.41140682 -0.28233570
v -0.12147552 0.30072352 0.35010386
v -0.70499778 -0.04492936 -0.07746021
v -0.29812777 0.14662209 0.40174720
v -0.17651106 0.44808936 -0.04015037
v -0.63485867 0.22499782 -0.00360230
v -0.35864592 0.32752764 0.04205155
v -0.13937958 0.03820914 -0.53098583
v 0.64635259 0.02255336 -0.01153690
v -0.68250698 0.02842055 -0.17487264
v 0.60060537 0.13797912 0.00828657
v 0.24765128 -0.32059523 0.39675269
v 0.65496832 0.14434323 0.03829384
v -0.28992754 0.15533079 -0.43826985
v -0.66364121 0.07281665 -0.00969075
v -0.02211065 -0.43469489 0.17999856
v 0.14551559 -0.32692930 0.41999084
v -0.12307557 0.27600124 0.43215901
v -0.55665904 0.10703734 0.10047042
v 0.48119438 0.03401855 0.10396895
v 0.23599020 -0.27497107 0.16073465
v 0.14536619 0.21955097 0.38096878
v -0.39365461 0.30641997 0.03065337
v -0.16759156 0.01480262 0.45035347
v 0.02531561 0.36283743 0.26311544
v 0.56993359 0.01685432 0.05323941
v 0.28373107 -0.36338562 0.13835540
v -0.31108868 0.18494549 -0.27206320
v -0.67325330 0.04398146 0.00614738
v -0.35170984 -0.32666433 -0.44753185
v -0.52954727 0.21404991 -0.03385151
v 0.17683609 -0.07011013 -0.49068055
v -0.59631145 0.05311109 -0.18750203
v -0.69471771 -0.02345496 -0.11402744
v 0.46919423 -0.10569334 0.12158838
v -0.55151826 -0.24128175 0.06715526
v 0.03762602 0.32900348 0.27521539
v -0.69216138 0.02180544 0.00176358
v 0.57154596 0.02994561 -0.15269244
v 0.54960787 0.20910676 0.03758216
v -0.40112358 0.06153008 -0.32095063
v -0.35481244 -0.07043817 0.43746307
v 0.63962698 0.00317670 0.01259370
v 0.40301797 -0.31188774 -0.11541003
v -0.22849141 -0.05585434 -0.55656314
v -0.18391919 0.23630950 0.42658755
v -0.65175319 -0.25494868 0.01516226
v -0.49653554 -0.21165162 -0.25107408
v 0.61144453 0.13087137 -0.08588266
v 0.68793994 -0.00220544 -0.07150558
v -0.54599792 0.20922631 0.11793065
v -0.55585039 -0.17928104 -0.20775598
v 0.10376966 0.36019236 0.04684114
v 0.12857708 -0.26228809 -0.49639106
v -0.55395031 0.24819079 -0.03744340
v -0.57723796 0.07401602 -0.11503308
v -0.56087852 -0.02730302 -0.22501554
v 0.24316651 0.37971893 -0.01253417
v -0.28952041 0.15770438 -0.32750449
v -0.70776016 0.10941052 -0.07372442
v 0.44683298 -0.23274754 0.07929893
v 0.63924438 0.04400063 -0.04035057
v 0.51399446 -0.06923793 0.21274360
v 0.27127326 -0.13677645 0.39378840
v -0.31884205 0.37815452 0.17561045
v -0.03066907 -0.20929730 -0.54347324
v -0.59416544 0.06518461 -0.14250357
v 0.54424053 -0.09200819 0.01141903
v -0.70533186 0.10324842 -0.00672936
v -0.60228103 -0.05388495 0.08108616
v 0.73580498 0.12003645 -0.00694378
v 0.53005391 -0.06965147 0.01692674
v -0.51944548 0.03542963 -0.21332237
v -0.48752883 -0.04860118 -0.21734779
v 0.45940295 -0.08085011 0.17234188
v 0.37850702 -0.31619769 -0.06378819
v -0.08716480 -0.28532335 0.44318968
v -0.53732640 -0.05567621 -0.22905914
v -0.38600531 0.00188079 -0.31450191
v 0.57117790 0.04267660 0.09708104
v 0.13231999 -0.12462597 -0.53284043
v -0.15030272 0.37772626 0.31690145
v 0.58723754 -0.03871842 -0.09942427
v -0.44211653 0.30568129 -0.07059744
v 0.63814521 0.13391779 -0.00527920
v -0.54200888 0.07401790 -0.17918402
v -0.17917016 -0.37615591 0.20970803
v 0.61800933 0.04228267 -0.04452518
v 0.61181855 -0.06120756 -0.02466277
v -0.66089016 0.18438944 0.03200394
v 0.67792422 0.08815449 0.02286950
v -0.12403990 0.39555347 0.12179232
v -0.64023834 0.07011850 0.02193859
v 0.02028778 0.23767287 0.43691185
v 0.54784906 0.09602090 0.07455352
v -0.45683193 0.03235427 -0.30171990
v -0.02592061 -0.37529853 -0.14826444
v -0.09815128 -0.23744097 -0.47251707
v 0.66053474 0.21794184 -0.03989917
v -0.43437153 0.10146163 -0.24389449
v -0.63048327 0.17162491 -0.01439861
v -0.44076464 0.27401268 0.16353232
v -0.57154500 0.25201046 -0.00781468
v 0.00426929 -0.33724865 0.44335866
v -0.55211359 0.24281378 0.08518392
v 0.65635562 0.06004726 -0.04395828
v -0.54227400 0.26587796 -0.07225955
v -0.55711681 0.25949812 -0.02259949
v -0.59034437 0.08885375 -0.15196103
v 0.37670106 -0.23258646 0.19053583
v -0.12464872 0.46979281 0.03463289
v -0.39734897 0.35660192 0.11985692
v -0.09316395 0.42300555 0.08073720
v 0.64383131 0.01852208 -0.00670087
v -0.61126590 0.21034956 -0.02636378
v 0.34640616 -0.43633491 -0.06177415
v -0.55385655 0.01202377 -0.22755632
v 0.32507122 0.15253693 0.30857593
v -0.62303513 0.10379942 -0.04745930
v -0.56347108 0.20612417 -0.01696663
v -0.73301971 0.03150813 0.00048706
v -0.53976256 0.33105394 0.03676769
v 0.24395743 0.36742944 0.15654755
v -0.58852875 0.16725491 0.03488708
v -0.41897798 -0.13202035 0.20783149
v 0.21721147 -0.03347218 0.36303765
v -0.25070730 0.13969433 -0.42169094
v -0.64368778 0.19191632 0.04986188
v -0.24481761 -0.24329779 0.47152656
v -0.69811851 -0.06766963 -0.03297433
v 0.31997627 0.33151123 0.10743290
v 0.56313545 0.28610894 -0.01648217
v -0.55933762 0.24242423 0.04929730
v -0.44358888 0.27129164 0.06052354
v -0.41653240 0.10826445 -0.27572656
v 0.09469675 0.09559791 -0.44470426
v -0.09184563 0.07819886 0.50044948
v -0.18774061 -0.32821149 0.39494592
v -0.61418098 0.03065218 -0.13803211
v 0.49301618 0.24482866 0.04426232
v -0.58493966 -0.27116486 0.09194747
v 0.67914718 -0.04548740 -0.11283165
v -0.10381566 0.14903095 0.37864679
v -0.23967594 0.37453091 0.24517065
v 0.65292305 -0.01616526 0.12651634
v 0.43486485 0.29459047 0.04640713
v 0.65597224 -0.05109352 -0.12196286
v -0.19091719 -0.40639514 -0.40698034
v -0.50954998 0.20833227 0.09431586
v 0.63720095 0.11519319 -0.05301757
v 0.57653195 -0.09305548 -0.14849430
v -0.39245263 0.18929277 0.26566249
v -0.19987336 -0.02307478 -0.55412549
v -0.21288200 0.37816563 0.15845498
v 0.55307305 0.09172915 0.10504878
v 0.57868463 0.25653386 -0.03321925
v 0.16412249 -0.34699029 -0.30965444
v -0.48144788 0.02800215 -0.22379445
v 0.68284380 0.22239581 -0.04133714
v -0.12616080 0.15324742 -0.47961599
v -0.45212415 0.07739453 -0.29713792
v -0.21483094 -0.07877212 -0.55651760
v -0.35289648 0.32074559 0.15832630
v -0.66888344 -0.17432982 -0.03580654
v 0.45530030 0.14321233 0.17401899
v -0.02299542 0.01499829 -0.48773813
v 0.16485786 -0.21660219 0.49480134
v 0.32430929 0.16141042 0.18860695
v -0.42736822 0.11848141 -0.27237061
v 0.30726364 -0.21858130 0.37590492
v 0.54868877 -0.03966178 0.06866676
v 0.59732151 -0.16528954 -0.12017323
v -0.73677176 0.10609032 -0.00155120
v -0.03887910 -0.39034909 0.25534743
v 0.49588189 0.19516535 -0.07103719
v -0.05431232 0.18976580 -0.41825250
v 0.60800177 0.01290161 -0.05908936
v -0.26102456 -0.09490906 -0.53951299
v 0.70073813 -0.06797749 -0.07977200
v 0.03233612 -0.29851300 -0.50330603
v -0.65957987 -0.13392949 -0.06204496
v -0.32598653 0.00815488 0.33480459
v 0.17039704 -0.21979380 0.48408458
v 0.06110740 0.25114959 0.39119807
v 0.23504278 0.02108188 0.38692498
v -0.09691560 -0.07446660 0.51388150
v -0.34748688 0.35204041 -0.06389266
v -0.15944861 0.20348246 -0.39640653
v 0.67754114 -0.03609440 -0.02476836
v -0.10247411 -0.26634556 -0.54187989
v -0.39596501 0.23553598 0.27066043
v 0.42418188 -0.07212147 0.26336002
v -0.22183444 -0.10755946 -0.56310362
v 0.62412763 -0.03016543 -0.04116465
v -0.34187448 0.05491826 0.37938988
v -0.31464511 0.17316464 0.38043582
v 0.73392212 0.06324001 -0.06174478
v 0.31642669 -0.07509518 0.42201272
v 0.24570346 -0.31281325 -0.29186258
v -0.86643428 0.03213272 0.02425864
v 0.05306850 -0.42816055 0.14349024
v -0.18604299 0.34590054 0.31642210
v -0.32740116 0.35025936 0.19746053
v 0.64789718 0.12118074 0.03045129
v -0.17644484 0.14775825 0.32765847
v -0.65426481 0.11021900 -0.05992475
v -0.53403074 -0.28448796 0.05019879
v 0.57606441 -0.25331402 -0.03242994
v -0.09504557 -0.46535096 -0.26773569
v 0.41109121 0.05144560 0.27708805
v 0.69277155 0.20754024 -0.04236591
v 0.45863265 -0.01467710 0.20984913
v -0.50792086 0.18780813 -0.03639260
v -0.38348946 -0.37994507 -0.39878276
v 0.50246048 -0.04866552 0.11260667
v -0.45347494 -0.08649193 -0.24522701
v 0.07241005 0.03475584 -0.48360333
v -0.06124347 0.38917297 0.26043296
v -0.69011158 0.07171901 0.03499754
v 0.49973589 -0.17139408 0.05834566
v 0.63585705 0.04578111 0.07192911
v 0.58582926 -0.25056586 -0.02680373
v 0.42110199 0.09094372 0.22641966
v -0.60981828 0.07884964 -0.10241550
v -0.57164359 -0.21329889 0.09170667
v 0.09802905 0.48985454 0.04730891
v 0.82773173 0.14253336 0.02577046
v 0.58325213 0.06292383 -0.13346842
v -0.45372295 -0.14516726 -0.33777538
v -0.15385637 0.18874629 0.44969922
v 0.65519100 0.15201260 0.00023015
v 0.19660734 -0.42439795 0.13980010
v -0.63703728 0.10147658 -0.06962040
v 0.06209472 -0.05064425 -0.55357635
v 0.75130266 0.07466272 -0.01984495
v -0.72841328 -0.06676447 -0.03201884
v 0.07555071 -0.40394008 -0.25242025
v -0.59581113 0.02861374 -0.18526420
v -0.48019224 0.28897798 0.10669906
v -0.10337406 -0.11000782 -0.60607904
v -0.16087544 -0.30212280 -0.47184700
v 0.29386777 -0.23473701 0.41842398
v 0.44240153 0.08809792 0.23833674
v -0.40531629 0.19108470 0.12119031
v 0.46985215 0.32443643 -0.05356269
v -0.03719302 0.08540427 -0.55024421
v -0.35318679 -0.25405571 -0.48505890
v -0.24313459 -0.22803681 -0.53315568
v -0.60569263 0.03287114 -0.15712988
v 0.46429712 0.27148154 0.10695875
v -0.15649302 0.28622690 0.35559416
v -0.20905429 -0.10612649 -0.57118636
v -0.49311697 0.05126285 -0.25916785
v -0.83493865 -0.01850077 0.01083019
v 0.43099514 -0.26337442 0.10829051
v 0.73672330 0.20635200 -0.01936749
v 0.39238256 -0.00499523 0.25553781
v -0.13262117 0.06842415 -0.53448468
v 0.86357862 0.36048996 -0.06665637
v -0.26036963 -0.08489645 -0.52222210
v -0.08915196 -0.05050634 -0.53996986
v 0.70526558 -0.05225870 -0.08277833
v -0.49380347 -0.09720404 0.16507860
v -0.53200018 0.04296196 -0.22746348
v -0.15280113 0.00118849 -0.55826789
v 0.59897244 0.13801032 0.05828720
v -0.56432849 0.18355057 0.04552060
v -0.26164174 -0.34534472 -0.42038047
v 0.46281734 0.09946412 0.12615389
v -0.07331313 -0.33537966 -0.49608606
v 0.49488789 0.11782481 -0.02369002
v -0.52426231 0.05160397 -0.23436293
v 0.11077778 -0.17085749 0.53928936
v 0.64894038 -0.08484004 -0.04187040
v 0.70475417 0.15046944 0.03557658
v -0.35982120 0.11537616 -0.25126138
v -0.42685184 0.09674050 -0.24209839
v 0.70236653 0.13740283 0.00991520
v -0.35501051 0.34999466 0.15149355
v 0.17573655 -0.26590782 -0.47686106
v 0.45671520 0.18904024 0.10042205
v -0.36808163 -0.33189064 -0.39440742
v 0.16581413 -0.29607728 0.40515119
v 0.32325372 0.08125427 0.24673809
v -0.29022455 0.17634287 0.33650076
v 0.64176613 0.06346779 -0.04873192
v 0.41132456 -0.30150044 -0.33573228
v 0.53950143 -0.04189719 0.02614075
v -0.73424709 -0.00009907 -0.04538301
v -0.49591345 -0.23736516 -0.26044765
v 0.57595307 0.00745734 0.06276532
v 0.19515420 -0.21946244 0.47969750
v 0.45806077 0.10222520 0.17149854
v -0.24509217 -0.25565517 0.44054398
v -0.43515524 -0.30874240 -0.32962278
v 0.39277861 -0.32323343 -0.03330532
v 0.47874451 0.13158906 0.01154072
v 0.41594195 -0.16552994 -0.28870469
v -0.63061130 0.19684516 0.00647350
v 0.35288399 -0.36384284 -0.14812061
v -0.03446027 0.48048097 -0.07680222
v -0.25757006 -0.06673585 -0.53618586
v 0.47195059 -0.27178025 0.12184590
v -0.65877783 0.17823389 -0.02125127
v 0.61432576 -0.03652615 0.00110062
v 0.70679224 0.28216633 0.03908929
v 0.24660783 -0.12564732 0.38185319
v 0.27254739 -0.02361472 -0.42522997
v 0.08065315 -0.07289743 0.55551445
v 0.69160146 0.15277322 -0.04703047
v -0.52422512 -0.20841165 0.10559021
v -0.27749285 -0.25813600 0.38909402
v 0.60978895 -0.06775989 -0.11102124
v -0.30704793 0.19204170 0.34080130
v -0.00050598 -0.21554479 -0.46508527
v 0.48359397 0.26209357 0.02334362
v 0.65680981 0.07620908 -0.01385559
v 0.56787270 0.04602392 -0.14196911
v 0.12767273 0.08729772 0.46549809
v 0.15317568 -0.22032811 -0.46262097
v -0.52323496 0.02755500 -0.14383118
v -0.36815807 -0.06003815 -0.41427314
v -0.02296282 0.24384615 -0.26996249
v -0.14346923 0.25739053 -0.29250744
v -0.46733350 0.25413793 0.14017850
v -0.67754382 0.05260040 0.00210791
v -0.00420337 -0.18671729 0.54578078
v 0.68690240 0.06240186 -0.02109154
v -0.66152853 0.25136214 0.00355822
v -0.55773538 0.04525345 -0.20869884
v -0.38664961 0.14227469 -0.17850348
v -0.02240167 -0.36856186 -0.45303625
v -0.64198011 0.20083867 -0.00561789
v -0.40539610 0.16104020 -0.14227268
v -0.67613482 0.05064602 -0.17822051
v -0.49519110 -0.34916925 -0.28274775
v 0.47017610 -0.12947087 0.18714389
v 0.60556191 0.25778991 0.02628243
v -0.53807551 -0.23981342 -0.12428373
v -0.71697104 0.05586066 -0.01084894
v -0.27093264 -0.19985464 0.43573624
v -0.07360157 0.20504278 0.51243913
v -0.59605402 -0.17082047 -0.06435405
v -0.44643861 0.28626835 0.10870263
v 0.56435585 0.01256843 0.06785685
v -0.51315010 0.14577536 0.18076861
v -0.11817108 0.44634277 0.33132705
v 0.42697141 -0.00538711 0.09916842
v -0.15371002 0.06801692 -0.50474888
v 0.18546729 0.12148746 -0.48921543
v -0.69939542 0.06010200 0.02973771
v 0.04540316 -0.23144549 0.53442943
v 0.36546010 -0.29960400 -0.10616660
v -0.52748847 0.23751844 0.09593067
v 0.75656116 0.33986065 -0.00799944
v 0.20668805 -0.09647717 0.43739182
v -0.45004743 -0.26812050 -0.34578562
v 0.50274491 -0.07642215 0.00475213
v -0.57317913 0.03527601 -0.16294786
v -0.07784562 0.04792207 0.46169066
v -0.22962433 -0.26627779 -0.57705784
v 0.04095245 -0.16275631 -0.49096850
v -0.21730605 0.05985680 0.37602842
v 0.23881193 -0.38413554 -0.30334920
v -0.15642525 0.11666626 -0.48365793
v -0.59578973 0.21134236 -0.01055600
v -0.62674999 0.07656480 -0.11391714
v 0.56802374 0.40154615 -0.02938747
v 0.48289034 0.01960732 0.13693009
v 0.81037164 0.16684712 0.02679577
v 0.56887496 -0.13936447 -0.15252024
v 0.66058069 0.22554152 0.03987017
v 0.06327921 0.30026469 0.38113147
v 0.62924433 0.01051924 -0.04089093
v 0.54019737 0.17872304 0.09443742
v 0.42411366 -0.14898983 0.20580289
v -0.19250070 0.34312350 0.35843343
v 0.68303514 0.25014398 -0.02097680
v 0.65635866 -0.10457593 -0.10207839
v -0.08367357 -0.14101774 0.49317771
v -0.43160534 -0.01768757 -0.30575168
v -0.71055222 0.13333893 0.04212883
v 0.31856811 0.09312528 0.24610761
v -0.30097190 0.27768397 0.31194407
v -0.34905863 0.17412522 -0.29013944
v 0.34831879 0.33728027 0.17680109
v -0.52484930 0.11532047 -0.12589911
v -0.13144632 0.13835144 -0.45569190
v 0.63006103 0.10641557 0.02921928
v -0.18766055 0.43709329 0.12080079
v 0.09504959 -0.03977836 -0.06677254
v -0.66242856 0.21227100 0.01443440
v 0.52108014 -0.13285965 -0.18485585
v -0.52390230 0.11053933 -0.17813167
v -0.69664896 0.02712049 -0.01335669
v -0.41121876 0.20725313 0.19871449
v 0.44888967 0.02274482 0.05243877
v -0.69798303 0.00681995 -0.05977251
v -0.66134024 0.00038951 -0.03164154
v 0.55063927 0.03557779 0.02837886
v 0.59682751 -0.00840318 -0.02907059
v 0.19455200 0.25306314 0.32570237
v -0.40635610 -0.01216763 -0.31701243
v -0.09830756 -0.25219202 -0.49717870
v 0.02844919 0.44428074 0.09017824
v 0.60479701 0.07254023 -0.03592575
v -0.58607489 0.19800109 0.06141892
v 0.56117433 -0.24082193 -0.04877558
v -0.59740788 0.20836473 0.00572267
v 0.71220785 0.38282996 -0.00523266
v 0.33781710 0.36999798 0.04131630
v -0.29684556 0.09615685 0.41329369
v -0.53179550 -0.04893428 -0.22073090
v 0.29159412 -0.37879789 0.07040574
v 0.31914324 0.36312407 -0.01051787
v -0.54689288 -0.08094274 -0.21954826
v 0.59224200 -0.00343234 0.09122452
v 0.37052822 -0.31626183 -0.10413380
v 0.56795543 0.02840249 0.06351012
v 0.50407809 -0.04852676 0.04213177
v -0.68434763 0.01293531 0.07531005
v 0.40941018 0.06032196 0.10349345
v -0.73524243 0.17487411 -0.03043464
v -0.69310850 -0.01021524 -0.03373274
v 0.74243271 0.08639232 -0.00314610
v -0.30773458 -0.20256054 -0.45409271
v -0.50215608 0.21024881 0.04398469
v 0.17295678 -0.44210127 0.11767092
v -0.17785253 -0.34604076 0.38045469
v 0.40937388 0.24586076 -0.00313023
v 0.52188087 -0.05261340 0.07614132
v -0.46965921 -0.12368296 0.02552620
v -0.35397229 -0.31009060 0.28434819
v -0.24220470 0.17731649 -0.37253657
v 0.60531056 0.06028735 0.06479540
v 0.52167726 -0.04491381 0.12089613
v -0.39123636 0.19918086 0.25901598
v -0.40432218 0.12775236 -0.32324284
v -0.57327044 -0.02503515 -0.05670974
v 0.42997405 0.02714503 0.12947318
v 0.46278709 -0.08566312 0.17710991
v 0.54418409 -0.10492654 -0.11801881
v 0.00927866 0.01896385 -0.59797931
v -0.47345203 0.24738969 0.18675014
v -0.08129729 -0.22456953 0.49092048
v 0.48663610 -0.13567068 0.12264336
v 0.40882456 -0.16728765 0.19504687
v -0.27202228 0.05586603 -0.49850395
v 0.41632876 0.04736491 0.21156618
v -0.40654486 0.37389156 0.00927860
v 0.76459408 0.31115490 0.01618400
v 0.35074264 -0.29137838 0.25146157
v 0.09504776 -0.43825397 0.08434071
v 0.67078233 0.29541638 0.01527765
v 0.71739912 0.32729501 -0.03341281
v -0.28436232 0.00927794 -0.46943343
v 0.44737351 -0.23188202 -0.32509479
v 0.06945379 -0.21904263 0.52018768
v 0.28164476 -0.24266823 -0.44986585
v -0.58357990 0.03702494 -0.19858250
v 0.51162201 -0.18873182 -0.15606017
v 0.18729837 -0.00776035 -0.43545786
v 0.55747223 -0.00469908 0.02171500
v 0.48153651 0.23690562 0.07111657
v -0.58712572 -0.21698107 -0.12030593
v 0.59526819 -0.04450318 0.05397576
v -0.03631591 -0.39876500 0.23476620
v -0.70353281 -0.01110674 0.01702704
v -0.33770740 -0.33194184 -0.39552087
v -0.06018860 -0.24543330 -0.53806669
v 0.26108503 -0.09708531 0.44542927
v 0.54346144 -0.12558950 -0.03982195
v 0.83410323 0.41311073 -0.06108594
v -0.47091973 0.23623785 0.00471026
v 0.72939944 0.18974993 -0.00551447
v -0.65773517 0.16140401 -0.00058395
v 0.50282627 -0.06442527 -0.14919844
v 0.78208917 0.34744912 -0.05874063
v 0.53349167 0.24172854 0.01019257
v -0.09035391 -0.19930452 -0.59101731
v 0.47046089 0.24703902 0.17115983
v -0.36375073 0.34858534 0.14900365
v -0.50234133 0.08394533 -0.22050968
v -0.71789867 0.21985632 -0.00472645
v 0.34766489 0.20690022 0.19155240
v -0.59242290 0.22454774 0.06068712
v 0.34549809 0.00396952 0.16892426
v 0.58174950 -0.15971237 0.05998471
v -0.17979139 -0.09510496 -0.59654009
v -0.30359176 -0.34107035 -0.43487403
v -0.07725397 -0.25054806 -0.46816215
v -0.10297250 -0.18198848 -0.52590370
v -0.12624821 0.27227545 0.31801778
v 0.75603342 0.31278497 -0.03846265
v -0.72607666 0.06670940 -0.05819833
v -0.34141734 -0.21368223 0.41188544
v 0.26865077 0.29025823 -0.24925315
v -0.62478030 0.09594648 -0.02269620
v 0.58510816 -0.09841835 -0.08652653
v 0.53224647 0.04119214 -0.07310069
v -0.59789497 0.00856668 0.06495968
v 0.57754207 0.15843320 0.08386749
v -0.55259407 -0.17776053 -0.19421421
v -0.69981098 0.19521171 0.00328048
v 0.65686297 0.17418407 0.06924438
v -0.29211134 0.07546622 -0.35545406
v -0.74669337 0.19174513 -0.00821877
v 0.54902321 0.20550874 0.00589043
v -0.71920615 0.09274124 -0.07571091
v 0.47058830 -0.26465163 0.02072773
v -0.00010631 -0.43413711 0.17687593
v -0.39798898 -0.22922716 0.39107344
v 0.69910306 0.09729446 0.02376240
v -0.33458456 -0.25521415 0.42032564
v 0.41573682 0.28523791 0.08674303
v 0.64990205 0.01082977 0.08871922
v -0.24923123 0.18287364 0.38318628
v -0.16252819 -0.43812746 0.10537437
v 0.05786446 0.22940898 0.41621900
v 0.71499598 -0.02210238 -0.03677478
v -0.32837361 0.07585779 -0.32594299
v -0.21348000 0.06038806 -0.48900336
v -0.33742818 0.35950235 0.12138622
v -0.30962580 -0.18637893 -0.40219045
v -0.06380593 0.38784578 0.38058287
v 0.54274142 -0.11903362 -0.09331354
v 0.65682930 -0.00587374 -0.05334979
v -0.46643859 -0.29278466 0.14667749
v -0.35396659 0.31837100 -0.06170812
v 0.68236244 0.12155971 -0.08057207
v 0.49243098 -0.18114701 0.12253787
v 0.53611189 -0.14924671 -0.10748260
v -0.22412811 0.34163857 0.29535544
v -0.72481477 0.17316598 0.02316416
v 0.74203271 0.28553078 0.00716823
v 0.50527585 -0.16960175 -0.26479784
v 0.59989935 0.02988142 0.04913762
v 0.36791879 -0.21356896 0.25685927
v 0.48594075 0.24500166 0.01889326
v 0.09682391 -0.31507832 -0.46180376
v -0.62121922 -0.02327335 -0.13411689
v -0.57516199 0.06849730 -0.18534726
v -0.74786282 0.03440185 -0.00820655
v -0.37314656 0.11140791 -0.36653632
v 0.49355954 -0.02166659 0.19322428
v -0.30018106 0.13281250 -0.40020990
v -0.55423230 0.10345481 0.06254575
v 0.49905092 0.25129920 -0.03122045
v -0.75552964 0.13531028 -0.00846274
v -0.17391759 -0.34361160 -0.49211168
v -0.18726099 -0.15357389 -0.58364463
v 0.05166623 -0.43301350 -0.08130874
v 0.54156536 -0.07884850 -0.23051026
v 0.65591890 0.18090671 -0.02317540
v -0.28350386 -0.05428678 -0.53827816
v 0.68798041 0.19387132 -0.05001052
v 0.58896232 0.32741332 0.00417393
v 0.47241062 0.24110840 -0.09893414
v -0.22722794 0.06175685 -0.47855759
v 0.49040705 0.06737464 0.03571936
v 0.51050723 0.04841793 0.08088666
v 0.16101736 -0.39445853 -0.12725887
v -0.26733899 0.39323887 -0.07370484
v 0.29136956 0.36811167 -0.06904292
v 0.61253488 -0.11811294 0.01148944
v 0.13004628 -0.20514865 -0.52599365
v -0.62671149 -0.02909913 -0.16669285
v -0.43154073 -0.30062848 -0.31698194
v -0.70153213 0.21447930 -0.01968256
v 0.60653234 0.12330341 0.07088494
v -0.56417650 0.02221212 0.14225563
v -0.21733874 -0.00770283 -0.47255147
v -0.29570004 0.35945600 0.18418689
v -0.16745520 -0.30636942 0.48686612
v -0.06238486 -0.40788770 -0.20225139
v -0.56368363 0.21413907 0.11227289
v -0.35043812 -0.38311377 -0.04504319
v 0.12822616 -0.23933630 -0.52684188
v -0.53175116 -0.10475193 -0.28236800
v 0.62440366 -0.02055351 -0.05435100
v 0.53623939 0.23877950 0.05896417
v -0.41479915 0.30558801 -0.06801215
v -0.31545287 -0.10052249 -0.49636799
v -0.39841110 0.35982722 0.07957473
v -0.59244668 -0.24850851 -0.05407628
v -0.63204241 0.17226024 0.03997457
v 0.59755862 -0.13614441 -0.00301619
v 0.43212044 -0.25088629 0.11275744
v 0.41138470 -0.29048616 0.24781823
v 0.31855693 0.21782514 -0.31559786
v -0.69047266 0.02206371 -0.04354209
v -0.05496316 -0.37071699 0.43383351
v -0.53215325 -0.30005160 -0.02314552
v 0.37768090 -0.33353618 -0.14951678
v 0.68409616 -0.06122391 -0.09285033
v -0.09223236 0.44024056 0.13308617
v -0.06589417 0.03614126 -0.50612938
v -0.84905314 0.06084782 -0.07725908
v -0.52386665 0.07361582 -0.25505614
v -0.68026131 0.14814396 0.04865626
v -0.49358520 0.14675020 0.02629328
v 0.67094696 0.17401892 -0.04677469
v -0.05354089 -0.35501617 -0.50401902
v -0.06291457 -0.19221821 -0.49642992
v -0.45435652 0.03660133 -0.27994412
v -0.32324761 0.10271675 -0.36504379
v -0.57765198 0.01327062 -0.22100034
v -0.68270189 0.10040824 0.02467573
v 0.47491288 0.20470019 0.07713991
v 0.36581022 -0.26829809 0.00590874
v 0.49605122 -0.08289064 0.20509362
v -0.15356301 0.08485048 -0.45621109
v 0.24315438 0.28458938 0.14395404
v -0.70175397 0.16468070 0.03141946
v -0.21291032 0.10925522 0.40408689
v 0.53081596 -0.04972056 0.07959533
v 0.64924991 0.19632417 0.03016707
v 0.66548657 -0.07662635 -0.09880118
v -0.47242635 0.07100579 -0.24204066
v -0.23075676 -0.32934096 0.01312000
v -0.69524848 -0.20331265 -0.01309986
v -0.15355773 0.06993033 -0.50871170
v -0.53677773 -0.00110084 -0.25240356
v 0.53283536 -0.03419906 0.02749473
v -0.10746342 -0.33112302 -0.50714111
v 0.33582559 0.30170506 0.06896574
v -0.41755995 0.32345048 0.14674795
v -0.70446992 0.22595526 -0.02334210
v -0.14308739 -0.11051047 -0.55999124
v -0.54724199 -0.02150680 0.01102341
v 0.66702408 -0.04177141 -0.08223590
v 0.49684170 -0.11762315 0.04647180
v 0.21803078 0.12783141 0.34286207
v 0.06631932 0.36154485 0.31208456
v 0.04395911 0.33461678 0.32497329
v 0.59590703 -0.01213311 -0.05756645
v 0.66699827 0.11276557 -0.00130442
v -0.31875750 0.36166969 0.10802001
v 0.69365025 0.20535490 -0.01140789
v -0.02583322 -0.01757628 -0.57015783
v -0.52239352 0.21192084 0.00599517
v -0.58406937 0.08284678 0.05328082
v -0.65025258 0.16415727 0.01855588
v -0.41826290 -0.39093980 0.05358290
v 0.45800376 -0.36396506 -0.00660346
v -0.44850752 0.11090912 0.16835491
v -0.74866247 0.06391178 -0.04151453
v 0.70190573 0.00020994 0.00865644
v 0.60821980 -0.00700762 0.08147933
v 0.69827181 0.10344902 -0.00969833
v -0.49711502 0.10488605 0.11524039
v -0.47041935 0.31870413 0.01410294
v -0.53014743 0.11358041 -0.17069098
v -0.63552248 0.02020166 -0.13298324
v -0.05504483 0.19120452 -0.45840833
v -0.67933297 0.15392084 0.00613445
v -0.45149678 -0.13593052 -0.29114676
v -0.19350111 -0.13436268 0.48362502
v 0.04273822 -0.44980836 -0.34242028
v -0.36096701 0.07886788 -0.29322651
v 0.23125316 0.38261744 0.14101824
v -0.60654843 -0.09453880 -0.05218837
v 0.63314015 0.15382056 -0.05549712
v -0.92347854 -0.03603517 0.02487323
v -0.50979805 0.16272302 0.06758672
v -0.17903796 0.14591970 -0.41709787
v -0.19754498 -0.18889651 -0.55926549
v -0.11480349 -0.09503933 0.46399021
v 0.60769969 0.04649359 0.05909112
v 0.33935964 -0.27076176 0.16181660
v -0.72823304 -0.00531873 0.00277153
v -0.70833153 -0.06757535 -0.06416042
v -0.52535385 0.08017805 0.09881902
v -0.12344573 0.21008864 -0.35168579
v 0.72540212 0.21449311 0.00604293
v 0.52741992 -0.21578521 0.01861550
v 0.61352670 0.08024154 -0.01478150
v 0.39334768 0.32917827 0.02411184
v -0.49458718 -0.05317627 -0.28484756
v -0.49206039 0.25704715 0.13288051
v 0.07750723 -0.39761567 -0.21013850
v 0.58847380 -0.08491991 -0.07229295
v 0.46129924 -0.12951240 0.05997583
v 0.59108889 0.24849343 0.03745142
v -0.69581228 0.05442556 -0.02076791
v -0.60403222 -0.17776333 -0.11691570
v -0.45721975 -0.27517590 -0.35348636
v -0.12383735 0.03039970 -0.51295263
v -0.44067729 -0.25313258 0.35570812
v -0.26364851 0.25435895 0.40284818
v -0.53385478 -0.06144350 -0.18188640
v 0.52863777 -0.10168567 -0.08551230
v 0.01139338 0.06879275 0.47995466
v -0.59853941 0.07554185 0.04973901
v -0.35365146 -0.22442043 -0.44052833
v -0.25876075 -0.41449893 0.17845166
v 0.72227228 0.18968843 0.01467663
v -0.86664861 0.03783331 0.01356497
v 0.50947440 -0.06112371 0.03735593
v -0.69831705 0.10960336 -0.07282722
v -0.45890653 -0.26275736 -0.35294101
v -0.14449227 0.46720254 0.04356128
v 0.46634984 0.08782329 0.17014894
v 0.41556755 -0.11141950 0.20096329
v -0.02635720 -0.30805603 -0.52594841
v 0.59641308 -0.01046654 -0.06965804
v 0.41160515 -0.29821005 -0.13742594
v 0.66759437 0.16705890 0.03245497
v 0.52731150 0.21618283 0.03273918
v -0.14055365 -0.43234798 0.12932888
v 0.35948822 0.19195552 0.22504419
v 0.59757417 -0.12008651 0.01652028
v -0.69030958 0.01674029 -0.16253734
v 0.38309440 -0.00902921 0.27634814
v -0.05168002 0.16641228 0.44881675
v -0.89473462 0.03404938 0.03286973
v -0.71293414 -0.01686126 -0.05902779
v -0.73445910 0.05613261 0.06721869
v -0.56098354 0.02220829 0.06003575
v 0.57101029 0.05391720 -0.14089254
v 0.03591938 0.42006916 0.05290341
v 0.60239327 -0.00086847 0.08781779
v 0.61090803 -0.05250749 -0.09022623
v -0.41720840 0.31961071 0.15921989
v -0.42315131 -0.30567762 -0.29817048
v -0.12368286 0.20440546 0.42234024
v -0.55687678 -0.04257253 -0.18857357
v 0.63529581 0.07469958 -0.05305580
v -0.42434409 -0.26867169 -0.31695724
v 0.88194966 0.41677231 -0.00598684
v 0.37244856 -0.30713892 -0.38618919
v 0.59368205 -0.03082132 -0.09315243
v -0.26424667 -0.28033525 -0.54459596
v -0.51476896 0.14478125 0.02152095
v -0.54589504 -0.07093234 -0.20051380
v 0.80793160 0.43127981 -0.03216746
v -0.58544064 0.26287863 0.11464417
v -0.30162174 0.31492257 0.28612906
v -0.71210158 0.01048282 -0.04979381
v 0.70989281 0.17934746 0.04214400
v 0.22527918 -0.39516318 0.23933163
v -0.34015560 -0.13965571 -0.50056505
v 0.54228997 0.32646173 0.03359293
v 0.36393124 -0.29648978 0.15576400
v -0.58865201 0.09381145 -0.02214188
v 0.38043278 0.30624861 0.10527533
v 0.42900127 0.18402462 0.04870638
v 0.28001282 -0.05682860 0.32833624
v -0.63621217 -0.04983942 0.05099036
v 0.57219118 0.30123207 -0.02363926
v 0.65464896 0.12152012 0.00450370
v -0.38221425 -0.27565759 0.36196524
v 0.44333759 -0.09476203 0.23494673
v 0.49503520 -0.08752832 0.16226801
v 0.72736794 0.10689667 0.00304456
v 0.46839941 0.03079796 0.15550044
v -0.63710135 0.18765599 0.04132250
v 0.62148565 0.05201259 -0.00739443
v 0.62549484 0.06254674 -0.05055817
v -0.50554925 0.14755073 0.08955047
v -0.10372372 -0.27833274 -0.49276561
v 0.49590141 -0.10619134 0.05762842
v -0.40185690 0.11824792 -0.17310145
v 0.44759497 -0.22846842 -0.25359377
v -0.50597900 0.15802799 -0.13264775
v 0.49998578 -0.10220209 0.18163946
v -0.76000208 0.06010924 -0.04773700
v -0.09223589 -0.12550271 -0.63874412
v 0.66519767 -0.10197690 0.00683523
v -0.60022891 0.10627214 -0.07391724
v 0.73530507 0.28075632 -0.00847329
v 0.70382333 0.03739401 -0.05378836
v 0.91495615 0.36906999 -0.07213475
v 0.23413423 -0.39594728 0.14614785
v 0.57870048 -0.10828266 -0.04990105
v 0.45679051 -0.10465798 -0.11818837
v 0.13348180 0.06862573 -0.54960340
v -0.79706943 0.09343794 0.03370252
v -0.50452763 -0.25912386 -0.18631801
v -0.50874728 0.28777778 0.07357267
v 0.67465538 0.31837493 0.02090555
v 0.64233136 0.30115342 0.03503472
v -0.60019451 0.05813316 0.08272946
v -0.01396376 0.26484299 -0.30605927
v 0.68750769 -0.01194328 0.00373890
v 0.39446798 -0.26626688 0.07961065
v -0.20504344 0.40694585 -0.05005142
v 0.21476625 -0.43641940 -0.40972203
v 0.35528082 -0.26559493 -0.14015408
v -0.55093038 -0.13413396 0.18862242
v 0.54185140 0.03052743 0.08412920
v 0.53507674 -0.25800955 -0.18971506
v -0.01639359 -0.20208220 -0.50506735
v -0.60918820 0.02306962 0.03776401
v 0.61791170 0.06993083 0.09222534
v 0.29557341 -0.34204823 -0.30981204
v -0.08989494 0.06488678 -0.49260247
v 0.35492450 -0.24787302 0.27841860
v -0.40404898 0.23262706 0.12425175
v -0.46264625 0.11595979 -0.21854356
v -0.60809392 0.03081647 0.05550975
v -0.37667358 -0.28643346 -0.43896589
v 0.64647454 0.18650243 0.01354811
v 0.73340046 0.20448416 -0.01823403
v -0.26220256 -0.07323378 -0.51605350
v -0.14274412 0.39754641 0.20895821
v -0.39903265 0.28423333 -0.06129493
v 0.57204050 -0.06893791 -0.14748092
v 0.71021283 -0.03000498 -0.04112959
v 0.48724234 -0.26111597 -0.20156310
v -0.04996783 -0.02442724 -0.10654198
v 0.66929924 -0.02981609 -0.08561973
v 0.06032421 0.47488716 -0.01230142
v -0.31944445 0.04413456 -0.45811841
v 0.78471768 0.15356891 -0.00964542
v 0.39911699 0.28114656 0.04442129
v 0.61552340 0.05653550 0.03170657
v 0.62420952 0.16404974 0.03282976
v 0.32880193 -0.22136068 0.34900796
v 0.35664916 0.35968319 -0.01457438
v 0.67529744 0.21570636 -0.03553141
v -0.19332588 0.42218310 0.03874558
v 0.30005133 -0.39082918 0.03877420
v -0.16129071 -0.16322671 -0.57160854
v 0.05687374 -0.28509027 -0.46761939
v 0.08251289 -0.20835152 0.50333941
v 0.45906168 -0.19769707 0.20010456
v -0.62349540 0.17025781 0.03532493
v 0.04938472 0.35902479 0.36828843
v 0.59071332 -0.03394026 -0.10572106
v -0.48677814 -0.00712439 0.10036125
v -0.60015696 0.01908575 -0.20287403
v -0.13463159 0.44995156 -0.00967237
v 0.60463327 0.04259998 -0.04273057
v -0.56446707 0.13368511 0.03617439
v 0.05447765 0.38684860 0.15494153
v -0.64644164 0.04854387 -0.10560054
v -0.10068661 0.20825873 -0.45762676
v -0.75386405 0.04844633 0.06385183
v -0.47959363 -0.26504403 -0.16242437
v -0.26125041 0.20403180 0.39395279
v -0.40302974 -0.37790540 -0.08534430
v -0.46877572 0.15735331 0.16739517
v 0.53214258 -0.11060725 -0.04400387
v 0.49873912 0.04040692 0.20335650
v 0.07994732 0.42616266 0.25270018
v -0.37785688 0.30994833 0.14060101
v -0.67562288 0.17612347 0.04081084
v -0.84942424 0.14657408 -0.04310104
v 0.67738116 0.15080529 0.03703016
v -0.09868275 0.16064592 -0.52892911
v 0.16065225 -0.33575606 0.44955420
v 0.57822859 -0.09744158 0.00689183
v 0.64474308 -0.01109294 -0.07179257
v -0.14503497 -0.34721199 -0.48808217
v 0.28109205 0.16318356 0.33127326
v 0.68788499 0.23059386 0.00919354
v -0.67329133 0.15988857 0.03052399
v 0.70758760 0.13467734 -0.00621965
v 0.42477551 -0.30420825 0.04015769
v -0.28993738 -0.22911361 0.39408359
v -0.32623431 -0.41359007 -0.38188219
v 0.57976079 0.04656935 0.10245609
v -0.72157365 0.14581209 -0.00275756
v -0.70767486 0.11704734 0.00917172
v 0.62218791 -0.06145980 -0.05721593
v 0.62112224 -0.03517674 0.03715178
v 0.51849824 0.27578336 0.06208268
v -0.58033079 0.11047241 -0.08692980
v -0.66590786 0.19489846 0.00759515
v -0.61841631 0.22614980 -0.01680396
v 0.71510673 0.15939820 0.00180161
v -0.15181869 0.06092656 -0.53948140
v -0.34579185 0.34912053 -0.00579384
v -0.59263301 0.02460741 -0.13971877
v -0.18536320 -0.15807518 -0.57937765
v -0.37890291 0.32161039 0.02342942
v -0.25258386 -0.33006001 -0.42877650
v -0.44999713 -0.16959694 0.35404077
v -0.12904698 -0.15121487 -0.48019224
v 0.57307142 0.03270173 0.04547679
v -0.28394341 -0.11638862 -0.49725917
v -0.46780348 0.26411322 -0.00662713
v -0.06057942 0.39157668 0.08769917
v 0.75719762 0.24081664 -0.01101176
v -0.02504008 -0.35245946 -0.53555471
v 0.36092103 -0.12501530 0.33798540
v 0.76949441 0.13177241 -0.06184500
v -0.53524542 -0.05054406 -0.21812573
v 0.74228418 0.19397338 -0.05648528
v -0.47872826 0.12396574 -0.19619885
v -0.73399174 -0.05079524 -0.16049337
v -0.02386949 -0.28256607 -0.54440147
v -0.30601239 0.08499417 -0.49020541
v -0.13813350 -0.20052665 0.35299543
v 0.14747217 0.08539755 0.45048410
v -0.54280055 0.10394733 -0.10197037
v -0.37980103 -0.09580664 -0.34720850
v -0.50802290 -0.09133980 -0.16770053
v -0.43932414 0.05517079 0.03371543
v 0.34800577 0.00260283 -0.30094105
v -0.46017700 -0.05174800 -0.25982237
v -0.10953633 0.11678755 -0.51697218
v 0.40760005 -0.27315751 -0.17320363
v -0.22268885 -0.31027937 0.38695830
v 0.10553958 0.37877375 0.05510545
v 0.04121386 0.43768132 0.14075887
v -0.05409296 -0.00594728 -0.52804589
v -0.44720981 -0.12700267 0.29740599
v -0.49153244 -0.28406274 -0.28581983
v 0.41528457 0.07196230 -0.11947526
v 0.30040824 0.37800083 -0.00469467
v 0.60386580 -0.00942466 -0.07882777
v 0.51739782 0.27886382 -0.05588385
v 0.56888229 -0.09942937 -0.05599649
v -0.33424729 -0.34891289 -0.33245066
v -0.21155989 -0.34665245 0.35634428
v 0.19777606 -0.13685226 -0.45579767
v 0.69493365 0.21087022 -0.03717438
v -0.54902661 0.08808269 0.10153618
v 0.44396675 0.04890642 0.20278993
v -0.52866149 0.07981731 -0.16526558
v -0.34993678 -0.09828866 -0.42511228
v -0.20378821 -0.21168163 -0.53702193
v -0.59307534 0.02694250 -0.14424890
v -0.40826178 0.04240927 -0.26897523
v -0.30823022 0.07709944 -0.45754364
v -0.46137208 0.01768178 0.23670328
v 0.40171662 0.26111725 0.04723114
v 0.47864273 -0.22969985 -0.11774528
v -0.56439167 0.00882593 -0.17763230
v -0.33935931 -0.40961939 -0.33577752
v -0.37908420 0.28662783 0.11304885
v 0.71895874 0.25141951 -0.01740060
v -0.57979274 0.24896826 0.02613455
v -0.81505555 0.07980706 0.09008583
v -0.61035472 -0.03662582 0.14155516
v -0.17344975 0.41509312 0.03334129
v -0.36834854 0.27035215 0.28519267
v 0.27262750 -0.18632299 0.43341771
v 0.67573965 0.26633829 0.05923790
v 0.06505024 -0.44249564 -0.01999231
v -0.72105676 -0.07095562 -0.04045655
v -0.67619038 -0.06085272 -0.05455977
v -0.63546777 0.19993509 0.04283145
v -0.27307379 0.20951951 -0.27347124
v 0.51584196 0.24029583 -0.07575468
v 0.06499816 -0.41763091 -0.34553528
v -0.26611915 0.01396708 -0.41645792
v -0.35889471 -0.33361468 -0.42054415
v 0.48098662 -0.10766876 0.22489062
v -0.73204315 -0.06281286 -0.04313250
v -0.31591138 0.28111809 0.27838933
v 0.06060773 -0.12646662 -0.07338272
v 0.41298082 -0.31886369 0.00786541
v -0.48583609 -0.00010419 -0.23249713
v -0.68078095 0.18985868 -0.01432443
v -0.43959832 0.35025120 -0.01899987
v -0.77333593 0.18074045 -0.02791948
v -0.08927839 0.05576785 -0.55447274
v 0.67759413 0.00942378 -0.05170140
v -0.44452554 -0.09183942 -0.33743379
v 0.65702462 0.24849032 -0.02881263
v -0.47705767 -0.38830471 -0.12312454
v -0.40760440 0.14311847 -0.19047591
v -0.29628193 0.14505388 -0.41211885
v -0.41056111 0.12957248 -0.23188214
v -0.43150413 0.12584287 -0.21427751
v 0.62389231 0.19223183 0.02870053
v -0.76498866 0.16141450 -0.01063696
v -0.28239948 0.00742863 -0.41856629
v -0.61776382 0.13878657 -0.00055337
v 0.78576136 0.27849573 -0.04851238
v -0.44865265 0.35860842 0.03165033
v -0.37021586 0.04441993 -0.39152265
v -0.20502080 -0.04568912 -0.52451843
v -0.34245414 -0.19290766 -0.18010139
v -0.16923107 0.25159699 0.41582340
v 0.59515029 0.06480329 -0.05738746
v -0.27974457 0.18744254 -0.30735996
v 0.58016825 -0.00758407 -0.10589023
v -0.73462796 0.07532521 -0.00137502
v -0.56599927 0.06730492 -0.08708435
v -0.81467086 -0.04106639 -0.00190082
v 0.63580966 0.09646936 0.12577736
v 0.66797507 -0.04129423 -0.02040596
v -0.61621863 0.20409594 0.00919487
v 0.68502951 0.05706667 -0.02495772
v -0.20060007 0.34206748 0.28595677
v 0.60813427 0.33366838 -0.06726861
v -0.87342060 0.03801179 0.00201017
v 0.59431159 -0.03066576 -0.00613887
v 0.47447813 -0.31203076 0.07284941
v -0.61527878 -0.02576954 -0.00434583
v 0.70904320 0.24559212 0.00421385
v 0.29569206 0.15343039 0.32410979
v 0.47861844 -0.15171272 0.16823998
v 0.33058658 0.42796341 0.04603815
v -0.63606083 -0.03205208 0.01824921
v 0.51456010 0.31090319 0.05323428
v 0.34163693 0.21387370 0.22919123
v 0.19606870 -0.31444889 -0.35695747
v -0.73982239 0.11947529 -0.00923212
v 0.50244004 0.00742454 0.11532563
v -0.22042698 0.40031028 0.08735266
v -0.59754241 -0.23176819 0.07347445
v -0.55181628 0.04329847 -0.19016594
v -0.67042631 0.16100310 0.03269976
v -0.12918557 -0.22028735 -0.52117705
v -0.31877977 0.29298943 0.21754926
v -0.12688063 -0.05641612 0.49305692
v -0.03657109 -0.41052246 0.26935810
v 0.52228284 -0.13526495 -0.14607626
v -0.69447529 0.05293436 -0.16561645
v 0.47500667 -0.23034312 -0.14413340
v 0.11930573 0.40483141 0.01720607
v 0.53927028 0.28847909 0.00672755
v -0.67089534 0.01496732 -0.11714584
v -0.30104083 0.07324675 0.43494189
v -0.48432359 0.00052787 -0.22928086
v -0.64827579 0.15072598 0.02139148
v -0.59960425 0.09324566 -0.07912202
v -0.66475827 0.12766704 -0.01615223
v -0.69396526 0.08944833 0.00385371
v -0.35680038 0.31539860 -0.00933251
v -0.47440785 -0.14029396 0.26238430
v -0.36526328 -0.16213977 -0.47874045
v -0.64741725 0.03664297 -0.18045554
v 0.39087066 -0.28884035 -0.09687430
v -0.28291798 0.17270066 -0.35396495
v 0.66342568 0.28489882 0.04674968
v 0.50705945 0.25823966 0.09028375
v -0.44627666 -0.19069038 -0.33069575
v 0.64689970 0.12418807 0.02847269
v -0.61767513 0.11908722 -0.05918458
v -0.14698273 0.07020678 0.53295606
v -0.19255169 0.02632637 -0.53873068
v 0.26912725 -0.39266503 0.20935094
v -0.64812058 -0.02453597 -0.06204255
v -0.71167213 0.09898236 -0.07960726
v -0.31854308 0.31583360 0.24590883
v 0.76245642 0.18201788 -0.05232532
v -0.22556937 0.40197456 0.18998101
v 0.47373450 -0.28095150 -0.06936318
v 0.56834948 0.02200426 0.08257067
v -0.49717063 0.04773535 -0.16234766
v 0.66896939 0.04135235 -0.06026302
v 0.66783500 -0.06360508 -0.07381555
v -0.18943277 -0.05041716 0.35280260
v -0.27299899 0.07389645 0.44703859
v -0.54722196 -0.28651521 0.10276281
v 0.03918322 -0.36121112 -0.43913707
v -0.48173410 -0.04977661 -0.24464236
v 0.46031439 -0.21376190 0.09361789
v -0.27233267 0.23591429 0.39245713
v -0.43811592 0.09348929 -0.23878428
v -0.70645541 0.08366245 -0.00990625
v -0.40552381 -0.18899444 0.26375341
v -0.45984954 0.32591671 0.02190894
v 0.66315252 0.18713191 -0.03645287
v -0.17386825 0.13630530 -0.41540414
v 0.53516167 -0.05646689 0.05649720
v 0.55452758 -0.10360274 0.12492736
v 0.60936368 0.00801129 -0.02720492
v -0.37931293 -0.06592368 0.40134686
v -0.78261077 0.02611207 0.02099830
v 0.66167629 0.09960372 -0.05136734
v 0.63866079 -0.00683746 -0.05260836
v 0.74330914 0.30083281 -0.00632854
v -0.34393650 0.36049280 -0.15246156
v -0.79442871 0.16968036 0.01244252
v -0.21910903 0.16332799 -0.32125095
v 0.15050057 0.15792888 0.33932245
v 0.40027604 -0.23243187 0.21120310
v -0.41728830 -0.11252667 0.26533467
v -0.13995211 0.41455793 0.28189516
v -0.32269990 -0.19722025 0.40490019
v -0.02224841 -0.10039792 -0.58318436
v -0.26557112 0.27329493 0.23316999
v -0.31197006 -0.05314368 -0.51772308
v -0.40220404 -0.41758671 -0.17337461
v 0.04940185 0.43916899 -0.07251194
v -0.51055622 0.10495043 -0.19895652
v -0.03223859 -0.02815165 -0.57775837
v -0.36187848 -0.30768189 0.27475089
v 0.20923918 -0.41110018 0.00189564
v 0.41613689 -0.34733814 0.07047004
v -0.46722317 -0.09303671 0.28420001
v -0.67701298 0.13714112 0.03345403
v 0.40527460 0.30403912 0.09098917
v 0.23466730 0.13553432 0.35423496
v 0.58670300 0.00985588 0.05373934
v -0.74284315 0.07383877 -0.07555746
v 0.50521588 0.03163685 0.05234230
v 0.31775424 -0.37531459 -0.39816809
v 0.60107106 -0.02078496 -0.15581214
v 0.62287253 -0.03253504 0.08353886
v 0.44688317 0.33010349 -0.02096915
v 0.40849537 -0.26018816 0.03714599
v -0.34157240 -0.18196398 -0.51733822
v 0.67553937 0.02025178 -0.00283974
v 0.47990736 0.38976881 -0.01186761
v -0.57422328 0.26105919 0.04955012
v -0.10442028 -0.47811535 -0.19650546
v -0.70109403 -0.22807741 0.03972059
v 0.30608264 -0.21349911 0.34495229
v -0.68339980 -0.04029389 -0.15311387
v 0.56909001 -0.18119834 0.01716733
v -0.67688954 -0.05629256 -0.08857790
v 0.48192871 0.11586064 0.16009012
v -0.07432361 -0.48520958 -0.23937128
v -0.37083948 -0.26343036 -0.41811132
v 0.66991764 0.09390054 -0.09181768
v -0.16813324 -0.41698873 0.18309274
v 0.81049967 0.16529503 -0.01319043
v -0.21506017 -0.24576451 -0.54280680
v -0.40476754 -0.02950305 -0.35393649
v 0.54550201 -0.15881315 -0.00464545
v -0.63006711 0.07027620 -0.11179745
v -0.46950758 0.11396821 0.13001622
v 0.80691952 0.33533052 -0.04969466
v -0.49268174 -0.32337201 -0.03868987
v -0.24488634 0.10010237 -0.49655786
v 0.40905786 0.05494282 -0.19695528
v -0.59784120 -0.02771226 -0.16961068
v 0.66764468 -0.01967801 -0.09583637
v 0.69331008 0.20313276 -0.00532663
v -0.21382821 -0.37383756 0.26080289
v 0.33814096 0.16341969 0.25223070
v -0.43776181 0.13663262 -0.18764871
v 0.23992725 0.07550040 0.43272769
v 0.71336365 0.06996039 -0.01738364
v -0.66970021 0.22427294 -0.01360500
v 0.61670947 0.14279790 0.07755350
v 0.58016783 -0.21452618 0.00981767
v -0.69167805 0.13632283 0.00983318
v 0.48278701 -0.05860204 -0.25789583
v 0.66925520 0.20993447 -0.04428399
v -0.48818433 0.09826113 -0.16985491
v 0.52709794 0.01445048 0.09827846
v -0.47710747 -0.20516029 -0.35830593
v -0.51633501 0.28002182 0.07127491
v -0.51537347 -0.32949308 0.06539339
v -0.50247288 -0.29197073 -0.29869550
v -0.63895458 0.18421134 0.04641980
v 0.62501818 0.11069590 0.05140230
v -0.36543500 -0.23314914 -0.42297077
v -0.18123588 0.01042077 -0.53168482
v 0.03486129 -0.04150993 -0.54715341
v 0.00871335 -0.45506871 -0.30049965
v -0.38005006 -0.02691912 0.41359207
v -0.65935212 0.08165146 -0.02212827
v -0.39493507 0.12018187 -0.32992738
v -0.30863744 0.34865016 0.33695653
v 0.64052713 -0.05601741 0.01188704
v 0.50581849 0.19760746 0.06714705
v 0.48041505 0.02613623 0.18370926
v -0.46747527 -0.25250298 -0.32502109
v 0.39037818 0.35359198 0.00653920
v -0.73452365 0.09858776 0.06173800
v -0.37540787 0.31348461 -0.04439549
v 0.50088203 0.23146883 0.14068225
v -0.47604686 -0.12114570 -0.25266454
v 0.63091367 0.02448786 -0.01296073
v -0.07513607 -0.29044753 -0.55009419
v -0.72851020 -0.00318282 -0.05410586
v -0.27009657 0.18453978 0.39594907
v 0.75524682 0.20779978 -0.02878363
v 0.53974891 -0.06774457 0.03158566
v 0.53674084 -0.05294397 0.03613533
v 0.25674298 0.39339185 0.13047549
v -0.58185703 -0.28906679 0.04502122
v 0.52969754 -0.30081883 -0.12345825
v 0.05911005 -0.18479930 0.58808148
v 0.65889686 0.07437254 -0.04694602
v -0.51499927 0.02516507 -0.25710520
v -0.62903422 0.22242710 0.04290202
v 0.86996245 0.37500492 -0.02300723
v -0.49658453 -0.22017212 -0.26329541
v 0.46087265 -0.12283065 0.26115990
v 0.43038493 -0.15047784 0.14724049
v -0.59337085 0.06302308 -0.02442154
v -0.89704502 0.13160902 -0.03517565
v 0.01724251 -0.10319426 -0.44584280
v 0.49822834 -0.13550565 0.05119716
v 0.13043468 -0.08611908 0.38293675
v 0.35114175 0.43059313 -0.01514521
v -0.29182768 0.29809040 0.26802051
v 0.61374933 0.04107262 -0.01996838
v 0.48422804 0.20228246 0.02860296
v -0.55653888 -0.07383714 -0.18182565
v -0.71378279 0.08941579 -0.08349277
v -0.38314542 0.04975821 -0.33144754
v -0.11596825 -0.44539815 -0.13165990
v 0.46758437 0.17928135 0.11799270
v 0.74887073 0.10837284 -0.08229897
v -0.53549147 0.29307377 0.13251621
v -0.56158590 -0.20734310 -0.03919052
v 0.68010151 0.13223630 0.02099575
v -0.30615467 0.27705669 0.35677862
v 0.10166063 -0.09384054 -0.54011053
v -0.63219547 0.03304859 -0.16500935
v 0.40120691 -0.07346967 0.08131379
v -0.46642712 0.22319224 0.00710081
v -0.70369595 0.13296525 0.04206571
v 0.34069976 -0.24240214 -0.35343209
v -0.51907712 0.11634663 0.07547650
v 0.75305349 0.06440601 -0.05012640
v -0.21713789 -0.27231866 -0.51629740
v -0.36222365 -0.09018849 0.46285164
v -0.59733236 0.18909618 0.02964967
v -0.62948805 0.07310632 0.06762251
v -0.71140051 -0.01341842 -0.01131366
v 0.47938651 -0.12605129 0.08788189
v -0.51120067 -0.20632242 -0.28480038
v -0.56444108 0.01650671 -0.13707817
v 0.22819860 -0.26704529 -0.44107386
v -0.56552786 0.17889610 0.10233369
v -0.14348941 0.10090208 0.41642505
v -0.69012451 0.09458835 0.01042393
v -0.26663905 0.23206596 0.36818063
v -0.76039481 -0.06250417 -0.13645416
v 0.34426510 0.20194258 0.26702607
v -0.47259688 -0.27484226 -0.35761911
v -0.42746678 0.09313911 -0.27129531
v 0.18840654 0.47410560 0.02572274
v -0.03422208 -0.06399673 -0.56203097
v 0.38502249 -0.28425488 0.08803214
v -0.15634902 -0.46371573 0.01016125
v -0.60967183 -0.23418838 0.02903051
v -0.45537141 0.33716050 0.03507254
v -0.44709527 -0.29277611 0.11958180
v 0.67897904 -0.04817794 -0.11373153
v -0.55463380 0.06290346 -0.16844694
v -0.37752819 0.32123229 0.03980222
v 0.16125940 0.28183573 0.33856833
v 0.87966841 0.21749221 0.05414963
v 0.65990680 -0.00482256 -0.07056019
v 0.70667994 0.11670975 -0.01935005
v 0.45942211 -0.29642719 -0.00698712
v 0.62299919 0.13566653 -0.00836787
v -0.43066674 0.11213766 -0.18272799
v -0.11617665 0.20342410 -0.43532908
v -0.18755469 -0.48988736 -0.12153688
v 0.34703013 0.09664344 0.31638521
v -0.58625257 0.06353077 -0.08982465
v 0.40797353 -0.12746286 0.22277647
v 0.79786062 0.27458695 0.00997999
v 0.49435532 -0.07507691 -0.16089073
v -0.62541831 0.19270049 0.06489187
v -0.40284038 -0.32504272 -0.37163138
v -0.58361459 0.07618511 -0.15908939
v -0.05607593 0.47559673 -0.02713770
v -0.33187369 0.34501970 0.08440456
v -0.34015840 -0.01649892 0.43318743
v -0.28160810 0.38719380 0.29978919
v 0.15121901 -0.18878412 0.50179017
v 0.36662000 -0.36577076 0.13787818
v 0.71529067 -0.02974235 -0.04379955
v -0.69436413 0.07581677 0.03064197
v -0.03727457 0.06695444 0.44930145
v -0.41092524 -0.05020544 -0.34345821
v 0.58357847 -0.03390396 0.00931851
v 0.19871056 -0.16466765 -0.47629330
v 0.25247997 0.14388673 0.37131619
v 0.33075684 -0.04142734 -0.34446269
v -0.44111636 -0.35715979 -0.25278160
v -0.59100699 -0.22812721 0.02164518
v -0.33364058 -0.19603409 -0.48190731
v 0.70457155 -0.05981987 -0.07349823
v 0.46073458 0.15641618 0.16748598
v -0.32517421 0.37870163 0.02288702
v 0.35328838 -0.29822695 0.26772776
v -0.40596098 0.31255019 0.22712034
v -0.58140731 0.06341925 -0.15084061
v 0.53359658 -0.01721521 0.17166099
v 0.00787277 0.16204196 0.51060468
v -0.61288190 0.11182006 0.01200971
v -0.01228944 0.38794845 0.23787490
v -0.06086561 -0.11739492 -0.06660187
v -0.47822529 0.08150743 -0.22659960
v -0.46201879 -0.01819956 -0.02939650
v -0.58652794 0.03814261 -0.20473880
v -0.01712655 0.48002559 0.21202928
v -0.30797958 -0.28449172 0.39359856
v 0.48063219 0.06772175 0.14048120
v -0.41666240 0.31124330 0.15512294
v -0.26102874 0.13624273 -0.31384760
v 0.32283825 -0.35310784 0.16823086
v -0.72247231 0.14214639 0.04964696
v 0.48097092 -0.13355118 -0.22473514
v -0.52551973 -0.03289471 -0.18799965
v -0.20985317 -0.35889003 0.40215427
v -0.28613457 0.19733182 -0.26626644
v -0.25020584 0.16771233 -0.42269340
v 0.39510751 -0.23768257 0.23318769
v 0.49131387 -0.11499551 0.11098705
v -0.47238746 -0.08746260 -0.28181714
v 0.40891221 -0.24254000 -0.09800307
v 0.47285378 -0.13458914 0.24322118
v 0.12451122 0.01649185 0.46980867
v -0.59757471 -0.16656174 -0.12358122
v 0.40381822 -0.35849461 -0.07796988
v -0.44264036 0.25308177 0.16788009
v 0.57368660 -0.26856172 -0.06880260
v -0.60209918 0.27557528 0.00473589
v -0.51807541 0.20535155 -0.08926302
v 0.70396143 0.17581478 -0.00282976
v -0.23658645 0.13714996 0.46317750
v -0.67018062 0.09471542 -0.08667444
v -0.14172612 -0.17713831 -0.57328713
v 0.26103956 0.35757643 0.07560682
v 0.62766969 0.11522529 0.03684023
v -0.69887483 0.18019204 -0.01756169
v 0.59160340 0.24423686 0.00513801
v -0.62720317 0.06867845 -0.03398245
v 0.52721053 -0.04231162 0.06019446
v -0.71236217 0.05378221 0.01244625
v -0.57653791 0.08024327 0.11937867
v -0.04946968 -0.45897904 -0.20137796
v 0.13358687 0.24344045 0.35223660
v 0.17890328 -0.39575183 -0.19917867
v -0.42810047 0.32264817 -0.07951385
v -0.56814808 0.07634377 -0.18302149
v 0.35315895 -0.18763958 0.28054845
v -0.62105262 0.18666725 -0.00746447
v -0.37039804 0.14665046 0.31272683
v -0.51108557 0.08478591 -0.19988063
v -0.50015986 0.14784521 -0.10085538
v 0.85165346 0.22910795 0.03636745
v 0.45303130 0.24134195 0.07535571
v 0.19701698 0.39934433 -0.02001652
v 0.39907289 0.29313067 -0.14974400
v -0.29046518 0.36956537 0.12460360
v 0.55012333 0.02181057 -0.07761070
v 0.51436925 -0.01486715 0.06578289
v -0.19285679 -0.28339067 -0.53706545
v 0.17700970 0.03665842 0.48059797
v -0.23085071 0.18441895 -0.40188986
v -0.40519232 0.07366799 -0.32149082
v -0.15825233 -0.06255031 -0.54506838
v 0.35465103 -0.37981716 0.05957412
v -0.43975776 0.05655316 -0.24771136
v 0.55784392 0.07084729 0.15948308
v -0.10443191 0.39101133 0.36489114
v -0.44333389 -0.14622647 -0.32476276
v -0.60788500 -0.19244377 -0.02525148
v -0.41291368 -0.04783476 -0.40207055
v -0.46608418 -0.14542019 0.18133765
v 0.54388267 -0.03395435 0.10409865
v 0.48579726 0.17977174 0.12101117
v 0.62416583 -0.06860892 -0.05376595
v 0.34785822 -0.39387637 0.04666100
v -0.51469266 -0.38084400 -0.10574552
v 0.66200507 0.15255646 0.02019739
v 0.01907388 0.31287435 0.37059319
v 0.12395569 0.42233086 0.28216612
v 0.47150680 -0.23838107 -0.20133094
v -0.57752085 0.08602569 -0.05502123
v -0.56402320 0.19234800 0.09220475
v 0.49657893 0.22875084 0.01759183
v 0.29411894 -0.19721669 -0.46100184
v -0.42049432 0.10056727 0.25567999
v 0.65161574 0.02320898 -0.01199910
v -0.34979162 -0.03640381 0.29222447
v -0.36307719 0.31420428 0.25907445
v 0.49743089 0.20154001 0.15707392
v 0.36292481 -0.26218021 0.19343373
v -0.13883968 -0.39609194 -0.49965724
v 0.61687130 0.07554290 0.04299074
v 0.66940236 0.06707579 -0.02978241
v -0.11604137 0.00545616 -0.52149665
v 0.61639076 0.16228747 0.04211640
v -0.40397790 -0.20911974 0.34819287
v -0.29499489 -0.43493572 -0.33807966
v -0.44309801 -0.22926326 -0.32761261
v 0.51643378 -0.21546955 -0.16866718
v 0.65558887 0.14716411 0.03779468
v -0.30011731 0.18104655 -0.29626608
v -0.32749069 -0.21642599 -0.47336948
v 0.30145031 -0.28955775 0.29118872
v 0.31183529 0.37481391 0.01883903
v -0.49443632 -0.22516654 0.11847329
v 0.53896254 0.35290873 0.01805151
v 0.17501338 -0.32525301 0.45325103
v 0.13789751 0.29319546 0.27599123
v -0.29548693 0.20397620 -0.24772683
v 0.68572247 0.15438834 0.00434587
v 0.53978616 0.22227220 0.07719743
v 0.53429931 -0.21601506 0.08393996
v -0.42837548 0.31099859 0.05036920
v 0.75713265 0.08389544 -0.07546622
v -0.03594077 0.24614656 0.47978723
v 0.71087176 0.08907802 -0.05409785
v 0.49673197 -0.19463240 -0.20478678
v -0.70261645 0.12619102 -0.00070181
v -0.65463942 0.12596120 0.01073372
v 0.63668567 0.18514873 -0.05559908
v -0.02584045 0.20222762 -0.39629188
v 0.53977281 -0.00946223 -0.07556605
v 0.59256387 0.04668841 -0.08265181
v 0.62618935 0.01485855 -0.03885432
v 0.49966812 0.03657167 0.18755886
v -0.22384086 -0.10487457 -0.54596680
v -0.39783868 0.32802120 0.16305950
v 0.71883082 0.22785154 -0.07173633
v 0.68452841 0.08900444 0.03247231
v -0.53331572 -0.23006022 -0.24044517
v -0.58118236 -0.19984369 -0.20601623
v -0.30391687 -0.29528069 0.29867780
v 0.64497876 0.19619659 0.01027691
v -0.29819691 0.21828383 -0.24281114
v -0.35986972 0.05645835 -0.37762496
v -0.15786591 0.46267831 0.19694194
v -0.38216972 0.01708291 -0.36567581
v -0.26501298 0.13337338 -0.39293331
v -0.42057908 0.07040800 -0.34478647
v 0.59880549 0.03149066 0.05374125
v 0.58975697 0.17645219 0.02742082
v -0.67529678 0.13015927 0.00179576
v 0.46672124 -0.19728290 0.16494329
v -0.18548790 -0.34332287 0.45244601
v -0.65017736 -0.21329899 0.00980936
v -0.18646145 0.00122854 -0.53299999
v -0.41128957 0.13265529 -0.18605062
v -0.65868145 0.13572513 -0.05663773
v 0.49978584 -0.13338155 0.04012275
v -0.58936226 0.07037467 -0.09255248
v 0.76142263 0.25369164 0.01034191
v -0.56223941 -0.05863295 0.11329257
v 0.28191757 0.23428708 0.27232334
v 0.12408206 -0.33040923 0.47396621
v -0.51989090 0.11409125 -0.13326055
v 0.64052689 0.10610159 0.02706888
v -0.63049489 0.19219105 -0.00085078
v -0.06535086 -0.08514974 -0.58198220
v 0.59855342 -0.14816305 0.00490275
v 0.45907325 0.21907292 0.09816977
v -0.70015210 0.16899157 -0.01099260
v -0.51854694 -0.09540879 0.09445059
v -0.41261622 0.11923371 -0.21265051
v 0.17370246 -0.17034768 -0.50645894
v -0.21422467 -0.22468317 0.49417555
v -0.28549469 -0.15180521 -0.51614910
v 0.53324193 -0.09603664 0.05092754
v 0.70224124 0.17415160 0.00427315
v -0.08934090 0.26103348 -0.31425893
v 0.61579484 0.05749175 -0.04053220
v 0.59681827 0.03672458 0.02684628
v 0.66758758 0.07289962 -0.02419635
v -0.08813083 0.04441478 -0.54914379
v 0.68311137 -0.11186238 -0.02738488
v -0.57788026 0.01992119 0.05491273
v -0.26195413 0.04394916 0.43352801
v 0.66387683 -0.02192630 -0.08487555
v 0.74433541 0.24501680 0.03618267
v 0.37161922 0.16051982 0.13776851
v -0.52269959 0.20727843 0.06786591
v -0.54886746 0.20152707 0.04760221
v -0.52280605 0.12219702 -0.14359877
v 0.79517573 0.25864950 -0.02764337
v -0.66699111 0.03045585 -0.17019159
v -0.86155409 0.00409925 0.01605451
v 0.52662873 -0.25390959 -0.17142446
v -0.16525355 -0.22022691 -0.59029424
v 0.41160268 -0.01785451 0.09871680
v 0.51317960 -0.21209449 0.13736986
v 0.10806383 -0.15216544 0.54284793
v -0.63197368 0.02854578 -0.10859844
v 0.67169040 0.07323521 0.08398008
v -0.56398016 0.01267861 0.09335381
v -0.69619775 0.03550659 -0.07402359
v -0.16973904 0.41407183 0.27850232
v 0.09311295 0.43087584 0.18053916
v 0.45562148 0.39224708 -0.01667857
v 0.61726439 0.12488440 0.01832822
v -0.72960514 0.06341682 -0.00679359
v 0.36077347 -0.33526218 0.17280811
v -0.48877603 -0.08108140 -0.15223457
v -0.67224967 0.19452736 -0.00155818
v 0.04321788 0.50107718 -0.05015016
v -0.15621084 0.03737378 -0.52591610
v 0.35634357 -0.11503805 0.27647835
v 0.69252151 -0.01291314 -0.01195886
v -0.35266745 -0.15509069 0.46718311
v 0.60182357 0.29981953 -0.02871346
v -0.23145670 0.40891311 0.03354201
v 0.48037601 -0.21768592 -0.04163685
v 0.75091028 0.27338737 0.00665431
v -0.10807952 -0.08130138 -0.59448415
v 0.50653356 0.17909890 0.12791464
v 0.29903242 0.26288015 0.20722938
v 0.68320227 0.06508344 0.02497289
v 0.06876323 0.40906253 0.21764547
v -0.17751625 0.34319878 0.37317502
v -0.37961495 0.36009377 0.16471523
v -0.55238986 0.00431816 -0.22842279
v -0.47586268 0.01164565 -0.28666583
v -0.24713072 0.16737527 -0.42316580
v -0.71006632 0.03735514 0.01422423
v -0.18626642 0.44134772 0.15295324
v 0.48522896 0.08862357 0.21196094
v 0.68816316 0.12117266 -0.01096320
v 0.42801282 -0.25537241 0.11580263
v -0.58655733 0.01339328 -0.26957768
v -0.29360396 -0.22146988 -0.45370436
v -0.28593355 0.39132646 -0.11860478
v 0.34563339 -0.30298278 -0.26458681
v 0.21210527 0.10786401 0.44192785
v -0.44201553 -0.06753682 0.18377259
v 0.50794286 -0.15181731 0.05692384
v -0.49470526 -0.36822307 -0.16575900
v -0.54615641 0.17533772 0.04493314
v -0.19381873 -0.37528095 -0.39185876
v 0.69143289 0.22953966 -0.03619069
v 0.47121829 0.22442120 0.16863519
v -0.45590252 -0.01067694 -0.22229546
v 0.34409085 -0.37984627 0.08728687
v 0.57850409 -0.17164114 -0.06199497
v 0.55387318 0.02841957 0.04316483
v 0.20266008 0.07591908 0.23817956
v -0.73658162 0.08094287 -0.00669668
v -0.45313135 0.04558842 -0.27132794
v -0.22592440 0.01860929 0.41071746
v 0.30823052 -0.26800248 -0.31256193
v 0.66874480 0.13142172 0.02476892
v 0.03648682 -0.24380215 -0.55959642
v 0.29279402 -0.37082070 0.01564126
v 0.45214480 -0.24273162 -0.22238205
v 0.41955703 0.12299235 0.21419510
v -0.08134845 -0.30625200 -0.53181523
v 0.45898217 0.03874387 0.19752613
v -0.17041221 0.14075164 -0.49873292
v 0.00523016 -0.26819280 -0.52991462
v 0.41055661 -0.17275964 0.19033290
v 0.64066029 0.17774616 0.02208996
v -0.08373598 0.08128233 0.56793135
v -0.75489527 0.10969128 0.03611873
v 0.22610962 -0.03650571 -0.41298121
v -0.31753159 0.05761890 -0.43142739
v 0.35944349 -0.33406317 -0.02068576
v -0.01321950 -0.18439205 -0.56253397
v -0.35299537 0.29636151 0.25606221
v 0.46947825 0.06597695 0.21637809
v -0.63667130 -0.18075256 -0.00411371
v -0.54120773 0.19085833 0.08891955
v 0.34413016 -0.19368660 0.34831709
v 0.35948482 -0.32072595 0.03052573
v -0.42114297 -0.11471770 -0.34424794
v -0.31049532 0.15188992 -0.39588416
v 0.59617394 -0.14826572 -0.03197032
v -0.78010094 0.00942372 -0.08213235
v -0.49327651 0.01146652 0.18111944
v -0.40513426 -0.40811568 -0.12629600
v -0.69444108 -0.12058657 -0.03703097
v -0.24063128 0.13212824 0.38012671
v -0.29690930 0.17865880 -0.32420003
v 0.72695494 -0.02145850 -0.04221381
v -0.18472397 -0.37411594 0.27551931
v -0.52860153 -0.26174361 -0.14510567
v -0.63139600 0.07168826 -0.11654437
v 0.54856700 0.03041617 0.07389615
v -0.18996833 -0.18781573 0.40441978
v 0.57200801 0.23252401 0.01116815
v 0.51450831 -0.08139189 0.14534916
v 0.58110917 0.27942842 0.08300093
v 0.45952833 -0.05694215 0.12065446
v -0.52403110 0.12060986 -0.16263933
v -0.11165354 0.40328658 0.27507365
v -0.44862297 0.03536256 -0.21604402
v -0.32908005 0.38534802 0.09375066
v -0.61127645 0.05597223 -0.17002583
v -0.26729655 0.19483386 -0.31489152
v -0.50337034 0.26520196 0.06553620
v 0.53829783 -0.07605672 -0.11679250
v 0.41871643 -0.34954417 -0.00873329
v -0.62993735 -0.01870656 -0.17817661
v -0.47671631 -0.06952410 -0.31251490
v -0.29315150 0.10098660 -0.41017389
v 0.24936657 0.25790361 0.28068823
v 0.73535436 0.22405881 0.01296839
v -0.41852742 0.03413060 -0.29588720
v 0.05643436 -0.41411182 -0.27192333
v -0.44497526 -0.37970066 -0.10688879
v -0.58072239 0.25452241 -0.00061369
v -0.77130675 -0.06685436 -0.06046943
v 0.12613627 -0.09378256 0.53168321
v 0.58843476 -0.00593785 0.14291224
v -0.19335932 -0.38008201 0.40949446
v 0.62711287 0.01292762 0.08168860
v -0.44064552 0.07678358 -0.25060308
v -0.16832875 -0.29360405 0.33881861
v 0.08156275 -0.40386802 -0.25040638
v -0.07508187 -0.08081245 -0.58001953
v -0.26341727 0.12718412 -0.47225201
v -0.69743073 -0.07521898 -0.08703195
v -0.69347453 0.02265567 -0.00915467
v 0.71864164 0.18265025 0.01197447
v 0.50755012 -0.16423735 -0.12812865
v 0.15717123 -0.22876006 0.44869295
v 0.66402572 -0.00691725 -0.00634779
v 0.56216311 -0.01376295 0.05724847
v -0.26705062 0.19185802 -0.28621566
v -0.38193175 0.31687269 0.14177987
v 0.36772582 -0.28660899 -0.11826016
v 0.60228360 0.19175161 -0.01468177
v -0.30480030 0.17348306 -0.27678466
v 0.33840293 -0.30714616 0.20858005
v -0.28390151 0.26856542 0.34740543
v -0.38877898 0.13323957 -0.21804419
v 0.56989706 -0.07394610 0.03969349
v -0.10820957 0.29257131 -0.24459523
v -0.42607772 0.13418196 -0.24638638
v -0.56886387 0.01496566 -0.04878317
v -0.52591455 0.24010155 0.08472404
v -0.48665792 0.15447919 0.16634753
v 0.65960383 0.12886705 0.02309698
v -0.30595887 0.16449811 -0.31901872
v -0.57709908 0.00507116 0.16108114
v -0.39745602 0.18196119 0.29506543
v -0.35267505 -0.36564052 0.00682180
v -0.00382265 0.22437656 0.44024068
v 0.78232270 0.35535839 -0.01379871
v -0.43461075 0.12481894 -0.17812431
v -0.74644661 -0.17348029 -0.03627304
v -0.66975027 0.18258703 0.04061665
v -0.03417119 0.02889756 0.44167438
v 0.67328644 0.12796229 0.00779909
v 0.70591938 0.40834528 -0.00732690
v -0.30682534 0.16588396 -0.26303276
v 0.59891701 0.10403697 0.05123490
v 0.02985702 0.45243609 -0.03819925
v 0.45065543 -0.31990883 -0.10403559
v -0.68090791 0.14829656 -0.01397962
v -0.44855350 0.11932778 -0.22197837
v 0.76692498 0.28770494 0.00582854
v -0.09842643 -0.03554253 -0.49564064
v -0.64976460 0.23661137 0.02215943
v 0.08568581 -0.36043280 -0.27507532
v -0.01857362 -0.00017279 0.46047279
v 0.74019128 0.06118939 -0.03973816
v -0.74084526 0.09228563 -0.06322247
v 0.53358024 0.05008993 -0.04512328
v 0.34917822 -0.00820281 0.29216588
v -0.43185133 0.08199300 -0.29317427
v 0.44146985 -0.01931429 0.16421300
v -0.45280015 0.33504170 -0.12454069
v -0.77544123 0.02354567 -0.04317555
v -0.33681655 0.09200020 -0.32056192
v 0.44779086 0.03745867 -0.21148616
v 0.64093626 -0.00449222 -0.02509386
v 0.57654250 -0.15858971 0.04325122
v -0.50910425 -0.04268606 0.03481720
v -0.48060235 0.17774434 -0.10004336
v -0.60242093 0.21493287 0.04669964
v 0.63755071 0.05133499 0.06574813
v 0.38690063 0.09778089 -0.12930879
v -0.43230107 0.17867178 0.15213697
v -0.56282949 0.13839358 0.06783494
v -0.13828278 0.34561276 0.35784897
v -0.54269391 -0.20167029 0.07889219
v 0.45264840 -0.10790263 0.07486206
v 0.70424747 0.20010200 0.01073325
v 0.07294880 0.36013407 0.19866055
v 0.18713979 -0.42257026 0.14898542
v -0.31357759 0.41527414 0.04947776
v 0.24328184 -0.33288127 0.39134145
v 0.73031640 0.17949151 0.00967724
v 0.52273268 -0.28247139 -0.03176831
v -0.14234576 0.33869398 0.41833284
v -0.35944736 0.31069502 0.34823737
v 0.67042768 0.12571752 -0.07579551
v 0.33627170 0.23388265 -0.29195514
v -0.12791733 0.35584113 0.11520362
v -0.21747801 -0.26531777 -0.46593070
v -0.45797104 -0.15414207 0.15105930
v -0.80198449 0.13672853 -0.01781925
v -0.20468107 -0.00468576 -0.48435360
v -0.72172827 0.06802486 -0.08795002
v -0.07610074 0.36871400 0.13190246
v -0.05380814 -0.10903008 -0.59440577
v -0.39610866 0.34722850 0.14242214
v 0.47288796 -0.06682235 0.17246680
v -0.40821886 0.13660528 -0.21933129
v 0.64936209 0.22517246 0.07898223
v -0.40178144 0.27210444 0.10757092
v -0.48751524 -0.27692854 -0.31584948
v -0.67850846 -0.01352454 -0.04414833
v -0.56565613 -0.20712182 -0.18804811
v 0.31351531 -0.16621588 -0.26545653
v -0.52398503 0.12049937 -0.05175871
v 0.33863986 0.31737509 0.02059773
v -0.16804497 -0.41526166 0.11361299
v -0.40257418 0.03384562 -0.36798131
v -0.74660087 -0.06234357 -0.06072955
v -0.38971841 0.16297597 -0.17385659
v -0.21282063 0.40921161 0.30450732
v -0.55391961 -0.05022626 -0.19225851
v -0.36168271 0.08540764 0.41607913
v 0.41516030 -0.21030283 -0.17414074
v 0.57876956 -0.16843042 0.05696746
v -0.68940395 0.10909443 -0.00890645
v 0.01051968 0.28547737 0.40604159
v -0.28757334 -0.11653841 -0.51140404
v 0.64279866 -0.02837839 -0.03616652
v 0.02094439 -0.01903242 -0.55000150
v -0.45031270 0.09183666 -0.20206374
v 0.45175600 -0.14197917 -0.18465380
v -0.45279992 0.30006796 0.19805086
v 0.44752538 -0.18829542 -0.12686011
v 0.62780130 0.05483864 -0.12758316
v 0.47956169 -0.20827284 0.06858873
v 0.10117361 -0.21544331 -0.53753024
v -0.53962857 -0.12917894 0.07978907
v 0.45319718 -0.16784717 0.17599271
v -0.53233284 -0.05697098 0.09994626
v -0.14769456 0.39666414 0.26332882
v -0.02226448 -0.13880470 -0.49441490
v -0.45889863 0.03588308 -0.23911512
v -0.49028444 0.16541813 0.11633787
v 0.51547718 -0.06453364 0.07347143
v 0.77759749 0.28914738 -0.02817777
v -0.14667588 -0.26351261 -0.48925257
v -0.41506994 0.15902966 -0.20009431
v -0.57268363 -0.08603215 0.10656837
v 0.40933532 -0.07040480 0.28195775
v -0.77984583 0.14265627 -0.03418574
v -0.44118601 0.35248929 0.07186586
v 0.56623495 -0.10707547 -0.17622361
v 0.68584859 0.20953277 -0.00355911
v 0.39689332 -0.16877365 0.10480912
v 0.38533670 0.09815177 0.12883778
v -0.69359940 0.05269324 -0.01529917
v -0.57688171 0.09716781 0.10612205
v -0.61652797 -0.05284221 0.03177489
v -0.37177151 -0.21884388 -0.45419058
v -0.49468109 0.27966732 0.03748763
v -0.51781255 0.29110381 -0.16343653
v -0.45747399 0.13154326 -0.23323506
v 0.70081574 0.18424365 -0.00244359
v -0.43169376 0.14764601 -0.23423329
v -0.54339385 0.10446076 -0.13216874
v -0.27954569 0.35320488 -0.06097176
v 0.57344198 0.18137732 -0.10073336
v -0.37906668 -0.41774860 -0.30035466
v 0.19264874 0.42688614 0.15824929
v 0.64298224 0.03004703 -0.12081338
v -0.37511808 0.11504287 0.34285641
v -0.44623500 -0.06251713 -0.30347374
v 0.53220272 -0.02829313 0.01190948
v 0.30465648 -0.05697879 0.39814895
v 0.08947206 0.50175327 -0.12631449
v 0.63196540 0.03937391 -0.04987517
v -0.60704553 0.11579481 -0.06953742
v 0.44626319 -0.05919331 -0.24594910
v -0.58559942 0.22628668 -0.01595894
v -0.22318146 0.31218147 0.33219671
v 0.73206729 0.08003452 -0.04377426
v 0.09429355 0.14787990 0.46709096
v -0.22216713 0.05695776 -0.53335238
v 0.56685179 0.23190013 0.02265555
v 0.38471437 -0.10299696 0.23544152
v 0.55154139 -0.10437770 0.14079455
v 0.84024763 0.35587400 -0.02128448
v 0.66226417 0.11549243 -0.06601503
v -0.64780504 0.01153406 -0.13503087
v 0.42907643 0.22571635 0.01534268
v 0.70132029 -0.06730746 -0.08849451
v 0.68774009 0.16985372 -0.00236331
v 0.33217993 -0.34845316 0.17375524
v -0.37752247 -0.12355092 0.38692155
v 0.38635838 -0.18256386 -0.14138426
v 0.71836722 0.19947299 0.00248056
v 0.58006161 0.29493257 0.02183750
v -0.65676862 0.21926527 0.00380524
v -0.47619623 0.29672310 0.13502616
v -0.37362808 0.01370443 -0.33411098
v 0.31738955 0.05116050 0.25686240
v -0.13735823 -0.26742679 0.46722060
v 0.54159647 -0.00124229 0.01104158
v -0.20012712 0.07657257 -0.50715363
v 0.54053122 0.02406603 -0.00822273
v -0.10327502 -0.13438320 0.50379634
v 0.75912094 0.29650268 -0.02899390
v 0.60637379 0.15161218 -0.03100818
v -0.24933337 -0.20816037 -0.49975267
v 0.60831887 0.05785051 -0.03968968
v 0.64105862 0.05603590 -0.03199725
v -0.20589717 0.18761003 -0.37885916
v 0.55689979 -0.19334964 0.08068775
v -0.42180002 0.12453082 -0.22122508
v -0.76349139 0.01912021 -0.08719192
v -0.70713466 0.16422373 -0.03651584
v 0.50759947 -0.04045501 0.04363129
v 0.38434327 -0.09575279 0.33080184
v -0.13543198 -0.17292042 -0.60454029

