# https://github.com/mikedh/trimesh
v -0.23592314 -0.05886314 -0.66946608
v -0.48190156 -0.13704081 -0.29505622
v 0.21800356 -0.18829487 -0.08981389
v 0.49976811 -0.19648017 -0.36373216
v 0.34615171 -0.09621332 -0.01848068
v 0.69852197 0.01168456 -0.08935439
v -0.70261437 0.13347845 -0.63197011
v -0.07019795 -0.21521093 0.16093743
v -0.30173963 0.36243343 0.34471118
v 0.51563567 -0.14365861 0.22034024
v -0.31130499 -0.17494832 -0.23005132
v 0.86228889 0.10711159 0.10326420
v -0.39712682 -0.14290990 -0.16739684
v -0.17231351 -0.28040788 -0.59797668
v -0.62912643 0.00355369 -0.48949873
v 0.60857302 -0.01240794 0.11173859
v 0.23596115 0.09753715 0.35919139
v -0.43222043 -0.10370595 -0.20410030
v -0.37430170 0.01851044 -0.64365041
v 0.01016595 -0.07784057 0.38797444
v -0.53950918 0.14313401 -0.03469691
v -0.46437299 0.24231961 0.47447780
v 0.69467217 0.00145061 -0.08902861
v 0.09416282 0.04462614 -0.25317368
v 0.05550566 0.06956767 -0.13096520
v -0.23027958 -0.18100543 0.23327805
v 0.50808340 -0.02043985 -0.38058355
v -0.26151234 0.08356854 -0.47749436
v -0.31642801 -0.14466953 -0.06194623
v -0.36587271 0.13807414 -0.51071411
v 0.43216074 -0.12745784 0.47939923
v 0.91195434 -0.00766219 -0.18312937
v -0.16612312 -0.30640051 -0.58504689
v -0.12413478 -0.29573530 -0.60023665
v 0.82354558 0.03093820 0.11534747
v -0.62338352 0.17707059 0.33922720
v 0.01757793 -0.18035126 -0.75702006
v 0.32007882 0.06446555 0.50371629
v 0.41344407 0.17560348 0.49272481
v -0.25413331 0.00246328 -0.62279338
v -0.03334025 -0.02960000 -0.47495544
v 0.54982543 -0.15891178 0.11855699
v 0.55526429 0.23831944 0.50342178
v 0.20175399 -0.16214204 -0.40033957
v -0.39976999 -0.09047184 -0.32893288
v 0.20697281 -0.14448406 -0.41558716
v -0.67732763 0.05348751 0.33410409
v 0.41034320 0.21324025 0.13690346
v -0.47728434 0.04378511 0.50513446
v 0.48629326 0.22822358 0.26301119
v -0.58737302 -0.13973923 0.19959579
v -0.35536033 -0.26547077 0.41321385
v -0.42171106 -0.12068418 0.10696422
v -0.21725968 0.11327644 0.14851306
v -0.25569403 -0.11863919 -0.07391734
v 0.28836158 0.04990512 -0.25768411
v 0.08254869 -0.23468614 -0.09367469
v 0.05705623 -0.21401440 -0.75710231
v -0.67213917 -0.00121498 0.33359489
v 0.30446291 0.00702448 -0.40067869
v -0.33242780 0.04472920 0.47737774
v -0.15432103 0.18632826 0.48971394
v 0.13203241 0.19617422 0.46302715
v 0.58312398 0.08456890 0.49572852
v 0.45966718 -0.22798759 -0.17858921
v 0.31774712 -0.25028622 0.34733874
v 0.57767087 0.04966923 -0.06506776
v 0.22555576 -0.13896857 0.26003450
v -0.15316129 -0.13866596 -0.54430383
v 0.52021265 0.07287451 0.32480159
v -0.61174595 0.05362392 0.44402310
v -0.34420097 0.26982260 0.25057557
v -0.16975228 -0.21576384 0.50590533
v 0.24101922 0.03865022 0.33704239
v 0.31656539 -0.27798277 0.29636389
v 0.38718113 -0.34429181 0.40079367
v -0.06882429 0.08634444 0.47414827
v 0.46565935 -0.22912653 -0.03328178
v -0.62029719 0.13394101 0.04759572
v 0.18711910 0.02366272 -0.07012729
v 0.56206298 -0.03581109 -0.35713693
v 0.71011001 0.17864981 0.10407923
v 0.54159182 0.05871576 -0.04292887
v 0.01290709 -0.22534977 -0.03240952
v -0.29247183 0.33416247 0.39311871
v -0.36813030 0.12139286 -0.55381078
v -0.17141420 0.20834850 0.48769090
v -0.50586754 0.29941389 0.35863155
v 0.42505628 -0.22963203 -0.35575962
v -0.29064852 0.11608722 0.50047052
v -0.48322886 -0.12858985 0.08264008
v 0.56926954 0.15353325 0.27994198
v 0.53407764 0.28195652 0.37629166
v -0.20007187 -0.19285640 0.27674663
v -0.43603435 0.00319292 -0.32697770
v -0.51162559 -0.03372957 -0.14939576
v 0.22391808 0.13130231 0.38557020
v 0.24134286 -0.17876235 0.27489811
v 0.14801177 -0.21414852 -0.01977917
v 0.45148683 0.23061462 0.45113218
v 0.85596687 0.18162644 0.17386562
v -0.04830157 0.26778609 0.50553966
v -0.08018743 0.12709805 0.15077004
v -0.78273892 0.26172605 -0.32629934
v 0.19450670 0.05735964 -0.17956534
v -0.30616045 0.09437793 -0.16709346
v -0.32336295 0.36003023 0.29799178
v 0.17264344 0.04957581 -0.08791693
v -0.58412707 0.10216918 -0.04759045
v -0.50874990 -0.02058394 -0.15633981
v -0.05234694 -0.16041365 -0.73022586
v -0.00859643 -0.07148123 -0.24705061
v 0.58209157 -0.13429712 -0.35306555
v -0.15766250 -0.03540904 0.50675035
v 0.85542804 -0.06393430 -0.28867909
v 0.69356477 -0.02796273 -0.12133574
v 0.32167763 0.08564408 0.48955536
v -0.12440540 -0.23340093 0.45742899
v 0.44296142 -0.30641127 0.45425737
v 0.09111232 0.06807209 0.17223755
v -0.51234138 0.08191384 -0.57143629
v 0.56256479 -0.11354607 0.47465876
v -0.33928347 -0.08619221 0.16454092
v -0.43542975 -0.11976778 -0.62835234
v -0.57999569 0.15334223 0.43262914
v 0.30872804 -0.12804808 0.47224870
v 0.53619182 -0.21266215 0.35810804
v -0.01770959 0.15443993 0.20594853
v 0.47210953 0.05173464 0.06460489
v -0.64002281 0.10892443 0.05450930
v 0.51345903 -0.17642675 0.16172074
v -0.30417979 0.39399096 0.45759276
v 0.66030163 -0.13693848 -0.17602423
v 0.57491088 0.12307166 0.48838666
v -0.70293111 0.00823155 -0.57240975
v 0.18783130 -0.07579079 0.04638939
v 0.53158790 -0.00303211 0.17163324
v 0.79505426 -0.05552198 -0.10031612
v 0.03753302 -0.07808470 0.35494128
v 0.66345143 0.07606690 0.50084758
v -0.24895981 -0.18316752 0.26324898
v -0.56626439 -0.07905095 -0.32470727
v 0.24504821 -0.17072780 0.33967251
v 0.19486418 0.12456682 0.38945764
v 0.15793099 -0.05046439 -0.38742945
v -0.66317749 0.09304304 -0.28637815
v 0.44255602 0.22239755 -0.00107438
v 0.71759826 0.28493235 0.23202306
v -0.02646349 0.29822117 0.46451554
v -0.12680507 -0.11819472 0.48789990
v -0.23257077 -0.13038945 0.49634653
v -0.24576189 -0.13611060 -0.68316227
v -0.31402791 0.10129543 -0.53940827
v 0.02607916 -0.22755523 0.08836839
v 0.00908421 0.09857362 0.01470048
v 0.18183485 -0.04624207 0.05011586
v 0.20180234 -0.02740769 -0.02743085
v 0.05537491 -0.23160560 -0.01556915
v 0.82495528 0.00771661 -0.02582380
v -0.28555262 -0.27760717 0.43159434
v -0.49010637 0.04988605 -0.15823098
v -0.49131450 -0.22261605 0.18114370
v -0.40503833 0.38610959 0.48672014
v -0.19749673 0.06941850 -0.68102181
v -0.40430814 -0.09089445 0.49486724
v -0.10035474 0.15510149 0.48591027
v 0.58462793 0.08634891 0.49571472
v 0.15766686 0.30506822 0.45429894
v -0.10819550 -0.06029903 -0.11028569
v 0.20758627 0.05840882 -0.23244736
v -0.17039606 -0.22434300 -0.49029794
v 0.39962459 0.04916206 0.15900160
v -0.54195595 -0.11811180 0.44372967
v -0.27796087 0.03659786 0.12710169
v 0.29414099 -0.17089283 0.10546266
v 0.51632500 -0.18722734 0.13764411
v -0.26732275 -0.25001621 -0.36853987
v -0.37465391 0.39193776 0.35982963
v -0.31205562 0.08092912 -0.22459717
v -0.29996356 0.03507829 0.48312119
v -0.50772744 0.18414026 -0.34076178
v -0.34975871 0.08322754 -0.61598676
v -0.60125065 0.06347067 0.45350489
v 0.36317319 -0.26008847 0.29000017
v -0.14307581 0.09390185 0.11811379
v -0.24773155 -0.15479372 -0.13208900
v 0.75693393 -0.04187957 0.01238010
v -0.32629997 0.01882285 -0.63328123
v 0.41908753 0.05481116 -0.24635045
v 0.67690343 0.14832473 0.50681210
v 0.70490086 0.22611663 0.47270307
v -0.49188313 0.07485013 -0.40787455
v -0.69144654 0.07358381 0.28935835
v -0.39297214 0.11773728 -0.57853925
v -0.17122220 -0.29794019 -0.51643044
v 0.54925680 -0.11437807 0.14052732
v -0.10899117 -0.08234624 -0.36553928
v -0.56741393 0.13504417 -0.56138271
v 0.12481384 -0.08998231 -0.38925597
v 0.02110792 -0.22906932 0.04105590
v 0.80085760 0.18203346 0.37213799
v 0.41982627 -0.24032034 0.26933548
v 0.26593959 0.16374037 0.31978253
v -0.54221129 0.11783919 -0.37638566
v -0.57010621 -0.11288292 0.07304936
v -0.24631999 0.27246910 0.28391850
v 0.64227569 0.24778812 0.23978716
v 0.03770588 -0.12795228 0.31442779
v -0.43947074 -0.02598540 -0.42479199
v 0.68722826 0.04684850 0.06782713
v 0.42120144 0.14406992 0.25510505
v 0.82715911 -0.07500630 -0.17819881
v 0.31174526 0.19622505 0.24156183
v -0.05833184 0.00381439 -0.59424257
v 0.63429511 0.16877830 0.23642714
v 0.19848660 -0.05821200 0.00407147
v 0.11596738 0.06202363 0.08626160
v -0.57401192 0.11814149 -0.38651392
v -0.48995051 0.17404604 -0.47876987
v -0.60892063 -0.03418903 -0.45812064
v -0.62460685 -0.10332104 0.22305755
v -0.40313703 0.01683252 -0.24832350
v 0.28379565 -0.13618079 0.09790347
v 0.68993515 -0.04140882 0.50197899
v -0.65150911 -0.03700532 -0.52339172
v 0.31679440 -0.24004757 0.30425385
v 0.43533695 -0.20743181 -0.12641926
v -0.15087621 -0.08685373 -0.13253680
v -0.05164721 -0.00678903 -0.41805899
v -0.42326975 0.07710719 0.49982703
v -0.15716413 0.05281503 -0.59721494
v 0.39314154 -0.20857865 -0.19496520
v 0.17546125 -0.13939297 0.04216167
v 0.30226520 -0.31531593 0.40218955
v -0.18471824 0.06700660 -0.40021333
v 0.33323368 -0.30917060 0.36677581
v -0.11407322 0.03047858 -0.60526103
v 0.49237236 0.05738575 -0.24512070
v -0.00678851 -0.22336136 0.00994738
v -0.13221091 -0.22494859 0.46627656
v 0.43129557 0.19832060 -0.01994311
v -0.16157936 0.13807869 0.48714063
v -0.54358745 -0.10208264 -0.56098336
v -0.74359757 0.07809997 -0.29799631
v -0.21306592 -0.24521303 0.34283412
v -0.14155373 -0.18045416 0.44477770
v 0.54112124 -0.04281680 0.49822626
v -0.31537372 0.14575049 0.13351189
v -0.41631716 -0.11271742 -0.21722600
v 0.51583368 0.00783358 -0.35708529
v 0.32681194 0.03492794 -0.36698928
v -0.61704516 0.02107845 -0.28656322
v 0.30580008 -0.24111398 -0.26522037
v -0.10537250 -0.09892751 0.48950535
v -0.60230809 0.04181862 -0.28821781
v -0.24120145 -0.14912197 0.48577070
v -0.29828519 0.39146453 0.43417293
v -0.59073502 -0.00080756 0.46209216
v -0.37106594 0.26595315 0.20853660
v -0.28919175 -0.26522973 -0.67555606
v 0.68914163 -0.05745706 -0.03364856
v -0.65962774 0.17619452 -0.50617737
v 0.46856233 -0.30507451 0.43029267
v 0.29173085 -0.27574331 0.34577650
v 0.65427184 0.10145478 0.23336910
v -0.34138653 -0.03007181 -0.65410304
v -0.62740690 -0.09822675 0.15868261
v 0.07117794 -0.22544985 0.05662706
v 0.06696890 -0.18628170 0.18224542
v -0.04464174 0.14202039 0.43573207
v -0.33605653 -0.26119387 0.48030680
v 0.40520364 -0.27026537 0.41536921
v 0.14466263 0.05556026 -0.01751310
v -0.00612807 0.13171433 0.19929692
v -0.40129933 0.25794178 0.17554957
v -0.18301713 -0.22144559 0.32818517
v 0.00233871 0.15056252 0.36162713
v 0.54949915 -0.15461563 0.12361304
v 0.16550462 -0.21191938 -0.04101543
v -0.44548881 0.07342792 -0.63077158
v -0.57356191 -0.10681213 0.05405384
v -0.14873278 -0.17551669 -0.39082912
v -0.46102643 0.15094480 -0.04931214
v 0.19253458 -0.00491099 -0.38139915
v -0.65361309 0.15148388 -0.53646624
v -0.51412684 0.11040292 -0.31769842
v 0.40466657 -0.34421939 0.40487450
v -0.30154973 -0.08811935 0.00434640
v -0.00264891 0.14168955 0.35545310
v -0.80714393 0.13649516 -0.39652717
v 0.43668613 0.14859077 -0.12992328
v 0.45063731 0.09898469 0.47803241
v -0.42101261 -0.17843537 -0.53896493
v -0.27120450 -0.05343816 0.15551710
v 0.49032858 0.05692000 0.01321764
v 0.35146698 -0.02861713 -0.15613316
v -0.31620285 -0.24729164 -0.66814268
v -0.05297277 0.13293639 0.42608222
v -0.37420779 -0.14172332 -0.04031196
v -0.28943339 0.06778941 -0.27753615
v 0.72432047 0.19084911 0.09638256
v 0.82269603 -0.07329275 -0.28821409
v -0.54010373 0.21961556 0.33430898
v -0.44161293 -0.14890671 -0.29987675
v 0.17447373 0.25806066 0.42287591
v 0.14519483 -0.05856977 -0.38155678
v -0.37225398 0.13520376 -0.05377648
v -0.50706708 0.16475928 -0.31112957
v -0.56340492 -0.10106227 -0.44079792
v 0.35517532 0.28202438 0.45051572
v -0.33283874 0.12310998 -0.51153672
v -0.69241017 0.25237173 -0.29464674
v 0.47038504 -0.22940411 0.09883980
v 0.71504623 -0.04748651 -0.19750310
v 0.26376003 -0.05866212 0.11730358
v 0.22596544 -0.00576047 0.33763433
v -0.13399251 0.21693406 0.31047252
v 0.05099702 0.04707664 -0.20295328
v -0.56206900 0.03161220 -0.39166009
v 0.48692524 0.18964510 0.08566073
v -0.67836523 -0.03977996 0.19369146
v -0.50691825 -0.22332883 0.26473626
v 0.54672420 0.04865509 -0.00253019
v 0.59577352 -0.13211665 0.34566164
v -0.57195210 -0.02740750 -0.47209120
v -0.37065625 0.01313430 -0.30239746
v 0.37125337 -0.23305002 0.29031697
v 0.46727592 -0.22911195 -0.03688981
v -0.07312115 -0.22228518 0.25039241
v -0.51137799 -0.10757825 -0.38117748
v -0.38674992 -0.05772255 -0.30026487
v 0.67877120 -0.09630080 0.44302267
v 0.00346131 -0.02633877 -0.47267619
v -0.16976625 0.11440385 0.50517833
v 0.55083084 -0.08316067 -0.41956314
v -0.48363602 0.43001020 0.37873864
v 0.61097133 0.00624637 -0.25059348
v -0.62924123 -0.04199266 -0.44764331
v -0.10032322 -0.13626969 -0.00131352
v 0.59838039 -0.00337493 -0.28783152
v 0.49335754 0.19151890 0.04914767
v -0.64233750 0.14760181 0.34984607
v 0.62691373 0.09537189 0.27817008
v -0.19888917 0.31650016 0.37411711
v -0.73821932 0.18552759 -0.40816826
v -0.04855036 -0.06721022 0.46072045
v 0.64405680 -0.07539675 0.49925530
v -0.56526518 -0.07330241 -0.53604931
v 0.04247034 0.06597709 -0.13741848
v 0.02488169 0.02488437 -0.20923008
v 0.71764219 0.21837214 0.12902266
v -0.55257583 0.11296177 -0.56108654
v -0.56624198 0.17012757 0.03898000
v -0.41645068 0.00748007 0.49648651
v -0.48254591 0.39192563 0.36929661
v 0.01227879 -0.19759491 0.23096779
v -0.52730012 0.23752356 0.30000764
v 0.59036225 0.03644631 -0.03156534
v -0.47910604 0.38856149 0.33880249
v -0.49478051 0.38192123 0.38881415
v -0.68360877 0.20529512 -0.54830718
v 0.37384281 -0.23705730 0.16947927
v -0.12627597 0.31185463 0.46422908
v -0.31522417 0.31333879 0.42020702
v -0.19940028 0.29448050 0.44200116
v 0.72643501 -0.09160859 -0.10937989
v -0.45165202 0.19523866 0.09127567
v 0.23410845 -0.08022544 -0.06365354
v -0.47893828 0.06283379 -0.41226131
v 0.37987414 0.07775085 0.49977562
v -0.69097918 0.24964342 -0.34981596
v -0.48664221 0.19406033 0.08393763
v -0.51636499 0.11296251 -0.09647402
v -0.49145260 0.35729477 0.49130872
v 0.22412057 0.23300920 0.46299806
v -0.60446924 -0.15521620 0.37768129
v -0.24955486 -0.28162807 0.41819963
v 0.32153165 -0.15130569 0.45939103
v -0.29054588 0.04610498 -0.63491398
v -0.63838935 0.10159544 0.39813045
v -0.12385035 -0.27945009 0.37450871
v -0.51413643 -0.04712483 -0.14290237
v 0.37889457 0.21259142 0.46224752
v 0.61223185 0.28068149 0.29446849
v -0.58740801 0.08782966 0.46013770
v -0.46801472 0.29038742 0.32180828
v -0.51778680 0.01201749 -0.49162170
v -0.06885457 -0.15043235 -0.72505248
v -0.05624850 -0.10613894 0.44381666
v -0.14223583 -0.24461199 0.25919434
v -0.77697498 0.05598691 -0.62703699
v 0.43061221 0.22310534 0.43723556
v -0.22760287 -0.04657924 -0.02828567
v 0.78046483 -0.08330577 -0.27996150
v -0.22785206 -0.18840188 0.31526086
v -0.21828060 0.26127523 0.44918710
v 0.72688144 -0.03851824 0.43164429
v 0.46286753 0.14023289 0.49393028
v 0.74596989 -0.09159119 -0.25700817
v -0.04228523 -0.10692571 -0.21923287
v -0.47755361 0.23227470 0.23949942
v 0.67415601 0.01403679 0.02252996
v 0.52546853 -0.08404569 -0.42541519
v -0.34557980 -0.19215940 0.48202032
v -0.14164777 -0.07888442 -0.49676868
v -0.27575180 0.13130836 0.50573415
v 0.62813878 -0.04005945 0.49869344
v 0.47964624 0.15710333 0.40105677
v 0.28208235 -0.24149941 -0.26063895
v -0.46709150 -0.04450850 -0.39698860
v 0.69953781 0.03794877 -0.02790463
v -0.21814121 0.02124986 -0.66986096
v -0.44026092 0.06005879 -0.41600507
v -0.18004490 -0.12474179 -0.57606715
v -0.38219622 0.14208309 0.50320297
v -0.39699352 -0.14161247 -0.05792328
v 0.30616635 0.17933856 0.37204337
v -0.10827308 -0.17929944 -0.68668079
v 0.08714728 -0.13410340 0.23494266
v 0.25011852 0.13646370 0.35755602
v -0.51183641 0.08590177 -0.59103960
v 0.10351039 -0.13998553 0.20036787
v 0.55803740 -0.21066408 0.38324031
v 0.71228486 -0.07712729 -0.25019020
v -0.68844497 -0.01071581 0.18915227
v -0.00941976 -0.22264703 0.10742837
v 0.43373090 0.27690467 0.04295550
v -0.20346533 0.03660755 -0.68619460
v 0.59085876 0.01241394 0.01938564
v -0.24251804 -0.26114103 -0.55298930
v 0.84776831 -0.04701643 -0.32604530
v -0.10864178 -0.28602734 -0.49712658
v -0.43165934 -0.02152379 -0.22722447
v -0.21316230 -0.19098677 0.27140054
v 0.21870117 -0.01746532 0.31019253
v 0.20041293 0.11142102 0.45482454
v 0.06922167 -0.08161719 0.30770037
v -0.11867526 -0.26334146 0.42834780
v -0.30723342 0.37191102 0.36120149
v -0.22784725 0.05699094 -0.63988048
v 0.69167185 -0.04341317 -0.01759335
v -0.00739894 -0.06955691 -0.24625936
v -0.29314893 -0.19237611 0.50151557
v 0.22047243 -0.05397629 0.21307941
v -0.17739101 -0.12606473 -0.57319045
v 0.68426448 -0.06590182 -0.04183536
v -0.28871724 -0.18950081 0.30340672
v -0.25812936 -0.02527332 0.47642973
v 0.85623831 0.02180232 -0.30332467
v 0.24354151 0.06508004 0.27071708
v 0.23319851 -0.24350825 -0.24070033
v -0.82012200 0.06054357 -0.29142123
v 0.01072615 -0.22816835 0.01448090
v -0.20654590 0.08119242 0.49608248
v -0.29116121 0.08010004 0.48037401
v 0.30958688 -0.08344769 0.03906505
v -0.20000359 -0.19863555 0.32964274
v -0.70048702 0.28411809 -0.30218831
v -0.30586603 -0.13853925 -0.05486641
v 0.22792199 -0.04790678 -0.07112351
v 0.03077091 -0.15806225 -0.24915197
v 0.12568514 0.04735168 0.08433639
v 0.64676690 0.23376471 0.23014471
v 0.25618353 -0.00961831 0.19048287
v -0.33556432 0.11509003 -0.06439691
v -0.11702198 -0.10365731 -0.19415846
v 0.43434790 -0.30395588 0.38938284
v -0.16383891 0.01465945 -0.28703645
v -0.09141746 -0.16646203 -0.65871036
v -0.02886862 0.13040522 0.39524457
v -0.58974421 -0.13416387 0.19927673
v 0.33051103 -0.06946962 0.00760499
v 0.57589889 0.06383438 0.27769083
v 0.62720823 -0.18187223 -0.08965746
v 0.39510390 0.05775861 0.47898415
v -0.63676566 0.20829041 -0.36330575
v -0.33608666 -0.11181068 0.01642022
v -0.03875985 0.16790199 0.19718300
v 0.92224276 -0.00296752 -0.35435402
v 0.25099155 0.04440532 -0.20642634
v -0.41369903 -0.14958133 -0.43343234
v -0.15422066 -0.13198970 0.48698759
v 0.54481155 0.04640144 -0.24119277
v 0.17152432 -0.09398632 0.08821377
v -0.69658202 0.25637904 -0.33827567
v -0.10892349 -0.30724519 -0.59135306
v 0.68649381 0.08835179 0.17871901
v -0.49281719 0.04748098 -0.15684979
v 0.09140442 -0.21418446 -0.25166595
v -0.62627918 -0.02965887 -0.45994425
v -0.48568019 0.25397769 0.28304860
v -0.12719685 -0.14924781 -0.49097708
v -0.13439663 -0.27512985 -0.39934912
v 0.23773588 -0.13629217 0.19179615
v 0.51476419 -0.00104731 0.50243026
v -0.52756631 -0.13535516 0.32417345
v 0.41946098 0.32665831 0.20311464
v -0.15253019 -0.09060515 -0.67494529
v -0.22217774 -0.28286555 -0.46175322
v -0.14002225 -0.15512042 -0.45953539
v -0.76480347 0.06192317 -0.62976205
v 0.44728154 0.14320815 0.50204784
v -0.15399197 -0.10954424 0.50312793
v -0.14560622 -0.08986549 -0.50837231
v -0.45498577 0.03716844 -0.41945899
v -0.77164614 0.04095863 -0.28702381
v 0.36940742 -0.23379934 0.12841442
v 0.84286433 0.03411125 0.05300233
v 0.45249128 -0.11043300 0.48627549
v -0.18587179 -0.24548922 -0.58701742
v 0.85266936 0.18226747 0.15446991
v -0.19924609 -0.12347081 -0.58595604
v -0.06076780 -0.03279289 -0.48761889
v 0.84838551 -0.01708281 -0.36261031
v -0.43737656 -0.24940054 0.27731061
v -0.66010451 0.15604596 -0.59848583
v -0.21050312 -0.27750435 -0.58650994
v 0.67428702 0.04444978 0.33244556
v -0.57958996 -0.18723062 0.35726172
v -0.10104088 -0.14351846 -0.30173823
v 0.48444271 -0.08338726 0.49636367
v -0.08259096 -0.13988836 -0.39473948
v 0.42566872 0.14656107 0.28781578
v -0.69076532 -0.01107017 -0.55611974
v 0.05553638 -0.13912942 0.27722496
v 0.79403806 -0.09933341 -0.16636810
v 0.53920132 0.11266533 0.28164759
v -0.31089821 0.11131843 -0.38261354
v -0.68897420 0.08082729 -0.66296822
v 0.57534492 0.04780508 -0.18840943
v -0.32878748 0.25473201 0.42267531
v 0.18116525 -0.08948403 -0.41573790
v 0.43207565 0.09919894 0.48475152
v -0.26807621 -0.25202537 -0.37808585
v 0.06381826 -0.18041670 0.19734234
v 0.23857011 0.10696653 0.32334244
v -0.21130589 -0.22803104 0.50918269
v 0.57629031 0.05201574 -0.10090530
v 0.45562449 -0.15473287 -0.41882405
v 0.59343350 -0.14530186 0.38020751
v -0.72715950 0.01964933 -0.34671551
v -0.15452778 -0.07339001 -0.17610016
v 0.49019530 0.05100337 0.26836827
v 0.22007865 -0.01532032 0.30199596
v 0.50346547 -0.06806566 0.49917343
v -0.14753965 -0.28862041 0.40889132
v -0.32789144 -0.20783082 -0.33208340
v 0.46792337 -0.22984296 -0.03297810
v 0.13337374 0.06198414 0.00829210
v 0.29577821 0.05084598 -0.29168293
v -0.55218029 0.18718356 0.08565701
v 0.37332696 -0.24127381 -0.28798610
v -0.07616013 0.30590576 0.42988583
v -0.28750899 -0.23925163 -0.59469956
v 0.22554767 -0.09199146 -0.04305390
v -0.62742382 0.15017955 0.07807738
v 0.49119473 0.05926511 -0.00024810
v 0.69427830 0.30199367 0.40733111
v 0.15639466 -0.01613853 0.10920399
v 0.24463251 -0.10607326 -0.47164977
v 0.21277165 -0.04558030 0.35665989
v 0.70204854 0.06586783 0.04651526
v -0.22731724 -0.02939637 -0.08154590
v -0.16102274 -0.29522339 0.45191202
v 0.43918326 0.12609942 -0.12867518
v -0.16325703 0.10381547 0.13526188
v 0.09071602 0.05924333 -0.21009694
v 0.44128427 0.25792444 0.36210784
v 0.69810760 0.06059885 0.13234068
v 0.44211110 0.15138595 -0.12653987
v 0.26682490 -0.07519504 0.46626422
v 0.17846595 0.05369980 -0.26398706
v -0.54847312 -0.03645969 -0.36682063
v -0.37348565 -0.18920590 -0.42962253
v -0.22668269 -0.12153398 -0.74837637
v -0.24133745 0.08008996 -0.65930432
v -0.53842860 0.19029149 0.42738503
v -0.62005031 -0.08233678 0.06798022
v 0.01643767 -0.16355425 0.29388499
v 0.78218770 -0.00012472 0.08776336
v -0.51720399 0.32496682 0.42604861
v -0.70485485 -0.00878508 -0.56026238
v -0.54599482 -0.03735127 -0.62162733
v -0.11097906 -0.30513582 -0.47658101
v -0.60391915 0.19792774 0.21006805
v -0.55026340 0.21477640 -0.53370821
v -0.71152407 0.16988488 -0.55710369
v -0.16751240 -0.06016560 -0.15765184
v 0.29889137 -0.04163431 0.07575621
v 0.47832504 0.15413429 0.40712675
v -0.09053861 0.00312915 -0.03674545
v -0.58332825 -0.02405758 -0.07746725
v -0.20637453 -0.26507580 0.34864885
v -0.03124026 0.07972894 0.43926015
v -0.41284865 -0.08981725 -0.24391551
v -0.36490950 0.27268818 0.26446727
v 0.54623187 -0.00457670 0.19918892
v -0.30906734 0.09662462 0.11970720
v -0.11053362 0.17287184 0.50487596
v 0.42509395 -0.15749052 0.44092032
v -0.22540510 -0.23081908 -0.59176338
v -0.01188337 -0.02214434 -0.56881982
v -0.77426153 0.19581069 -0.41027570
v 0.04935850 -0.16222107 0.25521904
v 0.20649770 0.01309868 -0.09698745
v -0.56920570 0.12442017 0.46174073
v 0.73891395 0.24501301 0.15507957
v 0.21173674 -0.10191946 0.31553924
v -0.36215180 -0.18337227 -0.32318619
v 0.58852023 -0.17080772 0.38782981
v -0.75066501 0.07068962 -0.63382727
v -0.04458875 -0.14714548 0.38883740
v -0.16682322 -0.29981348 -0.51542765
v 0.11680894 0.01486795 -0.31844610
v -0.03822003 0.09353177 0.03349683
v 0.30827191 -0.24312951 -0.30255577
v -0.21950343 0.07664222 -0.53506535
v -0.59418088 0.20252226 0.21612073
v -0.73021710 0.15406199 -0.58111733
v 0.45693222 0.36007631 0.19067478
v 0.23718433 -0.04692649 0.17710215
v 0.93714321 0.01008534 -0.32220167
v 0.54671872 -0.12064179 -0.40369400
v 0.47138765 0.21532331 0.21415830
v -0.01646852 -0.02747532 0.43575323
v 0.70737904 -0.05600314 -0.19608316
v 0.66439372 0.08492353 0.50234497
v 0.27510491 -0.03020088 0.12259444
v -0.15674193 0.06449133 0.50033289
v 0.40444320 0.24046049 0.13307549
v 0.75649309 -0.09376683 -0.24992350
v -0.07877146 -0.22673392 0.37819767
v -0.50319463 -0.12643759 -0.54056412
v -0.67553198 0.03299014 0.34390065
v 0.23840003 0.10705811 0.32571274
v -0.25800851 -0.06942294 0.49907586
v -0.39909783 0.13322146 -0.54462385
v 0.30484366 0.21092239 0.41190672
v -0.63416678 0.22416094 -0.53977853
v -0.22830912 -0.14487240 -0.66759151
v 0.44053814 0.20259324 0.13883965
v -0.17891230 0.24132651 0.48904416
v 0.02325079 0.07812845 -0.08019494
v -0.62720889 0.16670629 0.35928729
v 0.43493402 -0.22300541 -0.36106759
v -0.61263186 0.05759276 -0.51839900
v -0.81362814 0.15710114 -0.40357819
v -0.27582237 0.09348743 0.13594466
v 0.41063190 -0.23099853 0.39463893
v -0.59771860 0.00555556 -0.29244220
v -0.40532616 0.07028133 -0.20147568
v 0.38102314 0.13410307 0.20990768
v 0.61775231 -0.01109020 0.01448835
v 0.22753425 0.16857645 0.40437505
v -0.44654649 -0.10264371 -0.40974733
v 0.04930007 -0.04554763 -0.29888427
v -0.01266377 0.16917677 0.24988033
v 0.61287868 -0.01411953 0.06978832
v -0.56398815 -0.03073077 0.46297649
v 0.44201472 0.04995048 -0.07494402
v -0.51345468 0.21686284 0.17413156
v 0.76043749 0.29549399 0.29291439
v 0.40570283 0.29365453 0.37965763
v -0.22347698 -0.20733871 0.50816011
v -0.37262937 0.03921377 -0.32594395
v 0.23044203 -0.13857505 -0.05986850
v 0.24192026 0.27714118 0.40662950
v -0.38151559 0.04230760 -0.33112410
v 0.68886048 -0.07758123 0.42977923
v 0.41500801 0.01727514 -0.11351707
v 0.60983127 -0.13829666 0.39133984
v 0.47647873 0.02812961 0.19638203
v -0.61839598 -0.27619788 0.45164230
v 0.39002672 -0.34723783 0.46747163
v -0.54736626 0.14957947 -0.01389368
v -0.78345174 0.07108177 -0.39226350
v 0.91292125 -0.04245859 -0.20940937
v -0.29526138 -0.24317560 -0.42679507
v -0.37641066 0.18629932 0.11345541
v 0.10917401 -0.23380429 -0.03018620
v -0.08775045 -0.20869519 0.14007530
v 0.35698754 0.23863380 0.27802974
v 0.39207226 0.04249137 0.07238913
v -0.46884131 -0.23777726 0.20725639
v -0.11329923 -0.15632895 0.05118474
v -0.17775081 0.06087643 -0.34626061
v 0.48220596 0.06522581 0.35684344
v 0.46050948 0.04360543 0.23104616
v -0.34518042 -0.18508025 0.48044840
v -0.45484909 0.11812193 -0.57116348
v -0.28646883 0.05966107 -0.05979256
v 0.38562807 -0.33871561 0.44831967
v 0.36293140 0.02262559 0.06279062
v 0.56965721 -0.05602674 -0.36110449
v -0.03878776 -0.01684224 -0.55439925
v -0.29934856 -0.23458563 0.50478315
v -0.08075998 -0.24146998 0.34312662
v 0.19469950 -0.08093964 0.02250051
v 0.33527324 -0.23540145 0.19502929
v -0.28334421 0.01830343 -0.63345051
v 0.44474047 -0.10964365 0.49093497
v -0.47674641 0.18336344 0.46494362
v 0.69607532 0.05876261 0.05713937
v 0.31142798 -0.27271301 0.29693398
v 0.09414643 -0.22504884 0.03392686
v 0.63848132 0.30837452 0.39076024
v 0.53018153 0.15288700 0.28968349
v -0.36310980 -0.22173123 -0.62487292
v 0.38317341 -0.17800152 -0.41877586
v 0.05360052 -0.16290419 0.24827521
v 0.26247817 -0.07617609 -0.43365794
v -0.65529037 0.08384825 -0.54400975
v 0.52932405 -0.19802140 -0.33485758
v 0.16468209 -0.00537610 -0.36669293
v 0.62855887 -0.02941388 0.08409381
v 0.36025816 0.21951191 0.33296534
v -0.36590666 -0.15621331 -0.18863870
v 0.52481490 -0.18026257 0.23177294
v 0.07131716 -0.20630090 0.12908913
v -0.59387648 -0.10441021 0.08959635
v -0.11979885 -0.07958363 -0.27711377
v 0.09380280 -0.09399255 -0.39078432
v 0.10615093 -0.06918698 0.24158339
v 0.36659053 -0.19283986 -0.18609174
v 0.52130222 0.32695153 0.12896463
v -0.37713292 0.16276808 0.06924959
v 0.81655425 0.13052212 0.31873912
v -0.68618560 0.08575170 0.25328341
v 0.47310215 -0.00945515 -0.39045113
v 0.53413069 0.25971586 0.13755865
v 0.50361079 0.22254723 0.31450954
v -0.10988015 -0.11808948 -0.48205766
v 0.33777639 0.19561708 0.39755186
v -0.37121004 0.35027593 0.50201613
v -0.47821316 0.04981245 -0.41375473
v -0.57477111 0.08211942 -0.06934289
v 0.26720214 0.02474728 0.44920209
v -0.56680590 0.00876263 0.47589636
v 0.33758712 0.21257442 0.21489148
v 0.64515370 -0.04390747 0.05158175
v -0.19013408 -0.15063217 -0.68373698
v 0.00186575 0.00992464 -0.19342431
v 0.00540606 -0.11998068 -0.28715003
v -0.07447138 -0.01956079 -0.38140935
v -0.11320820 0.14339694 0.17872870
v 0.81689054 0.20575757 0.11268868
v -0.65797019 0.15989612 -0.29625523
v -0.16993584 -0.01578287 0.08561844
v 0.01862009 -0.17264403 -0.75262117
v -0.75549746 0.23722582 -0.38532573
v 0.67318660 -0.08880702 -0.30387771
v 0.49320477 0.04874839 -0.28870308
v -0.58195263 -0.26448560 0.42252153
v 0.48214597 0.18106516 0.40245751
v -0.43017730 -0.15689418 -0.32235801
v -0.64976275 0.16120493 0.16828445
v 0.76902872 0.02476951 0.42547956
v -0.22805487 0.06390178 -0.30965590
v -0.58566612 0.13952661 0.00234740
v 0.41617090 0.09577762 0.26111159
v -0.69577855 0.24469835 -0.30120257
v 0.47584930 -0.22755809 -0.06231886
v -0.00811270 -0.22407275 0.03123541
v -0.15124300 0.00646776 0.08013403
v 0.56646097 0.11452084 0.27554768
v -0.21574314 -0.04212096 0.09582946
v 0.42289722 0.14385353 0.50893831
v 0.72708827 -0.01319235 0.40538517
v -0.13041066 0.15545402 0.20337489
v -0.01296658 -0.19142644 -0.11416810
v 0.19898492 0.12926982 0.45105466
v 0.88680357 -0.06175626 -0.27033249
v -0.24942912 0.08929178 -0.34638584
v -0.23519848 -0.14415297 -0.65607595
v -0.28383255 0.31627396 0.28926513
v -0.22701000 -0.26631394 -0.39375177
v -0.05305588 0.16056970 0.47306740
v 0.43438855 0.18784775 -0.05210900
v 0.72058994 -0.04090055 -0.22368363
v -0.15861325 -0.04107443 0.02434880
v -0.32064271 0.20948690 0.14988191
v 0.72698355 0.17792714 0.07734743
v 0.26088986 -0.13432333 0.13378042
v 0.43036267 -0.23467351 -0.31491986
v -0.25978559 0.09661643 0.49155191
v -0.68064815 0.04437291 0.09553110
v 0.68878841 0.25745678 0.46359110
v 0.51172787 -0.04892628 -0.39351067
v 0.57768273 -0.19390774 0.02482122
v 0.24757993 -0.16707301 0.20335795
v 0.39076120 0.26698270 0.22592850
v -0.08931885 -0.31668934 -0.48734739
v -0.42303967 0.13280447 -0.32401863
v -0.57662767 0.16339827 -0.49382138
v -0.72677630 0.05580293 -0.29388198
v -0.44274834 0.03315764 -0.48094195
v 0.43998215 0.05270739 0.42126369
v -0.40178409 0.04106169 -0.63939840
v -0.48770043 -0.21538614 0.42121029
v 0.42251062 0.32100004 0.15657641
v -0.56899351 0.06590983 -0.09078257
v -0.13749439 -0.29263586 -0.46208054
v -0.12526307 -0.10520689 -0.48006898
v 0.02274567 -0.22635570 -0.05426610
v 0.43813726 -0.12657085 -0.46798638
v 0.70621061 0.00278420 0.04251152
v -0.30004212 -0.20243979 -0.63200051
v 0.71656352 0.22872627 0.14279515
v 0.59386301 0.28160235 0.30732188
v 0.44061270 0.29934144 0.08692942
v -0.27969724 0.09232467 -0.49148083
v 0.61477751 -0.05980570 0.35345387
v 0.66196603 0.01045008 0.36492154
v 0.08664283 -0.23503718 -0.08951298
v -0.20835492 0.22576316 0.23805818
v 0.21744201 0.28445584 0.40447280
v 0.48250070 0.06232221 -0.08745091
v 0.17315823 -0.09545282 -0.43489197
v -0.73877281 -0.01157846 -0.55911303
v -0.15565641 -0.13243110 -0.20325823
v -0.64556146 0.14147760 0.09604752
v 0.73311597 -0.05577783 0.47685105
v -0.41693372 -0.14220791 0.16740115
v -0.11236073 0.03571619 -0.41085625
v -0.24715452 0.30478445 0.31162822
v -0.06366060 -0.21505621 0.12100867
v 0.00055597 -0.15143315 -0.20137842
v -0.52959973 0.22121076 0.35853815
v -0.07785219 -0.03982890 -0.10870232
v 0.10568318 0.05563955 -0.22660008
v -0.50321376 -0.12259074 -0.43175161
v 0.62256229 -0.09727626 -0.36434311
v 0.09859285 0.08315706 0.06649134
v -0.34497976 0.37608442 0.34752199
v -0.12252244 -0.04594427 -0.42872393
v -0.41827717 0.12801951 0.50459391
v -0.40697405 -0.10500469 -0.24027942
v -0.48144373 0.18301308 0.05222596
v 0.60973835 -0.19840245 -0.19149123
v 0.30697247 -0.06678700 0.04745594
v 0.28014487 -0.14113145 0.10557139
v 0.04691274 -0.18326652 -0.74176472
v -0.47847816 0.04987792 -0.17408930
v 0.07010046 -0.19667362 0.15706998
v -0.28942716 -0.12821651 -0.05203992
v 0.27586415 -0.09631307 -0.11060584
v 0.81118149 -0.04954809 -0.33346426
v -0.08429740 0.27758732 0.40654480
v -0.15019765 -0.16595326 -0.68056142
v -0.69046026 0.19716130 -0.30887598
v -0.53084171 0.10305276 -0.49035537
v -0.67119652 0.09083009 0.33081189
v -0.36624241 0.14188503 0.02228752
v 0.57624561 0.05009343 -0.11687038
v 0.09222082 -0.11855083 -0.40076646
v -0.06553361 -0.01169680 -0.35981879
v -0.45317969 -0.17075752 -0.55245858
v -0.46235216 -0.07212769 -0.63746017
v -0.65018815 0.03864506 -0.51719230
v -0.69064558 0.01411056 0.26212719
v 0.38067353 0.27714860 0.27653453
v 0.18391220 0.04279730 -0.10306312
v 0.49380985 0.02783785 0.42164004
v -0.21351905 -0.18836550 -0.55228555
v 0.24602799 -0.03428610 0.44397667
v -0.66376722 0.13993035 0.26537773
v -0.12077214 -0.19216394 0.43149698
v 0.56323618 -0.15769304 0.46478260
v 0.44258365 0.19097023 0.17859447
v 0.76387101 -0.04277806 -0.34316322
v -0.70551735 0.07411944 -0.65830636
v -0.06826616 0.00626235 -0.08249350
v -0.42683372 -0.05153093 -0.23895521
v -0.19989996 0.02209825 -0.63277233
v -0.68270689 0.01280473 -0.57533586
v 0.59673232 -0.15279384 0.47748247
v -0.01565868 -0.08898485 -0.27343041
v 0.09880523 0.08257566 -0.00653743
v -0.36732748 0.27211618 0.49388507
v -0.65138960 0.12076139 0.08246244
v -0.09486819 -0.03273165 -0.52081144
v -0.53341001 -0.12486538 0.07583200
v 0.79496944 -0.07032382 -0.30168304
v 0.45506400 -0.27558655 0.35312387
v 0.22090587 0.09595616 0.41144496
v 0.01470075 0.03287304 0.40422538
v 0.00880882 0.11825220 0.29487833
v 0.66013920 -0.03209494 -0.16142036
v 0.58714420 -0.05955301 0.10579135
v -0.31869793 0.33515769 0.46696287
v 0.82440758 0.02063016 -0.04318091
v -0.14408903 -0.27619678 -0.58974528
v -0.47035751 0.23150884 0.18183550
v -0.38941017 -0.10552510 0.13127193
v -0.63907373 -0.16709867 0.36291704
v -0.20110728 -0.08246254 -0.06973361
v 0.40839177 0.03618568 -0.02813700
v -0.29863879 0.03695185 0.11402568
v -0.68499088 0.08819190 -0.28658351
v 0.79661578 0.02858083 0.13667054
v 0.58330846 0.06458861 0.29395294
v 0.75888938 -0.01271690 -0.19888109
v -0.31184626 0.06273522 0.10666021
v -0.47605821 0.36303565 0.49407783
v -0.61583692 0.13386932 -0.52071077
v -0.72880888 0.05694976 -0.53525424
v -0.07413233 0.01850990 -0.55279636
v -0.67154229 -0.13921086 0.43069518
v -0.40311781 -0.17434023 -0.38871390
v -0.04794659 -0.19310157 0.30895704
v 0.11928186 -0.21516779 -0.27951798
v -0.32843751 0.11875039 -0.36665910
v 0.34570014 0.19640611 0.48011532
v -0.41485798 -0.12541850 0.03451362
v 0.69193006 0.23976491 0.17912228
v -0.78360182 0.01803521 -0.26387358
v -0.56875831 -0.10967426 0.34670767
v -0.27195287 -0.13410567 -0.63899517
v -0.11680228 -0.08571284 -0.41791284
v -0.00999358 0.10594391 0.07137468
v 0.59237456 0.06218065 0.30542699
v 0.17431757 -0.05109883 0.08543337
v -0.51854944 0.12733079 -0.07333436
v -0.49105868 0.03614460 -0.16775383
v -0.48965466 -0.23149633 0.39686942
v -0.24105871 -0.12302936 -0.71452445
v 0.68484831 0.08714052 0.30814379
v 0.46552631 -0.22696351 -0.13512316
v 0.57378978 0.02916777 -0.26710084
v 0.35349372 0.27347052 0.37558979
v -0.48903108 -0.10078878 -0.42802617
v -0.39102897 0.26381287 0.24238852
v 0.07741083 -0.23304439 -0.10337083
v 0.65657610 -0.10565981 -0.29285780
v 0.44706103 -0.23649505 0.28666973
v 0.57298899 0.29187647 0.35564518
v -0.31643379 0.04226346 0.03314332
v -0.41527528 -0.14119561 -0.12045664
v -0.25654799 -0.20740943 -0.30992767
v -0.14968911 -0.13499297 -0.63119888
v -0.14155096 -0.00614159 0.05726353
v -0.14647615 0.11768311 0.14188693
v -0.46270233 -0.11660112 -0.29531041
v 0.44092152 -0.22816183 -0.19179037
v -0.01469192 -0.12837104 0.37941030
v -0.40145880 -0.11140723 0.11340982
v -0.12042305 -0.03559196 -0.34532291
v -0.13026975 -0.09272768 0.01722548
v 0.78816175 0.05501721 0.19188219
v -0.84493816 0.06012649 -0.30935389
v 0.50538820 -0.19611837 0.14270005
v -0.62826532 0.15750314 -0.29721978
v -0.23861605 -0.19862482 -0.29355329
v -0.12677723 0.30976611 0.47577325
v 0.54708636 -0.02325780 0.50678355
v 0.37282756 -0.29158327 0.41393781
v 0.07499803 -0.08739159 -0.34831101
v 0.58114213 -0.06926753 -0.37100971
v 0.38099661 0.00687721 -0.18141295
v 0.49370661 0.04694983 0.06846926
v 0.36723435 0.24818142 0.21420556
v -0.00539519 -0.20419455 -0.08792008
v 0.07760514 0.03582557 0.28776324
v 0.43605843 0.17862426 0.04846607
v -0.64596963 0.17577329 -0.49125919
v 0.23312201 0.00741768 0.31497934
v -0.04778013 -0.07998551 0.45349553
v -0.83650565 0.05123575 -0.29990628
v -0.61217362 -0.00068557 -0.28837913
v -0.65491772 -0.27300894 0.43104598
v -0.35596016 0.12939321 0.03346254
v 0.45387954 0.14683679 -0.01999632
v 0.16727681 0.27508089 0.47214499
v 0.74031800 0.01197612 0.39190233
v 0.69332713 -0.06034398 -0.21677531
v -0.43283406 0.06689230 0.50159860
v -0.32926974 -0.17460030 -0.30204862
v -0.13410138 -0.12777388 0.48260090
v -0.42215505 -0.00608359 -0.32563511
v 0.59927696 0.03045190 -0.03060193
v -0.33592087 -0.16377810 -0.28990689
v 0.76134479 0.29507461 0.33303946
v 0.41250226 -0.15129092 -0.43153170
v 0.56345034 -0.08932543 -0.41934505
v -0.11686901 -0.09862119 -0.42783797
v -0.34806016 0.13181600 0.07807826
v -0.46668556 -0.07888488 -0.32961547
v 0.74105006 0.30365983 0.33788323
v -0.49184337 0.39438286 0.42015746
v -0.33007631 0.09318316 0.49053901
v -0.70352346 0.00982138 -0.35906953
v 0.76676643 0.03159644 0.47715765
v 0.15948142 -0.18131275 0.01592335
v -0.25541061 -0.26292855 -0.48353735
v 0.08691434 0.08978304 0.06624035
v 0.17066458 0.02239711 -0.02076550
v -0.45734969 0.13586247 -0.08985192
v 0.37760192 0.16053082 0.48029080
v 0.36012638 0.24590190 0.23426409
v 0.27146983 -0.17700325 0.38438502
v -0.54669827 -0.19078714 0.16729136
v 0.55769372 0.28532466 0.35299385
v 0.73839122 0.08397961 0.29020450
v -0.19368039 -0.07592195 0.11085154
v 0.49700460 -0.12357993 0.44954851
v 0.46060085 0.02146721 0.43682301
v 0.54862511 0.04063955 0.02455943
v 0.32629538 -0.22047716 0.35400778
v -0.60296077 0.01293329 0.45476285
v 0.42101243 0.20821199 0.04793752
v 0.50774497 0.21091732 0.05809487
v -0.44533786 -0.17120063 0.43732372
v -0.01349395 -0.10776199 -0.27654386
v 0.46419305 -0.21619375 0.17149939
v -0.56922460 -0.06956748 -0.60535675
v 0.45473701 -0.06434661 -0.42222875
v -0.48387522 0.17138305 -0.35552534
v 0.46668309 0.02360320 0.42767429
v -0.66016001 0.16597900 -0.29820657
v -0.11192103 -0.13165143 -0.51767766
v 0.68615764 -0.05304326 -0.02723639
v -0.62219995 0.00470675 -0.35406041
v 0.73696905 0.07647366 0.20129068
v 0.84547597 0.02009394 -0.32784006
v 0.85627103 0.18032499 0.21867682
v 0.10877025 -0.22030966 0.03607375
v 0.44543126 -0.22257286 -0.16159420
v 0.26556912 0.04599160 -0.22349425
v -0.03420174 -0.02502157 -0.58847547
v -0.68004841 -0.22964978 0.45440826
v -0.35486791 -0.16082494 -0.15103768
v -0.53314316 0.11308476 0.48598346
v 0.66926801 0.30999738 0.35277870
v 0.46444425 0.30614835 0.31189981
v -0.57787013 -0.25505555 0.43041787
v -0.18303096 0.05291707 -0.69411826
v 0.78392226 0.01683139 0.11751617
v 0.39318696 -0.23773453 0.16816193
v -0.19453201 0.24530157 0.26339948
v 0.13837773 -0.19449612 -0.33353230
v 0.40812668 0.02070454 -0.07949968
v -0.31355760 -0.05504885 0.06826063
v 0.35683560 0.08948348 0.23013015
v 0.52664089 -0.16314763 -0.37692487
v 0.11013248 0.00891255 -0.31796658
v -0.48791343 -0.22129607 0.30449155
v 0.75515157 -0.02225047 0.46737921
v 0.18172671 -0.21886905 -0.32891187
v -0.07694539 0.02523297 -0.39432883
v 0.32000959 -0.30814159 0.39063776
v -0.24286537 0.13349865 0.15652041
v -0.52973241 0.05451520 -0.49555415
v -0.40344802 -0.11250706 0.10326277
v -0.13046347 -0.08227763 -0.24189457
v 0.65971977 0.04622752 0.34212118
v 0.58866853 -0.05399015 0.10930222
v -0.17659909 -0.08767884 -0.56824708
v -0.24833757 0.18539931 0.45948008
v -0.25781053 0.06700795 -0.13356920
v 0.32859865 -0.12002192 -0.13837139
v 0.86391217 -0.06512806 -0.20621958
v 0.49004579 -0.16646129 -0.39670676
v -0.01101557 0.07130020 -0.06835545
v 0.79833555 -0.08249865 -0.27636617
v -0.03390536 0.30179799 0.47773665
v -0.35831791 -0.24623448 -0.60982579
v 0.89848733 -0.03243965 -0.17907722
v 0.39386746 0.18779241 0.46072793
v 0.49630076 0.07475131 0.32054600
v 0.77433729 0.06283954 0.40402260
v 0.23218942 -0.08340468 0.16885969
v 0.29957610 0.27899605 0.43337280
v 0.52856600 0.23395742 0.08635578
v -0.31298846 0.39012927 0.46280450
v 0.17582640 -0.10642011 0.07070258
v -0.13618039 -0.15378338 -0.48070842
v 0.09632085 -0.14242209 -0.34662065
v 0.06727253 -0.14122099 0.25852427
v 0.35923851 0.03443265 0.11462913
v -0.62705702 -0.01856327 0.41189888
v -0.05853523 0.05973627 0.47788540
v 0.65574020 -0.02141178 -0.09289883
v -0.26539204 -0.00116082 0.10541646
v -0.57554471 -0.07383326 -0.43168733
v -0.28137967 0.38944516 0.44444883
v 0.57439291 -0.10646570 0.10492758
v -0.57410616 -0.10891568 0.33824345
v 0.16661924 0.23553924 0.44941828
v -0.55456579 0.13942339 -0.30876079
v -0.13366465 0.04059334 -0.57778805
v -0.65381378 -0.27003029 0.44707724
v -0.03111409 0.04472646 -0.09174921
v -0.26372024 -0.12068439 0.50012279
v -0.18346043 -0.08694333 -0.09867496
v -0.31215340 -0.24945843 0.49935356
v 0.31390667 -0.08175906 0.03222077
v 0.43419370 0.06542785 0.43080142
v -0.06402782 0.00540592 0.48837006
v -0.37432954 -0.08491899 0.50280029
v -0.65218073 0.15845861 0.25534624
v -0.71997976 -0.16947100 0.44091368
v 0.52303970 0.11028872 0.28164503
v -0.17977354 0.06671239 -0.44143823
v 0.25793809 -0.25335792 0.32771623
v 0.38993999 -0.14389893 -0.10285424
v 0.58984989 -0.09830016 -0.39861587
v -0.04481461 -0.08324599 -0.24322031
v 0.06744620 0.01023936 0.31916505
v 0.77088362 0.05786786 0.19370000
v -0.64851451 -0.11923087 0.37974721
v 0.76713914 0.01092631 -0.12341962
v 0.45238099 -0.23565957 0.06948320
v -0.19073454 -0.18597409 0.20625004
v -0.09117805 -0.13181750 -0.24974070
v 0.69186378 -0.08608891 0.45907888
v -0.60863048 0.03249308 -0.05072718
v -0.68141192 -0.02541733 0.26539680
v 0.64033538 -0.11623817 -0.30637336
v 0.42519909 0.19807245 0.06547552
v 0.41993824 0.27237794 0.39087301
v -0.57370216 0.14582291 -0.36250135
v -0.65487742 0.12929998 0.34090161
v -0.53724140 0.21626149 0.19933930
v 0.71022469 0.07032872 0.14709599
v -0.24246731 -0.23468906 -0.59414983
v -0.30969101 0.37511745 0.37324473
v -0.64943796 -0.04771999 -0.45089427
v -0.07395910 -0.01605794 -0.52839756
v -0.38885602 0.40649512 0.37412101
v -0.10249188 -0.14392103 -0.30935079
v -0.14540860 0.00116493 0.06844202
v 0.02981961 0.03839789 -0.20028649
v 0.46244201 -0.32341439 0.40317041
v -0.33666959 -0.23642503 -0.55638403
v -0.37066400 0.16007994 0.07246424
v -0.15878743 0.26126838 0.32581717
v 0.69602978 0.01763554 -0.05186077
v 0.04920355 -0.01191461 -0.27632996
v 0.30913347 0.06808402 0.23080051
v 0.84712380 0.04836108 0.07696045
v -0.51493061 -0.10839587 -0.37675214
v 0.80149823 0.18207093 0.06783216
v -0.51032531 0.17197062 -0.54233152
v -0.72073746 -0.03246232 -0.49337900
v 0.07279070 0.03482549 -0.25133461
v -0.29537579 0.00147905 -0.63252717
v -0.08505561 0.08584278 0.06340882
v 0.06047600 -0.05609225 0.32713762
v -0.61511624 0.18999025 -0.38304567
v -0.16303794 -0.00253365 -0.23347463
v -0.29284438 0.07372919 -0.24827158
v -0.27588540 0.06634798 -0.09117299
v 0.26851413 0.00437783 -0.39747509
v -0.38560951 -0.03832290 -0.30105728
v -0.12905753 0.00137149 -0.59333420
v 0.28057757 0.03650273 -0.21287100
v -0.16956079 -0.02711973 0.04855090
v 0.19139580 0.26695931 0.46745375
v -0.04935084 0.20282096 0.50851750
v -0.11089635 -0.16912131 -0.70823395
v -0.39716610 -0.16108043 0.18307437
v -0.15606189 -0.07214856 -0.16991450
v 0.32899573 0.04064955 -0.35385475
v 0.24119626 0.29439080 0.41619629
v 0.61191040 -0.04883261 -0.31465736
v 0.47689441 0.25499544 0.30326384
v 0.56391078 -0.20847744 -0.26779968
v -0.16747835 -0.14951427 -0.21944454
v -0.08739174 -0.22306406 0.20292315
v 0.16177289 -0.01940870 -0.37490293
v 0.82688361 0.00961765 -0.01439836
v -0.59748429 -0.11452450 0.27489656
v 0.51224846 -0.07451927 0.48708871
v -0.53231514 0.00737892 -0.39599824
v -0.32468805 -0.21961124 -0.41775784
v -0.13263261 -0.15727453 -0.43711594
v -0.72143513 0.05878146 -0.54239094
v -0.52247465 -0.10257447 -0.53425312
v -0.36327931 -0.19920510 -0.62273306
v -0.44735417 -0.24103209 0.38836598
v 0.26897466 0.05996552 0.41698566
v 0.36347744 -0.08405658 -0.12485239
v -0.52981740 -0.06388700 -0.38188300
v -0.05233094 -0.03615497 -0.15008998
v -0.39438617 -0.13330752 0.46423891
v 0.69785386 0.02704458 -0.03846228
v -0.59011066 0.05424488 0.46604526
v -0.84969878 0.14809097 -0.44282070
v -0.42761546 -0.15035385 0.16022176
v -0.27036944 0.36648878 0.43962935
v -0.24958782 0.27288595 0.29752997
v 0.09574389 -0.11610163 0.23560524
v 0.66529715 0.29493850 0.42811266
v 0.09823804 -0.23547570 -0.06036380
v -0.54796559 -0.00675003 -0.12298110
v -0.51370531 -0.09215513 -0.10813961
v -0.63628101 0.16503157 0.32691965
v -0.45299244 0.01729827 -0.65139145
v 0.42888781 0.28029510 0.07093390
v 0.10287856 -0.21198507 -0.26710874
v -0.20647801 0.07435591 -0.39315370
v -0.12574962 -0.14046881 -0.24954110
v 0.45854509 0.05763479 0.39077955
v -0.49638987 0.03226686 -0.16089506
v -0.24339904 -0.10569214 0.50590181
v 0.06163131 0.07993977 -0.08428387
v 0.46340308 -0.22920093 -0.01290967
v -0.48385429 -0.11878802 -0.39443827
v -0.64325804 0.09634005 0.05039249
v -0.47656631 0.17369819 0.47352013
v -0.55935609 0.14491265 -0.01376181
v -0.06864632 0.00827175 -0.54876459
v 0.77617359 -0.08035601 -0.28660312
v -0.37389082 -0.18389849 -0.39764869
v 0.41562256 0.26836070 0.13702774
v -0.12849006 -0.06285019 -0.09312490
v -0.66416830 0.12175542 -0.65079200
v -0.40863603 -0.01749858 -0.65271777
v -0.39687562 0.10994880 -0.43142331
v -0.56864750 0.02422419 -0.49923778
v 0.63896471 0.29278356 0.29070929
v -0.58360595 0.04145226 -0.08033637
v -0.35584673 -0.19060217 -0.42493093
v -0.43939498 0.16940753 0.01945494
v 0.84343880 0.18469293 0.12440657
v -0.44888201 0.33427516 0.50516880
v -0.38359493 -0.22562273 -0.59974158
v -0.14154434 -0.02799324 -0.55622405
v -0.00239264 0.05042136 -0.12413484
v -0.11446898 0.13792558 0.16838488
v 0.77963483 -0.03696050 0.01153610
v -0.34364516 0.10422527 -0.58135539
v 0.65060002 -0.01299659 -0.09341250
v -0.32489011 0.07867669 0.01073413
v -0.59799445 0.02158969 -0.36505437
v -0.75842613 0.01657520 -0.28380704
v 0.74608332 -0.03841737 0.48245227
v 0.69296455 -0.04472947 -0.01950198
v -0.51226741 0.18781658 0.07732177
v 0.81854874 0.00954046 0.07680397
v -0.07719651 0.18812121 0.31295145
v 0.48809770 0.33448634 0.09470126
v -0.85617262 0.08915053 -0.31963861
v 0.62040520 -0.01291324 0.04785490
v 0.20471193 -0.03389994 -0.03062188
v -0.52922887 -0.11992390 0.04292490
v 0.45759514 0.21832024 -0.03244806
v 0.06870597 0.00867281 0.31777462
v 0.28216660 -0.17675519 0.12780577
v 0.07186968 0.08875946 0.17672800
v -0.55222374 -0.17558758 0.15350004
v 0.61806434 0.26621327 0.47855836
v 0.30320093 0.17381246 0.40054494
v 0.22509204 -0.24133629 -0.23010230
v -0.67431134 -0.04575747 0.16704133
v 0.27174878 -0.02337216 0.13536826
v -0.26641646 0.32670519 0.35003719
v -0.29514310 -0.10205740 -0.01451600
v -0.59164006 -0.04078652 -0.45431161
v -0.66649616 0.09782340 0.35059360
v 0.08182748 -0.01679733 -0.31159222
v -0.26157773 0.02752053 0.47694725
v -0.09043307 0.09317894 0.08161979
v 0.05066271 -0.22428222 0.08669730
v 0.44111210 -0.22622599 -0.34876361
v -0.70295221 0.19116017 -0.53271073
v 0.37715718 -0.08008225 -0.10452434
v 0.20984752 0.29194477 0.46796641
v 0.55388749 0.27408496 0.33761650
v -0.47867563 0.09274068 -0.32601288
v -0.27006474 -0.14757597 0.48445368
v -0.48565230 -0.12213826 -0.39208826
v -0.64743382 -0.17142360 0.46051359
v -0.55915415 0.12003778 -0.30134606
v -0.64356917 -0.06692014 0.32656282
v -0.58370739 -0.14845574 0.20399432
v -0.35682359 0.26593241 0.20416673
v -0.37167144 -0.18794854 0.20805040
v -0.26625463 -0.26216498 -0.49029940
v -0.65417111 0.16577286 -0.51547956
v 0.34959552 -0.22411239 -0.22653885
v -0.36696151 0.12838674 -0.53614080
v 0.64991319 0.30959320 0.34494302
v 0.51822680 0.26561204 0.45550415
v -0.14978257 -0.00825133 -0.26730245
v 0.72945327 0.13073331 0.46206343
v -0.66862553 0.26279521 -0.31629732
v -0.07982803 0.11856145 0.12509538
v -0.14379029 0.05006904 -0.36989987
v 0.17390071 -0.14546983 0.03819006
v -0.60325670 0.02796266 -0.28950220
v -0.69987506 0.25689071 -0.29483339
v -0.28973019 -0.02148359 0.47672704
v 0.84350961 0.04040596 0.07934440
v -0.19022873 0.22730581 0.47415888
v 0.44366741 -0.23206557 -0.20611432
v 0.70364404 -0.01928083 0.37915614
v -0.35751116 0.05537450 -0.25800535
v 0.81880498 -0.02428887 -0.15545394
v 0.75067484 0.00202579 -0.35051548
v -0.06350834 0.09025452 0.05067473
v -0.24247761 -0.16125907 0.49629867
v -0.27416995 -0.08165693 -0.01663560
v 0.06956828 -0.15208884 -0.30682588
v -0.46499208 -0.14100756 -0.39234588
v 0.30517629 -0.21128821 0.15458922
v -0.21679838 -0.08491960 0.50482988
v -0.54900587 0.05302059 -0.60838252
v -0.63054097 -0.05273319 0.02775483
v -0.35584614 -0.24809046 0.30360392
v -0.47766104 0.37392870 0.48315278
v 0.70031935 0.04629067 -0.01673198
v -0.19365939 0.06271496 -0.50396460
v 0.49771655 -0.19180539 0.16828185
v 0.31568426 -0.19564062 0.09938520
v 0.48567650 0.06013955 -0.21974967
v -0.28590786 -0.20336714 0.31393853
v -0.84329200 0.10410269 -0.35401759
v 0.57603914 0.05100500 -0.11008282
v 0.61545652 0.02686949 -0.07884771
v 0.73827887 0.23828055 0.14400743
v -0.31759560 0.36224520 0.32120508
v -0.65189916 0.04183162 0.01642606
v -0.22040971 0.07554005 -0.31988689
v 0.20798142 0.09944756 0.40544352
v 0.39019239 -0.34743220 0.38865021
v -0.41140154 -0.23940374 0.33581477
v -0.11566243 0.03229519 0.50556678
v -0.18739864 -0.27295449 0.38854188
v -0.09168326 -0.12887688 -0.65777725
v -0.17032547 0.13890320 0.16841666
v -0.33148995 -0.23891357 -0.62120247
v -0.08191398 -0.06286512 -0.13622400
v -0.02076088 0.29174078 0.44167772
v -0.57393575 0.08340146 -0.50971800
v -0.04080789 -0.01485063 -0.51787585
v -0.20622943 -0.05484254 0.09333360
v 0.20659813 -0.20397586 -0.09514464
v 0.19923578 -0.01300838 -0.04020358
v -0.25839403 -0.02560371 0.10500480
v -0.68943781 0.07978441 0.27706981
v 0.45733306 0.19247898 0.50346810
v 0.07016113 -0.02663772 0.31923541
v 0.51276654 -0.08632056 0.21632010
v -0.68404943 0.18378648 -0.30442175
v 0.43402183 -0.24728079 0.41770214
v 0.15764959 -0.17977041 -0.36018756
v 0.43490380 0.12861000 -0.13581173
v 0.52555335 0.05087465 0.32127565
v 0.39858779 0.30995050 0.25763616
v 0.18573460 -0.20423900 -0.06333366
v -0.31028566 -0.25414896 -0.56260526
v 0.72747171 -0.04062584 0.00575485
v 0.41892597 0.32279804 0.32136250
v -0.51435250 0.26595154 0.36696675
v -0.04176468 -0.11022148 -0.18186182
v -0.44828919 -0.13072391 -0.10564312
v 0.25074419 -0.18721519 0.24953949
v -0.75617963 -0.00703752 -0.55224681
v 0.63291621 -0.15279955 -0.03644372
v -0.53431362 -0.08078191 -0.28170910
v 0.41823667 0.05942146 0.46373311
v 0.15841141 -0.23718394 -0.13297638
v -0.12612318 -0.08869568 -0.24048364
v 0.70619535 0.08599908 0.04374003
v -0.05679896 -0.19749404 0.00922407
v 0.89271873 -0.01280713 -0.18385190
v -0.13227390 -0.15177335 -0.45579690
v -0.37733662 -0.20679417 -0.49204651
v 0.48740205 -0.23411871 -0.13349500
v -0.73506129 0.14494275 -0.57710016
v -0.54209673 -0.15496008 0.30489475
v 0.85936040 0.16727431 0.15927492
v -0.27525774 -0.12419824 -0.06081008
v -0.32618111 -0.05286096 -0.65463632
v 0.35343486 0.01876367 -0.39414197
v -0.65222925 -0.07626458 -0.49292549
v 0.76865661 -0.07175519 -0.30178839
v 0.63187087 0.13213092 0.23761934
v -0.11038417 -0.08582902 -0.03794670
v 0.26524740 0.08351997 0.40191168
v -0.35743478 0.13995695 -0.34214866
v 0.05719189 0.10066453 0.16868125
v 0.87990803 -0.05116736 -0.19176280
v -0.64237392 0.13956735 0.36868542
v 0.46246022 0.20881647 0.19939794
v 0.64224690 -0.15756004 -0.06804163
v -0.65772665 -0.00552659 0.05561777
v 0.39677337 -0.07216381 -0.43718258
v 0.68968606 0.21498479 0.16446854
v -0.68182844 0.15110670 -0.62435091
v 0.66959226 0.00098959 0.37179691
v -0.13981931 -0.00949530 -0.30616319
v -0.55968535 0.06482386 0.48069611
v -0.27538744 -0.11660949 -0.05265899
v -0.36357781 -0.18810946 -0.33336923
v -0.63441998 0.07304299 0.42017266
v 0.72367734 0.04594980 0.32835144
v -0.12714410 -0.02860835 -0.31727940
v -0.16018686 -0.02677161 -0.56983531
v -0.02398835 -0.03040170 -0.47988883
v 0.05618455 -0.20781337 -0.21100257
v -0.15029094 0.03952454 0.09087217
v -0.45037702 0.12806377 -0.10656798
v -0.42054832 0.13257688 -0.54867822
v -0.25513190 0.27612150 0.41364020
v 0.67306340 -0.10523373 -0.10527202
v 0.58275688 0.19788860 0.49768215
v 0.52708924 -0.07221738 0.48190495
v -0.35298601 -0.19265062 -0.33683258
v 0.41251910 0.30435601 0.44790447
v -0.69992745 0.03541218 0.22985086
v -0.28204218 0.17126766 0.16986896
v 0.61665714 0.06753982 0.51036865
v -0.39226174 -0.06437984 -0.28986478
v 0.52480340 0.06200809 -0.05578530
v -0.02795326 -0.09133082 -0.26251957
v -0.63726425 0.01436056 -0.28195432
v -0.25251275 -0.13124774 0.49486837
v 0.57304978 -0.00480671 0.07317715
v 0.49116120 -0.21149997 0.19520086
v 0.47860047 -0.21096759 0.15507512
v 0.35723299 0.19940645 0.48032230
v -0.19815619 -0.05815338 -0.06426534
v 0.57418120 -0.16475357 -0.32907647
v 0.21328837 -0.02702999 0.33945921
v 0.79365277 0.06085053 0.22790974
v -0.67115349 0.01190854 -0.57352847
v -0.61486101 0.16496813 0.37832612
v 0.52249128 0.32883042 0.18020843
v -0.40120086 -0.15585236 -0.29599345
v 0.47677383 0.01866180 0.43703225
v 0.33226016 -0.23488814 0.19959162
v -0.51818025 -0.10019007 -0.08177123
v -0.72491592 -0.18235204 0.45568848
v -0.05322732 -0.00162422 -0.36370051
v 0.46733046 -0.22756530 0.11720099
v 0.27980641 -0.15430138 0.42409232
v 0.42824772 0.32760718 0.48978356
v -0.24978116 0.27293679 0.27987969
v 0.66122842 -0.06235217 0.00611723
v 0.59909689 0.19430870 0.49573037
v -0.47647688 -0.06677379 -0.32556489
v -0.64788687 0.20829844 -0.30381283
v -0.40740132 -0.00573560 -0.43999714
v -0.00275274 -0.21606167 -0.05423618
v 0.54781383 0.07973612 0.48828444
v 0.85799557 0.08662034 0.12391850
v -0.34498233 0.26936811 0.24767479
v -0.40279964 -0.13764414 -0.18501125
v 0.59394449 0.02443920 -0.24298082
v -0.15588357 0.17742729 0.27024224
v 0.15294702 0.03922905 -0.29913107
v -0.70900226 0.13700204 -0.56789136
v 0.40974915 -0.36757290 0.47904316
v -0.40108442 0.18734536 0.09771968
v -0.67198318 0.02695859 0.35912660
v 0.33891523 -0.18726934 -0.41419393
v -0.46581256 -0.21922746 0.43139085
v 0.89049858 0.02087765 -0.28789514
v -0.11414509 -0.10904639 -0.43956381
v -0.19998518 0.00806172 0.12424926
v -0.61524755 -0.08715790 0.37731543
v -0.64589673 -0.25366530 0.38279521
v -0.54938740 -0.10898907 0.00416716
v 0.44472456 -0.25376728 0.32885987
v -0.39760605 -0.17395210 -0.32096875
v -0.49715242 0.02103909 -0.31576097
v 0.19057541 -0.14262903 -0.40999928
v -0.56887382 -0.03813906 0.45761487
v -0.22875327 -0.18934956 0.29504603
v -0.68970221 0.00830245 0.25978926
v -0.25995100 -0.03505998 0.47805038
v -0.78072625 -0.00172688 -0.52108395
v 0.31127796 0.18577284 0.40444532
v -0.14250027 -0.07784130 -0.20409888
v -0.40320939 0.07332429 -0.41940221
v -0.05533299 0.17841567 0.20766509
v -0.03600169 -0.03079705 -0.48103964
v 0.38590458 -0.23333007 0.09621503
v -0.05923819 -0.16649871 -0.05087605
v -0.31539914 -0.12096491 -0.02510217
v -0.49001038 0.15223636 0.48377085
v -0.38862062 -0.22983421 0.23198183
v 0.77203327 -0.08529594 -0.27473709
v -0.54081702 0.01080174 -0.39403379
v -0.38735917 0.40967277 0.38611600
v 0.03847513 0.06142457 0.34835461
v 0.92081130 0.01866494 -0.35824698
v 0.60502106 -0.10942047 -0.36127356
v 0.77252847 -0.00432991 -0.22830574
v 0.38414529 -0.04043224 -0.08631048
v 0.76932448 0.10271189 0.41648421
v -0.68586063 0.10997499 -0.66008085
v -0.17838648 0.05938512 -0.58993781
v -0.03498701 -0.12203186 -0.16912457
v 0.37037134 -0.00940423 0.49512094
v -0.63551515 0.11944330 -0.39126256
v 0.26746351 -0.20369658 0.22119664
v 0.72736287 0.08916422 0.28052786
v 0.40167528 0.05343613 -0.30834234
v -0.62383193 0.06536725 0.43294993
v -0.26803383 -0.23793635 -0.33881968
v -0.62609810 0.15308632 -0.50559896
v -0.07466374 0.30940607 0.45293483
v -0.38266474 0.41379243 0.42821988
v -0.25997895 -0.20791087 0.33844703
v -0.26166999 0.29501456 0.39733756
v 0.21816824 -0.02337320 0.35820013
v 0.29986155 -0.16679569 0.09234665
v 0.90003443 -0.05737457 -0.26104912
v -0.64338702 -0.08601455 0.18507782
v -0.00777100 -0.12009274 0.37972707
v -0.36688703 -0.18296237 -0.38835251
v 0.58056533 -0.20410541 -0.01792841
v 0.15161151 -0.03530575 -0.37652802
v 0.33949271 -0.05085449 0.51075667
v 0.32366765 -0.02139187 -0.42092860
v -0.26814264 -0.15667066 -0.11928216
v -0.31335884 -0.09725595 0.00997325
v -0.27118859 -0.27347207 -0.51018202
v 0.87577140 -0.06292932 -0.22865890
v 0.39913702 0.08774188 0.47715783
v -0.27656764 0.32113126 0.36209646
v 0.15281196 -0.16635291 0.05569652
v -0.37223652 0.08569138 0.49039647
v -0.62730283 0.15635696 -0.50048852
v 0.14565223 0.03584690 0.03717136
v 0.03349281 0.10419641 0.27002233
v -0.76571989 0.22316642 -0.39297158
v -0.00083329 0.14864582 0.37275660
v 0.00516395 0.06480465 -0.09961336
v -0.62865961 0.14859559 -0.59125865
v -0.25100967 0.00056052 -0.06530698
v -0.58028948 -0.05352319 -0.44386625
v -0.08929460 0.22414471 0.50734764
v -0.13245907 -0.27709571 0.35600588
v 0.32510430 -0.20985317 0.37139723
v -0.42866403 0.06146641 0.49818003
v -0.27671978 0.09700827 -0.40639848
v 0.18209839 -0.12438256 0.04228302
v -0.69689351 0.05821009 0.20662673
v 0.46054044 -0.01007236 -0.39612764
v -0.40945402 -0.02169402 -0.32366964
v -0.05065500 -0.21543518 0.14507009
v -0.46426359 0.02721931 -0.64693296
v -0.35537437 -0.08689821 -0.64963537
v 0.25197154 -0.16539586 0.18114284
v 0.55883914 -0.16481660 0.30210087
v -0.42710605 -0.10926884 -0.32133144
v 0.36052686 0.01457269 -0.19703493
v 0.45906740 0.05169827 0.39025792
v 0.22125469 -0.04022409 0.38552648
v -0.41924772 -0.13954461 -0.13752709
v 0.36272916 -0.23961939 -0.26908830
v -0.32721815 -0.19371349 0.48922393
v 0.63656539 -0.17330606 -0.11975552
v -0.51759601 0.31797934 0.41958848
v -0.47402400 0.18276599 -0.32827076
v 0.52553791 0.04392044 0.04041464
v -0.10210256 0.12637010 0.14789763
v -0.61680406 0.22933426 -0.30165109
v -0.11331788 -0.15661295 -0.42979345
v 0.28128344 0.21391883 0.41004229
v 0.41601035 0.18926889 0.16393328
v -0.53822690 0.16566615 0.01717312
v 0.46966404 0.20299663 0.29218900
v -0.52238345 -0.09816232 -0.07816333
v 0.54115653 -0.18619981 0.29134101
v -0.45850229 0.16361283 -0.01214007
v -0.38798463 -0.11082484 0.14718978
v 0.15286054 -0.23535427 -0.11881592
v 0.02355448 0.02379307 0.39344233
v 0.17805386 -0.22701193 -0.10577977
v -0.46254155 0.42976856 0.38080952
v -0.64014751 0.12023778 -0.53938961
v 0.16708577 -0.03467412 0.09232901
v -0.61618656 0.18967913 0.19165722
v -0.27801776 -0.24557662 0.50868911
v -0.34022421 0.13017331 -0.32364771
v -0.52140009 0.18761358 -0.34031308
v 0.90654051 0.03428043 -0.34428617
v 0.43251577 0.09464904 0.48498777
v 0.22517733 0.30062899 0.42033637
v 0.41189757 0.26243743 0.05183329
v -0.36163726 0.12800466 0.50384498
v 0.49721637 0.03125863 -0.32972920
v 0.49206781 0.01259800 0.22485904
v -0.10450450 -0.12138484 -0.44377807
v 0.09364819 -0.00843857 0.26961496
v -0.35373297 -0.04726634 -0.65433931
v -0.48832512 -0.01688307 -0.48440897
v -0.08444422 -0.03374645 -0.48194420
v 0.41437969 -0.23728590 0.08763992
v -0.33056042 0.05035377 -0.32168946
v 0.70197499 -0.06866106 0.50185239
v -0.13568260 0.12382681 0.49033618
v -0.40078184 -0.18186592 -0.44423062
v -0.42899796 -0.09880716 -0.21158406
v -0.42501417 -0.07352758 -0.45090288
v -0.26705769 -0.28053829 0.42433855
v 0.40091810 0.04890692 0.11535563
v 0.55427414 0.09964018 0.48767841
v 0.69603240 -0.09688100 -0.22979301
v 0.46599272 -0.23313084 0.01310676
v -0.31705970 -0.15875128 -0.11613581
v 0.65144402 0.09976478 0.23791879
v 0.01094898 0.11633655 0.29398593
v 0.00080943 0.19003600 0.45533523
v 0.43990931 -0.20750946 -0.38035914
v -0.68959701 0.21446651 -0.39073041
v -0.54060483 -0.03738070 0.47285366
v 0.44398960 0.23568201 0.41450757
v 0.21857311 -0.07087209 -0.42213777
v -0.31866971 -0.16907911 0.23299785
v 0.72999626 -0.08931978 -0.10119063
v -0.30939534 -0.25325590 0.38347486
v -0.32260200 0.06524606 0.48163795
v 0.34944710 0.19002867 0.38592812
v 0.26064336 -0.18769614 0.20137048
v 0.02674896 -0.03519120 -0.26542893
v 0.63235027 0.06248129 0.32427400
v 0.77488321 0.00183322 0.09072755
v -0.09564689 0.03006015 -0.38998723
v 0.46109420 0.12453522 0.28022209
v -0.34598044 -0.24357179 0.29921004
v -0.02014756 0.01452594 -0.15234601
v -0.25992540 -0.19750521 -0.28007036
v 0.54210782 -0.19868881 -0.32196358
v 0.74194843 0.05217407 0.49132103
v -0.46422356 0.00262943 -0.65174782
v -0.23128223 -0.28148627 -0.45419440
v 0.33340880 -0.34373358 0.40462500
v 0.40897164 0.28650066 0.48529691
v -0.11863165 0.02074455 0.03503120
v 0.45412186 0.33700803 0.27545583
v 0.15304646 -0.10882919 0.12172857
v 0.01499187 0.09064313 0.34083974
v -0.45066693 0.08051926 -0.63039869
v 0.53349471 0.06032847 -0.04295968
v 0.67990667 0.15591213 0.50588793
v 0.38290593 -0.19291188 0.00449028
v -0.45149517 -0.02957631 0.50512004
v 0.84267992 0.03919650 0.08792911
v 0.16998293 0.09931108 0.44690344
v 0.82907015 0.06374837 0.18223150
v 0.45235050 0.05254515 -0.15821211
v -0.67378473 -0.01642724 0.09786061
v -0.64172077 -0.07638931 0.29014525
v 0.63220179 0.22178017 0.24150686
v -0.16106130 0.02046991 -0.67643005
v 0.51162964 0.01458534 -0.35096642
v 0.64079404 -0.00429879 -0.13246170
v 0.70882273 -0.05742478 -0.20018834
v 0.43279797 0.07293303 0.43810928
v -0.11985493 -0.03359730 -0.52374107
v -0.38144299 0.33475244 0.50515199
v 0.82242572 0.17959970 0.08011354
v 0.77940071 0.06369829 0.28415146
v -0.40854865 -0.16848794 -0.31458256
v -0.45910650 -0.13946529 -0.32883605
v -0.12949674 -0.15087275 0.07639328
v 0.71109569 0.07249095 0.32635108
v -0.45049173 0.08757530 -0.62860185
v -0.37896362 -0.23222604 -0.59895205
v -0.12517972 0.27884695 0.50624663
v -0.37406424 -0.20879667 -0.55015314
v -0.37859732 -0.11070628 -0.63484830
v -0.41752297 -0.18624051 -0.56975150
v 0.53070199 -0.06056562 0.17895800
v 0.71270323 0.17026287 0.48234197
v -0.62003642 -0.05349768 0.01120946
v 0.28714794 -0.18524441 0.12954630
v -0.08420181 -0.17692029 0.02266965
v -0.21521787 0.00108450 -0.12332627
v -0.30185196 -0.22754666 -0.66513216
v -0.64908832 0.12448422 -0.63723463
v -0.64325333 0.17336021 -0.29805991
v 0.51994324 -0.24328682 0.35277840
v -0.41687080 0.14251840 -0.06191803
v 0.51726544 0.03264091 0.09160433
v -0.28152600 -0.00600957 0.07467893
v 0.07991160 0.07190763 0.20215015
v 0.10070134 -0.16964646 0.15876347
v -0.66797704 0.22426154 -0.57906115
v 0.75322270 0.06999500 0.31152534
v -0.61146939 0.18571348 0.15936993
v -0.15029043 -0.30919033 -0.60049355
v 0.65698391 -0.12935649 -0.08061699
v 0.26325145 0.16023247 0.33694440
v -0.69611305 0.08237667 0.22417440
v -0.23518282 -0.01560421 -0.08019770
v -0.55066955 0.04647683 -0.61441165
v 0.18418095 -0.12318143 -0.44371071
v -0.13604969 -0.24149096 0.31488886
v -0.11885508 -0.05977976 -0.40270558
v 0.50651276 -0.21933314 0.08076672
v 0.73203516 0.05477693 0.13956612
v -0.20070402 -0.12307891 -0.79647499
v 0.57151091 0.00103467 -0.31714201
v 0.59135002 -0.19268765 0.00246856
v 0.72639728 -0.05534610 -0.02311389
v -0.17070560 0.00208884 -0.59557438
v 0.78598094 -0.07237462 -0.09370369
v -0.29662111 0.00493510 0.05432301
v -0.24142122 -0.20526364 0.34662557
v 0.79578531 -0.07427948 -0.29455227
v 0.67957115 0.27768141 0.44463271
v 0.24414501 0.06074530 0.36126697
v -0.47060078 0.23481162 0.25219750
v -0.56657857 -0.12743776 0.45189762
v -0.61685359 0.21819414 -0.52497494
v 0.81747061 0.23875158 0.18356952
v -0.67393094 0.02577829 -0.48719299
v -0.83349144 0.04579077 -0.31082347
v 0.52928048 -0.13364367 -0.39879739
v -0.16553031 -0.30331841 -0.57159454
v 0.41405725 -0.34682560 0.47983435
v 0.31631574 -0.18997222 0.09087475
v 0.21025421 -0.03528014 0.32704866
v -0.66924584 0.05392864 -0.37281939
v 0.53352118 0.10616981 0.28029028
v -0.45546627 -0.24131297 0.40946034
v -0.59460366 0.09088049 -0.29064214
v -0.11504041 0.04206247 0.50546318
v -0.01105744 0.23417141 0.48696762
v 0.08632244 0.09041747 0.02626355
v 0.75857848 0.08703103 0.43398476
v -0.77748960 0.12953071 -0.31938419
v 0.37804699 -0.33562234 0.34846881
v -0.30318195 0.07170252 -0.25557432
v -0.66800064 0.14949307 0.23301262
v 0.14780974 0.29494262 0.48415512
v -0.29591671 -0.26526934 -0.67161202
v 0.33798322 -0.32007828 0.41541025
v 0.80122966 0.02125102 0.12363706
v -0.15824845 0.01672763 0.09317085
v 0.49073228 0.27809662 0.28072214
v -0.31137434 0.39204696 0.43532628
v 0.18976510 0.03068714 -0.08647846
v 0.67080051 0.10467847 0.24024336
v -0.06473795 -0.01127555 -0.54671007
v 0.58398843 0.01844745 0.50935596
v 0.27483100 0.13455756 0.42677855
v 0.78445995 0.06326019 0.27016521
v -0.00067441 0.00010694 0.42393339
v -0.14298086 0.13500814 0.48213172
v -0.35190618 0.14153472 0.50316292
v -0.70360076 0.02398855 -0.61176217
v -0.41883624 0.10230938 -0.46723506
v -0.35884246 0.01922086 -0.64045393
v -0.59916490 -0.11435856 0.14839199
v -0.17147426 0.24878664 0.49321812
v 0.11577224 0.06557240 0.07286207
v 0.76271695 -0.01360545 -0.18694820
v 0.46880260 -0.23830429 0.27351764
v -0.52119792 0.11164196 -0.48625275
v -0.13982801 -0.14788887 -0.25436708
v -0.30388126 0.35116497 0.30017564
v 0.24858552 -0.23425862 -0.20490082
v 0.05483318 0.10091165 0.17285289
v -0.29871061 -0.26691160 0.40421593
v 0.33179551 -0.22660640 0.15076166
v -0.30780503 -0.15911420 -0.11277967
v -0.57730854 -0.16996939 0.35841736
v 0.03419144 0.05008685 -0.17311238
v 0.71293473 0.22753431 0.14436933
v 0.40428925 0.22107153 0.43733671
v -0.33435220 0.04603280 -0.30640221
v 0.21572034 -0.15431930 -0.04527206
v 0.58948117 -0.19622216 -0.25965500
v 0.51039064 -0.08560061 0.23023735
v 0.02958963 0.09272453 -0.00907115
v -0.55460721 0.06614682 -0.10124221
v -0.49864125 -0.06314887 -0.45933601
v -0.05523311 0.09439645 0.04993416
v 0.29700804 0.05115985 -0.27951452
v 0.73864025 0.07910617 0.46408641
v 0.07064527 -0.00502188 -0.29476756
v 0.22916318 -0.16479020 -0.07475459
v 0.47176740 -0.17889473 -0.39566341
v 0.36249837 0.20738712 0.37024522
v -0.10887411 -0.32334509 -0.49924111
v 0.43403056 0.01293269 0.47565132
v -0.29866850 -0.03702199 -0.65082723
v 0.13175778 -0.11634200 -0.41435888
v 0.30981791 -0.22777943 0.21139471
v 0.74556351 0.06087036 0.47784165
v -0.05953519 0.12651002 0.14999489
v -0.69974363 0.03035197 0.22737299
v 0.16777982 -0.04466572 -0.39186272
v -0.41149884 -0.03311710 -0.46325132
v 0.20527750 -0.19056089 -0.07678490
v 0.05182483 0.05170490 -0.19494319
v -0.26970541 0.27229255 0.27258942
v 0.41493103 0.06498095 0.45985541
v -0.36185423 -0.12453291 0.00733702
v -0.57813996 -0.05851847 0.44332370
v 0.26014486 0.01042485 0.22199328
v 0.19238077 0.04386044 -0.12226127
v -0.39368710 -0.20452774 -0.47954455
v -0.36429158 0.10422436 -0.59103781
v 0.59101236 -0.21137573 -0.11377516
v -0.65638912 0.07781197 -0.28459650
v -0.46737289 -0.21239576 0.35015807
v -0.09654144 -0.04813634 -0.10034768
v -0.42527804 0.01306519 -0.22541191
v -0.15342930 -0.17508116 0.45227510
v -0.34808367 0.07509321 -0.46674040
v 0.89218062 -0.05465049 -0.22511353
v -0.08108619 -0.21652244 0.19272996
v -0.38761091 -0.12621632 -0.24990417
v -0.70140380 0.02310861 -0.46198303
v 0.35796326 0.09878174 0.22460917
v -0.06361657 -0.21597487 0.32184801
v 0.43275478 0.20572248 0.31701934
v 0.41306323 0.05232560 0.18111928
v 0.59418690 0.28977916 0.44410431
v 0.37337950 -0.27297798 0.39996132
v -0.49424174 0.09792288 -0.39022598
v -0.10383087 0.00070833 0.50373673
v -0.35288474 0.06448936 -0.33544365
v -0.36239421 0.15149480 0.49978760
v -0.65798575 0.01748649 -0.48539168
v -0.43039581 -0.04493640 -0.65210068
v -0.51791871 0.25963098 0.31506336
v 0.39212143 -0.20136890 -0.18773457
v 0.51044047 -0.23167908 -0.04551050
v -0.71144336 -0.05505815 -0.52215368
v -0.49226034 -0.13884452 -0.45123157
v -0.42648360 -0.03588087 -0.47461045
v 0.31055290 -0.02198114 0.50883353
v 0.70352179 0.09629074 0.27944285
v -0.53548270 -0.11692993 -0.58915180
v 0.13908432 -0.23510928 -0.09690703
v -0.13534424 -0.09369113 -0.14729410
v -0.51397735 0.31623736 0.38238171
v -0.59817940 -0.02359289 -0.29022840
v 0.22539094 -0.03394324 0.39326558
v 0.71718568 -0.03162425 0.50219047
v -0.08191659 -0.19615275 0.06397613
v 0.51888633 -0.14303456 0.22465335
v -0.48698950 0.12828954 -0.47326732
v -0.13765912 -0.02636601 0.02858044
v 0.04987111 -0.19969949 -0.21617256
v -0.14531547 -0.27166086 -0.57562935
v -0.37204838 -0.03352015 -0.65404356
v -0.57400292 -0.01826250 -0.30198044
v -0.48287594 0.11709895 -0.10523265
v 0.79882646 0.00312872 -0.09306057
v 0.38519523 -0.21220058 -0.20053902
v 0.14920108 -0.04464787 0.15545768
v 0.67726463 -0.11243578 -0.15869556
v 0.45798978 -0.31442621 0.39219478
v -0.32757813 0.12332083 -0.52752280
v -0.32637259 0.29536104 0.27118072
v 0.40520090 0.02031754 -0.06783019
v 0.39250067 0.25660151 0.17571993
v -0.43404657 0.13035783 -0.59926271
v 0.19010007 -0.09735342 0.04445017
v -0.23078796 0.27137753 0.29837212
v -0.43777901 0.12976238 -0.46511388
v 0.57876635 -0.17569803 0.05565049
v -0.23439774 0.08662389 -0.65941948
v -0.49848419 0.12550589 -0.55235654
v -0.30902818 0.08035908 -0.22673379
v -0.54592508 0.20738758 0.38609537
v -0.42404690 -0.20641725 0.45445588
v 0.48960084 0.13385707 0.28693232
v -0.45478132 -0.06058946 -0.64348614
v -0.52510196 -0.23885432 0.38306317
v -0.33751070 -0.17208676 0.47894731
v -0.10492221 -0.24610864 0.19814794
v 0.02351587 0.10573108 0.29180604
v 0.72039109 0.30156207 0.31604877
v -0.52833420 0.19382095 -0.53402632
v -0.46431366 -0.12154220 -0.11998075
v -0.68286192 0.10650467 0.24171272
v -0.00276110 -0.11795116 0.37645003
v 0.78289026 0.06652641 0.30508938
v 0.75566244 0.29389384 0.28414398
v -0.45690319 0.12784316 -0.60855418
v 0.57277507 -0.20199536 0.40257505
v -0.04892859 0.27724510 0.40508923
v 0.24479423 -0.03687448 -0.10180248
v -0.52912182 0.16881950 0.02111828
v -0.52386397 0.05710290 -0.49417776
v 0.49010360 0.22073978 -0.00070217
v -0.04934863 -0.16453968 -0.67551863
v -0.51383734 0.34795526 0.40837589
v 0.12288453 -0.23682638 -0.13256007
v -0.06337399 0.10122599 0.08394235
v 0.85950816 -0.00169813 -0.23079647
v -0.67019629 0.11792197 -0.28812373
v 0.54042387 -0.02680898 0.29888603
v 0.14921792 -0.00930677 0.12944843
v -0.48802614 -0.03436167 -0.47920814
v 0.45946756 -0.11774330 0.47416258
v -0.47814646 0.44085374 0.36473635
v -0.70163840 0.04756250 -0.28728351
v -0.31371197 0.11118308 -0.42578757
v 0.33787525 -0.12975769 -0.46557629
v 0.76171535 -0.05666953 -0.01973492
v 0.43216076 0.05462812 0.05828286
v -0.29041937 0.07990317 -0.08579681
v -0.49741539 0.18148592 -0.34438109
v -0.57324135 0.21155712 0.29960760
v 0.48875070 0.12603918 0.28453138
v 0.29716361 0.00311665 -0.40197054
v -0.26427448 0.04621486 0.13240825
v -0.59866381 -0.10959893 0.29735383
v -0.16137804 0.03011084 0.49594322
v -0.43527919 -0.21283127 0.18443622
v 0.49259257 -0.28415331 0.39681020
v 0.49854025 0.04728157 0.06181812
v 0.16644979 0.23374538 0.43030497
v 0.14362593 -0.19456512 0.02767448
v -0.16144334 0.23174796 0.28733608
v 0.28191158 -0.27192056 0.34497356
v 0.56052566 0.01995530 0.05356111
v 0.55259758 -0.22672555 -0.10434662
v 0.15811262 0.11505014 0.44891155
v -0.26524964 0.25245389 0.41145784
v 0.69894499 0.15899336 0.11349321
v 0.05074531 -0.18421249 -0.74946588
v -0.20321327 0.26365513 0.27929595
v -0.14929965 -0.25144923 -0.41772696
v -0.25195280 -0.28706685 0.43210116
v -0.57528812 0.06236411 -0.08563539
v -0.11036377 0.03430943 -0.41335768
v -0.66646791 0.11678465 -0.28748906
v -0.20651267 0.26734489 0.28552413
v -0.12754428 -0.29871342 -0.57425469
v -0.33725932 0.27132255 0.45705986
v 0.36535335 -0.23874988 0.29278401
v -0.42960319 0.15347858 -0.47478756
v 0.65792066 0.26372927 0.47108024
v -0.42615843 0.29550773 0.29795066
v -0.35398117 -0.18947512 -0.32431367
v -0.41251823 0.07072798 -0.19619414
v -0.44246063 -0.14723884 -0.29762658
v 0.14373875 0.06668200 -0.17308778
v -0.38417074 0.14510202 -0.00537336
v 0.56673485 0.24136660 0.50317734
v -0.02928451 -0.18784720 -0.07756674
v -0.44931433 -0.15372631 -0.60184747
v -0.58643526 -0.07457530 -0.29121646
v -0.39982793 0.14421047 -0.37634939
v -0.15924752 0.19628583 0.49426109
v -0.41995904 -0.02192943 -0.32510415
v -0.15653975 0.07519263 0.11591461
v 0.33020636 0.04785914 -0.25654629
v 0.36670280 -0.16347420 -0.00834909
v -0.65777767 -0.05530819 0.31040832
v -0.07079215 -0.02634463 0.48930359
v -0.12051850 -0.06226633 -0.41091943
v 0.69715214 -0.03560554 -0.14593740
v -0.13387777 -0.28716907 -0.59688473
v -0.46924824 0.14637136 -0.46779385
v 0.36398613 0.05058224 -0.30995786
v -0.37873694 0.08400510 0.49050847
v 0.23832794 0.04667958 -0.19652498
v 0.46981332 0.15628237 -0.08668178
v 0.48261511 -0.23372425 0.26683280
v 0.14921384 -0.08913364 -0.41398254
v -0.47149399 -0.24399677 0.23416057
v 0.40727544 0.05901821 0.20135756
v -0.40224585 -0.25724122 0.40771762
v -0.17048094 0.05801656 0.49540651
v -0.03688644 -0.01263687 -0.36225525
v -0.46061102 -0.03344706 -0.41385663
v -0.51682693 -0.21549295 0.42198026
v 0.55105639 -0.21764335 0.38293779
v 0.75526261 0.24428967 0.42400670
v 0.01559431 -0.07926098 -0.29327175
v -0.41666785 0.15774967 -0.35174912
v -0.30778226 -0.05480886 0.06394521
v 0.22381027 -0.04649293 0.20262848
v -0.68460953 -0.00818466 0.13759087
v -0.43595877 0.27654117 0.50385278
v 0.51466662 -0.09650037 -0.44267043
v 0.75617832 0.06022993 0.18450035
v 0.17148104 0.02473664 -0.03143701
v 0.34464529 0.22800702 0.22157109
v -0.58102000 -0.04348529 -0.06683054
v -0.60459942 -0.10937253 0.28359094
v -0.51451439 -0.13016681 0.10399104
v -0.12799184 -0.04521767 -0.28247637
v -0.48043638 -0.05274641 0.49179104
v -0.48311022 0.42386141 0.33020279
v -0.51191092 0.04918389 -0.49222645
v 0.56951648 0.05284871 -0.12437222
v -0.47900638 0.17025286 -0.53128004
v -0.54870278 0.19327000 -0.33951002
v -0.25776592 0.06931874 -0.13792515
v 0.46044758 0.15779698 0.03079377
v -0.13070650 -0.11336600 -0.17442431
v 0.27980357 0.21248582 0.46429411
v 0.70800740 0.11884020 0.05250211
v -0.30296865 -0.16382903 0.48724121
v -0.47904935 -0.15684427 -0.48845065
v 0.40577281 -0.27378827 0.34465948
v 0.09051279 -0.11242114 0.24831460
v 0.00805109 0.23954694 0.36826819
v 0.63025451 -0.00615257 -0.22658612
v -0.50035346 0.16964616 -0.30714810
v 0.38228002 -0.02884201 -0.42107707
v -0.43310726 0.08500072 -0.17263180
v -0.20171890 -0.08716448 0.50638539
v 0.85734212 -0.01641971 -0.19270961
v -0.04260745 0.13318485 0.14821348
v -0.24150296 -0.05159769 -0.64727330
v 0.45053092 0.24334233 0.33508471
v 0.36864454 -0.19452405 0.40075082
v 0.48538360 0.05875309 0.37529236
v 0.54156184 0.28464699 0.12761804
v 0.69149244 0.09464159 0.10343836
v -0.72513032 0.05135489 -0.53083283
v 0.33240065 0.22782786 0.26555410
v 0.83158660 -0.03101243 -0.35476655
v 0.63000226 0.10721629 0.23867698
v 0.35048613 -0.33845106 0.35573283
v -0.25536460 -0.04050661 0.12532067
v 0.24776898 0.05311389 -0.23506616
v 0.45899034 0.21055916 -0.04235892
v 0.56893468 0.29188803 0.36602172
v -0.57932961 0.19499663 0.12596281
v -0.33724689 0.28612736 0.26975295
v -0.41094175 -0.02578842 -0.44561675
v 0.02454235 0.09644625 0.00654116
v -0.06958944 -0.22582051 0.28081694
v 0.64014292 -0.14730829 0.44502601
v -0.26414889 -0.03501261 -0.63485479
v 0.54464734 -0.08088543 0.29277760
v -0.07229798 -0.22106129 0.36399904
v 0.76226199 0.24821270 0.41303957
v 0.55941600 0.17730370 0.28658703
v -0.09870215 -0.01617264 -0.37195739
v 0.57470262 -0.10501762 0.10469625
v 0.69484246 0.05021030 0.11970472
v -0.28433478 0.08611050 -0.60670382
v 0.37655813 -0.17778462 -0.00840246
v -0.35137528 0.13428040 -0.35284090
v -0.66697395 0.08122037 -0.28581962
v -0.59465963 0.12186711 -0.00925158
v 0.44814184 -0.36033222 0.45082599
v 0.24940819 0.02417598 0.28173202
v -0.11608935 -0.12712973 -0.53349006

